G04 (created by PCBNEW-RS274X (2012-05-21 BZR 3261)-stable) date Thu 30 May 2013 11:23:39 PM PDT*
G01*
G70*
G90*
%MOIN*%
G04 Gerber Fmt 3.4, Leading zero omitted, Abs format*
%FSLAX34Y34*%
G04 APERTURE LIST*
%ADD10C,0.008000*%
%ADD11C,0.012000*%
G04 APERTURE END LIST*
G54D10*
G54D11*
X64404Y-35363D02*
X64404Y-34563D01*
X64204Y-34563D02*
X64004Y-35363D01*
X63804Y-34563D01*
X63604Y-35363D02*
X63604Y-34563D01*
X63376Y-34563D01*
X63318Y-34601D01*
X63290Y-34639D01*
X63261Y-34715D01*
X63261Y-34829D01*
X63290Y-34906D01*
X63318Y-34944D01*
X63376Y-34982D01*
X63604Y-34982D01*
X62547Y-35363D02*
X62547Y-34563D01*
X62347Y-35134D01*
X62147Y-34563D01*
X62147Y-35363D01*
X61775Y-35363D02*
X61833Y-35325D01*
X61861Y-35287D01*
X61890Y-35210D01*
X61890Y-34982D01*
X61861Y-34906D01*
X61833Y-34868D01*
X61775Y-34829D01*
X61690Y-34829D01*
X61633Y-34868D01*
X61604Y-34906D01*
X61575Y-34982D01*
X61575Y-35210D01*
X61604Y-35287D01*
X61633Y-35325D01*
X61690Y-35363D01*
X61775Y-35363D01*
X61318Y-34829D02*
X61318Y-35363D01*
X61318Y-34906D02*
X61290Y-34868D01*
X61232Y-34829D01*
X61147Y-34829D01*
X61090Y-34868D01*
X61061Y-34944D01*
X61061Y-35363D01*
X60775Y-35363D02*
X60775Y-34829D01*
X60775Y-34563D02*
X60804Y-34601D01*
X60775Y-34639D01*
X60747Y-34601D01*
X60775Y-34563D01*
X60775Y-34639D01*
X60575Y-34829D02*
X60346Y-34829D01*
X60489Y-34563D02*
X60489Y-35249D01*
X60461Y-35325D01*
X60403Y-35363D01*
X60346Y-35363D01*
X60060Y-35363D02*
X60118Y-35325D01*
X60146Y-35287D01*
X60175Y-35210D01*
X60175Y-34982D01*
X60146Y-34906D01*
X60118Y-34868D01*
X60060Y-34829D01*
X59975Y-34829D01*
X59918Y-34868D01*
X59889Y-34906D01*
X59860Y-34982D01*
X59860Y-35210D01*
X59889Y-35287D01*
X59918Y-35325D01*
X59975Y-35363D01*
X60060Y-35363D01*
X59603Y-35363D02*
X59603Y-34829D01*
X59603Y-34982D02*
X59575Y-34906D01*
X59546Y-34868D01*
X59489Y-34829D01*
X59432Y-34829D01*
X58804Y-34639D02*
X58775Y-34601D01*
X58718Y-34563D01*
X58575Y-34563D01*
X58518Y-34601D01*
X58489Y-34639D01*
X58461Y-34715D01*
X58461Y-34791D01*
X58489Y-34906D01*
X58832Y-35363D01*
X58461Y-35363D01*
X58090Y-34563D02*
X58033Y-34563D01*
X57976Y-34601D01*
X57947Y-34639D01*
X57918Y-34715D01*
X57890Y-34868D01*
X57890Y-35058D01*
X57918Y-35210D01*
X57947Y-35287D01*
X57976Y-35325D01*
X58033Y-35363D01*
X58090Y-35363D01*
X58147Y-35325D01*
X58176Y-35287D01*
X58204Y-35210D01*
X58233Y-35058D01*
X58233Y-34868D01*
X58204Y-34715D01*
X58176Y-34639D01*
X58147Y-34601D01*
X58090Y-34563D01*
X57319Y-35363D02*
X57662Y-35363D01*
X57490Y-35363D02*
X57490Y-34563D01*
X57547Y-34677D01*
X57605Y-34753D01*
X57662Y-34791D01*
X57119Y-34563D02*
X56748Y-34563D01*
X56948Y-34868D01*
X56862Y-34868D01*
X56805Y-34906D01*
X56776Y-34944D01*
X56748Y-35020D01*
X56748Y-35210D01*
X56776Y-35287D01*
X56805Y-35325D01*
X56862Y-35363D01*
X57034Y-35363D01*
X57091Y-35325D01*
X57119Y-35287D01*
X56377Y-34563D02*
X56320Y-34563D01*
X56263Y-34601D01*
X56234Y-34639D01*
X56205Y-34715D01*
X56177Y-34868D01*
X56177Y-35058D01*
X56205Y-35210D01*
X56234Y-35287D01*
X56263Y-35325D01*
X56320Y-35363D01*
X56377Y-35363D01*
X56434Y-35325D01*
X56463Y-35287D01*
X56491Y-35210D01*
X56520Y-35058D01*
X56520Y-34868D01*
X56491Y-34715D01*
X56463Y-34639D01*
X56434Y-34601D01*
X56377Y-34563D01*
X55634Y-34563D02*
X55920Y-34563D01*
X55949Y-34944D01*
X55920Y-34906D01*
X55863Y-34868D01*
X55720Y-34868D01*
X55663Y-34906D01*
X55634Y-34944D01*
X55606Y-35020D01*
X55606Y-35210D01*
X55634Y-35287D01*
X55663Y-35325D01*
X55720Y-35363D01*
X55863Y-35363D01*
X55920Y-35325D01*
X55949Y-35287D01*
X55406Y-34563D02*
X55035Y-34563D01*
X55235Y-34868D01*
X55149Y-34868D01*
X55092Y-34906D01*
X55063Y-34944D01*
X55035Y-35020D01*
X55035Y-35210D01*
X55063Y-35287D01*
X55092Y-35325D01*
X55149Y-35363D01*
X55321Y-35363D01*
X55378Y-35325D01*
X55406Y-35287D01*
X54664Y-34563D02*
X54607Y-34563D01*
X54550Y-34601D01*
X54521Y-34639D01*
X54492Y-34715D01*
X54464Y-34868D01*
X54464Y-35058D01*
X54492Y-35210D01*
X54521Y-35287D01*
X54550Y-35325D01*
X54607Y-35363D01*
X54664Y-35363D01*
X54721Y-35325D01*
X54750Y-35287D01*
X54778Y-35210D01*
X54807Y-35058D01*
X54807Y-34868D01*
X54778Y-34715D01*
X54750Y-34639D01*
X54721Y-34601D01*
X54664Y-34563D01*
X65418Y-39656D02*
X65332Y-39694D01*
X65189Y-39694D01*
X65132Y-39656D01*
X65103Y-39618D01*
X65075Y-39541D01*
X65075Y-39465D01*
X65103Y-39389D01*
X65132Y-39351D01*
X65189Y-39313D01*
X65303Y-39275D01*
X65361Y-39237D01*
X65389Y-39199D01*
X65418Y-39122D01*
X65418Y-39046D01*
X65389Y-38970D01*
X65361Y-38932D01*
X65303Y-38894D01*
X65161Y-38894D01*
X65075Y-38932D01*
X64818Y-39694D02*
X64818Y-38894D01*
X64561Y-39694D02*
X64561Y-39275D01*
X64590Y-39199D01*
X64647Y-39160D01*
X64732Y-39160D01*
X64790Y-39199D01*
X64818Y-39237D01*
X64018Y-39694D02*
X64018Y-39275D01*
X64047Y-39199D01*
X64104Y-39160D01*
X64218Y-39160D01*
X64275Y-39199D01*
X64018Y-39656D02*
X64075Y-39694D01*
X64218Y-39694D01*
X64275Y-39656D01*
X64304Y-39580D01*
X64304Y-39503D01*
X64275Y-39427D01*
X64218Y-39389D01*
X64075Y-39389D01*
X64018Y-39351D01*
X63732Y-39694D02*
X63732Y-39160D01*
X63732Y-39313D02*
X63704Y-39237D01*
X63675Y-39199D01*
X63618Y-39160D01*
X63561Y-39160D01*
X63133Y-39656D02*
X63190Y-39694D01*
X63304Y-39694D01*
X63361Y-39656D01*
X63390Y-39580D01*
X63390Y-39275D01*
X63361Y-39199D01*
X63304Y-39160D01*
X63190Y-39160D01*
X63133Y-39199D01*
X63104Y-39275D01*
X63104Y-39351D01*
X63390Y-39427D01*
X62647Y-39275D02*
X62561Y-39313D01*
X62533Y-39351D01*
X62504Y-39427D01*
X62504Y-39541D01*
X62533Y-39618D01*
X62561Y-39656D01*
X62619Y-39694D01*
X62847Y-39694D01*
X62847Y-38894D01*
X62647Y-38894D01*
X62590Y-38932D01*
X62561Y-38970D01*
X62533Y-39046D01*
X62533Y-39122D01*
X62561Y-39199D01*
X62590Y-39237D01*
X62647Y-39275D01*
X62847Y-39275D01*
X62247Y-39694D02*
X62247Y-39160D01*
X62247Y-39313D02*
X62219Y-39237D01*
X62190Y-39199D01*
X62133Y-39160D01*
X62076Y-39160D01*
X61619Y-39694D02*
X61619Y-39275D01*
X61648Y-39199D01*
X61705Y-39160D01*
X61819Y-39160D01*
X61876Y-39199D01*
X61619Y-39656D02*
X61676Y-39694D01*
X61819Y-39694D01*
X61876Y-39656D01*
X61905Y-39580D01*
X61905Y-39503D01*
X61876Y-39427D01*
X61819Y-39389D01*
X61676Y-39389D01*
X61619Y-39351D01*
X61333Y-39694D02*
X61333Y-39160D01*
X61333Y-38894D02*
X61362Y-38932D01*
X61333Y-38970D01*
X61305Y-38932D01*
X61333Y-38894D01*
X61333Y-38970D01*
X61047Y-39160D02*
X61047Y-39694D01*
X61047Y-39237D02*
X61019Y-39199D01*
X60961Y-39160D01*
X60876Y-39160D01*
X60819Y-39199D01*
X60790Y-39275D01*
X60790Y-39694D01*
X60276Y-39656D02*
X60333Y-39694D01*
X60447Y-39694D01*
X60504Y-39656D01*
X60533Y-39580D01*
X60533Y-39275D01*
X60504Y-39199D01*
X60447Y-39160D01*
X60333Y-39160D01*
X60276Y-39199D01*
X60247Y-39275D01*
X60247Y-39351D01*
X60533Y-39427D01*
X59733Y-39694D02*
X59733Y-38894D01*
X59733Y-39656D02*
X59790Y-39694D01*
X59904Y-39694D01*
X59962Y-39656D01*
X59990Y-39618D01*
X60019Y-39541D01*
X60019Y-39313D01*
X59990Y-39237D01*
X59962Y-39199D01*
X59904Y-39160D01*
X59790Y-39160D01*
X59733Y-39199D01*
X59076Y-38894D02*
X58733Y-38894D01*
X58904Y-39694D02*
X58904Y-38894D01*
X58305Y-39656D02*
X58362Y-39694D01*
X58476Y-39694D01*
X58533Y-39656D01*
X58562Y-39580D01*
X58562Y-39275D01*
X58533Y-39199D01*
X58476Y-39160D01*
X58362Y-39160D01*
X58305Y-39199D01*
X58276Y-39275D01*
X58276Y-39351D01*
X58562Y-39427D01*
X57762Y-39656D02*
X57819Y-39694D01*
X57933Y-39694D01*
X57991Y-39656D01*
X58019Y-39618D01*
X58048Y-39541D01*
X58048Y-39313D01*
X58019Y-39237D01*
X57991Y-39199D01*
X57933Y-39160D01*
X57819Y-39160D01*
X57762Y-39199D01*
X57505Y-39694D02*
X57505Y-38894D01*
X57248Y-39694D02*
X57248Y-39275D01*
X57277Y-39199D01*
X57334Y-39160D01*
X57419Y-39160D01*
X57477Y-39199D01*
X57505Y-39237D01*
X56962Y-39160D02*
X56962Y-39694D01*
X56962Y-39237D02*
X56934Y-39199D01*
X56876Y-39160D01*
X56791Y-39160D01*
X56734Y-39199D01*
X56705Y-39275D01*
X56705Y-39694D01*
X56333Y-39694D02*
X56391Y-39656D01*
X56419Y-39618D01*
X56448Y-39541D01*
X56448Y-39313D01*
X56419Y-39237D01*
X56391Y-39199D01*
X56333Y-39160D01*
X56248Y-39160D01*
X56191Y-39199D01*
X56162Y-39237D01*
X56133Y-39313D01*
X56133Y-39541D01*
X56162Y-39618D01*
X56191Y-39656D01*
X56248Y-39694D01*
X56333Y-39694D01*
X55790Y-39694D02*
X55848Y-39656D01*
X55876Y-39580D01*
X55876Y-38894D01*
X55476Y-39694D02*
X55534Y-39656D01*
X55562Y-39618D01*
X55591Y-39541D01*
X55591Y-39313D01*
X55562Y-39237D01*
X55534Y-39199D01*
X55476Y-39160D01*
X55391Y-39160D01*
X55334Y-39199D01*
X55305Y-39237D01*
X55276Y-39313D01*
X55276Y-39541D01*
X55305Y-39618D01*
X55334Y-39656D01*
X55391Y-39694D01*
X55476Y-39694D01*
X54762Y-39160D02*
X54762Y-39808D01*
X54791Y-39884D01*
X54819Y-39922D01*
X54876Y-39960D01*
X54962Y-39960D01*
X55019Y-39922D01*
X54762Y-39656D02*
X54819Y-39694D01*
X54933Y-39694D01*
X54991Y-39656D01*
X55019Y-39618D01*
X55048Y-39541D01*
X55048Y-39313D01*
X55019Y-39237D01*
X54991Y-39199D01*
X54933Y-39160D01*
X54819Y-39160D01*
X54762Y-39199D01*
X54533Y-39160D02*
X54390Y-39694D01*
X54248Y-39160D02*
X54390Y-39694D01*
X54448Y-39884D01*
X54476Y-39922D01*
X54533Y-39960D01*
X53991Y-39656D02*
X53991Y-39694D01*
X54019Y-39770D01*
X54048Y-39808D01*
X53276Y-39694D02*
X53276Y-38894D01*
X52990Y-39160D02*
X52990Y-39694D01*
X52990Y-39237D02*
X52962Y-39199D01*
X52904Y-39160D01*
X52819Y-39160D01*
X52762Y-39199D01*
X52733Y-39275D01*
X52733Y-39694D01*
X52190Y-39656D02*
X52247Y-39694D01*
X52361Y-39694D01*
X52419Y-39656D01*
X52447Y-39618D01*
X52476Y-39541D01*
X52476Y-39313D01*
X52447Y-39237D01*
X52419Y-39199D01*
X52361Y-39160D01*
X52247Y-39160D01*
X52190Y-39199D01*
X51933Y-39618D02*
X51905Y-39656D01*
X51933Y-39694D01*
X51962Y-39656D01*
X51933Y-39618D01*
X51933Y-39694D01*
M02*
