M48
;DRILL file {Pcbnew (2012-05-21 BZR 3261)-stable} date Thu 30 May 2013 11:23:46 PM PDT
;FORMAT={-:-/ absolute / inch / decimal}
FMAT,2
INCH,TZ
T1C0.016
T2C0.040
T3C0.051
T4C0.126
%
G90
G05
M72
T1
X5.528Y-3.677
X5.575Y-3.677
X5.724Y-3.709
X5.937Y-3.614
X6.032Y-3.661
X6.244Y-3.732
X6.661Y-3.976
X6.661Y-4.087
T2
X5.634Y-4.134
X5.734Y-4.134
X5.834Y-4.134
X5.934Y-4.134
X6.034Y-4.134
X6.134Y-4.134
X6.234Y-4.134
X6.334Y-4.134
X6.604Y-3.296
X6.604Y-3.397
X6.604Y-3.574
X6.604Y-3.674
X6.604Y-3.774
X6.604Y-3.874
X6.704Y-3.296
X6.704Y-3.397
X6.704Y-3.574
X6.704Y-3.674
X6.704Y-3.774
X6.704Y-3.874
T3
X5.205Y-3.441
X5.205Y-3.638
X5.205Y-3.835
T4
X5.197Y-4.095
X6.142Y-3.347
T0
M30
