G04 (created by PCBNEW-RS274X (2012-05-21 BZR 3261)-stable) date Thu 30 May 2013 11:23:39 PM PDT*
G01*
G70*
G90*
%MOIN*%
G04 Gerber Fmt 3.4, Leading zero omitted, Abs format*
%FSLAX34Y34*%
G04 APERTURE LIST*
%ADD10C,0.008000*%
%ADD11R,0.060000X0.060000*%
%ADD12C,0.060000*%
%ADD13R,0.076800X0.076800*%
%ADD14C,0.076800*%
%ADD15C,0.035000*%
G04 APERTURE END LIST*
G54D10*
G54D11*
X66035Y-35744D03*
G54D12*
X67035Y-35744D03*
X66035Y-36744D03*
X67035Y-36744D03*
X66035Y-37744D03*
X67035Y-37744D03*
X66035Y-38744D03*
X67035Y-38744D03*
G54D11*
X66035Y-32965D03*
G54D12*
X67035Y-32965D03*
X66035Y-33965D03*
X67035Y-33965D03*
G54D11*
X56343Y-41339D03*
G54D12*
X57343Y-41339D03*
X58343Y-41339D03*
X59343Y-41339D03*
X60343Y-41339D03*
X61343Y-41339D03*
X62343Y-41339D03*
X63343Y-41339D03*
G54D13*
X52047Y-34409D03*
G54D14*
X52047Y-36378D03*
X52047Y-38347D03*
G54D15*
X55276Y-36772D03*
X55748Y-36772D03*
X66614Y-40866D03*
X62441Y-37323D03*
X60315Y-36614D03*
X59370Y-36142D03*
X57244Y-37087D03*
X66614Y-39764D03*
G54D10*
G36*
X67915Y-42325D02*
X67455Y-42325D01*
X67455Y-38828D01*
X67455Y-38661D01*
X67455Y-36828D01*
X67455Y-36661D01*
X67455Y-35828D01*
X67455Y-35661D01*
X67451Y-35651D01*
X67451Y-34024D01*
X67451Y-33024D01*
X67442Y-32860D01*
X67397Y-32751D01*
X67337Y-32720D01*
X67280Y-32777D01*
X67280Y-32663D01*
X67249Y-32603D01*
X67094Y-32549D01*
X66930Y-32558D01*
X66821Y-32603D01*
X66790Y-32663D01*
X67035Y-32908D01*
X67280Y-32663D01*
X67280Y-32777D01*
X67092Y-32965D01*
X67337Y-33210D01*
X67397Y-33179D01*
X67451Y-33024D01*
X67451Y-34024D01*
X67442Y-33860D01*
X67397Y-33751D01*
X67337Y-33720D01*
X67280Y-33777D01*
X67280Y-33663D01*
X67280Y-33267D01*
X67035Y-33022D01*
X66978Y-33079D01*
X66978Y-32965D01*
X66733Y-32720D01*
X66673Y-32751D01*
X66619Y-32906D01*
X66628Y-33070D01*
X66673Y-33179D01*
X66733Y-33210D01*
X66978Y-32965D01*
X66978Y-33079D01*
X66790Y-33267D01*
X66821Y-33327D01*
X66976Y-33381D01*
X67140Y-33372D01*
X67249Y-33327D01*
X67280Y-33267D01*
X67280Y-33663D01*
X67249Y-33603D01*
X67094Y-33549D01*
X66930Y-33558D01*
X66821Y-33603D01*
X66790Y-33663D01*
X67035Y-33908D01*
X67280Y-33663D01*
X67280Y-33777D01*
X67092Y-33965D01*
X67337Y-34210D01*
X67397Y-34179D01*
X67451Y-34024D01*
X67451Y-35651D01*
X67391Y-35507D01*
X67280Y-35395D01*
X67280Y-34267D01*
X67035Y-34022D01*
X66978Y-34079D01*
X66978Y-33965D01*
X66733Y-33720D01*
X66673Y-33751D01*
X66619Y-33906D01*
X66628Y-34070D01*
X66673Y-34179D01*
X66733Y-34210D01*
X66978Y-33965D01*
X66978Y-34079D01*
X66790Y-34267D01*
X66821Y-34327D01*
X66976Y-34381D01*
X67140Y-34372D01*
X67249Y-34327D01*
X67280Y-34267D01*
X67280Y-35395D01*
X67273Y-35388D01*
X67119Y-35324D01*
X66952Y-35324D01*
X66798Y-35388D01*
X66679Y-35506D01*
X66615Y-35660D01*
X66615Y-35827D01*
X66679Y-35981D01*
X66797Y-36100D01*
X66951Y-36164D01*
X67118Y-36164D01*
X67272Y-36100D01*
X67391Y-35982D01*
X67455Y-35828D01*
X67455Y-36661D01*
X67391Y-36507D01*
X67273Y-36388D01*
X67119Y-36324D01*
X66952Y-36324D01*
X66798Y-36388D01*
X66679Y-36506D01*
X66615Y-36660D01*
X66615Y-36827D01*
X66679Y-36981D01*
X66797Y-37100D01*
X66951Y-37164D01*
X67118Y-37164D01*
X67272Y-37100D01*
X67391Y-36982D01*
X67455Y-36828D01*
X67455Y-38661D01*
X67451Y-38651D01*
X67451Y-37803D01*
X67442Y-37639D01*
X67397Y-37530D01*
X67337Y-37499D01*
X67280Y-37556D01*
X67280Y-37442D01*
X67249Y-37382D01*
X67094Y-37328D01*
X66930Y-37337D01*
X66821Y-37382D01*
X66790Y-37442D01*
X67035Y-37687D01*
X67280Y-37442D01*
X67280Y-37556D01*
X67092Y-37744D01*
X67337Y-37989D01*
X67397Y-37958D01*
X67451Y-37803D01*
X67451Y-38651D01*
X67391Y-38507D01*
X67280Y-38395D01*
X67280Y-38046D01*
X67035Y-37801D01*
X66978Y-37858D01*
X66978Y-37744D01*
X66733Y-37499D01*
X66673Y-37530D01*
X66619Y-37685D01*
X66628Y-37849D01*
X66673Y-37958D01*
X66733Y-37989D01*
X66978Y-37744D01*
X66978Y-37858D01*
X66790Y-38046D01*
X66821Y-38106D01*
X66976Y-38160D01*
X67140Y-38151D01*
X67249Y-38106D01*
X67280Y-38046D01*
X67280Y-38395D01*
X67273Y-38388D01*
X67119Y-38324D01*
X66952Y-38324D01*
X66798Y-38388D01*
X66679Y-38506D01*
X66615Y-38660D01*
X66615Y-38827D01*
X66679Y-38981D01*
X66797Y-39100D01*
X66951Y-39164D01*
X67118Y-39164D01*
X67272Y-39100D01*
X67391Y-38982D01*
X67455Y-38828D01*
X67455Y-42325D01*
X66455Y-42325D01*
X66455Y-38828D01*
X66455Y-38661D01*
X66455Y-36828D01*
X66455Y-36661D01*
X66455Y-36068D01*
X66455Y-36020D01*
X66455Y-35420D01*
X66455Y-34049D01*
X66455Y-33882D01*
X66455Y-33289D01*
X66455Y-33241D01*
X66455Y-32641D01*
X66437Y-32597D01*
X66403Y-32563D01*
X66359Y-32545D01*
X66311Y-32545D01*
X65711Y-32545D01*
X65667Y-32563D01*
X65633Y-32597D01*
X65615Y-32641D01*
X65615Y-32689D01*
X65615Y-33289D01*
X65633Y-33333D01*
X65667Y-33367D01*
X65711Y-33385D01*
X65759Y-33385D01*
X66359Y-33385D01*
X66403Y-33367D01*
X66437Y-33333D01*
X66455Y-33289D01*
X66455Y-33882D01*
X66391Y-33728D01*
X66273Y-33609D01*
X66119Y-33545D01*
X65952Y-33545D01*
X65798Y-33609D01*
X65679Y-33727D01*
X65615Y-33881D01*
X65615Y-34048D01*
X65679Y-34202D01*
X65797Y-34321D01*
X65951Y-34385D01*
X66118Y-34385D01*
X66272Y-34321D01*
X66391Y-34203D01*
X66455Y-34049D01*
X66455Y-35420D01*
X66437Y-35376D01*
X66403Y-35342D01*
X66359Y-35324D01*
X66311Y-35324D01*
X65711Y-35324D01*
X65667Y-35342D01*
X65633Y-35376D01*
X65615Y-35420D01*
X65615Y-35468D01*
X65615Y-36068D01*
X65633Y-36112D01*
X65667Y-36146D01*
X65711Y-36164D01*
X65759Y-36164D01*
X66359Y-36164D01*
X66403Y-36146D01*
X66437Y-36112D01*
X66455Y-36068D01*
X66455Y-36661D01*
X66391Y-36507D01*
X66273Y-36388D01*
X66119Y-36324D01*
X65952Y-36324D01*
X65798Y-36388D01*
X65679Y-36506D01*
X65615Y-36660D01*
X65615Y-36827D01*
X65679Y-36981D01*
X65797Y-37100D01*
X65951Y-37164D01*
X66118Y-37164D01*
X66272Y-37100D01*
X66391Y-36982D01*
X66455Y-36828D01*
X66455Y-38661D01*
X66451Y-38651D01*
X66451Y-37803D01*
X66442Y-37639D01*
X66397Y-37530D01*
X66337Y-37499D01*
X66280Y-37556D01*
X66280Y-37442D01*
X66249Y-37382D01*
X66094Y-37328D01*
X65930Y-37337D01*
X65821Y-37382D01*
X65790Y-37442D01*
X66035Y-37687D01*
X66280Y-37442D01*
X66280Y-37556D01*
X66092Y-37744D01*
X66337Y-37989D01*
X66397Y-37958D01*
X66451Y-37803D01*
X66451Y-38651D01*
X66391Y-38507D01*
X66280Y-38395D01*
X66280Y-38046D01*
X66035Y-37801D01*
X65978Y-37858D01*
X65978Y-37744D01*
X65733Y-37499D01*
X65673Y-37530D01*
X65619Y-37685D01*
X65628Y-37849D01*
X65673Y-37958D01*
X65733Y-37989D01*
X65978Y-37744D01*
X65978Y-37858D01*
X65790Y-38046D01*
X65821Y-38106D01*
X65976Y-38160D01*
X66140Y-38151D01*
X66249Y-38106D01*
X66280Y-38046D01*
X66280Y-38395D01*
X66273Y-38388D01*
X66119Y-38324D01*
X65952Y-38324D01*
X65798Y-38388D01*
X65679Y-38506D01*
X65615Y-38660D01*
X65615Y-38827D01*
X65679Y-38981D01*
X65797Y-39100D01*
X65951Y-39164D01*
X66118Y-39164D01*
X66272Y-39100D01*
X66391Y-38982D01*
X66455Y-38828D01*
X66455Y-42325D01*
X63763Y-42325D01*
X63763Y-41423D01*
X63763Y-41256D01*
X63699Y-41102D01*
X63581Y-40983D01*
X63427Y-40919D01*
X63260Y-40919D01*
X63106Y-40983D01*
X62987Y-41101D01*
X62923Y-41255D01*
X62923Y-41422D01*
X62987Y-41576D01*
X63105Y-41695D01*
X63259Y-41759D01*
X63426Y-41759D01*
X63580Y-41695D01*
X63699Y-41577D01*
X63763Y-41423D01*
X63763Y-42325D01*
X62763Y-42325D01*
X62763Y-41423D01*
X62763Y-41256D01*
X62699Y-41102D01*
X62581Y-40983D01*
X62427Y-40919D01*
X62260Y-40919D01*
X62166Y-40958D01*
X62166Y-33615D01*
X62166Y-33317D01*
X62052Y-33042D01*
X61842Y-32831D01*
X61567Y-32716D01*
X61269Y-32716D01*
X60994Y-32830D01*
X60783Y-33040D01*
X60668Y-33315D01*
X60668Y-33613D01*
X60782Y-33888D01*
X60992Y-34099D01*
X61267Y-34214D01*
X61565Y-34214D01*
X61840Y-34100D01*
X62051Y-33890D01*
X62166Y-33615D01*
X62166Y-40958D01*
X62106Y-40983D01*
X61987Y-41101D01*
X61923Y-41255D01*
X61923Y-41422D01*
X61987Y-41576D01*
X62105Y-41695D01*
X62259Y-41759D01*
X62426Y-41759D01*
X62580Y-41695D01*
X62699Y-41577D01*
X62763Y-41423D01*
X62763Y-42325D01*
X61763Y-42325D01*
X61763Y-41423D01*
X61763Y-41256D01*
X61699Y-41102D01*
X61581Y-40983D01*
X61427Y-40919D01*
X61260Y-40919D01*
X61106Y-40983D01*
X60987Y-41101D01*
X60923Y-41255D01*
X60923Y-41422D01*
X60987Y-41576D01*
X61105Y-41695D01*
X61259Y-41759D01*
X61426Y-41759D01*
X61580Y-41695D01*
X61699Y-41577D01*
X61763Y-41423D01*
X61763Y-42325D01*
X60763Y-42325D01*
X60763Y-41423D01*
X60763Y-41256D01*
X60699Y-41102D01*
X60581Y-40983D01*
X60427Y-40919D01*
X60260Y-40919D01*
X60106Y-40983D01*
X59987Y-41101D01*
X59923Y-41255D01*
X59923Y-41422D01*
X59987Y-41576D01*
X60105Y-41695D01*
X60259Y-41759D01*
X60426Y-41759D01*
X60580Y-41695D01*
X60699Y-41577D01*
X60763Y-41423D01*
X60763Y-42325D01*
X59763Y-42325D01*
X59763Y-41423D01*
X59763Y-41256D01*
X59699Y-41102D01*
X59581Y-40983D01*
X59427Y-40919D01*
X59260Y-40919D01*
X59106Y-40983D01*
X58987Y-41101D01*
X58923Y-41255D01*
X58923Y-41422D01*
X58987Y-41576D01*
X59105Y-41695D01*
X59259Y-41759D01*
X59426Y-41759D01*
X59580Y-41695D01*
X59699Y-41577D01*
X59763Y-41423D01*
X59763Y-42325D01*
X58759Y-42325D01*
X58759Y-41398D01*
X58750Y-41234D01*
X58705Y-41125D01*
X58645Y-41094D01*
X58588Y-41151D01*
X58588Y-41037D01*
X58557Y-40977D01*
X58402Y-40923D01*
X58238Y-40932D01*
X58129Y-40977D01*
X58098Y-41037D01*
X58343Y-41282D01*
X58588Y-41037D01*
X58588Y-41151D01*
X58400Y-41339D01*
X58645Y-41584D01*
X58705Y-41553D01*
X58759Y-41398D01*
X58759Y-42325D01*
X58588Y-42325D01*
X58588Y-41641D01*
X58343Y-41396D01*
X58286Y-41453D01*
X58286Y-41339D01*
X58041Y-41094D01*
X57981Y-41125D01*
X57927Y-41280D01*
X57936Y-41444D01*
X57981Y-41553D01*
X58041Y-41584D01*
X58286Y-41339D01*
X58286Y-41453D01*
X58098Y-41641D01*
X58129Y-41701D01*
X58284Y-41755D01*
X58448Y-41746D01*
X58557Y-41701D01*
X58588Y-41641D01*
X58588Y-42325D01*
X57763Y-42325D01*
X57763Y-41423D01*
X57763Y-41256D01*
X57699Y-41102D01*
X57581Y-40983D01*
X57427Y-40919D01*
X57260Y-40919D01*
X57106Y-40983D01*
X56987Y-41101D01*
X56923Y-41255D01*
X56923Y-41422D01*
X56987Y-41576D01*
X57105Y-41695D01*
X57259Y-41759D01*
X57426Y-41759D01*
X57580Y-41695D01*
X57699Y-41577D01*
X57763Y-41423D01*
X57763Y-42325D01*
X56763Y-42325D01*
X56763Y-41663D01*
X56763Y-41615D01*
X56763Y-41015D01*
X56745Y-40971D01*
X56711Y-40937D01*
X56667Y-40919D01*
X56619Y-40919D01*
X56019Y-40919D01*
X55975Y-40937D01*
X55941Y-40971D01*
X55923Y-41015D01*
X55923Y-41063D01*
X55923Y-41663D01*
X55941Y-41707D01*
X55975Y-41741D01*
X56019Y-41759D01*
X56067Y-41759D01*
X56667Y-41759D01*
X56711Y-41741D01*
X56745Y-41707D01*
X56763Y-41663D01*
X56763Y-42325D01*
X52718Y-42325D01*
X52718Y-41095D01*
X52718Y-40797D01*
X52604Y-40522D01*
X52551Y-40468D01*
X52551Y-34817D01*
X52551Y-34769D01*
X52551Y-34001D01*
X52533Y-33957D01*
X52499Y-33923D01*
X52455Y-33905D01*
X52407Y-33905D01*
X51639Y-33905D01*
X51595Y-33923D01*
X51561Y-33957D01*
X51543Y-34001D01*
X51543Y-34049D01*
X51543Y-34817D01*
X51561Y-34861D01*
X51595Y-34895D01*
X51639Y-34913D01*
X51687Y-34913D01*
X52455Y-34913D01*
X52499Y-34895D01*
X52533Y-34861D01*
X52551Y-34817D01*
X52551Y-40468D01*
X52550Y-40467D01*
X52550Y-36478D01*
X52550Y-36278D01*
X52473Y-36093D01*
X52332Y-35952D01*
X52147Y-35875D01*
X51947Y-35875D01*
X51762Y-35952D01*
X51621Y-36093D01*
X51544Y-36278D01*
X51544Y-36478D01*
X51621Y-36663D01*
X51762Y-36804D01*
X51947Y-36881D01*
X52147Y-36881D01*
X52332Y-36804D01*
X52473Y-36663D01*
X52550Y-36478D01*
X52550Y-40467D01*
X52546Y-40463D01*
X52546Y-38425D01*
X52538Y-38228D01*
X52477Y-38084D01*
X52409Y-38042D01*
X52352Y-38099D01*
X52352Y-37985D01*
X52310Y-37917D01*
X52125Y-37848D01*
X51928Y-37856D01*
X51784Y-37917D01*
X51742Y-37985D01*
X52047Y-38290D01*
X52352Y-37985D01*
X52352Y-38099D01*
X52104Y-38347D01*
X52409Y-38652D01*
X52477Y-38610D01*
X52546Y-38425D01*
X52546Y-40463D01*
X52394Y-40311D01*
X52352Y-40293D01*
X52352Y-38709D01*
X52047Y-38404D01*
X51990Y-38461D01*
X51990Y-38347D01*
X51685Y-38042D01*
X51617Y-38084D01*
X51548Y-38269D01*
X51556Y-38466D01*
X51617Y-38610D01*
X51685Y-38652D01*
X51990Y-38347D01*
X51990Y-38461D01*
X51742Y-38709D01*
X51784Y-38777D01*
X51969Y-38846D01*
X52166Y-38838D01*
X52310Y-38777D01*
X52352Y-38709D01*
X52352Y-40293D01*
X52119Y-40196D01*
X51821Y-40196D01*
X51546Y-40310D01*
X51335Y-40520D01*
X51220Y-40795D01*
X51220Y-41093D01*
X51334Y-41368D01*
X51544Y-41579D01*
X51819Y-41694D01*
X52117Y-41694D01*
X52392Y-41580D01*
X52603Y-41370D01*
X52718Y-41095D01*
X52718Y-42325D01*
X50589Y-42325D01*
X50589Y-32085D01*
X67915Y-32085D01*
X67915Y-42325D01*
X67915Y-42325D01*
G37*
X67915Y-42325D02*
X67455Y-42325D01*
X67455Y-38828D01*
X67455Y-38661D01*
X67455Y-36828D01*
X67455Y-36661D01*
X67455Y-35828D01*
X67455Y-35661D01*
X67451Y-35651D01*
X67451Y-34024D01*
X67451Y-33024D01*
X67442Y-32860D01*
X67397Y-32751D01*
X67337Y-32720D01*
X67280Y-32777D01*
X67280Y-32663D01*
X67249Y-32603D01*
X67094Y-32549D01*
X66930Y-32558D01*
X66821Y-32603D01*
X66790Y-32663D01*
X67035Y-32908D01*
X67280Y-32663D01*
X67280Y-32777D01*
X67092Y-32965D01*
X67337Y-33210D01*
X67397Y-33179D01*
X67451Y-33024D01*
X67451Y-34024D01*
X67442Y-33860D01*
X67397Y-33751D01*
X67337Y-33720D01*
X67280Y-33777D01*
X67280Y-33663D01*
X67280Y-33267D01*
X67035Y-33022D01*
X66978Y-33079D01*
X66978Y-32965D01*
X66733Y-32720D01*
X66673Y-32751D01*
X66619Y-32906D01*
X66628Y-33070D01*
X66673Y-33179D01*
X66733Y-33210D01*
X66978Y-32965D01*
X66978Y-33079D01*
X66790Y-33267D01*
X66821Y-33327D01*
X66976Y-33381D01*
X67140Y-33372D01*
X67249Y-33327D01*
X67280Y-33267D01*
X67280Y-33663D01*
X67249Y-33603D01*
X67094Y-33549D01*
X66930Y-33558D01*
X66821Y-33603D01*
X66790Y-33663D01*
X67035Y-33908D01*
X67280Y-33663D01*
X67280Y-33777D01*
X67092Y-33965D01*
X67337Y-34210D01*
X67397Y-34179D01*
X67451Y-34024D01*
X67451Y-35651D01*
X67391Y-35507D01*
X67280Y-35395D01*
X67280Y-34267D01*
X67035Y-34022D01*
X66978Y-34079D01*
X66978Y-33965D01*
X66733Y-33720D01*
X66673Y-33751D01*
X66619Y-33906D01*
X66628Y-34070D01*
X66673Y-34179D01*
X66733Y-34210D01*
X66978Y-33965D01*
X66978Y-34079D01*
X66790Y-34267D01*
X66821Y-34327D01*
X66976Y-34381D01*
X67140Y-34372D01*
X67249Y-34327D01*
X67280Y-34267D01*
X67280Y-35395D01*
X67273Y-35388D01*
X67119Y-35324D01*
X66952Y-35324D01*
X66798Y-35388D01*
X66679Y-35506D01*
X66615Y-35660D01*
X66615Y-35827D01*
X66679Y-35981D01*
X66797Y-36100D01*
X66951Y-36164D01*
X67118Y-36164D01*
X67272Y-36100D01*
X67391Y-35982D01*
X67455Y-35828D01*
X67455Y-36661D01*
X67391Y-36507D01*
X67273Y-36388D01*
X67119Y-36324D01*
X66952Y-36324D01*
X66798Y-36388D01*
X66679Y-36506D01*
X66615Y-36660D01*
X66615Y-36827D01*
X66679Y-36981D01*
X66797Y-37100D01*
X66951Y-37164D01*
X67118Y-37164D01*
X67272Y-37100D01*
X67391Y-36982D01*
X67455Y-36828D01*
X67455Y-38661D01*
X67451Y-38651D01*
X67451Y-37803D01*
X67442Y-37639D01*
X67397Y-37530D01*
X67337Y-37499D01*
X67280Y-37556D01*
X67280Y-37442D01*
X67249Y-37382D01*
X67094Y-37328D01*
X66930Y-37337D01*
X66821Y-37382D01*
X66790Y-37442D01*
X67035Y-37687D01*
X67280Y-37442D01*
X67280Y-37556D01*
X67092Y-37744D01*
X67337Y-37989D01*
X67397Y-37958D01*
X67451Y-37803D01*
X67451Y-38651D01*
X67391Y-38507D01*
X67280Y-38395D01*
X67280Y-38046D01*
X67035Y-37801D01*
X66978Y-37858D01*
X66978Y-37744D01*
X66733Y-37499D01*
X66673Y-37530D01*
X66619Y-37685D01*
X66628Y-37849D01*
X66673Y-37958D01*
X66733Y-37989D01*
X66978Y-37744D01*
X66978Y-37858D01*
X66790Y-38046D01*
X66821Y-38106D01*
X66976Y-38160D01*
X67140Y-38151D01*
X67249Y-38106D01*
X67280Y-38046D01*
X67280Y-38395D01*
X67273Y-38388D01*
X67119Y-38324D01*
X66952Y-38324D01*
X66798Y-38388D01*
X66679Y-38506D01*
X66615Y-38660D01*
X66615Y-38827D01*
X66679Y-38981D01*
X66797Y-39100D01*
X66951Y-39164D01*
X67118Y-39164D01*
X67272Y-39100D01*
X67391Y-38982D01*
X67455Y-38828D01*
X67455Y-42325D01*
X66455Y-42325D01*
X66455Y-38828D01*
X66455Y-38661D01*
X66455Y-36828D01*
X66455Y-36661D01*
X66455Y-36068D01*
X66455Y-36020D01*
X66455Y-35420D01*
X66455Y-34049D01*
X66455Y-33882D01*
X66455Y-33289D01*
X66455Y-33241D01*
X66455Y-32641D01*
X66437Y-32597D01*
X66403Y-32563D01*
X66359Y-32545D01*
X66311Y-32545D01*
X65711Y-32545D01*
X65667Y-32563D01*
X65633Y-32597D01*
X65615Y-32641D01*
X65615Y-32689D01*
X65615Y-33289D01*
X65633Y-33333D01*
X65667Y-33367D01*
X65711Y-33385D01*
X65759Y-33385D01*
X66359Y-33385D01*
X66403Y-33367D01*
X66437Y-33333D01*
X66455Y-33289D01*
X66455Y-33882D01*
X66391Y-33728D01*
X66273Y-33609D01*
X66119Y-33545D01*
X65952Y-33545D01*
X65798Y-33609D01*
X65679Y-33727D01*
X65615Y-33881D01*
X65615Y-34048D01*
X65679Y-34202D01*
X65797Y-34321D01*
X65951Y-34385D01*
X66118Y-34385D01*
X66272Y-34321D01*
X66391Y-34203D01*
X66455Y-34049D01*
X66455Y-35420D01*
X66437Y-35376D01*
X66403Y-35342D01*
X66359Y-35324D01*
X66311Y-35324D01*
X65711Y-35324D01*
X65667Y-35342D01*
X65633Y-35376D01*
X65615Y-35420D01*
X65615Y-35468D01*
X65615Y-36068D01*
X65633Y-36112D01*
X65667Y-36146D01*
X65711Y-36164D01*
X65759Y-36164D01*
X66359Y-36164D01*
X66403Y-36146D01*
X66437Y-36112D01*
X66455Y-36068D01*
X66455Y-36661D01*
X66391Y-36507D01*
X66273Y-36388D01*
X66119Y-36324D01*
X65952Y-36324D01*
X65798Y-36388D01*
X65679Y-36506D01*
X65615Y-36660D01*
X65615Y-36827D01*
X65679Y-36981D01*
X65797Y-37100D01*
X65951Y-37164D01*
X66118Y-37164D01*
X66272Y-37100D01*
X66391Y-36982D01*
X66455Y-36828D01*
X66455Y-38661D01*
X66451Y-38651D01*
X66451Y-37803D01*
X66442Y-37639D01*
X66397Y-37530D01*
X66337Y-37499D01*
X66280Y-37556D01*
X66280Y-37442D01*
X66249Y-37382D01*
X66094Y-37328D01*
X65930Y-37337D01*
X65821Y-37382D01*
X65790Y-37442D01*
X66035Y-37687D01*
X66280Y-37442D01*
X66280Y-37556D01*
X66092Y-37744D01*
X66337Y-37989D01*
X66397Y-37958D01*
X66451Y-37803D01*
X66451Y-38651D01*
X66391Y-38507D01*
X66280Y-38395D01*
X66280Y-38046D01*
X66035Y-37801D01*
X65978Y-37858D01*
X65978Y-37744D01*
X65733Y-37499D01*
X65673Y-37530D01*
X65619Y-37685D01*
X65628Y-37849D01*
X65673Y-37958D01*
X65733Y-37989D01*
X65978Y-37744D01*
X65978Y-37858D01*
X65790Y-38046D01*
X65821Y-38106D01*
X65976Y-38160D01*
X66140Y-38151D01*
X66249Y-38106D01*
X66280Y-38046D01*
X66280Y-38395D01*
X66273Y-38388D01*
X66119Y-38324D01*
X65952Y-38324D01*
X65798Y-38388D01*
X65679Y-38506D01*
X65615Y-38660D01*
X65615Y-38827D01*
X65679Y-38981D01*
X65797Y-39100D01*
X65951Y-39164D01*
X66118Y-39164D01*
X66272Y-39100D01*
X66391Y-38982D01*
X66455Y-38828D01*
X66455Y-42325D01*
X63763Y-42325D01*
X63763Y-41423D01*
X63763Y-41256D01*
X63699Y-41102D01*
X63581Y-40983D01*
X63427Y-40919D01*
X63260Y-40919D01*
X63106Y-40983D01*
X62987Y-41101D01*
X62923Y-41255D01*
X62923Y-41422D01*
X62987Y-41576D01*
X63105Y-41695D01*
X63259Y-41759D01*
X63426Y-41759D01*
X63580Y-41695D01*
X63699Y-41577D01*
X63763Y-41423D01*
X63763Y-42325D01*
X62763Y-42325D01*
X62763Y-41423D01*
X62763Y-41256D01*
X62699Y-41102D01*
X62581Y-40983D01*
X62427Y-40919D01*
X62260Y-40919D01*
X62166Y-40958D01*
X62166Y-33615D01*
X62166Y-33317D01*
X62052Y-33042D01*
X61842Y-32831D01*
X61567Y-32716D01*
X61269Y-32716D01*
X60994Y-32830D01*
X60783Y-33040D01*
X60668Y-33315D01*
X60668Y-33613D01*
X60782Y-33888D01*
X60992Y-34099D01*
X61267Y-34214D01*
X61565Y-34214D01*
X61840Y-34100D01*
X62051Y-33890D01*
X62166Y-33615D01*
X62166Y-40958D01*
X62106Y-40983D01*
X61987Y-41101D01*
X61923Y-41255D01*
X61923Y-41422D01*
X61987Y-41576D01*
X62105Y-41695D01*
X62259Y-41759D01*
X62426Y-41759D01*
X62580Y-41695D01*
X62699Y-41577D01*
X62763Y-41423D01*
X62763Y-42325D01*
X61763Y-42325D01*
X61763Y-41423D01*
X61763Y-41256D01*
X61699Y-41102D01*
X61581Y-40983D01*
X61427Y-40919D01*
X61260Y-40919D01*
X61106Y-40983D01*
X60987Y-41101D01*
X60923Y-41255D01*
X60923Y-41422D01*
X60987Y-41576D01*
X61105Y-41695D01*
X61259Y-41759D01*
X61426Y-41759D01*
X61580Y-41695D01*
X61699Y-41577D01*
X61763Y-41423D01*
X61763Y-42325D01*
X60763Y-42325D01*
X60763Y-41423D01*
X60763Y-41256D01*
X60699Y-41102D01*
X60581Y-40983D01*
X60427Y-40919D01*
X60260Y-40919D01*
X60106Y-40983D01*
X59987Y-41101D01*
X59923Y-41255D01*
X59923Y-41422D01*
X59987Y-41576D01*
X60105Y-41695D01*
X60259Y-41759D01*
X60426Y-41759D01*
X60580Y-41695D01*
X60699Y-41577D01*
X60763Y-41423D01*
X60763Y-42325D01*
X59763Y-42325D01*
X59763Y-41423D01*
X59763Y-41256D01*
X59699Y-41102D01*
X59581Y-40983D01*
X59427Y-40919D01*
X59260Y-40919D01*
X59106Y-40983D01*
X58987Y-41101D01*
X58923Y-41255D01*
X58923Y-41422D01*
X58987Y-41576D01*
X59105Y-41695D01*
X59259Y-41759D01*
X59426Y-41759D01*
X59580Y-41695D01*
X59699Y-41577D01*
X59763Y-41423D01*
X59763Y-42325D01*
X58759Y-42325D01*
X58759Y-41398D01*
X58750Y-41234D01*
X58705Y-41125D01*
X58645Y-41094D01*
X58588Y-41151D01*
X58588Y-41037D01*
X58557Y-40977D01*
X58402Y-40923D01*
X58238Y-40932D01*
X58129Y-40977D01*
X58098Y-41037D01*
X58343Y-41282D01*
X58588Y-41037D01*
X58588Y-41151D01*
X58400Y-41339D01*
X58645Y-41584D01*
X58705Y-41553D01*
X58759Y-41398D01*
X58759Y-42325D01*
X58588Y-42325D01*
X58588Y-41641D01*
X58343Y-41396D01*
X58286Y-41453D01*
X58286Y-41339D01*
X58041Y-41094D01*
X57981Y-41125D01*
X57927Y-41280D01*
X57936Y-41444D01*
X57981Y-41553D01*
X58041Y-41584D01*
X58286Y-41339D01*
X58286Y-41453D01*
X58098Y-41641D01*
X58129Y-41701D01*
X58284Y-41755D01*
X58448Y-41746D01*
X58557Y-41701D01*
X58588Y-41641D01*
X58588Y-42325D01*
X57763Y-42325D01*
X57763Y-41423D01*
X57763Y-41256D01*
X57699Y-41102D01*
X57581Y-40983D01*
X57427Y-40919D01*
X57260Y-40919D01*
X57106Y-40983D01*
X56987Y-41101D01*
X56923Y-41255D01*
X56923Y-41422D01*
X56987Y-41576D01*
X57105Y-41695D01*
X57259Y-41759D01*
X57426Y-41759D01*
X57580Y-41695D01*
X57699Y-41577D01*
X57763Y-41423D01*
X57763Y-42325D01*
X56763Y-42325D01*
X56763Y-41663D01*
X56763Y-41615D01*
X56763Y-41015D01*
X56745Y-40971D01*
X56711Y-40937D01*
X56667Y-40919D01*
X56619Y-40919D01*
X56019Y-40919D01*
X55975Y-40937D01*
X55941Y-40971D01*
X55923Y-41015D01*
X55923Y-41063D01*
X55923Y-41663D01*
X55941Y-41707D01*
X55975Y-41741D01*
X56019Y-41759D01*
X56067Y-41759D01*
X56667Y-41759D01*
X56711Y-41741D01*
X56745Y-41707D01*
X56763Y-41663D01*
X56763Y-42325D01*
X52718Y-42325D01*
X52718Y-41095D01*
X52718Y-40797D01*
X52604Y-40522D01*
X52551Y-40468D01*
X52551Y-34817D01*
X52551Y-34769D01*
X52551Y-34001D01*
X52533Y-33957D01*
X52499Y-33923D01*
X52455Y-33905D01*
X52407Y-33905D01*
X51639Y-33905D01*
X51595Y-33923D01*
X51561Y-33957D01*
X51543Y-34001D01*
X51543Y-34049D01*
X51543Y-34817D01*
X51561Y-34861D01*
X51595Y-34895D01*
X51639Y-34913D01*
X51687Y-34913D01*
X52455Y-34913D01*
X52499Y-34895D01*
X52533Y-34861D01*
X52551Y-34817D01*
X52551Y-40468D01*
X52550Y-40467D01*
X52550Y-36478D01*
X52550Y-36278D01*
X52473Y-36093D01*
X52332Y-35952D01*
X52147Y-35875D01*
X51947Y-35875D01*
X51762Y-35952D01*
X51621Y-36093D01*
X51544Y-36278D01*
X51544Y-36478D01*
X51621Y-36663D01*
X51762Y-36804D01*
X51947Y-36881D01*
X52147Y-36881D01*
X52332Y-36804D01*
X52473Y-36663D01*
X52550Y-36478D01*
X52550Y-40467D01*
X52546Y-40463D01*
X52546Y-38425D01*
X52538Y-38228D01*
X52477Y-38084D01*
X52409Y-38042D01*
X52352Y-38099D01*
X52352Y-37985D01*
X52310Y-37917D01*
X52125Y-37848D01*
X51928Y-37856D01*
X51784Y-37917D01*
X51742Y-37985D01*
X52047Y-38290D01*
X52352Y-37985D01*
X52352Y-38099D01*
X52104Y-38347D01*
X52409Y-38652D01*
X52477Y-38610D01*
X52546Y-38425D01*
X52546Y-40463D01*
X52394Y-40311D01*
X52352Y-40293D01*
X52352Y-38709D01*
X52047Y-38404D01*
X51990Y-38461D01*
X51990Y-38347D01*
X51685Y-38042D01*
X51617Y-38084D01*
X51548Y-38269D01*
X51556Y-38466D01*
X51617Y-38610D01*
X51685Y-38652D01*
X51990Y-38347D01*
X51990Y-38461D01*
X51742Y-38709D01*
X51784Y-38777D01*
X51969Y-38846D01*
X52166Y-38838D01*
X52310Y-38777D01*
X52352Y-38709D01*
X52352Y-40293D01*
X52119Y-40196D01*
X51821Y-40196D01*
X51546Y-40310D01*
X51335Y-40520D01*
X51220Y-40795D01*
X51220Y-41093D01*
X51334Y-41368D01*
X51544Y-41579D01*
X51819Y-41694D01*
X52117Y-41694D01*
X52392Y-41580D01*
X52603Y-41370D01*
X52718Y-41095D01*
X52718Y-42325D01*
X50589Y-42325D01*
X50589Y-32085D01*
X67915Y-32085D01*
X67915Y-42325D01*
M02*
