G04 (created by PCBNEW-RS274X (2012-05-21 BZR 3261)-stable) date Thu 30 May 2013 11:23:39 PM PDT*
G01*
G70*
G90*
%MOIN*%
G04 Gerber Fmt 3.4, Leading zero omitted, Abs format*
%FSLAX34Y34*%
G04 APERTURE LIST*
%ADD10C,0.008000*%
%ADD11C,0.132000*%
%ADD12R,0.065100X0.023700*%
%ADD13R,0.041400X0.045400*%
%ADD14R,0.045400X0.041400*%
%ADD15R,0.041400X0.043400*%
%ADD16R,0.045400X0.043400*%
%ADD17R,0.043400X0.045400*%
%ADD18R,0.066000X0.066000*%
%ADD19C,0.066000*%
%ADD20R,0.051300X0.063100*%
%ADD21R,0.082800X0.082800*%
%ADD22C,0.082800*%
%ADD23R,0.049300X0.074900*%
G04 APERTURE END LIST*
G54D10*
G54D11*
X61417Y-33465D03*
X51969Y-40945D03*
G54D12*
X58701Y-35324D03*
X58701Y-35580D03*
X58701Y-35836D03*
X58701Y-36092D03*
X58701Y-36348D03*
X58701Y-36604D03*
X58701Y-36860D03*
X58701Y-37116D03*
X60985Y-37116D03*
X60985Y-36860D03*
X60985Y-36604D03*
X60985Y-36348D03*
X60985Y-36092D03*
X60985Y-35836D03*
X60985Y-35580D03*
X60985Y-35324D03*
G54D13*
X63465Y-35591D03*
X64095Y-35591D03*
G54D14*
X55590Y-39134D03*
X55590Y-38504D03*
X60315Y-38504D03*
X60315Y-39134D03*
X61024Y-39134D03*
X61024Y-38504D03*
X59212Y-39134D03*
X59212Y-38504D03*
X62127Y-38504D03*
X62127Y-39134D03*
X62835Y-39134D03*
X62835Y-38504D03*
G54D13*
X63465Y-34567D03*
X64095Y-34567D03*
G54D14*
X54882Y-38504D03*
X54882Y-39134D03*
G54D13*
X63465Y-36378D03*
X64095Y-36378D03*
X63465Y-37402D03*
X64095Y-37402D03*
G54D14*
X63938Y-38504D03*
X63938Y-39134D03*
X64647Y-39134D03*
X64647Y-38504D03*
X57402Y-39134D03*
X57402Y-38504D03*
X56693Y-38504D03*
X56693Y-39134D03*
G54D13*
X56535Y-35827D03*
X57165Y-35827D03*
X56535Y-35039D03*
X57165Y-35039D03*
G54D15*
X64568Y-39843D03*
X63938Y-39843D03*
X62757Y-39843D03*
X62127Y-39843D03*
X59134Y-39843D03*
X58504Y-39843D03*
X60945Y-39843D03*
X60315Y-39843D03*
X55512Y-39843D03*
X54882Y-39843D03*
X57323Y-39843D03*
X56693Y-39843D03*
G54D16*
X57874Y-35118D03*
X57874Y-35748D03*
G54D17*
X57874Y-36535D03*
X57244Y-36535D03*
X61811Y-36772D03*
X62441Y-36772D03*
G54D18*
X66035Y-35744D03*
G54D19*
X67035Y-35744D03*
X66035Y-36744D03*
X67035Y-36744D03*
X66035Y-37744D03*
X67035Y-37744D03*
X66035Y-38744D03*
X67035Y-38744D03*
G54D18*
X66035Y-32965D03*
G54D19*
X67035Y-32965D03*
X66035Y-33965D03*
X67035Y-33965D03*
G54D18*
X56343Y-41339D03*
G54D19*
X57343Y-41339D03*
X58343Y-41339D03*
X59343Y-41339D03*
X60343Y-41339D03*
X61343Y-41339D03*
X62343Y-41339D03*
X63343Y-41339D03*
G54D20*
X56260Y-37323D03*
X55552Y-37323D03*
G54D21*
X52047Y-34409D03*
G54D22*
X52047Y-36378D03*
X52047Y-38347D03*
G54D23*
X55788Y-34892D03*
X55788Y-35974D03*
X55236Y-34892D03*
X55236Y-35974D03*
G54D20*
X65945Y-40315D03*
X66653Y-40315D03*
M02*
