G04 (created by PCBNEW-RS274X (2012-05-21 BZR 3261)-stable) date Thu 30 May 2013 05:43:25 PM PDT*
G01*
G70*
G90*
%MOIN*%
G04 Gerber Fmt 3.4, Leading zero omitted, Abs format*
%FSLAX34Y34*%
G04 APERTURE LIST*
%ADD10C,0.008000*%
%ADD11C,0.070900*%
%ADD12C,0.059100*%
%ADD13C,0.175000*%
%ADD14C,0.032000*%
%ADD15C,0.012000*%
G04 APERTURE END LIST*
G54D10*
G54D11*
X37203Y-54133D03*
X41141Y-54133D03*
X39172Y-56102D03*
X40156Y-54133D03*
X38188Y-54133D03*
X26968Y-54134D03*
X30906Y-54134D03*
X28937Y-56103D03*
X29921Y-54134D03*
X27953Y-54134D03*
X32086Y-54133D03*
X36024Y-54133D03*
X34055Y-56102D03*
X35039Y-54133D03*
X33071Y-54133D03*
G54D12*
X24000Y-31750D03*
X25000Y-31750D03*
X24000Y-32750D03*
X25000Y-32750D03*
X24000Y-33750D03*
X25000Y-33750D03*
X24000Y-34750D03*
X25000Y-34750D03*
X24000Y-35750D03*
X25000Y-35750D03*
X24000Y-36750D03*
X25000Y-36750D03*
X24000Y-37750D03*
X25000Y-37750D03*
X24000Y-38750D03*
X25000Y-38750D03*
X24000Y-39750D03*
X25000Y-39750D03*
X24000Y-40750D03*
X25000Y-40750D03*
X24000Y-41750D03*
X25000Y-41750D03*
X24000Y-42750D03*
X25000Y-42750D03*
X24000Y-43750D03*
X25000Y-43750D03*
X24000Y-44750D03*
X25000Y-44750D03*
X24000Y-45750D03*
X25000Y-45750D03*
X24000Y-46750D03*
X25000Y-46750D03*
X24000Y-47750D03*
X25000Y-47750D03*
X24000Y-48750D03*
X25000Y-48750D03*
X24000Y-49750D03*
X25000Y-49750D03*
X24000Y-50750D03*
X25000Y-50750D03*
X24000Y-51750D03*
X25000Y-51750D03*
X24000Y-52750D03*
X25000Y-52750D03*
X24000Y-53750D03*
X25000Y-53750D03*
X43000Y-31750D03*
X44000Y-31750D03*
X43000Y-32750D03*
X44000Y-32750D03*
X43000Y-33750D03*
X44000Y-33750D03*
X43000Y-34750D03*
X44000Y-34750D03*
X43000Y-35750D03*
X44000Y-35750D03*
X43000Y-36750D03*
X44000Y-36750D03*
X43000Y-37750D03*
X44000Y-37750D03*
X43000Y-38750D03*
X44000Y-38750D03*
X43000Y-39750D03*
X44000Y-39750D03*
X43000Y-40750D03*
X44000Y-40750D03*
X43000Y-41750D03*
X44000Y-41750D03*
X43000Y-42750D03*
X44000Y-42750D03*
X43000Y-43750D03*
X44000Y-43750D03*
X43000Y-44750D03*
X44000Y-44750D03*
X43000Y-45750D03*
X44000Y-45750D03*
X43000Y-46750D03*
X44000Y-46750D03*
X43000Y-47750D03*
X44000Y-47750D03*
X43000Y-48750D03*
X44000Y-48750D03*
X43000Y-49750D03*
X44000Y-49750D03*
X43000Y-50750D03*
X44000Y-50750D03*
X43000Y-51750D03*
X44000Y-51750D03*
X43000Y-52750D03*
X44000Y-52750D03*
X43000Y-53750D03*
X44000Y-53750D03*
G54D13*
X24500Y-29750D03*
X43500Y-29750D03*
X25750Y-55750D03*
X42250Y-55750D03*
G54D14*
X33898Y-43898D03*
X27008Y-46181D03*
X32638Y-44173D03*
X27008Y-44055D03*
X32638Y-43150D03*
X27008Y-46890D03*
X32638Y-42677D03*
X27008Y-43346D03*
X33898Y-43386D03*
X26417Y-48386D03*
X32638Y-43662D03*
X27008Y-45472D03*
X28110Y-30827D03*
X27402Y-30827D03*
X38858Y-41929D03*
X27008Y-40512D03*
X35394Y-43504D03*
X27008Y-41929D03*
X27323Y-39803D03*
X36732Y-43898D03*
X35394Y-44331D03*
X27717Y-40118D03*
X33110Y-40512D03*
X33898Y-42638D03*
X26810Y-31969D03*
X29881Y-25512D03*
X35551Y-42165D03*
X35315Y-42992D03*
X27283Y-25512D03*
X29842Y-30118D03*
X35551Y-40512D03*
X29094Y-29488D03*
X40276Y-42598D03*
X29409Y-31969D03*
X32638Y-41693D03*
X33898Y-45945D03*
X41850Y-46102D03*
X32087Y-45945D03*
X42244Y-44921D03*
X32087Y-47284D03*
X33819Y-44409D03*
X33661Y-48031D03*
X39055Y-46299D03*
X33661Y-46457D03*
X38425Y-43740D03*
X29724Y-52559D03*
X40354Y-46181D03*
X36417Y-46457D03*
X33189Y-48031D03*
X40945Y-44370D03*
X38504Y-45079D03*
X32874Y-53150D03*
X40354Y-53150D03*
X36890Y-42874D03*
X37992Y-53150D03*
X36181Y-42165D03*
X29842Y-29488D03*
X33189Y-46457D03*
X38780Y-53150D03*
X39646Y-42598D03*
X32087Y-45472D03*
X33740Y-42165D03*
X36181Y-40512D03*
X41220Y-46102D03*
X41969Y-44370D03*
X27598Y-27992D03*
X37205Y-40945D03*
X38071Y-46457D03*
X35236Y-42480D03*
X38228Y-40551D03*
X41457Y-44370D03*
X33740Y-40512D03*
X35236Y-53150D03*
X28150Y-52559D03*
X35394Y-45945D03*
X32087Y-46811D03*
X33898Y-45040D03*
X39567Y-53150D03*
X29528Y-28228D03*
X28740Y-28228D03*
X28346Y-29134D03*
G54D10*
G36*
X44495Y-57745D02*
X44475Y-57745D01*
X44475Y-53845D01*
X44475Y-53656D01*
X44475Y-52845D01*
X44475Y-52656D01*
X44475Y-51845D01*
X44475Y-51656D01*
X44475Y-50845D01*
X44475Y-50656D01*
X44475Y-49845D01*
X44475Y-49656D01*
X44475Y-48845D01*
X44475Y-48656D01*
X44475Y-47845D01*
X44475Y-47656D01*
X44475Y-46845D01*
X44475Y-46656D01*
X44475Y-45845D01*
X44475Y-45656D01*
X44475Y-44845D01*
X44475Y-44656D01*
X44475Y-43845D01*
X44475Y-43656D01*
X44475Y-42845D01*
X44475Y-42656D01*
X44475Y-41845D01*
X44475Y-41656D01*
X44475Y-40845D01*
X44475Y-40656D01*
X44475Y-39845D01*
X44475Y-39656D01*
X44475Y-38845D01*
X44475Y-38656D01*
X44475Y-37845D01*
X44475Y-37656D01*
X44475Y-36845D01*
X44475Y-36656D01*
X44475Y-35845D01*
X44475Y-35656D01*
X44475Y-34845D01*
X44475Y-34656D01*
X44475Y-33845D01*
X44475Y-33656D01*
X44475Y-32845D01*
X44475Y-32656D01*
X44403Y-32481D01*
X44269Y-32348D01*
X44095Y-32275D01*
X43906Y-32275D01*
X43731Y-32347D01*
X43598Y-32481D01*
X43525Y-32655D01*
X43525Y-32844D01*
X43597Y-33019D01*
X43731Y-33152D01*
X43905Y-33225D01*
X44094Y-33225D01*
X44269Y-33153D01*
X44402Y-33019D01*
X44475Y-32845D01*
X44475Y-33656D01*
X44403Y-33481D01*
X44269Y-33348D01*
X44095Y-33275D01*
X43906Y-33275D01*
X43731Y-33347D01*
X43598Y-33481D01*
X43525Y-33655D01*
X43525Y-33844D01*
X43597Y-34019D01*
X43731Y-34152D01*
X43905Y-34225D01*
X44094Y-34225D01*
X44269Y-34153D01*
X44402Y-34019D01*
X44475Y-33845D01*
X44475Y-34656D01*
X44403Y-34481D01*
X44269Y-34348D01*
X44095Y-34275D01*
X43906Y-34275D01*
X43731Y-34347D01*
X43598Y-34481D01*
X43525Y-34655D01*
X43525Y-34844D01*
X43597Y-35019D01*
X43731Y-35152D01*
X43905Y-35225D01*
X44094Y-35225D01*
X44269Y-35153D01*
X44402Y-35019D01*
X44475Y-34845D01*
X44475Y-35656D01*
X44403Y-35481D01*
X44269Y-35348D01*
X44095Y-35275D01*
X43906Y-35275D01*
X43731Y-35347D01*
X43598Y-35481D01*
X43525Y-35655D01*
X43525Y-35844D01*
X43597Y-36019D01*
X43731Y-36152D01*
X43905Y-36225D01*
X44094Y-36225D01*
X44269Y-36153D01*
X44402Y-36019D01*
X44475Y-35845D01*
X44475Y-36656D01*
X44403Y-36481D01*
X44269Y-36348D01*
X44095Y-36275D01*
X43906Y-36275D01*
X43731Y-36347D01*
X43598Y-36481D01*
X43525Y-36655D01*
X43525Y-36844D01*
X43597Y-37019D01*
X43731Y-37152D01*
X43905Y-37225D01*
X44094Y-37225D01*
X44269Y-37153D01*
X44402Y-37019D01*
X44475Y-36845D01*
X44475Y-37656D01*
X44403Y-37481D01*
X44269Y-37348D01*
X44095Y-37275D01*
X43906Y-37275D01*
X43731Y-37347D01*
X43598Y-37481D01*
X43525Y-37655D01*
X43525Y-37844D01*
X43597Y-38019D01*
X43731Y-38152D01*
X43905Y-38225D01*
X44094Y-38225D01*
X44269Y-38153D01*
X44402Y-38019D01*
X44475Y-37845D01*
X44475Y-38656D01*
X44403Y-38481D01*
X44269Y-38348D01*
X44095Y-38275D01*
X43906Y-38275D01*
X43731Y-38347D01*
X43598Y-38481D01*
X43525Y-38655D01*
X43525Y-38844D01*
X43597Y-39019D01*
X43731Y-39152D01*
X43905Y-39225D01*
X44094Y-39225D01*
X44269Y-39153D01*
X44402Y-39019D01*
X44475Y-38845D01*
X44475Y-39656D01*
X44403Y-39481D01*
X44269Y-39348D01*
X44095Y-39275D01*
X43906Y-39275D01*
X43731Y-39347D01*
X43598Y-39481D01*
X43525Y-39655D01*
X43525Y-39844D01*
X43597Y-40019D01*
X43731Y-40152D01*
X43905Y-40225D01*
X44094Y-40225D01*
X44269Y-40153D01*
X44402Y-40019D01*
X44475Y-39845D01*
X44475Y-40656D01*
X44403Y-40481D01*
X44269Y-40348D01*
X44095Y-40275D01*
X43906Y-40275D01*
X43731Y-40347D01*
X43598Y-40481D01*
X43525Y-40655D01*
X43525Y-40844D01*
X43597Y-41019D01*
X43731Y-41152D01*
X43905Y-41225D01*
X44094Y-41225D01*
X44269Y-41153D01*
X44402Y-41019D01*
X44475Y-40845D01*
X44475Y-41656D01*
X44403Y-41481D01*
X44269Y-41348D01*
X44095Y-41275D01*
X43906Y-41275D01*
X43731Y-41347D01*
X43598Y-41481D01*
X43525Y-41655D01*
X43525Y-41844D01*
X43597Y-42019D01*
X43731Y-42152D01*
X43905Y-42225D01*
X44094Y-42225D01*
X44269Y-42153D01*
X44402Y-42019D01*
X44475Y-41845D01*
X44475Y-42656D01*
X44403Y-42481D01*
X44269Y-42348D01*
X44095Y-42275D01*
X43906Y-42275D01*
X43731Y-42347D01*
X43598Y-42481D01*
X43525Y-42655D01*
X43525Y-42844D01*
X43597Y-43019D01*
X43731Y-43152D01*
X43905Y-43225D01*
X44094Y-43225D01*
X44269Y-43153D01*
X44402Y-43019D01*
X44475Y-42845D01*
X44475Y-43656D01*
X44403Y-43481D01*
X44269Y-43348D01*
X44095Y-43275D01*
X43906Y-43275D01*
X43731Y-43347D01*
X43598Y-43481D01*
X43525Y-43655D01*
X43525Y-43844D01*
X43597Y-44019D01*
X43731Y-44152D01*
X43905Y-44225D01*
X44094Y-44225D01*
X44269Y-44153D01*
X44402Y-44019D01*
X44475Y-43845D01*
X44475Y-44656D01*
X44403Y-44481D01*
X44269Y-44348D01*
X44095Y-44275D01*
X43906Y-44275D01*
X43731Y-44347D01*
X43598Y-44481D01*
X43525Y-44655D01*
X43525Y-44844D01*
X43597Y-45019D01*
X43731Y-45152D01*
X43905Y-45225D01*
X44094Y-45225D01*
X44269Y-45153D01*
X44402Y-45019D01*
X44475Y-44845D01*
X44475Y-45656D01*
X44403Y-45481D01*
X44269Y-45348D01*
X44095Y-45275D01*
X43906Y-45275D01*
X43731Y-45347D01*
X43598Y-45481D01*
X43525Y-45655D01*
X43525Y-45844D01*
X43597Y-46019D01*
X43731Y-46152D01*
X43905Y-46225D01*
X44094Y-46225D01*
X44269Y-46153D01*
X44402Y-46019D01*
X44475Y-45845D01*
X44475Y-46656D01*
X44403Y-46481D01*
X44269Y-46348D01*
X44095Y-46275D01*
X43906Y-46275D01*
X43731Y-46347D01*
X43598Y-46481D01*
X43525Y-46655D01*
X43525Y-46844D01*
X43597Y-47019D01*
X43731Y-47152D01*
X43905Y-47225D01*
X44094Y-47225D01*
X44269Y-47153D01*
X44402Y-47019D01*
X44475Y-46845D01*
X44475Y-47656D01*
X44403Y-47481D01*
X44269Y-47348D01*
X44095Y-47275D01*
X43906Y-47275D01*
X43731Y-47347D01*
X43598Y-47481D01*
X43525Y-47655D01*
X43525Y-47844D01*
X43597Y-48019D01*
X43731Y-48152D01*
X43905Y-48225D01*
X44094Y-48225D01*
X44269Y-48153D01*
X44402Y-48019D01*
X44475Y-47845D01*
X44475Y-48656D01*
X44403Y-48481D01*
X44269Y-48348D01*
X44095Y-48275D01*
X43906Y-48275D01*
X43731Y-48347D01*
X43598Y-48481D01*
X43525Y-48655D01*
X43525Y-48844D01*
X43597Y-49019D01*
X43731Y-49152D01*
X43905Y-49225D01*
X44094Y-49225D01*
X44269Y-49153D01*
X44402Y-49019D01*
X44475Y-48845D01*
X44475Y-49656D01*
X44403Y-49481D01*
X44269Y-49348D01*
X44095Y-49275D01*
X43906Y-49275D01*
X43731Y-49347D01*
X43598Y-49481D01*
X43525Y-49655D01*
X43525Y-49844D01*
X43597Y-50019D01*
X43731Y-50152D01*
X43905Y-50225D01*
X44094Y-50225D01*
X44269Y-50153D01*
X44402Y-50019D01*
X44475Y-49845D01*
X44475Y-50656D01*
X44403Y-50481D01*
X44269Y-50348D01*
X44095Y-50275D01*
X43906Y-50275D01*
X43731Y-50347D01*
X43598Y-50481D01*
X43525Y-50655D01*
X43525Y-50844D01*
X43597Y-51019D01*
X43731Y-51152D01*
X43905Y-51225D01*
X44094Y-51225D01*
X44269Y-51153D01*
X44402Y-51019D01*
X44475Y-50845D01*
X44475Y-51656D01*
X44403Y-51481D01*
X44269Y-51348D01*
X44095Y-51275D01*
X43906Y-51275D01*
X43731Y-51347D01*
X43598Y-51481D01*
X43525Y-51655D01*
X43525Y-51844D01*
X43597Y-52019D01*
X43731Y-52152D01*
X43905Y-52225D01*
X44094Y-52225D01*
X44269Y-52153D01*
X44402Y-52019D01*
X44475Y-51845D01*
X44475Y-52656D01*
X44403Y-52481D01*
X44269Y-52348D01*
X44095Y-52275D01*
X43906Y-52275D01*
X43731Y-52347D01*
X43598Y-52481D01*
X43525Y-52655D01*
X43525Y-52844D01*
X43597Y-53019D01*
X43731Y-53152D01*
X43905Y-53225D01*
X44094Y-53225D01*
X44269Y-53153D01*
X44402Y-53019D01*
X44475Y-52845D01*
X44475Y-53656D01*
X44403Y-53481D01*
X44269Y-53348D01*
X44095Y-53275D01*
X43906Y-53275D01*
X43731Y-53347D01*
X43598Y-53481D01*
X43525Y-53655D01*
X43525Y-53844D01*
X43597Y-54019D01*
X43731Y-54152D01*
X43905Y-54225D01*
X44094Y-54225D01*
X44269Y-54153D01*
X44402Y-54019D01*
X44475Y-53845D01*
X44475Y-57745D01*
X43475Y-57745D01*
X43475Y-53845D01*
X43475Y-53656D01*
X43475Y-52845D01*
X43475Y-52656D01*
X43475Y-51845D01*
X43475Y-51656D01*
X43475Y-50845D01*
X43475Y-50656D01*
X43475Y-49845D01*
X43475Y-49656D01*
X43475Y-48845D01*
X43475Y-48656D01*
X43475Y-47845D01*
X43475Y-47656D01*
X43475Y-46845D01*
X43475Y-46656D01*
X43475Y-45845D01*
X43475Y-45656D01*
X43475Y-44845D01*
X43475Y-44656D01*
X43475Y-43845D01*
X43475Y-43656D01*
X43475Y-42845D01*
X43475Y-42656D01*
X43475Y-41845D01*
X43475Y-41656D01*
X43475Y-40845D01*
X43475Y-40656D01*
X43475Y-39845D01*
X43475Y-39656D01*
X43475Y-38845D01*
X43475Y-38656D01*
X43475Y-37845D01*
X43475Y-37656D01*
X43475Y-36845D01*
X43475Y-36656D01*
X43475Y-35845D01*
X43475Y-35656D01*
X43475Y-34845D01*
X43475Y-34656D01*
X43475Y-33845D01*
X43475Y-33656D01*
X43475Y-32845D01*
X43475Y-32656D01*
X43403Y-32481D01*
X43269Y-32348D01*
X43095Y-32275D01*
X42906Y-32275D01*
X42731Y-32347D01*
X42598Y-32481D01*
X42525Y-32655D01*
X42525Y-32844D01*
X42597Y-33019D01*
X42731Y-33152D01*
X42905Y-33225D01*
X43094Y-33225D01*
X43269Y-33153D01*
X43402Y-33019D01*
X43475Y-32845D01*
X43475Y-33656D01*
X43403Y-33481D01*
X43269Y-33348D01*
X43095Y-33275D01*
X42906Y-33275D01*
X42731Y-33347D01*
X42598Y-33481D01*
X42525Y-33655D01*
X42525Y-33844D01*
X42597Y-34019D01*
X42731Y-34152D01*
X42905Y-34225D01*
X43094Y-34225D01*
X43269Y-34153D01*
X43402Y-34019D01*
X43475Y-33845D01*
X43475Y-34656D01*
X43403Y-34481D01*
X43269Y-34348D01*
X43095Y-34275D01*
X42906Y-34275D01*
X42731Y-34347D01*
X42598Y-34481D01*
X42525Y-34655D01*
X42525Y-34844D01*
X42597Y-35019D01*
X42731Y-35152D01*
X42905Y-35225D01*
X43094Y-35225D01*
X43269Y-35153D01*
X43402Y-35019D01*
X43475Y-34845D01*
X43475Y-35656D01*
X43403Y-35481D01*
X43269Y-35348D01*
X43095Y-35275D01*
X42906Y-35275D01*
X42731Y-35347D01*
X42598Y-35481D01*
X42525Y-35655D01*
X42525Y-35844D01*
X42597Y-36019D01*
X42731Y-36152D01*
X42905Y-36225D01*
X43094Y-36225D01*
X43269Y-36153D01*
X43402Y-36019D01*
X43475Y-35845D01*
X43475Y-36656D01*
X43403Y-36481D01*
X43269Y-36348D01*
X43095Y-36275D01*
X42906Y-36275D01*
X42731Y-36347D01*
X42598Y-36481D01*
X42525Y-36655D01*
X42525Y-36844D01*
X42597Y-37019D01*
X42731Y-37152D01*
X42905Y-37225D01*
X43094Y-37225D01*
X43269Y-37153D01*
X43402Y-37019D01*
X43475Y-36845D01*
X43475Y-37656D01*
X43403Y-37481D01*
X43269Y-37348D01*
X43095Y-37275D01*
X42906Y-37275D01*
X42731Y-37347D01*
X42598Y-37481D01*
X42525Y-37655D01*
X42525Y-37844D01*
X42597Y-38019D01*
X42731Y-38152D01*
X42905Y-38225D01*
X43094Y-38225D01*
X43269Y-38153D01*
X43402Y-38019D01*
X43475Y-37845D01*
X43475Y-38656D01*
X43403Y-38481D01*
X43269Y-38348D01*
X43095Y-38275D01*
X42906Y-38275D01*
X42731Y-38347D01*
X42598Y-38481D01*
X42525Y-38655D01*
X42525Y-38844D01*
X42597Y-39019D01*
X42731Y-39152D01*
X42905Y-39225D01*
X43094Y-39225D01*
X43269Y-39153D01*
X43402Y-39019D01*
X43475Y-38845D01*
X43475Y-39656D01*
X43403Y-39481D01*
X43269Y-39348D01*
X43095Y-39275D01*
X42906Y-39275D01*
X42731Y-39347D01*
X42598Y-39481D01*
X42525Y-39655D01*
X42525Y-39844D01*
X42597Y-40019D01*
X42731Y-40152D01*
X42905Y-40225D01*
X43094Y-40225D01*
X43269Y-40153D01*
X43402Y-40019D01*
X43475Y-39845D01*
X43475Y-40656D01*
X43403Y-40481D01*
X43269Y-40348D01*
X43095Y-40275D01*
X42906Y-40275D01*
X42731Y-40347D01*
X42598Y-40481D01*
X42525Y-40655D01*
X42525Y-40844D01*
X42597Y-41019D01*
X42731Y-41152D01*
X42905Y-41225D01*
X43094Y-41225D01*
X43269Y-41153D01*
X43402Y-41019D01*
X43475Y-40845D01*
X43475Y-41656D01*
X43403Y-41481D01*
X43269Y-41348D01*
X43095Y-41275D01*
X42906Y-41275D01*
X42731Y-41347D01*
X42598Y-41481D01*
X42525Y-41655D01*
X42525Y-41844D01*
X42597Y-42019D01*
X42731Y-42152D01*
X42905Y-42225D01*
X43094Y-42225D01*
X43269Y-42153D01*
X43402Y-42019D01*
X43475Y-41845D01*
X43475Y-42656D01*
X43403Y-42481D01*
X43269Y-42348D01*
X43095Y-42275D01*
X42906Y-42275D01*
X42731Y-42347D01*
X42598Y-42481D01*
X42525Y-42655D01*
X42525Y-42844D01*
X42597Y-43019D01*
X42731Y-43152D01*
X42905Y-43225D01*
X43094Y-43225D01*
X43269Y-43153D01*
X43402Y-43019D01*
X43475Y-42845D01*
X43475Y-43656D01*
X43403Y-43481D01*
X43269Y-43348D01*
X43095Y-43275D01*
X42906Y-43275D01*
X42731Y-43347D01*
X42598Y-43481D01*
X42525Y-43655D01*
X42525Y-43844D01*
X42597Y-44019D01*
X42731Y-44152D01*
X42905Y-44225D01*
X43094Y-44225D01*
X43269Y-44153D01*
X43402Y-44019D01*
X43475Y-43845D01*
X43475Y-44656D01*
X43403Y-44481D01*
X43269Y-44348D01*
X43095Y-44275D01*
X42906Y-44275D01*
X42731Y-44347D01*
X42598Y-44481D01*
X42525Y-44655D01*
X42525Y-44722D01*
X42436Y-44634D01*
X42312Y-44582D01*
X42177Y-44582D01*
X42052Y-44633D01*
X41957Y-44729D01*
X41905Y-44853D01*
X41905Y-44988D01*
X41956Y-45113D01*
X42052Y-45208D01*
X42176Y-45260D01*
X42311Y-45260D01*
X42436Y-45209D01*
X42531Y-45113D01*
X42583Y-44989D01*
X42583Y-44984D01*
X42597Y-45019D01*
X42731Y-45152D01*
X42905Y-45225D01*
X43094Y-45225D01*
X43269Y-45153D01*
X43402Y-45019D01*
X43475Y-44845D01*
X43475Y-45656D01*
X43403Y-45481D01*
X43269Y-45348D01*
X43095Y-45275D01*
X42906Y-45275D01*
X42731Y-45347D01*
X42598Y-45481D01*
X42525Y-45655D01*
X42525Y-45844D01*
X42597Y-46019D01*
X42731Y-46152D01*
X42905Y-46225D01*
X43094Y-46225D01*
X43269Y-46153D01*
X43402Y-46019D01*
X43475Y-45845D01*
X43475Y-46656D01*
X43403Y-46481D01*
X43269Y-46348D01*
X43095Y-46275D01*
X42906Y-46275D01*
X42731Y-46347D01*
X42598Y-46481D01*
X42525Y-46655D01*
X42525Y-46844D01*
X42597Y-47019D01*
X42731Y-47152D01*
X42905Y-47225D01*
X43094Y-47225D01*
X43269Y-47153D01*
X43402Y-47019D01*
X43475Y-46845D01*
X43475Y-47656D01*
X43403Y-47481D01*
X43269Y-47348D01*
X43095Y-47275D01*
X42906Y-47275D01*
X42731Y-47347D01*
X42598Y-47481D01*
X42525Y-47655D01*
X42525Y-47844D01*
X42597Y-48019D01*
X42731Y-48152D01*
X42905Y-48225D01*
X43094Y-48225D01*
X43269Y-48153D01*
X43402Y-48019D01*
X43475Y-47845D01*
X43475Y-48656D01*
X43403Y-48481D01*
X43269Y-48348D01*
X43095Y-48275D01*
X42906Y-48275D01*
X42731Y-48347D01*
X42598Y-48481D01*
X42525Y-48655D01*
X42525Y-48844D01*
X42597Y-49019D01*
X42731Y-49152D01*
X42905Y-49225D01*
X43094Y-49225D01*
X43269Y-49153D01*
X43402Y-49019D01*
X43475Y-48845D01*
X43475Y-49656D01*
X43403Y-49481D01*
X43269Y-49348D01*
X43095Y-49275D01*
X42906Y-49275D01*
X42731Y-49347D01*
X42598Y-49481D01*
X42525Y-49655D01*
X42525Y-49844D01*
X42597Y-50019D01*
X42731Y-50152D01*
X42905Y-50225D01*
X43094Y-50225D01*
X43269Y-50153D01*
X43402Y-50019D01*
X43475Y-49845D01*
X43475Y-50656D01*
X43403Y-50481D01*
X43269Y-50348D01*
X43095Y-50275D01*
X42906Y-50275D01*
X42731Y-50347D01*
X42598Y-50481D01*
X42525Y-50655D01*
X42525Y-50844D01*
X42597Y-51019D01*
X42731Y-51152D01*
X42905Y-51225D01*
X43094Y-51225D01*
X43269Y-51153D01*
X43402Y-51019D01*
X43475Y-50845D01*
X43475Y-51656D01*
X43403Y-51481D01*
X43269Y-51348D01*
X43095Y-51275D01*
X42906Y-51275D01*
X42731Y-51347D01*
X42598Y-51481D01*
X42525Y-51655D01*
X42525Y-51844D01*
X42597Y-52019D01*
X42731Y-52152D01*
X42905Y-52225D01*
X43094Y-52225D01*
X43269Y-52153D01*
X43402Y-52019D01*
X43475Y-51845D01*
X43475Y-52656D01*
X43403Y-52481D01*
X43269Y-52348D01*
X43095Y-52275D01*
X42906Y-52275D01*
X42731Y-52347D01*
X42598Y-52481D01*
X42525Y-52655D01*
X42525Y-52844D01*
X42597Y-53019D01*
X42731Y-53152D01*
X42905Y-53225D01*
X43094Y-53225D01*
X43269Y-53153D01*
X43402Y-53019D01*
X43475Y-52845D01*
X43475Y-53656D01*
X43403Y-53481D01*
X43269Y-53348D01*
X43095Y-53275D01*
X42906Y-53275D01*
X42731Y-53347D01*
X42598Y-53481D01*
X42525Y-53655D01*
X42525Y-53844D01*
X42597Y-54019D01*
X42731Y-54152D01*
X42905Y-54225D01*
X43094Y-54225D01*
X43269Y-54153D01*
X43402Y-54019D01*
X43475Y-53845D01*
X43475Y-57745D01*
X43305Y-57745D01*
X43305Y-55961D01*
X43305Y-55541D01*
X43145Y-55153D01*
X42848Y-54856D01*
X42461Y-54695D01*
X42189Y-54695D01*
X42189Y-46170D01*
X42189Y-46035D01*
X42138Y-45910D01*
X42042Y-45815D01*
X41918Y-45763D01*
X41783Y-45763D01*
X41658Y-45814D01*
X41563Y-45910D01*
X41511Y-46034D01*
X41511Y-46169D01*
X41562Y-46294D01*
X41658Y-46389D01*
X41782Y-46441D01*
X41917Y-46441D01*
X42042Y-46390D01*
X42137Y-46294D01*
X42189Y-46170D01*
X42189Y-54695D01*
X42041Y-54695D01*
X41675Y-54845D01*
X41675Y-54239D01*
X41675Y-54027D01*
X41594Y-53831D01*
X41444Y-53680D01*
X41247Y-53599D01*
X41035Y-53599D01*
X40839Y-53680D01*
X40688Y-53830D01*
X40648Y-53926D01*
X40615Y-53845D01*
X40615Y-42666D01*
X40615Y-42531D01*
X40564Y-42406D01*
X40468Y-42311D01*
X40344Y-42259D01*
X40209Y-42259D01*
X40084Y-42310D01*
X39989Y-42406D01*
X39937Y-42530D01*
X39937Y-42665D01*
X39988Y-42790D01*
X40084Y-42885D01*
X40208Y-42937D01*
X40343Y-42937D01*
X40468Y-42886D01*
X40563Y-42790D01*
X40615Y-42666D01*
X40615Y-53845D01*
X40609Y-53831D01*
X40459Y-53680D01*
X40262Y-53599D01*
X40050Y-53599D01*
X39854Y-53680D01*
X39703Y-53830D01*
X39622Y-54027D01*
X39622Y-54239D01*
X39703Y-54435D01*
X39853Y-54586D01*
X40050Y-54667D01*
X40262Y-54667D01*
X40458Y-54586D01*
X40609Y-54436D01*
X40648Y-54339D01*
X40688Y-54435D01*
X40838Y-54586D01*
X41035Y-54667D01*
X41247Y-54667D01*
X41443Y-54586D01*
X41594Y-54436D01*
X41675Y-54239D01*
X41675Y-54845D01*
X41653Y-54855D01*
X41356Y-55152D01*
X41195Y-55539D01*
X41195Y-55686D01*
X41059Y-55686D01*
X40906Y-55749D01*
X40789Y-55866D01*
X40725Y-56019D01*
X40725Y-56184D01*
X40788Y-56337D01*
X40905Y-56454D01*
X41058Y-56518D01*
X41223Y-56518D01*
X41376Y-56455D01*
X41419Y-56411D01*
X41652Y-56644D01*
X42039Y-56805D01*
X42459Y-56805D01*
X42847Y-56645D01*
X43144Y-56348D01*
X43305Y-55961D01*
X43305Y-57745D01*
X41557Y-57745D01*
X41557Y-57169D01*
X41557Y-57004D01*
X41494Y-56851D01*
X41377Y-56734D01*
X41224Y-56670D01*
X41059Y-56670D01*
X40906Y-56733D01*
X40789Y-56850D01*
X40725Y-57003D01*
X40725Y-57168D01*
X40788Y-57321D01*
X40905Y-57438D01*
X41058Y-57502D01*
X41223Y-57502D01*
X41376Y-57439D01*
X41493Y-57322D01*
X41557Y-57169D01*
X41557Y-57745D01*
X39588Y-57745D01*
X39588Y-54216D01*
X39588Y-54051D01*
X39525Y-53898D01*
X39408Y-53781D01*
X39394Y-53775D01*
X39394Y-46367D01*
X39394Y-46232D01*
X39343Y-46107D01*
X39247Y-46012D01*
X39197Y-45991D01*
X39197Y-41997D01*
X39197Y-41862D01*
X39146Y-41737D01*
X39050Y-41642D01*
X38926Y-41590D01*
X38791Y-41590D01*
X38666Y-41641D01*
X38571Y-41737D01*
X38519Y-41861D01*
X38519Y-41996D01*
X38570Y-42121D01*
X38666Y-42216D01*
X38790Y-42268D01*
X38925Y-42268D01*
X39050Y-42217D01*
X39145Y-42121D01*
X39197Y-41997D01*
X39197Y-45991D01*
X39123Y-45960D01*
X38988Y-45960D01*
X38863Y-46011D01*
X38768Y-46107D01*
X38716Y-46231D01*
X38716Y-46366D01*
X38767Y-46491D01*
X38863Y-46586D01*
X38987Y-46638D01*
X39122Y-46638D01*
X39247Y-46587D01*
X39342Y-46491D01*
X39394Y-46367D01*
X39394Y-53775D01*
X39255Y-53717D01*
X39090Y-53717D01*
X38937Y-53780D01*
X38820Y-53897D01*
X38756Y-54050D01*
X38756Y-54215D01*
X38819Y-54368D01*
X38936Y-54485D01*
X39089Y-54549D01*
X39254Y-54549D01*
X39407Y-54486D01*
X39524Y-54369D01*
X39588Y-54216D01*
X39588Y-57745D01*
X38722Y-57745D01*
X38722Y-54239D01*
X38722Y-54027D01*
X38641Y-53831D01*
X38491Y-53680D01*
X38294Y-53599D01*
X38082Y-53599D01*
X37886Y-53680D01*
X37735Y-53830D01*
X37695Y-53926D01*
X37656Y-53831D01*
X37506Y-53680D01*
X37309Y-53599D01*
X37097Y-53599D01*
X37071Y-53609D01*
X37071Y-43966D01*
X37071Y-43831D01*
X37020Y-43706D01*
X36924Y-43611D01*
X36800Y-43559D01*
X36665Y-43559D01*
X36540Y-43610D01*
X36445Y-43706D01*
X36393Y-43830D01*
X36393Y-43965D01*
X36444Y-44090D01*
X36540Y-44185D01*
X36664Y-44237D01*
X36799Y-44237D01*
X36924Y-44186D01*
X37019Y-44090D01*
X37071Y-43966D01*
X37071Y-53609D01*
X36901Y-53680D01*
X36750Y-53830D01*
X36669Y-54027D01*
X36669Y-54239D01*
X36750Y-54435D01*
X36900Y-54586D01*
X37097Y-54667D01*
X37309Y-54667D01*
X37505Y-54586D01*
X37656Y-54436D01*
X37695Y-54339D01*
X37735Y-54435D01*
X37885Y-54586D01*
X38082Y-54667D01*
X38294Y-54667D01*
X38490Y-54586D01*
X38641Y-54436D01*
X38722Y-54239D01*
X38722Y-57745D01*
X37619Y-57745D01*
X37619Y-57169D01*
X37619Y-57004D01*
X37619Y-56185D01*
X37619Y-56020D01*
X37556Y-55867D01*
X37439Y-55750D01*
X37286Y-55686D01*
X37121Y-55686D01*
X36968Y-55749D01*
X36851Y-55866D01*
X36787Y-56019D01*
X36787Y-56184D01*
X36850Y-56337D01*
X36967Y-56454D01*
X37120Y-56518D01*
X37285Y-56518D01*
X37438Y-56455D01*
X37555Y-56338D01*
X37619Y-56185D01*
X37619Y-57004D01*
X37556Y-56851D01*
X37439Y-56734D01*
X37286Y-56670D01*
X37121Y-56670D01*
X36968Y-56733D01*
X36851Y-56850D01*
X36787Y-57003D01*
X36787Y-57168D01*
X36850Y-57321D01*
X36967Y-57438D01*
X37120Y-57502D01*
X37285Y-57502D01*
X37438Y-57439D01*
X37555Y-57322D01*
X37619Y-57169D01*
X37619Y-57745D01*
X36558Y-57745D01*
X36558Y-54239D01*
X36558Y-54027D01*
X36477Y-53831D01*
X36327Y-53680D01*
X36130Y-53599D01*
X35918Y-53599D01*
X35890Y-53610D01*
X35890Y-42233D01*
X35890Y-42098D01*
X35890Y-40580D01*
X35890Y-40445D01*
X35839Y-40320D01*
X35743Y-40225D01*
X35619Y-40173D01*
X35484Y-40173D01*
X35359Y-40224D01*
X35264Y-40320D01*
X35212Y-40444D01*
X35212Y-40579D01*
X35263Y-40704D01*
X35359Y-40799D01*
X35483Y-40851D01*
X35618Y-40851D01*
X35743Y-40800D01*
X35838Y-40704D01*
X35890Y-40580D01*
X35890Y-42098D01*
X35839Y-41973D01*
X35743Y-41878D01*
X35619Y-41826D01*
X35484Y-41826D01*
X35359Y-41877D01*
X35264Y-41973D01*
X35212Y-42097D01*
X35212Y-42232D01*
X35263Y-42357D01*
X35359Y-42452D01*
X35483Y-42504D01*
X35618Y-42504D01*
X35743Y-42453D01*
X35838Y-42357D01*
X35890Y-42233D01*
X35890Y-53610D01*
X35733Y-53675D01*
X35733Y-44399D01*
X35733Y-44264D01*
X35733Y-43572D01*
X35733Y-43437D01*
X35682Y-43312D01*
X35586Y-43217D01*
X35574Y-43212D01*
X35602Y-43184D01*
X35654Y-43060D01*
X35654Y-42925D01*
X35603Y-42800D01*
X35507Y-42705D01*
X35383Y-42653D01*
X35248Y-42653D01*
X35123Y-42704D01*
X35028Y-42800D01*
X34976Y-42924D01*
X34976Y-43059D01*
X35027Y-43184D01*
X35123Y-43279D01*
X35134Y-43283D01*
X35107Y-43312D01*
X35055Y-43436D01*
X35055Y-43571D01*
X35106Y-43696D01*
X35202Y-43791D01*
X35326Y-43843D01*
X35461Y-43843D01*
X35586Y-43792D01*
X35681Y-43696D01*
X35733Y-43572D01*
X35733Y-44264D01*
X35682Y-44139D01*
X35586Y-44044D01*
X35462Y-43992D01*
X35327Y-43992D01*
X35202Y-44043D01*
X35107Y-44139D01*
X35055Y-44263D01*
X35055Y-44398D01*
X35106Y-44523D01*
X35202Y-44618D01*
X35326Y-44670D01*
X35461Y-44670D01*
X35586Y-44619D01*
X35681Y-44523D01*
X35733Y-44399D01*
X35733Y-53675D01*
X35722Y-53680D01*
X35571Y-53830D01*
X35531Y-53926D01*
X35492Y-53831D01*
X35342Y-53680D01*
X35145Y-53599D01*
X34933Y-53599D01*
X34737Y-53680D01*
X34586Y-53830D01*
X34505Y-54027D01*
X34505Y-54239D01*
X34586Y-54435D01*
X34736Y-54586D01*
X34933Y-54667D01*
X35145Y-54667D01*
X35341Y-54586D01*
X35492Y-54436D01*
X35531Y-54339D01*
X35571Y-54435D01*
X35721Y-54586D01*
X35918Y-54667D01*
X36130Y-54667D01*
X36326Y-54586D01*
X36477Y-54436D01*
X36558Y-54239D01*
X36558Y-57745D01*
X36440Y-57745D01*
X36440Y-57169D01*
X36440Y-57004D01*
X36440Y-56185D01*
X36440Y-56020D01*
X36377Y-55867D01*
X36260Y-55750D01*
X36107Y-55686D01*
X35942Y-55686D01*
X35789Y-55749D01*
X35672Y-55866D01*
X35608Y-56019D01*
X35608Y-56184D01*
X35671Y-56337D01*
X35788Y-56454D01*
X35941Y-56518D01*
X36106Y-56518D01*
X36259Y-56455D01*
X36376Y-56338D01*
X36440Y-56185D01*
X36440Y-57004D01*
X36377Y-56851D01*
X36260Y-56734D01*
X36107Y-56670D01*
X35942Y-56670D01*
X35789Y-56733D01*
X35672Y-56850D01*
X35608Y-57003D01*
X35608Y-57168D01*
X35671Y-57321D01*
X35788Y-57438D01*
X35941Y-57502D01*
X36106Y-57502D01*
X36259Y-57439D01*
X36376Y-57322D01*
X36440Y-57169D01*
X36440Y-57745D01*
X34471Y-57745D01*
X34471Y-54216D01*
X34471Y-54051D01*
X34408Y-53898D01*
X34291Y-53781D01*
X34237Y-53758D01*
X34237Y-46013D01*
X34237Y-45878D01*
X34237Y-43966D01*
X34237Y-43831D01*
X34186Y-43706D01*
X34121Y-43642D01*
X34185Y-43578D01*
X34237Y-43454D01*
X34237Y-43319D01*
X34237Y-42706D01*
X34237Y-42571D01*
X34186Y-42446D01*
X34090Y-42351D01*
X33966Y-42299D01*
X33831Y-42299D01*
X33706Y-42350D01*
X33611Y-42446D01*
X33559Y-42570D01*
X33559Y-42705D01*
X33610Y-42830D01*
X33706Y-42925D01*
X33830Y-42977D01*
X33965Y-42977D01*
X34090Y-42926D01*
X34185Y-42830D01*
X34237Y-42706D01*
X34237Y-43319D01*
X34186Y-43194D01*
X34090Y-43099D01*
X33966Y-43047D01*
X33831Y-43047D01*
X33706Y-43098D01*
X33611Y-43194D01*
X33559Y-43318D01*
X33559Y-43453D01*
X33610Y-43578D01*
X33674Y-43641D01*
X33611Y-43706D01*
X33559Y-43830D01*
X33559Y-43965D01*
X33610Y-44090D01*
X33637Y-44116D01*
X33627Y-44121D01*
X33532Y-44217D01*
X33480Y-44341D01*
X33480Y-44476D01*
X33531Y-44601D01*
X33627Y-44696D01*
X33751Y-44748D01*
X33886Y-44748D01*
X34011Y-44697D01*
X34106Y-44601D01*
X34158Y-44477D01*
X34158Y-44342D01*
X34107Y-44217D01*
X34079Y-44190D01*
X34090Y-44186D01*
X34185Y-44090D01*
X34237Y-43966D01*
X34237Y-45878D01*
X34186Y-45753D01*
X34090Y-45658D01*
X33966Y-45606D01*
X33831Y-45606D01*
X33706Y-45657D01*
X33611Y-45753D01*
X33559Y-45877D01*
X33559Y-46012D01*
X33602Y-46118D01*
X33594Y-46118D01*
X33469Y-46169D01*
X33449Y-46189D01*
X33449Y-40580D01*
X33449Y-40445D01*
X33398Y-40320D01*
X33302Y-40225D01*
X33178Y-40173D01*
X33043Y-40173D01*
X32918Y-40224D01*
X32823Y-40320D01*
X32771Y-40444D01*
X32771Y-40579D01*
X32822Y-40704D01*
X32918Y-40799D01*
X33042Y-40851D01*
X33177Y-40851D01*
X33302Y-40800D01*
X33397Y-40704D01*
X33449Y-40580D01*
X33449Y-46189D01*
X33374Y-46265D01*
X33322Y-46389D01*
X33322Y-46524D01*
X33373Y-46649D01*
X33469Y-46744D01*
X33593Y-46796D01*
X33728Y-46796D01*
X33853Y-46745D01*
X33948Y-46649D01*
X34000Y-46525D01*
X34000Y-46390D01*
X33956Y-46284D01*
X33965Y-46284D01*
X34090Y-46233D01*
X34185Y-46137D01*
X34237Y-46013D01*
X34237Y-53758D01*
X34138Y-53717D01*
X34000Y-53717D01*
X34000Y-48099D01*
X34000Y-47964D01*
X33949Y-47839D01*
X33853Y-47744D01*
X33729Y-47692D01*
X33594Y-47692D01*
X33469Y-47743D01*
X33374Y-47839D01*
X33322Y-47963D01*
X33322Y-48098D01*
X33373Y-48223D01*
X33469Y-48318D01*
X33593Y-48370D01*
X33728Y-48370D01*
X33853Y-48319D01*
X33948Y-48223D01*
X34000Y-48099D01*
X34000Y-53717D01*
X33973Y-53717D01*
X33820Y-53780D01*
X33703Y-53897D01*
X33639Y-54050D01*
X33639Y-54215D01*
X33702Y-54368D01*
X33819Y-54485D01*
X33972Y-54549D01*
X34137Y-54549D01*
X34290Y-54486D01*
X34407Y-54369D01*
X34471Y-54216D01*
X34471Y-57745D01*
X33605Y-57745D01*
X33605Y-54239D01*
X33605Y-54027D01*
X33524Y-53831D01*
X33374Y-53680D01*
X33177Y-53599D01*
X32977Y-53599D01*
X32977Y-44241D01*
X32977Y-44106D01*
X32926Y-43981D01*
X32861Y-43917D01*
X32925Y-43854D01*
X32977Y-43730D01*
X32977Y-43595D01*
X32926Y-43470D01*
X32861Y-43406D01*
X32925Y-43342D01*
X32977Y-43218D01*
X32977Y-43083D01*
X32926Y-42958D01*
X32880Y-42913D01*
X32925Y-42869D01*
X32977Y-42745D01*
X32977Y-42610D01*
X32977Y-41761D01*
X32977Y-41626D01*
X32926Y-41501D01*
X32830Y-41406D01*
X32706Y-41354D01*
X32571Y-41354D01*
X32446Y-41405D01*
X32351Y-41501D01*
X32299Y-41625D01*
X32299Y-41760D01*
X32350Y-41885D01*
X32446Y-41980D01*
X32570Y-42032D01*
X32705Y-42032D01*
X32830Y-41981D01*
X32925Y-41885D01*
X32977Y-41761D01*
X32977Y-42610D01*
X32926Y-42485D01*
X32830Y-42390D01*
X32706Y-42338D01*
X32571Y-42338D01*
X32446Y-42389D01*
X32351Y-42485D01*
X32299Y-42609D01*
X32299Y-42744D01*
X32350Y-42869D01*
X32395Y-42913D01*
X32351Y-42958D01*
X32299Y-43082D01*
X32299Y-43217D01*
X32350Y-43342D01*
X32414Y-43405D01*
X32351Y-43470D01*
X32299Y-43594D01*
X32299Y-43729D01*
X32350Y-43854D01*
X32414Y-43917D01*
X32351Y-43981D01*
X32299Y-44105D01*
X32299Y-44240D01*
X32350Y-44365D01*
X32446Y-44460D01*
X32570Y-44512D01*
X32705Y-44512D01*
X32830Y-44461D01*
X32925Y-44365D01*
X32977Y-44241D01*
X32977Y-53599D01*
X32965Y-53599D01*
X32769Y-53680D01*
X32618Y-53830D01*
X32578Y-53926D01*
X32539Y-53831D01*
X32426Y-53717D01*
X32426Y-47352D01*
X32426Y-47217D01*
X32426Y-46013D01*
X32426Y-45878D01*
X32375Y-45753D01*
X32279Y-45658D01*
X32155Y-45606D01*
X32020Y-45606D01*
X31895Y-45657D01*
X31800Y-45753D01*
X31748Y-45877D01*
X31748Y-46012D01*
X31799Y-46137D01*
X31895Y-46232D01*
X32019Y-46284D01*
X32154Y-46284D01*
X32279Y-46233D01*
X32374Y-46137D01*
X32426Y-46013D01*
X32426Y-47217D01*
X32375Y-47092D01*
X32279Y-46997D01*
X32155Y-46945D01*
X32020Y-46945D01*
X31895Y-46996D01*
X31800Y-47092D01*
X31748Y-47216D01*
X31748Y-47351D01*
X31799Y-47476D01*
X31895Y-47571D01*
X32019Y-47623D01*
X32154Y-47623D01*
X32279Y-47572D01*
X32374Y-47476D01*
X32426Y-47352D01*
X32426Y-53717D01*
X32389Y-53680D01*
X32192Y-53599D01*
X31980Y-53599D01*
X31784Y-53680D01*
X31633Y-53830D01*
X31552Y-54027D01*
X31552Y-54239D01*
X31633Y-54435D01*
X31783Y-54586D01*
X31980Y-54667D01*
X32192Y-54667D01*
X32388Y-54586D01*
X32539Y-54436D01*
X32578Y-54339D01*
X32618Y-54435D01*
X32768Y-54586D01*
X32965Y-54667D01*
X33177Y-54667D01*
X33373Y-54586D01*
X33524Y-54436D01*
X33605Y-54239D01*
X33605Y-57745D01*
X32502Y-57745D01*
X32502Y-57169D01*
X32502Y-57004D01*
X32502Y-56185D01*
X32502Y-56020D01*
X32439Y-55867D01*
X32322Y-55750D01*
X32169Y-55686D01*
X32004Y-55686D01*
X31851Y-55749D01*
X31734Y-55866D01*
X31670Y-56019D01*
X31670Y-56184D01*
X31733Y-56337D01*
X31850Y-56454D01*
X32003Y-56518D01*
X32168Y-56518D01*
X32321Y-56455D01*
X32438Y-56338D01*
X32502Y-56185D01*
X32502Y-57004D01*
X32439Y-56851D01*
X32322Y-56734D01*
X32169Y-56670D01*
X32004Y-56670D01*
X31851Y-56733D01*
X31734Y-56850D01*
X31670Y-57003D01*
X31670Y-57168D01*
X31733Y-57321D01*
X31850Y-57438D01*
X32003Y-57502D01*
X32168Y-57502D01*
X32321Y-57439D01*
X32438Y-57322D01*
X32502Y-57169D01*
X32502Y-57745D01*
X31440Y-57745D01*
X31440Y-54240D01*
X31440Y-54028D01*
X31359Y-53832D01*
X31209Y-53681D01*
X31012Y-53600D01*
X30800Y-53600D01*
X30604Y-53681D01*
X30453Y-53831D01*
X30413Y-53927D01*
X30374Y-53832D01*
X30224Y-53681D01*
X30220Y-53679D01*
X30220Y-25580D01*
X30220Y-25445D01*
X30169Y-25320D01*
X30073Y-25225D01*
X29949Y-25173D01*
X29814Y-25173D01*
X29689Y-25224D01*
X29594Y-25320D01*
X29542Y-25444D01*
X29542Y-25579D01*
X29593Y-25704D01*
X29689Y-25799D01*
X29813Y-25851D01*
X29948Y-25851D01*
X30073Y-25800D01*
X30168Y-25704D01*
X30220Y-25580D01*
X30220Y-53679D01*
X30181Y-53663D01*
X30181Y-30186D01*
X30181Y-30051D01*
X30130Y-29926D01*
X30034Y-29831D01*
X29910Y-29779D01*
X29867Y-29779D01*
X29867Y-28296D01*
X29867Y-28161D01*
X29816Y-28036D01*
X29720Y-27941D01*
X29596Y-27889D01*
X29461Y-27889D01*
X29336Y-27940D01*
X29241Y-28036D01*
X29189Y-28160D01*
X29189Y-28295D01*
X29240Y-28420D01*
X29336Y-28515D01*
X29460Y-28567D01*
X29595Y-28567D01*
X29720Y-28516D01*
X29815Y-28420D01*
X29867Y-28296D01*
X29867Y-29779D01*
X29775Y-29779D01*
X29650Y-29830D01*
X29555Y-29926D01*
X29503Y-30050D01*
X29503Y-30185D01*
X29554Y-30310D01*
X29650Y-30405D01*
X29774Y-30457D01*
X29909Y-30457D01*
X30034Y-30406D01*
X30129Y-30310D01*
X30181Y-30186D01*
X30181Y-53663D01*
X30027Y-53600D01*
X29815Y-53600D01*
X29748Y-53627D01*
X29748Y-32037D01*
X29748Y-31902D01*
X29697Y-31777D01*
X29601Y-31682D01*
X29477Y-31630D01*
X29433Y-31630D01*
X29433Y-29556D01*
X29433Y-29421D01*
X29382Y-29296D01*
X29286Y-29201D01*
X29162Y-29149D01*
X29079Y-29149D01*
X29079Y-28296D01*
X29079Y-28161D01*
X29028Y-28036D01*
X28932Y-27941D01*
X28808Y-27889D01*
X28673Y-27889D01*
X28548Y-27940D01*
X28453Y-28036D01*
X28401Y-28160D01*
X28401Y-28295D01*
X28452Y-28420D01*
X28548Y-28515D01*
X28672Y-28567D01*
X28807Y-28567D01*
X28932Y-28516D01*
X29027Y-28420D01*
X29079Y-28296D01*
X29079Y-29149D01*
X29027Y-29149D01*
X28902Y-29200D01*
X28807Y-29296D01*
X28755Y-29420D01*
X28755Y-29555D01*
X28806Y-29680D01*
X28902Y-29775D01*
X29026Y-29827D01*
X29161Y-29827D01*
X29286Y-29776D01*
X29381Y-29680D01*
X29433Y-29556D01*
X29433Y-31630D01*
X29342Y-31630D01*
X29217Y-31681D01*
X29122Y-31777D01*
X29070Y-31901D01*
X29070Y-32036D01*
X29121Y-32161D01*
X29217Y-32256D01*
X29341Y-32308D01*
X29476Y-32308D01*
X29601Y-32257D01*
X29696Y-32161D01*
X29748Y-32037D01*
X29748Y-53627D01*
X29619Y-53681D01*
X29468Y-53831D01*
X29387Y-54028D01*
X29387Y-54240D01*
X29468Y-54436D01*
X29618Y-54587D01*
X29815Y-54668D01*
X30027Y-54668D01*
X30223Y-54587D01*
X30374Y-54437D01*
X30413Y-54340D01*
X30453Y-54436D01*
X30603Y-54587D01*
X30800Y-54668D01*
X31012Y-54668D01*
X31208Y-54587D01*
X31359Y-54437D01*
X31440Y-54240D01*
X31440Y-57745D01*
X31322Y-57745D01*
X31322Y-57170D01*
X31322Y-57005D01*
X31322Y-56186D01*
X31322Y-56021D01*
X31259Y-55868D01*
X31142Y-55751D01*
X30989Y-55687D01*
X30824Y-55687D01*
X30671Y-55750D01*
X30554Y-55867D01*
X30490Y-56020D01*
X30490Y-56185D01*
X30553Y-56338D01*
X30670Y-56455D01*
X30823Y-56519D01*
X30988Y-56519D01*
X31141Y-56456D01*
X31258Y-56339D01*
X31322Y-56186D01*
X31322Y-57005D01*
X31259Y-56852D01*
X31142Y-56735D01*
X30989Y-56671D01*
X30824Y-56671D01*
X30671Y-56734D01*
X30554Y-56851D01*
X30490Y-57004D01*
X30490Y-57169D01*
X30553Y-57322D01*
X30670Y-57439D01*
X30823Y-57503D01*
X30988Y-57503D01*
X31141Y-57440D01*
X31258Y-57323D01*
X31322Y-57170D01*
X31322Y-57745D01*
X29353Y-57745D01*
X29353Y-54217D01*
X29353Y-54052D01*
X29290Y-53899D01*
X29173Y-53782D01*
X29020Y-53718D01*
X28855Y-53718D01*
X28702Y-53781D01*
X28685Y-53798D01*
X28685Y-29202D01*
X28685Y-29067D01*
X28634Y-28942D01*
X28538Y-28847D01*
X28414Y-28795D01*
X28279Y-28795D01*
X28154Y-28846D01*
X28059Y-28942D01*
X28007Y-29066D01*
X28007Y-29201D01*
X28058Y-29326D01*
X28154Y-29421D01*
X28278Y-29473D01*
X28413Y-29473D01*
X28538Y-29422D01*
X28633Y-29326D01*
X28685Y-29202D01*
X28685Y-53798D01*
X28585Y-53898D01*
X28521Y-54051D01*
X28521Y-54216D01*
X28584Y-54369D01*
X28701Y-54486D01*
X28854Y-54550D01*
X29019Y-54550D01*
X29172Y-54487D01*
X29289Y-54370D01*
X29353Y-54217D01*
X29353Y-57745D01*
X28487Y-57745D01*
X28487Y-54240D01*
X28487Y-54028D01*
X28449Y-53936D01*
X28449Y-30895D01*
X28449Y-30760D01*
X28398Y-30635D01*
X28302Y-30540D01*
X28178Y-30488D01*
X28043Y-30488D01*
X27918Y-30539D01*
X27823Y-30635D01*
X27771Y-30759D01*
X27771Y-30894D01*
X27822Y-31019D01*
X27918Y-31114D01*
X28042Y-31166D01*
X28177Y-31166D01*
X28302Y-31115D01*
X28397Y-31019D01*
X28449Y-30895D01*
X28449Y-53936D01*
X28406Y-53832D01*
X28256Y-53681D01*
X28059Y-53600D01*
X28056Y-53600D01*
X28056Y-40186D01*
X28056Y-40051D01*
X28005Y-39926D01*
X27909Y-39831D01*
X27785Y-39779D01*
X27741Y-39779D01*
X27741Y-30895D01*
X27741Y-30760D01*
X27690Y-30635D01*
X27622Y-30567D01*
X27622Y-25580D01*
X27622Y-25445D01*
X27571Y-25320D01*
X27475Y-25225D01*
X27351Y-25173D01*
X27216Y-25173D01*
X27091Y-25224D01*
X26996Y-25320D01*
X26944Y-25444D01*
X26944Y-25579D01*
X26995Y-25704D01*
X27091Y-25799D01*
X27215Y-25851D01*
X27350Y-25851D01*
X27475Y-25800D01*
X27570Y-25704D01*
X27622Y-25580D01*
X27622Y-30567D01*
X27594Y-30540D01*
X27470Y-30488D01*
X27335Y-30488D01*
X27210Y-30539D01*
X27115Y-30635D01*
X27063Y-30759D01*
X27063Y-30894D01*
X27114Y-31019D01*
X27210Y-31114D01*
X27334Y-31166D01*
X27469Y-31166D01*
X27594Y-31115D01*
X27689Y-31019D01*
X27741Y-30895D01*
X27741Y-39779D01*
X27662Y-39779D01*
X27662Y-39736D01*
X27611Y-39611D01*
X27515Y-39516D01*
X27391Y-39464D01*
X27256Y-39464D01*
X27149Y-39507D01*
X27149Y-32037D01*
X27149Y-31902D01*
X27098Y-31777D01*
X27002Y-31682D01*
X26878Y-31630D01*
X26743Y-31630D01*
X26618Y-31681D01*
X26523Y-31777D01*
X26471Y-31901D01*
X26471Y-32036D01*
X26522Y-32161D01*
X26618Y-32256D01*
X26742Y-32308D01*
X26877Y-32308D01*
X27002Y-32257D01*
X27097Y-32161D01*
X27149Y-32037D01*
X27149Y-39507D01*
X27131Y-39515D01*
X27036Y-39611D01*
X26984Y-39735D01*
X26984Y-39870D01*
X27035Y-39995D01*
X27131Y-40090D01*
X27255Y-40142D01*
X27378Y-40142D01*
X27378Y-40185D01*
X27429Y-40310D01*
X27525Y-40405D01*
X27649Y-40457D01*
X27784Y-40457D01*
X27909Y-40406D01*
X28004Y-40310D01*
X28056Y-40186D01*
X28056Y-53600D01*
X27847Y-53600D01*
X27651Y-53681D01*
X27500Y-53831D01*
X27460Y-53927D01*
X27421Y-53832D01*
X27347Y-53757D01*
X27347Y-46958D01*
X27347Y-46823D01*
X27347Y-46249D01*
X27347Y-46114D01*
X27347Y-45540D01*
X27347Y-45405D01*
X27347Y-44123D01*
X27347Y-43988D01*
X27347Y-43414D01*
X27347Y-43279D01*
X27347Y-41997D01*
X27347Y-41862D01*
X27347Y-40580D01*
X27347Y-40445D01*
X27296Y-40320D01*
X27200Y-40225D01*
X27076Y-40173D01*
X26941Y-40173D01*
X26816Y-40224D01*
X26721Y-40320D01*
X26669Y-40444D01*
X26669Y-40579D01*
X26720Y-40704D01*
X26816Y-40799D01*
X26940Y-40851D01*
X27075Y-40851D01*
X27200Y-40800D01*
X27295Y-40704D01*
X27347Y-40580D01*
X27347Y-41862D01*
X27296Y-41737D01*
X27200Y-41642D01*
X27076Y-41590D01*
X26941Y-41590D01*
X26816Y-41641D01*
X26721Y-41737D01*
X26669Y-41861D01*
X26669Y-41996D01*
X26720Y-42121D01*
X26816Y-42216D01*
X26940Y-42268D01*
X27075Y-42268D01*
X27200Y-42217D01*
X27295Y-42121D01*
X27347Y-41997D01*
X27347Y-43279D01*
X27296Y-43154D01*
X27200Y-43059D01*
X27076Y-43007D01*
X26941Y-43007D01*
X26816Y-43058D01*
X26721Y-43154D01*
X26669Y-43278D01*
X26669Y-43413D01*
X26720Y-43538D01*
X26816Y-43633D01*
X26940Y-43685D01*
X27075Y-43685D01*
X27200Y-43634D01*
X27295Y-43538D01*
X27347Y-43414D01*
X27347Y-43988D01*
X27296Y-43863D01*
X27200Y-43768D01*
X27076Y-43716D01*
X26941Y-43716D01*
X26816Y-43767D01*
X26721Y-43863D01*
X26669Y-43987D01*
X26669Y-44122D01*
X26720Y-44247D01*
X26816Y-44342D01*
X26940Y-44394D01*
X27075Y-44394D01*
X27200Y-44343D01*
X27295Y-44247D01*
X27347Y-44123D01*
X27347Y-45405D01*
X27296Y-45280D01*
X27200Y-45185D01*
X27076Y-45133D01*
X26941Y-45133D01*
X26816Y-45184D01*
X26721Y-45280D01*
X26669Y-45404D01*
X26669Y-45539D01*
X26720Y-45664D01*
X26816Y-45759D01*
X26940Y-45811D01*
X27075Y-45811D01*
X27200Y-45760D01*
X27295Y-45664D01*
X27347Y-45540D01*
X27347Y-46114D01*
X27296Y-45989D01*
X27200Y-45894D01*
X27076Y-45842D01*
X26941Y-45842D01*
X26816Y-45893D01*
X26721Y-45989D01*
X26669Y-46113D01*
X26669Y-46248D01*
X26720Y-46373D01*
X26816Y-46468D01*
X26940Y-46520D01*
X27075Y-46520D01*
X27200Y-46469D01*
X27295Y-46373D01*
X27347Y-46249D01*
X27347Y-46823D01*
X27296Y-46698D01*
X27200Y-46603D01*
X27076Y-46551D01*
X26941Y-46551D01*
X26816Y-46602D01*
X26721Y-46698D01*
X26669Y-46822D01*
X26669Y-46957D01*
X26720Y-47082D01*
X26816Y-47177D01*
X26940Y-47229D01*
X27075Y-47229D01*
X27200Y-47178D01*
X27295Y-47082D01*
X27347Y-46958D01*
X27347Y-53757D01*
X27271Y-53681D01*
X27074Y-53600D01*
X26862Y-53600D01*
X26756Y-53643D01*
X26756Y-48454D01*
X26756Y-48319D01*
X26705Y-48194D01*
X26609Y-48099D01*
X26485Y-48047D01*
X26350Y-48047D01*
X26225Y-48098D01*
X26130Y-48194D01*
X26078Y-48318D01*
X26078Y-48453D01*
X26129Y-48578D01*
X26225Y-48673D01*
X26349Y-48725D01*
X26484Y-48725D01*
X26609Y-48674D01*
X26704Y-48578D01*
X26756Y-48454D01*
X26756Y-53643D01*
X26666Y-53681D01*
X26515Y-53831D01*
X26434Y-54028D01*
X26434Y-54240D01*
X26515Y-54436D01*
X26665Y-54587D01*
X26862Y-54668D01*
X27074Y-54668D01*
X27270Y-54587D01*
X27421Y-54437D01*
X27460Y-54340D01*
X27500Y-54436D01*
X27650Y-54587D01*
X27847Y-54668D01*
X28059Y-54668D01*
X28255Y-54587D01*
X28406Y-54437D01*
X28487Y-54240D01*
X28487Y-57745D01*
X27384Y-57745D01*
X27384Y-57170D01*
X27384Y-57005D01*
X27384Y-56186D01*
X27384Y-56021D01*
X27321Y-55868D01*
X27204Y-55751D01*
X27051Y-55687D01*
X26886Y-55687D01*
X26805Y-55720D01*
X26805Y-55541D01*
X26645Y-55153D01*
X26348Y-54856D01*
X25961Y-54695D01*
X25541Y-54695D01*
X25475Y-54722D01*
X25475Y-51845D01*
X25475Y-51656D01*
X25475Y-50845D01*
X25475Y-50656D01*
X25475Y-49845D01*
X25475Y-49656D01*
X25475Y-48845D01*
X25475Y-48656D01*
X25475Y-47845D01*
X25475Y-47656D01*
X25475Y-46845D01*
X25475Y-46656D01*
X25475Y-45845D01*
X25475Y-45656D01*
X25475Y-44845D01*
X25475Y-44656D01*
X25475Y-43845D01*
X25475Y-43656D01*
X25475Y-42845D01*
X25475Y-42656D01*
X25475Y-41845D01*
X25475Y-41656D01*
X25475Y-40845D01*
X25475Y-40656D01*
X25475Y-39845D01*
X25475Y-39656D01*
X25475Y-38845D01*
X25475Y-38656D01*
X25475Y-37845D01*
X25475Y-37656D01*
X25475Y-36845D01*
X25475Y-36656D01*
X25475Y-35845D01*
X25475Y-35656D01*
X25475Y-34845D01*
X25475Y-34656D01*
X25475Y-33845D01*
X25475Y-33656D01*
X25475Y-32845D01*
X25475Y-32656D01*
X25403Y-32481D01*
X25269Y-32348D01*
X25095Y-32275D01*
X24906Y-32275D01*
X24731Y-32347D01*
X24598Y-32481D01*
X24525Y-32655D01*
X24525Y-32844D01*
X24597Y-33019D01*
X24731Y-33152D01*
X24905Y-33225D01*
X25094Y-33225D01*
X25269Y-33153D01*
X25402Y-33019D01*
X25475Y-32845D01*
X25475Y-33656D01*
X25403Y-33481D01*
X25269Y-33348D01*
X25095Y-33275D01*
X24906Y-33275D01*
X24731Y-33347D01*
X24598Y-33481D01*
X24525Y-33655D01*
X24525Y-33844D01*
X24597Y-34019D01*
X24731Y-34152D01*
X24905Y-34225D01*
X25094Y-34225D01*
X25269Y-34153D01*
X25402Y-34019D01*
X25475Y-33845D01*
X25475Y-34656D01*
X25403Y-34481D01*
X25269Y-34348D01*
X25095Y-34275D01*
X24906Y-34275D01*
X24731Y-34347D01*
X24598Y-34481D01*
X24525Y-34655D01*
X24525Y-34844D01*
X24597Y-35019D01*
X24731Y-35152D01*
X24905Y-35225D01*
X25094Y-35225D01*
X25269Y-35153D01*
X25402Y-35019D01*
X25475Y-34845D01*
X25475Y-35656D01*
X25403Y-35481D01*
X25269Y-35348D01*
X25095Y-35275D01*
X24906Y-35275D01*
X24731Y-35347D01*
X24598Y-35481D01*
X24525Y-35655D01*
X24525Y-35844D01*
X24597Y-36019D01*
X24731Y-36152D01*
X24905Y-36225D01*
X25094Y-36225D01*
X25269Y-36153D01*
X25402Y-36019D01*
X25475Y-35845D01*
X25475Y-36656D01*
X25403Y-36481D01*
X25269Y-36348D01*
X25095Y-36275D01*
X24906Y-36275D01*
X24731Y-36347D01*
X24598Y-36481D01*
X24525Y-36655D01*
X24525Y-36844D01*
X24597Y-37019D01*
X24731Y-37152D01*
X24905Y-37225D01*
X25094Y-37225D01*
X25269Y-37153D01*
X25402Y-37019D01*
X25475Y-36845D01*
X25475Y-37656D01*
X25403Y-37481D01*
X25269Y-37348D01*
X25095Y-37275D01*
X24906Y-37275D01*
X24731Y-37347D01*
X24598Y-37481D01*
X24525Y-37655D01*
X24525Y-37844D01*
X24597Y-38019D01*
X24731Y-38152D01*
X24905Y-38225D01*
X25094Y-38225D01*
X25269Y-38153D01*
X25402Y-38019D01*
X25475Y-37845D01*
X25475Y-38656D01*
X25403Y-38481D01*
X25269Y-38348D01*
X25095Y-38275D01*
X24906Y-38275D01*
X24731Y-38347D01*
X24598Y-38481D01*
X24525Y-38655D01*
X24525Y-38844D01*
X24597Y-39019D01*
X24731Y-39152D01*
X24905Y-39225D01*
X25094Y-39225D01*
X25269Y-39153D01*
X25402Y-39019D01*
X25475Y-38845D01*
X25475Y-39656D01*
X25403Y-39481D01*
X25269Y-39348D01*
X25095Y-39275D01*
X24906Y-39275D01*
X24731Y-39347D01*
X24598Y-39481D01*
X24525Y-39655D01*
X24525Y-39844D01*
X24597Y-40019D01*
X24731Y-40152D01*
X24905Y-40225D01*
X25094Y-40225D01*
X25269Y-40153D01*
X25402Y-40019D01*
X25475Y-39845D01*
X25475Y-40656D01*
X25403Y-40481D01*
X25269Y-40348D01*
X25095Y-40275D01*
X24906Y-40275D01*
X24731Y-40347D01*
X24598Y-40481D01*
X24525Y-40655D01*
X24525Y-40844D01*
X24597Y-41019D01*
X24731Y-41152D01*
X24905Y-41225D01*
X25094Y-41225D01*
X25269Y-41153D01*
X25402Y-41019D01*
X25475Y-40845D01*
X25475Y-41656D01*
X25403Y-41481D01*
X25269Y-41348D01*
X25095Y-41275D01*
X24906Y-41275D01*
X24731Y-41347D01*
X24598Y-41481D01*
X24525Y-41655D01*
X24525Y-41844D01*
X24597Y-42019D01*
X24731Y-42152D01*
X24905Y-42225D01*
X25094Y-42225D01*
X25269Y-42153D01*
X25402Y-42019D01*
X25475Y-41845D01*
X25475Y-42656D01*
X25403Y-42481D01*
X25269Y-42348D01*
X25095Y-42275D01*
X24906Y-42275D01*
X24731Y-42347D01*
X24598Y-42481D01*
X24525Y-42655D01*
X24525Y-42844D01*
X24597Y-43019D01*
X24731Y-43152D01*
X24905Y-43225D01*
X25094Y-43225D01*
X25269Y-43153D01*
X25402Y-43019D01*
X25475Y-42845D01*
X25475Y-43656D01*
X25403Y-43481D01*
X25269Y-43348D01*
X25095Y-43275D01*
X24906Y-43275D01*
X24731Y-43347D01*
X24598Y-43481D01*
X24525Y-43655D01*
X24525Y-43844D01*
X24597Y-44019D01*
X24731Y-44152D01*
X24905Y-44225D01*
X25094Y-44225D01*
X25269Y-44153D01*
X25402Y-44019D01*
X25475Y-43845D01*
X25475Y-44656D01*
X25403Y-44481D01*
X25269Y-44348D01*
X25095Y-44275D01*
X24906Y-44275D01*
X24731Y-44347D01*
X24598Y-44481D01*
X24525Y-44655D01*
X24525Y-44844D01*
X24597Y-45019D01*
X24731Y-45152D01*
X24905Y-45225D01*
X25094Y-45225D01*
X25269Y-45153D01*
X25402Y-45019D01*
X25475Y-44845D01*
X25475Y-45656D01*
X25403Y-45481D01*
X25269Y-45348D01*
X25095Y-45275D01*
X24906Y-45275D01*
X24731Y-45347D01*
X24598Y-45481D01*
X24525Y-45655D01*
X24525Y-45844D01*
X24597Y-46019D01*
X24731Y-46152D01*
X24905Y-46225D01*
X25094Y-46225D01*
X25269Y-46153D01*
X25402Y-46019D01*
X25475Y-45845D01*
X25475Y-46656D01*
X25403Y-46481D01*
X25269Y-46348D01*
X25095Y-46275D01*
X24906Y-46275D01*
X24731Y-46347D01*
X24598Y-46481D01*
X24525Y-46655D01*
X24525Y-46844D01*
X24597Y-47019D01*
X24731Y-47152D01*
X24905Y-47225D01*
X25094Y-47225D01*
X25269Y-47153D01*
X25402Y-47019D01*
X25475Y-46845D01*
X25475Y-47656D01*
X25403Y-47481D01*
X25269Y-47348D01*
X25095Y-47275D01*
X24906Y-47275D01*
X24731Y-47347D01*
X24598Y-47481D01*
X24525Y-47655D01*
X24525Y-47844D01*
X24597Y-48019D01*
X24731Y-48152D01*
X24905Y-48225D01*
X25094Y-48225D01*
X25269Y-48153D01*
X25402Y-48019D01*
X25475Y-47845D01*
X25475Y-48656D01*
X25403Y-48481D01*
X25269Y-48348D01*
X25095Y-48275D01*
X24906Y-48275D01*
X24731Y-48347D01*
X24598Y-48481D01*
X24525Y-48655D01*
X24525Y-48844D01*
X24597Y-49019D01*
X24731Y-49152D01*
X24905Y-49225D01*
X25094Y-49225D01*
X25269Y-49153D01*
X25402Y-49019D01*
X25475Y-48845D01*
X25475Y-49656D01*
X25403Y-49481D01*
X25269Y-49348D01*
X25095Y-49275D01*
X24906Y-49275D01*
X24731Y-49347D01*
X24598Y-49481D01*
X24525Y-49655D01*
X24525Y-49844D01*
X24597Y-50019D01*
X24731Y-50152D01*
X24905Y-50225D01*
X25094Y-50225D01*
X25269Y-50153D01*
X25402Y-50019D01*
X25475Y-49845D01*
X25475Y-50656D01*
X25403Y-50481D01*
X25269Y-50348D01*
X25095Y-50275D01*
X24906Y-50275D01*
X24731Y-50347D01*
X24598Y-50481D01*
X24525Y-50655D01*
X24525Y-50844D01*
X24597Y-51019D01*
X24731Y-51152D01*
X24905Y-51225D01*
X25094Y-51225D01*
X25269Y-51153D01*
X25402Y-51019D01*
X25475Y-50845D01*
X25475Y-51656D01*
X25403Y-51481D01*
X25269Y-51348D01*
X25095Y-51275D01*
X24906Y-51275D01*
X24731Y-51347D01*
X24598Y-51481D01*
X24525Y-51655D01*
X24525Y-51844D01*
X24597Y-52019D01*
X24731Y-52152D01*
X24905Y-52225D01*
X25094Y-52225D01*
X25269Y-52153D01*
X25402Y-52019D01*
X25475Y-51845D01*
X25475Y-54722D01*
X25153Y-54855D01*
X24856Y-55152D01*
X24695Y-55539D01*
X24695Y-55959D01*
X24855Y-56347D01*
X25152Y-56644D01*
X25539Y-56805D01*
X25959Y-56805D01*
X26347Y-56645D01*
X26634Y-56357D01*
X26732Y-56455D01*
X26885Y-56519D01*
X27050Y-56519D01*
X27203Y-56456D01*
X27320Y-56339D01*
X27384Y-56186D01*
X27384Y-57005D01*
X27321Y-56852D01*
X27204Y-56735D01*
X27051Y-56671D01*
X26886Y-56671D01*
X26733Y-56734D01*
X26616Y-56851D01*
X26552Y-57004D01*
X26552Y-57169D01*
X26615Y-57322D01*
X26732Y-57439D01*
X26885Y-57503D01*
X27050Y-57503D01*
X27203Y-57440D01*
X27320Y-57323D01*
X27384Y-57170D01*
X27384Y-57745D01*
X24475Y-57745D01*
X24475Y-51845D01*
X24475Y-51656D01*
X24475Y-50845D01*
X24475Y-50656D01*
X24475Y-49845D01*
X24475Y-49656D01*
X24475Y-48845D01*
X24475Y-48656D01*
X24475Y-47845D01*
X24475Y-47656D01*
X24475Y-46845D01*
X24475Y-46656D01*
X24475Y-45845D01*
X24475Y-45656D01*
X24475Y-44845D01*
X24475Y-44656D01*
X24475Y-43845D01*
X24475Y-43656D01*
X24475Y-42845D01*
X24475Y-42656D01*
X24475Y-41845D01*
X24475Y-41656D01*
X24475Y-40845D01*
X24475Y-40656D01*
X24475Y-39845D01*
X24475Y-39656D01*
X24475Y-38845D01*
X24475Y-38656D01*
X24475Y-37845D01*
X24475Y-37656D01*
X24475Y-36845D01*
X24475Y-36656D01*
X24475Y-35845D01*
X24475Y-35656D01*
X24475Y-34845D01*
X24475Y-34656D01*
X24475Y-33845D01*
X24475Y-33656D01*
X24475Y-32845D01*
X24475Y-32656D01*
X24403Y-32481D01*
X24269Y-32348D01*
X24095Y-32275D01*
X23906Y-32275D01*
X23731Y-32347D01*
X23598Y-32481D01*
X23525Y-32655D01*
X23525Y-32844D01*
X23597Y-33019D01*
X23731Y-33152D01*
X23905Y-33225D01*
X24094Y-33225D01*
X24269Y-33153D01*
X24402Y-33019D01*
X24475Y-32845D01*
X24475Y-33656D01*
X24403Y-33481D01*
X24269Y-33348D01*
X24095Y-33275D01*
X23906Y-33275D01*
X23731Y-33347D01*
X23598Y-33481D01*
X23525Y-33655D01*
X23525Y-33844D01*
X23597Y-34019D01*
X23731Y-34152D01*
X23905Y-34225D01*
X24094Y-34225D01*
X24269Y-34153D01*
X24402Y-34019D01*
X24475Y-33845D01*
X24475Y-34656D01*
X24403Y-34481D01*
X24269Y-34348D01*
X24095Y-34275D01*
X23906Y-34275D01*
X23731Y-34347D01*
X23598Y-34481D01*
X23525Y-34655D01*
X23525Y-34844D01*
X23597Y-35019D01*
X23731Y-35152D01*
X23905Y-35225D01*
X24094Y-35225D01*
X24269Y-35153D01*
X24402Y-35019D01*
X24475Y-34845D01*
X24475Y-35656D01*
X24403Y-35481D01*
X24269Y-35348D01*
X24095Y-35275D01*
X23906Y-35275D01*
X23731Y-35347D01*
X23598Y-35481D01*
X23525Y-35655D01*
X23525Y-35844D01*
X23597Y-36019D01*
X23731Y-36152D01*
X23905Y-36225D01*
X24094Y-36225D01*
X24269Y-36153D01*
X24402Y-36019D01*
X24475Y-35845D01*
X24475Y-36656D01*
X24403Y-36481D01*
X24269Y-36348D01*
X24095Y-36275D01*
X23906Y-36275D01*
X23731Y-36347D01*
X23598Y-36481D01*
X23525Y-36655D01*
X23525Y-36844D01*
X23597Y-37019D01*
X23731Y-37152D01*
X23905Y-37225D01*
X24094Y-37225D01*
X24269Y-37153D01*
X24402Y-37019D01*
X24475Y-36845D01*
X24475Y-37656D01*
X24403Y-37481D01*
X24269Y-37348D01*
X24095Y-37275D01*
X23906Y-37275D01*
X23731Y-37347D01*
X23598Y-37481D01*
X23525Y-37655D01*
X23525Y-37844D01*
X23597Y-38019D01*
X23731Y-38152D01*
X23905Y-38225D01*
X24094Y-38225D01*
X24269Y-38153D01*
X24402Y-38019D01*
X24475Y-37845D01*
X24475Y-38656D01*
X24403Y-38481D01*
X24269Y-38348D01*
X24095Y-38275D01*
X23906Y-38275D01*
X23731Y-38347D01*
X23598Y-38481D01*
X23525Y-38655D01*
X23525Y-38844D01*
X23597Y-39019D01*
X23731Y-39152D01*
X23905Y-39225D01*
X24094Y-39225D01*
X24269Y-39153D01*
X24402Y-39019D01*
X24475Y-38845D01*
X24475Y-39656D01*
X24403Y-39481D01*
X24269Y-39348D01*
X24095Y-39275D01*
X23906Y-39275D01*
X23731Y-39347D01*
X23598Y-39481D01*
X23525Y-39655D01*
X23525Y-39844D01*
X23597Y-40019D01*
X23731Y-40152D01*
X23905Y-40225D01*
X24094Y-40225D01*
X24269Y-40153D01*
X24402Y-40019D01*
X24475Y-39845D01*
X24475Y-40656D01*
X24403Y-40481D01*
X24269Y-40348D01*
X24095Y-40275D01*
X23906Y-40275D01*
X23731Y-40347D01*
X23598Y-40481D01*
X23525Y-40655D01*
X23525Y-40844D01*
X23597Y-41019D01*
X23731Y-41152D01*
X23905Y-41225D01*
X24094Y-41225D01*
X24269Y-41153D01*
X24402Y-41019D01*
X24475Y-40845D01*
X24475Y-41656D01*
X24403Y-41481D01*
X24269Y-41348D01*
X24095Y-41275D01*
X23906Y-41275D01*
X23731Y-41347D01*
X23598Y-41481D01*
X23525Y-41655D01*
X23525Y-41844D01*
X23597Y-42019D01*
X23731Y-42152D01*
X23905Y-42225D01*
X24094Y-42225D01*
X24269Y-42153D01*
X24402Y-42019D01*
X24475Y-41845D01*
X24475Y-42656D01*
X24403Y-42481D01*
X24269Y-42348D01*
X24095Y-42275D01*
X23906Y-42275D01*
X23731Y-42347D01*
X23598Y-42481D01*
X23525Y-42655D01*
X23525Y-42844D01*
X23597Y-43019D01*
X23731Y-43152D01*
X23905Y-43225D01*
X24094Y-43225D01*
X24269Y-43153D01*
X24402Y-43019D01*
X24475Y-42845D01*
X24475Y-43656D01*
X24403Y-43481D01*
X24269Y-43348D01*
X24095Y-43275D01*
X23906Y-43275D01*
X23731Y-43347D01*
X23598Y-43481D01*
X23525Y-43655D01*
X23525Y-43844D01*
X23597Y-44019D01*
X23731Y-44152D01*
X23905Y-44225D01*
X24094Y-44225D01*
X24269Y-44153D01*
X24402Y-44019D01*
X24475Y-43845D01*
X24475Y-44656D01*
X24403Y-44481D01*
X24269Y-44348D01*
X24095Y-44275D01*
X23906Y-44275D01*
X23731Y-44347D01*
X23598Y-44481D01*
X23525Y-44655D01*
X23525Y-44844D01*
X23597Y-45019D01*
X23731Y-45152D01*
X23905Y-45225D01*
X24094Y-45225D01*
X24269Y-45153D01*
X24402Y-45019D01*
X24475Y-44845D01*
X24475Y-45656D01*
X24403Y-45481D01*
X24269Y-45348D01*
X24095Y-45275D01*
X23906Y-45275D01*
X23731Y-45347D01*
X23598Y-45481D01*
X23525Y-45655D01*
X23525Y-45844D01*
X23597Y-46019D01*
X23731Y-46152D01*
X23905Y-46225D01*
X24094Y-46225D01*
X24269Y-46153D01*
X24402Y-46019D01*
X24475Y-45845D01*
X24475Y-46656D01*
X24403Y-46481D01*
X24269Y-46348D01*
X24095Y-46275D01*
X23906Y-46275D01*
X23731Y-46347D01*
X23598Y-46481D01*
X23525Y-46655D01*
X23525Y-46844D01*
X23597Y-47019D01*
X23731Y-47152D01*
X23905Y-47225D01*
X24094Y-47225D01*
X24269Y-47153D01*
X24402Y-47019D01*
X24475Y-46845D01*
X24475Y-47656D01*
X24403Y-47481D01*
X24269Y-47348D01*
X24095Y-47275D01*
X23906Y-47275D01*
X23731Y-47347D01*
X23598Y-47481D01*
X23525Y-47655D01*
X23525Y-47844D01*
X23597Y-48019D01*
X23731Y-48152D01*
X23905Y-48225D01*
X24094Y-48225D01*
X24269Y-48153D01*
X24402Y-48019D01*
X24475Y-47845D01*
X24475Y-48656D01*
X24403Y-48481D01*
X24269Y-48348D01*
X24095Y-48275D01*
X23906Y-48275D01*
X23731Y-48347D01*
X23598Y-48481D01*
X23525Y-48655D01*
X23525Y-48844D01*
X23597Y-49019D01*
X23731Y-49152D01*
X23905Y-49225D01*
X24094Y-49225D01*
X24269Y-49153D01*
X24402Y-49019D01*
X24475Y-48845D01*
X24475Y-49656D01*
X24403Y-49481D01*
X24269Y-49348D01*
X24095Y-49275D01*
X23906Y-49275D01*
X23731Y-49347D01*
X23598Y-49481D01*
X23525Y-49655D01*
X23525Y-49844D01*
X23597Y-50019D01*
X23731Y-50152D01*
X23905Y-50225D01*
X24094Y-50225D01*
X24269Y-50153D01*
X24402Y-50019D01*
X24475Y-49845D01*
X24475Y-50656D01*
X24403Y-50481D01*
X24269Y-50348D01*
X24095Y-50275D01*
X23906Y-50275D01*
X23731Y-50347D01*
X23598Y-50481D01*
X23525Y-50655D01*
X23525Y-50844D01*
X23597Y-51019D01*
X23731Y-51152D01*
X23905Y-51225D01*
X24094Y-51225D01*
X24269Y-51153D01*
X24402Y-51019D01*
X24475Y-50845D01*
X24475Y-51656D01*
X24403Y-51481D01*
X24269Y-51348D01*
X24095Y-51275D01*
X23906Y-51275D01*
X23731Y-51347D01*
X23598Y-51481D01*
X23525Y-51655D01*
X23525Y-51844D01*
X23597Y-52019D01*
X23731Y-52152D01*
X23905Y-52225D01*
X24094Y-52225D01*
X24269Y-52153D01*
X24402Y-52019D01*
X24475Y-51845D01*
X24475Y-57745D01*
X23505Y-57745D01*
X23505Y-30104D01*
X23605Y-30347D01*
X23902Y-30644D01*
X24289Y-30805D01*
X24709Y-30805D01*
X25097Y-30645D01*
X25394Y-30348D01*
X25555Y-29961D01*
X25555Y-29541D01*
X25395Y-29153D01*
X25098Y-28856D01*
X24711Y-28695D01*
X24291Y-28695D01*
X23903Y-28855D01*
X23606Y-29152D01*
X23505Y-29394D01*
X23505Y-26524D01*
X23680Y-25643D01*
X24167Y-24915D01*
X24891Y-24430D01*
X25778Y-24255D01*
X31245Y-24255D01*
X31245Y-32000D01*
X31264Y-32098D01*
X31320Y-32180D01*
X31402Y-32236D01*
X31500Y-32255D01*
X38500Y-32255D01*
X38598Y-32236D01*
X38680Y-32180D01*
X38736Y-32098D01*
X38755Y-32000D01*
X38755Y-26505D01*
X44495Y-26505D01*
X44495Y-29395D01*
X44395Y-29153D01*
X44098Y-28856D01*
X43711Y-28695D01*
X43291Y-28695D01*
X42903Y-28855D01*
X42606Y-29152D01*
X42445Y-29539D01*
X42445Y-29959D01*
X42605Y-30347D01*
X42902Y-30644D01*
X43289Y-30805D01*
X43709Y-30805D01*
X44097Y-30645D01*
X44394Y-30348D01*
X44495Y-30105D01*
X44495Y-57745D01*
X44495Y-57745D01*
G37*
G54D15*
X44495Y-57745D02*
X44475Y-57745D01*
X44475Y-53845D01*
X44475Y-53656D01*
X44475Y-52845D01*
X44475Y-52656D01*
X44475Y-51845D01*
X44475Y-51656D01*
X44475Y-50845D01*
X44475Y-50656D01*
X44475Y-49845D01*
X44475Y-49656D01*
X44475Y-48845D01*
X44475Y-48656D01*
X44475Y-47845D01*
X44475Y-47656D01*
X44475Y-46845D01*
X44475Y-46656D01*
X44475Y-45845D01*
X44475Y-45656D01*
X44475Y-44845D01*
X44475Y-44656D01*
X44475Y-43845D01*
X44475Y-43656D01*
X44475Y-42845D01*
X44475Y-42656D01*
X44475Y-41845D01*
X44475Y-41656D01*
X44475Y-40845D01*
X44475Y-40656D01*
X44475Y-39845D01*
X44475Y-39656D01*
X44475Y-38845D01*
X44475Y-38656D01*
X44475Y-37845D01*
X44475Y-37656D01*
X44475Y-36845D01*
X44475Y-36656D01*
X44475Y-35845D01*
X44475Y-35656D01*
X44475Y-34845D01*
X44475Y-34656D01*
X44475Y-33845D01*
X44475Y-33656D01*
X44475Y-32845D01*
X44475Y-32656D01*
X44403Y-32481D01*
X44269Y-32348D01*
X44095Y-32275D01*
X43906Y-32275D01*
X43731Y-32347D01*
X43598Y-32481D01*
X43525Y-32655D01*
X43525Y-32844D01*
X43597Y-33019D01*
X43731Y-33152D01*
X43905Y-33225D01*
X44094Y-33225D01*
X44269Y-33153D01*
X44402Y-33019D01*
X44475Y-32845D01*
X44475Y-33656D01*
X44403Y-33481D01*
X44269Y-33348D01*
X44095Y-33275D01*
X43906Y-33275D01*
X43731Y-33347D01*
X43598Y-33481D01*
X43525Y-33655D01*
X43525Y-33844D01*
X43597Y-34019D01*
X43731Y-34152D01*
X43905Y-34225D01*
X44094Y-34225D01*
X44269Y-34153D01*
X44402Y-34019D01*
X44475Y-33845D01*
X44475Y-34656D01*
X44403Y-34481D01*
X44269Y-34348D01*
X44095Y-34275D01*
X43906Y-34275D01*
X43731Y-34347D01*
X43598Y-34481D01*
X43525Y-34655D01*
X43525Y-34844D01*
X43597Y-35019D01*
X43731Y-35152D01*
X43905Y-35225D01*
X44094Y-35225D01*
X44269Y-35153D01*
X44402Y-35019D01*
X44475Y-34845D01*
X44475Y-35656D01*
X44403Y-35481D01*
X44269Y-35348D01*
X44095Y-35275D01*
X43906Y-35275D01*
X43731Y-35347D01*
X43598Y-35481D01*
X43525Y-35655D01*
X43525Y-35844D01*
X43597Y-36019D01*
X43731Y-36152D01*
X43905Y-36225D01*
X44094Y-36225D01*
X44269Y-36153D01*
X44402Y-36019D01*
X44475Y-35845D01*
X44475Y-36656D01*
X44403Y-36481D01*
X44269Y-36348D01*
X44095Y-36275D01*
X43906Y-36275D01*
X43731Y-36347D01*
X43598Y-36481D01*
X43525Y-36655D01*
X43525Y-36844D01*
X43597Y-37019D01*
X43731Y-37152D01*
X43905Y-37225D01*
X44094Y-37225D01*
X44269Y-37153D01*
X44402Y-37019D01*
X44475Y-36845D01*
X44475Y-37656D01*
X44403Y-37481D01*
X44269Y-37348D01*
X44095Y-37275D01*
X43906Y-37275D01*
X43731Y-37347D01*
X43598Y-37481D01*
X43525Y-37655D01*
X43525Y-37844D01*
X43597Y-38019D01*
X43731Y-38152D01*
X43905Y-38225D01*
X44094Y-38225D01*
X44269Y-38153D01*
X44402Y-38019D01*
X44475Y-37845D01*
X44475Y-38656D01*
X44403Y-38481D01*
X44269Y-38348D01*
X44095Y-38275D01*
X43906Y-38275D01*
X43731Y-38347D01*
X43598Y-38481D01*
X43525Y-38655D01*
X43525Y-38844D01*
X43597Y-39019D01*
X43731Y-39152D01*
X43905Y-39225D01*
X44094Y-39225D01*
X44269Y-39153D01*
X44402Y-39019D01*
X44475Y-38845D01*
X44475Y-39656D01*
X44403Y-39481D01*
X44269Y-39348D01*
X44095Y-39275D01*
X43906Y-39275D01*
X43731Y-39347D01*
X43598Y-39481D01*
X43525Y-39655D01*
X43525Y-39844D01*
X43597Y-40019D01*
X43731Y-40152D01*
X43905Y-40225D01*
X44094Y-40225D01*
X44269Y-40153D01*
X44402Y-40019D01*
X44475Y-39845D01*
X44475Y-40656D01*
X44403Y-40481D01*
X44269Y-40348D01*
X44095Y-40275D01*
X43906Y-40275D01*
X43731Y-40347D01*
X43598Y-40481D01*
X43525Y-40655D01*
X43525Y-40844D01*
X43597Y-41019D01*
X43731Y-41152D01*
X43905Y-41225D01*
X44094Y-41225D01*
X44269Y-41153D01*
X44402Y-41019D01*
X44475Y-40845D01*
X44475Y-41656D01*
X44403Y-41481D01*
X44269Y-41348D01*
X44095Y-41275D01*
X43906Y-41275D01*
X43731Y-41347D01*
X43598Y-41481D01*
X43525Y-41655D01*
X43525Y-41844D01*
X43597Y-42019D01*
X43731Y-42152D01*
X43905Y-42225D01*
X44094Y-42225D01*
X44269Y-42153D01*
X44402Y-42019D01*
X44475Y-41845D01*
X44475Y-42656D01*
X44403Y-42481D01*
X44269Y-42348D01*
X44095Y-42275D01*
X43906Y-42275D01*
X43731Y-42347D01*
X43598Y-42481D01*
X43525Y-42655D01*
X43525Y-42844D01*
X43597Y-43019D01*
X43731Y-43152D01*
X43905Y-43225D01*
X44094Y-43225D01*
X44269Y-43153D01*
X44402Y-43019D01*
X44475Y-42845D01*
X44475Y-43656D01*
X44403Y-43481D01*
X44269Y-43348D01*
X44095Y-43275D01*
X43906Y-43275D01*
X43731Y-43347D01*
X43598Y-43481D01*
X43525Y-43655D01*
X43525Y-43844D01*
X43597Y-44019D01*
X43731Y-44152D01*
X43905Y-44225D01*
X44094Y-44225D01*
X44269Y-44153D01*
X44402Y-44019D01*
X44475Y-43845D01*
X44475Y-44656D01*
X44403Y-44481D01*
X44269Y-44348D01*
X44095Y-44275D01*
X43906Y-44275D01*
X43731Y-44347D01*
X43598Y-44481D01*
X43525Y-44655D01*
X43525Y-44844D01*
X43597Y-45019D01*
X43731Y-45152D01*
X43905Y-45225D01*
X44094Y-45225D01*
X44269Y-45153D01*
X44402Y-45019D01*
X44475Y-44845D01*
X44475Y-45656D01*
X44403Y-45481D01*
X44269Y-45348D01*
X44095Y-45275D01*
X43906Y-45275D01*
X43731Y-45347D01*
X43598Y-45481D01*
X43525Y-45655D01*
X43525Y-45844D01*
X43597Y-46019D01*
X43731Y-46152D01*
X43905Y-46225D01*
X44094Y-46225D01*
X44269Y-46153D01*
X44402Y-46019D01*
X44475Y-45845D01*
X44475Y-46656D01*
X44403Y-46481D01*
X44269Y-46348D01*
X44095Y-46275D01*
X43906Y-46275D01*
X43731Y-46347D01*
X43598Y-46481D01*
X43525Y-46655D01*
X43525Y-46844D01*
X43597Y-47019D01*
X43731Y-47152D01*
X43905Y-47225D01*
X44094Y-47225D01*
X44269Y-47153D01*
X44402Y-47019D01*
X44475Y-46845D01*
X44475Y-47656D01*
X44403Y-47481D01*
X44269Y-47348D01*
X44095Y-47275D01*
X43906Y-47275D01*
X43731Y-47347D01*
X43598Y-47481D01*
X43525Y-47655D01*
X43525Y-47844D01*
X43597Y-48019D01*
X43731Y-48152D01*
X43905Y-48225D01*
X44094Y-48225D01*
X44269Y-48153D01*
X44402Y-48019D01*
X44475Y-47845D01*
X44475Y-48656D01*
X44403Y-48481D01*
X44269Y-48348D01*
X44095Y-48275D01*
X43906Y-48275D01*
X43731Y-48347D01*
X43598Y-48481D01*
X43525Y-48655D01*
X43525Y-48844D01*
X43597Y-49019D01*
X43731Y-49152D01*
X43905Y-49225D01*
X44094Y-49225D01*
X44269Y-49153D01*
X44402Y-49019D01*
X44475Y-48845D01*
X44475Y-49656D01*
X44403Y-49481D01*
X44269Y-49348D01*
X44095Y-49275D01*
X43906Y-49275D01*
X43731Y-49347D01*
X43598Y-49481D01*
X43525Y-49655D01*
X43525Y-49844D01*
X43597Y-50019D01*
X43731Y-50152D01*
X43905Y-50225D01*
X44094Y-50225D01*
X44269Y-50153D01*
X44402Y-50019D01*
X44475Y-49845D01*
X44475Y-50656D01*
X44403Y-50481D01*
X44269Y-50348D01*
X44095Y-50275D01*
X43906Y-50275D01*
X43731Y-50347D01*
X43598Y-50481D01*
X43525Y-50655D01*
X43525Y-50844D01*
X43597Y-51019D01*
X43731Y-51152D01*
X43905Y-51225D01*
X44094Y-51225D01*
X44269Y-51153D01*
X44402Y-51019D01*
X44475Y-50845D01*
X44475Y-51656D01*
X44403Y-51481D01*
X44269Y-51348D01*
X44095Y-51275D01*
X43906Y-51275D01*
X43731Y-51347D01*
X43598Y-51481D01*
X43525Y-51655D01*
X43525Y-51844D01*
X43597Y-52019D01*
X43731Y-52152D01*
X43905Y-52225D01*
X44094Y-52225D01*
X44269Y-52153D01*
X44402Y-52019D01*
X44475Y-51845D01*
X44475Y-52656D01*
X44403Y-52481D01*
X44269Y-52348D01*
X44095Y-52275D01*
X43906Y-52275D01*
X43731Y-52347D01*
X43598Y-52481D01*
X43525Y-52655D01*
X43525Y-52844D01*
X43597Y-53019D01*
X43731Y-53152D01*
X43905Y-53225D01*
X44094Y-53225D01*
X44269Y-53153D01*
X44402Y-53019D01*
X44475Y-52845D01*
X44475Y-53656D01*
X44403Y-53481D01*
X44269Y-53348D01*
X44095Y-53275D01*
X43906Y-53275D01*
X43731Y-53347D01*
X43598Y-53481D01*
X43525Y-53655D01*
X43525Y-53844D01*
X43597Y-54019D01*
X43731Y-54152D01*
X43905Y-54225D01*
X44094Y-54225D01*
X44269Y-54153D01*
X44402Y-54019D01*
X44475Y-53845D01*
X44475Y-57745D01*
X43475Y-57745D01*
X43475Y-53845D01*
X43475Y-53656D01*
X43475Y-52845D01*
X43475Y-52656D01*
X43475Y-51845D01*
X43475Y-51656D01*
X43475Y-50845D01*
X43475Y-50656D01*
X43475Y-49845D01*
X43475Y-49656D01*
X43475Y-48845D01*
X43475Y-48656D01*
X43475Y-47845D01*
X43475Y-47656D01*
X43475Y-46845D01*
X43475Y-46656D01*
X43475Y-45845D01*
X43475Y-45656D01*
X43475Y-44845D01*
X43475Y-44656D01*
X43475Y-43845D01*
X43475Y-43656D01*
X43475Y-42845D01*
X43475Y-42656D01*
X43475Y-41845D01*
X43475Y-41656D01*
X43475Y-40845D01*
X43475Y-40656D01*
X43475Y-39845D01*
X43475Y-39656D01*
X43475Y-38845D01*
X43475Y-38656D01*
X43475Y-37845D01*
X43475Y-37656D01*
X43475Y-36845D01*
X43475Y-36656D01*
X43475Y-35845D01*
X43475Y-35656D01*
X43475Y-34845D01*
X43475Y-34656D01*
X43475Y-33845D01*
X43475Y-33656D01*
X43475Y-32845D01*
X43475Y-32656D01*
X43403Y-32481D01*
X43269Y-32348D01*
X43095Y-32275D01*
X42906Y-32275D01*
X42731Y-32347D01*
X42598Y-32481D01*
X42525Y-32655D01*
X42525Y-32844D01*
X42597Y-33019D01*
X42731Y-33152D01*
X42905Y-33225D01*
X43094Y-33225D01*
X43269Y-33153D01*
X43402Y-33019D01*
X43475Y-32845D01*
X43475Y-33656D01*
X43403Y-33481D01*
X43269Y-33348D01*
X43095Y-33275D01*
X42906Y-33275D01*
X42731Y-33347D01*
X42598Y-33481D01*
X42525Y-33655D01*
X42525Y-33844D01*
X42597Y-34019D01*
X42731Y-34152D01*
X42905Y-34225D01*
X43094Y-34225D01*
X43269Y-34153D01*
X43402Y-34019D01*
X43475Y-33845D01*
X43475Y-34656D01*
X43403Y-34481D01*
X43269Y-34348D01*
X43095Y-34275D01*
X42906Y-34275D01*
X42731Y-34347D01*
X42598Y-34481D01*
X42525Y-34655D01*
X42525Y-34844D01*
X42597Y-35019D01*
X42731Y-35152D01*
X42905Y-35225D01*
X43094Y-35225D01*
X43269Y-35153D01*
X43402Y-35019D01*
X43475Y-34845D01*
X43475Y-35656D01*
X43403Y-35481D01*
X43269Y-35348D01*
X43095Y-35275D01*
X42906Y-35275D01*
X42731Y-35347D01*
X42598Y-35481D01*
X42525Y-35655D01*
X42525Y-35844D01*
X42597Y-36019D01*
X42731Y-36152D01*
X42905Y-36225D01*
X43094Y-36225D01*
X43269Y-36153D01*
X43402Y-36019D01*
X43475Y-35845D01*
X43475Y-36656D01*
X43403Y-36481D01*
X43269Y-36348D01*
X43095Y-36275D01*
X42906Y-36275D01*
X42731Y-36347D01*
X42598Y-36481D01*
X42525Y-36655D01*
X42525Y-36844D01*
X42597Y-37019D01*
X42731Y-37152D01*
X42905Y-37225D01*
X43094Y-37225D01*
X43269Y-37153D01*
X43402Y-37019D01*
X43475Y-36845D01*
X43475Y-37656D01*
X43403Y-37481D01*
X43269Y-37348D01*
X43095Y-37275D01*
X42906Y-37275D01*
X42731Y-37347D01*
X42598Y-37481D01*
X42525Y-37655D01*
X42525Y-37844D01*
X42597Y-38019D01*
X42731Y-38152D01*
X42905Y-38225D01*
X43094Y-38225D01*
X43269Y-38153D01*
X43402Y-38019D01*
X43475Y-37845D01*
X43475Y-38656D01*
X43403Y-38481D01*
X43269Y-38348D01*
X43095Y-38275D01*
X42906Y-38275D01*
X42731Y-38347D01*
X42598Y-38481D01*
X42525Y-38655D01*
X42525Y-38844D01*
X42597Y-39019D01*
X42731Y-39152D01*
X42905Y-39225D01*
X43094Y-39225D01*
X43269Y-39153D01*
X43402Y-39019D01*
X43475Y-38845D01*
X43475Y-39656D01*
X43403Y-39481D01*
X43269Y-39348D01*
X43095Y-39275D01*
X42906Y-39275D01*
X42731Y-39347D01*
X42598Y-39481D01*
X42525Y-39655D01*
X42525Y-39844D01*
X42597Y-40019D01*
X42731Y-40152D01*
X42905Y-40225D01*
X43094Y-40225D01*
X43269Y-40153D01*
X43402Y-40019D01*
X43475Y-39845D01*
X43475Y-40656D01*
X43403Y-40481D01*
X43269Y-40348D01*
X43095Y-40275D01*
X42906Y-40275D01*
X42731Y-40347D01*
X42598Y-40481D01*
X42525Y-40655D01*
X42525Y-40844D01*
X42597Y-41019D01*
X42731Y-41152D01*
X42905Y-41225D01*
X43094Y-41225D01*
X43269Y-41153D01*
X43402Y-41019D01*
X43475Y-40845D01*
X43475Y-41656D01*
X43403Y-41481D01*
X43269Y-41348D01*
X43095Y-41275D01*
X42906Y-41275D01*
X42731Y-41347D01*
X42598Y-41481D01*
X42525Y-41655D01*
X42525Y-41844D01*
X42597Y-42019D01*
X42731Y-42152D01*
X42905Y-42225D01*
X43094Y-42225D01*
X43269Y-42153D01*
X43402Y-42019D01*
X43475Y-41845D01*
X43475Y-42656D01*
X43403Y-42481D01*
X43269Y-42348D01*
X43095Y-42275D01*
X42906Y-42275D01*
X42731Y-42347D01*
X42598Y-42481D01*
X42525Y-42655D01*
X42525Y-42844D01*
X42597Y-43019D01*
X42731Y-43152D01*
X42905Y-43225D01*
X43094Y-43225D01*
X43269Y-43153D01*
X43402Y-43019D01*
X43475Y-42845D01*
X43475Y-43656D01*
X43403Y-43481D01*
X43269Y-43348D01*
X43095Y-43275D01*
X42906Y-43275D01*
X42731Y-43347D01*
X42598Y-43481D01*
X42525Y-43655D01*
X42525Y-43844D01*
X42597Y-44019D01*
X42731Y-44152D01*
X42905Y-44225D01*
X43094Y-44225D01*
X43269Y-44153D01*
X43402Y-44019D01*
X43475Y-43845D01*
X43475Y-44656D01*
X43403Y-44481D01*
X43269Y-44348D01*
X43095Y-44275D01*
X42906Y-44275D01*
X42731Y-44347D01*
X42598Y-44481D01*
X42525Y-44655D01*
X42525Y-44722D01*
X42436Y-44634D01*
X42312Y-44582D01*
X42177Y-44582D01*
X42052Y-44633D01*
X41957Y-44729D01*
X41905Y-44853D01*
X41905Y-44988D01*
X41956Y-45113D01*
X42052Y-45208D01*
X42176Y-45260D01*
X42311Y-45260D01*
X42436Y-45209D01*
X42531Y-45113D01*
X42583Y-44989D01*
X42583Y-44984D01*
X42597Y-45019D01*
X42731Y-45152D01*
X42905Y-45225D01*
X43094Y-45225D01*
X43269Y-45153D01*
X43402Y-45019D01*
X43475Y-44845D01*
X43475Y-45656D01*
X43403Y-45481D01*
X43269Y-45348D01*
X43095Y-45275D01*
X42906Y-45275D01*
X42731Y-45347D01*
X42598Y-45481D01*
X42525Y-45655D01*
X42525Y-45844D01*
X42597Y-46019D01*
X42731Y-46152D01*
X42905Y-46225D01*
X43094Y-46225D01*
X43269Y-46153D01*
X43402Y-46019D01*
X43475Y-45845D01*
X43475Y-46656D01*
X43403Y-46481D01*
X43269Y-46348D01*
X43095Y-46275D01*
X42906Y-46275D01*
X42731Y-46347D01*
X42598Y-46481D01*
X42525Y-46655D01*
X42525Y-46844D01*
X42597Y-47019D01*
X42731Y-47152D01*
X42905Y-47225D01*
X43094Y-47225D01*
X43269Y-47153D01*
X43402Y-47019D01*
X43475Y-46845D01*
X43475Y-47656D01*
X43403Y-47481D01*
X43269Y-47348D01*
X43095Y-47275D01*
X42906Y-47275D01*
X42731Y-47347D01*
X42598Y-47481D01*
X42525Y-47655D01*
X42525Y-47844D01*
X42597Y-48019D01*
X42731Y-48152D01*
X42905Y-48225D01*
X43094Y-48225D01*
X43269Y-48153D01*
X43402Y-48019D01*
X43475Y-47845D01*
X43475Y-48656D01*
X43403Y-48481D01*
X43269Y-48348D01*
X43095Y-48275D01*
X42906Y-48275D01*
X42731Y-48347D01*
X42598Y-48481D01*
X42525Y-48655D01*
X42525Y-48844D01*
X42597Y-49019D01*
X42731Y-49152D01*
X42905Y-49225D01*
X43094Y-49225D01*
X43269Y-49153D01*
X43402Y-49019D01*
X43475Y-48845D01*
X43475Y-49656D01*
X43403Y-49481D01*
X43269Y-49348D01*
X43095Y-49275D01*
X42906Y-49275D01*
X42731Y-49347D01*
X42598Y-49481D01*
X42525Y-49655D01*
X42525Y-49844D01*
X42597Y-50019D01*
X42731Y-50152D01*
X42905Y-50225D01*
X43094Y-50225D01*
X43269Y-50153D01*
X43402Y-50019D01*
X43475Y-49845D01*
X43475Y-50656D01*
X43403Y-50481D01*
X43269Y-50348D01*
X43095Y-50275D01*
X42906Y-50275D01*
X42731Y-50347D01*
X42598Y-50481D01*
X42525Y-50655D01*
X42525Y-50844D01*
X42597Y-51019D01*
X42731Y-51152D01*
X42905Y-51225D01*
X43094Y-51225D01*
X43269Y-51153D01*
X43402Y-51019D01*
X43475Y-50845D01*
X43475Y-51656D01*
X43403Y-51481D01*
X43269Y-51348D01*
X43095Y-51275D01*
X42906Y-51275D01*
X42731Y-51347D01*
X42598Y-51481D01*
X42525Y-51655D01*
X42525Y-51844D01*
X42597Y-52019D01*
X42731Y-52152D01*
X42905Y-52225D01*
X43094Y-52225D01*
X43269Y-52153D01*
X43402Y-52019D01*
X43475Y-51845D01*
X43475Y-52656D01*
X43403Y-52481D01*
X43269Y-52348D01*
X43095Y-52275D01*
X42906Y-52275D01*
X42731Y-52347D01*
X42598Y-52481D01*
X42525Y-52655D01*
X42525Y-52844D01*
X42597Y-53019D01*
X42731Y-53152D01*
X42905Y-53225D01*
X43094Y-53225D01*
X43269Y-53153D01*
X43402Y-53019D01*
X43475Y-52845D01*
X43475Y-53656D01*
X43403Y-53481D01*
X43269Y-53348D01*
X43095Y-53275D01*
X42906Y-53275D01*
X42731Y-53347D01*
X42598Y-53481D01*
X42525Y-53655D01*
X42525Y-53844D01*
X42597Y-54019D01*
X42731Y-54152D01*
X42905Y-54225D01*
X43094Y-54225D01*
X43269Y-54153D01*
X43402Y-54019D01*
X43475Y-53845D01*
X43475Y-57745D01*
X43305Y-57745D01*
X43305Y-55961D01*
X43305Y-55541D01*
X43145Y-55153D01*
X42848Y-54856D01*
X42461Y-54695D01*
X42189Y-54695D01*
X42189Y-46170D01*
X42189Y-46035D01*
X42138Y-45910D01*
X42042Y-45815D01*
X41918Y-45763D01*
X41783Y-45763D01*
X41658Y-45814D01*
X41563Y-45910D01*
X41511Y-46034D01*
X41511Y-46169D01*
X41562Y-46294D01*
X41658Y-46389D01*
X41782Y-46441D01*
X41917Y-46441D01*
X42042Y-46390D01*
X42137Y-46294D01*
X42189Y-46170D01*
X42189Y-54695D01*
X42041Y-54695D01*
X41675Y-54845D01*
X41675Y-54239D01*
X41675Y-54027D01*
X41594Y-53831D01*
X41444Y-53680D01*
X41247Y-53599D01*
X41035Y-53599D01*
X40839Y-53680D01*
X40688Y-53830D01*
X40648Y-53926D01*
X40615Y-53845D01*
X40615Y-42666D01*
X40615Y-42531D01*
X40564Y-42406D01*
X40468Y-42311D01*
X40344Y-42259D01*
X40209Y-42259D01*
X40084Y-42310D01*
X39989Y-42406D01*
X39937Y-42530D01*
X39937Y-42665D01*
X39988Y-42790D01*
X40084Y-42885D01*
X40208Y-42937D01*
X40343Y-42937D01*
X40468Y-42886D01*
X40563Y-42790D01*
X40615Y-42666D01*
X40615Y-53845D01*
X40609Y-53831D01*
X40459Y-53680D01*
X40262Y-53599D01*
X40050Y-53599D01*
X39854Y-53680D01*
X39703Y-53830D01*
X39622Y-54027D01*
X39622Y-54239D01*
X39703Y-54435D01*
X39853Y-54586D01*
X40050Y-54667D01*
X40262Y-54667D01*
X40458Y-54586D01*
X40609Y-54436D01*
X40648Y-54339D01*
X40688Y-54435D01*
X40838Y-54586D01*
X41035Y-54667D01*
X41247Y-54667D01*
X41443Y-54586D01*
X41594Y-54436D01*
X41675Y-54239D01*
X41675Y-54845D01*
X41653Y-54855D01*
X41356Y-55152D01*
X41195Y-55539D01*
X41195Y-55686D01*
X41059Y-55686D01*
X40906Y-55749D01*
X40789Y-55866D01*
X40725Y-56019D01*
X40725Y-56184D01*
X40788Y-56337D01*
X40905Y-56454D01*
X41058Y-56518D01*
X41223Y-56518D01*
X41376Y-56455D01*
X41419Y-56411D01*
X41652Y-56644D01*
X42039Y-56805D01*
X42459Y-56805D01*
X42847Y-56645D01*
X43144Y-56348D01*
X43305Y-55961D01*
X43305Y-57745D01*
X41557Y-57745D01*
X41557Y-57169D01*
X41557Y-57004D01*
X41494Y-56851D01*
X41377Y-56734D01*
X41224Y-56670D01*
X41059Y-56670D01*
X40906Y-56733D01*
X40789Y-56850D01*
X40725Y-57003D01*
X40725Y-57168D01*
X40788Y-57321D01*
X40905Y-57438D01*
X41058Y-57502D01*
X41223Y-57502D01*
X41376Y-57439D01*
X41493Y-57322D01*
X41557Y-57169D01*
X41557Y-57745D01*
X39588Y-57745D01*
X39588Y-54216D01*
X39588Y-54051D01*
X39525Y-53898D01*
X39408Y-53781D01*
X39394Y-53775D01*
X39394Y-46367D01*
X39394Y-46232D01*
X39343Y-46107D01*
X39247Y-46012D01*
X39197Y-45991D01*
X39197Y-41997D01*
X39197Y-41862D01*
X39146Y-41737D01*
X39050Y-41642D01*
X38926Y-41590D01*
X38791Y-41590D01*
X38666Y-41641D01*
X38571Y-41737D01*
X38519Y-41861D01*
X38519Y-41996D01*
X38570Y-42121D01*
X38666Y-42216D01*
X38790Y-42268D01*
X38925Y-42268D01*
X39050Y-42217D01*
X39145Y-42121D01*
X39197Y-41997D01*
X39197Y-45991D01*
X39123Y-45960D01*
X38988Y-45960D01*
X38863Y-46011D01*
X38768Y-46107D01*
X38716Y-46231D01*
X38716Y-46366D01*
X38767Y-46491D01*
X38863Y-46586D01*
X38987Y-46638D01*
X39122Y-46638D01*
X39247Y-46587D01*
X39342Y-46491D01*
X39394Y-46367D01*
X39394Y-53775D01*
X39255Y-53717D01*
X39090Y-53717D01*
X38937Y-53780D01*
X38820Y-53897D01*
X38756Y-54050D01*
X38756Y-54215D01*
X38819Y-54368D01*
X38936Y-54485D01*
X39089Y-54549D01*
X39254Y-54549D01*
X39407Y-54486D01*
X39524Y-54369D01*
X39588Y-54216D01*
X39588Y-57745D01*
X38722Y-57745D01*
X38722Y-54239D01*
X38722Y-54027D01*
X38641Y-53831D01*
X38491Y-53680D01*
X38294Y-53599D01*
X38082Y-53599D01*
X37886Y-53680D01*
X37735Y-53830D01*
X37695Y-53926D01*
X37656Y-53831D01*
X37506Y-53680D01*
X37309Y-53599D01*
X37097Y-53599D01*
X37071Y-53609D01*
X37071Y-43966D01*
X37071Y-43831D01*
X37020Y-43706D01*
X36924Y-43611D01*
X36800Y-43559D01*
X36665Y-43559D01*
X36540Y-43610D01*
X36445Y-43706D01*
X36393Y-43830D01*
X36393Y-43965D01*
X36444Y-44090D01*
X36540Y-44185D01*
X36664Y-44237D01*
X36799Y-44237D01*
X36924Y-44186D01*
X37019Y-44090D01*
X37071Y-43966D01*
X37071Y-53609D01*
X36901Y-53680D01*
X36750Y-53830D01*
X36669Y-54027D01*
X36669Y-54239D01*
X36750Y-54435D01*
X36900Y-54586D01*
X37097Y-54667D01*
X37309Y-54667D01*
X37505Y-54586D01*
X37656Y-54436D01*
X37695Y-54339D01*
X37735Y-54435D01*
X37885Y-54586D01*
X38082Y-54667D01*
X38294Y-54667D01*
X38490Y-54586D01*
X38641Y-54436D01*
X38722Y-54239D01*
X38722Y-57745D01*
X37619Y-57745D01*
X37619Y-57169D01*
X37619Y-57004D01*
X37619Y-56185D01*
X37619Y-56020D01*
X37556Y-55867D01*
X37439Y-55750D01*
X37286Y-55686D01*
X37121Y-55686D01*
X36968Y-55749D01*
X36851Y-55866D01*
X36787Y-56019D01*
X36787Y-56184D01*
X36850Y-56337D01*
X36967Y-56454D01*
X37120Y-56518D01*
X37285Y-56518D01*
X37438Y-56455D01*
X37555Y-56338D01*
X37619Y-56185D01*
X37619Y-57004D01*
X37556Y-56851D01*
X37439Y-56734D01*
X37286Y-56670D01*
X37121Y-56670D01*
X36968Y-56733D01*
X36851Y-56850D01*
X36787Y-57003D01*
X36787Y-57168D01*
X36850Y-57321D01*
X36967Y-57438D01*
X37120Y-57502D01*
X37285Y-57502D01*
X37438Y-57439D01*
X37555Y-57322D01*
X37619Y-57169D01*
X37619Y-57745D01*
X36558Y-57745D01*
X36558Y-54239D01*
X36558Y-54027D01*
X36477Y-53831D01*
X36327Y-53680D01*
X36130Y-53599D01*
X35918Y-53599D01*
X35890Y-53610D01*
X35890Y-42233D01*
X35890Y-42098D01*
X35890Y-40580D01*
X35890Y-40445D01*
X35839Y-40320D01*
X35743Y-40225D01*
X35619Y-40173D01*
X35484Y-40173D01*
X35359Y-40224D01*
X35264Y-40320D01*
X35212Y-40444D01*
X35212Y-40579D01*
X35263Y-40704D01*
X35359Y-40799D01*
X35483Y-40851D01*
X35618Y-40851D01*
X35743Y-40800D01*
X35838Y-40704D01*
X35890Y-40580D01*
X35890Y-42098D01*
X35839Y-41973D01*
X35743Y-41878D01*
X35619Y-41826D01*
X35484Y-41826D01*
X35359Y-41877D01*
X35264Y-41973D01*
X35212Y-42097D01*
X35212Y-42232D01*
X35263Y-42357D01*
X35359Y-42452D01*
X35483Y-42504D01*
X35618Y-42504D01*
X35743Y-42453D01*
X35838Y-42357D01*
X35890Y-42233D01*
X35890Y-53610D01*
X35733Y-53675D01*
X35733Y-44399D01*
X35733Y-44264D01*
X35733Y-43572D01*
X35733Y-43437D01*
X35682Y-43312D01*
X35586Y-43217D01*
X35574Y-43212D01*
X35602Y-43184D01*
X35654Y-43060D01*
X35654Y-42925D01*
X35603Y-42800D01*
X35507Y-42705D01*
X35383Y-42653D01*
X35248Y-42653D01*
X35123Y-42704D01*
X35028Y-42800D01*
X34976Y-42924D01*
X34976Y-43059D01*
X35027Y-43184D01*
X35123Y-43279D01*
X35134Y-43283D01*
X35107Y-43312D01*
X35055Y-43436D01*
X35055Y-43571D01*
X35106Y-43696D01*
X35202Y-43791D01*
X35326Y-43843D01*
X35461Y-43843D01*
X35586Y-43792D01*
X35681Y-43696D01*
X35733Y-43572D01*
X35733Y-44264D01*
X35682Y-44139D01*
X35586Y-44044D01*
X35462Y-43992D01*
X35327Y-43992D01*
X35202Y-44043D01*
X35107Y-44139D01*
X35055Y-44263D01*
X35055Y-44398D01*
X35106Y-44523D01*
X35202Y-44618D01*
X35326Y-44670D01*
X35461Y-44670D01*
X35586Y-44619D01*
X35681Y-44523D01*
X35733Y-44399D01*
X35733Y-53675D01*
X35722Y-53680D01*
X35571Y-53830D01*
X35531Y-53926D01*
X35492Y-53831D01*
X35342Y-53680D01*
X35145Y-53599D01*
X34933Y-53599D01*
X34737Y-53680D01*
X34586Y-53830D01*
X34505Y-54027D01*
X34505Y-54239D01*
X34586Y-54435D01*
X34736Y-54586D01*
X34933Y-54667D01*
X35145Y-54667D01*
X35341Y-54586D01*
X35492Y-54436D01*
X35531Y-54339D01*
X35571Y-54435D01*
X35721Y-54586D01*
X35918Y-54667D01*
X36130Y-54667D01*
X36326Y-54586D01*
X36477Y-54436D01*
X36558Y-54239D01*
X36558Y-57745D01*
X36440Y-57745D01*
X36440Y-57169D01*
X36440Y-57004D01*
X36440Y-56185D01*
X36440Y-56020D01*
X36377Y-55867D01*
X36260Y-55750D01*
X36107Y-55686D01*
X35942Y-55686D01*
X35789Y-55749D01*
X35672Y-55866D01*
X35608Y-56019D01*
X35608Y-56184D01*
X35671Y-56337D01*
X35788Y-56454D01*
X35941Y-56518D01*
X36106Y-56518D01*
X36259Y-56455D01*
X36376Y-56338D01*
X36440Y-56185D01*
X36440Y-57004D01*
X36377Y-56851D01*
X36260Y-56734D01*
X36107Y-56670D01*
X35942Y-56670D01*
X35789Y-56733D01*
X35672Y-56850D01*
X35608Y-57003D01*
X35608Y-57168D01*
X35671Y-57321D01*
X35788Y-57438D01*
X35941Y-57502D01*
X36106Y-57502D01*
X36259Y-57439D01*
X36376Y-57322D01*
X36440Y-57169D01*
X36440Y-57745D01*
X34471Y-57745D01*
X34471Y-54216D01*
X34471Y-54051D01*
X34408Y-53898D01*
X34291Y-53781D01*
X34237Y-53758D01*
X34237Y-46013D01*
X34237Y-45878D01*
X34237Y-43966D01*
X34237Y-43831D01*
X34186Y-43706D01*
X34121Y-43642D01*
X34185Y-43578D01*
X34237Y-43454D01*
X34237Y-43319D01*
X34237Y-42706D01*
X34237Y-42571D01*
X34186Y-42446D01*
X34090Y-42351D01*
X33966Y-42299D01*
X33831Y-42299D01*
X33706Y-42350D01*
X33611Y-42446D01*
X33559Y-42570D01*
X33559Y-42705D01*
X33610Y-42830D01*
X33706Y-42925D01*
X33830Y-42977D01*
X33965Y-42977D01*
X34090Y-42926D01*
X34185Y-42830D01*
X34237Y-42706D01*
X34237Y-43319D01*
X34186Y-43194D01*
X34090Y-43099D01*
X33966Y-43047D01*
X33831Y-43047D01*
X33706Y-43098D01*
X33611Y-43194D01*
X33559Y-43318D01*
X33559Y-43453D01*
X33610Y-43578D01*
X33674Y-43641D01*
X33611Y-43706D01*
X33559Y-43830D01*
X33559Y-43965D01*
X33610Y-44090D01*
X33637Y-44116D01*
X33627Y-44121D01*
X33532Y-44217D01*
X33480Y-44341D01*
X33480Y-44476D01*
X33531Y-44601D01*
X33627Y-44696D01*
X33751Y-44748D01*
X33886Y-44748D01*
X34011Y-44697D01*
X34106Y-44601D01*
X34158Y-44477D01*
X34158Y-44342D01*
X34107Y-44217D01*
X34079Y-44190D01*
X34090Y-44186D01*
X34185Y-44090D01*
X34237Y-43966D01*
X34237Y-45878D01*
X34186Y-45753D01*
X34090Y-45658D01*
X33966Y-45606D01*
X33831Y-45606D01*
X33706Y-45657D01*
X33611Y-45753D01*
X33559Y-45877D01*
X33559Y-46012D01*
X33602Y-46118D01*
X33594Y-46118D01*
X33469Y-46169D01*
X33449Y-46189D01*
X33449Y-40580D01*
X33449Y-40445D01*
X33398Y-40320D01*
X33302Y-40225D01*
X33178Y-40173D01*
X33043Y-40173D01*
X32918Y-40224D01*
X32823Y-40320D01*
X32771Y-40444D01*
X32771Y-40579D01*
X32822Y-40704D01*
X32918Y-40799D01*
X33042Y-40851D01*
X33177Y-40851D01*
X33302Y-40800D01*
X33397Y-40704D01*
X33449Y-40580D01*
X33449Y-46189D01*
X33374Y-46265D01*
X33322Y-46389D01*
X33322Y-46524D01*
X33373Y-46649D01*
X33469Y-46744D01*
X33593Y-46796D01*
X33728Y-46796D01*
X33853Y-46745D01*
X33948Y-46649D01*
X34000Y-46525D01*
X34000Y-46390D01*
X33956Y-46284D01*
X33965Y-46284D01*
X34090Y-46233D01*
X34185Y-46137D01*
X34237Y-46013D01*
X34237Y-53758D01*
X34138Y-53717D01*
X34000Y-53717D01*
X34000Y-48099D01*
X34000Y-47964D01*
X33949Y-47839D01*
X33853Y-47744D01*
X33729Y-47692D01*
X33594Y-47692D01*
X33469Y-47743D01*
X33374Y-47839D01*
X33322Y-47963D01*
X33322Y-48098D01*
X33373Y-48223D01*
X33469Y-48318D01*
X33593Y-48370D01*
X33728Y-48370D01*
X33853Y-48319D01*
X33948Y-48223D01*
X34000Y-48099D01*
X34000Y-53717D01*
X33973Y-53717D01*
X33820Y-53780D01*
X33703Y-53897D01*
X33639Y-54050D01*
X33639Y-54215D01*
X33702Y-54368D01*
X33819Y-54485D01*
X33972Y-54549D01*
X34137Y-54549D01*
X34290Y-54486D01*
X34407Y-54369D01*
X34471Y-54216D01*
X34471Y-57745D01*
X33605Y-57745D01*
X33605Y-54239D01*
X33605Y-54027D01*
X33524Y-53831D01*
X33374Y-53680D01*
X33177Y-53599D01*
X32977Y-53599D01*
X32977Y-44241D01*
X32977Y-44106D01*
X32926Y-43981D01*
X32861Y-43917D01*
X32925Y-43854D01*
X32977Y-43730D01*
X32977Y-43595D01*
X32926Y-43470D01*
X32861Y-43406D01*
X32925Y-43342D01*
X32977Y-43218D01*
X32977Y-43083D01*
X32926Y-42958D01*
X32880Y-42913D01*
X32925Y-42869D01*
X32977Y-42745D01*
X32977Y-42610D01*
X32977Y-41761D01*
X32977Y-41626D01*
X32926Y-41501D01*
X32830Y-41406D01*
X32706Y-41354D01*
X32571Y-41354D01*
X32446Y-41405D01*
X32351Y-41501D01*
X32299Y-41625D01*
X32299Y-41760D01*
X32350Y-41885D01*
X32446Y-41980D01*
X32570Y-42032D01*
X32705Y-42032D01*
X32830Y-41981D01*
X32925Y-41885D01*
X32977Y-41761D01*
X32977Y-42610D01*
X32926Y-42485D01*
X32830Y-42390D01*
X32706Y-42338D01*
X32571Y-42338D01*
X32446Y-42389D01*
X32351Y-42485D01*
X32299Y-42609D01*
X32299Y-42744D01*
X32350Y-42869D01*
X32395Y-42913D01*
X32351Y-42958D01*
X32299Y-43082D01*
X32299Y-43217D01*
X32350Y-43342D01*
X32414Y-43405D01*
X32351Y-43470D01*
X32299Y-43594D01*
X32299Y-43729D01*
X32350Y-43854D01*
X32414Y-43917D01*
X32351Y-43981D01*
X32299Y-44105D01*
X32299Y-44240D01*
X32350Y-44365D01*
X32446Y-44460D01*
X32570Y-44512D01*
X32705Y-44512D01*
X32830Y-44461D01*
X32925Y-44365D01*
X32977Y-44241D01*
X32977Y-53599D01*
X32965Y-53599D01*
X32769Y-53680D01*
X32618Y-53830D01*
X32578Y-53926D01*
X32539Y-53831D01*
X32426Y-53717D01*
X32426Y-47352D01*
X32426Y-47217D01*
X32426Y-46013D01*
X32426Y-45878D01*
X32375Y-45753D01*
X32279Y-45658D01*
X32155Y-45606D01*
X32020Y-45606D01*
X31895Y-45657D01*
X31800Y-45753D01*
X31748Y-45877D01*
X31748Y-46012D01*
X31799Y-46137D01*
X31895Y-46232D01*
X32019Y-46284D01*
X32154Y-46284D01*
X32279Y-46233D01*
X32374Y-46137D01*
X32426Y-46013D01*
X32426Y-47217D01*
X32375Y-47092D01*
X32279Y-46997D01*
X32155Y-46945D01*
X32020Y-46945D01*
X31895Y-46996D01*
X31800Y-47092D01*
X31748Y-47216D01*
X31748Y-47351D01*
X31799Y-47476D01*
X31895Y-47571D01*
X32019Y-47623D01*
X32154Y-47623D01*
X32279Y-47572D01*
X32374Y-47476D01*
X32426Y-47352D01*
X32426Y-53717D01*
X32389Y-53680D01*
X32192Y-53599D01*
X31980Y-53599D01*
X31784Y-53680D01*
X31633Y-53830D01*
X31552Y-54027D01*
X31552Y-54239D01*
X31633Y-54435D01*
X31783Y-54586D01*
X31980Y-54667D01*
X32192Y-54667D01*
X32388Y-54586D01*
X32539Y-54436D01*
X32578Y-54339D01*
X32618Y-54435D01*
X32768Y-54586D01*
X32965Y-54667D01*
X33177Y-54667D01*
X33373Y-54586D01*
X33524Y-54436D01*
X33605Y-54239D01*
X33605Y-57745D01*
X32502Y-57745D01*
X32502Y-57169D01*
X32502Y-57004D01*
X32502Y-56185D01*
X32502Y-56020D01*
X32439Y-55867D01*
X32322Y-55750D01*
X32169Y-55686D01*
X32004Y-55686D01*
X31851Y-55749D01*
X31734Y-55866D01*
X31670Y-56019D01*
X31670Y-56184D01*
X31733Y-56337D01*
X31850Y-56454D01*
X32003Y-56518D01*
X32168Y-56518D01*
X32321Y-56455D01*
X32438Y-56338D01*
X32502Y-56185D01*
X32502Y-57004D01*
X32439Y-56851D01*
X32322Y-56734D01*
X32169Y-56670D01*
X32004Y-56670D01*
X31851Y-56733D01*
X31734Y-56850D01*
X31670Y-57003D01*
X31670Y-57168D01*
X31733Y-57321D01*
X31850Y-57438D01*
X32003Y-57502D01*
X32168Y-57502D01*
X32321Y-57439D01*
X32438Y-57322D01*
X32502Y-57169D01*
X32502Y-57745D01*
X31440Y-57745D01*
X31440Y-54240D01*
X31440Y-54028D01*
X31359Y-53832D01*
X31209Y-53681D01*
X31012Y-53600D01*
X30800Y-53600D01*
X30604Y-53681D01*
X30453Y-53831D01*
X30413Y-53927D01*
X30374Y-53832D01*
X30224Y-53681D01*
X30220Y-53679D01*
X30220Y-25580D01*
X30220Y-25445D01*
X30169Y-25320D01*
X30073Y-25225D01*
X29949Y-25173D01*
X29814Y-25173D01*
X29689Y-25224D01*
X29594Y-25320D01*
X29542Y-25444D01*
X29542Y-25579D01*
X29593Y-25704D01*
X29689Y-25799D01*
X29813Y-25851D01*
X29948Y-25851D01*
X30073Y-25800D01*
X30168Y-25704D01*
X30220Y-25580D01*
X30220Y-53679D01*
X30181Y-53663D01*
X30181Y-30186D01*
X30181Y-30051D01*
X30130Y-29926D01*
X30034Y-29831D01*
X29910Y-29779D01*
X29867Y-29779D01*
X29867Y-28296D01*
X29867Y-28161D01*
X29816Y-28036D01*
X29720Y-27941D01*
X29596Y-27889D01*
X29461Y-27889D01*
X29336Y-27940D01*
X29241Y-28036D01*
X29189Y-28160D01*
X29189Y-28295D01*
X29240Y-28420D01*
X29336Y-28515D01*
X29460Y-28567D01*
X29595Y-28567D01*
X29720Y-28516D01*
X29815Y-28420D01*
X29867Y-28296D01*
X29867Y-29779D01*
X29775Y-29779D01*
X29650Y-29830D01*
X29555Y-29926D01*
X29503Y-30050D01*
X29503Y-30185D01*
X29554Y-30310D01*
X29650Y-30405D01*
X29774Y-30457D01*
X29909Y-30457D01*
X30034Y-30406D01*
X30129Y-30310D01*
X30181Y-30186D01*
X30181Y-53663D01*
X30027Y-53600D01*
X29815Y-53600D01*
X29748Y-53627D01*
X29748Y-32037D01*
X29748Y-31902D01*
X29697Y-31777D01*
X29601Y-31682D01*
X29477Y-31630D01*
X29433Y-31630D01*
X29433Y-29556D01*
X29433Y-29421D01*
X29382Y-29296D01*
X29286Y-29201D01*
X29162Y-29149D01*
X29079Y-29149D01*
X29079Y-28296D01*
X29079Y-28161D01*
X29028Y-28036D01*
X28932Y-27941D01*
X28808Y-27889D01*
X28673Y-27889D01*
X28548Y-27940D01*
X28453Y-28036D01*
X28401Y-28160D01*
X28401Y-28295D01*
X28452Y-28420D01*
X28548Y-28515D01*
X28672Y-28567D01*
X28807Y-28567D01*
X28932Y-28516D01*
X29027Y-28420D01*
X29079Y-28296D01*
X29079Y-29149D01*
X29027Y-29149D01*
X28902Y-29200D01*
X28807Y-29296D01*
X28755Y-29420D01*
X28755Y-29555D01*
X28806Y-29680D01*
X28902Y-29775D01*
X29026Y-29827D01*
X29161Y-29827D01*
X29286Y-29776D01*
X29381Y-29680D01*
X29433Y-29556D01*
X29433Y-31630D01*
X29342Y-31630D01*
X29217Y-31681D01*
X29122Y-31777D01*
X29070Y-31901D01*
X29070Y-32036D01*
X29121Y-32161D01*
X29217Y-32256D01*
X29341Y-32308D01*
X29476Y-32308D01*
X29601Y-32257D01*
X29696Y-32161D01*
X29748Y-32037D01*
X29748Y-53627D01*
X29619Y-53681D01*
X29468Y-53831D01*
X29387Y-54028D01*
X29387Y-54240D01*
X29468Y-54436D01*
X29618Y-54587D01*
X29815Y-54668D01*
X30027Y-54668D01*
X30223Y-54587D01*
X30374Y-54437D01*
X30413Y-54340D01*
X30453Y-54436D01*
X30603Y-54587D01*
X30800Y-54668D01*
X31012Y-54668D01*
X31208Y-54587D01*
X31359Y-54437D01*
X31440Y-54240D01*
X31440Y-57745D01*
X31322Y-57745D01*
X31322Y-57170D01*
X31322Y-57005D01*
X31322Y-56186D01*
X31322Y-56021D01*
X31259Y-55868D01*
X31142Y-55751D01*
X30989Y-55687D01*
X30824Y-55687D01*
X30671Y-55750D01*
X30554Y-55867D01*
X30490Y-56020D01*
X30490Y-56185D01*
X30553Y-56338D01*
X30670Y-56455D01*
X30823Y-56519D01*
X30988Y-56519D01*
X31141Y-56456D01*
X31258Y-56339D01*
X31322Y-56186D01*
X31322Y-57005D01*
X31259Y-56852D01*
X31142Y-56735D01*
X30989Y-56671D01*
X30824Y-56671D01*
X30671Y-56734D01*
X30554Y-56851D01*
X30490Y-57004D01*
X30490Y-57169D01*
X30553Y-57322D01*
X30670Y-57439D01*
X30823Y-57503D01*
X30988Y-57503D01*
X31141Y-57440D01*
X31258Y-57323D01*
X31322Y-57170D01*
X31322Y-57745D01*
X29353Y-57745D01*
X29353Y-54217D01*
X29353Y-54052D01*
X29290Y-53899D01*
X29173Y-53782D01*
X29020Y-53718D01*
X28855Y-53718D01*
X28702Y-53781D01*
X28685Y-53798D01*
X28685Y-29202D01*
X28685Y-29067D01*
X28634Y-28942D01*
X28538Y-28847D01*
X28414Y-28795D01*
X28279Y-28795D01*
X28154Y-28846D01*
X28059Y-28942D01*
X28007Y-29066D01*
X28007Y-29201D01*
X28058Y-29326D01*
X28154Y-29421D01*
X28278Y-29473D01*
X28413Y-29473D01*
X28538Y-29422D01*
X28633Y-29326D01*
X28685Y-29202D01*
X28685Y-53798D01*
X28585Y-53898D01*
X28521Y-54051D01*
X28521Y-54216D01*
X28584Y-54369D01*
X28701Y-54486D01*
X28854Y-54550D01*
X29019Y-54550D01*
X29172Y-54487D01*
X29289Y-54370D01*
X29353Y-54217D01*
X29353Y-57745D01*
X28487Y-57745D01*
X28487Y-54240D01*
X28487Y-54028D01*
X28449Y-53936D01*
X28449Y-30895D01*
X28449Y-30760D01*
X28398Y-30635D01*
X28302Y-30540D01*
X28178Y-30488D01*
X28043Y-30488D01*
X27918Y-30539D01*
X27823Y-30635D01*
X27771Y-30759D01*
X27771Y-30894D01*
X27822Y-31019D01*
X27918Y-31114D01*
X28042Y-31166D01*
X28177Y-31166D01*
X28302Y-31115D01*
X28397Y-31019D01*
X28449Y-30895D01*
X28449Y-53936D01*
X28406Y-53832D01*
X28256Y-53681D01*
X28059Y-53600D01*
X28056Y-53600D01*
X28056Y-40186D01*
X28056Y-40051D01*
X28005Y-39926D01*
X27909Y-39831D01*
X27785Y-39779D01*
X27741Y-39779D01*
X27741Y-30895D01*
X27741Y-30760D01*
X27690Y-30635D01*
X27622Y-30567D01*
X27622Y-25580D01*
X27622Y-25445D01*
X27571Y-25320D01*
X27475Y-25225D01*
X27351Y-25173D01*
X27216Y-25173D01*
X27091Y-25224D01*
X26996Y-25320D01*
X26944Y-25444D01*
X26944Y-25579D01*
X26995Y-25704D01*
X27091Y-25799D01*
X27215Y-25851D01*
X27350Y-25851D01*
X27475Y-25800D01*
X27570Y-25704D01*
X27622Y-25580D01*
X27622Y-30567D01*
X27594Y-30540D01*
X27470Y-30488D01*
X27335Y-30488D01*
X27210Y-30539D01*
X27115Y-30635D01*
X27063Y-30759D01*
X27063Y-30894D01*
X27114Y-31019D01*
X27210Y-31114D01*
X27334Y-31166D01*
X27469Y-31166D01*
X27594Y-31115D01*
X27689Y-31019D01*
X27741Y-30895D01*
X27741Y-39779D01*
X27662Y-39779D01*
X27662Y-39736D01*
X27611Y-39611D01*
X27515Y-39516D01*
X27391Y-39464D01*
X27256Y-39464D01*
X27149Y-39507D01*
X27149Y-32037D01*
X27149Y-31902D01*
X27098Y-31777D01*
X27002Y-31682D01*
X26878Y-31630D01*
X26743Y-31630D01*
X26618Y-31681D01*
X26523Y-31777D01*
X26471Y-31901D01*
X26471Y-32036D01*
X26522Y-32161D01*
X26618Y-32256D01*
X26742Y-32308D01*
X26877Y-32308D01*
X27002Y-32257D01*
X27097Y-32161D01*
X27149Y-32037D01*
X27149Y-39507D01*
X27131Y-39515D01*
X27036Y-39611D01*
X26984Y-39735D01*
X26984Y-39870D01*
X27035Y-39995D01*
X27131Y-40090D01*
X27255Y-40142D01*
X27378Y-40142D01*
X27378Y-40185D01*
X27429Y-40310D01*
X27525Y-40405D01*
X27649Y-40457D01*
X27784Y-40457D01*
X27909Y-40406D01*
X28004Y-40310D01*
X28056Y-40186D01*
X28056Y-53600D01*
X27847Y-53600D01*
X27651Y-53681D01*
X27500Y-53831D01*
X27460Y-53927D01*
X27421Y-53832D01*
X27347Y-53757D01*
X27347Y-46958D01*
X27347Y-46823D01*
X27347Y-46249D01*
X27347Y-46114D01*
X27347Y-45540D01*
X27347Y-45405D01*
X27347Y-44123D01*
X27347Y-43988D01*
X27347Y-43414D01*
X27347Y-43279D01*
X27347Y-41997D01*
X27347Y-41862D01*
X27347Y-40580D01*
X27347Y-40445D01*
X27296Y-40320D01*
X27200Y-40225D01*
X27076Y-40173D01*
X26941Y-40173D01*
X26816Y-40224D01*
X26721Y-40320D01*
X26669Y-40444D01*
X26669Y-40579D01*
X26720Y-40704D01*
X26816Y-40799D01*
X26940Y-40851D01*
X27075Y-40851D01*
X27200Y-40800D01*
X27295Y-40704D01*
X27347Y-40580D01*
X27347Y-41862D01*
X27296Y-41737D01*
X27200Y-41642D01*
X27076Y-41590D01*
X26941Y-41590D01*
X26816Y-41641D01*
X26721Y-41737D01*
X26669Y-41861D01*
X26669Y-41996D01*
X26720Y-42121D01*
X26816Y-42216D01*
X26940Y-42268D01*
X27075Y-42268D01*
X27200Y-42217D01*
X27295Y-42121D01*
X27347Y-41997D01*
X27347Y-43279D01*
X27296Y-43154D01*
X27200Y-43059D01*
X27076Y-43007D01*
X26941Y-43007D01*
X26816Y-43058D01*
X26721Y-43154D01*
X26669Y-43278D01*
X26669Y-43413D01*
X26720Y-43538D01*
X26816Y-43633D01*
X26940Y-43685D01*
X27075Y-43685D01*
X27200Y-43634D01*
X27295Y-43538D01*
X27347Y-43414D01*
X27347Y-43988D01*
X27296Y-43863D01*
X27200Y-43768D01*
X27076Y-43716D01*
X26941Y-43716D01*
X26816Y-43767D01*
X26721Y-43863D01*
X26669Y-43987D01*
X26669Y-44122D01*
X26720Y-44247D01*
X26816Y-44342D01*
X26940Y-44394D01*
X27075Y-44394D01*
X27200Y-44343D01*
X27295Y-44247D01*
X27347Y-44123D01*
X27347Y-45405D01*
X27296Y-45280D01*
X27200Y-45185D01*
X27076Y-45133D01*
X26941Y-45133D01*
X26816Y-45184D01*
X26721Y-45280D01*
X26669Y-45404D01*
X26669Y-45539D01*
X26720Y-45664D01*
X26816Y-45759D01*
X26940Y-45811D01*
X27075Y-45811D01*
X27200Y-45760D01*
X27295Y-45664D01*
X27347Y-45540D01*
X27347Y-46114D01*
X27296Y-45989D01*
X27200Y-45894D01*
X27076Y-45842D01*
X26941Y-45842D01*
X26816Y-45893D01*
X26721Y-45989D01*
X26669Y-46113D01*
X26669Y-46248D01*
X26720Y-46373D01*
X26816Y-46468D01*
X26940Y-46520D01*
X27075Y-46520D01*
X27200Y-46469D01*
X27295Y-46373D01*
X27347Y-46249D01*
X27347Y-46823D01*
X27296Y-46698D01*
X27200Y-46603D01*
X27076Y-46551D01*
X26941Y-46551D01*
X26816Y-46602D01*
X26721Y-46698D01*
X26669Y-46822D01*
X26669Y-46957D01*
X26720Y-47082D01*
X26816Y-47177D01*
X26940Y-47229D01*
X27075Y-47229D01*
X27200Y-47178D01*
X27295Y-47082D01*
X27347Y-46958D01*
X27347Y-53757D01*
X27271Y-53681D01*
X27074Y-53600D01*
X26862Y-53600D01*
X26756Y-53643D01*
X26756Y-48454D01*
X26756Y-48319D01*
X26705Y-48194D01*
X26609Y-48099D01*
X26485Y-48047D01*
X26350Y-48047D01*
X26225Y-48098D01*
X26130Y-48194D01*
X26078Y-48318D01*
X26078Y-48453D01*
X26129Y-48578D01*
X26225Y-48673D01*
X26349Y-48725D01*
X26484Y-48725D01*
X26609Y-48674D01*
X26704Y-48578D01*
X26756Y-48454D01*
X26756Y-53643D01*
X26666Y-53681D01*
X26515Y-53831D01*
X26434Y-54028D01*
X26434Y-54240D01*
X26515Y-54436D01*
X26665Y-54587D01*
X26862Y-54668D01*
X27074Y-54668D01*
X27270Y-54587D01*
X27421Y-54437D01*
X27460Y-54340D01*
X27500Y-54436D01*
X27650Y-54587D01*
X27847Y-54668D01*
X28059Y-54668D01*
X28255Y-54587D01*
X28406Y-54437D01*
X28487Y-54240D01*
X28487Y-57745D01*
X27384Y-57745D01*
X27384Y-57170D01*
X27384Y-57005D01*
X27384Y-56186D01*
X27384Y-56021D01*
X27321Y-55868D01*
X27204Y-55751D01*
X27051Y-55687D01*
X26886Y-55687D01*
X26805Y-55720D01*
X26805Y-55541D01*
X26645Y-55153D01*
X26348Y-54856D01*
X25961Y-54695D01*
X25541Y-54695D01*
X25475Y-54722D01*
X25475Y-51845D01*
X25475Y-51656D01*
X25475Y-50845D01*
X25475Y-50656D01*
X25475Y-49845D01*
X25475Y-49656D01*
X25475Y-48845D01*
X25475Y-48656D01*
X25475Y-47845D01*
X25475Y-47656D01*
X25475Y-46845D01*
X25475Y-46656D01*
X25475Y-45845D01*
X25475Y-45656D01*
X25475Y-44845D01*
X25475Y-44656D01*
X25475Y-43845D01*
X25475Y-43656D01*
X25475Y-42845D01*
X25475Y-42656D01*
X25475Y-41845D01*
X25475Y-41656D01*
X25475Y-40845D01*
X25475Y-40656D01*
X25475Y-39845D01*
X25475Y-39656D01*
X25475Y-38845D01*
X25475Y-38656D01*
X25475Y-37845D01*
X25475Y-37656D01*
X25475Y-36845D01*
X25475Y-36656D01*
X25475Y-35845D01*
X25475Y-35656D01*
X25475Y-34845D01*
X25475Y-34656D01*
X25475Y-33845D01*
X25475Y-33656D01*
X25475Y-32845D01*
X25475Y-32656D01*
X25403Y-32481D01*
X25269Y-32348D01*
X25095Y-32275D01*
X24906Y-32275D01*
X24731Y-32347D01*
X24598Y-32481D01*
X24525Y-32655D01*
X24525Y-32844D01*
X24597Y-33019D01*
X24731Y-33152D01*
X24905Y-33225D01*
X25094Y-33225D01*
X25269Y-33153D01*
X25402Y-33019D01*
X25475Y-32845D01*
X25475Y-33656D01*
X25403Y-33481D01*
X25269Y-33348D01*
X25095Y-33275D01*
X24906Y-33275D01*
X24731Y-33347D01*
X24598Y-33481D01*
X24525Y-33655D01*
X24525Y-33844D01*
X24597Y-34019D01*
X24731Y-34152D01*
X24905Y-34225D01*
X25094Y-34225D01*
X25269Y-34153D01*
X25402Y-34019D01*
X25475Y-33845D01*
X25475Y-34656D01*
X25403Y-34481D01*
X25269Y-34348D01*
X25095Y-34275D01*
X24906Y-34275D01*
X24731Y-34347D01*
X24598Y-34481D01*
X24525Y-34655D01*
X24525Y-34844D01*
X24597Y-35019D01*
X24731Y-35152D01*
X24905Y-35225D01*
X25094Y-35225D01*
X25269Y-35153D01*
X25402Y-35019D01*
X25475Y-34845D01*
X25475Y-35656D01*
X25403Y-35481D01*
X25269Y-35348D01*
X25095Y-35275D01*
X24906Y-35275D01*
X24731Y-35347D01*
X24598Y-35481D01*
X24525Y-35655D01*
X24525Y-35844D01*
X24597Y-36019D01*
X24731Y-36152D01*
X24905Y-36225D01*
X25094Y-36225D01*
X25269Y-36153D01*
X25402Y-36019D01*
X25475Y-35845D01*
X25475Y-36656D01*
X25403Y-36481D01*
X25269Y-36348D01*
X25095Y-36275D01*
X24906Y-36275D01*
X24731Y-36347D01*
X24598Y-36481D01*
X24525Y-36655D01*
X24525Y-36844D01*
X24597Y-37019D01*
X24731Y-37152D01*
X24905Y-37225D01*
X25094Y-37225D01*
X25269Y-37153D01*
X25402Y-37019D01*
X25475Y-36845D01*
X25475Y-37656D01*
X25403Y-37481D01*
X25269Y-37348D01*
X25095Y-37275D01*
X24906Y-37275D01*
X24731Y-37347D01*
X24598Y-37481D01*
X24525Y-37655D01*
X24525Y-37844D01*
X24597Y-38019D01*
X24731Y-38152D01*
X24905Y-38225D01*
X25094Y-38225D01*
X25269Y-38153D01*
X25402Y-38019D01*
X25475Y-37845D01*
X25475Y-38656D01*
X25403Y-38481D01*
X25269Y-38348D01*
X25095Y-38275D01*
X24906Y-38275D01*
X24731Y-38347D01*
X24598Y-38481D01*
X24525Y-38655D01*
X24525Y-38844D01*
X24597Y-39019D01*
X24731Y-39152D01*
X24905Y-39225D01*
X25094Y-39225D01*
X25269Y-39153D01*
X25402Y-39019D01*
X25475Y-38845D01*
X25475Y-39656D01*
X25403Y-39481D01*
X25269Y-39348D01*
X25095Y-39275D01*
X24906Y-39275D01*
X24731Y-39347D01*
X24598Y-39481D01*
X24525Y-39655D01*
X24525Y-39844D01*
X24597Y-40019D01*
X24731Y-40152D01*
X24905Y-40225D01*
X25094Y-40225D01*
X25269Y-40153D01*
X25402Y-40019D01*
X25475Y-39845D01*
X25475Y-40656D01*
X25403Y-40481D01*
X25269Y-40348D01*
X25095Y-40275D01*
X24906Y-40275D01*
X24731Y-40347D01*
X24598Y-40481D01*
X24525Y-40655D01*
X24525Y-40844D01*
X24597Y-41019D01*
X24731Y-41152D01*
X24905Y-41225D01*
X25094Y-41225D01*
X25269Y-41153D01*
X25402Y-41019D01*
X25475Y-40845D01*
X25475Y-41656D01*
X25403Y-41481D01*
X25269Y-41348D01*
X25095Y-41275D01*
X24906Y-41275D01*
X24731Y-41347D01*
X24598Y-41481D01*
X24525Y-41655D01*
X24525Y-41844D01*
X24597Y-42019D01*
X24731Y-42152D01*
X24905Y-42225D01*
X25094Y-42225D01*
X25269Y-42153D01*
X25402Y-42019D01*
X25475Y-41845D01*
X25475Y-42656D01*
X25403Y-42481D01*
X25269Y-42348D01*
X25095Y-42275D01*
X24906Y-42275D01*
X24731Y-42347D01*
X24598Y-42481D01*
X24525Y-42655D01*
X24525Y-42844D01*
X24597Y-43019D01*
X24731Y-43152D01*
X24905Y-43225D01*
X25094Y-43225D01*
X25269Y-43153D01*
X25402Y-43019D01*
X25475Y-42845D01*
X25475Y-43656D01*
X25403Y-43481D01*
X25269Y-43348D01*
X25095Y-43275D01*
X24906Y-43275D01*
X24731Y-43347D01*
X24598Y-43481D01*
X24525Y-43655D01*
X24525Y-43844D01*
X24597Y-44019D01*
X24731Y-44152D01*
X24905Y-44225D01*
X25094Y-44225D01*
X25269Y-44153D01*
X25402Y-44019D01*
X25475Y-43845D01*
X25475Y-44656D01*
X25403Y-44481D01*
X25269Y-44348D01*
X25095Y-44275D01*
X24906Y-44275D01*
X24731Y-44347D01*
X24598Y-44481D01*
X24525Y-44655D01*
X24525Y-44844D01*
X24597Y-45019D01*
X24731Y-45152D01*
X24905Y-45225D01*
X25094Y-45225D01*
X25269Y-45153D01*
X25402Y-45019D01*
X25475Y-44845D01*
X25475Y-45656D01*
X25403Y-45481D01*
X25269Y-45348D01*
X25095Y-45275D01*
X24906Y-45275D01*
X24731Y-45347D01*
X24598Y-45481D01*
X24525Y-45655D01*
X24525Y-45844D01*
X24597Y-46019D01*
X24731Y-46152D01*
X24905Y-46225D01*
X25094Y-46225D01*
X25269Y-46153D01*
X25402Y-46019D01*
X25475Y-45845D01*
X25475Y-46656D01*
X25403Y-46481D01*
X25269Y-46348D01*
X25095Y-46275D01*
X24906Y-46275D01*
X24731Y-46347D01*
X24598Y-46481D01*
X24525Y-46655D01*
X24525Y-46844D01*
X24597Y-47019D01*
X24731Y-47152D01*
X24905Y-47225D01*
X25094Y-47225D01*
X25269Y-47153D01*
X25402Y-47019D01*
X25475Y-46845D01*
X25475Y-47656D01*
X25403Y-47481D01*
X25269Y-47348D01*
X25095Y-47275D01*
X24906Y-47275D01*
X24731Y-47347D01*
X24598Y-47481D01*
X24525Y-47655D01*
X24525Y-47844D01*
X24597Y-48019D01*
X24731Y-48152D01*
X24905Y-48225D01*
X25094Y-48225D01*
X25269Y-48153D01*
X25402Y-48019D01*
X25475Y-47845D01*
X25475Y-48656D01*
X25403Y-48481D01*
X25269Y-48348D01*
X25095Y-48275D01*
X24906Y-48275D01*
X24731Y-48347D01*
X24598Y-48481D01*
X24525Y-48655D01*
X24525Y-48844D01*
X24597Y-49019D01*
X24731Y-49152D01*
X24905Y-49225D01*
X25094Y-49225D01*
X25269Y-49153D01*
X25402Y-49019D01*
X25475Y-48845D01*
X25475Y-49656D01*
X25403Y-49481D01*
X25269Y-49348D01*
X25095Y-49275D01*
X24906Y-49275D01*
X24731Y-49347D01*
X24598Y-49481D01*
X24525Y-49655D01*
X24525Y-49844D01*
X24597Y-50019D01*
X24731Y-50152D01*
X24905Y-50225D01*
X25094Y-50225D01*
X25269Y-50153D01*
X25402Y-50019D01*
X25475Y-49845D01*
X25475Y-50656D01*
X25403Y-50481D01*
X25269Y-50348D01*
X25095Y-50275D01*
X24906Y-50275D01*
X24731Y-50347D01*
X24598Y-50481D01*
X24525Y-50655D01*
X24525Y-50844D01*
X24597Y-51019D01*
X24731Y-51152D01*
X24905Y-51225D01*
X25094Y-51225D01*
X25269Y-51153D01*
X25402Y-51019D01*
X25475Y-50845D01*
X25475Y-51656D01*
X25403Y-51481D01*
X25269Y-51348D01*
X25095Y-51275D01*
X24906Y-51275D01*
X24731Y-51347D01*
X24598Y-51481D01*
X24525Y-51655D01*
X24525Y-51844D01*
X24597Y-52019D01*
X24731Y-52152D01*
X24905Y-52225D01*
X25094Y-52225D01*
X25269Y-52153D01*
X25402Y-52019D01*
X25475Y-51845D01*
X25475Y-54722D01*
X25153Y-54855D01*
X24856Y-55152D01*
X24695Y-55539D01*
X24695Y-55959D01*
X24855Y-56347D01*
X25152Y-56644D01*
X25539Y-56805D01*
X25959Y-56805D01*
X26347Y-56645D01*
X26634Y-56357D01*
X26732Y-56455D01*
X26885Y-56519D01*
X27050Y-56519D01*
X27203Y-56456D01*
X27320Y-56339D01*
X27384Y-56186D01*
X27384Y-57005D01*
X27321Y-56852D01*
X27204Y-56735D01*
X27051Y-56671D01*
X26886Y-56671D01*
X26733Y-56734D01*
X26616Y-56851D01*
X26552Y-57004D01*
X26552Y-57169D01*
X26615Y-57322D01*
X26732Y-57439D01*
X26885Y-57503D01*
X27050Y-57503D01*
X27203Y-57440D01*
X27320Y-57323D01*
X27384Y-57170D01*
X27384Y-57745D01*
X24475Y-57745D01*
X24475Y-51845D01*
X24475Y-51656D01*
X24475Y-50845D01*
X24475Y-50656D01*
X24475Y-49845D01*
X24475Y-49656D01*
X24475Y-48845D01*
X24475Y-48656D01*
X24475Y-47845D01*
X24475Y-47656D01*
X24475Y-46845D01*
X24475Y-46656D01*
X24475Y-45845D01*
X24475Y-45656D01*
X24475Y-44845D01*
X24475Y-44656D01*
X24475Y-43845D01*
X24475Y-43656D01*
X24475Y-42845D01*
X24475Y-42656D01*
X24475Y-41845D01*
X24475Y-41656D01*
X24475Y-40845D01*
X24475Y-40656D01*
X24475Y-39845D01*
X24475Y-39656D01*
X24475Y-38845D01*
X24475Y-38656D01*
X24475Y-37845D01*
X24475Y-37656D01*
X24475Y-36845D01*
X24475Y-36656D01*
X24475Y-35845D01*
X24475Y-35656D01*
X24475Y-34845D01*
X24475Y-34656D01*
X24475Y-33845D01*
X24475Y-33656D01*
X24475Y-32845D01*
X24475Y-32656D01*
X24403Y-32481D01*
X24269Y-32348D01*
X24095Y-32275D01*
X23906Y-32275D01*
X23731Y-32347D01*
X23598Y-32481D01*
X23525Y-32655D01*
X23525Y-32844D01*
X23597Y-33019D01*
X23731Y-33152D01*
X23905Y-33225D01*
X24094Y-33225D01*
X24269Y-33153D01*
X24402Y-33019D01*
X24475Y-32845D01*
X24475Y-33656D01*
X24403Y-33481D01*
X24269Y-33348D01*
X24095Y-33275D01*
X23906Y-33275D01*
X23731Y-33347D01*
X23598Y-33481D01*
X23525Y-33655D01*
X23525Y-33844D01*
X23597Y-34019D01*
X23731Y-34152D01*
X23905Y-34225D01*
X24094Y-34225D01*
X24269Y-34153D01*
X24402Y-34019D01*
X24475Y-33845D01*
X24475Y-34656D01*
X24403Y-34481D01*
X24269Y-34348D01*
X24095Y-34275D01*
X23906Y-34275D01*
X23731Y-34347D01*
X23598Y-34481D01*
X23525Y-34655D01*
X23525Y-34844D01*
X23597Y-35019D01*
X23731Y-35152D01*
X23905Y-35225D01*
X24094Y-35225D01*
X24269Y-35153D01*
X24402Y-35019D01*
X24475Y-34845D01*
X24475Y-35656D01*
X24403Y-35481D01*
X24269Y-35348D01*
X24095Y-35275D01*
X23906Y-35275D01*
X23731Y-35347D01*
X23598Y-35481D01*
X23525Y-35655D01*
X23525Y-35844D01*
X23597Y-36019D01*
X23731Y-36152D01*
X23905Y-36225D01*
X24094Y-36225D01*
X24269Y-36153D01*
X24402Y-36019D01*
X24475Y-35845D01*
X24475Y-36656D01*
X24403Y-36481D01*
X24269Y-36348D01*
X24095Y-36275D01*
X23906Y-36275D01*
X23731Y-36347D01*
X23598Y-36481D01*
X23525Y-36655D01*
X23525Y-36844D01*
X23597Y-37019D01*
X23731Y-37152D01*
X23905Y-37225D01*
X24094Y-37225D01*
X24269Y-37153D01*
X24402Y-37019D01*
X24475Y-36845D01*
X24475Y-37656D01*
X24403Y-37481D01*
X24269Y-37348D01*
X24095Y-37275D01*
X23906Y-37275D01*
X23731Y-37347D01*
X23598Y-37481D01*
X23525Y-37655D01*
X23525Y-37844D01*
X23597Y-38019D01*
X23731Y-38152D01*
X23905Y-38225D01*
X24094Y-38225D01*
X24269Y-38153D01*
X24402Y-38019D01*
X24475Y-37845D01*
X24475Y-38656D01*
X24403Y-38481D01*
X24269Y-38348D01*
X24095Y-38275D01*
X23906Y-38275D01*
X23731Y-38347D01*
X23598Y-38481D01*
X23525Y-38655D01*
X23525Y-38844D01*
X23597Y-39019D01*
X23731Y-39152D01*
X23905Y-39225D01*
X24094Y-39225D01*
X24269Y-39153D01*
X24402Y-39019D01*
X24475Y-38845D01*
X24475Y-39656D01*
X24403Y-39481D01*
X24269Y-39348D01*
X24095Y-39275D01*
X23906Y-39275D01*
X23731Y-39347D01*
X23598Y-39481D01*
X23525Y-39655D01*
X23525Y-39844D01*
X23597Y-40019D01*
X23731Y-40152D01*
X23905Y-40225D01*
X24094Y-40225D01*
X24269Y-40153D01*
X24402Y-40019D01*
X24475Y-39845D01*
X24475Y-40656D01*
X24403Y-40481D01*
X24269Y-40348D01*
X24095Y-40275D01*
X23906Y-40275D01*
X23731Y-40347D01*
X23598Y-40481D01*
X23525Y-40655D01*
X23525Y-40844D01*
X23597Y-41019D01*
X23731Y-41152D01*
X23905Y-41225D01*
X24094Y-41225D01*
X24269Y-41153D01*
X24402Y-41019D01*
X24475Y-40845D01*
X24475Y-41656D01*
X24403Y-41481D01*
X24269Y-41348D01*
X24095Y-41275D01*
X23906Y-41275D01*
X23731Y-41347D01*
X23598Y-41481D01*
X23525Y-41655D01*
X23525Y-41844D01*
X23597Y-42019D01*
X23731Y-42152D01*
X23905Y-42225D01*
X24094Y-42225D01*
X24269Y-42153D01*
X24402Y-42019D01*
X24475Y-41845D01*
X24475Y-42656D01*
X24403Y-42481D01*
X24269Y-42348D01*
X24095Y-42275D01*
X23906Y-42275D01*
X23731Y-42347D01*
X23598Y-42481D01*
X23525Y-42655D01*
X23525Y-42844D01*
X23597Y-43019D01*
X23731Y-43152D01*
X23905Y-43225D01*
X24094Y-43225D01*
X24269Y-43153D01*
X24402Y-43019D01*
X24475Y-42845D01*
X24475Y-43656D01*
X24403Y-43481D01*
X24269Y-43348D01*
X24095Y-43275D01*
X23906Y-43275D01*
X23731Y-43347D01*
X23598Y-43481D01*
X23525Y-43655D01*
X23525Y-43844D01*
X23597Y-44019D01*
X23731Y-44152D01*
X23905Y-44225D01*
X24094Y-44225D01*
X24269Y-44153D01*
X24402Y-44019D01*
X24475Y-43845D01*
X24475Y-44656D01*
X24403Y-44481D01*
X24269Y-44348D01*
X24095Y-44275D01*
X23906Y-44275D01*
X23731Y-44347D01*
X23598Y-44481D01*
X23525Y-44655D01*
X23525Y-44844D01*
X23597Y-45019D01*
X23731Y-45152D01*
X23905Y-45225D01*
X24094Y-45225D01*
X24269Y-45153D01*
X24402Y-45019D01*
X24475Y-44845D01*
X24475Y-45656D01*
X24403Y-45481D01*
X24269Y-45348D01*
X24095Y-45275D01*
X23906Y-45275D01*
X23731Y-45347D01*
X23598Y-45481D01*
X23525Y-45655D01*
X23525Y-45844D01*
X23597Y-46019D01*
X23731Y-46152D01*
X23905Y-46225D01*
X24094Y-46225D01*
X24269Y-46153D01*
X24402Y-46019D01*
X24475Y-45845D01*
X24475Y-46656D01*
X24403Y-46481D01*
X24269Y-46348D01*
X24095Y-46275D01*
X23906Y-46275D01*
X23731Y-46347D01*
X23598Y-46481D01*
X23525Y-46655D01*
X23525Y-46844D01*
X23597Y-47019D01*
X23731Y-47152D01*
X23905Y-47225D01*
X24094Y-47225D01*
X24269Y-47153D01*
X24402Y-47019D01*
X24475Y-46845D01*
X24475Y-47656D01*
X24403Y-47481D01*
X24269Y-47348D01*
X24095Y-47275D01*
X23906Y-47275D01*
X23731Y-47347D01*
X23598Y-47481D01*
X23525Y-47655D01*
X23525Y-47844D01*
X23597Y-48019D01*
X23731Y-48152D01*
X23905Y-48225D01*
X24094Y-48225D01*
X24269Y-48153D01*
X24402Y-48019D01*
X24475Y-47845D01*
X24475Y-48656D01*
X24403Y-48481D01*
X24269Y-48348D01*
X24095Y-48275D01*
X23906Y-48275D01*
X23731Y-48347D01*
X23598Y-48481D01*
X23525Y-48655D01*
X23525Y-48844D01*
X23597Y-49019D01*
X23731Y-49152D01*
X23905Y-49225D01*
X24094Y-49225D01*
X24269Y-49153D01*
X24402Y-49019D01*
X24475Y-48845D01*
X24475Y-49656D01*
X24403Y-49481D01*
X24269Y-49348D01*
X24095Y-49275D01*
X23906Y-49275D01*
X23731Y-49347D01*
X23598Y-49481D01*
X23525Y-49655D01*
X23525Y-49844D01*
X23597Y-50019D01*
X23731Y-50152D01*
X23905Y-50225D01*
X24094Y-50225D01*
X24269Y-50153D01*
X24402Y-50019D01*
X24475Y-49845D01*
X24475Y-50656D01*
X24403Y-50481D01*
X24269Y-50348D01*
X24095Y-50275D01*
X23906Y-50275D01*
X23731Y-50347D01*
X23598Y-50481D01*
X23525Y-50655D01*
X23525Y-50844D01*
X23597Y-51019D01*
X23731Y-51152D01*
X23905Y-51225D01*
X24094Y-51225D01*
X24269Y-51153D01*
X24402Y-51019D01*
X24475Y-50845D01*
X24475Y-51656D01*
X24403Y-51481D01*
X24269Y-51348D01*
X24095Y-51275D01*
X23906Y-51275D01*
X23731Y-51347D01*
X23598Y-51481D01*
X23525Y-51655D01*
X23525Y-51844D01*
X23597Y-52019D01*
X23731Y-52152D01*
X23905Y-52225D01*
X24094Y-52225D01*
X24269Y-52153D01*
X24402Y-52019D01*
X24475Y-51845D01*
X24475Y-57745D01*
X23505Y-57745D01*
X23505Y-30104D01*
X23605Y-30347D01*
X23902Y-30644D01*
X24289Y-30805D01*
X24709Y-30805D01*
X25097Y-30645D01*
X25394Y-30348D01*
X25555Y-29961D01*
X25555Y-29541D01*
X25395Y-29153D01*
X25098Y-28856D01*
X24711Y-28695D01*
X24291Y-28695D01*
X23903Y-28855D01*
X23606Y-29152D01*
X23505Y-29394D01*
X23505Y-26524D01*
X23680Y-25643D01*
X24167Y-24915D01*
X24891Y-24430D01*
X25778Y-24255D01*
X31245Y-24255D01*
X31245Y-32000D01*
X31264Y-32098D01*
X31320Y-32180D01*
X31402Y-32236D01*
X31500Y-32255D01*
X38500Y-32255D01*
X38598Y-32236D01*
X38680Y-32180D01*
X38736Y-32098D01*
X38755Y-32000D01*
X38755Y-26505D01*
X44495Y-26505D01*
X44495Y-29395D01*
X44395Y-29153D01*
X44098Y-28856D01*
X43711Y-28695D01*
X43291Y-28695D01*
X42903Y-28855D01*
X42606Y-29152D01*
X42445Y-29539D01*
X42445Y-29959D01*
X42605Y-30347D01*
X42902Y-30644D01*
X43289Y-30805D01*
X43709Y-30805D01*
X44097Y-30645D01*
X44394Y-30348D01*
X44495Y-30105D01*
X44495Y-57745D01*
M02*
