M48
;DRILL file {Pcbnew (2012-05-21 BZR 3261)-stable} date Thu 30 May 2013 05:43:34 PM PDT
;FORMAT={-:-/ absolute / inch / decimal}
FMAT,2
INCH,TZ
T1C0.016
T2C0.040
T3C0.047
T4C0.125
%
G90
G05
M72
T1
X2.642Y-4.839
X2.681Y-3.197
X2.701Y-4.051
X2.701Y-4.193
X2.701Y-4.335
X2.701Y-4.405
X2.701Y-4.547
X2.701Y-4.618
X2.701Y-4.689
X2.728Y-2.551
X2.732Y-3.980
X2.740Y-3.083
X2.760Y-2.799
X2.772Y-4.012
X2.811Y-3.083
X2.815Y-5.256
X2.835Y-2.913
X2.874Y-2.823
X2.909Y-2.949
X2.941Y-3.197
X2.953Y-2.823
X2.972Y-5.256
X2.984Y-2.949
X2.984Y-3.012
X2.988Y-2.551
X3.209Y-4.547
X3.209Y-4.595
X3.209Y-4.681
X3.209Y-4.728
X3.264Y-4.169
X3.264Y-4.268
X3.264Y-4.315
X3.264Y-4.366
X3.264Y-4.417
X3.287Y-5.315
X3.311Y-4.051
X3.319Y-4.646
X3.319Y-4.803
X3.366Y-4.646
X3.366Y-4.803
X3.374Y-4.051
X3.374Y-4.216
X3.382Y-4.441
X3.390Y-4.264
X3.390Y-4.339
X3.390Y-4.390
X3.390Y-4.504
X3.390Y-4.595
X3.524Y-4.248
X3.524Y-5.315
X3.532Y-4.299
X3.539Y-4.350
X3.539Y-4.433
X3.539Y-4.595
X3.555Y-4.051
X3.555Y-4.216
X3.618Y-4.051
X3.618Y-4.216
X3.642Y-4.646
X3.673Y-4.390
X3.689Y-4.287
X3.721Y-4.095
X3.799Y-5.315
X3.807Y-4.646
X3.823Y-4.055
X3.843Y-4.374
X3.850Y-4.508
X3.878Y-5.315
X3.886Y-4.193
X3.905Y-4.630
X3.957Y-5.315
X3.965Y-4.260
X4.028Y-4.260
X4.035Y-4.618
X4.035Y-5.315
X4.095Y-4.437
X4.122Y-4.610
X4.146Y-4.437
X4.185Y-4.610
X4.197Y-4.437
X4.224Y-4.492
T2
X2.400Y-3.175
X2.400Y-3.275
X2.400Y-3.375
X2.400Y-3.475
X2.400Y-3.575
X2.400Y-3.675
X2.400Y-3.775
X2.400Y-3.875
X2.400Y-3.975
X2.400Y-4.075
X2.400Y-4.175
X2.400Y-4.275
X2.400Y-4.375
X2.400Y-4.475
X2.400Y-4.575
X2.400Y-4.675
X2.400Y-4.775
X2.400Y-4.875
X2.400Y-4.975
X2.400Y-5.075
X2.400Y-5.175
X2.400Y-5.275
X2.400Y-5.375
X2.500Y-3.175
X2.500Y-3.275
X2.500Y-3.375
X2.500Y-3.475
X2.500Y-3.575
X2.500Y-3.675
X2.500Y-3.775
X2.500Y-3.875
X2.500Y-3.975
X2.500Y-4.075
X2.500Y-4.175
X2.500Y-4.275
X2.500Y-4.375
X2.500Y-4.475
X2.500Y-4.575
X2.500Y-4.675
X2.500Y-4.775
X2.500Y-4.875
X2.500Y-4.975
X2.500Y-5.075
X2.500Y-5.175
X2.500Y-5.275
X2.500Y-5.375
X4.300Y-3.175
X4.300Y-3.275
X4.300Y-3.375
X4.300Y-3.475
X4.300Y-3.575
X4.300Y-3.675
X4.300Y-3.775
X4.300Y-3.875
X4.300Y-3.975
X4.300Y-4.075
X4.300Y-4.175
X4.300Y-4.275
X4.300Y-4.375
X4.300Y-4.475
X4.300Y-4.575
X4.300Y-4.675
X4.300Y-4.775
X4.300Y-4.875
X4.300Y-4.975
X4.300Y-5.075
X4.300Y-5.175
X4.300Y-5.275
X4.300Y-5.375
X4.400Y-3.175
X4.400Y-3.275
X4.400Y-3.375
X4.400Y-3.475
X4.400Y-3.575
X4.400Y-3.675
X4.400Y-3.775
X4.400Y-3.875
X4.400Y-3.975
X4.400Y-4.075
X4.400Y-4.175
X4.400Y-4.275
X4.400Y-4.375
X4.400Y-4.475
X4.400Y-4.575
X4.400Y-4.675
X4.400Y-4.775
X4.400Y-4.875
X4.400Y-4.975
X4.400Y-5.075
X4.400Y-5.175
X4.400Y-5.275
X4.400Y-5.375
T3
X2.697Y-5.413
X2.795Y-5.413
X2.894Y-5.610
X2.992Y-5.413
X3.091Y-5.413
X3.209Y-5.413
X3.307Y-5.413
X3.405Y-5.610
X3.504Y-5.413
X3.602Y-5.413
X3.720Y-5.413
X3.819Y-5.413
X3.917Y-5.610
X4.016Y-5.413
X4.114Y-5.413
X2.697Y-5.610
X2.697Y-5.709
X2.894Y-5.413
X3.091Y-5.610
X3.091Y-5.709
X3.209Y-5.610
X3.209Y-5.709
X3.405Y-5.413
X3.602Y-5.610
X3.602Y-5.709
X3.720Y-5.610
X3.720Y-5.709
X3.917Y-5.413
X4.114Y-5.610
X4.114Y-5.709
T4
X2.450Y-2.975
X2.575Y-5.575
X4.225Y-5.575
X4.350Y-2.975
T0
M30
