G04 (created by PCBNEW-RS274X (2012-05-21 BZR 3261)-stable) date Thu 30 May 2013 05:43:25 PM PDT*
G01*
G70*
G90*
%MOIN*%
G04 Gerber Fmt 3.4, Leading zero omitted, Abs format*
%FSLAX34Y34*%
G04 APERTURE LIST*
%ADD10C,0.008000*%
%ADD11C,0.070900*%
%ADD12C,0.059100*%
%ADD13C,0.175000*%
%ADD14C,0.032000*%
G04 APERTURE END LIST*
G54D10*
G54D11*
X37203Y-54133D03*
X41141Y-54133D03*
X39172Y-56102D03*
X40156Y-54133D03*
X38188Y-54133D03*
X26968Y-54134D03*
X30906Y-54134D03*
X28937Y-56103D03*
X29921Y-54134D03*
X27953Y-54134D03*
X32086Y-54133D03*
X36024Y-54133D03*
X34055Y-56102D03*
X35039Y-54133D03*
X33071Y-54133D03*
G54D12*
X24000Y-31750D03*
X25000Y-31750D03*
X24000Y-32750D03*
X25000Y-32750D03*
X24000Y-33750D03*
X25000Y-33750D03*
X24000Y-34750D03*
X25000Y-34750D03*
X24000Y-35750D03*
X25000Y-35750D03*
X24000Y-36750D03*
X25000Y-36750D03*
X24000Y-37750D03*
X25000Y-37750D03*
X24000Y-38750D03*
X25000Y-38750D03*
X24000Y-39750D03*
X25000Y-39750D03*
X24000Y-40750D03*
X25000Y-40750D03*
X24000Y-41750D03*
X25000Y-41750D03*
X24000Y-42750D03*
X25000Y-42750D03*
X24000Y-43750D03*
X25000Y-43750D03*
X24000Y-44750D03*
X25000Y-44750D03*
X24000Y-45750D03*
X25000Y-45750D03*
X24000Y-46750D03*
X25000Y-46750D03*
X24000Y-47750D03*
X25000Y-47750D03*
X24000Y-48750D03*
X25000Y-48750D03*
X24000Y-49750D03*
X25000Y-49750D03*
X24000Y-50750D03*
X25000Y-50750D03*
X24000Y-51750D03*
X25000Y-51750D03*
X24000Y-52750D03*
X25000Y-52750D03*
X24000Y-53750D03*
X25000Y-53750D03*
X43000Y-31750D03*
X44000Y-31750D03*
X43000Y-32750D03*
X44000Y-32750D03*
X43000Y-33750D03*
X44000Y-33750D03*
X43000Y-34750D03*
X44000Y-34750D03*
X43000Y-35750D03*
X44000Y-35750D03*
X43000Y-36750D03*
X44000Y-36750D03*
X43000Y-37750D03*
X44000Y-37750D03*
X43000Y-38750D03*
X44000Y-38750D03*
X43000Y-39750D03*
X44000Y-39750D03*
X43000Y-40750D03*
X44000Y-40750D03*
X43000Y-41750D03*
X44000Y-41750D03*
X43000Y-42750D03*
X44000Y-42750D03*
X43000Y-43750D03*
X44000Y-43750D03*
X43000Y-44750D03*
X44000Y-44750D03*
X43000Y-45750D03*
X44000Y-45750D03*
X43000Y-46750D03*
X44000Y-46750D03*
X43000Y-47750D03*
X44000Y-47750D03*
X43000Y-48750D03*
X44000Y-48750D03*
X43000Y-49750D03*
X44000Y-49750D03*
X43000Y-50750D03*
X44000Y-50750D03*
X43000Y-51750D03*
X44000Y-51750D03*
X43000Y-52750D03*
X44000Y-52750D03*
X43000Y-53750D03*
X44000Y-53750D03*
G54D13*
X24500Y-29750D03*
X43500Y-29750D03*
X25750Y-55750D03*
X42250Y-55750D03*
G54D14*
X33898Y-43898D03*
X27008Y-46181D03*
X32638Y-44173D03*
X27008Y-44055D03*
X32638Y-43150D03*
X27008Y-46890D03*
X32638Y-42677D03*
X27008Y-43346D03*
X33898Y-43386D03*
X26417Y-48386D03*
X32638Y-43662D03*
X27008Y-45472D03*
X28110Y-30827D03*
X27402Y-30827D03*
X38858Y-41929D03*
X27008Y-40512D03*
X35394Y-43504D03*
X27008Y-41929D03*
X27323Y-39803D03*
X36732Y-43898D03*
X35394Y-44331D03*
X27717Y-40118D03*
X33110Y-40512D03*
X33898Y-42638D03*
X26810Y-31969D03*
X29881Y-25512D03*
X35551Y-42165D03*
X35315Y-42992D03*
X27283Y-25512D03*
X29842Y-30118D03*
X35551Y-40512D03*
X29094Y-29488D03*
X40276Y-42598D03*
X29409Y-31969D03*
X32638Y-41693D03*
X33898Y-45945D03*
X41850Y-46102D03*
X32087Y-45945D03*
X42244Y-44921D03*
X32087Y-47284D03*
X33819Y-44409D03*
X33661Y-48031D03*
X39055Y-46299D03*
X33661Y-46457D03*
X38425Y-43740D03*
X29724Y-52559D03*
X40354Y-46181D03*
X36417Y-46457D03*
X33189Y-48031D03*
X40945Y-44370D03*
X38504Y-45079D03*
X32874Y-53150D03*
X40354Y-53150D03*
X36890Y-42874D03*
X37992Y-53150D03*
X36181Y-42165D03*
X29842Y-29488D03*
X33189Y-46457D03*
X38780Y-53150D03*
X39646Y-42598D03*
X32087Y-45472D03*
X33740Y-42165D03*
X36181Y-40512D03*
X41220Y-46102D03*
X41969Y-44370D03*
X27598Y-27992D03*
X37205Y-40945D03*
X38071Y-46457D03*
X35236Y-42480D03*
X38228Y-40551D03*
X41457Y-44370D03*
X33740Y-40512D03*
X35236Y-53150D03*
X28150Y-52559D03*
X35394Y-45945D03*
X32087Y-46811D03*
X33898Y-45040D03*
X39567Y-53150D03*
X29528Y-28228D03*
X28740Y-28228D03*
X28346Y-29134D03*
G54D10*
G36*
X42360Y-57765D02*
X41536Y-57765D01*
X41536Y-57165D01*
X41536Y-57008D01*
X41476Y-56863D01*
X41365Y-56752D01*
X41220Y-56691D01*
X41063Y-56691D01*
X40918Y-56751D01*
X40807Y-56862D01*
X40746Y-57007D01*
X40746Y-57164D01*
X40806Y-57309D01*
X40917Y-57420D01*
X41062Y-57481D01*
X41219Y-57481D01*
X41364Y-57421D01*
X41475Y-57310D01*
X41536Y-57165D01*
X41536Y-57765D01*
X39686Y-57765D01*
X39686Y-56204D01*
X39686Y-56000D01*
X39608Y-55811D01*
X39567Y-55770D01*
X39567Y-54212D01*
X39567Y-54055D01*
X39507Y-53910D01*
X39396Y-53799D01*
X39251Y-53738D01*
X39100Y-53738D01*
X39100Y-53214D01*
X39100Y-53087D01*
X39052Y-52969D01*
X38962Y-52879D01*
X38844Y-52830D01*
X38824Y-52830D01*
X38824Y-45143D01*
X38824Y-45016D01*
X38776Y-44898D01*
X38686Y-44808D01*
X38568Y-44759D01*
X38441Y-44759D01*
X38323Y-44807D01*
X38233Y-44897D01*
X38184Y-45015D01*
X38184Y-45142D01*
X38232Y-45260D01*
X38322Y-45350D01*
X38440Y-45399D01*
X38567Y-45399D01*
X38685Y-45351D01*
X38775Y-45261D01*
X38824Y-45143D01*
X38824Y-52830D01*
X38717Y-52830D01*
X38599Y-52878D01*
X38509Y-52968D01*
X38460Y-53086D01*
X38460Y-53213D01*
X38508Y-53331D01*
X38598Y-53421D01*
X38716Y-53470D01*
X38843Y-53470D01*
X38961Y-53422D01*
X39051Y-53332D01*
X39100Y-53214D01*
X39100Y-53738D01*
X39094Y-53738D01*
X38949Y-53798D01*
X38838Y-53909D01*
X38777Y-54054D01*
X38777Y-54211D01*
X38837Y-54356D01*
X38948Y-54467D01*
X39093Y-54528D01*
X39250Y-54528D01*
X39395Y-54468D01*
X39506Y-54357D01*
X39567Y-54212D01*
X39567Y-55770D01*
X39463Y-55666D01*
X39274Y-55588D01*
X39070Y-55588D01*
X38881Y-55666D01*
X38736Y-55811D01*
X38702Y-55893D01*
X38702Y-54235D01*
X38702Y-54031D01*
X38624Y-53842D01*
X38479Y-53697D01*
X38391Y-53660D01*
X38391Y-46521D01*
X38391Y-46394D01*
X38343Y-46276D01*
X38253Y-46186D01*
X38135Y-46137D01*
X38008Y-46137D01*
X37890Y-46185D01*
X37800Y-46275D01*
X37751Y-46393D01*
X37751Y-46520D01*
X37799Y-46638D01*
X37889Y-46728D01*
X38007Y-46777D01*
X38134Y-46777D01*
X38252Y-46729D01*
X38342Y-46639D01*
X38391Y-46521D01*
X38391Y-53660D01*
X38312Y-53628D01*
X38312Y-53214D01*
X38312Y-53087D01*
X38264Y-52969D01*
X38174Y-52879D01*
X38056Y-52830D01*
X37929Y-52830D01*
X37811Y-52878D01*
X37721Y-52968D01*
X37672Y-53086D01*
X37672Y-53213D01*
X37720Y-53331D01*
X37810Y-53421D01*
X37928Y-53470D01*
X38055Y-53470D01*
X38173Y-53422D01*
X38263Y-53332D01*
X38312Y-53214D01*
X38312Y-53628D01*
X38290Y-53619D01*
X38086Y-53619D01*
X37897Y-53697D01*
X37752Y-53842D01*
X37695Y-53978D01*
X37639Y-53842D01*
X37494Y-53697D01*
X37305Y-53619D01*
X37101Y-53619D01*
X36912Y-53697D01*
X36767Y-53842D01*
X36737Y-53914D01*
X36737Y-46521D01*
X36737Y-46394D01*
X36689Y-46276D01*
X36599Y-46186D01*
X36481Y-46137D01*
X36354Y-46137D01*
X36236Y-46185D01*
X36146Y-46275D01*
X36097Y-46393D01*
X36097Y-46520D01*
X36145Y-46638D01*
X36235Y-46728D01*
X36353Y-46777D01*
X36480Y-46777D01*
X36598Y-46729D01*
X36688Y-46639D01*
X36737Y-46521D01*
X36737Y-53914D01*
X36689Y-54031D01*
X36689Y-54235D01*
X36767Y-54424D01*
X36912Y-54569D01*
X37101Y-54647D01*
X37305Y-54647D01*
X37494Y-54569D01*
X37639Y-54424D01*
X37695Y-54287D01*
X37752Y-54424D01*
X37897Y-54569D01*
X38086Y-54647D01*
X38290Y-54647D01*
X38479Y-54569D01*
X38624Y-54424D01*
X38702Y-54235D01*
X38702Y-55893D01*
X38658Y-56000D01*
X38658Y-56204D01*
X38736Y-56393D01*
X38881Y-56538D01*
X39070Y-56616D01*
X39274Y-56616D01*
X39463Y-56538D01*
X39608Y-56393D01*
X39686Y-56204D01*
X39686Y-57765D01*
X37598Y-57765D01*
X37598Y-57165D01*
X37598Y-57008D01*
X37598Y-56181D01*
X37598Y-56024D01*
X37538Y-55879D01*
X37427Y-55768D01*
X37282Y-55707D01*
X37125Y-55707D01*
X36980Y-55767D01*
X36869Y-55878D01*
X36808Y-56023D01*
X36808Y-56180D01*
X36868Y-56325D01*
X36979Y-56436D01*
X37124Y-56497D01*
X37281Y-56497D01*
X37426Y-56437D01*
X37537Y-56326D01*
X37598Y-56181D01*
X37598Y-57008D01*
X37538Y-56863D01*
X37427Y-56752D01*
X37282Y-56691D01*
X37125Y-56691D01*
X36980Y-56751D01*
X36869Y-56862D01*
X36808Y-57007D01*
X36808Y-57164D01*
X36868Y-57309D01*
X36979Y-57420D01*
X37124Y-57481D01*
X37281Y-57481D01*
X37426Y-57421D01*
X37537Y-57310D01*
X37598Y-57165D01*
X37598Y-57765D01*
X36538Y-57765D01*
X36538Y-54235D01*
X36538Y-54031D01*
X36460Y-53842D01*
X36315Y-53697D01*
X36126Y-53619D01*
X35922Y-53619D01*
X35733Y-53697D01*
X35714Y-53716D01*
X35714Y-46009D01*
X35714Y-45882D01*
X35666Y-45764D01*
X35576Y-45674D01*
X35458Y-45625D01*
X35331Y-45625D01*
X35213Y-45673D01*
X35123Y-45763D01*
X35074Y-45881D01*
X35074Y-46008D01*
X35122Y-46126D01*
X35212Y-46216D01*
X35330Y-46265D01*
X35457Y-46265D01*
X35575Y-46217D01*
X35665Y-46127D01*
X35714Y-46009D01*
X35714Y-53716D01*
X35588Y-53842D01*
X35556Y-53918D01*
X35556Y-53214D01*
X35556Y-53087D01*
X35508Y-52969D01*
X35418Y-52879D01*
X35300Y-52830D01*
X35173Y-52830D01*
X35055Y-52878D01*
X34965Y-52968D01*
X34916Y-53086D01*
X34916Y-53213D01*
X34964Y-53331D01*
X35054Y-53421D01*
X35172Y-53470D01*
X35299Y-53470D01*
X35417Y-53422D01*
X35507Y-53332D01*
X35556Y-53214D01*
X35556Y-53918D01*
X35531Y-53978D01*
X35475Y-53842D01*
X35330Y-53697D01*
X35141Y-53619D01*
X34937Y-53619D01*
X34748Y-53697D01*
X34603Y-53842D01*
X34525Y-54031D01*
X34525Y-54235D01*
X34603Y-54424D01*
X34748Y-54569D01*
X34937Y-54647D01*
X35141Y-54647D01*
X35330Y-54569D01*
X35475Y-54424D01*
X35531Y-54287D01*
X35588Y-54424D01*
X35733Y-54569D01*
X35922Y-54647D01*
X36126Y-54647D01*
X36315Y-54569D01*
X36460Y-54424D01*
X36538Y-54235D01*
X36538Y-57765D01*
X36419Y-57765D01*
X36419Y-57165D01*
X36419Y-57008D01*
X36419Y-56181D01*
X36419Y-56024D01*
X36359Y-55879D01*
X36248Y-55768D01*
X36103Y-55707D01*
X35946Y-55707D01*
X35801Y-55767D01*
X35690Y-55878D01*
X35629Y-56023D01*
X35629Y-56180D01*
X35689Y-56325D01*
X35800Y-56436D01*
X35945Y-56497D01*
X36102Y-56497D01*
X36247Y-56437D01*
X36358Y-56326D01*
X36419Y-56181D01*
X36419Y-57008D01*
X36359Y-56863D01*
X36248Y-56752D01*
X36103Y-56691D01*
X35946Y-56691D01*
X35801Y-56751D01*
X35690Y-56862D01*
X35629Y-57007D01*
X35629Y-57164D01*
X35689Y-57309D01*
X35800Y-57420D01*
X35945Y-57481D01*
X36102Y-57481D01*
X36247Y-57421D01*
X36358Y-57310D01*
X36419Y-57165D01*
X36419Y-57765D01*
X34569Y-57765D01*
X34569Y-56204D01*
X34569Y-56000D01*
X34491Y-55811D01*
X34450Y-55770D01*
X34450Y-54212D01*
X34450Y-54055D01*
X34390Y-53910D01*
X34279Y-53799D01*
X34218Y-53773D01*
X34218Y-45104D01*
X34218Y-44977D01*
X34170Y-44859D01*
X34080Y-44769D01*
X33962Y-44720D01*
X33835Y-44720D01*
X33717Y-44768D01*
X33627Y-44858D01*
X33578Y-44976D01*
X33578Y-45103D01*
X33626Y-45221D01*
X33716Y-45311D01*
X33834Y-45360D01*
X33961Y-45360D01*
X34079Y-45312D01*
X34169Y-45222D01*
X34218Y-45104D01*
X34218Y-53773D01*
X34134Y-53738D01*
X33977Y-53738D01*
X33832Y-53798D01*
X33721Y-53909D01*
X33660Y-54054D01*
X33660Y-54211D01*
X33720Y-54356D01*
X33831Y-54467D01*
X33976Y-54528D01*
X34133Y-54528D01*
X34278Y-54468D01*
X34389Y-54357D01*
X34450Y-54212D01*
X34450Y-55770D01*
X34346Y-55666D01*
X34157Y-55588D01*
X33953Y-55588D01*
X33764Y-55666D01*
X33619Y-55811D01*
X33585Y-55893D01*
X33585Y-54235D01*
X33585Y-54031D01*
X33509Y-53846D01*
X33509Y-48095D01*
X33509Y-47968D01*
X33509Y-46521D01*
X33509Y-46394D01*
X33461Y-46276D01*
X33371Y-46186D01*
X33253Y-46137D01*
X33126Y-46137D01*
X33008Y-46185D01*
X32918Y-46275D01*
X32869Y-46393D01*
X32869Y-46520D01*
X32917Y-46638D01*
X33007Y-46728D01*
X33125Y-46777D01*
X33252Y-46777D01*
X33370Y-46729D01*
X33460Y-46639D01*
X33509Y-46521D01*
X33509Y-47968D01*
X33461Y-47850D01*
X33371Y-47760D01*
X33253Y-47711D01*
X33126Y-47711D01*
X33008Y-47759D01*
X32918Y-47849D01*
X32869Y-47967D01*
X32869Y-48094D01*
X32917Y-48212D01*
X33007Y-48302D01*
X33125Y-48351D01*
X33252Y-48351D01*
X33370Y-48303D01*
X33460Y-48213D01*
X33509Y-48095D01*
X33509Y-53846D01*
X33507Y-53842D01*
X33362Y-53697D01*
X33194Y-53627D01*
X33194Y-53214D01*
X33194Y-53087D01*
X33146Y-52969D01*
X33056Y-52879D01*
X32938Y-52830D01*
X32811Y-52830D01*
X32693Y-52878D01*
X32603Y-52968D01*
X32554Y-53086D01*
X32554Y-53213D01*
X32602Y-53331D01*
X32692Y-53421D01*
X32810Y-53470D01*
X32937Y-53470D01*
X33055Y-53422D01*
X33145Y-53332D01*
X33194Y-53214D01*
X33194Y-53627D01*
X33173Y-53619D01*
X32969Y-53619D01*
X32780Y-53697D01*
X32635Y-53842D01*
X32578Y-53978D01*
X32522Y-53842D01*
X32407Y-53727D01*
X32407Y-46875D01*
X32407Y-46748D01*
X32359Y-46630D01*
X32269Y-46540D01*
X32151Y-46491D01*
X32024Y-46491D01*
X31906Y-46539D01*
X31816Y-46629D01*
X31767Y-46747D01*
X31767Y-46874D01*
X31815Y-46992D01*
X31905Y-47082D01*
X32023Y-47131D01*
X32150Y-47131D01*
X32268Y-47083D01*
X32358Y-46993D01*
X32407Y-46875D01*
X32407Y-53727D01*
X32377Y-53697D01*
X32188Y-53619D01*
X31984Y-53619D01*
X31795Y-53697D01*
X31650Y-53842D01*
X31572Y-54031D01*
X31572Y-54235D01*
X31650Y-54424D01*
X31795Y-54569D01*
X31984Y-54647D01*
X32188Y-54647D01*
X32377Y-54569D01*
X32522Y-54424D01*
X32578Y-54287D01*
X32635Y-54424D01*
X32780Y-54569D01*
X32969Y-54647D01*
X33173Y-54647D01*
X33362Y-54569D01*
X33507Y-54424D01*
X33585Y-54235D01*
X33585Y-55893D01*
X33541Y-56000D01*
X33541Y-56204D01*
X33619Y-56393D01*
X33764Y-56538D01*
X33953Y-56616D01*
X34157Y-56616D01*
X34346Y-56538D01*
X34491Y-56393D01*
X34569Y-56204D01*
X34569Y-57765D01*
X32481Y-57765D01*
X32481Y-57165D01*
X32481Y-57008D01*
X32481Y-56181D01*
X32481Y-56024D01*
X32421Y-55879D01*
X32310Y-55768D01*
X32165Y-55707D01*
X32008Y-55707D01*
X31863Y-55767D01*
X31752Y-55878D01*
X31691Y-56023D01*
X31691Y-56180D01*
X31751Y-56325D01*
X31862Y-56436D01*
X32007Y-56497D01*
X32164Y-56497D01*
X32309Y-56437D01*
X32420Y-56326D01*
X32481Y-56181D01*
X32481Y-57008D01*
X32421Y-56863D01*
X32310Y-56752D01*
X32165Y-56691D01*
X32008Y-56691D01*
X31863Y-56751D01*
X31752Y-56862D01*
X31691Y-57007D01*
X31691Y-57164D01*
X31751Y-57309D01*
X31862Y-57420D01*
X32007Y-57481D01*
X32164Y-57481D01*
X32309Y-57421D01*
X32420Y-57310D01*
X32481Y-57165D01*
X32481Y-57765D01*
X31420Y-57765D01*
X31420Y-54236D01*
X31420Y-54032D01*
X31342Y-53843D01*
X31197Y-53698D01*
X31008Y-53620D01*
X30804Y-53620D01*
X30615Y-53698D01*
X30470Y-53843D01*
X30413Y-53979D01*
X30357Y-53843D01*
X30212Y-53698D01*
X30044Y-53628D01*
X30044Y-52623D01*
X30044Y-52496D01*
X29996Y-52378D01*
X29906Y-52288D01*
X29788Y-52239D01*
X29661Y-52239D01*
X29543Y-52287D01*
X29453Y-52377D01*
X29404Y-52495D01*
X29404Y-52622D01*
X29452Y-52740D01*
X29542Y-52830D01*
X29660Y-52879D01*
X29787Y-52879D01*
X29905Y-52831D01*
X29995Y-52741D01*
X30044Y-52623D01*
X30044Y-53628D01*
X30023Y-53620D01*
X29819Y-53620D01*
X29630Y-53698D01*
X29485Y-53843D01*
X29407Y-54032D01*
X29407Y-54236D01*
X29485Y-54425D01*
X29630Y-54570D01*
X29819Y-54648D01*
X30023Y-54648D01*
X30212Y-54570D01*
X30357Y-54425D01*
X30413Y-54288D01*
X30470Y-54425D01*
X30615Y-54570D01*
X30804Y-54648D01*
X31008Y-54648D01*
X31197Y-54570D01*
X31342Y-54425D01*
X31420Y-54236D01*
X31420Y-57765D01*
X31301Y-57765D01*
X31301Y-57166D01*
X31301Y-57009D01*
X31301Y-56182D01*
X31301Y-56025D01*
X31241Y-55880D01*
X31130Y-55769D01*
X30985Y-55708D01*
X30828Y-55708D01*
X30683Y-55768D01*
X30572Y-55879D01*
X30511Y-56024D01*
X30511Y-56181D01*
X30571Y-56326D01*
X30682Y-56437D01*
X30827Y-56498D01*
X30984Y-56498D01*
X31129Y-56438D01*
X31240Y-56327D01*
X31301Y-56182D01*
X31301Y-57009D01*
X31241Y-56864D01*
X31130Y-56753D01*
X30985Y-56692D01*
X30828Y-56692D01*
X30683Y-56752D01*
X30572Y-56863D01*
X30511Y-57008D01*
X30511Y-57165D01*
X30571Y-57310D01*
X30682Y-57421D01*
X30827Y-57482D01*
X30984Y-57482D01*
X31129Y-57422D01*
X31240Y-57311D01*
X31301Y-57166D01*
X31301Y-57765D01*
X29451Y-57765D01*
X29451Y-56205D01*
X29451Y-56001D01*
X29373Y-55812D01*
X29332Y-55771D01*
X29332Y-54213D01*
X29332Y-54056D01*
X29272Y-53911D01*
X29161Y-53800D01*
X29016Y-53739D01*
X28859Y-53739D01*
X28714Y-53799D01*
X28603Y-53910D01*
X28542Y-54055D01*
X28542Y-54212D01*
X28602Y-54357D01*
X28713Y-54468D01*
X28858Y-54529D01*
X29015Y-54529D01*
X29160Y-54469D01*
X29271Y-54358D01*
X29332Y-54213D01*
X29332Y-55771D01*
X29228Y-55667D01*
X29039Y-55589D01*
X28835Y-55589D01*
X28646Y-55667D01*
X28501Y-55812D01*
X28470Y-55887D01*
X28470Y-52623D01*
X28470Y-52496D01*
X28422Y-52378D01*
X28332Y-52288D01*
X28214Y-52239D01*
X28087Y-52239D01*
X27969Y-52287D01*
X27879Y-52377D01*
X27830Y-52495D01*
X27830Y-52622D01*
X27878Y-52740D01*
X27968Y-52830D01*
X28086Y-52879D01*
X28213Y-52879D01*
X28331Y-52831D01*
X28421Y-52741D01*
X28470Y-52623D01*
X28470Y-55887D01*
X28467Y-55894D01*
X28467Y-54236D01*
X28467Y-54032D01*
X28389Y-53843D01*
X28244Y-53698D01*
X28055Y-53620D01*
X27851Y-53620D01*
X27662Y-53698D01*
X27517Y-53843D01*
X27460Y-53979D01*
X27404Y-53843D01*
X27259Y-53698D01*
X27070Y-53620D01*
X26866Y-53620D01*
X26677Y-53698D01*
X26532Y-53843D01*
X26454Y-54032D01*
X26454Y-54236D01*
X26532Y-54425D01*
X26677Y-54570D01*
X26866Y-54648D01*
X27070Y-54648D01*
X27259Y-54570D01*
X27404Y-54425D01*
X27460Y-54288D01*
X27517Y-54425D01*
X27662Y-54570D01*
X27851Y-54648D01*
X28055Y-54648D01*
X28244Y-54570D01*
X28389Y-54425D01*
X28467Y-54236D01*
X28467Y-55894D01*
X28423Y-56001D01*
X28423Y-56205D01*
X28501Y-56394D01*
X28646Y-56539D01*
X28835Y-56617D01*
X29039Y-56617D01*
X29228Y-56539D01*
X29373Y-56394D01*
X29451Y-56205D01*
X29451Y-57765D01*
X27363Y-57765D01*
X27363Y-57166D01*
X27363Y-57009D01*
X27303Y-56864D01*
X27192Y-56753D01*
X27047Y-56692D01*
X26890Y-56692D01*
X26745Y-56752D01*
X26634Y-56863D01*
X26573Y-57008D01*
X26573Y-57165D01*
X26633Y-57310D01*
X26744Y-57421D01*
X26889Y-57482D01*
X27046Y-57482D01*
X27191Y-57422D01*
X27302Y-57311D01*
X27363Y-57166D01*
X27363Y-57765D01*
X26440Y-57765D01*
X26440Y-56523D01*
X26627Y-56337D01*
X26632Y-56324D01*
X26633Y-56326D01*
X26744Y-56437D01*
X26889Y-56498D01*
X27046Y-56498D01*
X27191Y-56438D01*
X27302Y-56327D01*
X27363Y-56182D01*
X27363Y-56025D01*
X27303Y-55880D01*
X27192Y-55769D01*
X27047Y-55708D01*
X26890Y-55708D01*
X26785Y-55751D01*
X26785Y-55545D01*
X26628Y-55165D01*
X26440Y-54976D01*
X26440Y-52917D01*
X28540Y-50817D01*
X28540Y-46517D01*
X29817Y-45240D01*
X31866Y-45240D01*
X31816Y-45290D01*
X31767Y-45408D01*
X31767Y-45535D01*
X31815Y-45653D01*
X31905Y-45743D01*
X32023Y-45792D01*
X32150Y-45792D01*
X32268Y-45744D01*
X32358Y-45654D01*
X32407Y-45536D01*
X32407Y-45409D01*
X32359Y-45291D01*
X32308Y-45240D01*
X32817Y-45240D01*
X33767Y-44290D01*
X35074Y-44290D01*
X35074Y-44394D01*
X35122Y-44512D01*
X35212Y-44602D01*
X35330Y-44651D01*
X35457Y-44651D01*
X35575Y-44603D01*
X35665Y-44513D01*
X35714Y-44395D01*
X35714Y-44290D01*
X40631Y-44290D01*
X40625Y-44306D01*
X40625Y-44433D01*
X40673Y-44551D01*
X40763Y-44641D01*
X40881Y-44690D01*
X41008Y-44690D01*
X41126Y-44642D01*
X41201Y-44567D01*
X41275Y-44641D01*
X41393Y-44690D01*
X41520Y-44690D01*
X41638Y-44642D01*
X41713Y-44567D01*
X41787Y-44641D01*
X41905Y-44690D01*
X42032Y-44690D01*
X42150Y-44642D01*
X42240Y-44552D01*
X42289Y-44434D01*
X42289Y-44307D01*
X42282Y-44290D01*
X42360Y-44290D01*
X42360Y-54715D01*
X42045Y-54715D01*
X41665Y-54872D01*
X41655Y-54881D01*
X41655Y-54235D01*
X41655Y-54031D01*
X41577Y-53842D01*
X41540Y-53805D01*
X41540Y-46166D01*
X41540Y-46039D01*
X41492Y-45921D01*
X41402Y-45831D01*
X41284Y-45782D01*
X41157Y-45782D01*
X41039Y-45830D01*
X40949Y-45920D01*
X40900Y-46038D01*
X40900Y-46165D01*
X40948Y-46283D01*
X41038Y-46373D01*
X41156Y-46422D01*
X41283Y-46422D01*
X41401Y-46374D01*
X41491Y-46284D01*
X41540Y-46166D01*
X41540Y-53805D01*
X41432Y-53697D01*
X41243Y-53619D01*
X41039Y-53619D01*
X40850Y-53697D01*
X40705Y-53842D01*
X40674Y-53915D01*
X40674Y-53214D01*
X40674Y-53087D01*
X40674Y-46245D01*
X40674Y-46118D01*
X40626Y-46000D01*
X40536Y-45910D01*
X40418Y-45861D01*
X40291Y-45861D01*
X40173Y-45909D01*
X40083Y-45999D01*
X40034Y-46117D01*
X40034Y-46244D01*
X40082Y-46362D01*
X40172Y-46452D01*
X40290Y-46501D01*
X40417Y-46501D01*
X40535Y-46453D01*
X40625Y-46363D01*
X40674Y-46245D01*
X40674Y-53087D01*
X40626Y-52969D01*
X40536Y-52879D01*
X40418Y-52830D01*
X40291Y-52830D01*
X40173Y-52878D01*
X40083Y-52968D01*
X40034Y-53086D01*
X40034Y-53213D01*
X40082Y-53331D01*
X40172Y-53421D01*
X40290Y-53470D01*
X40417Y-53470D01*
X40535Y-53422D01*
X40625Y-53332D01*
X40674Y-53214D01*
X40674Y-53915D01*
X40648Y-53978D01*
X40592Y-53842D01*
X40447Y-53697D01*
X40258Y-53619D01*
X40054Y-53619D01*
X39887Y-53687D01*
X39887Y-53214D01*
X39887Y-53087D01*
X39839Y-52969D01*
X39749Y-52879D01*
X39631Y-52830D01*
X39504Y-52830D01*
X39386Y-52878D01*
X39296Y-52968D01*
X39247Y-53086D01*
X39247Y-53213D01*
X39295Y-53331D01*
X39385Y-53421D01*
X39503Y-53470D01*
X39630Y-53470D01*
X39748Y-53422D01*
X39838Y-53332D01*
X39887Y-53214D01*
X39887Y-53687D01*
X39865Y-53697D01*
X39720Y-53842D01*
X39642Y-54031D01*
X39642Y-54235D01*
X39720Y-54424D01*
X39865Y-54569D01*
X40054Y-54647D01*
X40258Y-54647D01*
X40447Y-54569D01*
X40592Y-54424D01*
X40648Y-54287D01*
X40705Y-54424D01*
X40850Y-54569D01*
X41039Y-54647D01*
X41243Y-54647D01*
X41432Y-54569D01*
X41577Y-54424D01*
X41655Y-54235D01*
X41655Y-54881D01*
X41373Y-55163D01*
X41215Y-55543D01*
X41215Y-55707D01*
X41063Y-55707D01*
X40918Y-55767D01*
X40807Y-55878D01*
X40746Y-56023D01*
X40746Y-56180D01*
X40806Y-56325D01*
X40917Y-56436D01*
X41062Y-56497D01*
X41219Y-56497D01*
X41364Y-56437D01*
X41418Y-56382D01*
X41663Y-56627D01*
X42043Y-56785D01*
X42360Y-56785D01*
X42360Y-57765D01*
X42360Y-57765D01*
G37*
X42360Y-57765D02*
X41536Y-57765D01*
X41536Y-57165D01*
X41536Y-57008D01*
X41476Y-56863D01*
X41365Y-56752D01*
X41220Y-56691D01*
X41063Y-56691D01*
X40918Y-56751D01*
X40807Y-56862D01*
X40746Y-57007D01*
X40746Y-57164D01*
X40806Y-57309D01*
X40917Y-57420D01*
X41062Y-57481D01*
X41219Y-57481D01*
X41364Y-57421D01*
X41475Y-57310D01*
X41536Y-57165D01*
X41536Y-57765D01*
X39686Y-57765D01*
X39686Y-56204D01*
X39686Y-56000D01*
X39608Y-55811D01*
X39567Y-55770D01*
X39567Y-54212D01*
X39567Y-54055D01*
X39507Y-53910D01*
X39396Y-53799D01*
X39251Y-53738D01*
X39100Y-53738D01*
X39100Y-53214D01*
X39100Y-53087D01*
X39052Y-52969D01*
X38962Y-52879D01*
X38844Y-52830D01*
X38824Y-52830D01*
X38824Y-45143D01*
X38824Y-45016D01*
X38776Y-44898D01*
X38686Y-44808D01*
X38568Y-44759D01*
X38441Y-44759D01*
X38323Y-44807D01*
X38233Y-44897D01*
X38184Y-45015D01*
X38184Y-45142D01*
X38232Y-45260D01*
X38322Y-45350D01*
X38440Y-45399D01*
X38567Y-45399D01*
X38685Y-45351D01*
X38775Y-45261D01*
X38824Y-45143D01*
X38824Y-52830D01*
X38717Y-52830D01*
X38599Y-52878D01*
X38509Y-52968D01*
X38460Y-53086D01*
X38460Y-53213D01*
X38508Y-53331D01*
X38598Y-53421D01*
X38716Y-53470D01*
X38843Y-53470D01*
X38961Y-53422D01*
X39051Y-53332D01*
X39100Y-53214D01*
X39100Y-53738D01*
X39094Y-53738D01*
X38949Y-53798D01*
X38838Y-53909D01*
X38777Y-54054D01*
X38777Y-54211D01*
X38837Y-54356D01*
X38948Y-54467D01*
X39093Y-54528D01*
X39250Y-54528D01*
X39395Y-54468D01*
X39506Y-54357D01*
X39567Y-54212D01*
X39567Y-55770D01*
X39463Y-55666D01*
X39274Y-55588D01*
X39070Y-55588D01*
X38881Y-55666D01*
X38736Y-55811D01*
X38702Y-55893D01*
X38702Y-54235D01*
X38702Y-54031D01*
X38624Y-53842D01*
X38479Y-53697D01*
X38391Y-53660D01*
X38391Y-46521D01*
X38391Y-46394D01*
X38343Y-46276D01*
X38253Y-46186D01*
X38135Y-46137D01*
X38008Y-46137D01*
X37890Y-46185D01*
X37800Y-46275D01*
X37751Y-46393D01*
X37751Y-46520D01*
X37799Y-46638D01*
X37889Y-46728D01*
X38007Y-46777D01*
X38134Y-46777D01*
X38252Y-46729D01*
X38342Y-46639D01*
X38391Y-46521D01*
X38391Y-53660D01*
X38312Y-53628D01*
X38312Y-53214D01*
X38312Y-53087D01*
X38264Y-52969D01*
X38174Y-52879D01*
X38056Y-52830D01*
X37929Y-52830D01*
X37811Y-52878D01*
X37721Y-52968D01*
X37672Y-53086D01*
X37672Y-53213D01*
X37720Y-53331D01*
X37810Y-53421D01*
X37928Y-53470D01*
X38055Y-53470D01*
X38173Y-53422D01*
X38263Y-53332D01*
X38312Y-53214D01*
X38312Y-53628D01*
X38290Y-53619D01*
X38086Y-53619D01*
X37897Y-53697D01*
X37752Y-53842D01*
X37695Y-53978D01*
X37639Y-53842D01*
X37494Y-53697D01*
X37305Y-53619D01*
X37101Y-53619D01*
X36912Y-53697D01*
X36767Y-53842D01*
X36737Y-53914D01*
X36737Y-46521D01*
X36737Y-46394D01*
X36689Y-46276D01*
X36599Y-46186D01*
X36481Y-46137D01*
X36354Y-46137D01*
X36236Y-46185D01*
X36146Y-46275D01*
X36097Y-46393D01*
X36097Y-46520D01*
X36145Y-46638D01*
X36235Y-46728D01*
X36353Y-46777D01*
X36480Y-46777D01*
X36598Y-46729D01*
X36688Y-46639D01*
X36737Y-46521D01*
X36737Y-53914D01*
X36689Y-54031D01*
X36689Y-54235D01*
X36767Y-54424D01*
X36912Y-54569D01*
X37101Y-54647D01*
X37305Y-54647D01*
X37494Y-54569D01*
X37639Y-54424D01*
X37695Y-54287D01*
X37752Y-54424D01*
X37897Y-54569D01*
X38086Y-54647D01*
X38290Y-54647D01*
X38479Y-54569D01*
X38624Y-54424D01*
X38702Y-54235D01*
X38702Y-55893D01*
X38658Y-56000D01*
X38658Y-56204D01*
X38736Y-56393D01*
X38881Y-56538D01*
X39070Y-56616D01*
X39274Y-56616D01*
X39463Y-56538D01*
X39608Y-56393D01*
X39686Y-56204D01*
X39686Y-57765D01*
X37598Y-57765D01*
X37598Y-57165D01*
X37598Y-57008D01*
X37598Y-56181D01*
X37598Y-56024D01*
X37538Y-55879D01*
X37427Y-55768D01*
X37282Y-55707D01*
X37125Y-55707D01*
X36980Y-55767D01*
X36869Y-55878D01*
X36808Y-56023D01*
X36808Y-56180D01*
X36868Y-56325D01*
X36979Y-56436D01*
X37124Y-56497D01*
X37281Y-56497D01*
X37426Y-56437D01*
X37537Y-56326D01*
X37598Y-56181D01*
X37598Y-57008D01*
X37538Y-56863D01*
X37427Y-56752D01*
X37282Y-56691D01*
X37125Y-56691D01*
X36980Y-56751D01*
X36869Y-56862D01*
X36808Y-57007D01*
X36808Y-57164D01*
X36868Y-57309D01*
X36979Y-57420D01*
X37124Y-57481D01*
X37281Y-57481D01*
X37426Y-57421D01*
X37537Y-57310D01*
X37598Y-57165D01*
X37598Y-57765D01*
X36538Y-57765D01*
X36538Y-54235D01*
X36538Y-54031D01*
X36460Y-53842D01*
X36315Y-53697D01*
X36126Y-53619D01*
X35922Y-53619D01*
X35733Y-53697D01*
X35714Y-53716D01*
X35714Y-46009D01*
X35714Y-45882D01*
X35666Y-45764D01*
X35576Y-45674D01*
X35458Y-45625D01*
X35331Y-45625D01*
X35213Y-45673D01*
X35123Y-45763D01*
X35074Y-45881D01*
X35074Y-46008D01*
X35122Y-46126D01*
X35212Y-46216D01*
X35330Y-46265D01*
X35457Y-46265D01*
X35575Y-46217D01*
X35665Y-46127D01*
X35714Y-46009D01*
X35714Y-53716D01*
X35588Y-53842D01*
X35556Y-53918D01*
X35556Y-53214D01*
X35556Y-53087D01*
X35508Y-52969D01*
X35418Y-52879D01*
X35300Y-52830D01*
X35173Y-52830D01*
X35055Y-52878D01*
X34965Y-52968D01*
X34916Y-53086D01*
X34916Y-53213D01*
X34964Y-53331D01*
X35054Y-53421D01*
X35172Y-53470D01*
X35299Y-53470D01*
X35417Y-53422D01*
X35507Y-53332D01*
X35556Y-53214D01*
X35556Y-53918D01*
X35531Y-53978D01*
X35475Y-53842D01*
X35330Y-53697D01*
X35141Y-53619D01*
X34937Y-53619D01*
X34748Y-53697D01*
X34603Y-53842D01*
X34525Y-54031D01*
X34525Y-54235D01*
X34603Y-54424D01*
X34748Y-54569D01*
X34937Y-54647D01*
X35141Y-54647D01*
X35330Y-54569D01*
X35475Y-54424D01*
X35531Y-54287D01*
X35588Y-54424D01*
X35733Y-54569D01*
X35922Y-54647D01*
X36126Y-54647D01*
X36315Y-54569D01*
X36460Y-54424D01*
X36538Y-54235D01*
X36538Y-57765D01*
X36419Y-57765D01*
X36419Y-57165D01*
X36419Y-57008D01*
X36419Y-56181D01*
X36419Y-56024D01*
X36359Y-55879D01*
X36248Y-55768D01*
X36103Y-55707D01*
X35946Y-55707D01*
X35801Y-55767D01*
X35690Y-55878D01*
X35629Y-56023D01*
X35629Y-56180D01*
X35689Y-56325D01*
X35800Y-56436D01*
X35945Y-56497D01*
X36102Y-56497D01*
X36247Y-56437D01*
X36358Y-56326D01*
X36419Y-56181D01*
X36419Y-57008D01*
X36359Y-56863D01*
X36248Y-56752D01*
X36103Y-56691D01*
X35946Y-56691D01*
X35801Y-56751D01*
X35690Y-56862D01*
X35629Y-57007D01*
X35629Y-57164D01*
X35689Y-57309D01*
X35800Y-57420D01*
X35945Y-57481D01*
X36102Y-57481D01*
X36247Y-57421D01*
X36358Y-57310D01*
X36419Y-57165D01*
X36419Y-57765D01*
X34569Y-57765D01*
X34569Y-56204D01*
X34569Y-56000D01*
X34491Y-55811D01*
X34450Y-55770D01*
X34450Y-54212D01*
X34450Y-54055D01*
X34390Y-53910D01*
X34279Y-53799D01*
X34218Y-53773D01*
X34218Y-45104D01*
X34218Y-44977D01*
X34170Y-44859D01*
X34080Y-44769D01*
X33962Y-44720D01*
X33835Y-44720D01*
X33717Y-44768D01*
X33627Y-44858D01*
X33578Y-44976D01*
X33578Y-45103D01*
X33626Y-45221D01*
X33716Y-45311D01*
X33834Y-45360D01*
X33961Y-45360D01*
X34079Y-45312D01*
X34169Y-45222D01*
X34218Y-45104D01*
X34218Y-53773D01*
X34134Y-53738D01*
X33977Y-53738D01*
X33832Y-53798D01*
X33721Y-53909D01*
X33660Y-54054D01*
X33660Y-54211D01*
X33720Y-54356D01*
X33831Y-54467D01*
X33976Y-54528D01*
X34133Y-54528D01*
X34278Y-54468D01*
X34389Y-54357D01*
X34450Y-54212D01*
X34450Y-55770D01*
X34346Y-55666D01*
X34157Y-55588D01*
X33953Y-55588D01*
X33764Y-55666D01*
X33619Y-55811D01*
X33585Y-55893D01*
X33585Y-54235D01*
X33585Y-54031D01*
X33509Y-53846D01*
X33509Y-48095D01*
X33509Y-47968D01*
X33509Y-46521D01*
X33509Y-46394D01*
X33461Y-46276D01*
X33371Y-46186D01*
X33253Y-46137D01*
X33126Y-46137D01*
X33008Y-46185D01*
X32918Y-46275D01*
X32869Y-46393D01*
X32869Y-46520D01*
X32917Y-46638D01*
X33007Y-46728D01*
X33125Y-46777D01*
X33252Y-46777D01*
X33370Y-46729D01*
X33460Y-46639D01*
X33509Y-46521D01*
X33509Y-47968D01*
X33461Y-47850D01*
X33371Y-47760D01*
X33253Y-47711D01*
X33126Y-47711D01*
X33008Y-47759D01*
X32918Y-47849D01*
X32869Y-47967D01*
X32869Y-48094D01*
X32917Y-48212D01*
X33007Y-48302D01*
X33125Y-48351D01*
X33252Y-48351D01*
X33370Y-48303D01*
X33460Y-48213D01*
X33509Y-48095D01*
X33509Y-53846D01*
X33507Y-53842D01*
X33362Y-53697D01*
X33194Y-53627D01*
X33194Y-53214D01*
X33194Y-53087D01*
X33146Y-52969D01*
X33056Y-52879D01*
X32938Y-52830D01*
X32811Y-52830D01*
X32693Y-52878D01*
X32603Y-52968D01*
X32554Y-53086D01*
X32554Y-53213D01*
X32602Y-53331D01*
X32692Y-53421D01*
X32810Y-53470D01*
X32937Y-53470D01*
X33055Y-53422D01*
X33145Y-53332D01*
X33194Y-53214D01*
X33194Y-53627D01*
X33173Y-53619D01*
X32969Y-53619D01*
X32780Y-53697D01*
X32635Y-53842D01*
X32578Y-53978D01*
X32522Y-53842D01*
X32407Y-53727D01*
X32407Y-46875D01*
X32407Y-46748D01*
X32359Y-46630D01*
X32269Y-46540D01*
X32151Y-46491D01*
X32024Y-46491D01*
X31906Y-46539D01*
X31816Y-46629D01*
X31767Y-46747D01*
X31767Y-46874D01*
X31815Y-46992D01*
X31905Y-47082D01*
X32023Y-47131D01*
X32150Y-47131D01*
X32268Y-47083D01*
X32358Y-46993D01*
X32407Y-46875D01*
X32407Y-53727D01*
X32377Y-53697D01*
X32188Y-53619D01*
X31984Y-53619D01*
X31795Y-53697D01*
X31650Y-53842D01*
X31572Y-54031D01*
X31572Y-54235D01*
X31650Y-54424D01*
X31795Y-54569D01*
X31984Y-54647D01*
X32188Y-54647D01*
X32377Y-54569D01*
X32522Y-54424D01*
X32578Y-54287D01*
X32635Y-54424D01*
X32780Y-54569D01*
X32969Y-54647D01*
X33173Y-54647D01*
X33362Y-54569D01*
X33507Y-54424D01*
X33585Y-54235D01*
X33585Y-55893D01*
X33541Y-56000D01*
X33541Y-56204D01*
X33619Y-56393D01*
X33764Y-56538D01*
X33953Y-56616D01*
X34157Y-56616D01*
X34346Y-56538D01*
X34491Y-56393D01*
X34569Y-56204D01*
X34569Y-57765D01*
X32481Y-57765D01*
X32481Y-57165D01*
X32481Y-57008D01*
X32481Y-56181D01*
X32481Y-56024D01*
X32421Y-55879D01*
X32310Y-55768D01*
X32165Y-55707D01*
X32008Y-55707D01*
X31863Y-55767D01*
X31752Y-55878D01*
X31691Y-56023D01*
X31691Y-56180D01*
X31751Y-56325D01*
X31862Y-56436D01*
X32007Y-56497D01*
X32164Y-56497D01*
X32309Y-56437D01*
X32420Y-56326D01*
X32481Y-56181D01*
X32481Y-57008D01*
X32421Y-56863D01*
X32310Y-56752D01*
X32165Y-56691D01*
X32008Y-56691D01*
X31863Y-56751D01*
X31752Y-56862D01*
X31691Y-57007D01*
X31691Y-57164D01*
X31751Y-57309D01*
X31862Y-57420D01*
X32007Y-57481D01*
X32164Y-57481D01*
X32309Y-57421D01*
X32420Y-57310D01*
X32481Y-57165D01*
X32481Y-57765D01*
X31420Y-57765D01*
X31420Y-54236D01*
X31420Y-54032D01*
X31342Y-53843D01*
X31197Y-53698D01*
X31008Y-53620D01*
X30804Y-53620D01*
X30615Y-53698D01*
X30470Y-53843D01*
X30413Y-53979D01*
X30357Y-53843D01*
X30212Y-53698D01*
X30044Y-53628D01*
X30044Y-52623D01*
X30044Y-52496D01*
X29996Y-52378D01*
X29906Y-52288D01*
X29788Y-52239D01*
X29661Y-52239D01*
X29543Y-52287D01*
X29453Y-52377D01*
X29404Y-52495D01*
X29404Y-52622D01*
X29452Y-52740D01*
X29542Y-52830D01*
X29660Y-52879D01*
X29787Y-52879D01*
X29905Y-52831D01*
X29995Y-52741D01*
X30044Y-52623D01*
X30044Y-53628D01*
X30023Y-53620D01*
X29819Y-53620D01*
X29630Y-53698D01*
X29485Y-53843D01*
X29407Y-54032D01*
X29407Y-54236D01*
X29485Y-54425D01*
X29630Y-54570D01*
X29819Y-54648D01*
X30023Y-54648D01*
X30212Y-54570D01*
X30357Y-54425D01*
X30413Y-54288D01*
X30470Y-54425D01*
X30615Y-54570D01*
X30804Y-54648D01*
X31008Y-54648D01*
X31197Y-54570D01*
X31342Y-54425D01*
X31420Y-54236D01*
X31420Y-57765D01*
X31301Y-57765D01*
X31301Y-57166D01*
X31301Y-57009D01*
X31301Y-56182D01*
X31301Y-56025D01*
X31241Y-55880D01*
X31130Y-55769D01*
X30985Y-55708D01*
X30828Y-55708D01*
X30683Y-55768D01*
X30572Y-55879D01*
X30511Y-56024D01*
X30511Y-56181D01*
X30571Y-56326D01*
X30682Y-56437D01*
X30827Y-56498D01*
X30984Y-56498D01*
X31129Y-56438D01*
X31240Y-56327D01*
X31301Y-56182D01*
X31301Y-57009D01*
X31241Y-56864D01*
X31130Y-56753D01*
X30985Y-56692D01*
X30828Y-56692D01*
X30683Y-56752D01*
X30572Y-56863D01*
X30511Y-57008D01*
X30511Y-57165D01*
X30571Y-57310D01*
X30682Y-57421D01*
X30827Y-57482D01*
X30984Y-57482D01*
X31129Y-57422D01*
X31240Y-57311D01*
X31301Y-57166D01*
X31301Y-57765D01*
X29451Y-57765D01*
X29451Y-56205D01*
X29451Y-56001D01*
X29373Y-55812D01*
X29332Y-55771D01*
X29332Y-54213D01*
X29332Y-54056D01*
X29272Y-53911D01*
X29161Y-53800D01*
X29016Y-53739D01*
X28859Y-53739D01*
X28714Y-53799D01*
X28603Y-53910D01*
X28542Y-54055D01*
X28542Y-54212D01*
X28602Y-54357D01*
X28713Y-54468D01*
X28858Y-54529D01*
X29015Y-54529D01*
X29160Y-54469D01*
X29271Y-54358D01*
X29332Y-54213D01*
X29332Y-55771D01*
X29228Y-55667D01*
X29039Y-55589D01*
X28835Y-55589D01*
X28646Y-55667D01*
X28501Y-55812D01*
X28470Y-55887D01*
X28470Y-52623D01*
X28470Y-52496D01*
X28422Y-52378D01*
X28332Y-52288D01*
X28214Y-52239D01*
X28087Y-52239D01*
X27969Y-52287D01*
X27879Y-52377D01*
X27830Y-52495D01*
X27830Y-52622D01*
X27878Y-52740D01*
X27968Y-52830D01*
X28086Y-52879D01*
X28213Y-52879D01*
X28331Y-52831D01*
X28421Y-52741D01*
X28470Y-52623D01*
X28470Y-55887D01*
X28467Y-55894D01*
X28467Y-54236D01*
X28467Y-54032D01*
X28389Y-53843D01*
X28244Y-53698D01*
X28055Y-53620D01*
X27851Y-53620D01*
X27662Y-53698D01*
X27517Y-53843D01*
X27460Y-53979D01*
X27404Y-53843D01*
X27259Y-53698D01*
X27070Y-53620D01*
X26866Y-53620D01*
X26677Y-53698D01*
X26532Y-53843D01*
X26454Y-54032D01*
X26454Y-54236D01*
X26532Y-54425D01*
X26677Y-54570D01*
X26866Y-54648D01*
X27070Y-54648D01*
X27259Y-54570D01*
X27404Y-54425D01*
X27460Y-54288D01*
X27517Y-54425D01*
X27662Y-54570D01*
X27851Y-54648D01*
X28055Y-54648D01*
X28244Y-54570D01*
X28389Y-54425D01*
X28467Y-54236D01*
X28467Y-55894D01*
X28423Y-56001D01*
X28423Y-56205D01*
X28501Y-56394D01*
X28646Y-56539D01*
X28835Y-56617D01*
X29039Y-56617D01*
X29228Y-56539D01*
X29373Y-56394D01*
X29451Y-56205D01*
X29451Y-57765D01*
X27363Y-57765D01*
X27363Y-57166D01*
X27363Y-57009D01*
X27303Y-56864D01*
X27192Y-56753D01*
X27047Y-56692D01*
X26890Y-56692D01*
X26745Y-56752D01*
X26634Y-56863D01*
X26573Y-57008D01*
X26573Y-57165D01*
X26633Y-57310D01*
X26744Y-57421D01*
X26889Y-57482D01*
X27046Y-57482D01*
X27191Y-57422D01*
X27302Y-57311D01*
X27363Y-57166D01*
X27363Y-57765D01*
X26440Y-57765D01*
X26440Y-56523D01*
X26627Y-56337D01*
X26632Y-56324D01*
X26633Y-56326D01*
X26744Y-56437D01*
X26889Y-56498D01*
X27046Y-56498D01*
X27191Y-56438D01*
X27302Y-56327D01*
X27363Y-56182D01*
X27363Y-56025D01*
X27303Y-55880D01*
X27192Y-55769D01*
X27047Y-55708D01*
X26890Y-55708D01*
X26785Y-55751D01*
X26785Y-55545D01*
X26628Y-55165D01*
X26440Y-54976D01*
X26440Y-52917D01*
X28540Y-50817D01*
X28540Y-46517D01*
X29817Y-45240D01*
X31866Y-45240D01*
X31816Y-45290D01*
X31767Y-45408D01*
X31767Y-45535D01*
X31815Y-45653D01*
X31905Y-45743D01*
X32023Y-45792D01*
X32150Y-45792D01*
X32268Y-45744D01*
X32358Y-45654D01*
X32407Y-45536D01*
X32407Y-45409D01*
X32359Y-45291D01*
X32308Y-45240D01*
X32817Y-45240D01*
X33767Y-44290D01*
X35074Y-44290D01*
X35074Y-44394D01*
X35122Y-44512D01*
X35212Y-44602D01*
X35330Y-44651D01*
X35457Y-44651D01*
X35575Y-44603D01*
X35665Y-44513D01*
X35714Y-44395D01*
X35714Y-44290D01*
X40631Y-44290D01*
X40625Y-44306D01*
X40625Y-44433D01*
X40673Y-44551D01*
X40763Y-44641D01*
X40881Y-44690D01*
X41008Y-44690D01*
X41126Y-44642D01*
X41201Y-44567D01*
X41275Y-44641D01*
X41393Y-44690D01*
X41520Y-44690D01*
X41638Y-44642D01*
X41713Y-44567D01*
X41787Y-44641D01*
X41905Y-44690D01*
X42032Y-44690D01*
X42150Y-44642D01*
X42240Y-44552D01*
X42289Y-44434D01*
X42289Y-44307D01*
X42282Y-44290D01*
X42360Y-44290D01*
X42360Y-54715D01*
X42045Y-54715D01*
X41665Y-54872D01*
X41655Y-54881D01*
X41655Y-54235D01*
X41655Y-54031D01*
X41577Y-53842D01*
X41540Y-53805D01*
X41540Y-46166D01*
X41540Y-46039D01*
X41492Y-45921D01*
X41402Y-45831D01*
X41284Y-45782D01*
X41157Y-45782D01*
X41039Y-45830D01*
X40949Y-45920D01*
X40900Y-46038D01*
X40900Y-46165D01*
X40948Y-46283D01*
X41038Y-46373D01*
X41156Y-46422D01*
X41283Y-46422D01*
X41401Y-46374D01*
X41491Y-46284D01*
X41540Y-46166D01*
X41540Y-53805D01*
X41432Y-53697D01*
X41243Y-53619D01*
X41039Y-53619D01*
X40850Y-53697D01*
X40705Y-53842D01*
X40674Y-53915D01*
X40674Y-53214D01*
X40674Y-53087D01*
X40674Y-46245D01*
X40674Y-46118D01*
X40626Y-46000D01*
X40536Y-45910D01*
X40418Y-45861D01*
X40291Y-45861D01*
X40173Y-45909D01*
X40083Y-45999D01*
X40034Y-46117D01*
X40034Y-46244D01*
X40082Y-46362D01*
X40172Y-46452D01*
X40290Y-46501D01*
X40417Y-46501D01*
X40535Y-46453D01*
X40625Y-46363D01*
X40674Y-46245D01*
X40674Y-53087D01*
X40626Y-52969D01*
X40536Y-52879D01*
X40418Y-52830D01*
X40291Y-52830D01*
X40173Y-52878D01*
X40083Y-52968D01*
X40034Y-53086D01*
X40034Y-53213D01*
X40082Y-53331D01*
X40172Y-53421D01*
X40290Y-53470D01*
X40417Y-53470D01*
X40535Y-53422D01*
X40625Y-53332D01*
X40674Y-53214D01*
X40674Y-53915D01*
X40648Y-53978D01*
X40592Y-53842D01*
X40447Y-53697D01*
X40258Y-53619D01*
X40054Y-53619D01*
X39887Y-53687D01*
X39887Y-53214D01*
X39887Y-53087D01*
X39839Y-52969D01*
X39749Y-52879D01*
X39631Y-52830D01*
X39504Y-52830D01*
X39386Y-52878D01*
X39296Y-52968D01*
X39247Y-53086D01*
X39247Y-53213D01*
X39295Y-53331D01*
X39385Y-53421D01*
X39503Y-53470D01*
X39630Y-53470D01*
X39748Y-53422D01*
X39838Y-53332D01*
X39887Y-53214D01*
X39887Y-53687D01*
X39865Y-53697D01*
X39720Y-53842D01*
X39642Y-54031D01*
X39642Y-54235D01*
X39720Y-54424D01*
X39865Y-54569D01*
X40054Y-54647D01*
X40258Y-54647D01*
X40447Y-54569D01*
X40592Y-54424D01*
X40648Y-54287D01*
X40705Y-54424D01*
X40850Y-54569D01*
X41039Y-54647D01*
X41243Y-54647D01*
X41432Y-54569D01*
X41577Y-54424D01*
X41655Y-54235D01*
X41655Y-54881D01*
X41373Y-55163D01*
X41215Y-55543D01*
X41215Y-55707D01*
X41063Y-55707D01*
X40918Y-55767D01*
X40807Y-55878D01*
X40746Y-56023D01*
X40746Y-56180D01*
X40806Y-56325D01*
X40917Y-56436D01*
X41062Y-56497D01*
X41219Y-56497D01*
X41364Y-56437D01*
X41418Y-56382D01*
X41663Y-56627D01*
X42043Y-56785D01*
X42360Y-56785D01*
X42360Y-57765D01*
G36*
X44515Y-43910D02*
X44425Y-43910D01*
X44454Y-43841D01*
X44454Y-43660D01*
X44454Y-42841D01*
X44454Y-42660D01*
X44454Y-41841D01*
X44454Y-41660D01*
X44454Y-40841D01*
X44454Y-40660D01*
X44454Y-39841D01*
X44454Y-39660D01*
X44454Y-38841D01*
X44454Y-38660D01*
X44454Y-37841D01*
X44454Y-37660D01*
X44454Y-36841D01*
X44454Y-36660D01*
X44454Y-35841D01*
X44454Y-35660D01*
X44454Y-34841D01*
X44454Y-34660D01*
X44454Y-33841D01*
X44454Y-33660D01*
X44454Y-32841D01*
X44454Y-32660D01*
X44454Y-31841D01*
X44454Y-31660D01*
X44385Y-31493D01*
X44257Y-31365D01*
X44091Y-31296D01*
X43910Y-31296D01*
X43743Y-31365D01*
X43615Y-31493D01*
X43546Y-31659D01*
X43546Y-31840D01*
X43615Y-32007D01*
X43743Y-32135D01*
X43909Y-32204D01*
X44090Y-32204D01*
X44257Y-32135D01*
X44385Y-32007D01*
X44454Y-31841D01*
X44454Y-32660D01*
X44385Y-32493D01*
X44257Y-32365D01*
X44091Y-32296D01*
X43910Y-32296D01*
X43743Y-32365D01*
X43615Y-32493D01*
X43546Y-32659D01*
X43546Y-32840D01*
X43615Y-33007D01*
X43743Y-33135D01*
X43909Y-33204D01*
X44090Y-33204D01*
X44257Y-33135D01*
X44385Y-33007D01*
X44454Y-32841D01*
X44454Y-33660D01*
X44385Y-33493D01*
X44257Y-33365D01*
X44091Y-33296D01*
X43910Y-33296D01*
X43743Y-33365D01*
X43615Y-33493D01*
X43546Y-33659D01*
X43546Y-33840D01*
X43615Y-34007D01*
X43743Y-34135D01*
X43909Y-34204D01*
X44090Y-34204D01*
X44257Y-34135D01*
X44385Y-34007D01*
X44454Y-33841D01*
X44454Y-34660D01*
X44385Y-34493D01*
X44257Y-34365D01*
X44091Y-34296D01*
X43910Y-34296D01*
X43743Y-34365D01*
X43615Y-34493D01*
X43546Y-34659D01*
X43546Y-34840D01*
X43615Y-35007D01*
X43743Y-35135D01*
X43909Y-35204D01*
X44090Y-35204D01*
X44257Y-35135D01*
X44385Y-35007D01*
X44454Y-34841D01*
X44454Y-35660D01*
X44385Y-35493D01*
X44257Y-35365D01*
X44091Y-35296D01*
X43910Y-35296D01*
X43743Y-35365D01*
X43615Y-35493D01*
X43546Y-35659D01*
X43546Y-35840D01*
X43615Y-36007D01*
X43743Y-36135D01*
X43909Y-36204D01*
X44090Y-36204D01*
X44257Y-36135D01*
X44385Y-36007D01*
X44454Y-35841D01*
X44454Y-36660D01*
X44385Y-36493D01*
X44257Y-36365D01*
X44091Y-36296D01*
X43910Y-36296D01*
X43743Y-36365D01*
X43615Y-36493D01*
X43546Y-36659D01*
X43546Y-36840D01*
X43615Y-37007D01*
X43743Y-37135D01*
X43909Y-37204D01*
X44090Y-37204D01*
X44257Y-37135D01*
X44385Y-37007D01*
X44454Y-36841D01*
X44454Y-37660D01*
X44385Y-37493D01*
X44257Y-37365D01*
X44091Y-37296D01*
X43910Y-37296D01*
X43743Y-37365D01*
X43615Y-37493D01*
X43546Y-37659D01*
X43546Y-37840D01*
X43615Y-38007D01*
X43743Y-38135D01*
X43909Y-38204D01*
X44090Y-38204D01*
X44257Y-38135D01*
X44385Y-38007D01*
X44454Y-37841D01*
X44454Y-38660D01*
X44385Y-38493D01*
X44257Y-38365D01*
X44091Y-38296D01*
X43910Y-38296D01*
X43743Y-38365D01*
X43615Y-38493D01*
X43546Y-38659D01*
X43546Y-38840D01*
X43615Y-39007D01*
X43743Y-39135D01*
X43909Y-39204D01*
X44090Y-39204D01*
X44257Y-39135D01*
X44385Y-39007D01*
X44454Y-38841D01*
X44454Y-39660D01*
X44385Y-39493D01*
X44257Y-39365D01*
X44091Y-39296D01*
X43910Y-39296D01*
X43743Y-39365D01*
X43615Y-39493D01*
X43546Y-39659D01*
X43546Y-39840D01*
X43615Y-40007D01*
X43743Y-40135D01*
X43909Y-40204D01*
X44090Y-40204D01*
X44257Y-40135D01*
X44385Y-40007D01*
X44454Y-39841D01*
X44454Y-40660D01*
X44385Y-40493D01*
X44257Y-40365D01*
X44091Y-40296D01*
X43910Y-40296D01*
X43743Y-40365D01*
X43615Y-40493D01*
X43546Y-40659D01*
X43546Y-40840D01*
X43615Y-41007D01*
X43743Y-41135D01*
X43909Y-41204D01*
X44090Y-41204D01*
X44257Y-41135D01*
X44385Y-41007D01*
X44454Y-40841D01*
X44454Y-41660D01*
X44385Y-41493D01*
X44257Y-41365D01*
X44091Y-41296D01*
X43910Y-41296D01*
X43743Y-41365D01*
X43615Y-41493D01*
X43546Y-41659D01*
X43546Y-41840D01*
X43615Y-42007D01*
X43743Y-42135D01*
X43909Y-42204D01*
X44090Y-42204D01*
X44257Y-42135D01*
X44385Y-42007D01*
X44454Y-41841D01*
X44454Y-42660D01*
X44385Y-42493D01*
X44257Y-42365D01*
X44091Y-42296D01*
X43910Y-42296D01*
X43743Y-42365D01*
X43615Y-42493D01*
X43546Y-42659D01*
X43546Y-42840D01*
X43615Y-43007D01*
X43743Y-43135D01*
X43909Y-43204D01*
X44090Y-43204D01*
X44257Y-43135D01*
X44385Y-43007D01*
X44454Y-42841D01*
X44454Y-43660D01*
X44385Y-43493D01*
X44257Y-43365D01*
X44091Y-43296D01*
X43910Y-43296D01*
X43743Y-43365D01*
X43615Y-43493D01*
X43546Y-43659D01*
X43546Y-43840D01*
X43574Y-43910D01*
X43425Y-43910D01*
X43454Y-43841D01*
X43454Y-43660D01*
X43454Y-42841D01*
X43454Y-42660D01*
X43454Y-41841D01*
X43454Y-41660D01*
X43454Y-40841D01*
X43454Y-40660D01*
X43454Y-39841D01*
X43454Y-39660D01*
X43454Y-38841D01*
X43454Y-38660D01*
X43454Y-37841D01*
X43454Y-37660D01*
X43454Y-36841D01*
X43454Y-36660D01*
X43454Y-35841D01*
X43454Y-35660D01*
X43454Y-34841D01*
X43454Y-34660D01*
X43454Y-33841D01*
X43454Y-33660D01*
X43454Y-32841D01*
X43454Y-32660D01*
X43454Y-31841D01*
X43454Y-31660D01*
X43385Y-31493D01*
X43257Y-31365D01*
X43091Y-31296D01*
X42910Y-31296D01*
X42743Y-31365D01*
X42615Y-31493D01*
X42546Y-31659D01*
X42546Y-31840D01*
X42615Y-32007D01*
X42743Y-32135D01*
X42909Y-32204D01*
X43090Y-32204D01*
X43257Y-32135D01*
X43385Y-32007D01*
X43454Y-31841D01*
X43454Y-32660D01*
X43385Y-32493D01*
X43257Y-32365D01*
X43091Y-32296D01*
X42910Y-32296D01*
X42743Y-32365D01*
X42615Y-32493D01*
X42546Y-32659D01*
X42546Y-32840D01*
X42615Y-33007D01*
X42743Y-33135D01*
X42909Y-33204D01*
X43090Y-33204D01*
X43257Y-33135D01*
X43385Y-33007D01*
X43454Y-32841D01*
X43454Y-33660D01*
X43385Y-33493D01*
X43257Y-33365D01*
X43091Y-33296D01*
X42910Y-33296D01*
X42743Y-33365D01*
X42615Y-33493D01*
X42546Y-33659D01*
X42546Y-33840D01*
X42615Y-34007D01*
X42743Y-34135D01*
X42909Y-34204D01*
X43090Y-34204D01*
X43257Y-34135D01*
X43385Y-34007D01*
X43454Y-33841D01*
X43454Y-34660D01*
X43385Y-34493D01*
X43257Y-34365D01*
X43091Y-34296D01*
X42910Y-34296D01*
X42743Y-34365D01*
X42615Y-34493D01*
X42546Y-34659D01*
X42546Y-34840D01*
X42615Y-35007D01*
X42743Y-35135D01*
X42909Y-35204D01*
X43090Y-35204D01*
X43257Y-35135D01*
X43385Y-35007D01*
X43454Y-34841D01*
X43454Y-35660D01*
X43385Y-35493D01*
X43257Y-35365D01*
X43091Y-35296D01*
X42910Y-35296D01*
X42743Y-35365D01*
X42615Y-35493D01*
X42546Y-35659D01*
X42546Y-35840D01*
X42615Y-36007D01*
X42743Y-36135D01*
X42909Y-36204D01*
X43090Y-36204D01*
X43257Y-36135D01*
X43385Y-36007D01*
X43454Y-35841D01*
X43454Y-36660D01*
X43385Y-36493D01*
X43257Y-36365D01*
X43091Y-36296D01*
X42910Y-36296D01*
X42743Y-36365D01*
X42615Y-36493D01*
X42546Y-36659D01*
X42546Y-36840D01*
X42615Y-37007D01*
X42743Y-37135D01*
X42909Y-37204D01*
X43090Y-37204D01*
X43257Y-37135D01*
X43385Y-37007D01*
X43454Y-36841D01*
X43454Y-37660D01*
X43385Y-37493D01*
X43257Y-37365D01*
X43091Y-37296D01*
X42910Y-37296D01*
X42743Y-37365D01*
X42615Y-37493D01*
X42546Y-37659D01*
X42546Y-37840D01*
X42615Y-38007D01*
X42743Y-38135D01*
X42909Y-38204D01*
X43090Y-38204D01*
X43257Y-38135D01*
X43385Y-38007D01*
X43454Y-37841D01*
X43454Y-38660D01*
X43385Y-38493D01*
X43257Y-38365D01*
X43091Y-38296D01*
X42910Y-38296D01*
X42743Y-38365D01*
X42615Y-38493D01*
X42546Y-38659D01*
X42546Y-38840D01*
X42615Y-39007D01*
X42743Y-39135D01*
X42909Y-39204D01*
X43090Y-39204D01*
X43257Y-39135D01*
X43385Y-39007D01*
X43454Y-38841D01*
X43454Y-39660D01*
X43385Y-39493D01*
X43257Y-39365D01*
X43091Y-39296D01*
X42910Y-39296D01*
X42743Y-39365D01*
X42615Y-39493D01*
X42546Y-39659D01*
X42546Y-39840D01*
X42615Y-40007D01*
X42743Y-40135D01*
X42909Y-40204D01*
X43090Y-40204D01*
X43257Y-40135D01*
X43385Y-40007D01*
X43454Y-39841D01*
X43454Y-40660D01*
X43385Y-40493D01*
X43257Y-40365D01*
X43091Y-40296D01*
X42910Y-40296D01*
X42743Y-40365D01*
X42615Y-40493D01*
X42546Y-40659D01*
X42546Y-40840D01*
X42615Y-41007D01*
X42743Y-41135D01*
X42909Y-41204D01*
X43090Y-41204D01*
X43257Y-41135D01*
X43385Y-41007D01*
X43454Y-40841D01*
X43454Y-41660D01*
X43385Y-41493D01*
X43257Y-41365D01*
X43091Y-41296D01*
X42910Y-41296D01*
X42743Y-41365D01*
X42615Y-41493D01*
X42546Y-41659D01*
X42546Y-41840D01*
X42615Y-42007D01*
X42743Y-42135D01*
X42909Y-42204D01*
X43090Y-42204D01*
X43257Y-42135D01*
X43385Y-42007D01*
X43454Y-41841D01*
X43454Y-42660D01*
X43385Y-42493D01*
X43257Y-42365D01*
X43091Y-42296D01*
X42910Y-42296D01*
X42743Y-42365D01*
X42615Y-42493D01*
X42546Y-42659D01*
X42546Y-42840D01*
X42615Y-43007D01*
X42743Y-43135D01*
X42909Y-43204D01*
X43090Y-43204D01*
X43257Y-43135D01*
X43385Y-43007D01*
X43454Y-42841D01*
X43454Y-43660D01*
X43385Y-43493D01*
X43257Y-43365D01*
X43091Y-43296D01*
X42910Y-43296D01*
X42743Y-43365D01*
X42615Y-43493D01*
X42546Y-43659D01*
X42546Y-43840D01*
X42574Y-43910D01*
X39966Y-43910D01*
X39966Y-42662D01*
X39966Y-42535D01*
X39918Y-42417D01*
X39828Y-42327D01*
X39710Y-42278D01*
X39583Y-42278D01*
X39465Y-42326D01*
X39375Y-42416D01*
X39326Y-42534D01*
X39326Y-42661D01*
X39374Y-42779D01*
X39464Y-42869D01*
X39582Y-42918D01*
X39709Y-42918D01*
X39827Y-42870D01*
X39917Y-42780D01*
X39966Y-42662D01*
X39966Y-43910D01*
X39178Y-43910D01*
X39178Y-41993D01*
X39178Y-41866D01*
X39130Y-41748D01*
X39040Y-41658D01*
X38922Y-41609D01*
X38795Y-41609D01*
X38677Y-41657D01*
X38587Y-41747D01*
X38548Y-41840D01*
X38548Y-40615D01*
X38548Y-40488D01*
X38500Y-40370D01*
X38410Y-40280D01*
X38292Y-40231D01*
X38165Y-40231D01*
X38047Y-40279D01*
X37957Y-40369D01*
X37908Y-40487D01*
X37908Y-40614D01*
X37956Y-40732D01*
X38046Y-40822D01*
X38164Y-40871D01*
X38291Y-40871D01*
X38409Y-40823D01*
X38499Y-40733D01*
X38548Y-40615D01*
X38548Y-41840D01*
X38538Y-41865D01*
X38538Y-41992D01*
X38586Y-42110D01*
X38676Y-42200D01*
X38794Y-42249D01*
X38921Y-42249D01*
X39039Y-42201D01*
X39129Y-42111D01*
X39178Y-41993D01*
X39178Y-43910D01*
X38700Y-43910D01*
X38745Y-43804D01*
X38745Y-43677D01*
X38697Y-43559D01*
X38607Y-43469D01*
X38489Y-43420D01*
X38362Y-43420D01*
X38244Y-43468D01*
X38154Y-43558D01*
X38105Y-43676D01*
X38105Y-43803D01*
X38148Y-43910D01*
X37525Y-43910D01*
X37525Y-41009D01*
X37525Y-40882D01*
X37477Y-40764D01*
X37387Y-40674D01*
X37269Y-40625D01*
X37142Y-40625D01*
X37024Y-40673D01*
X36934Y-40763D01*
X36885Y-40881D01*
X36885Y-41008D01*
X36933Y-41126D01*
X37023Y-41216D01*
X37141Y-41265D01*
X37268Y-41265D01*
X37386Y-41217D01*
X37476Y-41127D01*
X37525Y-41009D01*
X37525Y-43910D01*
X37210Y-43910D01*
X37210Y-42938D01*
X37210Y-42811D01*
X37162Y-42693D01*
X37072Y-42603D01*
X36954Y-42554D01*
X36827Y-42554D01*
X36709Y-42602D01*
X36619Y-42692D01*
X36570Y-42810D01*
X36570Y-42937D01*
X36618Y-43055D01*
X36708Y-43145D01*
X36826Y-43194D01*
X36953Y-43194D01*
X37071Y-43146D01*
X37161Y-43056D01*
X37210Y-42938D01*
X37210Y-43910D01*
X37052Y-43910D01*
X37052Y-43835D01*
X37004Y-43717D01*
X36914Y-43627D01*
X36796Y-43578D01*
X36669Y-43578D01*
X36551Y-43626D01*
X36501Y-43676D01*
X36501Y-42229D01*
X36501Y-42102D01*
X36501Y-40576D01*
X36501Y-40449D01*
X36453Y-40331D01*
X36363Y-40241D01*
X36245Y-40192D01*
X36118Y-40192D01*
X36000Y-40240D01*
X35910Y-40330D01*
X35861Y-40448D01*
X35861Y-40575D01*
X35909Y-40693D01*
X35999Y-40783D01*
X36117Y-40832D01*
X36244Y-40832D01*
X36362Y-40784D01*
X36452Y-40694D01*
X36501Y-40576D01*
X36501Y-42102D01*
X36453Y-41984D01*
X36363Y-41894D01*
X36245Y-41845D01*
X36118Y-41845D01*
X36000Y-41893D01*
X35910Y-41983D01*
X35861Y-42101D01*
X35861Y-42228D01*
X35909Y-42346D01*
X35999Y-42436D01*
X36117Y-42485D01*
X36244Y-42485D01*
X36362Y-42437D01*
X36452Y-42347D01*
X36501Y-42229D01*
X36501Y-43676D01*
X36461Y-43716D01*
X36412Y-43834D01*
X36412Y-43910D01*
X35714Y-43910D01*
X35714Y-43568D01*
X35714Y-43441D01*
X35666Y-43323D01*
X35576Y-43233D01*
X35556Y-43224D01*
X35556Y-42544D01*
X35556Y-42417D01*
X35508Y-42299D01*
X35418Y-42209D01*
X35300Y-42160D01*
X35173Y-42160D01*
X35055Y-42208D01*
X34965Y-42298D01*
X34916Y-42416D01*
X34916Y-42543D01*
X34964Y-42661D01*
X35054Y-42751D01*
X35172Y-42800D01*
X35299Y-42800D01*
X35417Y-42752D01*
X35507Y-42662D01*
X35556Y-42544D01*
X35556Y-43224D01*
X35458Y-43184D01*
X35331Y-43184D01*
X35213Y-43232D01*
X35123Y-43322D01*
X35074Y-43440D01*
X35074Y-43567D01*
X35122Y-43685D01*
X35212Y-43775D01*
X35330Y-43824D01*
X35457Y-43824D01*
X35575Y-43776D01*
X35665Y-43686D01*
X35714Y-43568D01*
X35714Y-43910D01*
X34218Y-43910D01*
X34218Y-43835D01*
X34170Y-43717D01*
X34095Y-43642D01*
X34169Y-43568D01*
X34218Y-43450D01*
X34218Y-43323D01*
X34170Y-43205D01*
X34080Y-43115D01*
X34060Y-43106D01*
X34060Y-42229D01*
X34060Y-42102D01*
X34060Y-40576D01*
X34060Y-40449D01*
X34012Y-40331D01*
X33922Y-40241D01*
X33804Y-40192D01*
X33677Y-40192D01*
X33559Y-40240D01*
X33469Y-40330D01*
X33420Y-40448D01*
X33420Y-40575D01*
X33468Y-40693D01*
X33558Y-40783D01*
X33676Y-40832D01*
X33803Y-40832D01*
X33921Y-40784D01*
X34011Y-40694D01*
X34060Y-40576D01*
X34060Y-42102D01*
X34012Y-41984D01*
X33922Y-41894D01*
X33804Y-41845D01*
X33677Y-41845D01*
X33559Y-41893D01*
X33469Y-41983D01*
X33420Y-42101D01*
X33420Y-42228D01*
X33468Y-42346D01*
X33558Y-42436D01*
X33676Y-42485D01*
X33803Y-42485D01*
X33921Y-42437D01*
X34011Y-42347D01*
X34060Y-42229D01*
X34060Y-43106D01*
X33962Y-43066D01*
X33835Y-43066D01*
X33717Y-43114D01*
X33627Y-43204D01*
X33578Y-43322D01*
X33578Y-43449D01*
X33626Y-43567D01*
X33701Y-43642D01*
X33627Y-43716D01*
X33578Y-43834D01*
X33578Y-43961D01*
X33579Y-43963D01*
X32958Y-44584D01*
X32958Y-44237D01*
X32958Y-44110D01*
X32910Y-43992D01*
X32835Y-43917D01*
X32909Y-43844D01*
X32958Y-43726D01*
X32958Y-43599D01*
X32910Y-43481D01*
X32835Y-43406D01*
X32909Y-43332D01*
X32958Y-43214D01*
X32958Y-43087D01*
X32910Y-42969D01*
X32854Y-42913D01*
X32909Y-42859D01*
X32958Y-42741D01*
X32958Y-42614D01*
X32910Y-42496D01*
X32820Y-42406D01*
X32702Y-42357D01*
X32575Y-42357D01*
X32457Y-42405D01*
X32367Y-42495D01*
X32318Y-42613D01*
X32318Y-42740D01*
X32366Y-42858D01*
X32421Y-42913D01*
X32367Y-42968D01*
X32318Y-43086D01*
X32318Y-43213D01*
X32366Y-43331D01*
X32441Y-43406D01*
X32367Y-43480D01*
X32318Y-43598D01*
X32318Y-43725D01*
X32366Y-43843D01*
X32440Y-43917D01*
X32367Y-43991D01*
X32318Y-44109D01*
X32318Y-44236D01*
X32366Y-44354D01*
X32456Y-44444D01*
X32574Y-44493D01*
X32701Y-44493D01*
X32819Y-44445D01*
X32909Y-44355D01*
X32958Y-44237D01*
X32958Y-44584D01*
X32683Y-44860D01*
X30162Y-44860D01*
X30162Y-29552D01*
X30162Y-29425D01*
X30114Y-29307D01*
X30024Y-29217D01*
X29906Y-29168D01*
X29848Y-29168D01*
X29848Y-28292D01*
X29848Y-28165D01*
X29800Y-28047D01*
X29710Y-27957D01*
X29592Y-27908D01*
X29465Y-27908D01*
X29347Y-27956D01*
X29257Y-28046D01*
X29208Y-28164D01*
X29208Y-28291D01*
X29256Y-28409D01*
X29346Y-28499D01*
X29464Y-28548D01*
X29591Y-28548D01*
X29709Y-28500D01*
X29799Y-28410D01*
X29848Y-28292D01*
X29848Y-29168D01*
X29779Y-29168D01*
X29661Y-29216D01*
X29571Y-29306D01*
X29522Y-29424D01*
X29522Y-29551D01*
X29570Y-29669D01*
X29660Y-29759D01*
X29778Y-29808D01*
X29905Y-29808D01*
X30023Y-29760D01*
X30113Y-29670D01*
X30162Y-29552D01*
X30162Y-44860D01*
X29583Y-44860D01*
X29060Y-45383D01*
X29060Y-28292D01*
X29060Y-28165D01*
X29012Y-28047D01*
X28922Y-27957D01*
X28804Y-27908D01*
X28677Y-27908D01*
X28559Y-27956D01*
X28469Y-28046D01*
X28420Y-28164D01*
X28420Y-28291D01*
X28468Y-28409D01*
X28558Y-28499D01*
X28676Y-28548D01*
X28803Y-28548D01*
X28921Y-28500D01*
X29011Y-28410D01*
X29060Y-28292D01*
X29060Y-45383D01*
X28666Y-45777D01*
X28666Y-29198D01*
X28666Y-29071D01*
X28618Y-28953D01*
X28528Y-28863D01*
X28410Y-28814D01*
X28283Y-28814D01*
X28165Y-28862D01*
X28075Y-28952D01*
X28026Y-29070D01*
X28026Y-29197D01*
X28074Y-29315D01*
X28164Y-29405D01*
X28282Y-29454D01*
X28409Y-29454D01*
X28527Y-29406D01*
X28617Y-29316D01*
X28666Y-29198D01*
X28666Y-45777D01*
X28430Y-46013D01*
X28430Y-30891D01*
X28430Y-30764D01*
X28382Y-30646D01*
X28292Y-30556D01*
X28174Y-30507D01*
X28047Y-30507D01*
X27929Y-30555D01*
X27918Y-30566D01*
X27918Y-28056D01*
X27918Y-27929D01*
X27870Y-27811D01*
X27780Y-27721D01*
X27662Y-27672D01*
X27535Y-27672D01*
X27417Y-27720D01*
X27327Y-27810D01*
X27278Y-27928D01*
X27278Y-28055D01*
X27326Y-28173D01*
X27416Y-28263D01*
X27534Y-28312D01*
X27661Y-28312D01*
X27779Y-28264D01*
X27869Y-28174D01*
X27918Y-28056D01*
X27918Y-30566D01*
X27839Y-30645D01*
X27790Y-30763D01*
X27790Y-30890D01*
X27838Y-31008D01*
X27928Y-31098D01*
X28046Y-31147D01*
X28173Y-31147D01*
X28291Y-31099D01*
X28381Y-31009D01*
X28430Y-30891D01*
X28430Y-46013D01*
X28037Y-46406D01*
X28037Y-40182D01*
X28037Y-40055D01*
X27989Y-39937D01*
X27899Y-39847D01*
X27781Y-39798D01*
X27722Y-39798D01*
X27722Y-30891D01*
X27722Y-30764D01*
X27674Y-30646D01*
X27584Y-30556D01*
X27466Y-30507D01*
X27339Y-30507D01*
X27221Y-30555D01*
X27131Y-30645D01*
X27082Y-30763D01*
X27082Y-30890D01*
X27130Y-31008D01*
X27220Y-31098D01*
X27338Y-31147D01*
X27465Y-31147D01*
X27583Y-31099D01*
X27673Y-31009D01*
X27722Y-30891D01*
X27722Y-39798D01*
X27654Y-39798D01*
X27643Y-39802D01*
X27643Y-39740D01*
X27595Y-39622D01*
X27505Y-39532D01*
X27387Y-39483D01*
X27260Y-39483D01*
X27142Y-39531D01*
X27052Y-39621D01*
X27003Y-39739D01*
X27003Y-39866D01*
X27051Y-39984D01*
X27141Y-40074D01*
X27259Y-40123D01*
X27386Y-40123D01*
X27397Y-40118D01*
X27397Y-40181D01*
X27445Y-40299D01*
X27535Y-40389D01*
X27653Y-40438D01*
X27780Y-40438D01*
X27898Y-40390D01*
X27988Y-40300D01*
X28037Y-40182D01*
X28037Y-46406D01*
X27910Y-46533D01*
X27910Y-50433D01*
X27328Y-51015D01*
X27328Y-46954D01*
X27328Y-46827D01*
X27328Y-46245D01*
X27328Y-46118D01*
X27328Y-45536D01*
X27328Y-45409D01*
X27328Y-44119D01*
X27328Y-43992D01*
X27328Y-43410D01*
X27328Y-43283D01*
X27328Y-41993D01*
X27328Y-41866D01*
X27328Y-40576D01*
X27328Y-40449D01*
X27280Y-40331D01*
X27190Y-40241D01*
X27072Y-40192D01*
X26945Y-40192D01*
X26827Y-40240D01*
X26737Y-40330D01*
X26688Y-40448D01*
X26688Y-40575D01*
X26736Y-40693D01*
X26826Y-40783D01*
X26944Y-40832D01*
X27071Y-40832D01*
X27189Y-40784D01*
X27279Y-40694D01*
X27328Y-40576D01*
X27328Y-41866D01*
X27280Y-41748D01*
X27190Y-41658D01*
X27072Y-41609D01*
X26945Y-41609D01*
X26827Y-41657D01*
X26737Y-41747D01*
X26688Y-41865D01*
X26688Y-41992D01*
X26736Y-42110D01*
X26826Y-42200D01*
X26944Y-42249D01*
X27071Y-42249D01*
X27189Y-42201D01*
X27279Y-42111D01*
X27328Y-41993D01*
X27328Y-43283D01*
X27280Y-43165D01*
X27190Y-43075D01*
X27072Y-43026D01*
X26945Y-43026D01*
X26827Y-43074D01*
X26737Y-43164D01*
X26688Y-43282D01*
X26688Y-43409D01*
X26736Y-43527D01*
X26826Y-43617D01*
X26944Y-43666D01*
X27071Y-43666D01*
X27189Y-43618D01*
X27279Y-43528D01*
X27328Y-43410D01*
X27328Y-43992D01*
X27280Y-43874D01*
X27190Y-43784D01*
X27072Y-43735D01*
X26945Y-43735D01*
X26827Y-43783D01*
X26737Y-43873D01*
X26688Y-43991D01*
X26688Y-44118D01*
X26736Y-44236D01*
X26826Y-44326D01*
X26944Y-44375D01*
X27071Y-44375D01*
X27189Y-44327D01*
X27279Y-44237D01*
X27328Y-44119D01*
X27328Y-45409D01*
X27280Y-45291D01*
X27190Y-45201D01*
X27072Y-45152D01*
X26945Y-45152D01*
X26827Y-45200D01*
X26737Y-45290D01*
X26688Y-45408D01*
X26688Y-45535D01*
X26736Y-45653D01*
X26826Y-45743D01*
X26944Y-45792D01*
X27071Y-45792D01*
X27189Y-45744D01*
X27279Y-45654D01*
X27328Y-45536D01*
X27328Y-46118D01*
X27280Y-46000D01*
X27190Y-45910D01*
X27072Y-45861D01*
X26945Y-45861D01*
X26827Y-45909D01*
X26737Y-45999D01*
X26688Y-46117D01*
X26688Y-46244D01*
X26736Y-46362D01*
X26826Y-46452D01*
X26944Y-46501D01*
X27071Y-46501D01*
X27189Y-46453D01*
X27279Y-46363D01*
X27328Y-46245D01*
X27328Y-46827D01*
X27280Y-46709D01*
X27190Y-46619D01*
X27072Y-46570D01*
X26945Y-46570D01*
X26827Y-46618D01*
X26737Y-46708D01*
X26688Y-46826D01*
X26688Y-46953D01*
X26736Y-47071D01*
X26826Y-47161D01*
X26944Y-47210D01*
X27071Y-47210D01*
X27189Y-47162D01*
X27279Y-47072D01*
X27328Y-46954D01*
X27328Y-51015D01*
X26737Y-51606D01*
X26737Y-48450D01*
X26737Y-48323D01*
X26689Y-48205D01*
X26599Y-48115D01*
X26481Y-48066D01*
X26354Y-48066D01*
X26236Y-48114D01*
X26146Y-48204D01*
X26097Y-48322D01*
X26097Y-48449D01*
X26145Y-48567D01*
X26235Y-48657D01*
X26353Y-48706D01*
X26480Y-48706D01*
X26598Y-48658D01*
X26688Y-48568D01*
X26737Y-48450D01*
X26737Y-51606D01*
X25710Y-52633D01*
X25710Y-53983D01*
X25483Y-54210D01*
X25454Y-54210D01*
X25454Y-53841D01*
X25454Y-53660D01*
X25454Y-52841D01*
X25454Y-52660D01*
X25454Y-51841D01*
X25454Y-51660D01*
X25454Y-50841D01*
X25454Y-50660D01*
X25454Y-49841D01*
X25454Y-49660D01*
X25454Y-48841D01*
X25454Y-48660D01*
X25454Y-47841D01*
X25454Y-47660D01*
X25454Y-46841D01*
X25454Y-46660D01*
X25454Y-45841D01*
X25454Y-45660D01*
X25454Y-44841D01*
X25454Y-44660D01*
X25454Y-43841D01*
X25454Y-43660D01*
X25454Y-42841D01*
X25454Y-42660D01*
X25454Y-41841D01*
X25454Y-41660D01*
X25454Y-40841D01*
X25454Y-40660D01*
X25454Y-39841D01*
X25454Y-39660D01*
X25454Y-38841D01*
X25454Y-38660D01*
X25454Y-37841D01*
X25454Y-37660D01*
X25454Y-36841D01*
X25454Y-36660D01*
X25454Y-35841D01*
X25454Y-35660D01*
X25454Y-34841D01*
X25454Y-34660D01*
X25454Y-33841D01*
X25454Y-33660D01*
X25454Y-31841D01*
X25454Y-31660D01*
X25385Y-31493D01*
X25257Y-31365D01*
X25091Y-31296D01*
X24910Y-31296D01*
X24743Y-31365D01*
X24615Y-31493D01*
X24546Y-31659D01*
X24546Y-31840D01*
X24615Y-32007D01*
X24743Y-32135D01*
X24909Y-32204D01*
X25090Y-32204D01*
X25257Y-32135D01*
X25385Y-32007D01*
X25454Y-31841D01*
X25454Y-33660D01*
X25408Y-33548D01*
X25408Y-32827D01*
X25406Y-32665D01*
X25347Y-32523D01*
X25286Y-32493D01*
X25257Y-32521D01*
X25257Y-32464D01*
X25227Y-32403D01*
X25077Y-32342D01*
X24915Y-32344D01*
X24773Y-32403D01*
X24743Y-32464D01*
X25000Y-32722D01*
X25257Y-32464D01*
X25257Y-32521D01*
X25028Y-32750D01*
X25286Y-33007D01*
X25347Y-32977D01*
X25408Y-32827D01*
X25408Y-33548D01*
X25385Y-33493D01*
X25257Y-33365D01*
X25257Y-33036D01*
X25000Y-32778D01*
X24972Y-32806D01*
X24972Y-32750D01*
X24714Y-32493D01*
X24653Y-32523D01*
X24592Y-32673D01*
X24594Y-32835D01*
X24653Y-32977D01*
X24714Y-33007D01*
X24972Y-32750D01*
X24972Y-32806D01*
X24743Y-33036D01*
X24773Y-33097D01*
X24923Y-33158D01*
X25085Y-33156D01*
X25227Y-33097D01*
X25257Y-33036D01*
X25257Y-33365D01*
X25091Y-33296D01*
X24910Y-33296D01*
X24743Y-33365D01*
X24615Y-33493D01*
X24546Y-33659D01*
X24546Y-33840D01*
X24615Y-34007D01*
X24743Y-34135D01*
X24909Y-34204D01*
X25090Y-34204D01*
X25257Y-34135D01*
X25385Y-34007D01*
X25454Y-33841D01*
X25454Y-34660D01*
X25385Y-34493D01*
X25257Y-34365D01*
X25091Y-34296D01*
X24910Y-34296D01*
X24743Y-34365D01*
X24615Y-34493D01*
X24546Y-34659D01*
X24546Y-34840D01*
X24615Y-35007D01*
X24743Y-35135D01*
X24909Y-35204D01*
X25090Y-35204D01*
X25257Y-35135D01*
X25385Y-35007D01*
X25454Y-34841D01*
X25454Y-35660D01*
X25385Y-35493D01*
X25257Y-35365D01*
X25091Y-35296D01*
X24910Y-35296D01*
X24743Y-35365D01*
X24615Y-35493D01*
X24546Y-35659D01*
X24546Y-35840D01*
X24615Y-36007D01*
X24743Y-36135D01*
X24909Y-36204D01*
X25090Y-36204D01*
X25257Y-36135D01*
X25385Y-36007D01*
X25454Y-35841D01*
X25454Y-36660D01*
X25385Y-36493D01*
X25257Y-36365D01*
X25091Y-36296D01*
X24910Y-36296D01*
X24743Y-36365D01*
X24615Y-36493D01*
X24546Y-36659D01*
X24546Y-36840D01*
X24615Y-37007D01*
X24743Y-37135D01*
X24909Y-37204D01*
X25090Y-37204D01*
X25257Y-37135D01*
X25385Y-37007D01*
X25454Y-36841D01*
X25454Y-37660D01*
X25385Y-37493D01*
X25257Y-37365D01*
X25091Y-37296D01*
X24910Y-37296D01*
X24743Y-37365D01*
X24615Y-37493D01*
X24546Y-37659D01*
X24546Y-37840D01*
X24615Y-38007D01*
X24743Y-38135D01*
X24909Y-38204D01*
X25090Y-38204D01*
X25257Y-38135D01*
X25385Y-38007D01*
X25454Y-37841D01*
X25454Y-38660D01*
X25385Y-38493D01*
X25257Y-38365D01*
X25091Y-38296D01*
X24910Y-38296D01*
X24743Y-38365D01*
X24615Y-38493D01*
X24546Y-38659D01*
X24546Y-38840D01*
X24615Y-39007D01*
X24743Y-39135D01*
X24909Y-39204D01*
X25090Y-39204D01*
X25257Y-39135D01*
X25385Y-39007D01*
X25454Y-38841D01*
X25454Y-39660D01*
X25385Y-39493D01*
X25257Y-39365D01*
X25091Y-39296D01*
X24910Y-39296D01*
X24743Y-39365D01*
X24615Y-39493D01*
X24546Y-39659D01*
X24546Y-39840D01*
X24615Y-40007D01*
X24743Y-40135D01*
X24909Y-40204D01*
X25090Y-40204D01*
X25257Y-40135D01*
X25385Y-40007D01*
X25454Y-39841D01*
X25454Y-40660D01*
X25385Y-40493D01*
X25257Y-40365D01*
X25091Y-40296D01*
X24910Y-40296D01*
X24743Y-40365D01*
X24615Y-40493D01*
X24546Y-40659D01*
X24546Y-40840D01*
X24615Y-41007D01*
X24743Y-41135D01*
X24909Y-41204D01*
X25090Y-41204D01*
X25257Y-41135D01*
X25385Y-41007D01*
X25454Y-40841D01*
X25454Y-41660D01*
X25385Y-41493D01*
X25257Y-41365D01*
X25091Y-41296D01*
X24910Y-41296D01*
X24743Y-41365D01*
X24615Y-41493D01*
X24546Y-41659D01*
X24546Y-41840D01*
X24615Y-42007D01*
X24743Y-42135D01*
X24909Y-42204D01*
X25090Y-42204D01*
X25257Y-42135D01*
X25385Y-42007D01*
X25454Y-41841D01*
X25454Y-42660D01*
X25385Y-42493D01*
X25257Y-42365D01*
X25091Y-42296D01*
X24910Y-42296D01*
X24743Y-42365D01*
X24615Y-42493D01*
X24546Y-42659D01*
X24546Y-42840D01*
X24615Y-43007D01*
X24743Y-43135D01*
X24909Y-43204D01*
X25090Y-43204D01*
X25257Y-43135D01*
X25385Y-43007D01*
X25454Y-42841D01*
X25454Y-43660D01*
X25385Y-43493D01*
X25257Y-43365D01*
X25091Y-43296D01*
X24910Y-43296D01*
X24743Y-43365D01*
X24615Y-43493D01*
X24546Y-43659D01*
X24546Y-43840D01*
X24615Y-44007D01*
X24743Y-44135D01*
X24909Y-44204D01*
X25090Y-44204D01*
X25257Y-44135D01*
X25385Y-44007D01*
X25454Y-43841D01*
X25454Y-44660D01*
X25385Y-44493D01*
X25257Y-44365D01*
X25091Y-44296D01*
X24910Y-44296D01*
X24743Y-44365D01*
X24615Y-44493D01*
X24546Y-44659D01*
X24546Y-44840D01*
X24615Y-45007D01*
X24743Y-45135D01*
X24909Y-45204D01*
X25090Y-45204D01*
X25257Y-45135D01*
X25385Y-45007D01*
X25454Y-44841D01*
X25454Y-45660D01*
X25385Y-45493D01*
X25257Y-45365D01*
X25091Y-45296D01*
X24910Y-45296D01*
X24743Y-45365D01*
X24615Y-45493D01*
X24546Y-45659D01*
X24546Y-45840D01*
X24615Y-46007D01*
X24743Y-46135D01*
X24909Y-46204D01*
X25090Y-46204D01*
X25257Y-46135D01*
X25385Y-46007D01*
X25454Y-45841D01*
X25454Y-46660D01*
X25385Y-46493D01*
X25257Y-46365D01*
X25091Y-46296D01*
X24910Y-46296D01*
X24743Y-46365D01*
X24615Y-46493D01*
X24546Y-46659D01*
X24546Y-46840D01*
X24615Y-47007D01*
X24743Y-47135D01*
X24909Y-47204D01*
X25090Y-47204D01*
X25257Y-47135D01*
X25385Y-47007D01*
X25454Y-46841D01*
X25454Y-47660D01*
X25385Y-47493D01*
X25257Y-47365D01*
X25091Y-47296D01*
X24910Y-47296D01*
X24743Y-47365D01*
X24615Y-47493D01*
X24546Y-47659D01*
X24546Y-47840D01*
X24615Y-48007D01*
X24743Y-48135D01*
X24909Y-48204D01*
X25090Y-48204D01*
X25257Y-48135D01*
X25385Y-48007D01*
X25454Y-47841D01*
X25454Y-48660D01*
X25385Y-48493D01*
X25257Y-48365D01*
X25091Y-48296D01*
X24910Y-48296D01*
X24743Y-48365D01*
X24615Y-48493D01*
X24546Y-48659D01*
X24546Y-48840D01*
X24615Y-49007D01*
X24743Y-49135D01*
X24909Y-49204D01*
X25090Y-49204D01*
X25257Y-49135D01*
X25385Y-49007D01*
X25454Y-48841D01*
X25454Y-49660D01*
X25385Y-49493D01*
X25257Y-49365D01*
X25091Y-49296D01*
X24910Y-49296D01*
X24743Y-49365D01*
X24615Y-49493D01*
X24546Y-49659D01*
X24546Y-49840D01*
X24615Y-50007D01*
X24743Y-50135D01*
X24909Y-50204D01*
X25090Y-50204D01*
X25257Y-50135D01*
X25385Y-50007D01*
X25454Y-49841D01*
X25454Y-50660D01*
X25385Y-50493D01*
X25257Y-50365D01*
X25091Y-50296D01*
X24910Y-50296D01*
X24743Y-50365D01*
X24615Y-50493D01*
X24546Y-50659D01*
X24546Y-50840D01*
X24615Y-51007D01*
X24743Y-51135D01*
X24909Y-51204D01*
X25090Y-51204D01*
X25257Y-51135D01*
X25385Y-51007D01*
X25454Y-50841D01*
X25454Y-51660D01*
X25385Y-51493D01*
X25257Y-51365D01*
X25091Y-51296D01*
X24910Y-51296D01*
X24743Y-51365D01*
X24615Y-51493D01*
X24546Y-51659D01*
X24546Y-51840D01*
X24615Y-52007D01*
X24743Y-52135D01*
X24909Y-52204D01*
X25090Y-52204D01*
X25257Y-52135D01*
X25385Y-52007D01*
X25454Y-51841D01*
X25454Y-52660D01*
X25385Y-52493D01*
X25257Y-52365D01*
X25091Y-52296D01*
X24910Y-52296D01*
X24743Y-52365D01*
X24615Y-52493D01*
X24546Y-52659D01*
X24546Y-52840D01*
X24615Y-53007D01*
X24743Y-53135D01*
X24909Y-53204D01*
X25090Y-53204D01*
X25257Y-53135D01*
X25385Y-53007D01*
X25454Y-52841D01*
X25454Y-53660D01*
X25385Y-53493D01*
X25257Y-53365D01*
X25091Y-53296D01*
X24910Y-53296D01*
X24743Y-53365D01*
X24615Y-53493D01*
X24546Y-53659D01*
X24546Y-53840D01*
X24615Y-54007D01*
X24743Y-54135D01*
X24909Y-54204D01*
X25090Y-54204D01*
X25257Y-54135D01*
X25385Y-54007D01*
X25454Y-53841D01*
X25454Y-54210D01*
X24454Y-54210D01*
X24454Y-53841D01*
X24454Y-53660D01*
X24454Y-52841D01*
X24454Y-52660D01*
X24454Y-51841D01*
X24454Y-51660D01*
X24454Y-50841D01*
X24454Y-50660D01*
X24454Y-49841D01*
X24454Y-49660D01*
X24454Y-48841D01*
X24454Y-48660D01*
X24454Y-47841D01*
X24454Y-47660D01*
X24454Y-46841D01*
X24454Y-46660D01*
X24454Y-45841D01*
X24454Y-45660D01*
X24454Y-44841D01*
X24454Y-44660D01*
X24454Y-43841D01*
X24454Y-43660D01*
X24454Y-42841D01*
X24454Y-42660D01*
X24454Y-41841D01*
X24454Y-41660D01*
X24454Y-40841D01*
X24454Y-40660D01*
X24454Y-39841D01*
X24454Y-39660D01*
X24454Y-38841D01*
X24454Y-38660D01*
X24454Y-37841D01*
X24454Y-37660D01*
X24454Y-36841D01*
X24454Y-36660D01*
X24454Y-35841D01*
X24454Y-35660D01*
X24454Y-34841D01*
X24454Y-34660D01*
X24454Y-33841D01*
X24454Y-33660D01*
X24454Y-31841D01*
X24454Y-31660D01*
X24385Y-31493D01*
X24257Y-31365D01*
X24091Y-31296D01*
X23910Y-31296D01*
X23743Y-31365D01*
X23615Y-31493D01*
X23546Y-31659D01*
X23546Y-31840D01*
X23615Y-32007D01*
X23743Y-32135D01*
X23909Y-32204D01*
X24090Y-32204D01*
X24257Y-32135D01*
X24385Y-32007D01*
X24454Y-31841D01*
X24454Y-33660D01*
X24408Y-33548D01*
X24408Y-32827D01*
X24406Y-32665D01*
X24347Y-32523D01*
X24286Y-32493D01*
X24257Y-32521D01*
X24257Y-32464D01*
X24227Y-32403D01*
X24077Y-32342D01*
X23915Y-32344D01*
X23773Y-32403D01*
X23743Y-32464D01*
X24000Y-32722D01*
X24257Y-32464D01*
X24257Y-32521D01*
X24028Y-32750D01*
X24286Y-33007D01*
X24347Y-32977D01*
X24408Y-32827D01*
X24408Y-33548D01*
X24385Y-33493D01*
X24257Y-33365D01*
X24257Y-33036D01*
X24000Y-32778D01*
X23972Y-32806D01*
X23972Y-32750D01*
X23714Y-32493D01*
X23653Y-32523D01*
X23592Y-32673D01*
X23594Y-32835D01*
X23653Y-32977D01*
X23714Y-33007D01*
X23972Y-32750D01*
X23972Y-32806D01*
X23743Y-33036D01*
X23773Y-33097D01*
X23923Y-33158D01*
X24085Y-33156D01*
X24227Y-33097D01*
X24257Y-33036D01*
X24257Y-33365D01*
X24091Y-33296D01*
X23910Y-33296D01*
X23743Y-33365D01*
X23615Y-33493D01*
X23546Y-33659D01*
X23546Y-33840D01*
X23615Y-34007D01*
X23743Y-34135D01*
X23909Y-34204D01*
X24090Y-34204D01*
X24257Y-34135D01*
X24385Y-34007D01*
X24454Y-33841D01*
X24454Y-34660D01*
X24385Y-34493D01*
X24257Y-34365D01*
X24091Y-34296D01*
X23910Y-34296D01*
X23743Y-34365D01*
X23615Y-34493D01*
X23546Y-34659D01*
X23546Y-34840D01*
X23615Y-35007D01*
X23743Y-35135D01*
X23909Y-35204D01*
X24090Y-35204D01*
X24257Y-35135D01*
X24385Y-35007D01*
X24454Y-34841D01*
X24454Y-35660D01*
X24385Y-35493D01*
X24257Y-35365D01*
X24091Y-35296D01*
X23910Y-35296D01*
X23743Y-35365D01*
X23615Y-35493D01*
X23546Y-35659D01*
X23546Y-35840D01*
X23615Y-36007D01*
X23743Y-36135D01*
X23909Y-36204D01*
X24090Y-36204D01*
X24257Y-36135D01*
X24385Y-36007D01*
X24454Y-35841D01*
X24454Y-36660D01*
X24385Y-36493D01*
X24257Y-36365D01*
X24091Y-36296D01*
X23910Y-36296D01*
X23743Y-36365D01*
X23615Y-36493D01*
X23546Y-36659D01*
X23546Y-36840D01*
X23615Y-37007D01*
X23743Y-37135D01*
X23909Y-37204D01*
X24090Y-37204D01*
X24257Y-37135D01*
X24385Y-37007D01*
X24454Y-36841D01*
X24454Y-37660D01*
X24385Y-37493D01*
X24257Y-37365D01*
X24091Y-37296D01*
X23910Y-37296D01*
X23743Y-37365D01*
X23615Y-37493D01*
X23546Y-37659D01*
X23546Y-37840D01*
X23615Y-38007D01*
X23743Y-38135D01*
X23909Y-38204D01*
X24090Y-38204D01*
X24257Y-38135D01*
X24385Y-38007D01*
X24454Y-37841D01*
X24454Y-38660D01*
X24385Y-38493D01*
X24257Y-38365D01*
X24091Y-38296D01*
X23910Y-38296D01*
X23743Y-38365D01*
X23615Y-38493D01*
X23546Y-38659D01*
X23546Y-38840D01*
X23615Y-39007D01*
X23743Y-39135D01*
X23909Y-39204D01*
X24090Y-39204D01*
X24257Y-39135D01*
X24385Y-39007D01*
X24454Y-38841D01*
X24454Y-39660D01*
X24385Y-39493D01*
X24257Y-39365D01*
X24091Y-39296D01*
X23910Y-39296D01*
X23743Y-39365D01*
X23615Y-39493D01*
X23546Y-39659D01*
X23546Y-39840D01*
X23615Y-40007D01*
X23743Y-40135D01*
X23909Y-40204D01*
X24090Y-40204D01*
X24257Y-40135D01*
X24385Y-40007D01*
X24454Y-39841D01*
X24454Y-40660D01*
X24385Y-40493D01*
X24257Y-40365D01*
X24091Y-40296D01*
X23910Y-40296D01*
X23743Y-40365D01*
X23615Y-40493D01*
X23546Y-40659D01*
X23546Y-40840D01*
X23615Y-41007D01*
X23743Y-41135D01*
X23909Y-41204D01*
X24090Y-41204D01*
X24257Y-41135D01*
X24385Y-41007D01*
X24454Y-40841D01*
X24454Y-41660D01*
X24385Y-41493D01*
X24257Y-41365D01*
X24091Y-41296D01*
X23910Y-41296D01*
X23743Y-41365D01*
X23615Y-41493D01*
X23546Y-41659D01*
X23546Y-41840D01*
X23615Y-42007D01*
X23743Y-42135D01*
X23909Y-42204D01*
X24090Y-42204D01*
X24257Y-42135D01*
X24385Y-42007D01*
X24454Y-41841D01*
X24454Y-42660D01*
X24385Y-42493D01*
X24257Y-42365D01*
X24091Y-42296D01*
X23910Y-42296D01*
X23743Y-42365D01*
X23615Y-42493D01*
X23546Y-42659D01*
X23546Y-42840D01*
X23615Y-43007D01*
X23743Y-43135D01*
X23909Y-43204D01*
X24090Y-43204D01*
X24257Y-43135D01*
X24385Y-43007D01*
X24454Y-42841D01*
X24454Y-43660D01*
X24385Y-43493D01*
X24257Y-43365D01*
X24091Y-43296D01*
X23910Y-43296D01*
X23743Y-43365D01*
X23615Y-43493D01*
X23546Y-43659D01*
X23546Y-43840D01*
X23615Y-44007D01*
X23743Y-44135D01*
X23909Y-44204D01*
X24090Y-44204D01*
X24257Y-44135D01*
X24385Y-44007D01*
X24454Y-43841D01*
X24454Y-44660D01*
X24385Y-44493D01*
X24257Y-44365D01*
X24091Y-44296D01*
X23910Y-44296D01*
X23743Y-44365D01*
X23615Y-44493D01*
X23546Y-44659D01*
X23546Y-44840D01*
X23615Y-45007D01*
X23743Y-45135D01*
X23909Y-45204D01*
X24090Y-45204D01*
X24257Y-45135D01*
X24385Y-45007D01*
X24454Y-44841D01*
X24454Y-45660D01*
X24385Y-45493D01*
X24257Y-45365D01*
X24091Y-45296D01*
X23910Y-45296D01*
X23743Y-45365D01*
X23615Y-45493D01*
X23546Y-45659D01*
X23546Y-45840D01*
X23615Y-46007D01*
X23743Y-46135D01*
X23909Y-46204D01*
X24090Y-46204D01*
X24257Y-46135D01*
X24385Y-46007D01*
X24454Y-45841D01*
X24454Y-46660D01*
X24385Y-46493D01*
X24257Y-46365D01*
X24091Y-46296D01*
X23910Y-46296D01*
X23743Y-46365D01*
X23615Y-46493D01*
X23546Y-46659D01*
X23546Y-46840D01*
X23615Y-47007D01*
X23743Y-47135D01*
X23909Y-47204D01*
X24090Y-47204D01*
X24257Y-47135D01*
X24385Y-47007D01*
X24454Y-46841D01*
X24454Y-47660D01*
X24385Y-47493D01*
X24257Y-47365D01*
X24091Y-47296D01*
X23910Y-47296D01*
X23743Y-47365D01*
X23615Y-47493D01*
X23546Y-47659D01*
X23546Y-47840D01*
X23615Y-48007D01*
X23743Y-48135D01*
X23909Y-48204D01*
X24090Y-48204D01*
X24257Y-48135D01*
X24385Y-48007D01*
X24454Y-47841D01*
X24454Y-48660D01*
X24385Y-48493D01*
X24257Y-48365D01*
X24091Y-48296D01*
X23910Y-48296D01*
X23743Y-48365D01*
X23615Y-48493D01*
X23546Y-48659D01*
X23546Y-48840D01*
X23615Y-49007D01*
X23743Y-49135D01*
X23909Y-49204D01*
X24090Y-49204D01*
X24257Y-49135D01*
X24385Y-49007D01*
X24454Y-48841D01*
X24454Y-49660D01*
X24385Y-49493D01*
X24257Y-49365D01*
X24091Y-49296D01*
X23910Y-49296D01*
X23743Y-49365D01*
X23615Y-49493D01*
X23546Y-49659D01*
X23546Y-49840D01*
X23615Y-50007D01*
X23743Y-50135D01*
X23909Y-50204D01*
X24090Y-50204D01*
X24257Y-50135D01*
X24385Y-50007D01*
X24454Y-49841D01*
X24454Y-50660D01*
X24385Y-50493D01*
X24257Y-50365D01*
X24091Y-50296D01*
X23910Y-50296D01*
X23743Y-50365D01*
X23615Y-50493D01*
X23546Y-50659D01*
X23546Y-50840D01*
X23615Y-51007D01*
X23743Y-51135D01*
X23909Y-51204D01*
X24090Y-51204D01*
X24257Y-51135D01*
X24385Y-51007D01*
X24454Y-50841D01*
X24454Y-51660D01*
X24385Y-51493D01*
X24257Y-51365D01*
X24091Y-51296D01*
X23910Y-51296D01*
X23743Y-51365D01*
X23615Y-51493D01*
X23546Y-51659D01*
X23546Y-51840D01*
X23615Y-52007D01*
X23743Y-52135D01*
X23909Y-52204D01*
X24090Y-52204D01*
X24257Y-52135D01*
X24385Y-52007D01*
X24454Y-51841D01*
X24454Y-52660D01*
X24385Y-52493D01*
X24257Y-52365D01*
X24091Y-52296D01*
X23910Y-52296D01*
X23743Y-52365D01*
X23615Y-52493D01*
X23546Y-52659D01*
X23546Y-52840D01*
X23615Y-53007D01*
X23743Y-53135D01*
X23909Y-53204D01*
X24090Y-53204D01*
X24257Y-53135D01*
X24385Y-53007D01*
X24454Y-52841D01*
X24454Y-53660D01*
X24385Y-53493D01*
X24257Y-53365D01*
X24091Y-53296D01*
X23910Y-53296D01*
X23743Y-53365D01*
X23615Y-53493D01*
X23546Y-53659D01*
X23546Y-53840D01*
X23615Y-54007D01*
X23743Y-54135D01*
X23909Y-54204D01*
X24090Y-54204D01*
X24257Y-54135D01*
X24385Y-54007D01*
X24454Y-53841D01*
X24454Y-54210D01*
X23485Y-54210D01*
X23485Y-30003D01*
X23622Y-30335D01*
X23913Y-30627D01*
X24293Y-30785D01*
X24705Y-30785D01*
X25085Y-30628D01*
X25377Y-30337D01*
X25535Y-29957D01*
X25535Y-29545D01*
X25378Y-29165D01*
X25087Y-28873D01*
X24707Y-28715D01*
X24295Y-28715D01*
X23915Y-28872D01*
X23623Y-29163D01*
X23485Y-29494D01*
X23485Y-26525D01*
X23660Y-25635D01*
X24154Y-24899D01*
X24881Y-24412D01*
X25774Y-24235D01*
X31265Y-24235D01*
X31265Y-32000D01*
X31283Y-32090D01*
X31334Y-32166D01*
X31410Y-32217D01*
X31500Y-32235D01*
X38500Y-32235D01*
X38590Y-32217D01*
X38666Y-32166D01*
X38717Y-32090D01*
X38735Y-32000D01*
X38735Y-26485D01*
X44515Y-26485D01*
X44515Y-29496D01*
X44378Y-29165D01*
X44087Y-28873D01*
X43707Y-28715D01*
X43295Y-28715D01*
X42915Y-28872D01*
X42623Y-29163D01*
X42465Y-29543D01*
X42465Y-29955D01*
X42622Y-30335D01*
X42913Y-30627D01*
X43293Y-30785D01*
X43705Y-30785D01*
X44085Y-30628D01*
X44377Y-30337D01*
X44515Y-30005D01*
X44515Y-43910D01*
X44515Y-43910D01*
G37*
X44515Y-43910D02*
X44425Y-43910D01*
X44454Y-43841D01*
X44454Y-43660D01*
X44454Y-42841D01*
X44454Y-42660D01*
X44454Y-41841D01*
X44454Y-41660D01*
X44454Y-40841D01*
X44454Y-40660D01*
X44454Y-39841D01*
X44454Y-39660D01*
X44454Y-38841D01*
X44454Y-38660D01*
X44454Y-37841D01*
X44454Y-37660D01*
X44454Y-36841D01*
X44454Y-36660D01*
X44454Y-35841D01*
X44454Y-35660D01*
X44454Y-34841D01*
X44454Y-34660D01*
X44454Y-33841D01*
X44454Y-33660D01*
X44454Y-32841D01*
X44454Y-32660D01*
X44454Y-31841D01*
X44454Y-31660D01*
X44385Y-31493D01*
X44257Y-31365D01*
X44091Y-31296D01*
X43910Y-31296D01*
X43743Y-31365D01*
X43615Y-31493D01*
X43546Y-31659D01*
X43546Y-31840D01*
X43615Y-32007D01*
X43743Y-32135D01*
X43909Y-32204D01*
X44090Y-32204D01*
X44257Y-32135D01*
X44385Y-32007D01*
X44454Y-31841D01*
X44454Y-32660D01*
X44385Y-32493D01*
X44257Y-32365D01*
X44091Y-32296D01*
X43910Y-32296D01*
X43743Y-32365D01*
X43615Y-32493D01*
X43546Y-32659D01*
X43546Y-32840D01*
X43615Y-33007D01*
X43743Y-33135D01*
X43909Y-33204D01*
X44090Y-33204D01*
X44257Y-33135D01*
X44385Y-33007D01*
X44454Y-32841D01*
X44454Y-33660D01*
X44385Y-33493D01*
X44257Y-33365D01*
X44091Y-33296D01*
X43910Y-33296D01*
X43743Y-33365D01*
X43615Y-33493D01*
X43546Y-33659D01*
X43546Y-33840D01*
X43615Y-34007D01*
X43743Y-34135D01*
X43909Y-34204D01*
X44090Y-34204D01*
X44257Y-34135D01*
X44385Y-34007D01*
X44454Y-33841D01*
X44454Y-34660D01*
X44385Y-34493D01*
X44257Y-34365D01*
X44091Y-34296D01*
X43910Y-34296D01*
X43743Y-34365D01*
X43615Y-34493D01*
X43546Y-34659D01*
X43546Y-34840D01*
X43615Y-35007D01*
X43743Y-35135D01*
X43909Y-35204D01*
X44090Y-35204D01*
X44257Y-35135D01*
X44385Y-35007D01*
X44454Y-34841D01*
X44454Y-35660D01*
X44385Y-35493D01*
X44257Y-35365D01*
X44091Y-35296D01*
X43910Y-35296D01*
X43743Y-35365D01*
X43615Y-35493D01*
X43546Y-35659D01*
X43546Y-35840D01*
X43615Y-36007D01*
X43743Y-36135D01*
X43909Y-36204D01*
X44090Y-36204D01*
X44257Y-36135D01*
X44385Y-36007D01*
X44454Y-35841D01*
X44454Y-36660D01*
X44385Y-36493D01*
X44257Y-36365D01*
X44091Y-36296D01*
X43910Y-36296D01*
X43743Y-36365D01*
X43615Y-36493D01*
X43546Y-36659D01*
X43546Y-36840D01*
X43615Y-37007D01*
X43743Y-37135D01*
X43909Y-37204D01*
X44090Y-37204D01*
X44257Y-37135D01*
X44385Y-37007D01*
X44454Y-36841D01*
X44454Y-37660D01*
X44385Y-37493D01*
X44257Y-37365D01*
X44091Y-37296D01*
X43910Y-37296D01*
X43743Y-37365D01*
X43615Y-37493D01*
X43546Y-37659D01*
X43546Y-37840D01*
X43615Y-38007D01*
X43743Y-38135D01*
X43909Y-38204D01*
X44090Y-38204D01*
X44257Y-38135D01*
X44385Y-38007D01*
X44454Y-37841D01*
X44454Y-38660D01*
X44385Y-38493D01*
X44257Y-38365D01*
X44091Y-38296D01*
X43910Y-38296D01*
X43743Y-38365D01*
X43615Y-38493D01*
X43546Y-38659D01*
X43546Y-38840D01*
X43615Y-39007D01*
X43743Y-39135D01*
X43909Y-39204D01*
X44090Y-39204D01*
X44257Y-39135D01*
X44385Y-39007D01*
X44454Y-38841D01*
X44454Y-39660D01*
X44385Y-39493D01*
X44257Y-39365D01*
X44091Y-39296D01*
X43910Y-39296D01*
X43743Y-39365D01*
X43615Y-39493D01*
X43546Y-39659D01*
X43546Y-39840D01*
X43615Y-40007D01*
X43743Y-40135D01*
X43909Y-40204D01*
X44090Y-40204D01*
X44257Y-40135D01*
X44385Y-40007D01*
X44454Y-39841D01*
X44454Y-40660D01*
X44385Y-40493D01*
X44257Y-40365D01*
X44091Y-40296D01*
X43910Y-40296D01*
X43743Y-40365D01*
X43615Y-40493D01*
X43546Y-40659D01*
X43546Y-40840D01*
X43615Y-41007D01*
X43743Y-41135D01*
X43909Y-41204D01*
X44090Y-41204D01*
X44257Y-41135D01*
X44385Y-41007D01*
X44454Y-40841D01*
X44454Y-41660D01*
X44385Y-41493D01*
X44257Y-41365D01*
X44091Y-41296D01*
X43910Y-41296D01*
X43743Y-41365D01*
X43615Y-41493D01*
X43546Y-41659D01*
X43546Y-41840D01*
X43615Y-42007D01*
X43743Y-42135D01*
X43909Y-42204D01*
X44090Y-42204D01*
X44257Y-42135D01*
X44385Y-42007D01*
X44454Y-41841D01*
X44454Y-42660D01*
X44385Y-42493D01*
X44257Y-42365D01*
X44091Y-42296D01*
X43910Y-42296D01*
X43743Y-42365D01*
X43615Y-42493D01*
X43546Y-42659D01*
X43546Y-42840D01*
X43615Y-43007D01*
X43743Y-43135D01*
X43909Y-43204D01*
X44090Y-43204D01*
X44257Y-43135D01*
X44385Y-43007D01*
X44454Y-42841D01*
X44454Y-43660D01*
X44385Y-43493D01*
X44257Y-43365D01*
X44091Y-43296D01*
X43910Y-43296D01*
X43743Y-43365D01*
X43615Y-43493D01*
X43546Y-43659D01*
X43546Y-43840D01*
X43574Y-43910D01*
X43425Y-43910D01*
X43454Y-43841D01*
X43454Y-43660D01*
X43454Y-42841D01*
X43454Y-42660D01*
X43454Y-41841D01*
X43454Y-41660D01*
X43454Y-40841D01*
X43454Y-40660D01*
X43454Y-39841D01*
X43454Y-39660D01*
X43454Y-38841D01*
X43454Y-38660D01*
X43454Y-37841D01*
X43454Y-37660D01*
X43454Y-36841D01*
X43454Y-36660D01*
X43454Y-35841D01*
X43454Y-35660D01*
X43454Y-34841D01*
X43454Y-34660D01*
X43454Y-33841D01*
X43454Y-33660D01*
X43454Y-32841D01*
X43454Y-32660D01*
X43454Y-31841D01*
X43454Y-31660D01*
X43385Y-31493D01*
X43257Y-31365D01*
X43091Y-31296D01*
X42910Y-31296D01*
X42743Y-31365D01*
X42615Y-31493D01*
X42546Y-31659D01*
X42546Y-31840D01*
X42615Y-32007D01*
X42743Y-32135D01*
X42909Y-32204D01*
X43090Y-32204D01*
X43257Y-32135D01*
X43385Y-32007D01*
X43454Y-31841D01*
X43454Y-32660D01*
X43385Y-32493D01*
X43257Y-32365D01*
X43091Y-32296D01*
X42910Y-32296D01*
X42743Y-32365D01*
X42615Y-32493D01*
X42546Y-32659D01*
X42546Y-32840D01*
X42615Y-33007D01*
X42743Y-33135D01*
X42909Y-33204D01*
X43090Y-33204D01*
X43257Y-33135D01*
X43385Y-33007D01*
X43454Y-32841D01*
X43454Y-33660D01*
X43385Y-33493D01*
X43257Y-33365D01*
X43091Y-33296D01*
X42910Y-33296D01*
X42743Y-33365D01*
X42615Y-33493D01*
X42546Y-33659D01*
X42546Y-33840D01*
X42615Y-34007D01*
X42743Y-34135D01*
X42909Y-34204D01*
X43090Y-34204D01*
X43257Y-34135D01*
X43385Y-34007D01*
X43454Y-33841D01*
X43454Y-34660D01*
X43385Y-34493D01*
X43257Y-34365D01*
X43091Y-34296D01*
X42910Y-34296D01*
X42743Y-34365D01*
X42615Y-34493D01*
X42546Y-34659D01*
X42546Y-34840D01*
X42615Y-35007D01*
X42743Y-35135D01*
X42909Y-35204D01*
X43090Y-35204D01*
X43257Y-35135D01*
X43385Y-35007D01*
X43454Y-34841D01*
X43454Y-35660D01*
X43385Y-35493D01*
X43257Y-35365D01*
X43091Y-35296D01*
X42910Y-35296D01*
X42743Y-35365D01*
X42615Y-35493D01*
X42546Y-35659D01*
X42546Y-35840D01*
X42615Y-36007D01*
X42743Y-36135D01*
X42909Y-36204D01*
X43090Y-36204D01*
X43257Y-36135D01*
X43385Y-36007D01*
X43454Y-35841D01*
X43454Y-36660D01*
X43385Y-36493D01*
X43257Y-36365D01*
X43091Y-36296D01*
X42910Y-36296D01*
X42743Y-36365D01*
X42615Y-36493D01*
X42546Y-36659D01*
X42546Y-36840D01*
X42615Y-37007D01*
X42743Y-37135D01*
X42909Y-37204D01*
X43090Y-37204D01*
X43257Y-37135D01*
X43385Y-37007D01*
X43454Y-36841D01*
X43454Y-37660D01*
X43385Y-37493D01*
X43257Y-37365D01*
X43091Y-37296D01*
X42910Y-37296D01*
X42743Y-37365D01*
X42615Y-37493D01*
X42546Y-37659D01*
X42546Y-37840D01*
X42615Y-38007D01*
X42743Y-38135D01*
X42909Y-38204D01*
X43090Y-38204D01*
X43257Y-38135D01*
X43385Y-38007D01*
X43454Y-37841D01*
X43454Y-38660D01*
X43385Y-38493D01*
X43257Y-38365D01*
X43091Y-38296D01*
X42910Y-38296D01*
X42743Y-38365D01*
X42615Y-38493D01*
X42546Y-38659D01*
X42546Y-38840D01*
X42615Y-39007D01*
X42743Y-39135D01*
X42909Y-39204D01*
X43090Y-39204D01*
X43257Y-39135D01*
X43385Y-39007D01*
X43454Y-38841D01*
X43454Y-39660D01*
X43385Y-39493D01*
X43257Y-39365D01*
X43091Y-39296D01*
X42910Y-39296D01*
X42743Y-39365D01*
X42615Y-39493D01*
X42546Y-39659D01*
X42546Y-39840D01*
X42615Y-40007D01*
X42743Y-40135D01*
X42909Y-40204D01*
X43090Y-40204D01*
X43257Y-40135D01*
X43385Y-40007D01*
X43454Y-39841D01*
X43454Y-40660D01*
X43385Y-40493D01*
X43257Y-40365D01*
X43091Y-40296D01*
X42910Y-40296D01*
X42743Y-40365D01*
X42615Y-40493D01*
X42546Y-40659D01*
X42546Y-40840D01*
X42615Y-41007D01*
X42743Y-41135D01*
X42909Y-41204D01*
X43090Y-41204D01*
X43257Y-41135D01*
X43385Y-41007D01*
X43454Y-40841D01*
X43454Y-41660D01*
X43385Y-41493D01*
X43257Y-41365D01*
X43091Y-41296D01*
X42910Y-41296D01*
X42743Y-41365D01*
X42615Y-41493D01*
X42546Y-41659D01*
X42546Y-41840D01*
X42615Y-42007D01*
X42743Y-42135D01*
X42909Y-42204D01*
X43090Y-42204D01*
X43257Y-42135D01*
X43385Y-42007D01*
X43454Y-41841D01*
X43454Y-42660D01*
X43385Y-42493D01*
X43257Y-42365D01*
X43091Y-42296D01*
X42910Y-42296D01*
X42743Y-42365D01*
X42615Y-42493D01*
X42546Y-42659D01*
X42546Y-42840D01*
X42615Y-43007D01*
X42743Y-43135D01*
X42909Y-43204D01*
X43090Y-43204D01*
X43257Y-43135D01*
X43385Y-43007D01*
X43454Y-42841D01*
X43454Y-43660D01*
X43385Y-43493D01*
X43257Y-43365D01*
X43091Y-43296D01*
X42910Y-43296D01*
X42743Y-43365D01*
X42615Y-43493D01*
X42546Y-43659D01*
X42546Y-43840D01*
X42574Y-43910D01*
X39966Y-43910D01*
X39966Y-42662D01*
X39966Y-42535D01*
X39918Y-42417D01*
X39828Y-42327D01*
X39710Y-42278D01*
X39583Y-42278D01*
X39465Y-42326D01*
X39375Y-42416D01*
X39326Y-42534D01*
X39326Y-42661D01*
X39374Y-42779D01*
X39464Y-42869D01*
X39582Y-42918D01*
X39709Y-42918D01*
X39827Y-42870D01*
X39917Y-42780D01*
X39966Y-42662D01*
X39966Y-43910D01*
X39178Y-43910D01*
X39178Y-41993D01*
X39178Y-41866D01*
X39130Y-41748D01*
X39040Y-41658D01*
X38922Y-41609D01*
X38795Y-41609D01*
X38677Y-41657D01*
X38587Y-41747D01*
X38548Y-41840D01*
X38548Y-40615D01*
X38548Y-40488D01*
X38500Y-40370D01*
X38410Y-40280D01*
X38292Y-40231D01*
X38165Y-40231D01*
X38047Y-40279D01*
X37957Y-40369D01*
X37908Y-40487D01*
X37908Y-40614D01*
X37956Y-40732D01*
X38046Y-40822D01*
X38164Y-40871D01*
X38291Y-40871D01*
X38409Y-40823D01*
X38499Y-40733D01*
X38548Y-40615D01*
X38548Y-41840D01*
X38538Y-41865D01*
X38538Y-41992D01*
X38586Y-42110D01*
X38676Y-42200D01*
X38794Y-42249D01*
X38921Y-42249D01*
X39039Y-42201D01*
X39129Y-42111D01*
X39178Y-41993D01*
X39178Y-43910D01*
X38700Y-43910D01*
X38745Y-43804D01*
X38745Y-43677D01*
X38697Y-43559D01*
X38607Y-43469D01*
X38489Y-43420D01*
X38362Y-43420D01*
X38244Y-43468D01*
X38154Y-43558D01*
X38105Y-43676D01*
X38105Y-43803D01*
X38148Y-43910D01*
X37525Y-43910D01*
X37525Y-41009D01*
X37525Y-40882D01*
X37477Y-40764D01*
X37387Y-40674D01*
X37269Y-40625D01*
X37142Y-40625D01*
X37024Y-40673D01*
X36934Y-40763D01*
X36885Y-40881D01*
X36885Y-41008D01*
X36933Y-41126D01*
X37023Y-41216D01*
X37141Y-41265D01*
X37268Y-41265D01*
X37386Y-41217D01*
X37476Y-41127D01*
X37525Y-41009D01*
X37525Y-43910D01*
X37210Y-43910D01*
X37210Y-42938D01*
X37210Y-42811D01*
X37162Y-42693D01*
X37072Y-42603D01*
X36954Y-42554D01*
X36827Y-42554D01*
X36709Y-42602D01*
X36619Y-42692D01*
X36570Y-42810D01*
X36570Y-42937D01*
X36618Y-43055D01*
X36708Y-43145D01*
X36826Y-43194D01*
X36953Y-43194D01*
X37071Y-43146D01*
X37161Y-43056D01*
X37210Y-42938D01*
X37210Y-43910D01*
X37052Y-43910D01*
X37052Y-43835D01*
X37004Y-43717D01*
X36914Y-43627D01*
X36796Y-43578D01*
X36669Y-43578D01*
X36551Y-43626D01*
X36501Y-43676D01*
X36501Y-42229D01*
X36501Y-42102D01*
X36501Y-40576D01*
X36501Y-40449D01*
X36453Y-40331D01*
X36363Y-40241D01*
X36245Y-40192D01*
X36118Y-40192D01*
X36000Y-40240D01*
X35910Y-40330D01*
X35861Y-40448D01*
X35861Y-40575D01*
X35909Y-40693D01*
X35999Y-40783D01*
X36117Y-40832D01*
X36244Y-40832D01*
X36362Y-40784D01*
X36452Y-40694D01*
X36501Y-40576D01*
X36501Y-42102D01*
X36453Y-41984D01*
X36363Y-41894D01*
X36245Y-41845D01*
X36118Y-41845D01*
X36000Y-41893D01*
X35910Y-41983D01*
X35861Y-42101D01*
X35861Y-42228D01*
X35909Y-42346D01*
X35999Y-42436D01*
X36117Y-42485D01*
X36244Y-42485D01*
X36362Y-42437D01*
X36452Y-42347D01*
X36501Y-42229D01*
X36501Y-43676D01*
X36461Y-43716D01*
X36412Y-43834D01*
X36412Y-43910D01*
X35714Y-43910D01*
X35714Y-43568D01*
X35714Y-43441D01*
X35666Y-43323D01*
X35576Y-43233D01*
X35556Y-43224D01*
X35556Y-42544D01*
X35556Y-42417D01*
X35508Y-42299D01*
X35418Y-42209D01*
X35300Y-42160D01*
X35173Y-42160D01*
X35055Y-42208D01*
X34965Y-42298D01*
X34916Y-42416D01*
X34916Y-42543D01*
X34964Y-42661D01*
X35054Y-42751D01*
X35172Y-42800D01*
X35299Y-42800D01*
X35417Y-42752D01*
X35507Y-42662D01*
X35556Y-42544D01*
X35556Y-43224D01*
X35458Y-43184D01*
X35331Y-43184D01*
X35213Y-43232D01*
X35123Y-43322D01*
X35074Y-43440D01*
X35074Y-43567D01*
X35122Y-43685D01*
X35212Y-43775D01*
X35330Y-43824D01*
X35457Y-43824D01*
X35575Y-43776D01*
X35665Y-43686D01*
X35714Y-43568D01*
X35714Y-43910D01*
X34218Y-43910D01*
X34218Y-43835D01*
X34170Y-43717D01*
X34095Y-43642D01*
X34169Y-43568D01*
X34218Y-43450D01*
X34218Y-43323D01*
X34170Y-43205D01*
X34080Y-43115D01*
X34060Y-43106D01*
X34060Y-42229D01*
X34060Y-42102D01*
X34060Y-40576D01*
X34060Y-40449D01*
X34012Y-40331D01*
X33922Y-40241D01*
X33804Y-40192D01*
X33677Y-40192D01*
X33559Y-40240D01*
X33469Y-40330D01*
X33420Y-40448D01*
X33420Y-40575D01*
X33468Y-40693D01*
X33558Y-40783D01*
X33676Y-40832D01*
X33803Y-40832D01*
X33921Y-40784D01*
X34011Y-40694D01*
X34060Y-40576D01*
X34060Y-42102D01*
X34012Y-41984D01*
X33922Y-41894D01*
X33804Y-41845D01*
X33677Y-41845D01*
X33559Y-41893D01*
X33469Y-41983D01*
X33420Y-42101D01*
X33420Y-42228D01*
X33468Y-42346D01*
X33558Y-42436D01*
X33676Y-42485D01*
X33803Y-42485D01*
X33921Y-42437D01*
X34011Y-42347D01*
X34060Y-42229D01*
X34060Y-43106D01*
X33962Y-43066D01*
X33835Y-43066D01*
X33717Y-43114D01*
X33627Y-43204D01*
X33578Y-43322D01*
X33578Y-43449D01*
X33626Y-43567D01*
X33701Y-43642D01*
X33627Y-43716D01*
X33578Y-43834D01*
X33578Y-43961D01*
X33579Y-43963D01*
X32958Y-44584D01*
X32958Y-44237D01*
X32958Y-44110D01*
X32910Y-43992D01*
X32835Y-43917D01*
X32909Y-43844D01*
X32958Y-43726D01*
X32958Y-43599D01*
X32910Y-43481D01*
X32835Y-43406D01*
X32909Y-43332D01*
X32958Y-43214D01*
X32958Y-43087D01*
X32910Y-42969D01*
X32854Y-42913D01*
X32909Y-42859D01*
X32958Y-42741D01*
X32958Y-42614D01*
X32910Y-42496D01*
X32820Y-42406D01*
X32702Y-42357D01*
X32575Y-42357D01*
X32457Y-42405D01*
X32367Y-42495D01*
X32318Y-42613D01*
X32318Y-42740D01*
X32366Y-42858D01*
X32421Y-42913D01*
X32367Y-42968D01*
X32318Y-43086D01*
X32318Y-43213D01*
X32366Y-43331D01*
X32441Y-43406D01*
X32367Y-43480D01*
X32318Y-43598D01*
X32318Y-43725D01*
X32366Y-43843D01*
X32440Y-43917D01*
X32367Y-43991D01*
X32318Y-44109D01*
X32318Y-44236D01*
X32366Y-44354D01*
X32456Y-44444D01*
X32574Y-44493D01*
X32701Y-44493D01*
X32819Y-44445D01*
X32909Y-44355D01*
X32958Y-44237D01*
X32958Y-44584D01*
X32683Y-44860D01*
X30162Y-44860D01*
X30162Y-29552D01*
X30162Y-29425D01*
X30114Y-29307D01*
X30024Y-29217D01*
X29906Y-29168D01*
X29848Y-29168D01*
X29848Y-28292D01*
X29848Y-28165D01*
X29800Y-28047D01*
X29710Y-27957D01*
X29592Y-27908D01*
X29465Y-27908D01*
X29347Y-27956D01*
X29257Y-28046D01*
X29208Y-28164D01*
X29208Y-28291D01*
X29256Y-28409D01*
X29346Y-28499D01*
X29464Y-28548D01*
X29591Y-28548D01*
X29709Y-28500D01*
X29799Y-28410D01*
X29848Y-28292D01*
X29848Y-29168D01*
X29779Y-29168D01*
X29661Y-29216D01*
X29571Y-29306D01*
X29522Y-29424D01*
X29522Y-29551D01*
X29570Y-29669D01*
X29660Y-29759D01*
X29778Y-29808D01*
X29905Y-29808D01*
X30023Y-29760D01*
X30113Y-29670D01*
X30162Y-29552D01*
X30162Y-44860D01*
X29583Y-44860D01*
X29060Y-45383D01*
X29060Y-28292D01*
X29060Y-28165D01*
X29012Y-28047D01*
X28922Y-27957D01*
X28804Y-27908D01*
X28677Y-27908D01*
X28559Y-27956D01*
X28469Y-28046D01*
X28420Y-28164D01*
X28420Y-28291D01*
X28468Y-28409D01*
X28558Y-28499D01*
X28676Y-28548D01*
X28803Y-28548D01*
X28921Y-28500D01*
X29011Y-28410D01*
X29060Y-28292D01*
X29060Y-45383D01*
X28666Y-45777D01*
X28666Y-29198D01*
X28666Y-29071D01*
X28618Y-28953D01*
X28528Y-28863D01*
X28410Y-28814D01*
X28283Y-28814D01*
X28165Y-28862D01*
X28075Y-28952D01*
X28026Y-29070D01*
X28026Y-29197D01*
X28074Y-29315D01*
X28164Y-29405D01*
X28282Y-29454D01*
X28409Y-29454D01*
X28527Y-29406D01*
X28617Y-29316D01*
X28666Y-29198D01*
X28666Y-45777D01*
X28430Y-46013D01*
X28430Y-30891D01*
X28430Y-30764D01*
X28382Y-30646D01*
X28292Y-30556D01*
X28174Y-30507D01*
X28047Y-30507D01*
X27929Y-30555D01*
X27918Y-30566D01*
X27918Y-28056D01*
X27918Y-27929D01*
X27870Y-27811D01*
X27780Y-27721D01*
X27662Y-27672D01*
X27535Y-27672D01*
X27417Y-27720D01*
X27327Y-27810D01*
X27278Y-27928D01*
X27278Y-28055D01*
X27326Y-28173D01*
X27416Y-28263D01*
X27534Y-28312D01*
X27661Y-28312D01*
X27779Y-28264D01*
X27869Y-28174D01*
X27918Y-28056D01*
X27918Y-30566D01*
X27839Y-30645D01*
X27790Y-30763D01*
X27790Y-30890D01*
X27838Y-31008D01*
X27928Y-31098D01*
X28046Y-31147D01*
X28173Y-31147D01*
X28291Y-31099D01*
X28381Y-31009D01*
X28430Y-30891D01*
X28430Y-46013D01*
X28037Y-46406D01*
X28037Y-40182D01*
X28037Y-40055D01*
X27989Y-39937D01*
X27899Y-39847D01*
X27781Y-39798D01*
X27722Y-39798D01*
X27722Y-30891D01*
X27722Y-30764D01*
X27674Y-30646D01*
X27584Y-30556D01*
X27466Y-30507D01*
X27339Y-30507D01*
X27221Y-30555D01*
X27131Y-30645D01*
X27082Y-30763D01*
X27082Y-30890D01*
X27130Y-31008D01*
X27220Y-31098D01*
X27338Y-31147D01*
X27465Y-31147D01*
X27583Y-31099D01*
X27673Y-31009D01*
X27722Y-30891D01*
X27722Y-39798D01*
X27654Y-39798D01*
X27643Y-39802D01*
X27643Y-39740D01*
X27595Y-39622D01*
X27505Y-39532D01*
X27387Y-39483D01*
X27260Y-39483D01*
X27142Y-39531D01*
X27052Y-39621D01*
X27003Y-39739D01*
X27003Y-39866D01*
X27051Y-39984D01*
X27141Y-40074D01*
X27259Y-40123D01*
X27386Y-40123D01*
X27397Y-40118D01*
X27397Y-40181D01*
X27445Y-40299D01*
X27535Y-40389D01*
X27653Y-40438D01*
X27780Y-40438D01*
X27898Y-40390D01*
X27988Y-40300D01*
X28037Y-40182D01*
X28037Y-46406D01*
X27910Y-46533D01*
X27910Y-50433D01*
X27328Y-51015D01*
X27328Y-46954D01*
X27328Y-46827D01*
X27328Y-46245D01*
X27328Y-46118D01*
X27328Y-45536D01*
X27328Y-45409D01*
X27328Y-44119D01*
X27328Y-43992D01*
X27328Y-43410D01*
X27328Y-43283D01*
X27328Y-41993D01*
X27328Y-41866D01*
X27328Y-40576D01*
X27328Y-40449D01*
X27280Y-40331D01*
X27190Y-40241D01*
X27072Y-40192D01*
X26945Y-40192D01*
X26827Y-40240D01*
X26737Y-40330D01*
X26688Y-40448D01*
X26688Y-40575D01*
X26736Y-40693D01*
X26826Y-40783D01*
X26944Y-40832D01*
X27071Y-40832D01*
X27189Y-40784D01*
X27279Y-40694D01*
X27328Y-40576D01*
X27328Y-41866D01*
X27280Y-41748D01*
X27190Y-41658D01*
X27072Y-41609D01*
X26945Y-41609D01*
X26827Y-41657D01*
X26737Y-41747D01*
X26688Y-41865D01*
X26688Y-41992D01*
X26736Y-42110D01*
X26826Y-42200D01*
X26944Y-42249D01*
X27071Y-42249D01*
X27189Y-42201D01*
X27279Y-42111D01*
X27328Y-41993D01*
X27328Y-43283D01*
X27280Y-43165D01*
X27190Y-43075D01*
X27072Y-43026D01*
X26945Y-43026D01*
X26827Y-43074D01*
X26737Y-43164D01*
X26688Y-43282D01*
X26688Y-43409D01*
X26736Y-43527D01*
X26826Y-43617D01*
X26944Y-43666D01*
X27071Y-43666D01*
X27189Y-43618D01*
X27279Y-43528D01*
X27328Y-43410D01*
X27328Y-43992D01*
X27280Y-43874D01*
X27190Y-43784D01*
X27072Y-43735D01*
X26945Y-43735D01*
X26827Y-43783D01*
X26737Y-43873D01*
X26688Y-43991D01*
X26688Y-44118D01*
X26736Y-44236D01*
X26826Y-44326D01*
X26944Y-44375D01*
X27071Y-44375D01*
X27189Y-44327D01*
X27279Y-44237D01*
X27328Y-44119D01*
X27328Y-45409D01*
X27280Y-45291D01*
X27190Y-45201D01*
X27072Y-45152D01*
X26945Y-45152D01*
X26827Y-45200D01*
X26737Y-45290D01*
X26688Y-45408D01*
X26688Y-45535D01*
X26736Y-45653D01*
X26826Y-45743D01*
X26944Y-45792D01*
X27071Y-45792D01*
X27189Y-45744D01*
X27279Y-45654D01*
X27328Y-45536D01*
X27328Y-46118D01*
X27280Y-46000D01*
X27190Y-45910D01*
X27072Y-45861D01*
X26945Y-45861D01*
X26827Y-45909D01*
X26737Y-45999D01*
X26688Y-46117D01*
X26688Y-46244D01*
X26736Y-46362D01*
X26826Y-46452D01*
X26944Y-46501D01*
X27071Y-46501D01*
X27189Y-46453D01*
X27279Y-46363D01*
X27328Y-46245D01*
X27328Y-46827D01*
X27280Y-46709D01*
X27190Y-46619D01*
X27072Y-46570D01*
X26945Y-46570D01*
X26827Y-46618D01*
X26737Y-46708D01*
X26688Y-46826D01*
X26688Y-46953D01*
X26736Y-47071D01*
X26826Y-47161D01*
X26944Y-47210D01*
X27071Y-47210D01*
X27189Y-47162D01*
X27279Y-47072D01*
X27328Y-46954D01*
X27328Y-51015D01*
X26737Y-51606D01*
X26737Y-48450D01*
X26737Y-48323D01*
X26689Y-48205D01*
X26599Y-48115D01*
X26481Y-48066D01*
X26354Y-48066D01*
X26236Y-48114D01*
X26146Y-48204D01*
X26097Y-48322D01*
X26097Y-48449D01*
X26145Y-48567D01*
X26235Y-48657D01*
X26353Y-48706D01*
X26480Y-48706D01*
X26598Y-48658D01*
X26688Y-48568D01*
X26737Y-48450D01*
X26737Y-51606D01*
X25710Y-52633D01*
X25710Y-53983D01*
X25483Y-54210D01*
X25454Y-54210D01*
X25454Y-53841D01*
X25454Y-53660D01*
X25454Y-52841D01*
X25454Y-52660D01*
X25454Y-51841D01*
X25454Y-51660D01*
X25454Y-50841D01*
X25454Y-50660D01*
X25454Y-49841D01*
X25454Y-49660D01*
X25454Y-48841D01*
X25454Y-48660D01*
X25454Y-47841D01*
X25454Y-47660D01*
X25454Y-46841D01*
X25454Y-46660D01*
X25454Y-45841D01*
X25454Y-45660D01*
X25454Y-44841D01*
X25454Y-44660D01*
X25454Y-43841D01*
X25454Y-43660D01*
X25454Y-42841D01*
X25454Y-42660D01*
X25454Y-41841D01*
X25454Y-41660D01*
X25454Y-40841D01*
X25454Y-40660D01*
X25454Y-39841D01*
X25454Y-39660D01*
X25454Y-38841D01*
X25454Y-38660D01*
X25454Y-37841D01*
X25454Y-37660D01*
X25454Y-36841D01*
X25454Y-36660D01*
X25454Y-35841D01*
X25454Y-35660D01*
X25454Y-34841D01*
X25454Y-34660D01*
X25454Y-33841D01*
X25454Y-33660D01*
X25454Y-31841D01*
X25454Y-31660D01*
X25385Y-31493D01*
X25257Y-31365D01*
X25091Y-31296D01*
X24910Y-31296D01*
X24743Y-31365D01*
X24615Y-31493D01*
X24546Y-31659D01*
X24546Y-31840D01*
X24615Y-32007D01*
X24743Y-32135D01*
X24909Y-32204D01*
X25090Y-32204D01*
X25257Y-32135D01*
X25385Y-32007D01*
X25454Y-31841D01*
X25454Y-33660D01*
X25408Y-33548D01*
X25408Y-32827D01*
X25406Y-32665D01*
X25347Y-32523D01*
X25286Y-32493D01*
X25257Y-32521D01*
X25257Y-32464D01*
X25227Y-32403D01*
X25077Y-32342D01*
X24915Y-32344D01*
X24773Y-32403D01*
X24743Y-32464D01*
X25000Y-32722D01*
X25257Y-32464D01*
X25257Y-32521D01*
X25028Y-32750D01*
X25286Y-33007D01*
X25347Y-32977D01*
X25408Y-32827D01*
X25408Y-33548D01*
X25385Y-33493D01*
X25257Y-33365D01*
X25257Y-33036D01*
X25000Y-32778D01*
X24972Y-32806D01*
X24972Y-32750D01*
X24714Y-32493D01*
X24653Y-32523D01*
X24592Y-32673D01*
X24594Y-32835D01*
X24653Y-32977D01*
X24714Y-33007D01*
X24972Y-32750D01*
X24972Y-32806D01*
X24743Y-33036D01*
X24773Y-33097D01*
X24923Y-33158D01*
X25085Y-33156D01*
X25227Y-33097D01*
X25257Y-33036D01*
X25257Y-33365D01*
X25091Y-33296D01*
X24910Y-33296D01*
X24743Y-33365D01*
X24615Y-33493D01*
X24546Y-33659D01*
X24546Y-33840D01*
X24615Y-34007D01*
X24743Y-34135D01*
X24909Y-34204D01*
X25090Y-34204D01*
X25257Y-34135D01*
X25385Y-34007D01*
X25454Y-33841D01*
X25454Y-34660D01*
X25385Y-34493D01*
X25257Y-34365D01*
X25091Y-34296D01*
X24910Y-34296D01*
X24743Y-34365D01*
X24615Y-34493D01*
X24546Y-34659D01*
X24546Y-34840D01*
X24615Y-35007D01*
X24743Y-35135D01*
X24909Y-35204D01*
X25090Y-35204D01*
X25257Y-35135D01*
X25385Y-35007D01*
X25454Y-34841D01*
X25454Y-35660D01*
X25385Y-35493D01*
X25257Y-35365D01*
X25091Y-35296D01*
X24910Y-35296D01*
X24743Y-35365D01*
X24615Y-35493D01*
X24546Y-35659D01*
X24546Y-35840D01*
X24615Y-36007D01*
X24743Y-36135D01*
X24909Y-36204D01*
X25090Y-36204D01*
X25257Y-36135D01*
X25385Y-36007D01*
X25454Y-35841D01*
X25454Y-36660D01*
X25385Y-36493D01*
X25257Y-36365D01*
X25091Y-36296D01*
X24910Y-36296D01*
X24743Y-36365D01*
X24615Y-36493D01*
X24546Y-36659D01*
X24546Y-36840D01*
X24615Y-37007D01*
X24743Y-37135D01*
X24909Y-37204D01*
X25090Y-37204D01*
X25257Y-37135D01*
X25385Y-37007D01*
X25454Y-36841D01*
X25454Y-37660D01*
X25385Y-37493D01*
X25257Y-37365D01*
X25091Y-37296D01*
X24910Y-37296D01*
X24743Y-37365D01*
X24615Y-37493D01*
X24546Y-37659D01*
X24546Y-37840D01*
X24615Y-38007D01*
X24743Y-38135D01*
X24909Y-38204D01*
X25090Y-38204D01*
X25257Y-38135D01*
X25385Y-38007D01*
X25454Y-37841D01*
X25454Y-38660D01*
X25385Y-38493D01*
X25257Y-38365D01*
X25091Y-38296D01*
X24910Y-38296D01*
X24743Y-38365D01*
X24615Y-38493D01*
X24546Y-38659D01*
X24546Y-38840D01*
X24615Y-39007D01*
X24743Y-39135D01*
X24909Y-39204D01*
X25090Y-39204D01*
X25257Y-39135D01*
X25385Y-39007D01*
X25454Y-38841D01*
X25454Y-39660D01*
X25385Y-39493D01*
X25257Y-39365D01*
X25091Y-39296D01*
X24910Y-39296D01*
X24743Y-39365D01*
X24615Y-39493D01*
X24546Y-39659D01*
X24546Y-39840D01*
X24615Y-40007D01*
X24743Y-40135D01*
X24909Y-40204D01*
X25090Y-40204D01*
X25257Y-40135D01*
X25385Y-40007D01*
X25454Y-39841D01*
X25454Y-40660D01*
X25385Y-40493D01*
X25257Y-40365D01*
X25091Y-40296D01*
X24910Y-40296D01*
X24743Y-40365D01*
X24615Y-40493D01*
X24546Y-40659D01*
X24546Y-40840D01*
X24615Y-41007D01*
X24743Y-41135D01*
X24909Y-41204D01*
X25090Y-41204D01*
X25257Y-41135D01*
X25385Y-41007D01*
X25454Y-40841D01*
X25454Y-41660D01*
X25385Y-41493D01*
X25257Y-41365D01*
X25091Y-41296D01*
X24910Y-41296D01*
X24743Y-41365D01*
X24615Y-41493D01*
X24546Y-41659D01*
X24546Y-41840D01*
X24615Y-42007D01*
X24743Y-42135D01*
X24909Y-42204D01*
X25090Y-42204D01*
X25257Y-42135D01*
X25385Y-42007D01*
X25454Y-41841D01*
X25454Y-42660D01*
X25385Y-42493D01*
X25257Y-42365D01*
X25091Y-42296D01*
X24910Y-42296D01*
X24743Y-42365D01*
X24615Y-42493D01*
X24546Y-42659D01*
X24546Y-42840D01*
X24615Y-43007D01*
X24743Y-43135D01*
X24909Y-43204D01*
X25090Y-43204D01*
X25257Y-43135D01*
X25385Y-43007D01*
X25454Y-42841D01*
X25454Y-43660D01*
X25385Y-43493D01*
X25257Y-43365D01*
X25091Y-43296D01*
X24910Y-43296D01*
X24743Y-43365D01*
X24615Y-43493D01*
X24546Y-43659D01*
X24546Y-43840D01*
X24615Y-44007D01*
X24743Y-44135D01*
X24909Y-44204D01*
X25090Y-44204D01*
X25257Y-44135D01*
X25385Y-44007D01*
X25454Y-43841D01*
X25454Y-44660D01*
X25385Y-44493D01*
X25257Y-44365D01*
X25091Y-44296D01*
X24910Y-44296D01*
X24743Y-44365D01*
X24615Y-44493D01*
X24546Y-44659D01*
X24546Y-44840D01*
X24615Y-45007D01*
X24743Y-45135D01*
X24909Y-45204D01*
X25090Y-45204D01*
X25257Y-45135D01*
X25385Y-45007D01*
X25454Y-44841D01*
X25454Y-45660D01*
X25385Y-45493D01*
X25257Y-45365D01*
X25091Y-45296D01*
X24910Y-45296D01*
X24743Y-45365D01*
X24615Y-45493D01*
X24546Y-45659D01*
X24546Y-45840D01*
X24615Y-46007D01*
X24743Y-46135D01*
X24909Y-46204D01*
X25090Y-46204D01*
X25257Y-46135D01*
X25385Y-46007D01*
X25454Y-45841D01*
X25454Y-46660D01*
X25385Y-46493D01*
X25257Y-46365D01*
X25091Y-46296D01*
X24910Y-46296D01*
X24743Y-46365D01*
X24615Y-46493D01*
X24546Y-46659D01*
X24546Y-46840D01*
X24615Y-47007D01*
X24743Y-47135D01*
X24909Y-47204D01*
X25090Y-47204D01*
X25257Y-47135D01*
X25385Y-47007D01*
X25454Y-46841D01*
X25454Y-47660D01*
X25385Y-47493D01*
X25257Y-47365D01*
X25091Y-47296D01*
X24910Y-47296D01*
X24743Y-47365D01*
X24615Y-47493D01*
X24546Y-47659D01*
X24546Y-47840D01*
X24615Y-48007D01*
X24743Y-48135D01*
X24909Y-48204D01*
X25090Y-48204D01*
X25257Y-48135D01*
X25385Y-48007D01*
X25454Y-47841D01*
X25454Y-48660D01*
X25385Y-48493D01*
X25257Y-48365D01*
X25091Y-48296D01*
X24910Y-48296D01*
X24743Y-48365D01*
X24615Y-48493D01*
X24546Y-48659D01*
X24546Y-48840D01*
X24615Y-49007D01*
X24743Y-49135D01*
X24909Y-49204D01*
X25090Y-49204D01*
X25257Y-49135D01*
X25385Y-49007D01*
X25454Y-48841D01*
X25454Y-49660D01*
X25385Y-49493D01*
X25257Y-49365D01*
X25091Y-49296D01*
X24910Y-49296D01*
X24743Y-49365D01*
X24615Y-49493D01*
X24546Y-49659D01*
X24546Y-49840D01*
X24615Y-50007D01*
X24743Y-50135D01*
X24909Y-50204D01*
X25090Y-50204D01*
X25257Y-50135D01*
X25385Y-50007D01*
X25454Y-49841D01*
X25454Y-50660D01*
X25385Y-50493D01*
X25257Y-50365D01*
X25091Y-50296D01*
X24910Y-50296D01*
X24743Y-50365D01*
X24615Y-50493D01*
X24546Y-50659D01*
X24546Y-50840D01*
X24615Y-51007D01*
X24743Y-51135D01*
X24909Y-51204D01*
X25090Y-51204D01*
X25257Y-51135D01*
X25385Y-51007D01*
X25454Y-50841D01*
X25454Y-51660D01*
X25385Y-51493D01*
X25257Y-51365D01*
X25091Y-51296D01*
X24910Y-51296D01*
X24743Y-51365D01*
X24615Y-51493D01*
X24546Y-51659D01*
X24546Y-51840D01*
X24615Y-52007D01*
X24743Y-52135D01*
X24909Y-52204D01*
X25090Y-52204D01*
X25257Y-52135D01*
X25385Y-52007D01*
X25454Y-51841D01*
X25454Y-52660D01*
X25385Y-52493D01*
X25257Y-52365D01*
X25091Y-52296D01*
X24910Y-52296D01*
X24743Y-52365D01*
X24615Y-52493D01*
X24546Y-52659D01*
X24546Y-52840D01*
X24615Y-53007D01*
X24743Y-53135D01*
X24909Y-53204D01*
X25090Y-53204D01*
X25257Y-53135D01*
X25385Y-53007D01*
X25454Y-52841D01*
X25454Y-53660D01*
X25385Y-53493D01*
X25257Y-53365D01*
X25091Y-53296D01*
X24910Y-53296D01*
X24743Y-53365D01*
X24615Y-53493D01*
X24546Y-53659D01*
X24546Y-53840D01*
X24615Y-54007D01*
X24743Y-54135D01*
X24909Y-54204D01*
X25090Y-54204D01*
X25257Y-54135D01*
X25385Y-54007D01*
X25454Y-53841D01*
X25454Y-54210D01*
X24454Y-54210D01*
X24454Y-53841D01*
X24454Y-53660D01*
X24454Y-52841D01*
X24454Y-52660D01*
X24454Y-51841D01*
X24454Y-51660D01*
X24454Y-50841D01*
X24454Y-50660D01*
X24454Y-49841D01*
X24454Y-49660D01*
X24454Y-48841D01*
X24454Y-48660D01*
X24454Y-47841D01*
X24454Y-47660D01*
X24454Y-46841D01*
X24454Y-46660D01*
X24454Y-45841D01*
X24454Y-45660D01*
X24454Y-44841D01*
X24454Y-44660D01*
X24454Y-43841D01*
X24454Y-43660D01*
X24454Y-42841D01*
X24454Y-42660D01*
X24454Y-41841D01*
X24454Y-41660D01*
X24454Y-40841D01*
X24454Y-40660D01*
X24454Y-39841D01*
X24454Y-39660D01*
X24454Y-38841D01*
X24454Y-38660D01*
X24454Y-37841D01*
X24454Y-37660D01*
X24454Y-36841D01*
X24454Y-36660D01*
X24454Y-35841D01*
X24454Y-35660D01*
X24454Y-34841D01*
X24454Y-34660D01*
X24454Y-33841D01*
X24454Y-33660D01*
X24454Y-31841D01*
X24454Y-31660D01*
X24385Y-31493D01*
X24257Y-31365D01*
X24091Y-31296D01*
X23910Y-31296D01*
X23743Y-31365D01*
X23615Y-31493D01*
X23546Y-31659D01*
X23546Y-31840D01*
X23615Y-32007D01*
X23743Y-32135D01*
X23909Y-32204D01*
X24090Y-32204D01*
X24257Y-32135D01*
X24385Y-32007D01*
X24454Y-31841D01*
X24454Y-33660D01*
X24408Y-33548D01*
X24408Y-32827D01*
X24406Y-32665D01*
X24347Y-32523D01*
X24286Y-32493D01*
X24257Y-32521D01*
X24257Y-32464D01*
X24227Y-32403D01*
X24077Y-32342D01*
X23915Y-32344D01*
X23773Y-32403D01*
X23743Y-32464D01*
X24000Y-32722D01*
X24257Y-32464D01*
X24257Y-32521D01*
X24028Y-32750D01*
X24286Y-33007D01*
X24347Y-32977D01*
X24408Y-32827D01*
X24408Y-33548D01*
X24385Y-33493D01*
X24257Y-33365D01*
X24257Y-33036D01*
X24000Y-32778D01*
X23972Y-32806D01*
X23972Y-32750D01*
X23714Y-32493D01*
X23653Y-32523D01*
X23592Y-32673D01*
X23594Y-32835D01*
X23653Y-32977D01*
X23714Y-33007D01*
X23972Y-32750D01*
X23972Y-32806D01*
X23743Y-33036D01*
X23773Y-33097D01*
X23923Y-33158D01*
X24085Y-33156D01*
X24227Y-33097D01*
X24257Y-33036D01*
X24257Y-33365D01*
X24091Y-33296D01*
X23910Y-33296D01*
X23743Y-33365D01*
X23615Y-33493D01*
X23546Y-33659D01*
X23546Y-33840D01*
X23615Y-34007D01*
X23743Y-34135D01*
X23909Y-34204D01*
X24090Y-34204D01*
X24257Y-34135D01*
X24385Y-34007D01*
X24454Y-33841D01*
X24454Y-34660D01*
X24385Y-34493D01*
X24257Y-34365D01*
X24091Y-34296D01*
X23910Y-34296D01*
X23743Y-34365D01*
X23615Y-34493D01*
X23546Y-34659D01*
X23546Y-34840D01*
X23615Y-35007D01*
X23743Y-35135D01*
X23909Y-35204D01*
X24090Y-35204D01*
X24257Y-35135D01*
X24385Y-35007D01*
X24454Y-34841D01*
X24454Y-35660D01*
X24385Y-35493D01*
X24257Y-35365D01*
X24091Y-35296D01*
X23910Y-35296D01*
X23743Y-35365D01*
X23615Y-35493D01*
X23546Y-35659D01*
X23546Y-35840D01*
X23615Y-36007D01*
X23743Y-36135D01*
X23909Y-36204D01*
X24090Y-36204D01*
X24257Y-36135D01*
X24385Y-36007D01*
X24454Y-35841D01*
X24454Y-36660D01*
X24385Y-36493D01*
X24257Y-36365D01*
X24091Y-36296D01*
X23910Y-36296D01*
X23743Y-36365D01*
X23615Y-36493D01*
X23546Y-36659D01*
X23546Y-36840D01*
X23615Y-37007D01*
X23743Y-37135D01*
X23909Y-37204D01*
X24090Y-37204D01*
X24257Y-37135D01*
X24385Y-37007D01*
X24454Y-36841D01*
X24454Y-37660D01*
X24385Y-37493D01*
X24257Y-37365D01*
X24091Y-37296D01*
X23910Y-37296D01*
X23743Y-37365D01*
X23615Y-37493D01*
X23546Y-37659D01*
X23546Y-37840D01*
X23615Y-38007D01*
X23743Y-38135D01*
X23909Y-38204D01*
X24090Y-38204D01*
X24257Y-38135D01*
X24385Y-38007D01*
X24454Y-37841D01*
X24454Y-38660D01*
X24385Y-38493D01*
X24257Y-38365D01*
X24091Y-38296D01*
X23910Y-38296D01*
X23743Y-38365D01*
X23615Y-38493D01*
X23546Y-38659D01*
X23546Y-38840D01*
X23615Y-39007D01*
X23743Y-39135D01*
X23909Y-39204D01*
X24090Y-39204D01*
X24257Y-39135D01*
X24385Y-39007D01*
X24454Y-38841D01*
X24454Y-39660D01*
X24385Y-39493D01*
X24257Y-39365D01*
X24091Y-39296D01*
X23910Y-39296D01*
X23743Y-39365D01*
X23615Y-39493D01*
X23546Y-39659D01*
X23546Y-39840D01*
X23615Y-40007D01*
X23743Y-40135D01*
X23909Y-40204D01*
X24090Y-40204D01*
X24257Y-40135D01*
X24385Y-40007D01*
X24454Y-39841D01*
X24454Y-40660D01*
X24385Y-40493D01*
X24257Y-40365D01*
X24091Y-40296D01*
X23910Y-40296D01*
X23743Y-40365D01*
X23615Y-40493D01*
X23546Y-40659D01*
X23546Y-40840D01*
X23615Y-41007D01*
X23743Y-41135D01*
X23909Y-41204D01*
X24090Y-41204D01*
X24257Y-41135D01*
X24385Y-41007D01*
X24454Y-40841D01*
X24454Y-41660D01*
X24385Y-41493D01*
X24257Y-41365D01*
X24091Y-41296D01*
X23910Y-41296D01*
X23743Y-41365D01*
X23615Y-41493D01*
X23546Y-41659D01*
X23546Y-41840D01*
X23615Y-42007D01*
X23743Y-42135D01*
X23909Y-42204D01*
X24090Y-42204D01*
X24257Y-42135D01*
X24385Y-42007D01*
X24454Y-41841D01*
X24454Y-42660D01*
X24385Y-42493D01*
X24257Y-42365D01*
X24091Y-42296D01*
X23910Y-42296D01*
X23743Y-42365D01*
X23615Y-42493D01*
X23546Y-42659D01*
X23546Y-42840D01*
X23615Y-43007D01*
X23743Y-43135D01*
X23909Y-43204D01*
X24090Y-43204D01*
X24257Y-43135D01*
X24385Y-43007D01*
X24454Y-42841D01*
X24454Y-43660D01*
X24385Y-43493D01*
X24257Y-43365D01*
X24091Y-43296D01*
X23910Y-43296D01*
X23743Y-43365D01*
X23615Y-43493D01*
X23546Y-43659D01*
X23546Y-43840D01*
X23615Y-44007D01*
X23743Y-44135D01*
X23909Y-44204D01*
X24090Y-44204D01*
X24257Y-44135D01*
X24385Y-44007D01*
X24454Y-43841D01*
X24454Y-44660D01*
X24385Y-44493D01*
X24257Y-44365D01*
X24091Y-44296D01*
X23910Y-44296D01*
X23743Y-44365D01*
X23615Y-44493D01*
X23546Y-44659D01*
X23546Y-44840D01*
X23615Y-45007D01*
X23743Y-45135D01*
X23909Y-45204D01*
X24090Y-45204D01*
X24257Y-45135D01*
X24385Y-45007D01*
X24454Y-44841D01*
X24454Y-45660D01*
X24385Y-45493D01*
X24257Y-45365D01*
X24091Y-45296D01*
X23910Y-45296D01*
X23743Y-45365D01*
X23615Y-45493D01*
X23546Y-45659D01*
X23546Y-45840D01*
X23615Y-46007D01*
X23743Y-46135D01*
X23909Y-46204D01*
X24090Y-46204D01*
X24257Y-46135D01*
X24385Y-46007D01*
X24454Y-45841D01*
X24454Y-46660D01*
X24385Y-46493D01*
X24257Y-46365D01*
X24091Y-46296D01*
X23910Y-46296D01*
X23743Y-46365D01*
X23615Y-46493D01*
X23546Y-46659D01*
X23546Y-46840D01*
X23615Y-47007D01*
X23743Y-47135D01*
X23909Y-47204D01*
X24090Y-47204D01*
X24257Y-47135D01*
X24385Y-47007D01*
X24454Y-46841D01*
X24454Y-47660D01*
X24385Y-47493D01*
X24257Y-47365D01*
X24091Y-47296D01*
X23910Y-47296D01*
X23743Y-47365D01*
X23615Y-47493D01*
X23546Y-47659D01*
X23546Y-47840D01*
X23615Y-48007D01*
X23743Y-48135D01*
X23909Y-48204D01*
X24090Y-48204D01*
X24257Y-48135D01*
X24385Y-48007D01*
X24454Y-47841D01*
X24454Y-48660D01*
X24385Y-48493D01*
X24257Y-48365D01*
X24091Y-48296D01*
X23910Y-48296D01*
X23743Y-48365D01*
X23615Y-48493D01*
X23546Y-48659D01*
X23546Y-48840D01*
X23615Y-49007D01*
X23743Y-49135D01*
X23909Y-49204D01*
X24090Y-49204D01*
X24257Y-49135D01*
X24385Y-49007D01*
X24454Y-48841D01*
X24454Y-49660D01*
X24385Y-49493D01*
X24257Y-49365D01*
X24091Y-49296D01*
X23910Y-49296D01*
X23743Y-49365D01*
X23615Y-49493D01*
X23546Y-49659D01*
X23546Y-49840D01*
X23615Y-50007D01*
X23743Y-50135D01*
X23909Y-50204D01*
X24090Y-50204D01*
X24257Y-50135D01*
X24385Y-50007D01*
X24454Y-49841D01*
X24454Y-50660D01*
X24385Y-50493D01*
X24257Y-50365D01*
X24091Y-50296D01*
X23910Y-50296D01*
X23743Y-50365D01*
X23615Y-50493D01*
X23546Y-50659D01*
X23546Y-50840D01*
X23615Y-51007D01*
X23743Y-51135D01*
X23909Y-51204D01*
X24090Y-51204D01*
X24257Y-51135D01*
X24385Y-51007D01*
X24454Y-50841D01*
X24454Y-51660D01*
X24385Y-51493D01*
X24257Y-51365D01*
X24091Y-51296D01*
X23910Y-51296D01*
X23743Y-51365D01*
X23615Y-51493D01*
X23546Y-51659D01*
X23546Y-51840D01*
X23615Y-52007D01*
X23743Y-52135D01*
X23909Y-52204D01*
X24090Y-52204D01*
X24257Y-52135D01*
X24385Y-52007D01*
X24454Y-51841D01*
X24454Y-52660D01*
X24385Y-52493D01*
X24257Y-52365D01*
X24091Y-52296D01*
X23910Y-52296D01*
X23743Y-52365D01*
X23615Y-52493D01*
X23546Y-52659D01*
X23546Y-52840D01*
X23615Y-53007D01*
X23743Y-53135D01*
X23909Y-53204D01*
X24090Y-53204D01*
X24257Y-53135D01*
X24385Y-53007D01*
X24454Y-52841D01*
X24454Y-53660D01*
X24385Y-53493D01*
X24257Y-53365D01*
X24091Y-53296D01*
X23910Y-53296D01*
X23743Y-53365D01*
X23615Y-53493D01*
X23546Y-53659D01*
X23546Y-53840D01*
X23615Y-54007D01*
X23743Y-54135D01*
X23909Y-54204D01*
X24090Y-54204D01*
X24257Y-54135D01*
X24385Y-54007D01*
X24454Y-53841D01*
X24454Y-54210D01*
X23485Y-54210D01*
X23485Y-30003D01*
X23622Y-30335D01*
X23913Y-30627D01*
X24293Y-30785D01*
X24705Y-30785D01*
X25085Y-30628D01*
X25377Y-30337D01*
X25535Y-29957D01*
X25535Y-29545D01*
X25378Y-29165D01*
X25087Y-28873D01*
X24707Y-28715D01*
X24295Y-28715D01*
X23915Y-28872D01*
X23623Y-29163D01*
X23485Y-29494D01*
X23485Y-26525D01*
X23660Y-25635D01*
X24154Y-24899D01*
X24881Y-24412D01*
X25774Y-24235D01*
X31265Y-24235D01*
X31265Y-32000D01*
X31283Y-32090D01*
X31334Y-32166D01*
X31410Y-32217D01*
X31500Y-32235D01*
X38500Y-32235D01*
X38590Y-32217D01*
X38666Y-32166D01*
X38717Y-32090D01*
X38735Y-32000D01*
X38735Y-26485D01*
X44515Y-26485D01*
X44515Y-29496D01*
X44378Y-29165D01*
X44087Y-28873D01*
X43707Y-28715D01*
X43295Y-28715D01*
X42915Y-28872D01*
X42623Y-29163D01*
X42465Y-29543D01*
X42465Y-29955D01*
X42622Y-30335D01*
X42913Y-30627D01*
X43293Y-30785D01*
X43705Y-30785D01*
X44085Y-30628D01*
X44377Y-30337D01*
X44515Y-30005D01*
X44515Y-43910D01*
M02*
