G04 (created by PCBNEW-RS274X (2012-05-21 BZR 3261)-stable) date Thu 30 May 2013 05:43:25 PM PDT*
G01*
G70*
G90*
%MOIN*%
G04 Gerber Fmt 3.4, Leading zero omitted, Abs format*
%FSLAX34Y34*%
G04 APERTURE LIST*
%ADD10C,0.008000*%
%ADD11C,0.045400*%
%ADD12C,0.076900*%
%ADD13C,0.053200*%
%ADD14C,0.065100*%
%ADD15C,0.181000*%
G04 APERTURE END LIST*
G54D10*
G54D11*
X29528Y-28740D03*
X28740Y-28740D03*
X27953Y-28740D03*
G54D12*
X37203Y-54133D03*
X41141Y-54133D03*
X39172Y-56102D03*
G54D13*
X39172Y-54133D03*
X37203Y-56102D03*
X41141Y-56102D03*
X37203Y-57086D03*
X41141Y-57086D03*
G54D12*
X40156Y-54133D03*
X38188Y-54133D03*
X26968Y-54134D03*
X30906Y-54134D03*
X28937Y-56103D03*
G54D13*
X28937Y-54134D03*
X26968Y-56103D03*
X30906Y-56103D03*
X26968Y-57087D03*
X30906Y-57087D03*
G54D12*
X29921Y-54134D03*
X27953Y-54134D03*
X32086Y-54133D03*
X36024Y-54133D03*
X34055Y-56102D03*
G54D13*
X34055Y-54133D03*
X32086Y-56102D03*
X36024Y-56102D03*
X32086Y-57086D03*
X36024Y-57086D03*
G54D12*
X35039Y-54133D03*
X33071Y-54133D03*
G54D14*
X24000Y-31750D03*
X25000Y-31750D03*
X24000Y-32750D03*
X25000Y-32750D03*
X24000Y-33750D03*
X25000Y-33750D03*
X24000Y-34750D03*
X25000Y-34750D03*
X24000Y-35750D03*
X25000Y-35750D03*
X24000Y-36750D03*
X25000Y-36750D03*
X24000Y-37750D03*
X25000Y-37750D03*
X24000Y-38750D03*
X25000Y-38750D03*
X24000Y-39750D03*
X25000Y-39750D03*
X24000Y-40750D03*
X25000Y-40750D03*
X24000Y-41750D03*
X25000Y-41750D03*
X24000Y-42750D03*
X25000Y-42750D03*
X24000Y-43750D03*
X25000Y-43750D03*
X24000Y-44750D03*
X25000Y-44750D03*
X24000Y-45750D03*
X25000Y-45750D03*
X24000Y-46750D03*
X25000Y-46750D03*
X24000Y-47750D03*
X25000Y-47750D03*
X24000Y-48750D03*
X25000Y-48750D03*
X24000Y-49750D03*
X25000Y-49750D03*
X24000Y-50750D03*
X25000Y-50750D03*
X24000Y-51750D03*
X25000Y-51750D03*
X24000Y-52750D03*
X25000Y-52750D03*
X24000Y-53750D03*
X25000Y-53750D03*
X43000Y-31750D03*
X44000Y-31750D03*
X43000Y-32750D03*
X44000Y-32750D03*
X43000Y-33750D03*
X44000Y-33750D03*
X43000Y-34750D03*
X44000Y-34750D03*
X43000Y-35750D03*
X44000Y-35750D03*
X43000Y-36750D03*
X44000Y-36750D03*
X43000Y-37750D03*
X44000Y-37750D03*
X43000Y-38750D03*
X44000Y-38750D03*
X43000Y-39750D03*
X44000Y-39750D03*
X43000Y-40750D03*
X44000Y-40750D03*
X43000Y-41750D03*
X44000Y-41750D03*
X43000Y-42750D03*
X44000Y-42750D03*
X43000Y-43750D03*
X44000Y-43750D03*
X43000Y-44750D03*
X44000Y-44750D03*
X43000Y-45750D03*
X44000Y-45750D03*
X43000Y-46750D03*
X44000Y-46750D03*
X43000Y-47750D03*
X44000Y-47750D03*
X43000Y-48750D03*
X44000Y-48750D03*
X43000Y-49750D03*
X44000Y-49750D03*
X43000Y-50750D03*
X44000Y-50750D03*
X43000Y-51750D03*
X44000Y-51750D03*
X43000Y-52750D03*
X44000Y-52750D03*
X43000Y-53750D03*
X44000Y-53750D03*
G54D15*
X24500Y-29750D03*
X43500Y-29750D03*
X25750Y-55750D03*
X42250Y-55750D03*
G54D11*
X27165Y-28740D03*
M02*
