G75*
G70*
%OFA0B0*%
%FSLAX24Y24*%
%IPPOS*%
%LPD*%
%AMOC8*
5,1,8,0,0,1.08239X$1,22.5*
%
%ADD10C,0.0520*%
%ADD11C,0.0690*%
%ADD12C,0.0330*%
%ADD13C,0.0560*%
%ADD14C,0.0098*%
D10*
X015363Y015358D03*
X016363Y015358D03*
D11*
X019273Y011579D03*
X020273Y011579D03*
X021273Y011579D03*
X007281Y011004D03*
X007281Y010004D03*
X007281Y009004D03*
D12*
X009013Y007484D03*
X009485Y007012D03*
X009249Y006460D03*
X008462Y005831D03*
X008855Y005122D03*
X008462Y004728D03*
X008383Y004098D03*
X007989Y004098D03*
X010037Y004492D03*
X011848Y004492D03*
X012241Y004098D03*
X011848Y003705D03*
X011690Y006618D03*
X010666Y007090D03*
X010194Y006933D03*
X012084Y008035D03*
X012556Y008035D03*
X012714Y008665D03*
X013265Y008350D03*
X013501Y007957D03*
X013029Y006618D03*
X015391Y007405D03*
X015863Y006618D03*
X015785Y005909D03*
X015312Y005437D03*
X015312Y004649D03*
X016572Y006775D03*
X016966Y007405D03*
X017517Y006775D03*
X017832Y005516D03*
X016414Y009059D03*
X016572Y009689D03*
X016178Y010397D03*
X016808Y010949D03*
X016572Y011815D03*
X016414Y012681D03*
X016257Y013390D03*
X015863Y013783D03*
X017123Y013941D03*
X017753Y013941D03*
X017438Y015988D03*
X014289Y015988D03*
X014367Y016697D03*
X013974Y017484D03*
X014367Y019059D03*
X012163Y019059D03*
X011769Y018193D03*
X012005Y021421D03*
X012477Y022366D03*
X012556Y023153D03*
X012635Y024098D03*
X011454Y024728D03*
X011611Y027563D03*
X010981Y027563D03*
X009879Y027957D03*
X009879Y029846D03*
X010981Y030240D03*
X011611Y030240D03*
X010824Y031264D03*
X010824Y031894D03*
X009407Y032130D03*
X012556Y032130D03*
X013344Y030240D03*
X013029Y029846D03*
X013474Y029401D03*
X013974Y029401D03*
X013974Y028901D03*
X013974Y028401D03*
X013474Y028401D03*
X013474Y028901D03*
X014474Y028901D03*
X014474Y028401D03*
X015470Y028350D03*
X015785Y028665D03*
X016336Y027799D03*
X016966Y027799D03*
X018068Y028193D03*
X019879Y028114D03*
X019879Y024964D03*
X018147Y021421D03*
X014682Y021421D03*
X014918Y025201D03*
X015312Y026303D03*
X015312Y026933D03*
X014474Y029401D03*
X016336Y030476D03*
X016572Y030870D03*
X016966Y030476D03*
X016572Y031500D03*
X024131Y026146D03*
X024525Y026539D03*
X024131Y025358D03*
X024525Y024964D03*
X029013Y027248D03*
X029564Y027878D03*
X029564Y026539D03*
X024525Y032523D03*
X024525Y033232D03*
X024525Y034020D03*
X024525Y034728D03*
X029013Y035122D03*
X029564Y035752D03*
X029564Y034413D03*
X029564Y020004D03*
X029013Y019374D03*
X029564Y018665D03*
X029643Y013941D03*
X029328Y013311D03*
X024761Y011972D03*
X024525Y011579D03*
X024761Y011106D03*
X024525Y010712D03*
X024761Y010240D03*
X024367Y009768D03*
X024761Y009374D03*
X024525Y008980D03*
X023580Y009846D03*
X021454Y008350D03*
X022241Y007012D03*
X022241Y006539D03*
X022635Y005279D03*
X024446Y002366D03*
X024918Y002366D03*
X027044Y004964D03*
X027044Y005516D03*
X026572Y005358D03*
X025627Y007799D03*
X028068Y007799D03*
X029328Y007799D03*
X029879Y007799D03*
X024446Y012523D03*
X023974Y012996D03*
X023816Y017012D03*
X024210Y017405D03*
X024603Y017012D03*
X024210Y018350D03*
X023816Y018744D03*
X024603Y018744D03*
X018619Y010319D03*
X017832Y010004D03*
X018383Y009374D03*
X014840Y009138D03*
X014603Y009610D03*
X014840Y010791D03*
X013580Y011185D03*
X012635Y011264D03*
X011533Y010949D03*
X011533Y010319D03*
X010194Y011894D03*
X009800Y011500D03*
X012714Y012760D03*
X013186Y014413D03*
X012792Y014807D03*
X011769Y015043D03*
X014603Y012445D03*
X007832Y023232D03*
X007832Y024413D03*
X006651Y024413D03*
X006651Y023232D03*
D13*
X006887Y006567D03*
X006887Y005567D03*
D14*
X005168Y000410D02*
X005168Y037314D01*
X030260Y037314D01*
X030260Y000410D01*
X005168Y000410D01*
X005168Y000452D02*
X030260Y000452D01*
X030260Y000549D02*
X005168Y000549D01*
X005168Y000646D02*
X030260Y000646D01*
X030260Y000743D02*
X005168Y000743D01*
X005168Y000840D02*
X030260Y000840D01*
X030260Y000937D02*
X005168Y000937D01*
X005168Y001034D02*
X030260Y001034D01*
X030260Y001131D02*
X005168Y001131D01*
X005168Y001228D02*
X030260Y001228D01*
X030260Y001325D02*
X005168Y001325D01*
X005168Y001422D02*
X030260Y001422D01*
X030260Y001519D02*
X005168Y001519D01*
X005168Y001616D02*
X030260Y001616D01*
X030260Y001713D02*
X005168Y001713D01*
X005168Y001810D02*
X030260Y001810D01*
X030260Y001907D02*
X005168Y001907D01*
X005168Y002004D02*
X030260Y002004D01*
X030260Y002101D02*
X005168Y002101D01*
X005168Y002198D02*
X030260Y002198D01*
X030260Y002295D02*
X005168Y002295D01*
X005168Y002392D02*
X030260Y002392D01*
X030260Y002489D02*
X005168Y002489D01*
X005168Y002585D02*
X030260Y002585D01*
X030260Y002682D02*
X005168Y002682D01*
X005168Y002779D02*
X030260Y002779D01*
X030260Y002876D02*
X005168Y002876D01*
X005168Y002973D02*
X030260Y002973D01*
X030260Y003070D02*
X028844Y003070D01*
X028821Y003048D02*
X028941Y003168D01*
X029006Y003324D01*
X029006Y003494D01*
X028941Y003651D01*
X028821Y003771D01*
X028665Y003836D01*
X028495Y003836D01*
X028338Y003771D01*
X028218Y003651D01*
X028153Y003494D01*
X028153Y003324D01*
X028218Y003168D01*
X028338Y003048D01*
X028495Y002983D01*
X028665Y002983D01*
X028821Y003048D01*
X028941Y003167D02*
X030260Y003167D01*
X030260Y003264D02*
X028981Y003264D01*
X029006Y003361D02*
X030260Y003361D01*
X030260Y003458D02*
X029006Y003458D01*
X028981Y003555D02*
X030260Y003555D01*
X030260Y003652D02*
X028940Y003652D01*
X028843Y003749D02*
X030260Y003749D01*
X030260Y003846D02*
X008540Y003846D01*
X008549Y003850D02*
X008631Y003932D01*
X008676Y004040D01*
X030260Y004040D01*
X030260Y004137D02*
X008676Y004137D01*
X008676Y004157D02*
X008676Y004040D01*
X008636Y003943D02*
X030260Y003943D01*
X030260Y004234D02*
X008644Y004234D01*
X008631Y004264D02*
X008549Y004347D01*
X008441Y004391D01*
X008325Y004391D01*
X008217Y004347D01*
X008186Y004316D01*
X008155Y004347D01*
X008048Y004391D01*
X007931Y004391D01*
X007823Y004347D01*
X007741Y004264D01*
X007696Y004157D01*
X007696Y004040D01*
X005168Y004040D01*
X005168Y004137D02*
X007696Y004137D01*
X007696Y004040D02*
X007741Y003932D01*
X007823Y003850D01*
X007931Y003805D01*
X008048Y003805D01*
X008155Y003850D01*
X008186Y003881D01*
X008217Y003850D01*
X008325Y003805D01*
X008441Y003805D01*
X008549Y003850D01*
X008226Y003846D02*
X008146Y003846D01*
X007833Y003846D02*
X005168Y003846D01*
X005168Y003749D02*
X028317Y003749D01*
X028220Y003652D02*
X005168Y003652D01*
X005168Y003555D02*
X028179Y003555D01*
X028153Y003458D02*
X005168Y003458D01*
X005168Y003361D02*
X028153Y003361D01*
X028178Y003264D02*
X005168Y003264D01*
X005168Y003167D02*
X028219Y003167D01*
X028316Y003070D02*
X005168Y003070D01*
X005168Y003943D02*
X007736Y003943D01*
X007728Y004234D02*
X005168Y004234D01*
X005168Y004331D02*
X007808Y004331D01*
X008171Y004331D02*
X008201Y004331D01*
X008565Y004331D02*
X030260Y004331D01*
X030260Y004428D02*
X028823Y004428D01*
X028821Y004426D02*
X028941Y004546D01*
X029006Y004702D01*
X029006Y004872D01*
X028941Y005029D01*
X028821Y005149D01*
X028665Y005214D01*
X028495Y005214D01*
X028338Y005149D01*
X028218Y005029D01*
X028153Y004872D01*
X028153Y004702D01*
X028218Y004546D01*
X028338Y004426D01*
X028495Y004361D01*
X028665Y004361D01*
X028821Y004426D01*
X028920Y004525D02*
X030260Y004525D01*
X030260Y004622D02*
X028973Y004622D01*
X029006Y004719D02*
X030260Y004719D01*
X030260Y004816D02*
X029006Y004816D01*
X028989Y004913D02*
X030260Y004913D01*
X030260Y005010D02*
X028949Y005010D01*
X028863Y005107D02*
X030260Y005107D01*
X030260Y005204D02*
X028689Y005204D01*
X028471Y005204D02*
X022921Y005204D01*
X022928Y005221D02*
X022883Y005113D01*
X022801Y005031D01*
X022693Y004986D01*
X022577Y004986D01*
X022469Y005031D01*
X022387Y005113D01*
X022342Y005221D01*
X022342Y005338D01*
X022387Y005445D01*
X022469Y005528D01*
X022577Y005572D01*
X022693Y005572D01*
X022801Y005528D01*
X022883Y005445D01*
X022928Y005338D01*
X022928Y005221D01*
X022928Y005301D02*
X030260Y005301D01*
X030260Y005398D02*
X022903Y005398D01*
X022834Y005495D02*
X030260Y005495D01*
X030260Y005591D02*
X008637Y005591D01*
X008628Y005582D02*
X008710Y005665D01*
X008755Y005772D01*
X008755Y005889D01*
X008710Y005996D01*
X008628Y006079D01*
X008520Y006123D01*
X008403Y006123D01*
X008296Y006079D01*
X008213Y005996D01*
X008169Y005889D01*
X008169Y005772D01*
X008213Y005665D01*
X008296Y005582D01*
X008403Y005538D01*
X008520Y005538D01*
X008628Y005582D01*
X008720Y005688D02*
X030260Y005688D01*
X030260Y005785D02*
X008755Y005785D01*
X008755Y005882D02*
X030260Y005882D01*
X030260Y005979D02*
X008717Y005979D01*
X008630Y006076D02*
X030260Y006076D01*
X030260Y006173D02*
X009321Y006173D01*
X009307Y006168D02*
X009415Y006212D01*
X009497Y006295D01*
X009542Y006402D01*
X009542Y006519D01*
X009497Y006626D01*
X009415Y006709D01*
X009307Y006753D01*
X009191Y006753D01*
X009083Y006709D01*
X009001Y006626D01*
X008956Y006519D01*
X008956Y006402D01*
X009001Y006295D01*
X009083Y006212D01*
X009191Y006168D01*
X009307Y006168D01*
X009177Y006173D02*
X005168Y006173D01*
X005168Y006076D02*
X008293Y006076D01*
X008206Y005979D02*
X005168Y005979D01*
X005168Y005882D02*
X006626Y005882D01*
X006656Y005913D02*
X006541Y005798D01*
X006479Y005648D01*
X006479Y005486D01*
X006541Y005336D01*
X006656Y005221D01*
X006806Y005159D01*
X006968Y005159D01*
X007118Y005221D01*
X007233Y005336D01*
X007295Y005486D01*
X007295Y005648D01*
X007233Y005798D01*
X007118Y005913D01*
X006968Y005975D01*
X006806Y005975D01*
X006656Y005913D01*
X006536Y005785D02*
X005168Y005785D01*
X005168Y005688D02*
X006496Y005688D01*
X006479Y005591D02*
X005168Y005591D01*
X005168Y005495D02*
X006479Y005495D01*
X006515Y005398D02*
X005168Y005398D01*
X005168Y005301D02*
X006576Y005301D01*
X006698Y005204D02*
X005168Y005204D01*
X005168Y005107D02*
X022393Y005107D01*
X022349Y005204D02*
X007076Y005204D01*
X007198Y005301D02*
X022342Y005301D01*
X022367Y005398D02*
X007258Y005398D01*
X007295Y005495D02*
X022436Y005495D01*
X022520Y005010D02*
X005168Y005010D01*
X005168Y004913D02*
X015182Y004913D01*
X015146Y004898D02*
X015064Y004815D01*
X015019Y004708D01*
X015019Y004591D01*
X015064Y004484D01*
X015146Y004401D01*
X015254Y004356D01*
X015370Y004356D01*
X015478Y004401D01*
X015560Y004484D01*
X015605Y004591D01*
X015605Y004708D01*
X015560Y004815D01*
X015478Y004898D01*
X015370Y004942D01*
X015254Y004942D01*
X015146Y004898D01*
X015064Y004816D02*
X005168Y004816D01*
X005168Y004719D02*
X015024Y004719D01*
X015019Y004622D02*
X005168Y004622D01*
X005168Y004525D02*
X015047Y004525D01*
X015119Y004428D02*
X005168Y004428D01*
X005168Y006270D02*
X009025Y006270D01*
X008971Y006367D02*
X005168Y006367D01*
X005168Y006464D02*
X008956Y006464D01*
X008974Y006561D02*
X005168Y006561D01*
X005168Y006658D02*
X009033Y006658D01*
X009466Y006658D02*
X011397Y006658D01*
X011397Y006676D02*
X011397Y006560D01*
X011442Y006452D01*
X011524Y006370D01*
X011632Y006325D01*
X011748Y006325D01*
X011856Y006370D01*
X011938Y006452D01*
X011983Y006560D01*
X011983Y006676D01*
X011938Y006784D01*
X011856Y006866D01*
X011748Y006911D01*
X011632Y006911D01*
X011524Y006866D01*
X011442Y006784D01*
X011397Y006676D01*
X011430Y006755D02*
X005168Y006755D01*
X005168Y006852D02*
X010490Y006852D01*
X010501Y006842D02*
X010608Y006797D01*
X010725Y006797D01*
X010832Y006842D01*
X010915Y006924D01*
X010959Y007032D01*
X010959Y007149D01*
X010915Y007256D01*
X010832Y007339D01*
X010725Y007383D01*
X010608Y007383D01*
X010501Y007339D01*
X010418Y007256D01*
X010374Y007149D01*
X010374Y007032D01*
X010418Y006924D01*
X010501Y006842D01*
X010408Y006949D02*
X005168Y006949D01*
X005168Y007046D02*
X010374Y007046D01*
X010374Y007143D02*
X005168Y007143D01*
X005168Y007240D02*
X010411Y007240D01*
X010499Y007337D02*
X005168Y007337D01*
X005168Y007434D02*
X015098Y007434D01*
X015098Y007464D02*
X015098Y007347D01*
X015143Y007239D01*
X015225Y007157D01*
X015333Y007112D01*
X015449Y007112D01*
X015557Y007157D01*
X015639Y007239D01*
X015684Y007347D01*
X015684Y007464D01*
X015639Y007571D01*
X015557Y007654D01*
X015449Y007698D01*
X015333Y007698D01*
X015225Y007654D01*
X015143Y007571D01*
X015098Y007464D01*
X015126Y007531D02*
X005168Y007531D01*
X005168Y007628D02*
X015199Y007628D01*
X015102Y007337D02*
X010834Y007337D01*
X010922Y007240D02*
X015142Y007240D01*
X015259Y007143D02*
X010959Y007143D01*
X010959Y007046D02*
X016460Y007046D01*
X016514Y007068D02*
X016406Y007024D01*
X016324Y006941D01*
X016279Y006834D01*
X016279Y006717D01*
X016324Y006609D01*
X016406Y006527D01*
X016514Y006482D01*
X016630Y006482D01*
X016738Y006527D01*
X016820Y006609D01*
X016865Y006717D01*
X016865Y006834D01*
X016820Y006941D01*
X016738Y007024D01*
X016630Y007068D01*
X016514Y007068D01*
X016684Y007046D02*
X017405Y007046D01*
X017459Y007068D02*
X017351Y007024D01*
X017269Y006941D01*
X017224Y006834D01*
X017224Y006717D01*
X017269Y006609D01*
X017351Y006527D01*
X017459Y006482D01*
X017575Y006482D01*
X017683Y006527D01*
X017765Y006609D01*
X017810Y006717D01*
X017810Y006834D01*
X017765Y006941D01*
X017683Y007024D01*
X017575Y007068D01*
X017459Y007068D01*
X017629Y007046D02*
X030260Y007046D01*
X030260Y006949D02*
X017757Y006949D01*
X017802Y006852D02*
X030260Y006852D01*
X030260Y006755D02*
X017810Y006755D01*
X017785Y006658D02*
X030260Y006658D01*
X030260Y006561D02*
X017717Y006561D01*
X017317Y006561D02*
X016772Y006561D01*
X016840Y006658D02*
X017248Y006658D01*
X017224Y006755D02*
X016865Y006755D01*
X016857Y006852D02*
X017232Y006852D01*
X017276Y006949D02*
X016813Y006949D01*
X016907Y007112D02*
X017024Y007112D01*
X017132Y007157D01*
X017214Y007239D01*
X017259Y007347D01*
X017259Y007464D01*
X017214Y007571D01*
X017132Y007654D01*
X017024Y007698D01*
X016907Y007698D01*
X016800Y007654D01*
X016717Y007571D01*
X016673Y007464D01*
X016673Y007347D01*
X016717Y007239D01*
X016800Y007157D01*
X016907Y007112D01*
X016834Y007143D02*
X015523Y007143D01*
X015639Y007240D02*
X016717Y007240D01*
X016677Y007337D02*
X015680Y007337D01*
X015684Y007434D02*
X016673Y007434D01*
X016701Y007531D02*
X015656Y007531D01*
X015583Y007628D02*
X016774Y007628D01*
X017157Y007628D02*
X030260Y007628D01*
X030260Y007725D02*
X013684Y007725D01*
X013667Y007708D02*
X013749Y007791D01*
X013794Y007898D01*
X013794Y008015D01*
X013749Y008122D01*
X013667Y008205D01*
X013559Y008249D01*
X013540Y008249D01*
X013558Y008292D01*
X013558Y008409D01*
X013513Y008516D01*
X013431Y008599D01*
X013323Y008643D01*
X013207Y008643D01*
X013099Y008599D01*
X013017Y008516D01*
X012972Y008409D01*
X012972Y008292D01*
X013017Y008184D01*
X013099Y008102D01*
X013207Y008057D01*
X013226Y008057D01*
X013208Y008015D01*
X013208Y007898D01*
X013253Y007791D01*
X013335Y007708D01*
X013443Y007664D01*
X013559Y007664D01*
X013667Y007708D01*
X013762Y007822D02*
X030260Y007822D01*
X030260Y007919D02*
X013794Y007919D01*
X013794Y008016D02*
X030260Y008016D01*
X030260Y008113D02*
X013753Y008113D01*
X013655Y008210D02*
X030260Y008210D01*
X030260Y008307D02*
X013558Y008307D01*
X013558Y008404D02*
X030260Y008404D01*
X030260Y008501D02*
X013520Y008501D01*
X013432Y008598D02*
X030260Y008598D01*
X030260Y008694D02*
X024601Y008694D01*
X024583Y008687D02*
X024691Y008732D01*
X024773Y008814D01*
X024818Y008922D01*
X024818Y009038D01*
X024800Y009081D01*
X024819Y009081D01*
X024927Y009126D01*
X025009Y009208D01*
X025054Y009316D01*
X025054Y009432D01*
X025009Y009540D01*
X024927Y009622D01*
X024819Y009667D01*
X024703Y009667D01*
X024595Y009622D01*
X024513Y009540D01*
X024468Y009432D01*
X024468Y009316D01*
X024486Y009273D01*
X024466Y009273D01*
X024359Y009228D01*
X024276Y009146D01*
X024232Y009038D01*
X024232Y008922D01*
X024276Y008814D01*
X024359Y008732D01*
X024466Y008687D01*
X024583Y008687D01*
X024449Y008694D02*
X013007Y008694D01*
X013007Y008723D02*
X012962Y008831D01*
X012880Y008914D01*
X012772Y008958D01*
X012655Y008958D01*
X012548Y008914D01*
X012465Y008831D01*
X012421Y008723D01*
X012421Y008607D01*
X012465Y008499D01*
X012548Y008417D01*
X012655Y008372D01*
X012772Y008372D01*
X012880Y008417D01*
X012962Y008499D01*
X013007Y008607D01*
X013007Y008723D01*
X012978Y008791D02*
X016295Y008791D01*
X016249Y008811D02*
X016356Y008766D01*
X016473Y008766D01*
X016580Y008811D01*
X016663Y008893D01*
X016707Y009001D01*
X016707Y009117D01*
X016663Y009225D01*
X016580Y009307D01*
X016473Y009352D01*
X016356Y009352D01*
X016249Y009307D01*
X016166Y009225D01*
X016122Y009117D01*
X016122Y009001D01*
X016166Y008893D01*
X016249Y008811D01*
X016171Y008888D02*
X015003Y008888D01*
X015006Y008889D02*
X015088Y008972D01*
X015133Y009079D01*
X015133Y009196D01*
X015088Y009304D01*
X015006Y009386D01*
X014898Y009431D01*
X014838Y009431D01*
X014852Y009444D01*
X014896Y009552D01*
X014896Y009668D01*
X014852Y009776D01*
X014769Y009858D01*
X014662Y009903D01*
X014545Y009903D01*
X014438Y009858D01*
X014355Y009776D01*
X014311Y009668D01*
X014311Y009552D01*
X014355Y009444D01*
X014438Y009362D01*
X014545Y009317D01*
X014605Y009317D01*
X014591Y009304D01*
X014547Y009196D01*
X014547Y009079D01*
X014591Y008972D01*
X014674Y008889D01*
X014781Y008845D01*
X014898Y008845D01*
X015006Y008889D01*
X015094Y008985D02*
X016128Y008985D01*
X016122Y009082D02*
X015133Y009082D01*
X015133Y009179D02*
X016147Y009179D01*
X016218Y009276D02*
X015099Y009276D01*
X015018Y009373D02*
X018090Y009373D01*
X018090Y009316D02*
X018135Y009208D01*
X018217Y009126D01*
X018325Y009081D01*
X018441Y009081D01*
X018549Y009126D01*
X018631Y009208D01*
X018676Y009316D01*
X018676Y009432D01*
X018631Y009540D01*
X018549Y009622D01*
X018441Y009667D01*
X018325Y009667D01*
X018217Y009622D01*
X018135Y009540D01*
X018090Y009432D01*
X018090Y009316D01*
X018106Y009276D02*
X016611Y009276D01*
X016682Y009179D02*
X018163Y009179D01*
X018321Y009082D02*
X016707Y009082D01*
X016701Y008985D02*
X024232Y008985D01*
X024246Y008888D02*
X016658Y008888D01*
X016534Y008791D02*
X024299Y008791D01*
X024250Y009082D02*
X018445Y009082D01*
X018603Y009179D02*
X024310Y009179D01*
X024484Y009276D02*
X018660Y009276D01*
X018676Y009373D02*
X024468Y009373D01*
X024484Y009470D02*
X018660Y009470D01*
X018604Y009567D02*
X024540Y009567D01*
X024696Y009664D02*
X018448Y009664D01*
X018318Y009664D02*
X016865Y009664D01*
X016865Y009631D02*
X016820Y009523D01*
X016738Y009440D01*
X016630Y009396D01*
X016514Y009396D01*
X016406Y009440D01*
X016324Y009523D01*
X016279Y009631D01*
X016279Y009747D01*
X016324Y009855D01*
X016406Y009937D01*
X016514Y009982D01*
X016630Y009982D01*
X016738Y009937D01*
X016820Y009855D01*
X016865Y009747D01*
X016865Y009631D01*
X016839Y009567D02*
X018162Y009567D01*
X018106Y009470D02*
X016768Y009470D01*
X016859Y009761D02*
X017660Y009761D01*
X017666Y009755D02*
X017774Y009711D01*
X017890Y009711D01*
X017998Y009755D01*
X018080Y009838D01*
X018125Y009945D01*
X018125Y010062D01*
X018080Y010170D01*
X017998Y010252D01*
X017890Y010297D01*
X017774Y010297D01*
X017666Y010252D01*
X017583Y010170D01*
X017539Y010062D01*
X017539Y009945D01*
X017583Y009838D01*
X017666Y009755D01*
X017575Y009858D02*
X016817Y009858D01*
X016695Y009955D02*
X017539Y009955D01*
X017539Y010052D02*
X011654Y010052D01*
X011699Y010070D02*
X011781Y010153D01*
X011826Y010260D01*
X011826Y010377D01*
X011781Y010485D01*
X011699Y010567D01*
X011591Y010612D01*
X011474Y010612D01*
X011367Y010567D01*
X011284Y010485D01*
X011240Y010377D01*
X011240Y010260D01*
X011284Y010153D01*
X011367Y010070D01*
X011474Y010026D01*
X011591Y010026D01*
X011699Y010070D01*
X011777Y010149D02*
X016013Y010149D01*
X016012Y010149D02*
X016120Y010105D01*
X016237Y010105D01*
X016344Y010149D01*
X017575Y010149D01*
X017660Y010246D02*
X016433Y010246D01*
X016427Y010232D02*
X016471Y010339D01*
X016471Y010456D01*
X016427Y010563D01*
X016344Y010646D01*
X016237Y010690D01*
X016120Y010690D01*
X016012Y010646D01*
X015930Y010563D01*
X015885Y010456D01*
X015885Y010339D01*
X015930Y010232D01*
X016012Y010149D01*
X015924Y010246D02*
X011819Y010246D01*
X011826Y010343D02*
X015885Y010343D01*
X015885Y010440D02*
X011799Y010440D01*
X011729Y010537D02*
X015919Y010537D01*
X016000Y010634D02*
X007580Y010634D01*
X007549Y010603D02*
X007682Y010736D01*
X007754Y010910D01*
X007754Y011098D01*
X007682Y011272D01*
X007549Y011405D01*
X007375Y011477D01*
X007187Y011477D01*
X007013Y011405D01*
X006880Y011272D01*
X006808Y011098D01*
X006808Y010910D01*
X006880Y010736D01*
X007013Y010603D01*
X007187Y010531D01*
X007375Y010531D01*
X007549Y010603D01*
X007389Y010537D02*
X011336Y010537D01*
X011266Y010440D02*
X007463Y010440D01*
X007549Y010405D02*
X007375Y010477D01*
X007187Y010477D01*
X007013Y010405D01*
X006880Y010272D01*
X006808Y010098D01*
X006808Y009910D01*
X006880Y009736D01*
X007013Y009603D01*
X007187Y009531D01*
X007375Y009531D01*
X007549Y009603D01*
X007682Y009736D01*
X007754Y009910D01*
X007754Y010098D01*
X007682Y010272D01*
X007549Y010405D01*
X007610Y010343D02*
X011240Y010343D01*
X011246Y010246D02*
X007692Y010246D01*
X007732Y010149D02*
X011288Y010149D01*
X011411Y010052D02*
X007754Y010052D01*
X007754Y009955D02*
X016449Y009955D01*
X016327Y009858D02*
X014770Y009858D01*
X014858Y009761D02*
X016285Y009761D01*
X016279Y009664D02*
X014896Y009664D01*
X014896Y009567D02*
X016305Y009567D01*
X016376Y009470D02*
X014863Y009470D01*
X014580Y009276D02*
X005168Y009276D01*
X005168Y009179D02*
X014547Y009179D01*
X014547Y009082D02*
X005168Y009082D01*
X005168Y008985D02*
X014586Y008985D01*
X014676Y008888D02*
X012905Y008888D01*
X013003Y008598D02*
X013098Y008598D01*
X013010Y008501D02*
X012963Y008501D01*
X012972Y008404D02*
X012848Y008404D01*
X012972Y008307D02*
X012667Y008307D01*
X012614Y008328D02*
X012722Y008284D01*
X012805Y008201D01*
X012849Y008094D01*
X012849Y007977D01*
X012805Y007869D01*
X012722Y007787D01*
X012614Y007742D01*
X012498Y007742D01*
X012390Y007787D01*
X012320Y007857D01*
X012250Y007787D01*
X012142Y007742D01*
X012025Y007742D01*
X011918Y007787D01*
X011835Y007869D01*
X011791Y007977D01*
X011791Y008094D01*
X011835Y008201D01*
X011918Y008284D01*
X012025Y008328D01*
X012142Y008328D01*
X012250Y008284D01*
X012320Y008213D01*
X012390Y008284D01*
X012498Y008328D01*
X012614Y008328D01*
X012580Y008404D02*
X005168Y008404D01*
X005168Y008501D02*
X012465Y008501D01*
X012425Y008598D02*
X005168Y008598D01*
X005168Y008694D02*
X012421Y008694D01*
X012449Y008791D02*
X005168Y008791D01*
X005168Y008888D02*
X012523Y008888D01*
X012446Y008307D02*
X012194Y008307D01*
X011973Y008307D02*
X005168Y008307D01*
X005168Y008210D02*
X011844Y008210D01*
X011799Y008113D02*
X005168Y008113D01*
X005168Y008016D02*
X011791Y008016D01*
X011815Y007919D02*
X005168Y007919D01*
X005168Y007822D02*
X011883Y007822D01*
X012284Y007822D02*
X012355Y007822D01*
X012757Y007822D02*
X013240Y007822D01*
X013208Y007919D02*
X012825Y007919D01*
X012849Y008016D02*
X013209Y008016D01*
X013088Y008113D02*
X012841Y008113D01*
X012796Y008210D02*
X013006Y008210D01*
X013319Y007725D02*
X005168Y007725D01*
X005168Y009373D02*
X014426Y009373D01*
X014344Y009470D02*
X005168Y009470D01*
X005168Y009567D02*
X007099Y009567D01*
X006951Y009664D02*
X005168Y009664D01*
X005168Y009761D02*
X006869Y009761D01*
X006829Y009858D02*
X005168Y009858D01*
X005168Y009955D02*
X006808Y009955D01*
X006808Y010052D02*
X005168Y010052D01*
X005168Y010149D02*
X006829Y010149D01*
X006869Y010246D02*
X005168Y010246D01*
X005168Y010343D02*
X006951Y010343D01*
X007098Y010440D02*
X005168Y010440D01*
X005168Y010537D02*
X007172Y010537D01*
X006982Y010634D02*
X005168Y010634D01*
X005168Y010731D02*
X006885Y010731D01*
X006842Y010828D02*
X005168Y010828D01*
X005168Y010925D02*
X006808Y010925D01*
X006808Y011022D02*
X005168Y011022D01*
X005168Y011119D02*
X006816Y011119D01*
X006856Y011216D02*
X005168Y011216D01*
X005168Y011313D02*
X006921Y011313D01*
X007025Y011410D02*
X005168Y011410D01*
X005168Y011507D02*
X019800Y011507D01*
X019800Y011484D02*
X019872Y011311D01*
X020005Y011178D01*
X020179Y011106D01*
X020367Y011106D01*
X020541Y011178D01*
X020674Y011311D01*
X020746Y011484D01*
X020746Y011673D01*
X020674Y011846D01*
X020541Y011979D01*
X020367Y012051D01*
X020179Y012051D01*
X020005Y011979D01*
X019872Y011846D01*
X019800Y011673D01*
X019800Y011484D01*
X019831Y011410D02*
X013769Y011410D01*
X013746Y011433D02*
X013638Y011478D01*
X013522Y011478D01*
X013414Y011433D01*
X013331Y011351D01*
X013287Y011243D01*
X013287Y011127D01*
X013331Y011019D01*
X013414Y010937D01*
X013522Y010892D01*
X013638Y010892D01*
X013746Y010937D01*
X013828Y011019D01*
X013873Y011127D01*
X013873Y011243D01*
X013828Y011351D01*
X013746Y011433D01*
X013844Y011313D02*
X019871Y011313D01*
X019967Y011216D02*
X016929Y011216D01*
X016974Y011197D02*
X016866Y011242D01*
X016750Y011242D01*
X016642Y011197D01*
X016560Y011115D01*
X016515Y011007D01*
X016515Y010890D01*
X016560Y010783D01*
X016642Y010700D01*
X016750Y010656D01*
X016866Y010656D01*
X016974Y010700D01*
X017056Y010783D01*
X017101Y010890D01*
X017101Y011007D01*
X017056Y011115D01*
X016974Y011197D01*
X017052Y011119D02*
X020147Y011119D01*
X020398Y011119D02*
X021147Y011119D01*
X021179Y011106D02*
X021367Y011106D01*
X021541Y011178D01*
X021674Y011311D01*
X021746Y011484D01*
X021746Y011673D01*
X021674Y011846D01*
X021541Y011979D01*
X021367Y012051D01*
X021179Y012051D01*
X021005Y011979D01*
X020872Y011846D01*
X020800Y011673D01*
X020800Y011484D01*
X020872Y011311D01*
X021005Y011178D01*
X021179Y011106D01*
X021398Y011119D02*
X024468Y011119D01*
X024468Y011164D02*
X024468Y011048D01*
X024486Y011005D01*
X024466Y011005D01*
X024359Y010961D01*
X024276Y010878D01*
X024232Y010771D01*
X024232Y010654D01*
X024276Y010546D01*
X024359Y010464D01*
X024466Y010419D01*
X024526Y010419D01*
X024513Y010406D01*
X024468Y010298D01*
X024468Y010182D01*
X024513Y010074D01*
X024595Y009992D01*
X024703Y009947D01*
X024819Y009947D01*
X024927Y009992D01*
X025009Y010074D01*
X025054Y010182D01*
X025054Y010298D01*
X025009Y010406D01*
X024927Y010488D01*
X024819Y010533D01*
X024759Y010533D01*
X024773Y010546D01*
X024818Y010654D01*
X024818Y010771D01*
X024800Y010813D01*
X024819Y010813D01*
X024927Y010858D01*
X025009Y010940D01*
X025054Y011048D01*
X025054Y011164D01*
X025009Y011272D01*
X024927Y011354D01*
X024819Y011399D01*
X024759Y011399D01*
X024773Y011413D01*
X024818Y011520D01*
X024818Y011637D01*
X024800Y011679D01*
X024819Y011679D01*
X024927Y011724D01*
X025009Y011806D01*
X025054Y011914D01*
X025054Y012031D01*
X025009Y012138D01*
X024927Y012221D01*
X024819Y012265D01*
X024703Y012265D01*
X024595Y012221D01*
X024513Y012138D01*
X024468Y012031D01*
X024468Y011914D01*
X024486Y011871D01*
X024466Y011871D01*
X024359Y011827D01*
X024276Y011744D01*
X024232Y011637D01*
X024232Y011520D01*
X024276Y011413D01*
X024359Y011330D01*
X024466Y011286D01*
X024526Y011286D01*
X024513Y011272D01*
X024468Y011164D01*
X024489Y011216D02*
X021579Y011216D01*
X021674Y011313D02*
X024401Y011313D01*
X024279Y011410D02*
X021715Y011410D01*
X021746Y011507D02*
X024237Y011507D01*
X024232Y011604D02*
X021746Y011604D01*
X021734Y011701D02*
X024258Y011701D01*
X024329Y011797D02*
X021694Y011797D01*
X021626Y011894D02*
X024476Y011894D01*
X024468Y011991D02*
X021512Y011991D01*
X021034Y011991D02*
X020512Y011991D01*
X020626Y011894D02*
X020920Y011894D01*
X020852Y011797D02*
X020694Y011797D01*
X020734Y011701D02*
X020811Y011701D01*
X020800Y011604D02*
X020746Y011604D01*
X020746Y011507D02*
X020800Y011507D01*
X020831Y011410D02*
X020715Y011410D01*
X020674Y011313D02*
X020871Y011313D01*
X020967Y011216D02*
X020579Y011216D01*
X019800Y011604D02*
X005168Y011604D01*
X005168Y011701D02*
X019811Y011701D01*
X019852Y011797D02*
X005168Y011797D01*
X005168Y011894D02*
X019920Y011894D01*
X020034Y011991D02*
X005168Y011991D01*
X005168Y012088D02*
X024492Y012088D01*
X024560Y012185D02*
X014743Y012185D01*
X014769Y012196D02*
X014852Y012279D01*
X014896Y012386D01*
X014896Y012503D01*
X014852Y012611D01*
X014769Y012693D01*
X014662Y012738D01*
X014545Y012738D01*
X014438Y012693D01*
X014355Y012611D01*
X014311Y012503D01*
X014311Y012386D01*
X014355Y012279D01*
X014438Y012196D01*
X014545Y012152D01*
X014662Y012152D01*
X014769Y012196D01*
X014853Y012282D02*
X030260Y012282D01*
X030260Y012185D02*
X024962Y012185D01*
X025030Y012088D02*
X030260Y012088D01*
X030260Y011991D02*
X025054Y011991D01*
X025046Y011894D02*
X030260Y011894D01*
X030260Y011797D02*
X025000Y011797D01*
X024870Y011701D02*
X030260Y011701D01*
X030260Y011604D02*
X024818Y011604D01*
X024812Y011507D02*
X030260Y011507D01*
X030260Y011410D02*
X024770Y011410D01*
X024969Y011313D02*
X030260Y011313D01*
X030260Y011216D02*
X025033Y011216D01*
X025054Y011119D02*
X030260Y011119D01*
X030260Y011022D02*
X025043Y011022D01*
X024994Y010925D02*
X030260Y010925D01*
X030260Y010828D02*
X024854Y010828D01*
X024818Y010731D02*
X030260Y010731D01*
X030260Y010634D02*
X024809Y010634D01*
X024763Y010537D02*
X030260Y010537D01*
X030260Y010440D02*
X024975Y010440D01*
X025035Y010343D02*
X030260Y010343D01*
X030260Y010246D02*
X025054Y010246D01*
X025040Y010149D02*
X030260Y010149D01*
X030260Y010052D02*
X024987Y010052D01*
X024839Y009955D02*
X030260Y009955D01*
X030260Y009858D02*
X018089Y009858D01*
X018125Y009955D02*
X024683Y009955D01*
X024535Y010052D02*
X018741Y010052D01*
X018785Y010070D02*
X018868Y010153D01*
X018912Y010260D01*
X018912Y010377D01*
X018868Y010485D01*
X018785Y010567D01*
X018677Y010612D01*
X018561Y010612D01*
X018453Y010567D01*
X018371Y010485D01*
X018326Y010377D01*
X018326Y010260D01*
X018371Y010153D01*
X018453Y010070D01*
X018561Y010026D01*
X018677Y010026D01*
X018785Y010070D01*
X018864Y010149D02*
X024481Y010149D01*
X024468Y010246D02*
X018906Y010246D01*
X018912Y010343D02*
X024487Y010343D01*
X024417Y010440D02*
X018886Y010440D01*
X018815Y010537D02*
X024286Y010537D01*
X024240Y010634D02*
X016356Y010634D01*
X016438Y010537D02*
X018423Y010537D01*
X018352Y010440D02*
X016471Y010440D01*
X016471Y010343D02*
X018326Y010343D01*
X018332Y010246D02*
X018004Y010246D01*
X018089Y010149D02*
X018375Y010149D01*
X018498Y010052D02*
X018125Y010052D01*
X018003Y009761D02*
X030260Y009761D01*
X030260Y009664D02*
X024826Y009664D01*
X024982Y009567D02*
X030260Y009567D01*
X030260Y009470D02*
X025038Y009470D01*
X025054Y009373D02*
X030260Y009373D01*
X030260Y009276D02*
X025038Y009276D01*
X024981Y009179D02*
X030260Y009179D01*
X030260Y009082D02*
X024823Y009082D01*
X024818Y008985D02*
X030260Y008985D01*
X030260Y008888D02*
X024804Y008888D01*
X024750Y008791D02*
X030260Y008791D01*
X030260Y007531D02*
X017231Y007531D01*
X017259Y007434D02*
X030260Y007434D01*
X030260Y007337D02*
X017254Y007337D01*
X017214Y007240D02*
X030260Y007240D01*
X030260Y007143D02*
X017098Y007143D01*
X016331Y006949D02*
X010925Y006949D01*
X010842Y006852D02*
X011510Y006852D01*
X011397Y006561D02*
X009524Y006561D01*
X009542Y006464D02*
X011437Y006464D01*
X011530Y006367D02*
X009528Y006367D01*
X009473Y006270D02*
X030260Y006270D01*
X030260Y006367D02*
X013189Y006367D01*
X013195Y006370D02*
X013277Y006452D01*
X013322Y006560D01*
X013322Y006676D01*
X013277Y006784D01*
X013195Y006866D01*
X013087Y006911D01*
X012970Y006911D01*
X012863Y006866D01*
X012780Y006784D01*
X012736Y006676D01*
X012736Y006560D01*
X012780Y006452D01*
X012863Y006370D01*
X012970Y006325D01*
X013087Y006325D01*
X013195Y006370D01*
X013282Y006464D02*
X030260Y006464D01*
X028296Y005107D02*
X022876Y005107D01*
X022749Y005010D02*
X028211Y005010D01*
X028170Y004913D02*
X015442Y004913D01*
X015560Y004816D02*
X028153Y004816D01*
X028153Y004719D02*
X015600Y004719D01*
X015605Y004622D02*
X028187Y004622D01*
X028239Y004525D02*
X015578Y004525D01*
X015505Y004428D02*
X028336Y004428D01*
X024232Y010731D02*
X017005Y010731D01*
X017075Y010828D02*
X024255Y010828D01*
X024323Y010925D02*
X017101Y010925D01*
X017095Y011022D02*
X024479Y011022D01*
X030260Y012379D02*
X014893Y012379D01*
X014896Y012476D02*
X030260Y012476D01*
X030260Y012573D02*
X014867Y012573D01*
X014792Y012670D02*
X030260Y012670D01*
X030260Y012767D02*
X005168Y012767D01*
X005168Y012670D02*
X014415Y012670D01*
X014340Y012573D02*
X005168Y012573D01*
X005168Y012476D02*
X014311Y012476D01*
X014313Y012379D02*
X005168Y012379D01*
X005168Y012282D02*
X014354Y012282D01*
X014464Y012185D02*
X005168Y012185D01*
X005168Y012864D02*
X030260Y012864D01*
X030260Y012961D02*
X005168Y012961D01*
X005168Y013058D02*
X030260Y013058D01*
X030260Y013155D02*
X016437Y013155D01*
X016423Y013141D02*
X016505Y013224D01*
X016550Y013331D01*
X016550Y013448D01*
X016505Y013556D01*
X016423Y013638D01*
X016315Y013683D01*
X016199Y013683D01*
X016126Y013652D01*
X016156Y013725D01*
X016156Y013842D01*
X016112Y013949D01*
X016029Y014032D01*
X015922Y014076D01*
X015805Y014076D01*
X015697Y014032D01*
X015615Y013949D01*
X015570Y013842D01*
X015570Y013725D01*
X015615Y013617D01*
X015697Y013535D01*
X015805Y013490D01*
X015922Y013490D01*
X015994Y013520D01*
X015964Y013448D01*
X015964Y013331D01*
X016009Y013224D01*
X016091Y013141D01*
X016199Y013097D01*
X016315Y013097D01*
X016423Y013141D01*
X016517Y013252D02*
X030260Y013252D01*
X030260Y013349D02*
X016550Y013349D01*
X016550Y013446D02*
X030260Y013446D01*
X030260Y013543D02*
X016511Y013543D01*
X016418Y013640D02*
X030260Y013640D01*
X030260Y013737D02*
X017963Y013737D01*
X018001Y013775D02*
X018046Y013882D01*
X018046Y013999D01*
X018001Y014107D01*
X017919Y014189D01*
X017811Y014234D01*
X017695Y014234D01*
X017587Y014189D01*
X017505Y014107D01*
X017460Y013999D01*
X017460Y013882D01*
X017505Y013775D01*
X017587Y013692D01*
X017695Y013648D01*
X017811Y013648D01*
X017919Y013692D01*
X018001Y013775D01*
X018026Y013834D02*
X030260Y013834D01*
X030260Y013931D02*
X018046Y013931D01*
X018034Y014028D02*
X030260Y014028D01*
X030260Y014125D02*
X017983Y014125D01*
X017840Y014222D02*
X030260Y014222D01*
X030260Y014319D02*
X013464Y014319D01*
X013479Y014355D02*
X013434Y014247D01*
X013352Y014165D01*
X013244Y014120D01*
X013128Y014120D01*
X013020Y014165D01*
X012938Y014247D01*
X012893Y014355D01*
X012893Y014471D01*
X012923Y014544D01*
X012851Y014514D01*
X012734Y014514D01*
X012626Y014559D01*
X012544Y014641D01*
X012499Y014749D01*
X012499Y014865D01*
X012544Y014973D01*
X012626Y015055D01*
X012734Y015100D01*
X012851Y015100D01*
X012958Y015055D01*
X013041Y014973D01*
X013085Y014865D01*
X013085Y014749D01*
X013055Y014676D01*
X013128Y014706D01*
X013244Y014706D01*
X013352Y014662D01*
X013434Y014579D01*
X013479Y014471D01*
X013479Y014355D01*
X013479Y014416D02*
X030260Y014416D01*
X030260Y014513D02*
X013462Y014513D01*
X013404Y014610D02*
X030260Y014610D01*
X030260Y014707D02*
X013068Y014707D01*
X013085Y014804D02*
X030260Y014804D01*
X030260Y014900D02*
X013071Y014900D01*
X013016Y014997D02*
X015220Y014997D01*
X015286Y014970D02*
X015440Y014970D01*
X015583Y015029D01*
X015692Y015138D01*
X015751Y015281D01*
X015751Y015435D01*
X015692Y015578D01*
X015583Y015687D01*
X015440Y015746D01*
X015286Y015746D01*
X015144Y015687D01*
X015034Y015578D01*
X014975Y015435D01*
X014975Y015281D01*
X015034Y015138D01*
X015144Y015029D01*
X015286Y014970D01*
X015506Y014997D02*
X016220Y014997D01*
X016286Y014970D02*
X016144Y015029D01*
X016034Y015138D01*
X015975Y015281D01*
X015975Y015435D01*
X016034Y015578D01*
X016144Y015687D01*
X016286Y015746D01*
X016440Y015746D01*
X016583Y015687D01*
X016692Y015578D01*
X016751Y015435D01*
X016751Y015281D01*
X016692Y015138D01*
X016583Y015029D01*
X016440Y014970D01*
X016286Y014970D01*
X016506Y014997D02*
X030260Y014997D01*
X030260Y015094D02*
X016648Y015094D01*
X016714Y015191D02*
X030260Y015191D01*
X030260Y015288D02*
X016751Y015288D01*
X016751Y015385D02*
X030260Y015385D01*
X030260Y015482D02*
X016732Y015482D01*
X016691Y015579D02*
X030260Y015579D01*
X030260Y015676D02*
X016594Y015676D01*
X016133Y015676D02*
X015594Y015676D01*
X015691Y015579D02*
X016036Y015579D01*
X015995Y015482D02*
X015732Y015482D01*
X015751Y015385D02*
X015975Y015385D01*
X015975Y015288D02*
X015751Y015288D01*
X015714Y015191D02*
X016012Y015191D01*
X016078Y015094D02*
X015648Y015094D01*
X015078Y015094D02*
X012864Y015094D01*
X012721Y015094D02*
X005168Y015094D01*
X005168Y014997D02*
X012569Y014997D01*
X012514Y014900D02*
X005168Y014900D01*
X005168Y014804D02*
X012499Y014804D01*
X012517Y014707D02*
X005168Y014707D01*
X005168Y014610D02*
X012576Y014610D01*
X012910Y014513D02*
X005168Y014513D01*
X005168Y014416D02*
X012893Y014416D01*
X012908Y014319D02*
X005168Y014319D01*
X005168Y014222D02*
X012963Y014222D01*
X013117Y014125D02*
X005168Y014125D01*
X005168Y014028D02*
X015694Y014028D01*
X015607Y013931D02*
X005168Y013931D01*
X005168Y013834D02*
X015570Y013834D01*
X015570Y013737D02*
X005168Y013737D01*
X005168Y013640D02*
X015606Y013640D01*
X015689Y013543D02*
X005168Y013543D01*
X005168Y013446D02*
X015964Y013446D01*
X015964Y013349D02*
X005168Y013349D01*
X005168Y013252D02*
X015997Y013252D01*
X016077Y013155D02*
X005168Y013155D01*
X005168Y015191D02*
X015012Y015191D01*
X014975Y015288D02*
X005168Y015288D01*
X005168Y015385D02*
X014975Y015385D01*
X014995Y015482D02*
X005168Y015482D01*
X005168Y015579D02*
X015036Y015579D01*
X015133Y015676D02*
X005168Y015676D01*
X005168Y015773D02*
X030260Y015773D01*
X030260Y015870D02*
X005168Y015870D01*
X005168Y015967D02*
X030260Y015967D01*
X030260Y016064D02*
X005168Y016064D01*
X005168Y016161D02*
X030260Y016161D01*
X030260Y016258D02*
X005168Y016258D01*
X005168Y016355D02*
X030260Y016355D01*
X030260Y016452D02*
X014537Y016452D01*
X014533Y016448D02*
X014616Y016531D01*
X014660Y016638D01*
X014660Y016755D01*
X014616Y016863D01*
X014533Y016945D01*
X014426Y016990D01*
X014309Y016990D01*
X014201Y016945D01*
X014119Y016863D01*
X014074Y016755D01*
X014074Y016638D01*
X014119Y016531D01*
X014201Y016448D01*
X014309Y016404D01*
X014426Y016404D01*
X014533Y016448D01*
X014623Y016549D02*
X030260Y016549D01*
X030260Y016646D02*
X014660Y016646D01*
X014660Y016743D02*
X030260Y016743D01*
X030260Y016840D02*
X014625Y016840D01*
X014541Y016937D02*
X030260Y016937D01*
X030260Y017034D02*
X005168Y017034D01*
X005168Y017131D02*
X030260Y017131D01*
X030260Y017228D02*
X014120Y017228D01*
X014139Y017236D02*
X014222Y017318D01*
X014266Y017426D01*
X014266Y017542D01*
X014222Y017650D01*
X014139Y017732D01*
X014032Y017777D01*
X013915Y017777D01*
X013808Y017732D01*
X013725Y017650D01*
X013681Y017542D01*
X013681Y017426D01*
X013725Y017318D01*
X013808Y017236D01*
X013915Y017191D01*
X014032Y017191D01*
X014139Y017236D01*
X014225Y017325D02*
X026185Y017325D01*
X026259Y017294D02*
X026491Y017294D01*
X026706Y017383D01*
X026870Y017547D01*
X026959Y017762D01*
X026959Y017994D01*
X026870Y018209D01*
X026706Y018373D01*
X026491Y018462D01*
X026259Y018462D01*
X026044Y018373D01*
X025880Y018209D01*
X025791Y017994D01*
X025791Y017762D01*
X025880Y017547D01*
X026044Y017383D01*
X026259Y017294D01*
X026006Y017422D02*
X014265Y017422D01*
X014266Y017519D02*
X025909Y017519D01*
X025852Y017616D02*
X014236Y017616D01*
X014159Y017713D02*
X025812Y017713D01*
X025791Y017810D02*
X005168Y017810D01*
X005168Y017906D02*
X025791Y017906D01*
X025795Y018003D02*
X005168Y018003D01*
X005168Y018100D02*
X025835Y018100D01*
X025876Y018197D02*
X005168Y018197D01*
X005168Y018294D02*
X025966Y018294D01*
X026089Y018391D02*
X005168Y018391D01*
X005168Y018488D02*
X030260Y018488D01*
X030260Y018391D02*
X029417Y018391D01*
X029462Y018373D02*
X029247Y018462D01*
X029015Y018462D01*
X028800Y018373D01*
X028636Y018209D01*
X028547Y017994D01*
X028547Y017762D01*
X028636Y017547D01*
X028800Y017383D01*
X029015Y017294D01*
X029247Y017294D01*
X029462Y017383D01*
X029626Y017547D01*
X029715Y017762D01*
X029715Y017994D01*
X029626Y018209D01*
X029462Y018373D01*
X029540Y018294D02*
X030260Y018294D01*
X030260Y018197D02*
X029631Y018197D01*
X029671Y018100D02*
X030260Y018100D01*
X030260Y018003D02*
X029711Y018003D01*
X029715Y017906D02*
X030260Y017906D01*
X030260Y017810D02*
X029715Y017810D01*
X029694Y017713D02*
X030260Y017713D01*
X030260Y017616D02*
X029654Y017616D01*
X029598Y017519D02*
X030260Y017519D01*
X030260Y017422D02*
X029501Y017422D01*
X029321Y017325D02*
X030260Y017325D01*
X028941Y017325D02*
X026565Y017325D01*
X026745Y017422D02*
X028761Y017422D01*
X028664Y017519D02*
X026842Y017519D01*
X026898Y017616D02*
X028608Y017616D01*
X028567Y017713D02*
X026939Y017713D01*
X026959Y017810D02*
X028547Y017810D01*
X028547Y017906D02*
X026959Y017906D01*
X026955Y018003D02*
X028551Y018003D01*
X028591Y018100D02*
X026915Y018100D01*
X026875Y018197D02*
X028631Y018197D01*
X028722Y018294D02*
X026784Y018294D01*
X026661Y018391D02*
X028845Y018391D01*
X030260Y018585D02*
X005168Y018585D01*
X005168Y018682D02*
X030260Y018682D01*
X030260Y018779D02*
X014458Y018779D01*
X014426Y018766D02*
X014533Y018811D01*
X014616Y018893D01*
X014660Y019001D01*
X014660Y019117D01*
X014616Y019225D01*
X014533Y019307D01*
X014426Y019352D01*
X014309Y019352D01*
X014201Y019307D01*
X014119Y019225D01*
X014074Y019117D01*
X014074Y019001D01*
X014119Y018893D01*
X014201Y018811D01*
X014309Y018766D01*
X014426Y018766D01*
X014277Y018779D02*
X012253Y018779D01*
X012221Y018766D02*
X012328Y018811D01*
X012411Y018893D01*
X012455Y019001D01*
X012455Y019117D01*
X012411Y019225D01*
X012328Y019307D01*
X012221Y019352D01*
X012104Y019352D01*
X011997Y019307D01*
X011914Y019225D01*
X011870Y019117D01*
X011870Y019001D01*
X011914Y018893D01*
X011997Y018811D01*
X012104Y018766D01*
X012221Y018766D01*
X012072Y018779D02*
X005168Y018779D01*
X005168Y018876D02*
X011931Y018876D01*
X011881Y018973D02*
X005168Y018973D01*
X005168Y019070D02*
X011870Y019070D01*
X011890Y019167D02*
X005168Y019167D01*
X005168Y019264D02*
X011953Y019264D01*
X012372Y019264D02*
X014158Y019264D01*
X014095Y019167D02*
X012435Y019167D01*
X012455Y019070D02*
X014074Y019070D01*
X014086Y018973D02*
X012444Y018973D01*
X012394Y018876D02*
X014136Y018876D01*
X014599Y018876D02*
X030260Y018876D01*
X030260Y018973D02*
X014649Y018973D01*
X014660Y019070D02*
X030260Y019070D01*
X030260Y019167D02*
X014639Y019167D01*
X014576Y019264D02*
X030260Y019264D01*
X030260Y019361D02*
X005168Y019361D01*
X005168Y019458D02*
X030260Y019458D01*
X030260Y019555D02*
X005168Y019555D01*
X005168Y019652D02*
X030260Y019652D01*
X030260Y019749D02*
X005168Y019749D01*
X005168Y019846D02*
X030260Y019846D01*
X030260Y019943D02*
X005168Y019943D01*
X005168Y020040D02*
X030260Y020040D01*
X030260Y020137D02*
X005168Y020137D01*
X005168Y020234D02*
X030260Y020234D01*
X030260Y020331D02*
X005168Y020331D01*
X005168Y020428D02*
X030260Y020428D01*
X030260Y020525D02*
X005168Y020525D01*
X005168Y020622D02*
X030260Y020622D01*
X030260Y020719D02*
X005168Y020719D01*
X005168Y020816D02*
X030260Y020816D01*
X030260Y020913D02*
X005168Y020913D01*
X005168Y021009D02*
X030260Y021009D01*
X030260Y021106D02*
X005168Y021106D01*
X005168Y021203D02*
X011808Y021203D01*
X011839Y021173D02*
X011947Y021128D01*
X012063Y021128D01*
X012171Y021173D01*
X012253Y021255D01*
X012298Y021363D01*
X012298Y021479D01*
X012253Y021587D01*
X012171Y021669D01*
X012063Y021714D01*
X011947Y021714D01*
X011839Y021669D01*
X011757Y021587D01*
X011712Y021479D01*
X011712Y021363D01*
X011757Y021255D01*
X011839Y021173D01*
X011738Y021300D02*
X005168Y021300D01*
X005168Y021397D02*
X011712Y021397D01*
X011718Y021494D02*
X005168Y021494D01*
X005168Y021591D02*
X011761Y021591D01*
X011885Y021688D02*
X005168Y021688D01*
X005168Y021785D02*
X030260Y021785D01*
X030260Y021688D02*
X012125Y021688D01*
X012249Y021591D02*
X030260Y021591D01*
X030260Y021494D02*
X012292Y021494D01*
X012298Y021397D02*
X030260Y021397D01*
X030260Y021300D02*
X012272Y021300D01*
X012202Y021203D02*
X030260Y021203D01*
X030260Y021882D02*
X005168Y021882D01*
X005168Y021979D02*
X030260Y021979D01*
X030260Y022076D02*
X012543Y022076D01*
X012536Y022073D02*
X012643Y022118D01*
X012726Y022200D01*
X012770Y022308D01*
X012770Y022424D01*
X012726Y022532D01*
X012643Y022614D01*
X012536Y022659D01*
X012419Y022659D01*
X012312Y022614D01*
X012229Y022532D01*
X012185Y022424D01*
X012185Y022308D01*
X012229Y022200D01*
X012312Y022118D01*
X012419Y022073D01*
X012536Y022073D01*
X012412Y022076D02*
X005168Y022076D01*
X005168Y022173D02*
X012256Y022173D01*
X012200Y022270D02*
X005168Y022270D01*
X005168Y022367D02*
X012185Y022367D01*
X012201Y022464D02*
X005168Y022464D01*
X005168Y022561D02*
X012258Y022561D01*
X012417Y022658D02*
X005168Y022658D01*
X005168Y022755D02*
X030260Y022755D01*
X030260Y022852D02*
X005168Y022852D01*
X005168Y022949D02*
X012346Y022949D01*
X012308Y022987D02*
X012390Y022905D01*
X012498Y022860D01*
X012614Y022860D01*
X012722Y022905D01*
X012805Y022987D01*
X012849Y023095D01*
X012849Y023212D01*
X012805Y023319D01*
X012722Y023402D01*
X012614Y023446D01*
X012498Y023446D01*
X012390Y023402D01*
X012308Y023319D01*
X012263Y023212D01*
X012263Y023095D01*
X012308Y022987D01*
X012284Y023046D02*
X005168Y023046D01*
X005168Y023143D02*
X012263Y023143D01*
X012275Y023240D02*
X005168Y023240D01*
X005168Y023337D02*
X012325Y023337D01*
X012468Y023434D02*
X005168Y023434D01*
X005168Y023531D02*
X030260Y023531D01*
X030260Y023628D02*
X005168Y023628D01*
X005168Y023725D02*
X030260Y023725D01*
X030260Y023822D02*
X012732Y023822D01*
X012693Y023805D02*
X012801Y023850D01*
X012883Y023932D01*
X012928Y024040D01*
X012928Y024157D01*
X012883Y024264D01*
X012801Y024347D01*
X012693Y024391D01*
X012577Y024391D01*
X012469Y024347D01*
X012387Y024264D01*
X012342Y024157D01*
X012342Y024040D01*
X012387Y023932D01*
X012469Y023850D01*
X012577Y023805D01*
X012693Y023805D01*
X012537Y023822D02*
X005168Y023822D01*
X005168Y023919D02*
X012400Y023919D01*
X012352Y024016D02*
X005168Y024016D01*
X005168Y024112D02*
X012342Y024112D01*
X012364Y024209D02*
X005168Y024209D01*
X005168Y024306D02*
X012429Y024306D01*
X012841Y024306D02*
X030260Y024306D01*
X030260Y024209D02*
X012906Y024209D01*
X012928Y024112D02*
X030260Y024112D01*
X030260Y024016D02*
X012918Y024016D01*
X012869Y023919D02*
X030260Y023919D01*
X030260Y024403D02*
X005168Y024403D01*
X005168Y024500D02*
X011267Y024500D01*
X011288Y024480D02*
X011396Y024435D01*
X011512Y024435D01*
X011620Y024480D01*
X011702Y024562D01*
X011747Y024670D01*
X011747Y024786D01*
X011702Y024894D01*
X011620Y024976D01*
X011512Y025021D01*
X011396Y025021D01*
X011288Y024976D01*
X011206Y024894D01*
X011161Y024786D01*
X011161Y024670D01*
X011206Y024562D01*
X011288Y024480D01*
X011191Y024597D02*
X005168Y024597D01*
X005168Y024694D02*
X011161Y024694D01*
X011163Y024791D02*
X005168Y024791D01*
X005168Y024888D02*
X011203Y024888D01*
X011309Y024985D02*
X005168Y024985D01*
X005168Y025082D02*
X014650Y025082D01*
X014670Y025035D02*
X014752Y024952D01*
X014860Y024908D01*
X014977Y024908D01*
X015084Y024952D01*
X015167Y025035D01*
X015211Y025142D01*
X015211Y025259D01*
X015167Y025367D01*
X015084Y025449D01*
X014977Y025494D01*
X014860Y025494D01*
X014752Y025449D01*
X014670Y025367D01*
X014625Y025259D01*
X014625Y025142D01*
X014670Y025035D01*
X014720Y024985D02*
X011599Y024985D01*
X011705Y024888D02*
X019594Y024888D01*
X019586Y024906D02*
X019631Y024798D01*
X019713Y024716D01*
X019821Y024671D01*
X019937Y024671D01*
X020045Y024716D01*
X020127Y024798D01*
X020172Y024906D01*
X020172Y025023D01*
X020127Y025130D01*
X020045Y025213D01*
X019937Y025257D01*
X019821Y025257D01*
X019713Y025213D01*
X019631Y025130D01*
X019586Y025023D01*
X019586Y024906D01*
X019586Y024985D02*
X015117Y024985D01*
X015186Y025082D02*
X019611Y025082D01*
X019680Y025179D02*
X015211Y025179D01*
X015204Y025276D02*
X026025Y025276D01*
X026044Y025257D02*
X025880Y025421D01*
X025791Y025636D01*
X025791Y025868D01*
X025880Y026083D01*
X026044Y026247D01*
X026259Y026336D01*
X026491Y026336D01*
X026706Y026247D01*
X026870Y026083D01*
X026959Y025868D01*
X026959Y025636D01*
X026870Y025421D01*
X026706Y025257D01*
X026491Y025168D01*
X026259Y025168D01*
X026044Y025257D01*
X025928Y025373D02*
X015160Y025373D01*
X015033Y025470D02*
X025860Y025470D01*
X025820Y025567D02*
X005168Y025567D01*
X005168Y025470D02*
X014803Y025470D01*
X014677Y025373D02*
X005168Y025373D01*
X005168Y025276D02*
X014633Y025276D01*
X014625Y025179D02*
X005168Y025179D01*
X005168Y025664D02*
X025791Y025664D01*
X025791Y025761D02*
X005168Y025761D01*
X005168Y025858D02*
X025791Y025858D01*
X025827Y025955D02*
X005168Y025955D01*
X005168Y026052D02*
X025867Y026052D01*
X025946Y026149D02*
X005168Y026149D01*
X005168Y026246D02*
X026043Y026246D01*
X026707Y026246D02*
X028799Y026246D01*
X028800Y026247D02*
X028636Y026083D01*
X028547Y025868D01*
X028547Y025636D01*
X028636Y025421D01*
X028800Y025257D01*
X029015Y025168D01*
X029247Y025168D01*
X029462Y025257D01*
X029626Y025421D01*
X029715Y025636D01*
X029715Y025868D01*
X029626Y026083D01*
X029462Y026247D01*
X029247Y026336D01*
X029015Y026336D01*
X028800Y026247D01*
X028702Y026149D02*
X026804Y026149D01*
X026883Y026052D02*
X028623Y026052D01*
X028583Y025955D02*
X026923Y025955D01*
X026959Y025858D02*
X028547Y025858D01*
X028547Y025761D02*
X026959Y025761D01*
X026959Y025664D02*
X028547Y025664D01*
X028576Y025567D02*
X026930Y025567D01*
X026890Y025470D02*
X028616Y025470D01*
X028684Y025373D02*
X026822Y025373D01*
X026725Y025276D02*
X028781Y025276D01*
X028988Y025179D02*
X026518Y025179D01*
X026232Y025179D02*
X020079Y025179D01*
X020147Y025082D02*
X030260Y025082D01*
X030260Y024985D02*
X020172Y024985D01*
X020165Y024888D02*
X030260Y024888D01*
X030260Y024791D02*
X020120Y024791D01*
X019992Y024694D02*
X030260Y024694D01*
X030260Y024597D02*
X011717Y024597D01*
X011747Y024694D02*
X019766Y024694D01*
X019638Y024791D02*
X011745Y024791D01*
X011640Y024500D02*
X030260Y024500D01*
X030260Y025179D02*
X029274Y025179D01*
X029481Y025276D02*
X030260Y025276D01*
X030260Y025373D02*
X029578Y025373D01*
X029646Y025470D02*
X030260Y025470D01*
X030260Y025567D02*
X029686Y025567D01*
X029715Y025664D02*
X030260Y025664D01*
X030260Y025761D02*
X029715Y025761D01*
X029715Y025858D02*
X030260Y025858D01*
X030260Y025955D02*
X029679Y025955D01*
X029639Y026052D02*
X030260Y026052D01*
X030260Y026149D02*
X029560Y026149D01*
X029463Y026246D02*
X030260Y026246D01*
X030260Y026343D02*
X005168Y026343D01*
X005168Y026440D02*
X030260Y026440D01*
X030260Y026537D02*
X005168Y026537D01*
X005168Y026634D02*
X030260Y026634D01*
X030260Y026731D02*
X005168Y026731D01*
X005168Y026828D02*
X030260Y026828D01*
X030260Y026925D02*
X005168Y026925D01*
X005168Y027022D02*
X030260Y027022D01*
X030260Y027119D02*
X005168Y027119D01*
X005168Y027215D02*
X030260Y027215D01*
X030260Y027312D02*
X005168Y027312D01*
X005168Y027409D02*
X030260Y027409D01*
X030260Y027506D02*
X005168Y027506D01*
X005168Y027603D02*
X030260Y027603D01*
X030260Y027700D02*
X010026Y027700D01*
X010045Y027708D02*
X010127Y027791D01*
X010172Y027898D01*
X010172Y028015D01*
X010127Y028122D01*
X010045Y028205D01*
X009937Y028249D01*
X009821Y028249D01*
X009713Y028205D01*
X009631Y028122D01*
X009586Y028015D01*
X009586Y027898D01*
X009631Y027791D01*
X009713Y027708D01*
X009821Y027664D01*
X009937Y027664D01*
X010045Y027708D01*
X010130Y027797D02*
X030260Y027797D01*
X030260Y027894D02*
X020074Y027894D01*
X020045Y027866D02*
X020127Y027948D01*
X020172Y028056D01*
X020172Y028172D01*
X020127Y028280D01*
X020045Y028362D01*
X019937Y028407D01*
X019821Y028407D01*
X019713Y028362D01*
X019631Y028280D01*
X019586Y028172D01*
X019586Y028056D01*
X019631Y027948D01*
X019713Y027866D01*
X019821Y027821D01*
X019937Y027821D01*
X020045Y027866D01*
X020145Y027991D02*
X030260Y027991D01*
X030260Y028088D02*
X020172Y028088D01*
X020167Y028185D02*
X030260Y028185D01*
X030260Y028282D02*
X020125Y028282D01*
X020005Y028379D02*
X030260Y028379D01*
X030260Y028476D02*
X018149Y028476D01*
X018126Y028486D02*
X018010Y028486D01*
X017902Y028441D01*
X017820Y028359D01*
X017775Y028251D01*
X017775Y028134D01*
X017820Y028027D01*
X017902Y027944D01*
X018010Y027900D01*
X018126Y027900D01*
X018234Y027944D01*
X018316Y028027D01*
X018361Y028134D01*
X018361Y028251D01*
X018316Y028359D01*
X018234Y028441D01*
X018126Y028486D01*
X017987Y028476D02*
X016010Y028476D01*
X016033Y028499D02*
X016077Y028607D01*
X016077Y028723D01*
X016033Y028831D01*
X015950Y028914D01*
X015843Y028958D01*
X015726Y028958D01*
X015619Y028914D01*
X015536Y028831D01*
X015492Y028723D01*
X015492Y028643D01*
X015411Y028643D01*
X015304Y028599D01*
X015221Y028516D01*
X015177Y028409D01*
X015177Y028292D01*
X015221Y028184D01*
X015304Y028102D01*
X015411Y028057D01*
X015528Y028057D01*
X015636Y028102D01*
X015718Y028184D01*
X015763Y028292D01*
X015763Y028372D01*
X015843Y028372D01*
X015950Y028417D01*
X016033Y028499D01*
X016063Y028573D02*
X030260Y028573D01*
X030260Y028670D02*
X016077Y028670D01*
X016059Y028767D02*
X030260Y028767D01*
X030260Y028864D02*
X016000Y028864D01*
X015569Y028864D02*
X005168Y028864D01*
X005168Y028961D02*
X030260Y028961D01*
X030260Y029058D02*
X005168Y029058D01*
X005168Y029155D02*
X030260Y029155D01*
X030260Y029252D02*
X005168Y029252D01*
X005168Y029349D02*
X030260Y029349D01*
X030260Y029446D02*
X005168Y029446D01*
X005168Y029543D02*
X030260Y029543D01*
X030260Y029640D02*
X013236Y029640D01*
X013277Y029680D02*
X013322Y029788D01*
X013322Y029905D01*
X013304Y029947D01*
X013402Y029947D01*
X013510Y029992D01*
X013592Y030074D01*
X013637Y030182D01*
X013637Y030298D01*
X013592Y030406D01*
X013510Y030488D01*
X013402Y030533D01*
X013285Y030533D01*
X013178Y030488D01*
X013095Y030406D01*
X013051Y030298D01*
X013051Y030182D01*
X013068Y030139D01*
X012970Y030139D01*
X012863Y030095D01*
X012780Y030012D01*
X012736Y029905D01*
X012736Y029788D01*
X012780Y029680D01*
X012863Y029598D01*
X012970Y029553D01*
X013087Y029553D01*
X013195Y029598D01*
X013277Y029680D01*
X013300Y029737D02*
X030260Y029737D01*
X030260Y029834D02*
X013322Y029834D01*
X013311Y029931D02*
X030260Y029931D01*
X030260Y030028D02*
X013545Y030028D01*
X013613Y030125D02*
X030260Y030125D01*
X030260Y030221D02*
X013637Y030221D01*
X013628Y030318D02*
X030260Y030318D01*
X030260Y030415D02*
X013582Y030415D01*
X013451Y030512D02*
X030260Y030512D01*
X030260Y030609D02*
X005168Y030609D01*
X005168Y030512D02*
X013236Y030512D01*
X013105Y030415D02*
X005168Y030415D01*
X005168Y030318D02*
X013059Y030318D01*
X013051Y030221D02*
X005168Y030221D01*
X005168Y030125D02*
X009785Y030125D01*
X009821Y030139D02*
X009713Y030095D01*
X009631Y030012D01*
X009586Y029905D01*
X009586Y029788D01*
X009631Y029680D01*
X009713Y029598D01*
X009821Y029553D01*
X009937Y029553D01*
X010045Y029598D01*
X010127Y029680D01*
X010172Y029788D01*
X010172Y029905D01*
X010127Y030012D01*
X010045Y030095D01*
X009937Y030139D01*
X009821Y030139D01*
X009973Y030125D02*
X012935Y030125D01*
X012796Y030028D02*
X010112Y030028D01*
X010161Y029931D02*
X012746Y029931D01*
X012736Y029834D02*
X010172Y029834D01*
X010151Y029737D02*
X012757Y029737D01*
X012821Y029640D02*
X010087Y029640D01*
X009671Y029640D02*
X005168Y029640D01*
X005168Y029737D02*
X009607Y029737D01*
X009586Y029834D02*
X005168Y029834D01*
X005168Y029931D02*
X009597Y029931D01*
X009646Y030028D02*
X005168Y030028D01*
X005168Y030706D02*
X030260Y030706D01*
X030260Y030803D02*
X005168Y030803D01*
X005168Y030900D02*
X030260Y030900D01*
X030260Y030997D02*
X010946Y030997D01*
X010990Y031015D02*
X011072Y031098D01*
X011117Y031205D01*
X011117Y031322D01*
X011072Y031430D01*
X010990Y031512D01*
X010882Y031557D01*
X010766Y031557D01*
X010658Y031512D01*
X010576Y031430D01*
X010531Y031322D01*
X010531Y031205D01*
X010576Y031098D01*
X010658Y031015D01*
X010766Y030971D01*
X010882Y030971D01*
X010990Y031015D01*
X011069Y031094D02*
X030260Y031094D01*
X030260Y031191D02*
X011111Y031191D01*
X011117Y031288D02*
X030260Y031288D01*
X030260Y031385D02*
X011091Y031385D01*
X011020Y031482D02*
X030260Y031482D01*
X030260Y031579D02*
X005168Y031579D01*
X005168Y031482D02*
X010628Y031482D01*
X010557Y031385D02*
X005168Y031385D01*
X005168Y031288D02*
X010531Y031288D01*
X010537Y031191D02*
X005168Y031191D01*
X005168Y031094D02*
X010579Y031094D01*
X010701Y030997D02*
X005168Y030997D01*
X005168Y031676D02*
X010627Y031676D01*
X010658Y031645D02*
X010766Y031601D01*
X010882Y031601D01*
X010990Y031645D01*
X011072Y031728D01*
X011117Y031835D01*
X011117Y031952D01*
X011072Y032059D01*
X010990Y032142D01*
X010882Y032186D01*
X010766Y032186D01*
X010658Y032142D01*
X010576Y032059D01*
X010531Y031952D01*
X010531Y031835D01*
X010576Y031728D01*
X010658Y031645D01*
X010557Y031773D02*
X005168Y031773D01*
X005168Y031870D02*
X010531Y031870D01*
X010537Y031967D02*
X005168Y031967D01*
X005168Y032064D02*
X010580Y032064D01*
X010704Y032161D02*
X005168Y032161D01*
X005168Y032258D02*
X030260Y032258D01*
X030260Y032355D02*
X005168Y032355D01*
X005168Y032452D02*
X030260Y032452D01*
X030260Y032549D02*
X005168Y032549D01*
X005168Y032646D02*
X030260Y032646D01*
X030260Y032743D02*
X005168Y032743D01*
X005168Y032840D02*
X030260Y032840D01*
X030260Y032937D02*
X005168Y032937D01*
X005168Y033034D02*
X030260Y033034D01*
X030260Y033131D02*
X029461Y033131D01*
X029462Y033131D02*
X029626Y033295D01*
X029715Y033510D01*
X029715Y033742D01*
X029626Y033957D01*
X029462Y034121D01*
X029247Y034210D01*
X029015Y034210D01*
X028800Y034121D01*
X028636Y033957D01*
X028547Y033742D01*
X028547Y033510D01*
X028636Y033295D01*
X028800Y033131D01*
X029015Y033042D01*
X029247Y033042D01*
X029462Y033131D01*
X029558Y033228D02*
X030260Y033228D01*
X030260Y033324D02*
X029638Y033324D01*
X029678Y033421D02*
X030260Y033421D01*
X030260Y033518D02*
X029715Y033518D01*
X029715Y033615D02*
X030260Y033615D01*
X030260Y033712D02*
X029715Y033712D01*
X029687Y033809D02*
X030260Y033809D01*
X030260Y033906D02*
X029647Y033906D01*
X029579Y034003D02*
X030260Y034003D01*
X030260Y034100D02*
X029482Y034100D01*
X029277Y034197D02*
X030260Y034197D01*
X030260Y034294D02*
X005168Y034294D01*
X005168Y034197D02*
X026229Y034197D01*
X026259Y034210D02*
X026044Y034121D01*
X025880Y033957D01*
X025791Y033742D01*
X025791Y033510D01*
X025880Y033295D01*
X026044Y033131D01*
X026259Y033042D01*
X026491Y033042D01*
X026706Y033131D01*
X026870Y033295D01*
X026959Y033510D01*
X026959Y033742D01*
X026870Y033957D01*
X026706Y034121D01*
X026491Y034210D01*
X026259Y034210D01*
X026024Y034100D02*
X005168Y034100D01*
X005168Y034003D02*
X025927Y034003D01*
X025859Y033906D02*
X005168Y033906D01*
X005168Y033809D02*
X025819Y033809D01*
X025791Y033712D02*
X005168Y033712D01*
X005168Y033615D02*
X025791Y033615D01*
X025791Y033518D02*
X005168Y033518D01*
X005168Y033421D02*
X025828Y033421D01*
X025868Y033324D02*
X005168Y033324D01*
X005168Y033228D02*
X025948Y033228D01*
X026045Y033131D02*
X005168Y033131D01*
X005168Y034391D02*
X030260Y034391D01*
X030260Y034488D02*
X005168Y034488D01*
X005168Y034585D02*
X030260Y034585D01*
X030260Y034682D02*
X005168Y034682D01*
X005168Y034779D02*
X030260Y034779D01*
X030260Y034876D02*
X005168Y034876D01*
X005168Y034973D02*
X030260Y034973D01*
X030260Y035070D02*
X005168Y035070D01*
X005168Y035167D02*
X030260Y035167D01*
X030260Y035264D02*
X005168Y035264D01*
X005168Y035361D02*
X030260Y035361D01*
X030260Y035458D02*
X005168Y035458D01*
X005168Y035555D02*
X030260Y035555D01*
X030260Y035652D02*
X005168Y035652D01*
X005168Y035749D02*
X030260Y035749D01*
X030260Y035846D02*
X005168Y035846D01*
X005168Y035943D02*
X030260Y035943D01*
X030260Y036040D02*
X005168Y036040D01*
X005168Y036137D02*
X030260Y036137D01*
X030260Y036234D02*
X005168Y036234D01*
X005168Y036331D02*
X030260Y036331D01*
X030260Y036427D02*
X005168Y036427D01*
X005168Y036524D02*
X030260Y036524D01*
X030260Y036621D02*
X005168Y036621D01*
X005168Y036718D02*
X030260Y036718D01*
X030260Y036815D02*
X005168Y036815D01*
X005168Y036912D02*
X030260Y036912D01*
X030260Y037009D02*
X005168Y037009D01*
X005168Y037106D02*
X030260Y037106D01*
X030260Y037203D02*
X005168Y037203D01*
X005168Y037300D02*
X030260Y037300D01*
X028985Y034197D02*
X026521Y034197D01*
X026726Y034100D02*
X028780Y034100D01*
X028683Y034003D02*
X026823Y034003D01*
X026891Y033906D02*
X028615Y033906D01*
X028575Y033809D02*
X026931Y033809D01*
X026959Y033712D02*
X028547Y033712D01*
X028547Y033615D02*
X026959Y033615D01*
X026959Y033518D02*
X028547Y033518D01*
X028584Y033421D02*
X026922Y033421D01*
X026882Y033324D02*
X028624Y033324D01*
X028704Y033228D02*
X026802Y033228D01*
X026705Y033131D02*
X028801Y033131D01*
X030260Y032161D02*
X010944Y032161D01*
X011068Y032064D02*
X030260Y032064D01*
X030260Y031967D02*
X011111Y031967D01*
X011117Y031870D02*
X030260Y031870D01*
X030260Y031773D02*
X011091Y031773D01*
X011021Y031676D02*
X030260Y031676D01*
X030260Y023434D02*
X012645Y023434D01*
X012787Y023337D02*
X030260Y023337D01*
X030260Y023240D02*
X012838Y023240D01*
X012849Y023143D02*
X030260Y023143D01*
X030260Y023046D02*
X012829Y023046D01*
X012766Y022949D02*
X030260Y022949D01*
X030260Y022658D02*
X012538Y022658D01*
X012697Y022561D02*
X030260Y022561D01*
X030260Y022464D02*
X012754Y022464D01*
X012770Y022367D02*
X030260Y022367D01*
X030260Y022270D02*
X012755Y022270D01*
X012699Y022173D02*
X030260Y022173D01*
X019685Y027894D02*
X010170Y027894D01*
X010172Y027991D02*
X017855Y027991D01*
X017794Y028088D02*
X015602Y028088D01*
X015718Y028185D02*
X017775Y028185D01*
X017788Y028282D02*
X015758Y028282D01*
X015859Y028379D02*
X017840Y028379D01*
X018296Y028379D02*
X019754Y028379D01*
X019633Y028282D02*
X018348Y028282D01*
X018361Y028185D02*
X019591Y028185D01*
X019586Y028088D02*
X018342Y028088D01*
X018281Y027991D02*
X019613Y027991D01*
X015510Y028767D02*
X005168Y028767D01*
X005168Y028670D02*
X015492Y028670D01*
X015278Y028573D02*
X005168Y028573D01*
X005168Y028476D02*
X015205Y028476D01*
X015177Y028379D02*
X005168Y028379D01*
X005168Y028282D02*
X015181Y028282D01*
X015221Y028185D02*
X010065Y028185D01*
X010142Y028088D02*
X015337Y028088D01*
X009732Y027700D02*
X005168Y027700D01*
X005168Y027797D02*
X009628Y027797D01*
X009588Y027894D02*
X005168Y027894D01*
X005168Y027991D02*
X009586Y027991D01*
X009617Y028088D02*
X005168Y028088D01*
X005168Y028185D02*
X009693Y028185D01*
X013788Y017713D02*
X005168Y017713D01*
X005168Y017616D02*
X013711Y017616D01*
X013681Y017519D02*
X005168Y017519D01*
X005168Y017422D02*
X013682Y017422D01*
X013722Y017325D02*
X005168Y017325D01*
X005168Y017228D02*
X013827Y017228D01*
X014193Y016937D02*
X005168Y016937D01*
X005168Y016840D02*
X014109Y016840D01*
X014074Y016743D02*
X005168Y016743D01*
X005168Y016646D02*
X014074Y016646D01*
X014111Y016549D02*
X005168Y016549D01*
X005168Y016452D02*
X014198Y016452D01*
X013409Y014222D02*
X017036Y014222D01*
X017065Y014234D02*
X016957Y014189D01*
X016875Y014107D01*
X016830Y013999D01*
X016830Y013882D01*
X016875Y013775D01*
X016957Y013692D01*
X017065Y013648D01*
X017181Y013648D01*
X017289Y013692D01*
X017371Y013775D01*
X017416Y013882D01*
X017416Y013999D01*
X017371Y014107D01*
X017289Y014189D01*
X017181Y014234D01*
X017065Y014234D01*
X017210Y014222D02*
X017666Y014222D01*
X017523Y014125D02*
X017353Y014125D01*
X017404Y014028D02*
X017472Y014028D01*
X017460Y013931D02*
X017416Y013931D01*
X017396Y013834D02*
X017480Y013834D01*
X017543Y013737D02*
X017333Y013737D01*
X016913Y013737D02*
X016156Y013737D01*
X016156Y013834D02*
X016850Y013834D01*
X016830Y013931D02*
X016119Y013931D01*
X016033Y014028D02*
X016842Y014028D01*
X016893Y014125D02*
X013255Y014125D01*
X013390Y011410D02*
X007537Y011410D01*
X007641Y011313D02*
X013316Y011313D01*
X013287Y011216D02*
X007705Y011216D01*
X007745Y011119D02*
X013290Y011119D01*
X013330Y011022D02*
X007754Y011022D01*
X007754Y010925D02*
X013442Y010925D01*
X013717Y010925D02*
X016515Y010925D01*
X016521Y011022D02*
X013829Y011022D01*
X013869Y011119D02*
X016564Y011119D01*
X016687Y011216D02*
X013873Y011216D01*
X014437Y009858D02*
X007732Y009858D01*
X007692Y009761D02*
X014349Y009761D01*
X014311Y009664D02*
X007610Y009664D01*
X007462Y009567D02*
X014311Y009567D01*
X016344Y010149D02*
X016427Y010232D01*
X016612Y010731D02*
X007676Y010731D01*
X007720Y010828D02*
X016541Y010828D01*
X016287Y006852D02*
X013209Y006852D01*
X013289Y006755D02*
X016279Y006755D01*
X016303Y006658D02*
X013322Y006658D01*
X013322Y006561D02*
X016372Y006561D01*
X012868Y006367D02*
X011850Y006367D01*
X011943Y006464D02*
X012775Y006464D01*
X012736Y006561D02*
X011983Y006561D01*
X011983Y006658D02*
X012736Y006658D01*
X012768Y006755D02*
X011950Y006755D01*
X011870Y006852D02*
X012849Y006852D01*
X008631Y004264D02*
X008676Y004157D01*
X008286Y005591D02*
X007295Y005591D01*
X007278Y005688D02*
X008203Y005688D01*
X008169Y005785D02*
X007238Y005785D01*
X007148Y005882D02*
X008169Y005882D01*
M02*
