G75*
G70*
%OFA0B0*%
%FSLAX24Y24*%
%IPPOS*%
%LPD*%
%AMOC8*
5,1,8,0,0,1.08239X$1,22.5*
%
%ADD10C,0.1320*%
%ADD11C,0.0414*%
%ADD12C,0.1174*%
%ADD13C,0.0729*%
%ADD14C,0.0750*%
D10*
X001736Y001736D03*
X001736Y019846D03*
X030870Y019846D03*
X030870Y001736D03*
D11*
X013055Y019492D03*
X011677Y019492D03*
D12*
X016027Y017484D03*
X017878Y016303D03*
X017878Y018665D03*
D13*
X022602Y017602D03*
X022602Y020358D03*
X027327Y020358D03*
X027327Y017602D03*
D14*
X023445Y015122D03*
X022445Y015122D03*
X021445Y015122D03*
X021445Y013626D03*
X022445Y013626D03*
X023445Y013626D03*
X030791Y013449D03*
X030791Y014449D03*
X030791Y012449D03*
X013161Y002661D03*
X012161Y002661D03*
X011161Y002661D03*
X010161Y002661D03*
X009161Y002661D03*
X008161Y002661D03*
X007161Y002661D03*
X006161Y002661D03*
X005161Y002661D03*
X004161Y002661D03*
X004161Y001161D03*
X005161Y001161D03*
X006161Y001161D03*
X007161Y001161D03*
X008161Y001161D03*
X009161Y001161D03*
X010161Y001161D03*
X011161Y001161D03*
X012161Y001161D03*
X013161Y001161D03*
X004417Y004492D03*
X003417Y004492D03*
X002417Y004492D03*
X001417Y004492D03*
X001417Y006067D03*
X002417Y006067D03*
X003417Y006067D03*
X004417Y006067D03*
X005882Y012602D03*
X006882Y012602D03*
X010240Y012834D03*
X010240Y013834D03*
X010240Y014834D03*
X010240Y015834D03*
M02*
