G75*
G70*
%OFA0B0*%
%FSLAX24Y24*%
%IPPOS*%
%LPD*%
%AMOC8*
5,1,8,0,0,1.08239X$1,22.5*
%
%ADD10R,0.0787X0.0197*%
%ADD11R,0.0866X0.0984*%
%ADD12R,0.0354X0.0394*%
%ADD13R,0.0394X0.0374*%
%ADD14C,0.0520*%
%ADD15R,0.0394X0.0354*%
%ADD16R,0.0827X0.2382*%
%ADD17R,0.0374X0.0394*%
%ADD18R,0.1102X0.0291*%
%ADD19R,0.0945X0.0512*%
%ADD20R,0.0118X0.0591*%
%ADD21R,0.0591X0.0118*%
%ADD22R,0.0413X0.0551*%
%ADD23R,0.0551X0.0413*%
%ADD24R,0.1260X0.1260*%
%ADD25C,0.2228*%
%ADD26C,0.0690*%
%ADD27C,0.0102*%
%ADD28C,0.0330*%
%ADD29R,0.1634X0.0630*%
%ADD30R,0.2382X0.0827*%
%ADD31R,0.1181X0.0630*%
%ADD32R,0.1004X0.0630*%
%ADD33R,0.0866X0.1102*%
%ADD34R,0.1102X0.1102*%
%ADD35R,0.0433X0.0236*%
%ADD36R,0.0866X0.0610*%
%ADD37R,0.0472X0.0394*%
%ADD38R,0.0472X0.0276*%
%ADD39R,0.0315X0.0394*%
%ADD40R,0.1102X0.0394*%
%ADD41R,0.0748X0.0512*%
%ADD42OC8,0.0560*%
%ADD43C,0.0197*%
%ADD44C,0.0098*%
%ADD45C,0.0118*%
D10*
X027694Y003468D03*
X027694Y003783D03*
X027694Y004098D03*
X027694Y004413D03*
X027694Y004728D03*
D11*
X027792Y005752D03*
X029879Y005752D03*
X029879Y002445D03*
X027792Y002445D03*
D12*
X026572Y003626D03*
X026572Y004256D03*
X026572Y004886D03*
X025942Y004886D03*
X025942Y004256D03*
X025942Y003626D03*
X021375Y005279D03*
X020745Y005279D03*
X020115Y005279D03*
X019485Y005279D03*
X018855Y005516D03*
X018226Y005516D03*
X018226Y006146D03*
X018226Y006775D03*
X018855Y006775D03*
X018855Y006146D03*
X018855Y007405D03*
X018226Y007405D03*
X018226Y008035D03*
X018226Y008665D03*
X018855Y008665D03*
X018855Y008035D03*
X019643Y010712D03*
X020273Y010712D03*
X022556Y011106D03*
X022556Y011736D03*
X022556Y012366D03*
X023186Y012366D03*
X023186Y011736D03*
X023186Y011106D03*
X023186Y009216D03*
X023186Y008586D03*
X023186Y007957D03*
X022556Y007957D03*
X022556Y008586D03*
X022556Y009216D03*
X016493Y014649D03*
X015863Y014649D03*
X015233Y014649D03*
X014603Y014649D03*
X013422Y019059D03*
X012792Y019059D03*
X012556Y024728D03*
X011926Y024728D03*
X011926Y031264D03*
X011296Y031264D03*
X011296Y031894D03*
X011926Y031894D03*
X011296Y032523D03*
X010666Y032523D03*
X015548Y031500D03*
X016178Y031500D03*
X023501Y031657D03*
X024131Y031657D03*
X024131Y033232D03*
X023501Y033232D03*
X023501Y034020D03*
X024131Y034020D03*
X024131Y035594D03*
X023501Y035594D03*
X023501Y027327D03*
X024131Y027327D03*
X024131Y026539D03*
X023501Y026539D03*
X023501Y024964D03*
X024131Y024964D03*
X024131Y024177D03*
X023501Y024177D03*
X011296Y006618D03*
X010666Y006618D03*
D13*
X010194Y007327D03*
X010194Y007957D03*
X010194Y010870D03*
X010194Y011500D03*
X012163Y015043D03*
X012163Y015673D03*
X012163Y017563D03*
X012163Y018193D03*
X014682Y015988D03*
X014682Y015358D03*
X017044Y015358D03*
X017044Y015988D03*
X016178Y011815D03*
X016178Y011185D03*
X023186Y010476D03*
X023186Y009846D03*
X026336Y006618D03*
X026966Y006618D03*
X026966Y005988D03*
X026336Y005988D03*
X008855Y004728D03*
X008855Y004098D03*
X010351Y027957D03*
X010351Y028586D03*
X010351Y029216D03*
X010351Y029846D03*
X010981Y029846D03*
X010981Y029216D03*
X010981Y028586D03*
X010981Y027957D03*
X011611Y027957D03*
X011611Y028586D03*
X011611Y029216D03*
X011611Y029846D03*
X016336Y030083D03*
X016966Y030083D03*
X016966Y029453D03*
X016336Y029453D03*
X016336Y028823D03*
X016966Y028823D03*
X017596Y028823D03*
X017596Y028193D03*
X016966Y028193D03*
X016336Y028193D03*
D14*
X016363Y015358D03*
X015363Y015358D03*
D15*
X014603Y013547D03*
X014603Y012917D03*
X017123Y012838D03*
X017123Y013468D03*
X017753Y013468D03*
X017753Y012838D03*
X019485Y009374D03*
X019485Y008744D03*
X024210Y016382D03*
X024210Y017012D03*
X024210Y018744D03*
X024210Y019374D03*
X015548Y029610D03*
X015548Y030240D03*
X010777Y020685D03*
X010777Y020055D03*
X012163Y016933D03*
X012163Y016303D03*
X008147Y010004D03*
X008147Y009374D03*
D16*
X010588Y014836D03*
X010588Y018399D03*
D17*
X012163Y014413D03*
X012792Y014413D03*
X012792Y013783D03*
X012163Y013783D03*
X012163Y013153D03*
X012792Y013153D03*
X015233Y013390D03*
X015863Y013390D03*
X017517Y019295D03*
X018147Y019295D03*
X014918Y025673D03*
X014918Y026303D03*
X014289Y026303D03*
X014289Y025673D03*
X014289Y026933D03*
X014918Y026933D03*
X015548Y030870D03*
X016178Y030870D03*
X012556Y032523D03*
X011926Y032523D03*
X010037Y032523D03*
X009407Y032523D03*
X023501Y032445D03*
X024131Y032445D03*
X024131Y034807D03*
X023501Y034807D03*
X015470Y006618D03*
X014840Y006618D03*
X011848Y004098D03*
X011218Y004098D03*
X025312Y002366D03*
X025942Y002366D03*
X025942Y002996D03*
X026572Y002996D03*
D18*
X021466Y006012D03*
X021466Y006512D03*
X021466Y007012D03*
X021466Y007512D03*
X021466Y008012D03*
X019867Y008012D03*
X019867Y007512D03*
X019867Y007012D03*
X019867Y006512D03*
X019867Y006012D03*
D19*
X018147Y020181D03*
X018147Y021874D03*
X014682Y021874D03*
X014682Y020181D03*
D20*
X014663Y011854D03*
X014466Y011854D03*
X014269Y011854D03*
X014072Y011854D03*
X013875Y011854D03*
X013678Y011854D03*
X013481Y011854D03*
X013285Y011854D03*
X013088Y011854D03*
X012891Y011854D03*
X012694Y011854D03*
X012497Y011854D03*
X012300Y011854D03*
X012103Y011854D03*
X011907Y011854D03*
X011710Y011854D03*
X011710Y007366D03*
X011907Y007366D03*
X012103Y007366D03*
X012300Y007366D03*
X012497Y007366D03*
X012694Y007366D03*
X012891Y007366D03*
X013088Y007366D03*
X013285Y007366D03*
X013481Y007366D03*
X013678Y007366D03*
X013875Y007366D03*
X014072Y007366D03*
X014269Y007366D03*
X014466Y007366D03*
X014663Y007366D03*
D21*
X015430Y008134D03*
X015430Y008331D03*
X015430Y008527D03*
X015430Y008724D03*
X015430Y008921D03*
X015430Y009118D03*
X015430Y009315D03*
X015430Y009512D03*
X015430Y009709D03*
X015430Y009905D03*
X015430Y010102D03*
X015430Y010299D03*
X015430Y010496D03*
X015430Y010693D03*
X015430Y010890D03*
X015430Y011086D03*
X010942Y011086D03*
X010942Y010890D03*
X010942Y010693D03*
X010942Y010496D03*
X010942Y010299D03*
X010942Y010102D03*
X010942Y009905D03*
X010942Y009709D03*
X010942Y009512D03*
X010942Y009315D03*
X010942Y009118D03*
X010942Y008921D03*
X010942Y008724D03*
X010942Y008527D03*
X010942Y008331D03*
X010942Y008134D03*
D22*
X014643Y005909D03*
X015351Y005909D03*
X015273Y012681D03*
X015981Y012681D03*
D23*
X009485Y008153D03*
X009485Y007445D03*
X014840Y030358D03*
X014840Y031067D03*
D24*
X007202Y026943D03*
X007202Y020624D03*
D25*
X007202Y023783D03*
D26*
X007281Y011004D03*
X007281Y010004D03*
X007281Y009004D03*
X019273Y011579D03*
X020273Y011579D03*
X021273Y011579D03*
D27*
X014564Y027905D02*
X014564Y028075D01*
X014367Y028075D02*
X014367Y027905D01*
X014170Y027905D02*
X014170Y028075D01*
X013974Y028075D02*
X013974Y027905D01*
X013777Y027905D02*
X013777Y028075D01*
X013580Y028075D02*
X013580Y027905D01*
X013383Y027905D02*
X013383Y028075D01*
X013147Y028311D02*
X012977Y028311D01*
X012977Y028508D02*
X013147Y028508D01*
X013147Y028705D02*
X012977Y028705D01*
X012977Y028901D02*
X013147Y028901D01*
X013147Y029098D02*
X012977Y029098D01*
X012977Y029295D02*
X013147Y029295D01*
X013147Y029492D02*
X012977Y029492D01*
X013383Y029728D02*
X013383Y029898D01*
X013580Y029898D02*
X013580Y029728D01*
X013777Y029728D02*
X013777Y029898D01*
X013974Y029898D02*
X013974Y029728D01*
X014170Y029728D02*
X014170Y029898D01*
X014367Y029898D02*
X014367Y029728D01*
X014564Y029728D02*
X014564Y029898D01*
X014800Y029492D02*
X014970Y029492D01*
X014970Y029295D02*
X014800Y029295D01*
X014800Y029098D02*
X014970Y029098D01*
X014970Y028901D02*
X014800Y028901D01*
X014800Y028705D02*
X014970Y028705D01*
X014970Y028508D02*
X014800Y028508D01*
X014800Y028311D02*
X014970Y028311D01*
D28*
X015470Y028350D03*
X015785Y028665D03*
X016336Y027799D03*
X016966Y027799D03*
X018068Y028193D03*
X019879Y028114D03*
X019879Y024964D03*
X018147Y021421D03*
X014682Y021421D03*
X014367Y019059D03*
X013974Y017484D03*
X014367Y016697D03*
X014289Y015988D03*
X012792Y014807D03*
X013186Y014413D03*
X011769Y015043D03*
X012714Y012760D03*
X012635Y011264D03*
X013580Y011185D03*
X014603Y012445D03*
X014840Y010791D03*
X014603Y009610D03*
X014840Y009138D03*
X016178Y010397D03*
X016572Y009689D03*
X016414Y009059D03*
X017832Y010004D03*
X018383Y009374D03*
X018619Y010319D03*
X016808Y010949D03*
X016572Y011815D03*
X016414Y012681D03*
X016257Y013390D03*
X015863Y013783D03*
X017123Y013941D03*
X017753Y013941D03*
X017438Y015988D03*
X012163Y019059D03*
X011769Y018193D03*
X012005Y021421D03*
X012477Y022366D03*
X012556Y023153D03*
X012635Y024098D03*
X011454Y024728D03*
X011611Y027563D03*
X010981Y027563D03*
X009879Y027957D03*
X009879Y029846D03*
X010981Y030240D03*
X011611Y030240D03*
X010824Y031264D03*
X010824Y031894D03*
X009407Y032130D03*
X012556Y032130D03*
X013344Y030240D03*
X013029Y029846D03*
X013474Y029401D03*
X013974Y029401D03*
X013974Y028901D03*
X013974Y028401D03*
X013474Y028401D03*
X013474Y028901D03*
X014474Y028901D03*
X014474Y028401D03*
X014474Y029401D03*
X016336Y030476D03*
X016572Y030870D03*
X016966Y030476D03*
X016572Y031500D03*
X015312Y026933D03*
X015312Y026303D03*
X014918Y025201D03*
X007832Y024413D03*
X007832Y023232D03*
X006651Y023232D03*
X006651Y024413D03*
X010194Y011894D03*
X009800Y011500D03*
X011533Y010949D03*
X011533Y010319D03*
X012714Y008665D03*
X013265Y008350D03*
X013501Y007957D03*
X012556Y008035D03*
X012084Y008035D03*
X011690Y006618D03*
X010666Y007090D03*
X010194Y006933D03*
X009485Y007012D03*
X009249Y006460D03*
X008462Y005831D03*
X008855Y005122D03*
X008462Y004728D03*
X008383Y004098D03*
X007989Y004098D03*
X010037Y004492D03*
X011848Y004492D03*
X012241Y004098D03*
X011848Y003705D03*
X013029Y006618D03*
X015391Y007405D03*
X015863Y006618D03*
X015785Y005909D03*
X015312Y005437D03*
X015312Y004649D03*
X016572Y006775D03*
X016966Y007405D03*
X017517Y006775D03*
X017832Y005516D03*
X021454Y008350D03*
X022241Y007012D03*
X022241Y006539D03*
X022635Y005279D03*
X024446Y002366D03*
X024918Y002366D03*
X027044Y004964D03*
X027044Y005516D03*
X026572Y005358D03*
X025627Y007799D03*
X024525Y008980D03*
X024761Y009374D03*
X024367Y009768D03*
X024761Y010240D03*
X024525Y010712D03*
X024761Y011106D03*
X024525Y011579D03*
X024761Y011972D03*
X024446Y012523D03*
X023974Y012996D03*
X023580Y009846D03*
X028068Y007799D03*
X029328Y007799D03*
X029879Y007799D03*
X029328Y013311D03*
X029643Y013941D03*
X029564Y018665D03*
X029013Y019374D03*
X029564Y020004D03*
X024603Y018744D03*
X024210Y018350D03*
X023816Y018744D03*
X024210Y017405D03*
X023816Y017012D03*
X024603Y017012D03*
X024525Y024964D03*
X024131Y025358D03*
X024131Y026146D03*
X024525Y026539D03*
X029013Y027248D03*
X029564Y027878D03*
X029564Y026539D03*
X024525Y032523D03*
X024525Y033232D03*
X024525Y034020D03*
X024525Y034728D03*
X029013Y035122D03*
X029564Y035752D03*
X029564Y034413D03*
X009013Y007484D03*
D29*
X020214Y015909D03*
X022694Y015909D03*
X022694Y019846D03*
X020214Y019846D03*
D30*
X012763Y034098D03*
X009200Y034098D03*
D31*
X020174Y027327D03*
X021946Y027327D03*
X021946Y024177D03*
X020174Y024177D03*
D32*
X020765Y032445D03*
X022143Y032445D03*
X022143Y034807D03*
X020765Y034807D03*
D33*
X028777Y032169D03*
X029564Y035083D03*
X029564Y027209D03*
X028777Y024295D03*
X029564Y019334D03*
X028777Y016421D03*
D34*
X025863Y019334D03*
X025863Y027209D03*
X025863Y035083D03*
D35*
X010568Y004866D03*
X010568Y004492D03*
X010568Y004118D03*
X009505Y004118D03*
X009505Y004866D03*
D36*
X009269Y002917D03*
X010411Y002917D03*
X012025Y002917D03*
X007655Y002917D03*
D37*
X023974Y012583D03*
X025666Y008193D03*
D38*
X023974Y008567D03*
X023974Y008941D03*
X023974Y009374D03*
X023974Y009807D03*
X023974Y010240D03*
X023974Y010673D03*
X023974Y011106D03*
X023974Y011539D03*
X023974Y011972D03*
D39*
X028107Y008193D03*
D40*
X029741Y008193D03*
D41*
X029918Y013508D03*
D42*
X006887Y006567D03*
X006887Y005567D03*
D43*
X006887Y003685D01*
X007655Y002917D01*
X007989Y004098D02*
X008383Y004098D01*
X008855Y004098D01*
X008875Y004118D01*
X009505Y004118D01*
X009505Y003153D02*
X009269Y002917D01*
X010411Y002917D01*
X010568Y003075D01*
X010568Y004118D01*
X011198Y004118D01*
X011218Y004098D01*
X011139Y004177D01*
X011139Y004728D01*
X011001Y004866D01*
X010568Y004866D01*
X012025Y002917D02*
X013048Y001894D01*
X026257Y001894D01*
X026572Y002209D01*
X026572Y002996D01*
X026651Y003075D01*
X026808Y003075D01*
X027202Y003468D01*
X027694Y003468D01*
X027792Y002445D02*
X029879Y002445D01*
X029879Y005752D02*
X027989Y005752D01*
X028068Y005831D01*
X027989Y005752D02*
X027792Y005752D01*
X027792Y005949D01*
X027123Y006618D01*
X026966Y006618D01*
X026336Y006618D01*
X025942Y002996D02*
X025942Y002366D01*
X021375Y005279D02*
X021375Y005921D01*
X021466Y006012D01*
X020800Y006012D01*
X020666Y006146D01*
X020666Y009059D01*
X020824Y009216D01*
X022556Y009216D01*
X022556Y010476D01*
X023186Y010476D01*
X022556Y010476D02*
X022556Y011106D01*
X022556Y011736D01*
X022556Y012366D01*
X021296Y012366D01*
X017753Y012366D01*
X017123Y012366D01*
X016651Y012366D01*
X016493Y012209D01*
X015548Y012209D01*
X015273Y012681D02*
X015233Y012720D01*
X015233Y013390D01*
X015863Y013390D02*
X015863Y013783D01*
X015863Y013390D02*
X016257Y013390D01*
X013186Y014413D02*
X012792Y014413D01*
X012792Y014807D01*
X012163Y014413D02*
X012163Y013783D01*
X012163Y013153D01*
X016966Y007405D02*
X018226Y007405D01*
X018226Y008035D01*
X022556Y008586D02*
X022556Y009216D01*
X010037Y021027D02*
X009633Y020624D01*
X007202Y020624D01*
X010037Y021027D02*
X010037Y026539D01*
X009633Y026943D01*
X007202Y026943D01*
D44*
X009879Y027957D02*
X010351Y027957D01*
X010351Y028586D02*
X010981Y028586D01*
X011611Y028586D01*
X011729Y028705D01*
X013062Y028705D01*
X013062Y028508D02*
X012792Y028508D01*
X012477Y028193D01*
X012477Y027405D01*
X010777Y025705D01*
X010777Y020685D01*
X010529Y020378D02*
X011080Y020378D01*
X011375Y020083D01*
X011375Y019295D01*
X012084Y018586D01*
X012477Y018586D01*
X012635Y018429D01*
X012635Y018035D01*
X013974Y016697D01*
X014367Y016697D01*
X013875Y016086D02*
X012477Y017484D01*
X012241Y017484D01*
X012163Y017563D01*
X010588Y017563D01*
X010588Y018399D01*
X010777Y018588D01*
X010777Y020055D01*
X010529Y020378D02*
X010273Y020634D01*
X010273Y020870D01*
X010115Y021027D01*
X010037Y021027D01*
X011690Y019531D02*
X012163Y019059D01*
X012792Y019059D01*
X013422Y019059D02*
X014367Y019059D01*
X014682Y018193D02*
X013974Y017484D01*
X014682Y018193D02*
X014682Y020181D01*
X018147Y020181D01*
X018147Y019295D01*
X020214Y019846D02*
X020214Y021165D01*
X017674Y023705D01*
X017674Y025201D01*
X015233Y027642D01*
X014525Y027642D01*
X014367Y027799D01*
X014367Y027990D01*
X014170Y027990D02*
X014170Y027051D01*
X014289Y026933D01*
X014289Y026303D01*
X014289Y025673D01*
X014918Y025673D02*
X014918Y025201D01*
X013186Y023783D02*
X012556Y023153D01*
X012477Y022366D02*
X013422Y023311D01*
X013422Y027248D01*
X013777Y027602D01*
X013777Y027990D01*
X013974Y027990D02*
X013974Y027484D01*
X013659Y027169D01*
X013659Y023075D01*
X012005Y021421D01*
X011690Y019531D02*
X011690Y023862D01*
X012556Y024728D01*
X012714Y024886D01*
X012714Y028114D01*
X012911Y028311D01*
X013062Y028311D01*
X013141Y027990D02*
X012950Y027799D01*
X012950Y024413D01*
X012635Y024098D01*
X013186Y023783D02*
X013186Y027327D01*
X013580Y027720D01*
X013580Y027990D01*
X013383Y027990D02*
X013141Y027990D01*
X013062Y029098D02*
X011729Y029098D01*
X011611Y029216D01*
X010981Y029216D01*
X010351Y029216D01*
X010351Y029846D02*
X009879Y029846D01*
X010194Y030870D02*
X011769Y030870D01*
X012241Y030397D01*
X012241Y029689D01*
X012635Y029295D01*
X013062Y029295D01*
X013062Y029492D02*
X012753Y029492D01*
X012477Y029768D01*
X012477Y030712D01*
X011926Y031264D01*
X011926Y031894D01*
X011926Y032523D01*
X011296Y032523D01*
X011926Y032523D02*
X011926Y034098D01*
X012763Y034098D01*
X010666Y032523D02*
X010037Y032523D01*
X010037Y031027D01*
X010194Y030870D01*
X010824Y031264D02*
X011296Y031264D01*
X011296Y031894D02*
X010824Y031894D01*
X010037Y032523D02*
X010037Y034098D01*
X009200Y034098D01*
X013344Y030240D02*
X013580Y030004D01*
X013580Y029813D01*
X013383Y029813D02*
X013062Y029813D01*
X013029Y029846D01*
X014170Y029813D02*
X014170Y031539D01*
X017438Y034807D01*
X020765Y034807D01*
X020765Y032445D02*
X015391Y032445D01*
X014367Y031421D01*
X014367Y029813D01*
X014564Y029813D02*
X014564Y030083D01*
X014840Y030358D01*
X015548Y030240D02*
X015548Y030870D01*
X015470Y030949D01*
X015076Y030949D01*
X014958Y031067D01*
X014840Y031067D01*
X015548Y030870D02*
X015548Y031500D01*
X015548Y029610D02*
X015430Y029492D01*
X014885Y029492D01*
X014885Y029295D02*
X016178Y029295D01*
X016336Y029453D01*
X016966Y029453D01*
X016966Y028823D02*
X016336Y028823D01*
X016178Y028980D01*
X015155Y028980D01*
X015076Y028901D01*
X014885Y028901D01*
X014885Y028705D02*
X015745Y028705D01*
X015785Y028665D01*
X015470Y028350D02*
X015312Y028508D01*
X014885Y028508D01*
X014564Y027990D02*
X014564Y027917D01*
X014603Y027878D01*
X015391Y027878D01*
X017911Y025358D01*
X017911Y023783D01*
X021454Y020240D01*
X021454Y017720D01*
X020214Y016480D01*
X020214Y015909D01*
X017753Y013941D02*
X017753Y013468D01*
X017753Y012838D02*
X017753Y012366D01*
X017123Y012366D02*
X017123Y012838D01*
X017123Y013468D02*
X017123Y013941D01*
X016493Y014649D02*
X016363Y014779D01*
X016363Y015358D01*
X017044Y015358D01*
X015863Y014649D02*
X015470Y014256D01*
X014682Y014256D01*
X014269Y013842D01*
X014269Y011854D01*
X014072Y011854D02*
X014072Y014039D01*
X014603Y014571D01*
X014603Y014649D01*
X015233Y014649D02*
X015363Y014779D01*
X015363Y015358D01*
X014682Y015358D01*
X013875Y016086D02*
X013875Y011854D01*
X013678Y011854D02*
X013678Y015653D01*
X012477Y016854D01*
X012241Y016854D01*
X012163Y016933D01*
X012163Y016303D02*
X012163Y015673D01*
X010588Y015673D01*
X010588Y014836D01*
X012163Y013153D02*
X012300Y013016D01*
X012300Y011854D01*
X012497Y011854D02*
X012497Y011401D01*
X012635Y011264D01*
X012892Y011410D02*
X013304Y011410D01*
X013304Y011431D02*
X013304Y011357D01*
X013304Y011285D01*
X013287Y011243D01*
X013287Y011127D01*
X013331Y011019D01*
X013414Y010937D01*
X013522Y010892D01*
X013638Y010892D01*
X013746Y010937D01*
X013828Y011019D01*
X013873Y011127D01*
X013873Y011243D01*
X013828Y011351D01*
X013748Y011431D01*
X013790Y011431D01*
X013987Y011431D01*
X014184Y011431D01*
X014381Y011431D01*
X014578Y011431D01*
X014775Y011431D01*
X014849Y011506D01*
X014849Y011972D01*
X014997Y011972D01*
X014997Y012917D01*
X015548Y012917D01*
X015548Y011077D01*
X015082Y011077D01*
X015072Y011067D01*
X015011Y011067D01*
X014940Y011067D01*
X014898Y011084D01*
X014781Y011084D01*
X014674Y011039D01*
X014591Y010957D01*
X014547Y010849D01*
X014547Y010733D01*
X014591Y010625D01*
X014674Y010543D01*
X014781Y010498D01*
X014898Y010498D01*
X015006Y010543D01*
X015007Y010544D01*
X015007Y010384D01*
X015007Y010214D01*
X015007Y009990D01*
X015007Y009886D01*
X014775Y009886D01*
X014704Y009886D01*
X014662Y009903D01*
X014545Y009903D01*
X014438Y009858D01*
X014355Y009776D01*
X014311Y009668D01*
X014311Y009552D01*
X014355Y009444D01*
X014438Y009362D01*
X014545Y009317D01*
X014605Y009317D01*
X014591Y009304D01*
X014547Y009196D01*
X014547Y009079D01*
X014591Y008972D01*
X014663Y008901D01*
X014663Y008041D01*
X014766Y007937D01*
X015002Y007701D01*
X015149Y007701D01*
X015396Y007701D01*
X015548Y007549D01*
X015548Y007248D01*
X014653Y007248D01*
X014653Y007714D01*
X014578Y007789D01*
X014354Y007789D01*
X014157Y007789D01*
X013960Y007789D01*
X013855Y007789D01*
X013855Y007853D01*
X013794Y007914D01*
X013794Y008015D01*
X013749Y008122D01*
X013667Y008205D01*
X013559Y008249D01*
X013540Y008249D01*
X013558Y008292D01*
X013558Y008409D01*
X013513Y008516D01*
X013431Y008599D01*
X013323Y008643D01*
X013207Y008643D01*
X013099Y008599D01*
X013065Y008564D01*
X013007Y008623D01*
X013007Y008723D01*
X012962Y008831D01*
X012880Y008914D01*
X012772Y008958D01*
X012655Y008958D01*
X012548Y008914D01*
X012465Y008831D01*
X012421Y008723D01*
X012421Y008607D01*
X012465Y008499D01*
X012548Y008417D01*
X012655Y008372D01*
X012714Y008372D01*
X012714Y008287D01*
X012614Y008328D01*
X012498Y008328D01*
X012390Y008284D01*
X012320Y008213D01*
X012250Y008284D01*
X012142Y008328D01*
X012025Y008328D01*
X011918Y008284D01*
X011835Y008201D01*
X011791Y008094D01*
X011791Y007993D01*
X011729Y007931D01*
X011729Y007789D01*
X011598Y007789D01*
X011523Y007714D01*
X011523Y007248D01*
X010918Y007248D01*
X010915Y007256D01*
X010832Y007339D01*
X010824Y007342D01*
X010824Y008144D01*
X011290Y008144D01*
X011365Y008218D01*
X011365Y008443D01*
X011365Y008639D01*
X011365Y008836D01*
X011365Y009033D01*
X011365Y009230D01*
X011365Y009427D01*
X011365Y009624D01*
X011365Y009821D01*
X011365Y010017D01*
X011365Y010072D01*
X011367Y010070D01*
X011474Y010026D01*
X011591Y010026D01*
X011699Y010070D01*
X011781Y010153D01*
X011826Y010260D01*
X011826Y010377D01*
X011781Y010485D01*
X011699Y010567D01*
X011591Y010612D01*
X011490Y010612D01*
X011429Y010673D01*
X011300Y010673D01*
X011290Y010683D01*
X010824Y010683D01*
X010824Y010703D01*
X011290Y010703D01*
X011300Y010712D01*
X011355Y010712D01*
X011367Y010700D01*
X011474Y010656D01*
X011591Y010656D01*
X011699Y010700D01*
X011781Y010783D01*
X011826Y010890D01*
X011826Y011007D01*
X011781Y011115D01*
X011699Y011197D01*
X011591Y011242D01*
X011474Y011242D01*
X011367Y011197D01*
X011365Y011196D01*
X011365Y011199D01*
X011290Y011273D01*
X010824Y011273D01*
X010824Y011972D01*
X011523Y011972D01*
X011523Y011506D01*
X011598Y011431D01*
X011822Y011431D01*
X012019Y011431D01*
X012216Y011431D01*
X012320Y011431D01*
X012320Y011328D01*
X012342Y011306D01*
X012342Y011205D01*
X012387Y011098D01*
X012469Y011015D01*
X012577Y010971D01*
X012693Y010971D01*
X012801Y011015D01*
X012883Y011098D01*
X012928Y011205D01*
X012928Y011322D01*
X012883Y011430D01*
X012882Y011431D01*
X013003Y011431D01*
X013200Y011431D01*
X013304Y011431D01*
X013304Y011313D02*
X012928Y011313D01*
X012928Y011216D02*
X013287Y011216D01*
X013290Y011119D02*
X012892Y011119D01*
X012807Y011022D02*
X013330Y011022D01*
X013442Y010925D02*
X011826Y010925D01*
X011819Y011022D02*
X012463Y011022D01*
X012378Y011119D02*
X011777Y011119D01*
X011653Y011216D02*
X012342Y011216D01*
X012335Y011313D02*
X010824Y011313D01*
X010824Y011410D02*
X012320Y011410D01*
X011800Y010828D02*
X014547Y010828D01*
X014548Y010731D02*
X011729Y010731D01*
X011729Y010537D02*
X014688Y010537D01*
X014588Y010634D02*
X011468Y010634D01*
X011355Y010496D02*
X010942Y010496D01*
X010942Y010693D02*
X010371Y010693D01*
X010194Y010870D01*
X010060Y011004D01*
X007281Y011004D01*
X007281Y010004D02*
X008147Y010004D01*
X008147Y009374D02*
X008600Y008921D01*
X010942Y008921D01*
X011365Y008888D02*
X012523Y008888D01*
X012449Y008791D02*
X011365Y008791D01*
X011365Y008694D02*
X012421Y008694D01*
X012425Y008598D02*
X011365Y008598D01*
X011365Y008501D02*
X012465Y008501D01*
X012580Y008404D02*
X011365Y008404D01*
X011365Y008307D02*
X011973Y008307D01*
X011844Y008210D02*
X011356Y008210D01*
X010942Y008134D02*
X010371Y008134D01*
X010194Y007957D01*
X010824Y007919D02*
X011729Y007919D01*
X011729Y007822D02*
X010824Y007822D01*
X010824Y007725D02*
X011533Y007725D01*
X011523Y007628D02*
X010824Y007628D01*
X010824Y007531D02*
X011523Y007531D01*
X011523Y007434D02*
X010824Y007434D01*
X010834Y007337D02*
X011523Y007337D01*
X011710Y007366D02*
X011710Y006638D01*
X011690Y006618D01*
X011296Y006618D01*
X011611Y006067D02*
X009643Y006067D01*
X009249Y006460D01*
X008462Y005831D02*
X011690Y005831D01*
X012694Y006834D01*
X012694Y007366D01*
X012891Y007366D02*
X012891Y008488D01*
X012714Y008665D01*
X012978Y008791D02*
X014663Y008791D01*
X014663Y008694D02*
X013007Y008694D01*
X013032Y008598D02*
X013098Y008598D01*
X013265Y008350D02*
X013088Y008173D01*
X013088Y007366D01*
X013285Y007366D02*
X013285Y006874D01*
X013029Y006618D01*
X012497Y006953D02*
X012497Y007366D01*
X012300Y007366D02*
X012300Y007779D01*
X012556Y008035D01*
X012446Y008307D02*
X012194Y008307D01*
X012084Y008035D02*
X011907Y007858D01*
X011907Y007366D01*
X011791Y008016D02*
X010824Y008016D01*
X010824Y008113D02*
X011799Y008113D01*
X010942Y008331D02*
X009663Y008331D01*
X009485Y008153D01*
X010666Y007090D02*
X010666Y006618D01*
X011611Y006067D02*
X012497Y006953D01*
X013481Y007366D02*
X013481Y004197D01*
X014682Y002996D01*
X025942Y002996D01*
X025942Y003626D02*
X025548Y003626D01*
X025391Y003783D01*
X015076Y003783D01*
X013875Y004984D01*
X013875Y007366D01*
X013678Y007366D02*
X013678Y007779D01*
X013501Y007957D01*
X013794Y007919D02*
X014784Y007919D01*
X014687Y008016D02*
X013794Y008016D01*
X013753Y008113D02*
X014663Y008113D01*
X014663Y008210D02*
X013655Y008210D01*
X013558Y008307D02*
X014663Y008307D01*
X014663Y008404D02*
X013558Y008404D01*
X013520Y008501D02*
X014663Y008501D01*
X014663Y008598D02*
X013432Y008598D01*
X012905Y008888D02*
X014663Y008888D01*
X014586Y008985D02*
X011365Y008985D01*
X011365Y009082D02*
X014547Y009082D01*
X014547Y009179D02*
X011365Y009179D01*
X011365Y009276D02*
X014580Y009276D01*
X014426Y009373D02*
X011365Y009373D01*
X011365Y009470D02*
X014344Y009470D01*
X014311Y009567D02*
X011365Y009567D01*
X011365Y009664D02*
X014311Y009664D01*
X014349Y009761D02*
X011365Y009761D01*
X011365Y009858D02*
X014437Y009858D01*
X014603Y009610D02*
X014702Y009709D01*
X015430Y009709D01*
X015430Y009315D02*
X015017Y009315D01*
X014840Y009138D01*
X014840Y008114D01*
X015076Y007878D01*
X015470Y007878D01*
X016572Y006775D01*
X017517Y006775D02*
X018226Y006775D01*
X018226Y006146D02*
X017674Y006146D01*
X015686Y008134D01*
X015430Y008134D01*
X015430Y008331D02*
X017733Y008331D01*
X017911Y008508D01*
X018068Y008508D01*
X018226Y008665D01*
X018855Y008665D02*
X018855Y008035D01*
X018934Y008035D01*
X019458Y007512D01*
X019867Y007512D01*
X019867Y007012D02*
X019170Y007012D01*
X019092Y006933D01*
X019013Y006933D01*
X018855Y006775D01*
X018855Y007405D01*
X019485Y008035D02*
X019485Y008744D01*
X019485Y009374D02*
X018383Y009374D01*
X017832Y010004D02*
X016552Y008724D01*
X015430Y008724D01*
X015430Y008527D02*
X016828Y008527D01*
X018619Y010319D01*
X019643Y010712D02*
X017044Y010712D01*
X016414Y010083D01*
X016021Y010083D01*
X015804Y010299D01*
X015430Y010299D01*
X015430Y010496D02*
X016080Y010496D01*
X016178Y010397D01*
X016552Y010693D02*
X016808Y010949D01*
X016552Y010693D02*
X015430Y010693D01*
X015430Y010890D02*
X014938Y010890D01*
X014840Y010791D01*
X014578Y010925D02*
X013717Y010925D01*
X013829Y011022D02*
X014656Y011022D01*
X014849Y011507D02*
X015548Y011507D01*
X015548Y011604D02*
X014849Y011604D01*
X014849Y011701D02*
X015548Y011701D01*
X015548Y011797D02*
X014849Y011797D01*
X014849Y011894D02*
X015548Y011894D01*
X015548Y011991D02*
X014997Y011991D01*
X014997Y012088D02*
X015548Y012088D01*
X015548Y012185D02*
X014997Y012185D01*
X014997Y012282D02*
X015548Y012282D01*
X015548Y012379D02*
X014997Y012379D01*
X014997Y012476D02*
X015548Y012476D01*
X015548Y012573D02*
X014997Y012573D01*
X014997Y012670D02*
X015548Y012670D01*
X015548Y012767D02*
X014997Y012767D01*
X014997Y012864D02*
X015548Y012864D01*
X015233Y013390D02*
X015076Y013547D01*
X014603Y013547D01*
X014603Y012917D02*
X014603Y012445D01*
X014663Y012386D01*
X014663Y011854D01*
X013844Y011313D02*
X015548Y011313D01*
X015548Y011410D02*
X013769Y011410D01*
X013873Y011216D02*
X015548Y011216D01*
X015548Y011119D02*
X013869Y011119D01*
X013580Y011185D02*
X013481Y011283D01*
X013481Y011854D01*
X014991Y010537D02*
X015007Y010537D01*
X015007Y010440D02*
X011799Y010440D01*
X011826Y010343D02*
X015007Y010343D01*
X015007Y010246D02*
X011819Y010246D01*
X011777Y010149D02*
X015007Y010149D01*
X015007Y010052D02*
X011654Y010052D01*
X011411Y010052D02*
X011365Y010052D01*
X011365Y009955D02*
X015007Y009955D01*
X015430Y009118D02*
X016001Y009118D01*
X016572Y009689D01*
X016414Y009059D02*
X016277Y008921D01*
X015430Y008921D01*
X014881Y007822D02*
X013855Y007822D01*
X014072Y007366D02*
X014072Y005181D01*
X015155Y004098D01*
X025391Y004098D01*
X025548Y004256D01*
X025942Y004256D01*
X025942Y004886D02*
X015548Y004886D01*
X015312Y004649D01*
X014603Y005122D02*
X019328Y005122D01*
X019485Y005279D01*
X018855Y005516D02*
X018855Y006146D01*
X019222Y006512D01*
X019867Y006512D01*
X019867Y006012D02*
X020092Y006012D01*
X020115Y005988D01*
X020115Y005279D01*
X020745Y005279D01*
X022635Y005279D02*
X022635Y007878D01*
X022556Y007957D01*
X023186Y007957D02*
X023501Y007957D01*
X023816Y008271D01*
X023816Y008567D01*
X023974Y008567D01*
X023974Y008941D02*
X023540Y008941D01*
X023186Y008586D01*
X023186Y009216D02*
X023344Y009374D01*
X023974Y009374D01*
X024761Y009374D01*
X024525Y008980D02*
X024485Y008941D01*
X023974Y008941D01*
X023974Y010240D02*
X024761Y010240D01*
X024485Y010673D02*
X024525Y010712D01*
X024485Y010673D02*
X023974Y010673D01*
X023383Y010673D01*
X023186Y010476D01*
X023186Y011106D02*
X023974Y011106D01*
X024761Y011106D01*
X024485Y011539D02*
X024525Y011579D01*
X024485Y011539D02*
X023974Y011539D01*
X023383Y011539D01*
X023186Y011736D01*
X023580Y011972D02*
X023186Y012366D01*
X023580Y011972D02*
X023974Y011972D01*
X024761Y011972D01*
X021296Y012366D02*
X021273Y012342D01*
X021273Y011579D01*
X020273Y011579D02*
X020273Y010712D01*
X019867Y008012D02*
X019509Y008012D01*
X019485Y008035D01*
X016178Y011185D02*
X016080Y011086D01*
X015430Y011086D01*
X012714Y008307D02*
X012667Y008307D01*
X014269Y007366D02*
X014269Y005457D01*
X014603Y005122D01*
X014643Y005909D02*
X014466Y006086D01*
X014466Y007366D01*
X014653Y007337D02*
X015548Y007337D01*
X015548Y007434D02*
X014653Y007434D01*
X014663Y007366D02*
X014663Y006795D01*
X014840Y006618D01*
X014653Y007531D02*
X015548Y007531D01*
X015469Y007628D02*
X014653Y007628D01*
X014642Y007725D02*
X014978Y007725D01*
X011533Y010319D02*
X011355Y010496D01*
X011474Y010890D02*
X010942Y010890D01*
X011348Y011216D02*
X011412Y011216D01*
X011533Y010949D02*
X011474Y010890D01*
X011523Y011507D02*
X010824Y011507D01*
X010824Y011604D02*
X011523Y011604D01*
X011523Y011701D02*
X010824Y011701D01*
X010824Y011797D02*
X011523Y011797D01*
X011523Y011894D02*
X010824Y011894D01*
X020174Y024177D02*
X020174Y024669D01*
X019879Y024964D01*
X020174Y027327D02*
X020174Y027819D01*
X019879Y028114D01*
X018068Y028193D02*
X017596Y028193D01*
X017596Y028823D02*
X016966Y028823D01*
X011926Y024728D02*
X011454Y024728D01*
X026572Y004886D02*
X027044Y004413D01*
X027694Y004413D01*
X027694Y004098D02*
X026729Y004098D01*
X026572Y004256D01*
X026729Y003783D02*
X026572Y003626D01*
X026729Y003783D02*
X027694Y003783D01*
D45*
X005177Y000420D02*
X005177Y037304D01*
X030250Y037304D01*
X030250Y013094D01*
X029736Y013094D01*
X029702Y013060D01*
X029702Y011948D01*
X029736Y011913D01*
X030250Y011913D01*
X030250Y006382D01*
X029389Y006382D01*
X029308Y006301D01*
X029308Y005988D01*
X028363Y005988D01*
X028363Y006301D01*
X028283Y006382D01*
X027693Y006382D01*
X027300Y006775D01*
X027300Y006862D01*
X027220Y006943D01*
X026712Y006943D01*
X026651Y006882D01*
X026590Y006943D01*
X026082Y006943D01*
X026001Y006862D01*
X026001Y006374D01*
X026082Y006293D01*
X026590Y006293D01*
X026651Y006354D01*
X026712Y006293D01*
X027114Y006293D01*
X027222Y006185D01*
X027222Y005203D01*
X027302Y005122D01*
X028283Y005122D01*
X028363Y005203D01*
X028363Y005516D01*
X028698Y005516D01*
X028698Y005210D01*
X028667Y005223D01*
X028493Y005223D01*
X028333Y005157D01*
X028210Y005034D01*
X028144Y004874D01*
X028144Y004846D01*
X028063Y004846D01*
X028029Y004812D01*
X028029Y004649D01*
X027243Y004649D01*
X027194Y004600D01*
X027122Y004600D01*
X026887Y004835D01*
X026887Y005140D01*
X026806Y005220D01*
X026338Y005220D01*
X026259Y005142D01*
X026255Y005142D01*
X026176Y005220D01*
X025708Y005220D01*
X025627Y005140D01*
X025627Y005073D01*
X022856Y005073D01*
X022892Y005108D01*
X022938Y005219D01*
X022938Y005340D01*
X022892Y005451D01*
X022822Y005521D01*
X022822Y007653D01*
X022871Y007703D01*
X022871Y008210D01*
X022871Y008210D01*
X022810Y008271D01*
X022871Y008333D01*
X022871Y008840D01*
X022810Y008901D01*
X022871Y008962D01*
X022871Y009470D01*
X022871Y008962D01*
X022932Y008901D01*
X022871Y008840D01*
X022871Y008333D01*
X022932Y008271D01*
X022871Y008210D01*
X022871Y007703D01*
X022952Y007622D01*
X023420Y007622D01*
X023501Y007703D01*
X023501Y007770D01*
X023579Y007770D01*
X023894Y008084D01*
X024003Y008194D01*
X024003Y008291D01*
X024092Y008291D01*
X024092Y008011D01*
X024126Y007976D01*
X025455Y007976D01*
X025489Y008011D01*
X025489Y008355D01*
X025455Y008390D01*
X024348Y008390D01*
X024348Y008729D01*
X024353Y008723D01*
X024464Y008677D01*
X024585Y008677D01*
X024696Y008723D01*
X024781Y008809D01*
X024827Y008920D01*
X024827Y009040D01*
X024815Y009071D01*
X024821Y009071D01*
X024932Y009117D01*
X025018Y009202D01*
X025064Y009314D01*
X025064Y009434D01*
X025018Y009545D01*
X024932Y009631D01*
X024821Y009677D01*
X024701Y009677D01*
X024589Y009631D01*
X024520Y009561D01*
X024348Y009561D01*
X024348Y009569D01*
X024267Y009649D01*
X023680Y009649D01*
X023600Y009569D01*
X023600Y009561D01*
X023421Y009561D01*
X023266Y009561D01*
X023256Y009551D01*
X022952Y009551D01*
X022871Y009470D01*
X022792Y009549D01*
X022792Y010240D01*
X022851Y010240D01*
X022851Y010232D01*
X022932Y010151D01*
X023440Y010151D01*
X023521Y010232D01*
X023521Y010486D01*
X023600Y010486D01*
X023600Y010478D01*
X023621Y010456D01*
X023600Y010435D01*
X023600Y010045D01*
X023680Y009964D01*
X024267Y009964D01*
X024348Y010045D01*
X024348Y010053D01*
X024520Y010053D01*
X024589Y009983D01*
X024701Y009937D01*
X024821Y009937D01*
X024932Y009983D01*
X025018Y010068D01*
X025064Y010180D01*
X025064Y010300D01*
X025018Y010411D01*
X024932Y010497D01*
X024821Y010543D01*
X024782Y010543D01*
X024827Y010652D01*
X024827Y010773D01*
X024815Y010803D01*
X024821Y010803D01*
X024932Y010849D01*
X025018Y010935D01*
X025064Y011046D01*
X025064Y011166D01*
X025018Y011278D01*
X024932Y011363D01*
X024821Y011409D01*
X024782Y011409D01*
X024827Y011518D01*
X024827Y011639D01*
X024815Y011669D01*
X024821Y011669D01*
X024932Y011716D01*
X025018Y011801D01*
X025064Y011912D01*
X025064Y012033D01*
X025018Y012144D01*
X024932Y012229D01*
X024821Y012275D01*
X024701Y012275D01*
X024589Y012229D01*
X024520Y012159D01*
X024348Y012159D01*
X024348Y012167D01*
X024267Y012248D01*
X023680Y012248D01*
X023624Y012192D01*
X023501Y012315D01*
X023501Y012620D01*
X023420Y012701D01*
X022952Y012701D01*
X022871Y012620D01*
X022790Y012701D01*
X022322Y012701D01*
X022241Y012620D01*
X022241Y012602D01*
X021394Y012602D01*
X018086Y012602D01*
X018088Y012604D01*
X018088Y013073D01*
X018007Y013153D01*
X017499Y013153D01*
X017438Y013092D01*
X017377Y013153D01*
X016869Y013153D01*
X016789Y013073D01*
X016789Y012604D01*
X016791Y012602D01*
X016749Y012602D01*
X016553Y012602D01*
X016395Y012445D01*
X015735Y012445D01*
X015735Y012840D01*
X015735Y012995D01*
X015675Y013055D01*
X016107Y013055D01*
X016156Y013104D01*
X016197Y013087D01*
X016317Y013087D01*
X016429Y013133D01*
X016514Y013218D01*
X016560Y013329D01*
X016560Y013450D01*
X016514Y013561D01*
X016429Y013646D01*
X016317Y013692D01*
X016197Y013692D01*
X016156Y013675D01*
X016149Y013682D01*
X016166Y013723D01*
X016166Y013844D01*
X016120Y013955D01*
X016035Y014040D01*
X015924Y014086D01*
X015803Y014086D01*
X015692Y014040D01*
X015607Y013955D01*
X015561Y013844D01*
X015561Y013723D01*
X015577Y013682D01*
X015548Y013653D01*
X015477Y013724D01*
X015163Y013724D01*
X015153Y013734D01*
X014998Y013734D01*
X014938Y013734D01*
X014938Y013781D01*
X014857Y013862D01*
X014553Y013862D01*
X014760Y014069D01*
X015547Y014069D01*
X015657Y014178D01*
X015793Y014315D01*
X016098Y014315D01*
X016178Y014396D01*
X016259Y014315D01*
X016727Y014315D01*
X016808Y014396D01*
X016808Y014903D01*
X016727Y014984D01*
X016550Y014984D01*
X016550Y015005D01*
X016589Y015021D01*
X016701Y015133D01*
X016710Y015155D01*
X016710Y015114D01*
X016790Y015033D01*
X017298Y015033D01*
X017379Y015114D01*
X017379Y015602D01*
X017298Y015683D01*
X016790Y015683D01*
X016710Y015602D01*
X016710Y015561D01*
X016701Y015583D01*
X016589Y015695D01*
X016442Y015756D01*
X016284Y015756D01*
X016138Y015695D01*
X016026Y015583D01*
X015966Y015437D01*
X015966Y015279D01*
X016026Y015133D01*
X016138Y015021D01*
X016176Y015005D01*
X016176Y014905D01*
X016098Y014984D01*
X015629Y014984D01*
X015550Y014905D01*
X015550Y015005D01*
X015589Y015021D01*
X015701Y015133D01*
X015761Y015279D01*
X015761Y015437D01*
X015701Y015583D01*
X015589Y015695D01*
X015442Y015756D01*
X015284Y015756D01*
X015138Y015695D01*
X015026Y015583D01*
X015017Y015561D01*
X015017Y015602D01*
X014936Y015683D01*
X014428Y015683D01*
X014348Y015602D01*
X014348Y015114D01*
X014428Y015033D01*
X014936Y015033D01*
X015017Y015114D01*
X015017Y015155D01*
X015026Y015133D01*
X015138Y015021D01*
X015176Y015005D01*
X015176Y014984D01*
X014999Y014984D01*
X014918Y014903D01*
X014838Y014984D01*
X014369Y014984D01*
X014289Y014903D01*
X014289Y014520D01*
X014062Y014294D01*
X014062Y016009D01*
X014062Y016164D01*
X012664Y017562D01*
X012555Y017671D01*
X012497Y017671D01*
X012497Y017807D01*
X012416Y017888D01*
X011909Y017888D01*
X011828Y017807D01*
X011828Y017750D01*
X011139Y017750D01*
X011139Y019647D01*
X011058Y019728D01*
X010964Y019728D01*
X010964Y019740D01*
X011031Y019740D01*
X011111Y019821D01*
X011111Y020082D01*
X011188Y020005D01*
X011188Y019373D01*
X011188Y019218D01*
X012006Y018399D01*
X012161Y018399D01*
X012400Y018399D01*
X012448Y018351D01*
X012448Y017958D01*
X012557Y017848D01*
X013787Y016619D01*
X013896Y016510D01*
X014126Y016510D01*
X014196Y016440D01*
X014307Y016394D01*
X014427Y016394D01*
X014539Y016440D01*
X014624Y016525D01*
X014670Y016636D01*
X014670Y016757D01*
X014624Y016868D01*
X014539Y016953D01*
X014427Y016999D01*
X014307Y016999D01*
X014196Y016953D01*
X014126Y016884D01*
X014051Y016884D01*
X012822Y018113D01*
X012822Y018351D01*
X012822Y018506D01*
X012664Y018664D01*
X012604Y018724D01*
X013027Y018724D01*
X013107Y018805D01*
X013107Y019313D01*
X013027Y019394D01*
X012558Y019394D01*
X012477Y019313D01*
X012477Y019246D01*
X012404Y019246D01*
X012334Y019316D01*
X012223Y019362D01*
X012124Y019362D01*
X011877Y019609D01*
X011877Y021146D01*
X011945Y021118D01*
X012065Y021118D01*
X012177Y021164D01*
X012262Y021250D01*
X012308Y021361D01*
X012308Y021459D01*
X013846Y022997D01*
X013846Y023152D01*
X013846Y027092D01*
X013983Y027230D01*
X013983Y027206D01*
X013964Y027187D01*
X013964Y026679D01*
X014025Y026618D01*
X013964Y026557D01*
X013964Y026049D01*
X014025Y025988D01*
X013964Y025927D01*
X013964Y025419D01*
X014044Y025338D01*
X014533Y025338D01*
X014603Y025409D01*
X014656Y025357D01*
X014616Y025261D01*
X014616Y025140D01*
X014662Y025029D01*
X014747Y024944D01*
X014858Y024898D01*
X014979Y024898D01*
X015090Y024944D01*
X015175Y025029D01*
X015221Y025140D01*
X015221Y025261D01*
X015181Y025357D01*
X015243Y025419D01*
X015243Y025927D01*
X015162Y026008D01*
X014674Y026008D01*
X014603Y025937D01*
X014552Y025988D01*
X014613Y026049D01*
X014613Y026557D01*
X014552Y026618D01*
X014613Y026679D01*
X014613Y027187D01*
X014533Y027268D01*
X014357Y027268D01*
X014357Y027544D01*
X014447Y027455D01*
X015156Y027455D01*
X017487Y025123D01*
X017487Y023782D01*
X017487Y023627D01*
X020027Y021088D01*
X020027Y020299D01*
X019340Y020299D01*
X019259Y020218D01*
X019259Y019474D01*
X019340Y019394D01*
X021088Y019394D01*
X021168Y019474D01*
X021168Y020218D01*
X021088Y020299D01*
X020401Y020299D01*
X020401Y021029D01*
X021267Y020163D01*
X021267Y017798D01*
X020027Y016558D01*
X020027Y016403D01*
X020027Y016362D01*
X019340Y016362D01*
X019259Y016281D01*
X019259Y015537D01*
X019340Y015457D01*
X021088Y015457D01*
X021168Y015537D01*
X021168Y016281D01*
X021088Y016362D01*
X020401Y016362D01*
X020401Y016403D01*
X021641Y017643D01*
X021641Y017798D01*
X021641Y020317D01*
X021531Y020427D01*
X018098Y023861D01*
X018098Y025436D01*
X017988Y025545D01*
X015578Y027955D01*
X015578Y027955D01*
X015486Y028047D01*
X015530Y028047D01*
X015641Y028094D01*
X015726Y028179D01*
X015772Y028290D01*
X015772Y028362D01*
X015845Y028362D01*
X015956Y028409D01*
X016041Y028494D01*
X016054Y028525D01*
X016082Y028498D01*
X016590Y028498D01*
X016651Y028559D01*
X016712Y028498D01*
X017220Y028498D01*
X017281Y028559D01*
X017332Y028508D01*
X017261Y028437D01*
X017261Y027949D01*
X017342Y027868D01*
X017849Y027868D01*
X017911Y027930D01*
X018008Y027890D01*
X018128Y027890D01*
X018240Y027936D01*
X018325Y028021D01*
X018371Y028132D01*
X018371Y028253D01*
X018325Y028364D01*
X018240Y028449D01*
X018128Y028496D01*
X018008Y028496D01*
X017911Y028456D01*
X017859Y028508D01*
X017930Y028579D01*
X017930Y029067D01*
X017849Y029147D01*
X017342Y029147D01*
X017281Y029086D01*
X017229Y029138D01*
X017300Y029209D01*
X017300Y029697D01*
X017220Y029777D01*
X016712Y029777D01*
X016651Y029716D01*
X016590Y029777D01*
X016082Y029777D01*
X016001Y029697D01*
X016001Y029482D01*
X015883Y029482D01*
X015883Y029844D01*
X015802Y029925D01*
X015883Y030006D01*
X015883Y030474D01*
X015807Y030550D01*
X015873Y030616D01*
X015873Y031124D01*
X015807Y031190D01*
X015863Y031246D01*
X015863Y031754D01*
X015783Y031834D01*
X015314Y031834D01*
X015233Y031754D01*
X015233Y031350D01*
X015172Y031411D01*
X014622Y031411D01*
X015468Y032258D01*
X020125Y032258D01*
X020125Y032073D01*
X020206Y031992D01*
X021324Y031992D01*
X021405Y032073D01*
X021405Y032817D01*
X021324Y032897D01*
X020206Y032897D01*
X020125Y032817D01*
X020125Y032632D01*
X015527Y032632D01*
X017516Y034620D01*
X020125Y034620D01*
X020125Y034435D01*
X020206Y034354D01*
X021324Y034354D01*
X021405Y034435D01*
X021405Y035179D01*
X021324Y035260D01*
X020206Y035260D01*
X020125Y035179D01*
X020125Y034994D01*
X017361Y034994D01*
X017251Y034884D01*
X013983Y031617D01*
X013983Y031462D01*
X013983Y029978D01*
X013981Y029976D01*
X013981Y029650D01*
X014092Y029539D01*
X014249Y029539D01*
X014269Y029559D01*
X014289Y029539D01*
X014446Y029539D01*
X014466Y029559D01*
X014486Y029539D01*
X014611Y029539D01*
X014611Y029414D01*
X014631Y029394D01*
X014611Y029373D01*
X014611Y029217D01*
X014722Y029106D01*
X015016Y029106D01*
X015000Y029090D01*
X014722Y029090D01*
X014611Y028980D01*
X014611Y028823D01*
X014631Y028803D01*
X014611Y028783D01*
X014611Y028626D01*
X014631Y028606D01*
X014611Y028586D01*
X014611Y028429D01*
X014722Y028319D01*
X015048Y028319D01*
X015050Y028321D01*
X015167Y028321D01*
X015167Y028290D01*
X015213Y028179D01*
X015298Y028094D01*
X015368Y028065D01*
X014753Y028065D01*
X014753Y028153D01*
X014642Y028264D01*
X014486Y028264D01*
X014466Y028243D01*
X014446Y028264D01*
X014289Y028264D01*
X014269Y028243D01*
X014249Y028264D01*
X014092Y028264D01*
X014072Y028243D01*
X014052Y028264D01*
X013895Y028264D01*
X013875Y028243D01*
X013855Y028264D01*
X013698Y028264D01*
X013678Y028243D01*
X013658Y028264D01*
X013502Y028264D01*
X013481Y028243D01*
X013461Y028264D01*
X013336Y028264D01*
X013336Y028389D01*
X013316Y028409D01*
X013336Y028429D01*
X013336Y028586D01*
X013316Y028606D01*
X013336Y028626D01*
X013336Y028783D01*
X013225Y028894D01*
X012899Y028894D01*
X012897Y028892D01*
X011885Y028892D01*
X011875Y028901D01*
X011885Y028911D01*
X012897Y028911D01*
X012899Y028909D01*
X013225Y028909D01*
X013336Y029020D01*
X013336Y029177D01*
X013316Y029197D01*
X013336Y029217D01*
X013336Y029373D01*
X013316Y029394D01*
X013336Y029414D01*
X013336Y029539D01*
X013461Y029539D01*
X013481Y029559D01*
X013502Y029539D01*
X013658Y029539D01*
X013769Y029650D01*
X013769Y029976D01*
X013767Y029978D01*
X013767Y030081D01*
X013646Y030202D01*
X013646Y030300D01*
X013600Y030411D01*
X013515Y030497D01*
X013404Y030543D01*
X013283Y030543D01*
X013172Y030497D01*
X013087Y030411D01*
X013041Y030300D01*
X013041Y030180D01*
X013054Y030149D01*
X012968Y030149D01*
X012857Y030103D01*
X012772Y030018D01*
X012726Y029907D01*
X012726Y029786D01*
X012728Y029782D01*
X012664Y029845D01*
X012664Y030635D01*
X012664Y030790D01*
X012241Y031213D01*
X012241Y031518D01*
X012180Y031579D01*
X012241Y031640D01*
X012241Y032147D01*
X012185Y032204D01*
X012251Y032270D01*
X012251Y032777D01*
X012170Y032858D01*
X012113Y032858D01*
X012113Y033547D01*
X014011Y033547D01*
X014092Y033628D01*
X014092Y034569D01*
X014011Y034649D01*
X011515Y034649D01*
X011434Y034569D01*
X011434Y033628D01*
X011515Y033547D01*
X011739Y033547D01*
X011739Y032858D01*
X011682Y032858D01*
X011606Y032782D01*
X011531Y032858D01*
X011062Y032858D01*
X010981Y032777D01*
X010901Y032858D01*
X010432Y032858D01*
X010356Y032782D01*
X010281Y032858D01*
X010224Y032858D01*
X010224Y033547D01*
X010448Y033547D01*
X010529Y033628D01*
X010529Y034569D01*
X010448Y034649D01*
X007952Y034649D01*
X007871Y034569D01*
X007871Y033628D01*
X007952Y033547D01*
X009850Y033547D01*
X009850Y032858D01*
X009792Y032858D01*
X009712Y032777D01*
X009712Y032270D01*
X009792Y032189D01*
X009850Y032189D01*
X009850Y031105D01*
X009850Y030950D01*
X010007Y030792D01*
X010117Y030683D01*
X011691Y030683D01*
X012054Y030320D01*
X012054Y029611D01*
X012164Y029502D01*
X012380Y029285D01*
X011946Y029285D01*
X011946Y029460D01*
X011865Y029541D01*
X011357Y029541D01*
X011296Y029480D01*
X011235Y029541D01*
X010727Y029541D01*
X010666Y029480D01*
X010615Y029531D01*
X010686Y029602D01*
X010686Y030090D01*
X010605Y030171D01*
X010098Y030171D01*
X010036Y030109D01*
X009939Y030149D01*
X009819Y030149D01*
X009708Y030103D01*
X009622Y030018D01*
X009576Y029907D01*
X009576Y029786D01*
X009622Y029675D01*
X009708Y029590D01*
X009819Y029544D01*
X009939Y029544D01*
X010036Y029583D01*
X010088Y029531D01*
X010017Y029460D01*
X010017Y028972D01*
X010088Y028901D01*
X010017Y028831D01*
X010017Y028342D01*
X010088Y028271D01*
X010036Y028219D01*
X009939Y028259D01*
X009819Y028259D01*
X009708Y028213D01*
X009622Y028128D01*
X009576Y028017D01*
X009576Y027896D01*
X009622Y027785D01*
X009708Y027700D01*
X009819Y027654D01*
X009939Y027654D01*
X010036Y027694D01*
X010098Y027632D01*
X010605Y027632D01*
X010686Y027712D01*
X010686Y028201D01*
X010615Y028271D01*
X010666Y028323D01*
X010727Y028262D01*
X011235Y028262D01*
X011296Y028323D01*
X011357Y028262D01*
X011865Y028262D01*
X011946Y028342D01*
X011946Y028518D01*
X012538Y028518D01*
X012400Y028380D01*
X012290Y028270D01*
X012290Y027483D01*
X010590Y025782D01*
X010590Y025627D01*
X010590Y021000D01*
X010523Y021000D01*
X010460Y020937D01*
X010460Y020947D01*
X010350Y021057D01*
X010273Y021134D01*
X010273Y026637D01*
X010134Y026775D01*
X009731Y027179D01*
X009535Y027179D01*
X007970Y027179D01*
X007970Y027630D01*
X007889Y027710D01*
X006515Y027710D01*
X006434Y027630D01*
X006434Y026256D01*
X006515Y026175D01*
X007889Y026175D01*
X007970Y026256D01*
X007970Y026707D01*
X009535Y026707D01*
X009800Y026441D01*
X009800Y021125D01*
X009535Y020860D01*
X007970Y020860D01*
X007970Y021311D01*
X007889Y021392D01*
X006515Y021392D01*
X006434Y021311D01*
X006434Y019937D01*
X006515Y019856D01*
X007889Y019856D01*
X007970Y019937D01*
X007970Y020388D01*
X009535Y020388D01*
X009731Y020388D01*
X010086Y020743D01*
X010086Y020711D01*
X010086Y020556D01*
X010342Y020300D01*
X010442Y020200D01*
X010442Y019821D01*
X010523Y019740D01*
X010590Y019740D01*
X010590Y019728D01*
X010117Y019728D01*
X010037Y019647D01*
X010037Y017151D01*
X010117Y017071D01*
X011058Y017071D01*
X011139Y017151D01*
X011139Y017376D01*
X011828Y017376D01*
X011828Y017319D01*
X011904Y017243D01*
X011828Y017167D01*
X011828Y016699D01*
X011909Y016618D01*
X011828Y016537D01*
X011828Y016069D01*
X011904Y015993D01*
X011828Y015917D01*
X011828Y015860D01*
X011139Y015860D01*
X011139Y016084D01*
X011058Y016165D01*
X010117Y016165D01*
X010037Y016084D01*
X010037Y013588D01*
X010117Y013508D01*
X011058Y013508D01*
X011139Y013588D01*
X011139Y015486D01*
X011828Y015486D01*
X011828Y015429D01*
X011909Y015348D01*
X012416Y015348D01*
X012497Y015429D01*
X012497Y015917D01*
X012421Y015993D01*
X012497Y016069D01*
X012497Y016537D01*
X012416Y016618D01*
X011909Y016618D01*
X012416Y016618D01*
X012433Y016634D01*
X013491Y015576D01*
X013491Y012287D01*
X013401Y012287D01*
X013204Y012287D01*
X013007Y012287D01*
X012810Y012287D01*
X012578Y012287D01*
X012497Y012206D01*
X012487Y012216D01*
X012487Y012938D01*
X012487Y013093D01*
X012487Y013407D01*
X012426Y013468D01*
X012487Y013529D01*
X012487Y014037D01*
X012426Y014098D01*
X012477Y014149D01*
X012548Y014079D01*
X013036Y014079D01*
X013085Y014127D01*
X013126Y014110D01*
X013246Y014110D01*
X013358Y014157D01*
X013443Y014242D01*
X013489Y014353D01*
X013489Y014473D01*
X013443Y014585D01*
X013358Y014670D01*
X013246Y014716D01*
X013126Y014716D01*
X013085Y014699D01*
X013078Y014706D01*
X013095Y014747D01*
X013095Y014867D01*
X013049Y014978D01*
X012964Y015064D01*
X012853Y015110D01*
X012732Y015110D01*
X012621Y015064D01*
X012536Y014978D01*
X012490Y014867D01*
X012490Y014747D01*
X012507Y014706D01*
X012477Y014677D01*
X012407Y014748D01*
X011918Y014748D01*
X011838Y014667D01*
X011838Y014159D01*
X011899Y014098D01*
X011838Y014037D01*
X011838Y013529D01*
X011899Y013468D01*
X011838Y013407D01*
X011838Y012899D01*
X011918Y012819D01*
X012113Y012819D01*
X012113Y012287D01*
X012023Y012287D01*
X011826Y012287D01*
X011594Y012287D01*
X011513Y012206D01*
X011513Y012159D01*
X010746Y012159D01*
X010637Y012050D01*
X010637Y011895D01*
X010637Y011283D01*
X010590Y011283D01*
X010509Y011203D01*
X010509Y011134D01*
X010448Y011195D01*
X009940Y011195D01*
X009936Y011191D01*
X007726Y011191D01*
X007690Y011277D01*
X007554Y011413D01*
X007377Y011487D01*
X007185Y011487D01*
X007007Y011413D01*
X006871Y011277D01*
X006798Y011100D01*
X006798Y010908D01*
X006871Y010730D01*
X007007Y010594D01*
X007185Y010521D01*
X007377Y010521D01*
X007554Y010594D01*
X007690Y010730D01*
X007726Y010817D01*
X009859Y010817D01*
X009859Y010626D01*
X009940Y010545D01*
X010254Y010545D01*
X010294Y010506D01*
X010449Y010506D01*
X010509Y010506D01*
X010509Y010415D01*
X010509Y010218D01*
X010509Y010021D01*
X010509Y009825D01*
X010509Y009628D01*
X010509Y009431D01*
X010509Y009234D01*
X010509Y009108D01*
X008677Y009108D01*
X008481Y009304D01*
X008481Y009608D01*
X008401Y009689D01*
X008481Y009770D01*
X008481Y010238D01*
X008401Y010319D01*
X007893Y010319D01*
X007812Y010238D01*
X007812Y010191D01*
X007726Y010191D01*
X007690Y010277D01*
X007554Y010413D01*
X007377Y010487D01*
X007185Y010487D01*
X007007Y010413D01*
X006871Y010277D01*
X006798Y010100D01*
X006798Y009908D01*
X006871Y009730D01*
X007007Y009594D01*
X007185Y009521D01*
X007377Y009521D01*
X007554Y009594D01*
X007690Y009730D01*
X007726Y009817D01*
X007812Y009817D01*
X007812Y009770D01*
X007893Y009689D01*
X008401Y009689D01*
X007893Y009689D01*
X007812Y009608D01*
X007812Y009140D01*
X007893Y009059D01*
X008197Y009059D01*
X008522Y008734D01*
X008677Y008734D01*
X010509Y008734D01*
X010509Y008644D01*
X010509Y008518D01*
X009740Y008518D01*
X009585Y008518D01*
X009565Y008498D01*
X009153Y008498D01*
X009072Y008417D01*
X009072Y007890D01*
X009153Y007809D01*
X009818Y007809D01*
X009859Y007850D01*
X009859Y007712D01*
X009940Y007632D01*
X010448Y007632D01*
X010529Y007712D01*
X010529Y007947D01*
X010580Y007947D01*
X010590Y007937D01*
X010637Y007937D01*
X010637Y007393D01*
X010606Y007393D01*
X010495Y007347D01*
X010410Y007262D01*
X010364Y007151D01*
X010364Y007030D01*
X010406Y006927D01*
X005177Y006927D01*
X005177Y006811D02*
X010351Y006811D01*
X010351Y006872D02*
X010351Y006364D01*
X010432Y006283D01*
X010901Y006283D01*
X010981Y006364D01*
X010981Y006872D01*
X010926Y006927D01*
X010969Y007030D01*
X010969Y007061D01*
X011513Y007061D01*
X011513Y007014D01*
X011523Y007004D01*
X011523Y006953D01*
X011062Y006953D01*
X010981Y006872D01*
X010981Y006364D01*
X011062Y006283D01*
X011531Y006283D01*
X011582Y006335D01*
X011605Y006325D01*
X011534Y006254D01*
X009720Y006254D01*
X009552Y006422D01*
X009552Y006521D01*
X009506Y006632D01*
X009421Y006717D01*
X009309Y006763D01*
X009189Y006763D01*
X009078Y006717D01*
X008992Y006632D01*
X008946Y006521D01*
X008946Y006400D01*
X008992Y006289D01*
X009078Y006204D01*
X009189Y006158D01*
X009287Y006158D01*
X009428Y006018D01*
X008703Y006018D01*
X008633Y006087D01*
X008522Y006133D01*
X008401Y006133D01*
X008290Y006087D01*
X008205Y006002D01*
X008159Y005891D01*
X008159Y005770D01*
X008205Y005659D01*
X008290Y005574D01*
X008401Y005528D01*
X008522Y005528D01*
X008633Y005574D01*
X008703Y005644D01*
X011768Y005644D01*
X013294Y005644D01*
X013294Y005761D02*
X011885Y005761D01*
X011877Y005753D02*
X012726Y006602D01*
X012726Y006558D01*
X012772Y006446D01*
X012857Y006361D01*
X012968Y006315D01*
X013089Y006315D01*
X013200Y006361D01*
X013285Y006446D01*
X013294Y006468D01*
X013294Y004274D01*
X013294Y004119D01*
X014495Y002918D01*
X014605Y002809D01*
X025617Y002809D01*
X025617Y002742D01*
X025678Y002681D01*
X025617Y002620D01*
X025617Y002130D01*
X013146Y002130D01*
X012596Y002680D01*
X012596Y003279D01*
X012515Y003360D01*
X011535Y003360D01*
X011454Y003279D01*
X011454Y002555D01*
X011535Y002474D01*
X012134Y002474D01*
X012950Y001657D01*
X013146Y001657D01*
X026355Y001657D01*
X026493Y001796D01*
X026808Y002111D01*
X026808Y002306D01*
X026808Y002661D01*
X026816Y002661D01*
X026897Y002742D01*
X026897Y002838D01*
X026906Y002838D01*
X027044Y002977D01*
X027300Y003232D01*
X027792Y003232D01*
X028145Y003232D01*
X028170Y003258D01*
X028210Y003162D01*
X028333Y003039D01*
X028493Y002973D01*
X028667Y002973D01*
X028698Y002986D01*
X028698Y002681D01*
X028363Y002681D01*
X028363Y002994D01*
X028283Y003075D01*
X027302Y003075D01*
X027222Y002994D01*
X027222Y001896D01*
X027302Y001815D01*
X028283Y001815D01*
X028363Y001896D01*
X028363Y002209D01*
X029308Y002209D01*
X029308Y001896D01*
X029389Y001815D01*
X030250Y001815D01*
X030250Y000420D01*
X005177Y000420D01*
X005177Y000511D02*
X030250Y000511D01*
X030250Y000628D02*
X005177Y000628D01*
X005177Y000745D02*
X030250Y000745D01*
X030250Y000861D02*
X005177Y000861D01*
X005177Y000978D02*
X030250Y000978D01*
X030250Y001094D02*
X005177Y001094D01*
X005177Y001211D02*
X030250Y001211D01*
X030250Y001328D02*
X005177Y001328D01*
X005177Y001444D02*
X030250Y001444D01*
X030250Y001561D02*
X005177Y001561D01*
X005177Y001678D02*
X012930Y001678D01*
X012813Y001794D02*
X005177Y001794D01*
X005177Y001911D02*
X012697Y001911D01*
X012580Y002028D02*
X005177Y002028D01*
X005177Y002144D02*
X012463Y002144D01*
X012347Y002261D02*
X005177Y002261D01*
X005177Y002378D02*
X012230Y002378D01*
X012596Y002728D02*
X025632Y002728D01*
X025617Y002611D02*
X012665Y002611D01*
X012782Y002494D02*
X025617Y002494D01*
X025617Y002378D02*
X012898Y002378D01*
X013015Y002261D02*
X025617Y002261D01*
X025617Y002144D02*
X013132Y002144D01*
X012596Y002844D02*
X014569Y002844D01*
X014495Y002918D02*
X014495Y002918D01*
X014453Y002961D02*
X012596Y002961D01*
X012596Y003078D02*
X014336Y003078D01*
X014219Y003194D02*
X012596Y003194D01*
X012564Y003311D02*
X014103Y003311D01*
X013986Y003428D02*
X010804Y003428D01*
X010804Y003360D02*
X010804Y003862D01*
X010842Y003862D01*
X010861Y003882D01*
X010893Y003882D01*
X010893Y003844D01*
X010974Y003764D01*
X011462Y003764D01*
X011542Y003844D01*
X011542Y004352D01*
X011462Y004433D01*
X011375Y004433D01*
X011375Y004826D01*
X011237Y004964D01*
X011099Y005102D01*
X010903Y005102D01*
X010861Y005102D01*
X010842Y005122D01*
X010294Y005122D01*
X010214Y005041D01*
X010214Y004691D01*
X010294Y004610D01*
X010842Y004610D01*
X010861Y004630D01*
X010903Y004630D01*
X010903Y004362D01*
X010895Y004354D01*
X010861Y004354D01*
X010842Y004374D01*
X010294Y004374D01*
X010214Y004293D01*
X010214Y003943D01*
X010294Y003862D01*
X010332Y003862D01*
X010332Y003360D01*
X009920Y003360D01*
X009840Y003279D01*
X009840Y003153D01*
X009840Y003279D01*
X009759Y003360D01*
X009632Y003360D01*
X009603Y003390D01*
X009407Y003390D01*
X009378Y003360D01*
X008779Y003360D01*
X008698Y003279D01*
X008698Y002555D01*
X008779Y002474D01*
X009759Y002474D01*
X009840Y002555D01*
X009920Y002474D01*
X010901Y002474D01*
X010981Y002555D01*
X010981Y003279D01*
X010901Y003360D01*
X010804Y003360D01*
X010950Y003311D02*
X011485Y003311D01*
X011454Y003194D02*
X010981Y003194D01*
X010981Y003078D02*
X011454Y003078D01*
X011454Y002961D02*
X010981Y002961D01*
X010981Y002844D02*
X011454Y002844D01*
X011454Y002728D02*
X010981Y002728D01*
X010981Y002611D02*
X011454Y002611D01*
X011514Y002494D02*
X010921Y002494D01*
X009900Y002494D02*
X009779Y002494D01*
X009840Y002555D02*
X009840Y002681D01*
X009840Y002555D01*
X009840Y002611D02*
X009840Y002611D01*
X009840Y002681D02*
X009840Y002681D01*
X009840Y003153D02*
X009840Y003153D01*
X009840Y003194D02*
X009840Y003194D01*
X009808Y003311D02*
X009871Y003311D01*
X010332Y003428D02*
X007478Y003428D01*
X007546Y003360D02*
X007123Y003783D01*
X007123Y005212D01*
X007305Y005394D01*
X007305Y005740D01*
X007060Y005985D01*
X006714Y005985D01*
X006469Y005740D01*
X006469Y005394D01*
X006651Y005212D01*
X006651Y003783D01*
X006651Y003587D01*
X007084Y003154D01*
X007084Y002555D01*
X007164Y002474D01*
X008145Y002474D01*
X008225Y002555D01*
X008225Y003279D01*
X008145Y003360D01*
X007546Y003360D01*
X007362Y003544D02*
X010332Y003544D01*
X010332Y003661D02*
X007245Y003661D01*
X007128Y003778D02*
X008597Y003778D01*
X008601Y003773D02*
X009109Y003773D01*
X009190Y003854D01*
X009190Y003882D01*
X009212Y003882D01*
X009231Y003862D01*
X009779Y003862D01*
X009859Y003943D01*
X009859Y004293D01*
X009779Y004374D01*
X009231Y004374D01*
X009212Y004354D01*
X009178Y004354D01*
X009109Y004423D01*
X008601Y004423D01*
X008540Y004361D01*
X008443Y004401D01*
X008323Y004401D01*
X008211Y004355D01*
X008191Y004334D01*
X008181Y004334D01*
X008161Y004355D01*
X008050Y004401D01*
X007929Y004401D01*
X007818Y004355D01*
X007733Y004270D01*
X007686Y004159D01*
X007686Y004038D01*
X007733Y003927D01*
X007818Y003842D01*
X007929Y003795D01*
X008050Y003795D01*
X008161Y003842D01*
X008181Y003862D01*
X008191Y003862D01*
X008211Y003842D01*
X008323Y003795D01*
X008443Y003795D01*
X008540Y003835D01*
X008601Y003773D01*
X008226Y004361D02*
X008147Y004361D01*
X007832Y004361D02*
X007123Y004361D01*
X007123Y004477D02*
X010903Y004477D01*
X010901Y004361D02*
X010855Y004361D01*
X010903Y004594D02*
X007123Y004594D01*
X007123Y004711D02*
X009151Y004711D01*
X009151Y004691D02*
X009231Y004610D01*
X009779Y004610D01*
X009859Y004691D01*
X009859Y005041D01*
X009779Y005122D01*
X009231Y005122D01*
X009151Y005041D01*
X009151Y004691D01*
X009151Y004827D02*
X007123Y004827D01*
X007123Y004944D02*
X009151Y004944D01*
X009170Y005061D02*
X007123Y005061D01*
X007123Y005177D02*
X013294Y005177D01*
X013294Y005061D02*
X011140Y005061D01*
X011257Y004944D02*
X013294Y004944D01*
X013294Y004827D02*
X011374Y004827D01*
X011375Y004711D02*
X013294Y004711D01*
X013294Y004594D02*
X011375Y004594D01*
X011375Y004477D02*
X013294Y004477D01*
X013294Y004361D02*
X011534Y004361D01*
X011542Y004244D02*
X013294Y004244D01*
X013294Y004127D02*
X011542Y004127D01*
X011542Y004011D02*
X013403Y004011D01*
X013519Y003894D02*
X011542Y003894D01*
X011476Y003778D02*
X013636Y003778D01*
X013753Y003661D02*
X010804Y003661D01*
X010804Y003778D02*
X010960Y003778D01*
X010804Y003544D02*
X013869Y003544D01*
X013294Y005294D02*
X007205Y005294D01*
X007305Y005411D02*
X013294Y005411D01*
X013294Y005527D02*
X007305Y005527D01*
X007305Y005644D02*
X008220Y005644D01*
X008163Y005761D02*
X007284Y005761D01*
X007167Y005877D02*
X008159Y005877D01*
X008202Y005994D02*
X005177Y005994D01*
X005177Y006111D02*
X008347Y006111D01*
X008577Y006111D02*
X009335Y006111D01*
X009054Y006227D02*
X005177Y006227D01*
X005177Y006344D02*
X008970Y006344D01*
X008946Y006461D02*
X005177Y006461D01*
X005177Y006577D02*
X008970Y006577D01*
X009054Y006694D02*
X005177Y006694D01*
X005177Y007044D02*
X010364Y007044D01*
X010368Y007160D02*
X005177Y007160D01*
X005177Y007277D02*
X010425Y007277D01*
X010637Y007394D02*
X005177Y007394D01*
X005177Y007510D02*
X010637Y007510D01*
X010637Y007627D02*
X005177Y007627D01*
X005177Y007744D02*
X009859Y007744D01*
X010529Y007744D02*
X010637Y007744D01*
X010637Y007860D02*
X010529Y007860D01*
X010509Y008560D02*
X005177Y008560D01*
X005177Y008444D02*
X009099Y008444D01*
X009072Y008327D02*
X005177Y008327D01*
X005177Y008210D02*
X009072Y008210D01*
X009072Y008094D02*
X005177Y008094D01*
X005177Y007977D02*
X009072Y007977D01*
X009101Y007860D02*
X005177Y007860D01*
X005177Y008677D02*
X010509Y008677D01*
X010509Y009144D02*
X008641Y009144D01*
X008525Y009260D02*
X010509Y009260D01*
X010509Y009377D02*
X008481Y009377D01*
X008481Y009494D02*
X010509Y009494D01*
X010509Y009610D02*
X008479Y009610D01*
X008439Y009727D02*
X010509Y009727D01*
X010509Y009844D02*
X008481Y009844D01*
X008481Y009960D02*
X010509Y009960D01*
X010509Y010077D02*
X008481Y010077D01*
X008481Y010193D02*
X010509Y010193D01*
X010509Y010310D02*
X008409Y010310D01*
X007884Y010310D02*
X007657Y010310D01*
X007725Y010193D02*
X007812Y010193D01*
X007521Y010427D02*
X010509Y010427D01*
X010256Y010543D02*
X007431Y010543D01*
X007620Y010660D02*
X009859Y010660D01*
X009859Y010777D02*
X007709Y010777D01*
X007704Y011243D02*
X010550Y011243D01*
X010637Y011360D02*
X007607Y011360D01*
X007401Y011477D02*
X010637Y011477D01*
X010637Y011593D02*
X005177Y011593D01*
X005177Y011477D02*
X007161Y011477D01*
X006954Y011360D02*
X005177Y011360D01*
X005177Y011243D02*
X006857Y011243D01*
X006809Y011127D02*
X005177Y011127D01*
X005177Y011010D02*
X006798Y011010D01*
X006804Y010893D02*
X005177Y010893D01*
X005177Y010777D02*
X006852Y010777D01*
X006942Y010660D02*
X005177Y010660D01*
X005177Y010543D02*
X007130Y010543D01*
X007040Y010427D02*
X005177Y010427D01*
X005177Y010310D02*
X006904Y010310D01*
X006837Y010193D02*
X005177Y010193D01*
X005177Y010077D02*
X006798Y010077D01*
X006798Y009960D02*
X005177Y009960D01*
X005177Y009844D02*
X006824Y009844D01*
X006875Y009727D02*
X005177Y009727D01*
X005177Y009610D02*
X006991Y009610D01*
X007570Y009610D02*
X007814Y009610D01*
X007812Y009494D02*
X005177Y009494D01*
X005177Y009377D02*
X007812Y009377D01*
X007812Y009260D02*
X005177Y009260D01*
X005177Y009144D02*
X007812Y009144D01*
X008229Y009027D02*
X005177Y009027D01*
X005177Y008910D02*
X008346Y008910D01*
X008463Y008794D02*
X005177Y008794D01*
X007686Y009727D02*
X007855Y009727D01*
X005177Y011710D02*
X010637Y011710D01*
X010637Y011827D02*
X005177Y011827D01*
X005177Y011943D02*
X010637Y011943D01*
X010647Y012060D02*
X005177Y012060D01*
X005177Y012177D02*
X011513Y012177D01*
X012113Y012293D02*
X005177Y012293D01*
X005177Y012410D02*
X012113Y012410D01*
X012113Y012527D02*
X005177Y012527D01*
X005177Y012643D02*
X012113Y012643D01*
X012113Y012760D02*
X005177Y012760D01*
X005177Y012876D02*
X011861Y012876D01*
X011838Y012993D02*
X005177Y012993D01*
X005177Y013110D02*
X011838Y013110D01*
X011838Y013226D02*
X005177Y013226D01*
X005177Y013343D02*
X011838Y013343D01*
X011890Y013460D02*
X005177Y013460D01*
X005177Y013576D02*
X010049Y013576D01*
X010037Y013693D02*
X005177Y013693D01*
X005177Y013810D02*
X010037Y013810D01*
X010037Y013926D02*
X005177Y013926D01*
X005177Y014043D02*
X010037Y014043D01*
X010037Y014160D02*
X005177Y014160D01*
X005177Y014276D02*
X010037Y014276D01*
X010037Y014393D02*
X005177Y014393D01*
X005177Y014510D02*
X010037Y014510D01*
X010037Y014626D02*
X005177Y014626D01*
X005177Y014743D02*
X010037Y014743D01*
X010037Y014860D02*
X005177Y014860D01*
X005177Y014976D02*
X010037Y014976D01*
X010037Y015093D02*
X005177Y015093D01*
X005177Y015210D02*
X010037Y015210D01*
X010037Y015326D02*
X005177Y015326D01*
X005177Y015443D02*
X010037Y015443D01*
X010037Y015560D02*
X005177Y015560D01*
X005177Y015676D02*
X010037Y015676D01*
X010037Y015793D02*
X005177Y015793D01*
X005177Y015909D02*
X010037Y015909D01*
X010037Y016026D02*
X005177Y016026D01*
X005177Y016143D02*
X010095Y016143D01*
X010112Y017076D02*
X005177Y017076D01*
X005177Y016959D02*
X011828Y016959D01*
X011828Y016843D02*
X005177Y016843D01*
X005177Y016726D02*
X011828Y016726D01*
X011900Y016609D02*
X005177Y016609D01*
X005177Y016493D02*
X011828Y016493D01*
X011828Y016376D02*
X005177Y016376D01*
X005177Y016259D02*
X011828Y016259D01*
X011828Y016143D02*
X011081Y016143D01*
X011139Y016026D02*
X011870Y016026D01*
X011828Y015909D02*
X011139Y015909D01*
X011139Y015443D02*
X011828Y015443D01*
X011914Y014743D02*
X011139Y014743D01*
X011139Y014860D02*
X012490Y014860D01*
X012491Y014743D02*
X012411Y014743D01*
X012535Y014976D02*
X011139Y014976D01*
X011139Y015093D02*
X012692Y015093D01*
X012893Y015093D02*
X013491Y015093D01*
X013491Y015210D02*
X011139Y015210D01*
X011139Y015326D02*
X013491Y015326D01*
X013491Y015443D02*
X012497Y015443D01*
X012497Y015560D02*
X013491Y015560D01*
X013391Y015676D02*
X012497Y015676D01*
X012497Y015793D02*
X013274Y015793D01*
X013158Y015909D02*
X012497Y015909D01*
X012455Y016026D02*
X013041Y016026D01*
X012924Y016143D02*
X012497Y016143D01*
X012497Y016259D02*
X012808Y016259D01*
X012691Y016376D02*
X012497Y016376D01*
X012497Y016493D02*
X012574Y016493D01*
X012458Y016609D02*
X012425Y016609D01*
X012917Y017309D02*
X013096Y017309D01*
X013033Y017193D02*
X013213Y017193D01*
X013150Y017076D02*
X013330Y017076D01*
X013267Y016959D02*
X013446Y016959D01*
X013383Y016843D02*
X013563Y016843D01*
X013500Y016726D02*
X013680Y016726D01*
X013617Y016609D02*
X013796Y016609D01*
X013733Y016493D02*
X014143Y016493D01*
X013967Y016259D02*
X019259Y016259D01*
X019259Y016143D02*
X014062Y016143D01*
X014062Y016026D02*
X019259Y016026D01*
X019259Y015909D02*
X014062Y015909D01*
X014062Y015793D02*
X019259Y015793D01*
X019259Y015676D02*
X017305Y015676D01*
X017379Y015560D02*
X019259Y015560D01*
X020027Y016376D02*
X013850Y016376D01*
X013975Y016959D02*
X014210Y016959D01*
X014145Y017227D02*
X014034Y017181D01*
X013913Y017181D01*
X013802Y017227D01*
X013717Y017313D01*
X013671Y017424D01*
X013671Y017544D01*
X013717Y017656D01*
X013802Y017741D01*
X013913Y017787D01*
X014012Y017787D01*
X014495Y018270D01*
X014495Y018784D01*
X014427Y018756D01*
X014307Y018756D01*
X014196Y018802D01*
X014126Y018872D01*
X013737Y018872D01*
X013737Y018805D01*
X013657Y018724D01*
X013188Y018724D01*
X013107Y018805D01*
X013107Y019313D01*
X013188Y019394D01*
X013657Y019394D01*
X013737Y019313D01*
X013737Y019246D01*
X014126Y019246D01*
X014196Y019316D01*
X014307Y019362D01*
X014427Y019362D01*
X014495Y019334D01*
X014495Y019787D01*
X014153Y019787D01*
X014072Y019868D01*
X014072Y020494D01*
X014153Y020575D01*
X015212Y020575D01*
X015292Y020494D01*
X015292Y020368D01*
X017537Y020368D01*
X017537Y020494D01*
X017617Y020575D01*
X018676Y020575D01*
X018757Y020494D01*
X018757Y019868D01*
X018676Y019787D01*
X018334Y019787D01*
X018334Y019630D01*
X018391Y019630D01*
X018472Y019549D01*
X018472Y019041D01*
X018391Y018960D01*
X017903Y018960D01*
X017822Y019041D01*
X017822Y019549D01*
X017903Y019630D01*
X017960Y019630D01*
X017960Y019787D01*
X017617Y019787D01*
X017537Y019868D01*
X017537Y019994D01*
X015292Y019994D01*
X015292Y019868D01*
X015212Y019787D01*
X014869Y019787D01*
X014869Y018270D01*
X014869Y018115D01*
X014276Y017522D01*
X014276Y017424D01*
X014230Y017313D01*
X014145Y017227D01*
X014061Y017193D02*
X020662Y017193D01*
X020778Y017309D02*
X014227Y017309D01*
X014276Y017426D02*
X020895Y017426D01*
X021012Y017543D02*
X014297Y017543D01*
X014413Y017659D02*
X021128Y017659D01*
X021245Y017776D02*
X014530Y017776D01*
X014646Y017893D02*
X021267Y017893D01*
X021267Y018009D02*
X014763Y018009D01*
X014869Y018126D02*
X021267Y018126D01*
X021267Y018243D02*
X014869Y018243D01*
X014869Y018359D02*
X021267Y018359D01*
X021267Y018476D02*
X014869Y018476D01*
X014869Y018593D02*
X021267Y018593D01*
X021267Y018709D02*
X014869Y018709D01*
X014869Y018826D02*
X021267Y018826D01*
X021267Y018942D02*
X014869Y018942D01*
X014869Y019059D02*
X017822Y019059D01*
X017822Y019176D02*
X014869Y019176D01*
X014869Y019292D02*
X017822Y019292D01*
X017822Y019409D02*
X014869Y019409D01*
X014869Y019526D02*
X017822Y019526D01*
X017960Y019642D02*
X014869Y019642D01*
X014869Y019759D02*
X017960Y019759D01*
X018334Y019759D02*
X019259Y019759D01*
X019259Y019642D02*
X018334Y019642D01*
X018472Y019526D02*
X019259Y019526D01*
X019324Y019409D02*
X018472Y019409D01*
X018472Y019292D02*
X021267Y019292D01*
X021267Y019176D02*
X018472Y019176D01*
X018472Y019059D02*
X021267Y019059D01*
X021267Y019409D02*
X021103Y019409D01*
X021168Y019526D02*
X021267Y019526D01*
X021267Y019642D02*
X021168Y019642D01*
X021168Y019759D02*
X021267Y019759D01*
X021267Y019876D02*
X021168Y019876D01*
X021168Y019992D02*
X021267Y019992D01*
X021267Y020109D02*
X021168Y020109D01*
X021161Y020226D02*
X021204Y020226D01*
X021087Y020342D02*
X020401Y020342D01*
X020401Y020459D02*
X020970Y020459D01*
X020854Y020576D02*
X020401Y020576D01*
X020401Y020692D02*
X020737Y020692D01*
X020620Y020809D02*
X020401Y020809D01*
X020401Y020926D02*
X020504Y020926D01*
X020799Y021159D02*
X030250Y021159D01*
X030250Y021276D02*
X020683Y021276D01*
X020566Y021392D02*
X030250Y021392D01*
X030250Y021509D02*
X020449Y021509D01*
X020333Y021626D02*
X030250Y021626D01*
X030250Y021742D02*
X020216Y021742D01*
X020099Y021859D02*
X030250Y021859D01*
X030250Y021975D02*
X019983Y021975D01*
X019866Y022092D02*
X030250Y022092D01*
X030250Y022209D02*
X019749Y022209D01*
X019633Y022325D02*
X030250Y022325D01*
X030250Y022442D02*
X019516Y022442D01*
X019400Y022559D02*
X030250Y022559D01*
X030250Y022675D02*
X019283Y022675D01*
X019166Y022792D02*
X030250Y022792D01*
X030250Y022909D02*
X019050Y022909D01*
X018933Y023025D02*
X030250Y023025D01*
X030250Y023142D02*
X018816Y023142D01*
X018700Y023259D02*
X030250Y023259D01*
X030250Y023375D02*
X018583Y023375D01*
X018466Y023492D02*
X030250Y023492D01*
X030250Y023609D02*
X029269Y023609D01*
X029267Y023606D02*
X029348Y023687D01*
X029348Y024903D01*
X029267Y024984D01*
X028287Y024984D01*
X028206Y024903D01*
X028206Y024374D01*
X024446Y024374D01*
X024446Y024431D01*
X024365Y024512D01*
X023897Y024512D01*
X023816Y024431D01*
X023735Y024512D01*
X023698Y024512D01*
X023698Y024630D01*
X023735Y024630D01*
X023816Y024710D01*
X023816Y025218D01*
X023735Y025299D01*
X023267Y025299D01*
X023186Y025218D01*
X023186Y024710D01*
X023267Y024630D01*
X023304Y024630D01*
X023304Y024512D01*
X023267Y024512D01*
X023186Y024431D01*
X023186Y024374D01*
X022674Y024374D01*
X022674Y024549D01*
X022594Y024630D01*
X021298Y024630D01*
X021218Y024549D01*
X021218Y023805D01*
X021298Y023724D01*
X022594Y023724D01*
X022674Y023805D01*
X022674Y023980D01*
X023186Y023980D01*
X023186Y023923D01*
X023267Y023842D01*
X023735Y023842D01*
X023816Y023923D01*
X023816Y024431D01*
X023816Y023923D01*
X023897Y023842D01*
X024365Y023842D01*
X024446Y023923D01*
X024446Y023980D01*
X028206Y023980D01*
X028206Y023687D01*
X028287Y023606D01*
X029267Y023606D01*
X029348Y023725D02*
X030250Y023725D01*
X030250Y023842D02*
X029348Y023842D01*
X029348Y023959D02*
X030250Y023959D01*
X030250Y024075D02*
X029348Y024075D01*
X029348Y024192D02*
X030250Y024192D01*
X030250Y024309D02*
X029348Y024309D01*
X029348Y024425D02*
X030250Y024425D01*
X030250Y024542D02*
X029348Y024542D01*
X029348Y024659D02*
X030250Y024659D01*
X030250Y024775D02*
X029348Y024775D01*
X029348Y024892D02*
X030250Y024892D01*
X030250Y025008D02*
X023816Y025008D01*
X023816Y024892D02*
X028206Y024892D01*
X028206Y024775D02*
X023816Y024775D01*
X023764Y024659D02*
X028206Y024659D01*
X028206Y024542D02*
X023698Y024542D01*
X023816Y024425D02*
X023816Y024425D01*
X023816Y024309D02*
X023816Y024309D01*
X023816Y024192D02*
X023816Y024192D01*
X023816Y024075D02*
X023816Y024075D01*
X023816Y023959D02*
X023816Y023959D01*
X023501Y024177D02*
X023501Y024964D01*
X023186Y025008D02*
X020182Y025008D01*
X020182Y025025D02*
X020136Y025136D01*
X020051Y025221D01*
X019939Y025267D01*
X019819Y025267D01*
X019708Y025221D01*
X019622Y025136D01*
X019576Y025025D01*
X019576Y024904D01*
X019622Y024793D01*
X019708Y024708D01*
X019819Y024662D01*
X019917Y024662D01*
X019949Y024630D01*
X019527Y024630D01*
X019446Y024549D01*
X019446Y023805D01*
X019527Y023724D01*
X020822Y023724D01*
X020903Y023805D01*
X020903Y024549D01*
X020822Y024630D01*
X020361Y024630D01*
X020361Y024747D01*
X020182Y024926D01*
X020182Y025025D01*
X020140Y025125D02*
X023186Y025125D01*
X023210Y025242D02*
X020001Y025242D01*
X019758Y025242D02*
X018098Y025242D01*
X018098Y025358D02*
X025929Y025358D01*
X025872Y025415D02*
X026039Y025249D01*
X026257Y025158D01*
X026493Y025158D01*
X026711Y025249D01*
X026878Y025415D01*
X026969Y025634D01*
X026969Y025870D01*
X026878Y026088D01*
X026711Y026255D01*
X026493Y026345D01*
X026257Y026345D01*
X026039Y026255D01*
X025872Y026088D01*
X025781Y025870D01*
X025781Y025634D01*
X025872Y025415D01*
X025847Y025475D02*
X018058Y025475D01*
X017941Y025592D02*
X025799Y025592D01*
X025781Y025708D02*
X017825Y025708D01*
X017708Y025825D02*
X025781Y025825D01*
X025811Y025942D02*
X017591Y025942D01*
X017475Y026058D02*
X025859Y026058D01*
X025959Y026175D02*
X017358Y026175D01*
X017241Y026292D02*
X023186Y026292D01*
X023186Y026285D02*
X023267Y026205D01*
X023735Y026205D01*
X023816Y026285D01*
X023816Y026793D01*
X023735Y026874D01*
X023698Y026874D01*
X023698Y026992D01*
X023735Y026992D01*
X023816Y027073D01*
X023897Y026992D01*
X024365Y026992D01*
X024446Y027073D01*
X024446Y027130D01*
X025174Y027130D01*
X025174Y026600D01*
X025255Y026520D01*
X026472Y026520D01*
X026552Y026600D01*
X026552Y027817D01*
X026472Y027897D01*
X025255Y027897D01*
X025174Y027817D01*
X025174Y027523D01*
X024446Y027523D01*
X024446Y027581D01*
X024365Y027661D01*
X023897Y027661D01*
X023816Y027581D01*
X023816Y027073D01*
X023816Y027581D01*
X023735Y027661D01*
X023267Y027661D01*
X023186Y027581D01*
X023186Y027523D01*
X022674Y027523D01*
X022674Y027699D01*
X022594Y027779D01*
X021298Y027779D01*
X021218Y027699D01*
X021218Y026955D01*
X021298Y026874D01*
X022594Y026874D01*
X022674Y026955D01*
X022674Y027130D01*
X023186Y027130D01*
X023186Y027073D01*
X023267Y026992D01*
X023304Y026992D01*
X023304Y026874D01*
X023267Y026874D01*
X023186Y026793D01*
X023186Y026285D01*
X023186Y026408D02*
X017125Y026408D01*
X017008Y026525D02*
X023186Y026525D01*
X023186Y026642D02*
X016891Y026642D01*
X016775Y026758D02*
X023186Y026758D01*
X023304Y026875D02*
X022595Y026875D01*
X022674Y026992D02*
X023304Y026992D01*
X023186Y027108D02*
X022674Y027108D01*
X022674Y027575D02*
X023186Y027575D01*
X023501Y027327D02*
X023501Y026539D01*
X023816Y026525D02*
X025250Y026525D01*
X025174Y026642D02*
X023816Y026642D01*
X023816Y026758D02*
X025174Y026758D01*
X025174Y026875D02*
X023698Y026875D01*
X023698Y026992D02*
X025174Y026992D01*
X025174Y027108D02*
X024446Y027108D01*
X024131Y027327D02*
X025745Y027327D01*
X025863Y027209D01*
X026552Y027225D02*
X030250Y027225D01*
X030250Y027342D02*
X026552Y027342D01*
X026552Y027458D02*
X030250Y027458D01*
X030250Y027575D02*
X026552Y027575D01*
X026552Y027691D02*
X030250Y027691D01*
X030250Y027808D02*
X026552Y027808D01*
X026552Y027108D02*
X030250Y027108D01*
X030250Y026992D02*
X026552Y026992D01*
X026552Y026875D02*
X030250Y026875D01*
X030250Y026758D02*
X026552Y026758D01*
X026552Y026642D02*
X030250Y026642D01*
X030250Y026525D02*
X026477Y026525D01*
X026623Y026292D02*
X028883Y026292D01*
X028795Y026255D02*
X028628Y026088D01*
X028537Y025870D01*
X028537Y025634D01*
X028628Y025415D01*
X028795Y025249D01*
X029013Y025158D01*
X029249Y025158D01*
X029467Y025249D01*
X029634Y025415D01*
X029725Y025634D01*
X029725Y025870D01*
X029634Y026088D01*
X029467Y026255D01*
X029249Y026345D01*
X029013Y026345D01*
X028795Y026255D01*
X028715Y026175D02*
X026791Y026175D01*
X026891Y026058D02*
X028615Y026058D01*
X028567Y025942D02*
X026939Y025942D01*
X026969Y025825D02*
X028537Y025825D01*
X028537Y025708D02*
X026969Y025708D01*
X026951Y025592D02*
X028555Y025592D01*
X028603Y025475D02*
X026903Y025475D01*
X026821Y025358D02*
X028685Y025358D01*
X028811Y025242D02*
X026695Y025242D01*
X026055Y025242D02*
X023793Y025242D01*
X023816Y025125D02*
X030250Y025125D01*
X030250Y025242D02*
X029451Y025242D01*
X029577Y025358D02*
X030250Y025358D01*
X030250Y025475D02*
X029659Y025475D01*
X029707Y025592D02*
X030250Y025592D01*
X030250Y025708D02*
X029725Y025708D01*
X029725Y025825D02*
X030250Y025825D01*
X030250Y025942D02*
X029695Y025942D01*
X029647Y026058D02*
X030250Y026058D01*
X030250Y026175D02*
X029547Y026175D01*
X029379Y026292D02*
X030250Y026292D01*
X030250Y026408D02*
X023816Y026408D01*
X023816Y026292D02*
X026127Y026292D01*
X025174Y027575D02*
X024446Y027575D01*
X023816Y027575D02*
X023816Y027575D01*
X023816Y027458D02*
X023816Y027458D01*
X023816Y027342D02*
X023816Y027342D01*
X023816Y027225D02*
X023816Y027225D01*
X023816Y027108D02*
X023816Y027108D01*
X023501Y027327D02*
X021946Y027327D01*
X021218Y027342D02*
X020903Y027342D01*
X020903Y027458D02*
X021218Y027458D01*
X021218Y027575D02*
X020903Y027575D01*
X020903Y027691D02*
X021218Y027691D01*
X020903Y027699D02*
X020822Y027779D01*
X020361Y027779D01*
X020361Y027896D01*
X020182Y028076D01*
X020182Y028174D01*
X020136Y028286D01*
X020051Y028371D01*
X019939Y028417D01*
X019819Y028417D01*
X019708Y028371D01*
X019622Y028286D01*
X019576Y028174D01*
X019576Y028054D01*
X019622Y027942D01*
X019708Y027857D01*
X019819Y027811D01*
X019917Y027811D01*
X019949Y027779D01*
X019527Y027779D01*
X019446Y027699D01*
X019446Y026955D01*
X019527Y026874D01*
X020822Y026874D01*
X020903Y026955D01*
X020903Y027699D01*
X020903Y027225D02*
X021218Y027225D01*
X021218Y027108D02*
X020903Y027108D01*
X020903Y026992D02*
X021218Y026992D01*
X021297Y026875D02*
X020823Y026875D01*
X020361Y027808D02*
X025174Y027808D01*
X025174Y027691D02*
X022674Y027691D01*
X020333Y027925D02*
X030250Y027925D01*
X030250Y028041D02*
X020216Y028041D01*
X020182Y028158D02*
X030250Y028158D01*
X030250Y028275D02*
X020140Y028275D01*
X020001Y028391D02*
X030250Y028391D01*
X030250Y028508D02*
X017860Y028508D01*
X017930Y028625D02*
X030250Y028625D01*
X030250Y028741D02*
X017930Y028741D01*
X017930Y028858D02*
X030250Y028858D01*
X030250Y028975D02*
X017930Y028975D01*
X017906Y029091D02*
X030250Y029091D01*
X030250Y029208D02*
X017300Y029208D01*
X017300Y029325D02*
X030250Y029325D01*
X030250Y029441D02*
X017300Y029441D01*
X017300Y029558D02*
X030250Y029558D01*
X030250Y029675D02*
X017300Y029675D01*
X017276Y029091D02*
X017286Y029091D01*
X017331Y028508D02*
X017230Y028508D01*
X017261Y028391D02*
X015915Y028391D01*
X016047Y028508D02*
X016072Y028508D01*
X015766Y028275D02*
X017261Y028275D01*
X017261Y028158D02*
X015706Y028158D01*
X015492Y028041D02*
X017261Y028041D01*
X017285Y027925D02*
X015608Y027925D01*
X015725Y027808D02*
X019920Y027808D01*
X019640Y027925D02*
X018212Y027925D01*
X018333Y028041D02*
X019581Y028041D01*
X019576Y028158D02*
X018371Y028158D01*
X018362Y028275D02*
X019618Y028275D01*
X019758Y028391D02*
X018298Y028391D01*
X017924Y027925D02*
X017906Y027925D01*
X016702Y028508D02*
X016600Y028508D01*
X015842Y027691D02*
X019446Y027691D01*
X019446Y027575D02*
X015958Y027575D01*
X016075Y027458D02*
X019446Y027458D01*
X019446Y027342D02*
X016192Y027342D01*
X016308Y027225D02*
X019446Y027225D01*
X019446Y027108D02*
X016425Y027108D01*
X016541Y026992D02*
X019446Y026992D01*
X019526Y026875D02*
X016658Y026875D01*
X016202Y026408D02*
X014613Y026408D01*
X014613Y026292D02*
X016319Y026292D01*
X016435Y026175D02*
X014613Y026175D01*
X014613Y026058D02*
X016552Y026058D01*
X016669Y025942D02*
X015228Y025942D01*
X015243Y025825D02*
X016785Y025825D01*
X016902Y025708D02*
X015243Y025708D01*
X015243Y025592D02*
X017019Y025592D01*
X017135Y025475D02*
X015243Y025475D01*
X015182Y025358D02*
X017252Y025358D01*
X017369Y025242D02*
X015221Y025242D01*
X015215Y025125D02*
X017485Y025125D01*
X017487Y025008D02*
X015154Y025008D01*
X014682Y025008D02*
X013846Y025008D01*
X013846Y024892D02*
X017487Y024892D01*
X017487Y024775D02*
X013846Y024775D01*
X013846Y024659D02*
X017487Y024659D01*
X017487Y024542D02*
X013846Y024542D01*
X013846Y024425D02*
X017487Y024425D01*
X017487Y024309D02*
X013846Y024309D01*
X013846Y024192D02*
X017487Y024192D01*
X017487Y024075D02*
X013846Y024075D01*
X013846Y023959D02*
X017487Y023959D01*
X017487Y023842D02*
X013846Y023842D01*
X013846Y023725D02*
X017487Y023725D01*
X017506Y023609D02*
X013846Y023609D01*
X013846Y023492D02*
X017622Y023492D01*
X017739Y023375D02*
X013846Y023375D01*
X013846Y023259D02*
X017856Y023259D01*
X017972Y023142D02*
X013846Y023142D01*
X013846Y023025D02*
X018089Y023025D01*
X018206Y022909D02*
X013757Y022909D01*
X013640Y022792D02*
X018322Y022792D01*
X018439Y022675D02*
X013524Y022675D01*
X013407Y022559D02*
X018556Y022559D01*
X018672Y022442D02*
X013290Y022442D01*
X013174Y022325D02*
X018789Y022325D01*
X018906Y022209D02*
X013057Y022209D01*
X012941Y022092D02*
X019022Y022092D01*
X019139Y021975D02*
X012824Y021975D01*
X012707Y021859D02*
X019256Y021859D01*
X019372Y021742D02*
X012591Y021742D01*
X012474Y021626D02*
X019489Y021626D01*
X019606Y021509D02*
X012357Y021509D01*
X012308Y021392D02*
X019722Y021392D01*
X019839Y021276D02*
X012272Y021276D01*
X012163Y021159D02*
X019956Y021159D01*
X020027Y021042D02*
X011877Y021042D01*
X011877Y020926D02*
X020027Y020926D01*
X020027Y020809D02*
X011877Y020809D01*
X011877Y020692D02*
X020027Y020692D01*
X020027Y020576D02*
X011877Y020576D01*
X011877Y020459D02*
X014072Y020459D01*
X014072Y020342D02*
X011877Y020342D01*
X011877Y020226D02*
X014072Y020226D01*
X014072Y020109D02*
X011877Y020109D01*
X011877Y019992D02*
X014072Y019992D01*
X014072Y019876D02*
X011877Y019876D01*
X011877Y019759D02*
X014495Y019759D01*
X014495Y019642D02*
X011877Y019642D01*
X011960Y019526D02*
X014495Y019526D01*
X014495Y019409D02*
X012077Y019409D01*
X012357Y019292D02*
X012477Y019292D01*
X012619Y018709D02*
X014495Y018709D01*
X014495Y018593D02*
X012736Y018593D01*
X012822Y018476D02*
X014495Y018476D01*
X014495Y018359D02*
X012822Y018359D01*
X012822Y018243D02*
X014468Y018243D01*
X014351Y018126D02*
X012822Y018126D01*
X012925Y018009D02*
X014234Y018009D01*
X014118Y017893D02*
X013042Y017893D01*
X013159Y017776D02*
X013887Y017776D01*
X013721Y017659D02*
X013275Y017659D01*
X013392Y017543D02*
X013671Y017543D01*
X013671Y017426D02*
X013509Y017426D01*
X013625Y017309D02*
X013720Y017309D01*
X013742Y017193D02*
X013886Y017193D01*
X013859Y017076D02*
X020545Y017076D01*
X020428Y016959D02*
X014524Y016959D01*
X014634Y016843D02*
X020312Y016843D01*
X020195Y016726D02*
X014670Y016726D01*
X014659Y016609D02*
X020079Y016609D01*
X020027Y016493D02*
X014591Y016493D01*
X014422Y015676D02*
X014062Y015676D01*
X014062Y015560D02*
X014348Y015560D01*
X014348Y015443D02*
X014062Y015443D01*
X014062Y015326D02*
X014348Y015326D01*
X014348Y015210D02*
X014062Y015210D01*
X014062Y015093D02*
X014369Y015093D01*
X014361Y014976D02*
X014062Y014976D01*
X014062Y014860D02*
X014289Y014860D01*
X014289Y014743D02*
X014062Y014743D01*
X014062Y014626D02*
X014289Y014626D01*
X014278Y014510D02*
X014062Y014510D01*
X014062Y014393D02*
X014161Y014393D01*
X014734Y014043D02*
X015699Y014043D01*
X015638Y014160D02*
X016914Y014160D01*
X016952Y014197D02*
X016866Y014112D01*
X016820Y014001D01*
X016820Y013881D01*
X016863Y013777D01*
X016789Y013703D01*
X016789Y013234D01*
X016869Y013153D01*
X017377Y013153D01*
X017438Y013214D01*
X017499Y013153D01*
X018007Y013153D01*
X018088Y013234D01*
X018088Y013703D01*
X018013Y013777D01*
X018056Y013881D01*
X018056Y014001D01*
X018010Y014112D01*
X017925Y014197D01*
X017813Y014244D01*
X017693Y014244D01*
X017582Y014197D01*
X017496Y014112D01*
X017450Y014001D01*
X017450Y013881D01*
X017493Y013777D01*
X017438Y013722D01*
X017383Y013777D01*
X017426Y013881D01*
X017426Y014001D01*
X017380Y014112D01*
X017295Y014197D01*
X017183Y014244D01*
X017063Y014244D01*
X016952Y014197D01*
X016838Y014043D02*
X016027Y014043D01*
X016132Y013926D02*
X016820Y013926D01*
X016850Y013810D02*
X016166Y013810D01*
X016154Y013693D02*
X016789Y013693D01*
X016789Y013576D02*
X016498Y013576D01*
X016556Y013460D02*
X016789Y013460D01*
X016789Y013343D02*
X016560Y013343D01*
X016517Y013226D02*
X016796Y013226D01*
X016826Y013110D02*
X016373Y013110D01*
X016789Y012993D02*
X015735Y012993D01*
X015735Y012876D02*
X016789Y012876D01*
X016789Y012760D02*
X015735Y012760D01*
X015735Y012643D02*
X016789Y012643D01*
X016477Y012527D02*
X015735Y012527D01*
X015735Y011972D02*
X016591Y011972D01*
X016729Y012111D01*
X016749Y012130D01*
X017221Y012130D01*
X017851Y012130D01*
X021086Y012130D01*
X021086Y012024D01*
X020999Y011988D01*
X020863Y011852D01*
X020790Y011675D01*
X020790Y011483D01*
X020863Y011305D01*
X020999Y011169D01*
X021177Y011096D01*
X021369Y011096D01*
X021546Y011169D01*
X021682Y011305D01*
X021756Y011483D01*
X021756Y011675D01*
X021682Y011852D01*
X021546Y011988D01*
X021460Y012024D01*
X021460Y012130D01*
X022241Y012130D01*
X022241Y012112D01*
X022302Y012051D01*
X022241Y011990D01*
X022241Y011482D01*
X022302Y011421D01*
X022241Y011360D01*
X021705Y011360D01*
X021753Y011477D02*
X022247Y011477D01*
X022241Y011593D02*
X021756Y011593D01*
X021741Y011710D02*
X022241Y011710D01*
X022241Y011827D02*
X021693Y011827D01*
X021591Y011943D02*
X022241Y011943D01*
X022293Y012060D02*
X021460Y012060D01*
X021086Y012060D02*
X020372Y012060D01*
X020369Y012061D02*
X020177Y012061D01*
X019999Y011988D01*
X019863Y011852D01*
X019790Y011675D01*
X019790Y011483D01*
X019863Y011305D01*
X019999Y011169D01*
X020086Y011133D01*
X020086Y011047D01*
X020039Y011047D01*
X019958Y010966D01*
X019958Y010459D01*
X020039Y010378D01*
X020507Y010378D01*
X020588Y010459D01*
X020588Y010966D01*
X020507Y011047D01*
X020460Y011047D01*
X020460Y011133D01*
X020546Y011169D01*
X020682Y011305D01*
X020756Y011483D01*
X020756Y011675D01*
X020682Y011852D01*
X020546Y011988D01*
X020369Y012061D01*
X020173Y012060D02*
X016679Y012060D01*
X016432Y011510D02*
X015924Y011510D01*
X015844Y011429D01*
X015844Y011273D01*
X015792Y011273D01*
X015783Y011283D01*
X015735Y011283D01*
X015735Y011972D01*
X015735Y011943D02*
X019955Y011943D01*
X019853Y011827D02*
X015735Y011827D01*
X015735Y011710D02*
X019805Y011710D01*
X019790Y011593D02*
X015735Y011593D01*
X015735Y011477D02*
X015891Y011477D01*
X015844Y011360D02*
X015735Y011360D01*
X016432Y011510D02*
X016513Y011429D01*
X016513Y011027D01*
X016551Y011120D01*
X016637Y011205D01*
X016748Y011251D01*
X016868Y011251D01*
X016980Y011205D01*
X017065Y011120D01*
X017111Y011009D01*
X017111Y010899D01*
X019328Y010899D01*
X019328Y010966D01*
X019409Y011047D01*
X019877Y011047D01*
X019958Y010966D01*
X019958Y010459D01*
X019877Y010378D01*
X019409Y010378D01*
X019328Y010459D01*
X019328Y010525D01*
X018841Y010525D01*
X018876Y010490D01*
X018922Y010379D01*
X018922Y010258D01*
X018876Y010147D01*
X018791Y010062D01*
X018679Y010016D01*
X018581Y010016D01*
X017082Y008518D01*
X017656Y008518D01*
X017724Y008585D01*
X017833Y008695D01*
X017911Y008695D01*
X017911Y008919D01*
X017991Y009000D01*
X018460Y009000D01*
X018540Y008919D01*
X018540Y008411D01*
X018479Y008350D01*
X018540Y008289D01*
X018540Y007781D01*
X018479Y007720D01*
X018540Y007659D01*
X018540Y007151D01*
X018479Y007090D01*
X018540Y007029D01*
X018540Y006521D01*
X018479Y006460D01*
X018540Y006399D01*
X018540Y005892D01*
X018460Y005811D01*
X017991Y005811D01*
X017911Y005892D01*
X017911Y005959D01*
X017752Y005959D01*
X017597Y005959D01*
X016865Y006691D01*
X016829Y006604D01*
X016743Y006519D01*
X016632Y006473D01*
X016512Y006473D01*
X016400Y006519D01*
X016315Y006604D01*
X016269Y006715D01*
X016269Y006814D01*
X015735Y007348D01*
X015735Y007325D01*
X015735Y007170D01*
X015626Y007061D01*
X014859Y007061D01*
X014859Y007014D01*
X014849Y007004D01*
X014849Y006953D01*
X015084Y006953D01*
X015164Y006872D01*
X015164Y006364D01*
X015084Y006283D01*
X014946Y006283D01*
X014987Y006242D01*
X014987Y005577D01*
X014907Y005496D01*
X014494Y005496D01*
X014681Y005309D01*
X018540Y005309D01*
X018540Y005769D01*
X018602Y005831D01*
X018540Y005892D01*
X018540Y006399D01*
X018602Y006460D01*
X018540Y006521D01*
X018540Y007029D01*
X018602Y007090D01*
X018540Y007151D01*
X018540Y007659D01*
X018602Y007720D01*
X018540Y007781D01*
X018540Y008289D01*
X018602Y008350D01*
X018540Y008411D01*
X018540Y008919D01*
X018621Y009000D01*
X019090Y009000D01*
X019151Y008939D01*
X019151Y008978D01*
X019231Y009059D01*
X019739Y009059D01*
X019820Y009140D01*
X019820Y009608D01*
X019739Y009689D01*
X019231Y009689D01*
X019151Y009608D01*
X019151Y009561D01*
X018624Y009561D01*
X018554Y009631D01*
X018443Y009677D01*
X018323Y009677D01*
X018211Y009631D01*
X018126Y009545D01*
X018080Y009434D01*
X018080Y009314D01*
X018126Y009202D01*
X018211Y009117D01*
X018323Y009071D01*
X018443Y009071D01*
X018554Y009117D01*
X018624Y009187D01*
X019151Y009187D01*
X019151Y009140D01*
X019231Y009059D01*
X019739Y009059D01*
X019820Y008978D01*
X019820Y008510D01*
X019739Y008429D01*
X019672Y008429D01*
X019672Y008295D01*
X020430Y008295D01*
X020430Y009157D01*
X020569Y009295D01*
X020588Y009314D01*
X020726Y009453D01*
X022241Y009453D01*
X022241Y009470D01*
X022320Y009549D01*
X022320Y010378D01*
X022320Y010774D01*
X022241Y010852D01*
X022241Y011360D01*
X022241Y011243D02*
X021620Y011243D01*
X021443Y011127D02*
X022241Y011127D01*
X022241Y011010D02*
X020544Y011010D01*
X020588Y010893D02*
X022241Y010893D01*
X022317Y010777D02*
X020588Y010777D01*
X020588Y010660D02*
X022320Y010660D01*
X022320Y010543D02*
X020588Y010543D01*
X020556Y010427D02*
X022320Y010427D01*
X022320Y010310D02*
X018922Y010310D01*
X018902Y010427D02*
X019360Y010427D01*
X018895Y010193D02*
X022320Y010193D01*
X022320Y010077D02*
X018805Y010077D01*
X018525Y009960D02*
X022320Y009960D01*
X022320Y009844D02*
X018408Y009844D01*
X018292Y009727D02*
X022320Y009727D01*
X022320Y009610D02*
X019818Y009610D01*
X019820Y009494D02*
X022265Y009494D01*
X022241Y008980D02*
X022241Y008962D01*
X022302Y008901D01*
X022241Y008840D01*
X022241Y008333D01*
X022302Y008271D01*
X022241Y008210D01*
X020903Y008210D01*
X020903Y008094D02*
X022241Y008094D01*
X022241Y008210D02*
X022241Y007703D01*
X022322Y007622D01*
X022448Y007622D01*
X022448Y005521D01*
X022378Y005451D01*
X022332Y005340D01*
X022332Y005219D01*
X022378Y005108D01*
X022414Y005073D01*
X021690Y005073D01*
X021690Y005533D01*
X021611Y005612D01*
X021611Y005728D01*
X022074Y005728D01*
X022155Y005809D01*
X022155Y006214D01*
X022074Y006295D01*
X020903Y006295D01*
X020903Y007228D01*
X022074Y007228D01*
X022155Y007309D01*
X022155Y007714D01*
X022074Y007795D01*
X020903Y007795D01*
X020903Y008961D01*
X020922Y008980D01*
X022241Y008980D01*
X022293Y008910D02*
X020903Y008910D01*
X020903Y008794D02*
X022241Y008794D01*
X022241Y008677D02*
X020903Y008677D01*
X020903Y008560D02*
X022241Y008560D01*
X022241Y008444D02*
X020903Y008444D01*
X020903Y008327D02*
X022247Y008327D01*
X022241Y007977D02*
X020903Y007977D01*
X020903Y007860D02*
X022241Y007860D01*
X022241Y007744D02*
X022125Y007744D01*
X022155Y007627D02*
X022317Y007627D01*
X022448Y007510D02*
X022155Y007510D01*
X022155Y007394D02*
X022448Y007394D01*
X022448Y007277D02*
X022123Y007277D01*
X022448Y007160D02*
X020903Y007160D01*
X020903Y007044D02*
X022448Y007044D01*
X022448Y006927D02*
X020903Y006927D01*
X020903Y006811D02*
X022448Y006811D01*
X022448Y006694D02*
X020903Y006694D01*
X020903Y006577D02*
X022448Y006577D01*
X022448Y006461D02*
X020903Y006461D01*
X020903Y006344D02*
X022448Y006344D01*
X022448Y006227D02*
X022142Y006227D01*
X022155Y006111D02*
X022448Y006111D01*
X022448Y005994D02*
X022155Y005994D01*
X022155Y005877D02*
X022448Y005877D01*
X022448Y005761D02*
X022106Y005761D01*
X022448Y005644D02*
X021611Y005644D01*
X021690Y005527D02*
X022448Y005527D01*
X022362Y005411D02*
X021690Y005411D01*
X021690Y005294D02*
X022332Y005294D01*
X022349Y005177D02*
X021690Y005177D01*
X022822Y005527D02*
X027222Y005527D01*
X027222Y005411D02*
X022908Y005411D01*
X022938Y005294D02*
X027222Y005294D01*
X027247Y005177D02*
X026849Y005177D01*
X026887Y005061D02*
X028236Y005061D01*
X028173Y004944D02*
X026887Y004944D01*
X026895Y004827D02*
X028044Y004827D01*
X028029Y004711D02*
X027011Y004711D01*
X026295Y005177D02*
X026219Y005177D01*
X025665Y005177D02*
X022920Y005177D01*
X022822Y005644D02*
X027222Y005644D01*
X027222Y005761D02*
X022822Y005761D01*
X022822Y005877D02*
X027222Y005877D01*
X027222Y005994D02*
X022822Y005994D01*
X022822Y006111D02*
X027222Y006111D01*
X027180Y006227D02*
X022822Y006227D01*
X022822Y006344D02*
X026031Y006344D01*
X026001Y006461D02*
X022822Y006461D01*
X022822Y006577D02*
X026001Y006577D01*
X026001Y006694D02*
X022822Y006694D01*
X022822Y006811D02*
X026001Y006811D01*
X026066Y006927D02*
X022822Y006927D01*
X022822Y007044D02*
X030250Y007044D01*
X030250Y007160D02*
X022822Y007160D01*
X022822Y007277D02*
X030250Y007277D01*
X030250Y007394D02*
X022822Y007394D01*
X022822Y007510D02*
X030250Y007510D01*
X030250Y007627D02*
X023426Y007627D01*
X023501Y007744D02*
X030250Y007744D01*
X030250Y007860D02*
X023669Y007860D01*
X023786Y007977D02*
X024125Y007977D01*
X024092Y008094D02*
X023903Y008094D01*
X024003Y008210D02*
X024092Y008210D01*
X024348Y008444D02*
X026395Y008444D01*
X026429Y008409D01*
X029470Y008409D01*
X029505Y008444D01*
X029505Y008768D01*
X029470Y008803D01*
X026631Y008803D01*
X026631Y012056D01*
X026596Y012090D01*
X025918Y012090D01*
X025883Y012056D01*
X025883Y008719D01*
X025918Y008685D01*
X026395Y008685D01*
X026395Y008444D01*
X026395Y008560D02*
X024348Y008560D01*
X024348Y008677D02*
X026395Y008677D01*
X026631Y008910D02*
X030250Y008910D01*
X030250Y008794D02*
X029480Y008794D01*
X029505Y008677D02*
X030250Y008677D01*
X030250Y008560D02*
X029505Y008560D01*
X029505Y008444D02*
X030250Y008444D01*
X030250Y008327D02*
X027379Y008327D01*
X027379Y008355D02*
X027344Y008390D01*
X025878Y008390D01*
X025844Y008355D01*
X025844Y008011D01*
X025878Y007976D01*
X027344Y007976D01*
X027379Y008011D01*
X027379Y008355D01*
X027379Y008210D02*
X030250Y008210D01*
X030250Y008094D02*
X027379Y008094D01*
X027345Y007977D02*
X030250Y007977D01*
X030250Y009027D02*
X026631Y009027D01*
X026631Y009144D02*
X030250Y009144D01*
X030250Y009260D02*
X026631Y009260D01*
X026631Y009377D02*
X030250Y009377D01*
X030250Y009494D02*
X026631Y009494D01*
X026631Y009610D02*
X030250Y009610D01*
X030250Y009727D02*
X026631Y009727D01*
X026631Y009844D02*
X030250Y009844D01*
X030250Y009960D02*
X026631Y009960D01*
X026631Y010077D02*
X030250Y010077D01*
X030250Y010193D02*
X026631Y010193D01*
X026631Y010310D02*
X030250Y010310D01*
X030250Y010427D02*
X026631Y010427D01*
X026631Y010543D02*
X030250Y010543D01*
X030250Y010660D02*
X026631Y010660D01*
X026631Y010777D02*
X030250Y010777D01*
X030250Y010893D02*
X026631Y010893D01*
X026631Y011010D02*
X030250Y011010D01*
X030250Y011127D02*
X026631Y011127D01*
X026631Y011243D02*
X030250Y011243D01*
X030250Y011360D02*
X026631Y011360D01*
X026631Y011477D02*
X030250Y011477D01*
X030250Y011593D02*
X026631Y011593D01*
X026631Y011710D02*
X030250Y011710D01*
X030250Y011827D02*
X026631Y011827D01*
X026631Y011943D02*
X029706Y011943D01*
X029702Y012060D02*
X026627Y012060D01*
X025887Y012060D02*
X025052Y012060D01*
X025064Y011943D02*
X025883Y011943D01*
X025883Y011827D02*
X025028Y011827D01*
X024919Y011710D02*
X025883Y011710D01*
X025883Y011593D02*
X024827Y011593D01*
X024810Y011477D02*
X025883Y011477D01*
X025883Y011360D02*
X024935Y011360D01*
X025032Y011243D02*
X025883Y011243D01*
X025883Y011127D02*
X025064Y011127D01*
X025049Y011010D02*
X025883Y011010D01*
X025883Y010893D02*
X024976Y010893D01*
X024826Y010777D02*
X025883Y010777D01*
X025883Y010660D02*
X024827Y010660D01*
X024782Y010543D02*
X025883Y010543D01*
X025883Y010427D02*
X025002Y010427D01*
X025060Y010310D02*
X025883Y010310D01*
X025883Y010193D02*
X025064Y010193D01*
X025021Y010077D02*
X025883Y010077D01*
X025883Y009960D02*
X024877Y009960D01*
X024645Y009960D02*
X022792Y009960D01*
X022792Y009844D02*
X025883Y009844D01*
X025883Y009727D02*
X022792Y009727D01*
X022792Y009610D02*
X023641Y009610D01*
X023600Y010077D02*
X022792Y010077D01*
X022792Y010193D02*
X022890Y010193D01*
X022851Y010712D02*
X022792Y010712D01*
X022792Y010774D01*
X022871Y010852D01*
X022871Y011360D01*
X022871Y011360D01*
X022810Y011421D01*
X022871Y011482D01*
X022871Y011990D01*
X022810Y012051D01*
X022871Y012112D01*
X022871Y012620D01*
X022871Y012112D01*
X022932Y012051D01*
X022871Y011990D01*
X022871Y011482D01*
X022932Y011421D01*
X022871Y011360D01*
X022871Y010852D01*
X022927Y010796D01*
X022851Y010720D01*
X022851Y010712D01*
X022796Y010777D02*
X022908Y010777D01*
X022871Y010893D02*
X022871Y010893D01*
X022871Y011010D02*
X022871Y011010D01*
X022871Y011127D02*
X022871Y011127D01*
X022871Y011243D02*
X022871Y011243D01*
X022866Y011477D02*
X022877Y011477D01*
X022871Y011593D02*
X022871Y011593D01*
X022871Y011710D02*
X022871Y011710D01*
X022871Y011827D02*
X022871Y011827D01*
X022871Y011943D02*
X022871Y011943D01*
X022819Y012060D02*
X022923Y012060D01*
X022871Y012177D02*
X022871Y012177D01*
X022871Y012293D02*
X022871Y012293D01*
X022871Y012410D02*
X022871Y012410D01*
X022871Y012527D02*
X022871Y012527D01*
X022848Y012643D02*
X022894Y012643D01*
X023478Y012643D02*
X029702Y012643D01*
X029702Y012527D02*
X023501Y012527D01*
X023501Y012410D02*
X029702Y012410D01*
X029702Y012293D02*
X023523Y012293D01*
X024338Y012177D02*
X024537Y012177D01*
X024985Y012177D02*
X029702Y012177D01*
X029702Y012760D02*
X018088Y012760D01*
X018088Y012876D02*
X029702Y012876D01*
X029702Y012993D02*
X018088Y012993D01*
X018051Y013110D02*
X030250Y013110D01*
X030250Y013226D02*
X018080Y013226D01*
X018088Y013343D02*
X030250Y013343D01*
X030250Y013460D02*
X018088Y013460D01*
X018088Y013576D02*
X030250Y013576D01*
X030250Y013693D02*
X018088Y013693D01*
X018026Y013810D02*
X030250Y013810D01*
X030250Y013926D02*
X018056Y013926D01*
X018038Y014043D02*
X030250Y014043D01*
X030250Y014160D02*
X017962Y014160D01*
X017544Y014160D02*
X017332Y014160D01*
X017409Y014043D02*
X017468Y014043D01*
X017450Y013926D02*
X017426Y013926D01*
X017397Y013810D02*
X017480Y013810D01*
X017456Y013110D02*
X017421Y013110D01*
X018088Y012643D02*
X022265Y012643D01*
X020955Y011943D02*
X020591Y011943D01*
X020693Y011827D02*
X020853Y011827D01*
X020805Y011710D02*
X020741Y011710D01*
X020756Y011593D02*
X020790Y011593D01*
X020792Y011477D02*
X020753Y011477D01*
X020705Y011360D02*
X020841Y011360D01*
X020925Y011243D02*
X020620Y011243D01*
X020460Y011127D02*
X021102Y011127D01*
X020086Y011127D02*
X017058Y011127D01*
X017110Y011010D02*
X019372Y011010D01*
X019841Y011360D02*
X016513Y011360D01*
X016513Y011243D02*
X016728Y011243D01*
X016888Y011243D02*
X019925Y011243D01*
X019914Y011010D02*
X020001Y011010D01*
X019958Y010893D02*
X019958Y010893D01*
X019958Y010777D02*
X019958Y010777D01*
X019958Y010660D02*
X019958Y010660D01*
X019958Y010543D02*
X019958Y010543D01*
X019926Y010427D02*
X019990Y010427D01*
X019820Y009377D02*
X020650Y009377D01*
X020534Y009260D02*
X019820Y009260D01*
X019820Y009144D02*
X020430Y009144D01*
X020430Y009027D02*
X019771Y009027D01*
X019820Y008910D02*
X020430Y008910D01*
X020430Y008794D02*
X019820Y008794D01*
X019820Y008677D02*
X020430Y008677D01*
X020430Y008560D02*
X019820Y008560D01*
X019754Y008444D02*
X020430Y008444D01*
X020430Y008327D02*
X019672Y008327D01*
X019199Y009027D02*
X017592Y009027D01*
X017708Y009144D02*
X018185Y009144D01*
X018102Y009260D02*
X017825Y009260D01*
X017942Y009377D02*
X018080Y009377D01*
X018058Y009494D02*
X018105Y009494D01*
X018175Y009610D02*
X018191Y009610D01*
X018575Y009610D02*
X019153Y009610D01*
X019151Y009144D02*
X018581Y009144D01*
X018540Y008910D02*
X018540Y008910D01*
X018540Y008794D02*
X018540Y008794D01*
X018540Y008677D02*
X018540Y008677D01*
X018540Y008560D02*
X018540Y008560D01*
X018540Y008444D02*
X018540Y008444D01*
X018503Y008327D02*
X018578Y008327D01*
X018540Y008210D02*
X018540Y008210D01*
X018540Y008094D02*
X018540Y008094D01*
X018540Y007977D02*
X018540Y007977D01*
X018540Y007860D02*
X018540Y007860D01*
X018503Y007744D02*
X018578Y007744D01*
X018540Y007627D02*
X018540Y007627D01*
X018540Y007510D02*
X018540Y007510D01*
X018540Y007394D02*
X018540Y007394D01*
X018540Y007277D02*
X018540Y007277D01*
X018540Y007160D02*
X018540Y007160D01*
X018526Y007044D02*
X018555Y007044D01*
X018540Y006927D02*
X018540Y006927D01*
X018540Y006811D02*
X018540Y006811D01*
X018540Y006694D02*
X018540Y006694D01*
X018540Y006577D02*
X018540Y006577D01*
X018479Y006461D02*
X018601Y006461D01*
X018540Y006344D02*
X018540Y006344D01*
X018540Y006227D02*
X018540Y006227D01*
X018540Y006111D02*
X018540Y006111D01*
X018540Y005994D02*
X018540Y005994D01*
X018526Y005877D02*
X018555Y005877D01*
X018540Y005761D02*
X014987Y005761D01*
X014987Y005877D02*
X017925Y005877D01*
X017561Y005994D02*
X014987Y005994D01*
X014987Y006111D02*
X017445Y006111D01*
X017328Y006227D02*
X014987Y006227D01*
X015144Y006344D02*
X017211Y006344D01*
X017095Y006461D02*
X015164Y006461D01*
X015164Y006577D02*
X016342Y006577D01*
X016278Y006694D02*
X015164Y006694D01*
X015164Y006811D02*
X016269Y006811D01*
X016156Y006927D02*
X015109Y006927D01*
X014859Y007044D02*
X016039Y007044D01*
X015922Y007160D02*
X015725Y007160D01*
X015735Y007277D02*
X015806Y007277D01*
X016802Y006577D02*
X016978Y006577D01*
X018540Y005644D02*
X014987Y005644D01*
X014938Y005527D02*
X018540Y005527D01*
X018540Y005411D02*
X014579Y005411D01*
X013294Y005877D02*
X012001Y005877D01*
X012118Y005994D02*
X013294Y005994D01*
X013294Y006111D02*
X012235Y006111D01*
X012351Y006227D02*
X013294Y006227D01*
X013294Y006344D02*
X013158Y006344D01*
X013291Y006461D02*
X013294Y006461D01*
X012899Y006344D02*
X012468Y006344D01*
X012584Y006461D02*
X012766Y006461D01*
X012726Y006577D02*
X012701Y006577D01*
X011877Y005753D02*
X011768Y005644D01*
X011002Y006344D02*
X010961Y006344D01*
X010981Y006461D02*
X010981Y006461D01*
X010981Y006577D02*
X010981Y006577D01*
X010981Y006694D02*
X010981Y006694D01*
X010981Y006811D02*
X010981Y006811D01*
X010926Y006927D02*
X011037Y006927D01*
X010969Y007044D02*
X011513Y007044D01*
X010406Y006927D02*
X010351Y006872D01*
X010351Y006694D02*
X009444Y006694D01*
X009529Y006577D02*
X010351Y006577D01*
X010351Y006461D02*
X009552Y006461D01*
X009630Y006344D02*
X010372Y006344D01*
X010233Y005061D02*
X009840Y005061D01*
X009859Y004944D02*
X010214Y004944D01*
X010214Y004827D02*
X009859Y004827D01*
X009859Y004711D02*
X010214Y004711D01*
X010281Y004361D02*
X009792Y004361D01*
X009859Y004244D02*
X010214Y004244D01*
X010214Y004127D02*
X009859Y004127D01*
X009859Y004011D02*
X010214Y004011D01*
X010262Y003894D02*
X009811Y003894D01*
X010332Y003778D02*
X009113Y003778D01*
X009172Y004361D02*
X009218Y004361D01*
X008730Y003311D02*
X008194Y003311D01*
X008225Y003194D02*
X008698Y003194D01*
X008698Y003078D02*
X008225Y003078D01*
X008225Y002961D02*
X008698Y002961D01*
X008698Y002844D02*
X008225Y002844D01*
X008225Y002728D02*
X008698Y002728D01*
X008698Y002611D02*
X008225Y002611D01*
X008165Y002494D02*
X008759Y002494D01*
X007765Y003894D02*
X007123Y003894D01*
X007123Y004011D02*
X007698Y004011D01*
X007686Y004127D02*
X007123Y004127D01*
X007123Y004244D02*
X007722Y004244D01*
X006651Y004244D02*
X005177Y004244D01*
X005177Y004127D02*
X006651Y004127D01*
X006651Y004011D02*
X005177Y004011D01*
X005177Y003894D02*
X006651Y003894D01*
X006651Y003778D02*
X005177Y003778D01*
X005177Y003661D02*
X006651Y003661D01*
X006694Y003544D02*
X005177Y003544D01*
X005177Y003428D02*
X006810Y003428D01*
X006927Y003311D02*
X005177Y003311D01*
X005177Y003194D02*
X007043Y003194D01*
X007084Y003078D02*
X005177Y003078D01*
X005177Y002961D02*
X007084Y002961D01*
X007084Y002844D02*
X005177Y002844D01*
X005177Y002728D02*
X007084Y002728D01*
X007084Y002611D02*
X005177Y002611D01*
X005177Y002494D02*
X007144Y002494D01*
X006651Y004361D02*
X005177Y004361D01*
X005177Y004477D02*
X006651Y004477D01*
X006651Y004594D02*
X005177Y004594D01*
X005177Y004711D02*
X006651Y004711D01*
X006651Y004827D02*
X005177Y004827D01*
X005177Y004944D02*
X006651Y004944D01*
X006651Y005061D02*
X005177Y005061D01*
X005177Y005177D02*
X006651Y005177D01*
X006569Y005294D02*
X005177Y005294D01*
X005177Y005411D02*
X006469Y005411D01*
X006469Y005527D02*
X005177Y005527D01*
X005177Y005644D02*
X006469Y005644D01*
X006490Y005761D02*
X005177Y005761D01*
X005177Y005877D02*
X006607Y005877D01*
X012497Y012159D02*
X012497Y012206D01*
X012497Y012159D01*
X012497Y012159D01*
X012497Y012177D02*
X012497Y012177D01*
X012487Y012293D02*
X013491Y012293D01*
X013491Y012410D02*
X012487Y012410D01*
X012487Y012527D02*
X013491Y012527D01*
X013491Y012643D02*
X012487Y012643D01*
X012487Y012760D02*
X013491Y012760D01*
X013491Y012876D02*
X012487Y012876D01*
X012487Y012993D02*
X013491Y012993D01*
X013491Y013110D02*
X012487Y013110D01*
X012487Y013226D02*
X013491Y013226D01*
X013491Y013343D02*
X012487Y013343D01*
X012435Y013460D02*
X013491Y013460D01*
X013491Y013576D02*
X012487Y013576D01*
X012487Y013693D02*
X013491Y013693D01*
X013491Y013810D02*
X012487Y013810D01*
X012487Y013926D02*
X013491Y013926D01*
X013491Y014043D02*
X012481Y014043D01*
X011844Y014043D02*
X011139Y014043D01*
X011139Y013926D02*
X011838Y013926D01*
X011838Y013810D02*
X011139Y013810D01*
X011139Y013693D02*
X011838Y013693D01*
X011838Y013576D02*
X011127Y013576D01*
X011139Y014160D02*
X011838Y014160D01*
X011838Y014276D02*
X011139Y014276D01*
X011139Y014393D02*
X011838Y014393D01*
X011838Y014510D02*
X011139Y014510D01*
X011139Y014626D02*
X011838Y014626D01*
X013094Y014743D02*
X013491Y014743D01*
X013491Y014860D02*
X013095Y014860D01*
X013050Y014976D02*
X013491Y014976D01*
X013491Y014626D02*
X013401Y014626D01*
X013474Y014510D02*
X013491Y014510D01*
X013489Y014393D02*
X013491Y014393D01*
X013491Y014276D02*
X013457Y014276D01*
X013491Y014160D02*
X013361Y014160D01*
X014617Y013926D02*
X015595Y013926D01*
X015561Y013810D02*
X014910Y013810D01*
X015509Y013693D02*
X015573Y013693D01*
X015755Y014276D02*
X030250Y014276D01*
X030250Y014393D02*
X016806Y014393D01*
X016808Y014510D02*
X030250Y014510D01*
X030250Y014626D02*
X016808Y014626D01*
X016808Y014743D02*
X030250Y014743D01*
X030250Y014860D02*
X016808Y014860D01*
X016735Y014976D02*
X030250Y014976D01*
X030250Y015093D02*
X017358Y015093D01*
X017379Y015210D02*
X030250Y015210D01*
X030250Y015326D02*
X017379Y015326D01*
X017379Y015443D02*
X030250Y015443D01*
X030250Y015560D02*
X023649Y015560D01*
X023649Y015537D02*
X023649Y015712D01*
X023656Y015712D01*
X023819Y015712D01*
X024173Y016067D01*
X024464Y016067D01*
X024544Y016147D01*
X024544Y016224D01*
X028206Y016224D01*
X028206Y015813D01*
X028287Y015732D01*
X029267Y015732D01*
X029348Y015813D01*
X029348Y017029D01*
X029267Y017110D01*
X028287Y017110D01*
X028206Y017029D01*
X028206Y016618D01*
X024542Y016618D01*
X024464Y016697D01*
X023956Y016697D01*
X023875Y016616D01*
X023875Y016325D01*
X023656Y016106D01*
X023649Y016106D01*
X023649Y016281D01*
X023568Y016362D01*
X021820Y016362D01*
X021739Y016281D01*
X021739Y015537D01*
X021820Y015457D01*
X023568Y015457D01*
X023649Y015537D01*
X023649Y015676D02*
X030250Y015676D01*
X030250Y015793D02*
X029328Y015793D01*
X029348Y015909D02*
X030250Y015909D01*
X030250Y016026D02*
X029348Y016026D01*
X029348Y016143D02*
X030250Y016143D01*
X030250Y016259D02*
X029348Y016259D01*
X029348Y016376D02*
X030250Y016376D01*
X030250Y016493D02*
X029348Y016493D01*
X029348Y016609D02*
X030250Y016609D01*
X030250Y016726D02*
X029348Y016726D01*
X029348Y016843D02*
X030250Y016843D01*
X030250Y016959D02*
X029348Y016959D01*
X029301Y017076D02*
X030250Y017076D01*
X030250Y017193D02*
X021191Y017193D01*
X021307Y017309D02*
X026196Y017309D01*
X026257Y017284D02*
X026493Y017284D01*
X026711Y017374D01*
X026878Y017541D01*
X026969Y017760D01*
X026969Y017996D01*
X026878Y018214D01*
X026711Y018381D01*
X026493Y018471D01*
X026257Y018471D01*
X026039Y018381D01*
X025872Y018214D01*
X025781Y017996D01*
X025781Y017760D01*
X025872Y017541D01*
X026039Y017374D01*
X026257Y017284D01*
X026554Y017309D02*
X028952Y017309D01*
X029013Y017284D02*
X029249Y017284D01*
X029467Y017374D01*
X029634Y017541D01*
X029725Y017760D01*
X029725Y017996D01*
X029634Y018214D01*
X029467Y018381D01*
X029249Y018471D01*
X029013Y018471D01*
X028795Y018381D01*
X028628Y018214D01*
X028537Y017996D01*
X028537Y017760D01*
X028628Y017541D01*
X028795Y017374D01*
X029013Y017284D01*
X029310Y017309D02*
X030250Y017309D01*
X030250Y017426D02*
X029519Y017426D01*
X029635Y017543D02*
X030250Y017543D01*
X030250Y017659D02*
X029683Y017659D01*
X029725Y017776D02*
X030250Y017776D01*
X030250Y017893D02*
X029725Y017893D01*
X029719Y018009D02*
X030250Y018009D01*
X030250Y018126D02*
X029671Y018126D01*
X029606Y018243D02*
X030250Y018243D01*
X030250Y018359D02*
X029489Y018359D01*
X028773Y018359D02*
X026733Y018359D01*
X026850Y018243D02*
X028656Y018243D01*
X028591Y018126D02*
X026915Y018126D01*
X026963Y018009D02*
X028543Y018009D01*
X028537Y017893D02*
X026969Y017893D01*
X026969Y017776D02*
X028537Y017776D01*
X028579Y017659D02*
X026927Y017659D01*
X026879Y017543D02*
X028627Y017543D01*
X028743Y017426D02*
X026763Y017426D01*
X025987Y017426D02*
X021424Y017426D01*
X021541Y017543D02*
X025871Y017543D01*
X025823Y017659D02*
X021641Y017659D01*
X021641Y017776D02*
X025781Y017776D01*
X025781Y017893D02*
X021641Y017893D01*
X021641Y018009D02*
X025787Y018009D01*
X025835Y018126D02*
X021641Y018126D01*
X021641Y018243D02*
X025900Y018243D01*
X026017Y018359D02*
X021641Y018359D01*
X021641Y018476D02*
X030250Y018476D01*
X030250Y018593D02*
X021641Y018593D01*
X021641Y018709D02*
X025191Y018709D01*
X025174Y018726D02*
X025255Y018646D01*
X026472Y018646D01*
X026552Y018726D01*
X026552Y019943D01*
X026472Y020023D01*
X025255Y020023D01*
X025174Y019943D01*
X025174Y019531D01*
X024544Y019531D01*
X024544Y019608D01*
X024464Y019689D01*
X024173Y019689D01*
X023819Y020043D01*
X023656Y020043D01*
X023649Y020043D01*
X023649Y020218D01*
X023568Y020299D01*
X021820Y020299D01*
X021739Y020218D01*
X021739Y019474D01*
X021820Y019394D01*
X023568Y019394D01*
X023649Y019474D01*
X023649Y019649D01*
X023656Y019649D01*
X023875Y019430D01*
X023875Y019140D01*
X023956Y019059D01*
X024464Y019059D01*
X025174Y019059D01*
X025174Y019138D02*
X025174Y018726D01*
X025174Y018826D02*
X021641Y018826D01*
X021641Y018942D02*
X025174Y018942D01*
X025174Y019138D02*
X024542Y019138D01*
X024464Y019059D01*
X024249Y019334D02*
X024210Y019374D01*
X023737Y019846D01*
X022694Y019846D01*
X021739Y019876D02*
X021641Y019876D01*
X021641Y019992D02*
X021739Y019992D01*
X021739Y020109D02*
X021641Y020109D01*
X021641Y020226D02*
X021747Y020226D01*
X021616Y020342D02*
X030250Y020342D01*
X030250Y020226D02*
X023641Y020226D01*
X023649Y020109D02*
X030250Y020109D01*
X030250Y019992D02*
X026503Y019992D01*
X026552Y019876D02*
X030250Y019876D01*
X030250Y019759D02*
X026552Y019759D01*
X026552Y019642D02*
X030250Y019642D01*
X030250Y019526D02*
X026552Y019526D01*
X026552Y019409D02*
X030250Y019409D01*
X030250Y019292D02*
X026552Y019292D01*
X026552Y019176D02*
X030250Y019176D01*
X030250Y019059D02*
X026552Y019059D01*
X026552Y018942D02*
X030250Y018942D01*
X030250Y018826D02*
X026552Y018826D01*
X026535Y018709D02*
X030250Y018709D01*
X030250Y020459D02*
X021499Y020459D01*
X021383Y020576D02*
X030250Y020576D01*
X030250Y020692D02*
X021266Y020692D01*
X021149Y020809D02*
X030250Y020809D01*
X030250Y020926D02*
X021033Y020926D01*
X020916Y021042D02*
X030250Y021042D01*
X028284Y023609D02*
X018350Y023609D01*
X018233Y023725D02*
X019526Y023725D01*
X019446Y023842D02*
X018116Y023842D01*
X018098Y023959D02*
X019446Y023959D01*
X019446Y024075D02*
X018098Y024075D01*
X018098Y024192D02*
X019446Y024192D01*
X019446Y024309D02*
X018098Y024309D01*
X018098Y024425D02*
X019446Y024425D01*
X019446Y024542D02*
X018098Y024542D01*
X018098Y024659D02*
X019920Y024659D01*
X019640Y024775D02*
X018098Y024775D01*
X018098Y024892D02*
X019581Y024892D01*
X019576Y025008D02*
X018098Y025008D01*
X018098Y025125D02*
X019618Y025125D01*
X020216Y024892D02*
X023186Y024892D01*
X023186Y024775D02*
X020333Y024775D01*
X020361Y024659D02*
X023238Y024659D01*
X023304Y024542D02*
X022674Y024542D01*
X022674Y024425D02*
X023186Y024425D01*
X023501Y024177D02*
X021946Y024177D01*
X021218Y024192D02*
X020903Y024192D01*
X020903Y024309D02*
X021218Y024309D01*
X021218Y024425D02*
X020903Y024425D01*
X020903Y024542D02*
X021218Y024542D01*
X021218Y024075D02*
X020903Y024075D01*
X020903Y023959D02*
X021218Y023959D01*
X021218Y023842D02*
X020903Y023842D01*
X020823Y023725D02*
X021297Y023725D01*
X022595Y023725D02*
X028206Y023725D01*
X028206Y023842D02*
X022674Y023842D01*
X022674Y023959D02*
X023186Y023959D01*
X024131Y024177D02*
X028659Y024177D01*
X028777Y024295D01*
X028206Y024425D02*
X024446Y024425D01*
X024446Y023959D02*
X028206Y023959D01*
X025224Y019992D02*
X023870Y019992D01*
X023986Y019876D02*
X025174Y019876D01*
X025174Y019759D02*
X024103Y019759D01*
X023779Y019526D02*
X023649Y019526D01*
X023649Y019642D02*
X023663Y019642D01*
X023584Y019409D02*
X023875Y019409D01*
X023875Y019292D02*
X021641Y019292D01*
X021641Y019176D02*
X023875Y019176D01*
X023956Y019059D02*
X021641Y019059D01*
X021641Y019409D02*
X021804Y019409D01*
X021739Y019526D02*
X021641Y019526D01*
X021641Y019642D02*
X021739Y019642D01*
X021739Y019759D02*
X021641Y019759D01*
X020027Y020342D02*
X018757Y020342D01*
X018757Y020226D02*
X019266Y020226D01*
X019259Y020109D02*
X018757Y020109D01*
X018757Y019992D02*
X019259Y019992D01*
X019259Y019876D02*
X018757Y019876D01*
X018757Y020459D02*
X020027Y020459D01*
X017537Y020459D02*
X015292Y020459D01*
X015292Y019992D02*
X017537Y019992D01*
X017537Y019876D02*
X015292Y019876D01*
X014173Y019292D02*
X013737Y019292D01*
X013107Y019292D02*
X013107Y019292D01*
X013107Y019176D02*
X013107Y019176D01*
X013107Y019059D02*
X013107Y019059D01*
X013107Y018942D02*
X013107Y018942D01*
X013107Y018826D02*
X013107Y018826D01*
X013737Y018826D02*
X014172Y018826D01*
X012863Y017543D02*
X012683Y017543D01*
X012746Y017659D02*
X012567Y017659D01*
X012630Y017776D02*
X012497Y017776D01*
X012513Y017893D02*
X011139Y017893D01*
X011139Y018009D02*
X012448Y018009D01*
X012448Y018126D02*
X011139Y018126D01*
X011139Y018243D02*
X012448Y018243D01*
X012440Y018359D02*
X011139Y018359D01*
X011139Y018476D02*
X011930Y018476D01*
X011813Y018593D02*
X011139Y018593D01*
X011139Y018709D02*
X011697Y018709D01*
X011580Y018826D02*
X011139Y018826D01*
X011139Y018942D02*
X011463Y018942D01*
X011347Y019059D02*
X011139Y019059D01*
X011139Y019176D02*
X011230Y019176D01*
X011188Y019292D02*
X011139Y019292D01*
X011139Y019409D02*
X011188Y019409D01*
X011188Y019526D02*
X011139Y019526D01*
X011139Y019642D02*
X011188Y019642D01*
X011188Y019759D02*
X011050Y019759D01*
X011111Y019876D02*
X011188Y019876D01*
X011188Y019992D02*
X011111Y019992D01*
X010504Y019759D02*
X005177Y019759D01*
X005177Y019642D02*
X010037Y019642D01*
X010037Y019526D02*
X005177Y019526D01*
X005177Y019409D02*
X010037Y019409D01*
X010037Y019292D02*
X005177Y019292D01*
X005177Y019176D02*
X010037Y019176D01*
X010037Y019059D02*
X005177Y019059D01*
X005177Y018942D02*
X010037Y018942D01*
X010037Y018826D02*
X005177Y018826D01*
X005177Y018709D02*
X010037Y018709D01*
X010037Y018593D02*
X005177Y018593D01*
X005177Y018476D02*
X010037Y018476D01*
X010037Y018359D02*
X005177Y018359D01*
X005177Y018243D02*
X010037Y018243D01*
X010037Y018126D02*
X005177Y018126D01*
X005177Y018009D02*
X010037Y018009D01*
X010037Y017893D02*
X005177Y017893D01*
X005177Y017776D02*
X010037Y017776D01*
X010037Y017659D02*
X005177Y017659D01*
X005177Y017543D02*
X010037Y017543D01*
X010037Y017426D02*
X005177Y017426D01*
X005177Y017309D02*
X010037Y017309D01*
X010037Y017193D02*
X005177Y017193D01*
X005177Y019876D02*
X006495Y019876D01*
X006434Y019992D02*
X005177Y019992D01*
X005177Y020109D02*
X006434Y020109D01*
X006434Y020226D02*
X005177Y020226D01*
X005177Y020342D02*
X006434Y020342D01*
X006434Y020459D02*
X005177Y020459D01*
X005177Y020576D02*
X006434Y020576D01*
X006434Y020692D02*
X005177Y020692D01*
X005177Y020809D02*
X006434Y020809D01*
X006434Y020926D02*
X005177Y020926D01*
X005177Y021042D02*
X006434Y021042D01*
X006434Y021159D02*
X005177Y021159D01*
X005177Y021276D02*
X006434Y021276D01*
X005177Y021392D02*
X009800Y021392D01*
X009800Y021276D02*
X007970Y021276D01*
X007970Y021159D02*
X009800Y021159D01*
X009717Y021042D02*
X007970Y021042D01*
X007970Y020926D02*
X009601Y020926D01*
X009919Y020576D02*
X010086Y020576D01*
X010086Y020692D02*
X010035Y020692D01*
X010183Y020459D02*
X009802Y020459D01*
X010300Y020342D02*
X007970Y020342D01*
X007970Y020226D02*
X010416Y020226D01*
X010442Y020109D02*
X007970Y020109D01*
X007970Y019992D02*
X010442Y019992D01*
X010442Y019876D02*
X007908Y019876D01*
X009800Y021509D02*
X005177Y021509D01*
X005177Y021626D02*
X009800Y021626D01*
X009800Y021742D02*
X005177Y021742D01*
X005177Y021859D02*
X009800Y021859D01*
X009800Y021975D02*
X005177Y021975D01*
X005177Y022092D02*
X009800Y022092D01*
X009800Y022209D02*
X005177Y022209D01*
X005177Y022325D02*
X009800Y022325D01*
X009800Y022442D02*
X005177Y022442D01*
X005177Y022559D02*
X009800Y022559D01*
X009800Y022675D02*
X005177Y022675D01*
X005177Y022792D02*
X009800Y022792D01*
X009800Y022909D02*
X005177Y022909D01*
X005177Y023025D02*
X009800Y023025D01*
X009800Y023142D02*
X005177Y023142D01*
X005177Y023259D02*
X009800Y023259D01*
X009800Y023375D02*
X005177Y023375D01*
X005177Y023492D02*
X009800Y023492D01*
X009800Y023609D02*
X005177Y023609D01*
X005177Y023725D02*
X009800Y023725D01*
X009800Y023842D02*
X005177Y023842D01*
X005177Y023959D02*
X009800Y023959D01*
X009800Y024075D02*
X005177Y024075D01*
X005177Y024192D02*
X009800Y024192D01*
X009800Y024309D02*
X005177Y024309D01*
X005177Y024425D02*
X009800Y024425D01*
X009800Y024542D02*
X005177Y024542D01*
X005177Y024659D02*
X009800Y024659D01*
X009800Y024775D02*
X005177Y024775D01*
X005177Y024892D02*
X009800Y024892D01*
X009800Y025008D02*
X005177Y025008D01*
X005177Y025125D02*
X009800Y025125D01*
X009800Y025242D02*
X005177Y025242D01*
X005177Y025358D02*
X009800Y025358D01*
X009800Y025475D02*
X005177Y025475D01*
X005177Y025592D02*
X009800Y025592D01*
X009800Y025708D02*
X005177Y025708D01*
X005177Y025825D02*
X009800Y025825D01*
X009800Y025942D02*
X005177Y025942D01*
X005177Y026058D02*
X009800Y026058D01*
X009800Y026175D02*
X005177Y026175D01*
X005177Y026292D02*
X006434Y026292D01*
X006434Y026408D02*
X005177Y026408D01*
X005177Y026525D02*
X006434Y026525D01*
X006434Y026642D02*
X005177Y026642D01*
X005177Y026758D02*
X006434Y026758D01*
X006434Y026875D02*
X005177Y026875D01*
X005177Y026992D02*
X006434Y026992D01*
X006434Y027108D02*
X005177Y027108D01*
X005177Y027225D02*
X006434Y027225D01*
X006434Y027342D02*
X005177Y027342D01*
X005177Y027458D02*
X006434Y027458D01*
X006434Y027575D02*
X005177Y027575D01*
X005177Y027691D02*
X006496Y027691D01*
X005177Y027808D02*
X009613Y027808D01*
X009576Y027925D02*
X005177Y027925D01*
X005177Y028041D02*
X009586Y028041D01*
X009652Y028158D02*
X005177Y028158D01*
X005177Y028275D02*
X010084Y028275D01*
X010017Y028391D02*
X005177Y028391D01*
X005177Y028508D02*
X010017Y028508D01*
X010017Y028625D02*
X005177Y028625D01*
X005177Y028741D02*
X010017Y028741D01*
X010044Y028858D02*
X005177Y028858D01*
X005177Y028975D02*
X010017Y028975D01*
X010017Y029091D02*
X005177Y029091D01*
X005177Y029208D02*
X010017Y029208D01*
X010017Y029325D02*
X005177Y029325D01*
X005177Y029441D02*
X010017Y029441D01*
X009974Y029558D02*
X010061Y029558D01*
X009784Y029558D02*
X005177Y029558D01*
X005177Y029675D02*
X009623Y029675D01*
X009576Y029791D02*
X005177Y029791D01*
X005177Y029908D02*
X009577Y029908D01*
X009629Y030025D02*
X005177Y030025D01*
X005177Y030141D02*
X009800Y030141D01*
X009958Y030141D02*
X010068Y030141D01*
X010635Y030141D02*
X012054Y030141D01*
X012054Y030025D02*
X010686Y030025D01*
X010686Y029908D02*
X012054Y029908D01*
X012054Y029791D02*
X010686Y029791D01*
X010686Y029675D02*
X012054Y029675D01*
X012108Y029558D02*
X010642Y029558D01*
X010075Y030724D02*
X005177Y030724D01*
X005177Y030608D02*
X011766Y030608D01*
X011883Y030491D02*
X005177Y030491D01*
X005177Y030375D02*
X012000Y030375D01*
X012054Y030258D02*
X005177Y030258D01*
X005177Y030841D02*
X009958Y030841D01*
X009850Y030958D02*
X005177Y030958D01*
X005177Y031074D02*
X009850Y031074D01*
X009850Y031191D02*
X005177Y031191D01*
X005177Y031308D02*
X009850Y031308D01*
X009850Y031424D02*
X005177Y031424D01*
X005177Y031541D02*
X009850Y031541D01*
X009850Y031658D02*
X005177Y031658D01*
X005177Y031774D02*
X009850Y031774D01*
X009850Y031891D02*
X005177Y031891D01*
X005177Y032008D02*
X009850Y032008D01*
X009850Y032124D02*
X005177Y032124D01*
X005177Y032241D02*
X009740Y032241D01*
X009712Y032358D02*
X005177Y032358D01*
X005177Y032474D02*
X009712Y032474D01*
X009712Y032591D02*
X005177Y032591D01*
X005177Y032708D02*
X009712Y032708D01*
X009759Y032824D02*
X005177Y032824D01*
X005177Y032941D02*
X009850Y032941D01*
X009850Y033058D02*
X005177Y033058D01*
X005177Y033174D02*
X009850Y033174D01*
X009850Y033291D02*
X005177Y033291D01*
X005177Y033408D02*
X009850Y033408D01*
X009850Y033524D02*
X005177Y033524D01*
X005177Y033641D02*
X007871Y033641D01*
X007871Y033757D02*
X005177Y033757D01*
X005177Y033874D02*
X007871Y033874D01*
X007871Y033991D02*
X005177Y033991D01*
X005177Y034107D02*
X007871Y034107D01*
X007871Y034224D02*
X005177Y034224D01*
X005177Y034341D02*
X007871Y034341D01*
X007871Y034457D02*
X005177Y034457D01*
X005177Y034574D02*
X007877Y034574D01*
X010224Y033524D02*
X011739Y033524D01*
X011739Y033408D02*
X010224Y033408D01*
X010224Y033291D02*
X011739Y033291D01*
X011739Y033174D02*
X010224Y033174D01*
X010224Y033058D02*
X011739Y033058D01*
X011739Y032941D02*
X010224Y032941D01*
X010314Y032824D02*
X010398Y032824D01*
X010934Y032824D02*
X011028Y032824D01*
X010981Y032777D02*
X010981Y032270D01*
X010981Y032777D01*
X010981Y032708D02*
X010981Y032708D01*
X010981Y032591D02*
X010981Y032591D01*
X010981Y032474D02*
X010981Y032474D01*
X010981Y032358D02*
X010981Y032358D01*
X010981Y032270D02*
X010901Y032189D01*
X010987Y032153D01*
X011042Y032208D01*
X010981Y032270D01*
X010953Y032241D02*
X011010Y032241D01*
X011564Y032824D02*
X011648Y032824D01*
X012113Y032941D02*
X015308Y032941D01*
X015424Y033058D02*
X012113Y033058D01*
X012113Y033174D02*
X015541Y033174D01*
X015658Y033291D02*
X012113Y033291D01*
X012113Y033408D02*
X015774Y033408D01*
X015891Y033524D02*
X012113Y033524D01*
X012204Y032824D02*
X015191Y032824D01*
X015074Y032708D02*
X012251Y032708D01*
X012251Y032591D02*
X014958Y032591D01*
X014841Y032474D02*
X012251Y032474D01*
X012251Y032358D02*
X014724Y032358D01*
X014608Y032241D02*
X012222Y032241D01*
X012241Y032124D02*
X014491Y032124D01*
X014374Y032008D02*
X012241Y032008D01*
X012241Y031891D02*
X014258Y031891D01*
X014141Y031774D02*
X012241Y031774D01*
X012241Y031658D02*
X014024Y031658D01*
X013983Y031541D02*
X012218Y031541D01*
X012241Y031424D02*
X013983Y031424D01*
X013983Y031308D02*
X012241Y031308D01*
X012263Y031191D02*
X013983Y031191D01*
X013983Y031074D02*
X012380Y031074D01*
X012497Y030958D02*
X013983Y030958D01*
X013983Y030841D02*
X012613Y030841D01*
X012664Y030724D02*
X013983Y030724D01*
X013983Y030608D02*
X012664Y030608D01*
X012664Y030491D02*
X013167Y030491D01*
X013072Y030375D02*
X012664Y030375D01*
X012664Y030258D02*
X013041Y030258D01*
X012949Y030141D02*
X012664Y030141D01*
X012664Y030025D02*
X012779Y030025D01*
X012726Y029908D02*
X012664Y029908D01*
X012718Y029791D02*
X012726Y029791D01*
X012341Y029325D02*
X011946Y029325D01*
X011946Y029441D02*
X012224Y029441D01*
X011946Y028508D02*
X012528Y028508D01*
X012412Y028391D02*
X011946Y028391D01*
X011878Y028275D02*
X012295Y028275D01*
X012290Y028158D02*
X010686Y028158D01*
X010686Y028041D02*
X012290Y028041D01*
X012290Y027925D02*
X010686Y027925D01*
X010686Y027808D02*
X012290Y027808D01*
X012290Y027691D02*
X010665Y027691D01*
X010618Y028275D02*
X010714Y028275D01*
X011248Y028275D02*
X011344Y028275D01*
X012290Y027575D02*
X007970Y027575D01*
X007970Y027458D02*
X012266Y027458D01*
X012149Y027342D02*
X007970Y027342D01*
X007970Y027225D02*
X012033Y027225D01*
X011916Y027108D02*
X009802Y027108D01*
X009918Y026992D02*
X011799Y026992D01*
X011683Y026875D02*
X010035Y026875D01*
X010151Y026758D02*
X011566Y026758D01*
X011449Y026642D02*
X010268Y026642D01*
X010273Y026525D02*
X011333Y026525D01*
X011216Y026408D02*
X010273Y026408D01*
X010273Y026292D02*
X011099Y026292D01*
X010983Y026175D02*
X010273Y026175D01*
X010273Y026058D02*
X010866Y026058D01*
X010749Y025942D02*
X010273Y025942D01*
X010273Y025825D02*
X010633Y025825D01*
X010590Y025708D02*
X010273Y025708D01*
X010273Y025592D02*
X010590Y025592D01*
X010590Y025475D02*
X010273Y025475D01*
X010273Y025358D02*
X010590Y025358D01*
X010590Y025242D02*
X010273Y025242D01*
X010273Y025125D02*
X010590Y025125D01*
X010590Y025008D02*
X010273Y025008D01*
X010273Y024892D02*
X010590Y024892D01*
X010590Y024775D02*
X010273Y024775D01*
X010273Y024659D02*
X010590Y024659D01*
X010590Y024542D02*
X010273Y024542D01*
X010273Y024425D02*
X010590Y024425D01*
X010590Y024309D02*
X010273Y024309D01*
X010273Y024192D02*
X010590Y024192D01*
X010590Y024075D02*
X010273Y024075D01*
X010273Y023959D02*
X010590Y023959D01*
X010590Y023842D02*
X010273Y023842D01*
X010273Y023725D02*
X010590Y023725D01*
X010590Y023609D02*
X010273Y023609D01*
X010273Y023492D02*
X010590Y023492D01*
X010590Y023375D02*
X010273Y023375D01*
X010273Y023259D02*
X010590Y023259D01*
X010590Y023142D02*
X010273Y023142D01*
X010273Y023025D02*
X010590Y023025D01*
X010590Y022909D02*
X010273Y022909D01*
X010273Y022792D02*
X010590Y022792D01*
X010590Y022675D02*
X010273Y022675D01*
X010273Y022559D02*
X010590Y022559D01*
X010590Y022442D02*
X010273Y022442D01*
X010273Y022325D02*
X010590Y022325D01*
X010590Y022209D02*
X010273Y022209D01*
X010273Y022092D02*
X010590Y022092D01*
X010590Y021975D02*
X010273Y021975D01*
X010273Y021859D02*
X010590Y021859D01*
X010590Y021742D02*
X010273Y021742D01*
X010273Y021626D02*
X010590Y021626D01*
X010590Y021509D02*
X010273Y021509D01*
X010273Y021392D02*
X010590Y021392D01*
X010590Y021276D02*
X010273Y021276D01*
X010273Y021159D02*
X010590Y021159D01*
X010590Y021042D02*
X010365Y021042D01*
X011139Y017776D02*
X011828Y017776D01*
X011837Y017309D02*
X011139Y017309D01*
X011139Y017193D02*
X011853Y017193D01*
X011828Y017076D02*
X011063Y017076D01*
X012800Y017426D02*
X012980Y017426D01*
X014943Y015676D02*
X015119Y015676D01*
X015066Y015093D02*
X014996Y015093D01*
X014991Y014976D02*
X014845Y014976D01*
X014918Y014903D02*
X014918Y014443D01*
X014918Y014443D01*
X014918Y014903D01*
X014918Y014860D02*
X014918Y014860D01*
X014918Y014743D02*
X014918Y014743D01*
X014918Y014626D02*
X014918Y014626D01*
X014918Y014510D02*
X014918Y014510D01*
X015550Y014976D02*
X015621Y014976D01*
X015661Y015093D02*
X016066Y015093D01*
X016105Y014976D02*
X016176Y014976D01*
X016178Y014700D02*
X016178Y014700D01*
X016178Y014396D01*
X016178Y014700D01*
X016178Y014626D02*
X016178Y014626D01*
X016178Y014510D02*
X016178Y014510D01*
X016176Y014393D02*
X016181Y014393D01*
X015994Y015210D02*
X015732Y015210D01*
X015761Y015326D02*
X015966Y015326D01*
X015968Y015443D02*
X015759Y015443D01*
X015710Y015560D02*
X016016Y015560D01*
X016119Y015676D02*
X015608Y015676D01*
X016608Y015676D02*
X016784Y015676D01*
X016731Y015093D02*
X016661Y015093D01*
X016465Y011477D02*
X019792Y011477D01*
X017911Y008910D02*
X017475Y008910D01*
X017359Y008794D02*
X017911Y008794D01*
X017815Y008677D02*
X017242Y008677D01*
X017125Y008560D02*
X017699Y008560D01*
X016558Y011127D02*
X016513Y011127D01*
X021168Y015560D02*
X021739Y015560D01*
X021739Y015676D02*
X021168Y015676D01*
X021168Y015793D02*
X021739Y015793D01*
X021739Y015909D02*
X021168Y015909D01*
X021168Y016026D02*
X021739Y016026D01*
X021739Y016143D02*
X021168Y016143D01*
X021168Y016259D02*
X021739Y016259D01*
X022694Y015909D02*
X023737Y015909D01*
X024210Y016382D01*
X024249Y016421D01*
X028777Y016421D01*
X028206Y016143D02*
X024540Y016143D01*
X024133Y016026D02*
X028206Y016026D01*
X028206Y015909D02*
X024016Y015909D01*
X023899Y015793D02*
X028226Y015793D01*
X028206Y016726D02*
X020724Y016726D01*
X020607Y016609D02*
X023875Y016609D01*
X023875Y016493D02*
X020491Y016493D01*
X020401Y016376D02*
X023875Y016376D01*
X023809Y016259D02*
X023649Y016259D01*
X023649Y016143D02*
X023692Y016143D01*
X021074Y017076D02*
X028253Y017076D01*
X028206Y016959D02*
X020957Y016959D01*
X020841Y016843D02*
X028206Y016843D01*
X025863Y019334D02*
X024249Y019334D01*
X024510Y019642D02*
X025174Y019642D01*
X023600Y010427D02*
X023521Y010427D01*
X023521Y010310D02*
X023600Y010310D01*
X023600Y010193D02*
X023482Y010193D01*
X022894Y009494D02*
X022848Y009494D01*
X022871Y009377D02*
X022871Y009377D01*
X022871Y009260D02*
X022871Y009260D01*
X022871Y009144D02*
X022871Y009144D01*
X022871Y009027D02*
X022871Y009027D01*
X022819Y008910D02*
X022923Y008910D01*
X022871Y008794D02*
X022871Y008794D01*
X022871Y008677D02*
X022871Y008677D01*
X022871Y008560D02*
X022871Y008560D01*
X022871Y008444D02*
X022871Y008444D01*
X022866Y008327D02*
X022877Y008327D01*
X022871Y008094D02*
X022871Y008094D01*
X022871Y007977D02*
X022871Y007977D01*
X022871Y007860D02*
X022871Y007860D01*
X022871Y007744D02*
X022871Y007744D01*
X022822Y007627D02*
X022947Y007627D01*
X024766Y008794D02*
X025883Y008794D01*
X025883Y008910D02*
X024823Y008910D01*
X024827Y009027D02*
X025883Y009027D01*
X025883Y009144D02*
X024959Y009144D01*
X025042Y009260D02*
X025883Y009260D01*
X025883Y009377D02*
X025064Y009377D01*
X025039Y009494D02*
X025883Y009494D01*
X025883Y009610D02*
X024953Y009610D01*
X024569Y009610D02*
X024306Y009610D01*
X025489Y008327D02*
X025844Y008327D01*
X025844Y008210D02*
X025489Y008210D01*
X025489Y008094D02*
X025844Y008094D01*
X025877Y007977D02*
X025456Y007977D01*
X026605Y006927D02*
X026696Y006927D01*
X027235Y006927D02*
X030250Y006927D01*
X030250Y006811D02*
X027300Y006811D01*
X027381Y006694D02*
X030250Y006694D01*
X030250Y006577D02*
X027498Y006577D01*
X027615Y006461D02*
X030250Y006461D01*
X029351Y006344D02*
X028320Y006344D01*
X028363Y006227D02*
X029308Y006227D01*
X029308Y006111D02*
X028363Y006111D01*
X028363Y005994D02*
X029308Y005994D01*
X028698Y005411D02*
X028363Y005411D01*
X028363Y005294D02*
X028698Y005294D01*
X028382Y005177D02*
X028338Y005177D01*
X028197Y003194D02*
X027262Y003194D01*
X027145Y003078D02*
X028295Y003078D01*
X028363Y002961D02*
X028698Y002961D01*
X028698Y002844D02*
X028363Y002844D01*
X028363Y002728D02*
X028698Y002728D01*
X028363Y002144D02*
X029308Y002144D01*
X029308Y002028D02*
X028363Y002028D01*
X028363Y001911D02*
X029308Y001911D01*
X030250Y001794D02*
X026492Y001794D01*
X026375Y001678D02*
X030250Y001678D01*
X027222Y001911D02*
X026609Y001911D01*
X026725Y002028D02*
X027222Y002028D01*
X027222Y002144D02*
X026808Y002144D01*
X026808Y002261D02*
X027222Y002261D01*
X027222Y002378D02*
X026808Y002378D01*
X026808Y002494D02*
X027222Y002494D01*
X027222Y002611D02*
X026808Y002611D01*
X026882Y002728D02*
X027222Y002728D01*
X027222Y002844D02*
X026912Y002844D01*
X027029Y002961D02*
X027222Y002961D01*
X026661Y006344D02*
X026640Y006344D01*
X014622Y025125D02*
X013846Y025125D01*
X013846Y025242D02*
X014616Y025242D01*
X014654Y025358D02*
X014553Y025358D01*
X014599Y025942D02*
X014608Y025942D01*
X014613Y026525D02*
X016086Y026525D01*
X015969Y026642D02*
X014576Y026642D01*
X014613Y026758D02*
X015852Y026758D01*
X015736Y026875D02*
X014613Y026875D01*
X014613Y026992D02*
X015619Y026992D01*
X015502Y027108D02*
X014613Y027108D01*
X014575Y027225D02*
X015386Y027225D01*
X015269Y027342D02*
X014357Y027342D01*
X014357Y027458D02*
X014444Y027458D01*
X013983Y027225D02*
X013979Y027225D01*
X013964Y027108D02*
X013862Y027108D01*
X013846Y026992D02*
X013964Y026992D01*
X013964Y026875D02*
X013846Y026875D01*
X013846Y026758D02*
X013964Y026758D01*
X014001Y026642D02*
X013846Y026642D01*
X013846Y026525D02*
X013964Y026525D01*
X013964Y026408D02*
X013846Y026408D01*
X013846Y026292D02*
X013964Y026292D01*
X013964Y026175D02*
X013846Y026175D01*
X013846Y026058D02*
X013964Y026058D01*
X013978Y025942D02*
X013846Y025942D01*
X013846Y025825D02*
X013964Y025825D01*
X013964Y025708D02*
X013846Y025708D01*
X013846Y025592D02*
X013964Y025592D01*
X013964Y025475D02*
X013846Y025475D01*
X013846Y025358D02*
X014024Y025358D01*
X014748Y028158D02*
X015234Y028158D01*
X015173Y028275D02*
X013336Y028275D01*
X013333Y028391D02*
X014649Y028391D01*
X014611Y028508D02*
X013336Y028508D01*
X013334Y028625D02*
X014613Y028625D01*
X014611Y028741D02*
X013336Y028741D01*
X013261Y028858D02*
X014611Y028858D01*
X014611Y028975D02*
X013290Y028975D01*
X013336Y029091D02*
X015001Y029091D01*
X014620Y029208D02*
X013327Y029208D01*
X013336Y029325D02*
X014611Y029325D01*
X014611Y029441D02*
X013336Y029441D01*
X013480Y029558D02*
X013483Y029558D01*
X013677Y029558D02*
X014073Y029558D01*
X013981Y029675D02*
X013769Y029675D01*
X013769Y029791D02*
X013981Y029791D01*
X013981Y029908D02*
X013769Y029908D01*
X013767Y030025D02*
X013983Y030025D01*
X013983Y030141D02*
X013707Y030141D01*
X013646Y030258D02*
X013983Y030258D01*
X013983Y030375D02*
X013616Y030375D01*
X013521Y030491D02*
X013983Y030491D01*
X014751Y030005D02*
X014760Y030014D01*
X015172Y030014D01*
X015214Y030055D01*
X015214Y030006D01*
X015294Y029925D01*
X015802Y029925D01*
X015294Y029925D01*
X015214Y029844D01*
X015214Y029679D01*
X015050Y029679D01*
X015048Y029681D01*
X014753Y029681D01*
X014753Y029976D01*
X014751Y029978D01*
X014751Y030005D01*
X014753Y029908D02*
X015277Y029908D01*
X015214Y030025D02*
X015183Y030025D01*
X015214Y029791D02*
X014753Y029791D01*
X014467Y029558D02*
X014464Y029558D01*
X014270Y029558D02*
X014267Y029558D01*
X015819Y029908D02*
X030250Y029908D01*
X030250Y030025D02*
X015883Y030025D01*
X015883Y030141D02*
X030250Y030141D01*
X030250Y030258D02*
X015883Y030258D01*
X015883Y030375D02*
X030250Y030375D01*
X030250Y030491D02*
X015866Y030491D01*
X015865Y030608D02*
X030250Y030608D01*
X030250Y030724D02*
X015873Y030724D01*
X015873Y030841D02*
X030250Y030841D01*
X030250Y030958D02*
X015873Y030958D01*
X015873Y031074D02*
X030250Y031074D01*
X030250Y031191D02*
X015808Y031191D01*
X015863Y031308D02*
X030250Y031308D01*
X030250Y031424D02*
X024446Y031424D01*
X024446Y031403D02*
X024446Y031694D01*
X024724Y031972D01*
X028206Y031972D01*
X028206Y031561D01*
X028287Y031480D01*
X029267Y031480D01*
X029348Y031561D01*
X029348Y032777D01*
X029267Y032858D01*
X028287Y032858D01*
X028206Y032777D01*
X028206Y032366D01*
X024561Y032366D01*
X024446Y032251D01*
X024446Y032251D01*
X024187Y031992D01*
X023897Y031992D01*
X023816Y031911D01*
X023816Y031403D01*
X023897Y031323D01*
X024365Y031323D01*
X024446Y031403D01*
X024446Y031541D02*
X028226Y031541D01*
X028206Y031658D02*
X024446Y031658D01*
X024526Y031774D02*
X028206Y031774D01*
X028206Y031891D02*
X024643Y031891D01*
X024643Y032169D02*
X024131Y031657D01*
X023816Y031658D02*
X023816Y031658D01*
X023816Y031774D02*
X023816Y031774D01*
X023816Y031891D02*
X023816Y031891D01*
X023816Y031911D02*
X023735Y031992D01*
X023698Y031992D01*
X023698Y032110D01*
X023745Y032110D01*
X023826Y032191D01*
X023826Y032699D01*
X023745Y032779D01*
X023698Y032779D01*
X023698Y032897D01*
X023735Y032897D01*
X023816Y032978D01*
X023816Y033486D01*
X023735Y033567D01*
X023267Y033567D01*
X023186Y033486D01*
X023186Y032978D01*
X023267Y032897D01*
X023304Y032897D01*
X023304Y032779D01*
X023257Y032779D01*
X023176Y032699D01*
X023176Y032642D01*
X022783Y032642D01*
X022783Y032817D01*
X022702Y032897D01*
X021584Y032897D01*
X021503Y032817D01*
X021503Y032073D01*
X021584Y031992D01*
X022702Y031992D01*
X022783Y032073D01*
X022783Y032248D01*
X023176Y032248D01*
X023176Y032191D01*
X023257Y032110D01*
X023304Y032110D01*
X023304Y031992D01*
X023267Y031992D01*
X023186Y031911D01*
X023186Y031403D01*
X023267Y031323D01*
X023735Y031323D01*
X023816Y031403D01*
X023816Y031911D01*
X023698Y032008D02*
X024203Y032008D01*
X024320Y032124D02*
X023759Y032124D01*
X023826Y032241D02*
X024436Y032241D01*
X024553Y032358D02*
X023826Y032358D01*
X023826Y032474D02*
X028206Y032474D01*
X028206Y032591D02*
X023826Y032591D01*
X023817Y032708D02*
X028206Y032708D01*
X028253Y032824D02*
X023698Y032824D01*
X023779Y032941D02*
X030250Y032941D01*
X030250Y033058D02*
X029310Y033058D01*
X029249Y033032D02*
X029467Y033123D01*
X029634Y033289D01*
X029725Y033508D01*
X029725Y033744D01*
X029634Y033962D01*
X029467Y034129D01*
X029249Y034219D01*
X029013Y034219D01*
X028795Y034129D01*
X028628Y033962D01*
X028537Y033744D01*
X028537Y033508D01*
X028628Y033289D01*
X028795Y033123D01*
X029013Y033032D01*
X029249Y033032D01*
X029301Y032824D02*
X030250Y032824D01*
X030250Y032708D02*
X029348Y032708D01*
X029348Y032591D02*
X030250Y032591D01*
X030250Y032474D02*
X029348Y032474D01*
X029348Y032358D02*
X030250Y032358D01*
X030250Y032241D02*
X029348Y032241D01*
X029348Y032124D02*
X030250Y032124D01*
X030250Y032008D02*
X029348Y032008D01*
X029348Y031891D02*
X030250Y031891D01*
X030250Y031774D02*
X029348Y031774D01*
X029348Y031658D02*
X030250Y031658D01*
X030250Y031541D02*
X029328Y031541D01*
X028777Y032169D02*
X024643Y032169D01*
X023816Y031541D02*
X023816Y031541D01*
X023816Y031424D02*
X023816Y031424D01*
X023501Y031657D02*
X023501Y032445D01*
X022143Y032445D01*
X022783Y032241D02*
X023176Y032241D01*
X023243Y032124D02*
X022783Y032124D01*
X022718Y032008D02*
X023304Y032008D01*
X023186Y031891D02*
X015102Y031891D01*
X015218Y032008D02*
X020190Y032008D01*
X020125Y032124D02*
X015335Y032124D01*
X015452Y032241D02*
X020125Y032241D01*
X020125Y032708D02*
X015603Y032708D01*
X015720Y032824D02*
X020133Y032824D01*
X021340Y032008D02*
X021568Y032008D01*
X021503Y032124D02*
X021405Y032124D01*
X021405Y032241D02*
X021503Y032241D01*
X021503Y032358D02*
X021405Y032358D01*
X021405Y032474D02*
X021503Y032474D01*
X021503Y032591D02*
X021405Y032591D01*
X021405Y032708D02*
X021503Y032708D01*
X021511Y032824D02*
X021397Y032824D01*
X022775Y032824D02*
X023304Y032824D01*
X023223Y032941D02*
X015836Y032941D01*
X015953Y033058D02*
X023186Y033058D01*
X023186Y033174D02*
X016070Y033174D01*
X016186Y033291D02*
X023186Y033291D01*
X023186Y033408D02*
X016303Y033408D01*
X016420Y033524D02*
X023224Y033524D01*
X023267Y033685D02*
X023735Y033685D01*
X023816Y033766D01*
X023816Y034273D01*
X023735Y034354D01*
X023698Y034354D01*
X023698Y034472D01*
X023745Y034472D01*
X023826Y034553D01*
X023826Y035061D01*
X023745Y035142D01*
X023698Y035142D01*
X023698Y035260D01*
X023735Y035260D01*
X023816Y035340D01*
X023897Y035260D01*
X024187Y035260D01*
X024561Y034886D01*
X024724Y034886D01*
X025174Y034886D01*
X025174Y034474D01*
X025255Y034394D01*
X026472Y034394D01*
X026552Y034474D01*
X026552Y035691D01*
X026472Y035771D01*
X025255Y035771D01*
X025174Y035691D01*
X025174Y035279D01*
X024724Y035279D01*
X024446Y035558D01*
X024446Y035848D01*
X024365Y035929D01*
X023897Y035929D01*
X023816Y035848D01*
X023816Y035340D01*
X023816Y035848D01*
X023735Y035929D01*
X023267Y035929D01*
X023186Y035848D01*
X023186Y035340D01*
X023267Y035260D01*
X023304Y035260D01*
X023304Y035142D01*
X023257Y035142D01*
X023176Y035061D01*
X023176Y035004D01*
X022783Y035004D01*
X022783Y035179D01*
X022702Y035260D01*
X021584Y035260D01*
X021503Y035179D01*
X021503Y034435D01*
X021584Y034354D01*
X022702Y034354D01*
X022783Y034435D01*
X022783Y034610D01*
X023176Y034610D01*
X023176Y034553D01*
X023257Y034472D01*
X023304Y034472D01*
X023304Y034354D01*
X023267Y034354D01*
X023186Y034273D01*
X023186Y033766D01*
X023267Y033685D01*
X023194Y033757D02*
X016653Y033757D01*
X016536Y033641D02*
X025781Y033641D01*
X025781Y033744D02*
X025781Y033508D01*
X025872Y033289D01*
X026039Y033123D01*
X026257Y033032D01*
X026493Y033032D01*
X026711Y033123D01*
X026878Y033289D01*
X026969Y033508D01*
X026969Y033744D01*
X026878Y033962D01*
X026711Y034129D01*
X026493Y034219D01*
X026257Y034219D01*
X026039Y034129D01*
X025872Y033962D01*
X025781Y033744D01*
X025787Y033757D02*
X023808Y033757D01*
X023816Y033874D02*
X025835Y033874D01*
X025900Y033991D02*
X023816Y033991D01*
X023816Y034107D02*
X026017Y034107D01*
X026535Y034457D02*
X030250Y034457D01*
X030250Y034341D02*
X023749Y034341D01*
X023698Y034457D02*
X025191Y034457D01*
X025174Y034574D02*
X023826Y034574D01*
X023826Y034691D02*
X025174Y034691D01*
X025174Y034807D02*
X023826Y034807D01*
X023826Y034924D02*
X024523Y034924D01*
X024406Y035041D02*
X023826Y035041D01*
X023698Y035157D02*
X024290Y035157D01*
X024643Y035083D02*
X024131Y035594D01*
X023816Y035624D02*
X023816Y035624D01*
X023816Y035741D02*
X023816Y035741D01*
X023807Y035857D02*
X023825Y035857D01*
X023816Y035507D02*
X023816Y035507D01*
X023816Y035391D02*
X023816Y035391D01*
X023750Y035274D02*
X023882Y035274D01*
X024496Y035507D02*
X025174Y035507D01*
X025174Y035391D02*
X024613Y035391D01*
X024446Y035624D02*
X025174Y035624D01*
X025224Y035741D02*
X024446Y035741D01*
X024437Y035857D02*
X030250Y035857D01*
X030250Y035741D02*
X026502Y035741D01*
X026552Y035624D02*
X030250Y035624D01*
X030250Y035507D02*
X026552Y035507D01*
X026552Y035391D02*
X030250Y035391D01*
X030250Y035274D02*
X026552Y035274D01*
X026552Y035157D02*
X030250Y035157D01*
X030250Y035041D02*
X026552Y035041D01*
X026552Y034924D02*
X030250Y034924D01*
X030250Y034807D02*
X026552Y034807D01*
X026552Y034691D02*
X030250Y034691D01*
X030250Y034574D02*
X026552Y034574D01*
X026733Y034107D02*
X028773Y034107D01*
X028656Y033991D02*
X026850Y033991D01*
X026915Y033874D02*
X028591Y033874D01*
X028543Y033757D02*
X026963Y033757D01*
X026969Y033641D02*
X028537Y033641D01*
X028537Y033524D02*
X026969Y033524D01*
X026927Y033408D02*
X028579Y033408D01*
X028627Y033291D02*
X026879Y033291D01*
X026763Y033174D02*
X028743Y033174D01*
X028951Y033058D02*
X026555Y033058D01*
X026196Y033058D02*
X023816Y033058D01*
X023816Y033174D02*
X025987Y033174D01*
X025871Y033291D02*
X023816Y033291D01*
X023816Y033408D02*
X025823Y033408D01*
X025781Y033524D02*
X023778Y033524D01*
X023501Y033232D02*
X023501Y032445D01*
X023185Y032708D02*
X022783Y032708D01*
X023186Y031774D02*
X015843Y031774D01*
X015863Y031658D02*
X023186Y031658D01*
X023186Y031541D02*
X015863Y031541D01*
X015863Y031424D02*
X023186Y031424D01*
X023186Y033874D02*
X016770Y033874D01*
X016886Y033991D02*
X023186Y033991D01*
X023186Y034107D02*
X017003Y034107D01*
X017120Y034224D02*
X023186Y034224D01*
X023253Y034341D02*
X017236Y034341D01*
X017353Y034457D02*
X020125Y034457D01*
X020125Y034574D02*
X017470Y034574D01*
X017174Y034807D02*
X005177Y034807D01*
X005177Y034691D02*
X017057Y034691D01*
X016941Y034574D02*
X014086Y034574D01*
X014092Y034457D02*
X016824Y034457D01*
X016707Y034341D02*
X014092Y034341D01*
X014092Y034224D02*
X016591Y034224D01*
X016474Y034107D02*
X014092Y034107D01*
X014092Y033991D02*
X016358Y033991D01*
X016241Y033874D02*
X014092Y033874D01*
X014092Y033757D02*
X016124Y033757D01*
X016008Y033641D02*
X014092Y033641D01*
X014985Y031774D02*
X015254Y031774D01*
X015233Y031658D02*
X014868Y031658D01*
X014752Y031541D02*
X015233Y031541D01*
X015233Y031424D02*
X014635Y031424D01*
X015883Y029791D02*
X030250Y029791D01*
X030250Y033174D02*
X029519Y033174D01*
X029635Y033291D02*
X030250Y033291D01*
X030250Y033408D02*
X029683Y033408D01*
X029725Y033524D02*
X030250Y033524D01*
X030250Y033641D02*
X029725Y033641D01*
X029719Y033757D02*
X030250Y033757D01*
X030250Y033874D02*
X029671Y033874D01*
X029606Y033991D02*
X030250Y033991D01*
X030250Y034107D02*
X029489Y034107D01*
X030250Y034224D02*
X023816Y034224D01*
X023501Y034020D02*
X023501Y034807D01*
X022143Y034807D01*
X022783Y034574D02*
X023176Y034574D01*
X023304Y034457D02*
X022783Y034457D01*
X022783Y035041D02*
X023176Y035041D01*
X023304Y035157D02*
X022783Y035157D01*
X023186Y035391D02*
X005177Y035391D01*
X005177Y035507D02*
X023186Y035507D01*
X023186Y035624D02*
X005177Y035624D01*
X005177Y035741D02*
X023186Y035741D01*
X023195Y035857D02*
X005177Y035857D01*
X005177Y035974D02*
X030250Y035974D01*
X030250Y036091D02*
X005177Y036091D01*
X005177Y036207D02*
X030250Y036207D01*
X030250Y036324D02*
X005177Y036324D01*
X005177Y036441D02*
X030250Y036441D01*
X030250Y036557D02*
X005177Y036557D01*
X005177Y036674D02*
X030250Y036674D01*
X030250Y036790D02*
X005177Y036790D01*
X005177Y036907D02*
X030250Y036907D01*
X030250Y037024D02*
X005177Y037024D01*
X005177Y037140D02*
X030250Y037140D01*
X030250Y037257D02*
X005177Y037257D01*
X005177Y035274D02*
X023253Y035274D01*
X023501Y035594D02*
X023501Y034807D01*
X024643Y035083D02*
X025863Y035083D01*
X021503Y035041D02*
X021405Y035041D01*
X021405Y035157D02*
X021503Y035157D01*
X021503Y034924D02*
X021405Y034924D01*
X021405Y034807D02*
X021503Y034807D01*
X021503Y034691D02*
X021405Y034691D01*
X021405Y034574D02*
X021503Y034574D01*
X021503Y034457D02*
X021405Y034457D01*
X020125Y035041D02*
X005177Y035041D01*
X005177Y035157D02*
X020125Y035157D01*
X017291Y034924D02*
X005177Y034924D01*
X010523Y034574D02*
X011440Y034574D01*
X011434Y034457D02*
X010529Y034457D01*
X010529Y034341D02*
X011434Y034341D01*
X011434Y034224D02*
X010529Y034224D01*
X010529Y034107D02*
X011434Y034107D01*
X011434Y033991D02*
X010529Y033991D01*
X010529Y033874D02*
X011434Y033874D01*
X011434Y033757D02*
X010529Y033757D01*
X010529Y033641D02*
X011434Y033641D01*
X015883Y029675D02*
X016001Y029675D01*
X016001Y029558D02*
X015883Y029558D01*
X010038Y027691D02*
X010030Y027691D01*
X009728Y027691D02*
X007908Y027691D01*
X007970Y026642D02*
X009600Y026642D01*
X009717Y026525D02*
X007970Y026525D01*
X007970Y026408D02*
X009800Y026408D01*
X009800Y026292D02*
X007970Y026292D01*
M02*
