G75*
G70*
%OFA0B0*%
%FSLAX24Y24*%
%IPPOS*%
%LPD*%
%AMOC8*
5,1,8,0,0,1.08239X$1,22.5*
%
%ADD10C,0.1114*%
%ADD11C,0.0690*%
%ADD12C,0.0118*%
%ADD13C,0.0330*%
D10*
X017878Y016303D03*
X016027Y017484D03*
X017878Y018665D03*
D11*
X021445Y015122D03*
X022445Y015122D03*
X023445Y015122D03*
X023445Y013626D03*
X022445Y013626D03*
X021445Y013626D03*
X030791Y013449D03*
X030791Y014449D03*
X030791Y012449D03*
X013161Y002661D03*
X012161Y002661D03*
X011161Y002661D03*
X010161Y002661D03*
X009161Y002661D03*
X008161Y002661D03*
X007161Y002661D03*
X006161Y002661D03*
X005161Y002661D03*
X004161Y002661D03*
X004161Y001161D03*
X005161Y001161D03*
X006161Y001161D03*
X007161Y001161D03*
X008161Y001161D03*
X009161Y001161D03*
X010161Y001161D03*
X011161Y001161D03*
X012161Y001161D03*
X013161Y001161D03*
X004417Y004492D03*
X003417Y004492D03*
X002417Y004492D03*
X001417Y004492D03*
X001417Y006067D03*
X002417Y006067D03*
X003417Y006067D03*
X004417Y006067D03*
X005882Y012602D03*
X006882Y012602D03*
X010240Y012834D03*
X010240Y013834D03*
X010240Y014834D03*
X010240Y015834D03*
D12*
X000420Y021162D02*
X000420Y000420D01*
X032186Y000420D01*
X032186Y021162D01*
X000420Y021162D01*
X000420Y021159D02*
X032186Y021159D01*
X032186Y021042D02*
X000420Y021042D01*
X000420Y020926D02*
X022421Y020926D01*
X022484Y020952D02*
X022266Y020861D01*
X022099Y020694D01*
X022009Y020476D01*
X022009Y020240D01*
X022099Y020022D01*
X022266Y019855D01*
X022484Y019764D01*
X022720Y019764D01*
X022939Y019855D01*
X023105Y020022D01*
X023196Y020240D01*
X023196Y020476D01*
X023105Y020694D01*
X022939Y020861D01*
X022720Y020952D01*
X022484Y020952D01*
X022784Y020926D02*
X027145Y020926D01*
X027209Y020952D02*
X026990Y020861D01*
X026823Y020694D01*
X026733Y020476D01*
X026733Y020240D01*
X026823Y020022D01*
X026990Y019855D01*
X027209Y019764D01*
X027445Y019764D01*
X027663Y019855D01*
X027830Y020022D01*
X027920Y020240D01*
X027920Y020476D01*
X027830Y020694D01*
X027663Y020861D01*
X027445Y020952D01*
X027209Y020952D01*
X027508Y020926D02*
X032186Y020926D01*
X032186Y020809D02*
X027715Y020809D01*
X027831Y020692D02*
X030589Y020692D01*
X030693Y020735D02*
X030366Y020600D01*
X030116Y020350D01*
X029981Y020023D01*
X029981Y019669D01*
X030116Y019343D01*
X030366Y019093D01*
X030693Y018957D01*
X031047Y018957D01*
X031373Y019093D01*
X031624Y019343D01*
X031759Y019669D01*
X031759Y020023D01*
X031624Y020350D01*
X031373Y020600D01*
X031047Y020735D01*
X030693Y020735D01*
X030342Y020576D02*
X027879Y020576D01*
X027920Y020459D02*
X030225Y020459D01*
X030113Y020342D02*
X027920Y020342D01*
X027914Y020226D02*
X030065Y020226D01*
X030017Y020109D02*
X027866Y020109D01*
X027800Y019992D02*
X029981Y019992D01*
X029981Y019876D02*
X027684Y019876D01*
X026969Y019876D02*
X022959Y019876D01*
X023076Y019992D02*
X026853Y019992D01*
X026787Y020109D02*
X023142Y020109D01*
X023190Y020226D02*
X026739Y020226D01*
X026733Y020342D02*
X023196Y020342D01*
X023196Y020459D02*
X026733Y020459D01*
X026774Y020576D02*
X023155Y020576D01*
X023106Y020692D02*
X026822Y020692D01*
X026938Y020809D02*
X022991Y020809D01*
X022213Y020809D02*
X000420Y020809D01*
X000420Y020692D02*
X001456Y020692D01*
X001559Y020735D02*
X001232Y020600D01*
X000982Y020350D01*
X000847Y020023D01*
X000847Y019669D01*
X000982Y019343D01*
X001232Y019093D01*
X001559Y018957D01*
X001913Y018957D01*
X002240Y019093D01*
X002490Y019343D01*
X002625Y019669D01*
X002625Y020023D01*
X002490Y020350D01*
X002240Y020600D01*
X001913Y020735D01*
X001559Y020735D01*
X001208Y020576D02*
X000420Y020576D01*
X000420Y020459D02*
X001092Y020459D01*
X000979Y020342D02*
X000420Y020342D01*
X000420Y020226D02*
X000931Y020226D01*
X000883Y020109D02*
X000420Y020109D01*
X000420Y019992D02*
X000847Y019992D01*
X000847Y019876D02*
X000420Y019876D01*
X000420Y019759D02*
X000847Y019759D01*
X000858Y019642D02*
X000420Y019642D01*
X000420Y019526D02*
X000907Y019526D01*
X000955Y019409D02*
X000420Y019409D01*
X000420Y019292D02*
X001033Y019292D01*
X001149Y019176D02*
X000420Y019176D01*
X000420Y019059D02*
X001313Y019059D01*
X002159Y019059D02*
X011582Y019059D01*
X011590Y019056D02*
X011764Y019056D01*
X011924Y019122D01*
X012047Y019245D01*
X012113Y019405D01*
X012113Y019579D01*
X012047Y019739D01*
X011924Y019862D01*
X011764Y019928D01*
X011590Y019928D01*
X011430Y019862D01*
X011307Y019739D01*
X011241Y019579D01*
X011241Y019405D01*
X011307Y019245D01*
X011430Y019122D01*
X011590Y019056D01*
X011772Y019059D02*
X012960Y019059D01*
X012968Y019056D02*
X013142Y019056D01*
X013302Y019122D01*
X013425Y019245D01*
X013491Y019405D01*
X013491Y019579D01*
X013425Y019739D01*
X013302Y019862D01*
X013142Y019928D01*
X012968Y019928D01*
X012808Y019862D01*
X012685Y019739D01*
X012619Y019579D01*
X012619Y019405D01*
X012685Y019245D01*
X012808Y019122D01*
X012968Y019056D01*
X013150Y019059D02*
X017303Y019059D01*
X017298Y019053D02*
X017252Y018974D01*
X017217Y018889D01*
X017194Y018801D01*
X017183Y018724D01*
X017819Y018724D01*
X017819Y018606D01*
X017937Y018606D01*
X017937Y018724D01*
X018572Y018724D01*
X018562Y018801D01*
X018538Y018889D01*
X018504Y018974D01*
X018458Y019053D01*
X018402Y019125D01*
X018338Y019190D01*
X018265Y019245D01*
X018186Y019291D01*
X018102Y019326D01*
X018014Y019349D01*
X017937Y019360D01*
X017937Y018724D01*
X017819Y018724D01*
X017819Y019360D01*
X017742Y019349D01*
X017654Y019326D01*
X017569Y019291D01*
X017490Y019245D01*
X017418Y019190D01*
X017353Y019125D01*
X017298Y019053D01*
X017239Y018942D02*
X000420Y018942D01*
X000420Y018826D02*
X017200Y018826D01*
X017183Y018606D02*
X017194Y018529D01*
X017217Y018441D01*
X017252Y018357D01*
X017298Y018278D01*
X017353Y018205D01*
X017418Y018141D01*
X017490Y018085D01*
X017569Y018039D01*
X017654Y018005D01*
X017742Y017981D01*
X017819Y017971D01*
X017819Y018606D01*
X017183Y018606D01*
X017185Y018593D02*
X000420Y018593D01*
X000420Y018709D02*
X017819Y018709D01*
X017819Y018593D02*
X017937Y018593D01*
X017937Y018606D02*
X017937Y017971D01*
X018014Y017981D01*
X018102Y018005D01*
X018186Y018039D01*
X018265Y018085D01*
X018338Y018141D01*
X018402Y018205D01*
X018458Y018278D01*
X018504Y018357D01*
X018538Y018441D01*
X018562Y018529D01*
X018572Y018606D01*
X017937Y018606D01*
X017937Y018709D02*
X032186Y018709D01*
X032186Y018593D02*
X018570Y018593D01*
X018548Y018476D02*
X032186Y018476D01*
X032186Y018359D02*
X018505Y018359D01*
X018431Y018243D02*
X032186Y018243D01*
X032186Y018126D02*
X027614Y018126D01*
X027663Y018105D02*
X027445Y018196D01*
X027209Y018196D01*
X026990Y018105D01*
X026823Y017939D01*
X026733Y017720D01*
X026733Y017484D01*
X026823Y017266D01*
X026990Y017099D01*
X027209Y017009D01*
X027445Y017009D01*
X027663Y017099D01*
X027830Y017266D01*
X027920Y017484D01*
X027920Y017720D01*
X027830Y017939D01*
X027663Y018105D01*
X027759Y018009D02*
X032186Y018009D01*
X032186Y017893D02*
X027849Y017893D01*
X027897Y017776D02*
X032186Y017776D01*
X032186Y017659D02*
X027920Y017659D01*
X027920Y017543D02*
X032186Y017543D01*
X032186Y017426D02*
X027896Y017426D01*
X027848Y017309D02*
X032186Y017309D01*
X032186Y017193D02*
X027757Y017193D01*
X027608Y017076D02*
X032186Y017076D01*
X032186Y016959D02*
X018109Y016959D01*
X018016Y016998D02*
X017740Y016998D01*
X017484Y016892D01*
X017289Y016697D01*
X017183Y016441D01*
X017183Y016165D01*
X017289Y015909D01*
X017484Y015714D01*
X017740Y015608D01*
X018016Y015608D01*
X018271Y015714D01*
X018467Y015909D01*
X018573Y016165D01*
X018573Y016441D01*
X018467Y016697D01*
X018271Y016892D01*
X018016Y016998D01*
X018321Y016843D02*
X032186Y016843D01*
X032186Y016726D02*
X018437Y016726D01*
X018503Y016609D02*
X032186Y016609D01*
X032186Y016493D02*
X018551Y016493D01*
X018573Y016376D02*
X032186Y016376D01*
X032186Y016259D02*
X018573Y016259D01*
X018564Y016143D02*
X032186Y016143D01*
X032186Y016026D02*
X018515Y016026D01*
X018467Y015909D02*
X032186Y015909D01*
X032186Y015793D02*
X018350Y015793D01*
X018180Y015676D02*
X032186Y015676D01*
X032186Y015560D02*
X023650Y015560D01*
X023718Y015531D02*
X023541Y015605D01*
X023349Y015605D01*
X023171Y015531D01*
X023035Y015395D01*
X022962Y015218D01*
X022962Y015026D01*
X023035Y014848D01*
X023171Y014713D01*
X023349Y014639D01*
X023541Y014639D01*
X023718Y014713D01*
X023854Y014848D01*
X023927Y015026D01*
X023927Y015218D01*
X023854Y015395D01*
X023718Y015531D01*
X023806Y015443D02*
X032186Y015443D01*
X032186Y015326D02*
X023883Y015326D01*
X023927Y015210D02*
X032186Y015210D01*
X032186Y015093D02*
X023927Y015093D01*
X023907Y014976D02*
X032186Y014976D01*
X032186Y014860D02*
X031061Y014860D01*
X031065Y014858D02*
X030887Y014931D01*
X030695Y014931D01*
X030518Y014858D01*
X030382Y014722D01*
X030308Y014545D01*
X030308Y014353D01*
X030382Y014175D01*
X030518Y014039D01*
X030695Y013966D01*
X030887Y013966D01*
X031065Y014039D01*
X031200Y014175D01*
X031274Y014353D01*
X031274Y014545D01*
X031200Y014722D01*
X031065Y014858D01*
X031180Y014743D02*
X032186Y014743D01*
X032186Y014626D02*
X031240Y014626D01*
X031274Y014510D02*
X032186Y014510D01*
X032186Y014393D02*
X031274Y014393D01*
X031242Y014276D02*
X032186Y014276D01*
X032186Y014160D02*
X031185Y014160D01*
X031068Y014043D02*
X032186Y014043D01*
X032186Y013926D02*
X030869Y013926D01*
X030847Y013926D02*
X030735Y013926D01*
X030735Y013930D02*
X030678Y013921D01*
X030605Y013897D01*
X030537Y013863D01*
X030476Y013818D01*
X030422Y013764D01*
X030377Y013702D01*
X030343Y013634D01*
X030319Y013562D01*
X030310Y013505D01*
X030735Y013505D01*
X030735Y013930D01*
X030713Y013926D02*
X023827Y013926D01*
X023854Y013899D02*
X023718Y014035D01*
X023541Y014109D01*
X023349Y014109D01*
X023171Y014035D01*
X023035Y013899D01*
X022962Y013722D01*
X022962Y013530D01*
X023035Y013352D01*
X023171Y013217D01*
X023349Y013143D01*
X023541Y013143D01*
X023718Y013217D01*
X023854Y013352D01*
X023927Y013530D01*
X023927Y013722D01*
X023854Y013899D01*
X023891Y013810D02*
X030468Y013810D01*
X030372Y013693D02*
X023927Y013693D01*
X023927Y013576D02*
X030324Y013576D01*
X030310Y013393D02*
X030319Y013335D01*
X030343Y013263D01*
X030377Y013195D01*
X030422Y013133D01*
X030476Y013079D01*
X030537Y013035D01*
X030605Y013000D01*
X030678Y012977D01*
X030735Y012967D01*
X030735Y013392D01*
X030847Y013392D01*
X030847Y012967D01*
X030905Y012977D01*
X030977Y013000D01*
X031045Y013035D01*
X031106Y013079D01*
X031160Y013133D01*
X031205Y013195D01*
X031240Y013263D01*
X031263Y013335D01*
X031272Y013393D01*
X030847Y013393D01*
X030847Y013505D01*
X030735Y013505D01*
X030735Y013393D01*
X030310Y013393D01*
X030318Y013343D02*
X023845Y013343D01*
X023898Y013460D02*
X030735Y013460D01*
X030847Y013460D02*
X032186Y013460D01*
X032186Y013576D02*
X031259Y013576D01*
X031263Y013562D02*
X031240Y013634D01*
X031205Y013702D01*
X031160Y013764D01*
X031106Y013818D01*
X031045Y013863D01*
X030977Y013897D01*
X030905Y013921D01*
X030847Y013930D01*
X030847Y013505D01*
X031272Y013505D01*
X031263Y013562D01*
X031210Y013693D02*
X032186Y013693D01*
X032186Y013810D02*
X031115Y013810D01*
X030847Y013810D02*
X030735Y013810D01*
X030735Y013693D02*
X030847Y013693D01*
X030847Y013576D02*
X030735Y013576D01*
X030735Y013343D02*
X030847Y013343D01*
X030847Y013226D02*
X030735Y013226D01*
X030735Y013110D02*
X030847Y013110D01*
X030847Y012993D02*
X030735Y012993D01*
X030695Y012931D02*
X030518Y012858D01*
X030382Y012722D01*
X030308Y012545D01*
X030308Y012353D01*
X030382Y012175D01*
X030518Y012039D01*
X030695Y011966D01*
X030887Y011966D01*
X031065Y012039D01*
X031200Y012175D01*
X031274Y012353D01*
X031274Y012545D01*
X031200Y012722D01*
X031065Y012858D01*
X030887Y012931D01*
X030695Y012931D01*
X030627Y012993D02*
X010697Y012993D01*
X010723Y012931D02*
X010649Y013108D01*
X010513Y013244D01*
X010336Y013317D01*
X010144Y013317D01*
X009966Y013244D01*
X009831Y013108D01*
X009757Y012931D01*
X009757Y012738D01*
X009831Y012561D01*
X009966Y012425D01*
X010144Y012352D01*
X010336Y012352D01*
X010513Y012425D01*
X010649Y012561D01*
X010723Y012738D01*
X010723Y012931D01*
X010723Y012876D02*
X030563Y012876D01*
X030420Y012760D02*
X010723Y012760D01*
X010683Y012643D02*
X030349Y012643D01*
X030308Y012527D02*
X010615Y012527D01*
X010476Y012410D02*
X030308Y012410D01*
X030333Y012293D02*
X007256Y012293D01*
X007291Y012329D02*
X007364Y012506D01*
X007364Y012698D01*
X007291Y012876D01*
X007155Y013011D01*
X006978Y013085D01*
X006786Y013085D01*
X006608Y013011D01*
X006472Y012876D01*
X006399Y012698D01*
X006399Y012506D01*
X006472Y012329D01*
X006608Y012193D01*
X006786Y012119D01*
X006978Y012119D01*
X007155Y012193D01*
X007291Y012329D01*
X007325Y012410D02*
X010003Y012410D01*
X009865Y012527D02*
X007364Y012527D01*
X007364Y012643D02*
X009797Y012643D01*
X009757Y012760D02*
X007339Y012760D01*
X007290Y012876D02*
X009757Y012876D01*
X009783Y012993D02*
X007174Y012993D01*
X006590Y012993D02*
X006174Y012993D01*
X006155Y013011D02*
X005978Y013085D01*
X005786Y013085D01*
X005608Y013011D01*
X005472Y012876D01*
X005399Y012698D01*
X005399Y012506D01*
X005472Y012329D01*
X005608Y012193D01*
X005786Y012119D01*
X005978Y012119D01*
X006155Y012193D01*
X006291Y012329D01*
X006364Y012506D01*
X006364Y012698D01*
X006291Y012876D01*
X006155Y013011D01*
X006290Y012876D02*
X006473Y012876D01*
X006424Y012760D02*
X006339Y012760D01*
X006364Y012643D02*
X006399Y012643D01*
X006399Y012527D02*
X006364Y012527D01*
X006325Y012410D02*
X006439Y012410D01*
X006508Y012293D02*
X006256Y012293D01*
X006116Y012177D02*
X006648Y012177D01*
X007116Y012177D02*
X030381Y012177D01*
X030497Y012060D02*
X000420Y012060D01*
X000420Y012177D02*
X005648Y012177D01*
X005508Y012293D02*
X000420Y012293D01*
X000420Y012410D02*
X005439Y012410D01*
X005399Y012527D02*
X000420Y012527D01*
X000420Y012643D02*
X005399Y012643D01*
X005424Y012760D02*
X000420Y012760D01*
X000420Y012876D02*
X005473Y012876D01*
X005590Y012993D02*
X000420Y012993D01*
X000420Y013110D02*
X009833Y013110D01*
X009949Y013226D02*
X000420Y013226D01*
X000420Y013343D02*
X006430Y013343D01*
X006479Y013323D02*
X006599Y013323D01*
X006711Y013369D01*
X006796Y013454D01*
X006842Y013566D01*
X006842Y013686D01*
X006796Y013797D01*
X006711Y013882D01*
X006599Y013929D01*
X006479Y013929D01*
X006368Y013882D01*
X006283Y013797D01*
X006236Y013686D01*
X006236Y013566D01*
X006283Y013454D01*
X006368Y013369D01*
X006479Y013323D01*
X006648Y013343D02*
X021045Y013343D01*
X021035Y013352D02*
X021171Y013217D01*
X021349Y013143D01*
X021541Y013143D01*
X021718Y013217D01*
X021854Y013352D01*
X021927Y013530D01*
X021927Y013722D01*
X021854Y013899D01*
X021718Y014035D01*
X021541Y014109D01*
X021349Y014109D01*
X021171Y014035D01*
X021035Y013899D01*
X020962Y013722D01*
X020962Y013530D01*
X021035Y013352D01*
X020991Y013460D02*
X010548Y013460D01*
X010513Y013425D02*
X010649Y013561D01*
X010723Y013738D01*
X010723Y013931D01*
X010649Y014108D01*
X010513Y014244D01*
X010336Y014317D01*
X010144Y014317D01*
X009966Y014244D01*
X009831Y014108D01*
X009757Y013931D01*
X009757Y013738D01*
X009831Y013561D01*
X009966Y013425D01*
X010144Y013352D01*
X010336Y013352D01*
X010513Y013425D01*
X010531Y013226D02*
X021161Y013226D01*
X020962Y013576D02*
X010656Y013576D01*
X010704Y013693D02*
X020962Y013693D01*
X020998Y013810D02*
X010723Y013810D01*
X010723Y013926D02*
X021063Y013926D01*
X021190Y014043D02*
X010676Y014043D01*
X010598Y014160D02*
X030397Y014160D01*
X030340Y014276D02*
X010435Y014276D01*
X010436Y014393D02*
X030308Y014393D01*
X030308Y014510D02*
X010598Y014510D01*
X010649Y014561D02*
X010723Y014738D01*
X010723Y014931D01*
X010649Y015108D01*
X010513Y015244D01*
X010336Y015317D01*
X010144Y015317D01*
X009966Y015244D01*
X009831Y015108D01*
X009757Y014931D01*
X009757Y014738D01*
X009831Y014561D01*
X009966Y014425D01*
X010144Y014352D01*
X010336Y014352D01*
X010513Y014425D01*
X010649Y014561D01*
X010676Y014626D02*
X030342Y014626D01*
X030403Y014743D02*
X023749Y014743D01*
X023859Y014860D02*
X030522Y014860D01*
X030514Y014043D02*
X023699Y014043D01*
X023190Y014043D02*
X022699Y014043D01*
X022718Y014035D02*
X022541Y014109D01*
X022349Y014109D01*
X022171Y014035D01*
X022035Y013899D01*
X021962Y013722D01*
X021962Y013530D01*
X022035Y013352D01*
X022171Y013217D01*
X022349Y013143D01*
X022541Y013143D01*
X022718Y013217D01*
X022854Y013352D01*
X022927Y013530D01*
X022927Y013722D01*
X022854Y013899D01*
X022718Y014035D01*
X022827Y013926D02*
X023063Y013926D01*
X022998Y013810D02*
X022891Y013810D01*
X022927Y013693D02*
X022962Y013693D01*
X022962Y013576D02*
X022927Y013576D01*
X022898Y013460D02*
X022991Y013460D01*
X023045Y013343D02*
X022845Y013343D01*
X022728Y013226D02*
X023161Y013226D01*
X023728Y013226D02*
X030361Y013226D01*
X030445Y013110D02*
X010647Y013110D01*
X009932Y013460D02*
X006798Y013460D01*
X006842Y013576D02*
X009824Y013576D01*
X009776Y013693D02*
X006839Y013693D01*
X006783Y013810D02*
X009757Y013810D01*
X009757Y013926D02*
X006605Y013926D01*
X006474Y013926D02*
X000420Y013926D01*
X000420Y013810D02*
X006295Y013810D01*
X006239Y013693D02*
X000420Y013693D01*
X000420Y013576D02*
X006236Y013576D01*
X006280Y013460D02*
X000420Y013460D01*
X000420Y014043D02*
X009804Y014043D01*
X009882Y014160D02*
X000420Y014160D01*
X000420Y014276D02*
X010045Y014276D01*
X010044Y014393D02*
X000420Y014393D01*
X000420Y014510D02*
X009882Y014510D01*
X009804Y014626D02*
X009381Y014626D01*
X009388Y014629D02*
X009473Y014714D01*
X009519Y014825D01*
X009519Y014946D01*
X009473Y015057D01*
X009388Y015142D01*
X009277Y015188D01*
X009156Y015188D01*
X009045Y015142D01*
X008960Y015057D01*
X008914Y014946D01*
X008914Y014825D01*
X008960Y014714D01*
X009045Y014629D01*
X009156Y014583D01*
X009277Y014583D01*
X009388Y014629D01*
X009485Y014743D02*
X009757Y014743D01*
X009757Y014860D02*
X009519Y014860D01*
X009507Y014976D02*
X009776Y014976D01*
X009824Y015093D02*
X009437Y015093D01*
X008995Y015093D02*
X000420Y015093D01*
X000420Y015210D02*
X005000Y015210D01*
X005029Y015180D02*
X005140Y015134D01*
X005261Y015134D01*
X005372Y015180D01*
X005417Y015225D01*
X005462Y015180D01*
X005573Y015134D01*
X005694Y015134D01*
X005805Y015180D01*
X005850Y015225D01*
X005895Y015180D01*
X006006Y015134D01*
X006127Y015134D01*
X006238Y015180D01*
X006323Y015265D01*
X006370Y015377D01*
X006370Y015497D01*
X006323Y015608D01*
X006238Y015694D01*
X006127Y015740D01*
X006006Y015740D01*
X005895Y015694D01*
X005850Y015648D01*
X005805Y015694D01*
X005694Y015740D01*
X005573Y015740D01*
X005462Y015694D01*
X005417Y015648D01*
X005372Y015694D01*
X005261Y015740D01*
X005140Y015740D01*
X005029Y015694D01*
X004944Y015608D01*
X004898Y015497D01*
X004898Y015377D01*
X004944Y015265D01*
X005029Y015180D01*
X004919Y015326D02*
X000420Y015326D01*
X000420Y015443D02*
X004898Y015443D01*
X004924Y015560D02*
X000420Y015560D01*
X000420Y015676D02*
X005012Y015676D01*
X005389Y015676D02*
X005445Y015676D01*
X005823Y015676D02*
X005878Y015676D01*
X006256Y015676D02*
X006744Y015676D01*
X006761Y015694D02*
X006676Y015608D01*
X006630Y015497D01*
X006630Y015377D01*
X006676Y015265D01*
X006761Y015180D01*
X006873Y015134D01*
X006993Y015134D01*
X007104Y015180D01*
X007190Y015265D01*
X007236Y015377D01*
X007236Y015497D01*
X007190Y015608D01*
X007104Y015694D01*
X006993Y015740D01*
X006873Y015740D01*
X006761Y015694D01*
X006656Y015560D02*
X006344Y015560D01*
X006370Y015443D02*
X006630Y015443D01*
X006651Y015326D02*
X006349Y015326D01*
X006268Y015210D02*
X006732Y015210D01*
X007134Y015210D02*
X007598Y015210D01*
X007628Y015180D02*
X007739Y015134D01*
X007859Y015134D01*
X007971Y015180D01*
X008016Y015225D01*
X008061Y015180D01*
X008172Y015134D01*
X008292Y015134D01*
X008404Y015180D01*
X008489Y015265D01*
X008535Y015377D01*
X008535Y015497D01*
X008489Y015608D01*
X008404Y015694D01*
X008292Y015740D01*
X008172Y015740D01*
X008061Y015694D01*
X008016Y015648D01*
X007971Y015694D01*
X007859Y015740D01*
X007739Y015740D01*
X007628Y015694D01*
X007542Y015608D01*
X007496Y015497D01*
X007496Y015377D01*
X007542Y015265D01*
X007628Y015180D01*
X007517Y015326D02*
X007215Y015326D01*
X007236Y015443D02*
X007496Y015443D01*
X007522Y015560D02*
X007210Y015560D01*
X007122Y015676D02*
X007610Y015676D01*
X007988Y015676D02*
X008043Y015676D01*
X008421Y015676D02*
X009782Y015676D01*
X009791Y015649D02*
X009826Y015581D01*
X009871Y015519D01*
X009925Y015465D01*
X009986Y015420D01*
X010054Y015386D01*
X010127Y015362D01*
X010184Y015353D01*
X010184Y015778D01*
X010296Y015778D01*
X010296Y015353D01*
X010353Y015362D01*
X010426Y015386D01*
X010494Y015420D01*
X010555Y015465D01*
X010609Y015519D01*
X010654Y015581D01*
X010689Y015649D01*
X010712Y015721D01*
X010721Y015778D01*
X010296Y015778D01*
X010296Y015890D01*
X010721Y015890D01*
X010712Y015948D01*
X010689Y016020D01*
X010654Y016088D01*
X010609Y016150D01*
X010555Y016204D01*
X010494Y016248D01*
X010426Y016283D01*
X010353Y016307D01*
X010296Y016316D01*
X010296Y015891D01*
X010184Y015891D01*
X010184Y016316D01*
X010127Y016307D01*
X010054Y016283D01*
X009986Y016248D01*
X009925Y016204D01*
X009871Y016150D01*
X009826Y016088D01*
X009791Y016020D01*
X009768Y015948D01*
X009759Y015890D01*
X010184Y015890D01*
X010184Y015778D01*
X009759Y015778D01*
X009768Y015721D01*
X009791Y015649D01*
X009841Y015560D02*
X008509Y015560D01*
X008535Y015443D02*
X009955Y015443D01*
X010184Y015443D02*
X010296Y015443D01*
X010296Y015560D02*
X010184Y015560D01*
X010184Y015676D02*
X010296Y015676D01*
X010296Y015793D02*
X017405Y015793D01*
X017289Y015909D02*
X010718Y015909D01*
X010686Y016026D02*
X017240Y016026D01*
X017192Y016143D02*
X010614Y016143D01*
X010472Y016259D02*
X017183Y016259D01*
X017183Y016376D02*
X001724Y016376D01*
X001724Y016321D02*
X001678Y016210D01*
X001593Y016125D01*
X001481Y016079D01*
X001361Y016079D01*
X001250Y016125D01*
X001164Y016210D01*
X001118Y016321D01*
X001118Y016442D01*
X001164Y016553D01*
X001250Y016638D01*
X001361Y016684D01*
X001481Y016684D01*
X001593Y016638D01*
X001678Y016553D01*
X001724Y016442D01*
X001724Y016321D01*
X001698Y016259D02*
X010008Y016259D01*
X010184Y016259D02*
X010296Y016259D01*
X010296Y016143D02*
X010184Y016143D01*
X010184Y016026D02*
X010296Y016026D01*
X010296Y015909D02*
X010184Y015909D01*
X010184Y015793D02*
X000420Y015793D01*
X000420Y015909D02*
X009762Y015909D01*
X009794Y016026D02*
X000420Y016026D01*
X000420Y016143D02*
X001232Y016143D01*
X001144Y016259D02*
X000420Y016259D01*
X000420Y016376D02*
X001118Y016376D01*
X001139Y016493D02*
X000420Y016493D01*
X000420Y016609D02*
X001221Y016609D01*
X001622Y016609D02*
X017253Y016609D01*
X017204Y016493D02*
X001703Y016493D01*
X001610Y016143D02*
X009866Y016143D01*
X010697Y015676D02*
X017575Y015676D01*
X017318Y016726D02*
X000420Y016726D01*
X000420Y016843D02*
X015757Y016843D01*
X015719Y016858D02*
X015803Y016823D01*
X015891Y016800D01*
X015968Y016790D01*
X015968Y017425D01*
X015333Y017425D01*
X015343Y017348D01*
X015367Y017260D01*
X015402Y017176D01*
X015447Y017096D01*
X015503Y017024D01*
X015567Y016960D01*
X015640Y016904D01*
X015719Y016858D01*
X015568Y016959D02*
X000420Y016959D01*
X000420Y017076D02*
X015463Y017076D01*
X015395Y017193D02*
X000420Y017193D01*
X000420Y017309D02*
X015353Y017309D01*
X015333Y017543D02*
X015968Y017543D01*
X015968Y017425D01*
X016086Y017425D01*
X016086Y016790D01*
X016164Y016800D01*
X016252Y016823D01*
X016336Y016858D01*
X016415Y016904D01*
X016487Y016960D01*
X016552Y017024D01*
X016607Y017096D01*
X016653Y017176D01*
X016688Y017260D01*
X016712Y017348D01*
X016722Y017425D01*
X016087Y017425D01*
X016087Y017543D01*
X016722Y017543D01*
X016712Y017620D01*
X016688Y017708D01*
X016653Y017793D01*
X016607Y017872D01*
X016552Y017944D01*
X016487Y018009D01*
X017642Y018009D01*
X017819Y018009D02*
X017937Y018009D01*
X017937Y018126D02*
X017819Y018126D01*
X017819Y018243D02*
X017937Y018243D01*
X017937Y018359D02*
X017819Y018359D01*
X017819Y018476D02*
X017937Y018476D01*
X017937Y018826D02*
X017819Y018826D01*
X017819Y018942D02*
X017937Y018942D01*
X017937Y019059D02*
X017819Y019059D01*
X017819Y019176D02*
X017937Y019176D01*
X017937Y019292D02*
X017819Y019292D01*
X017573Y019292D02*
X013444Y019292D01*
X013491Y019409D02*
X030089Y019409D01*
X030040Y019526D02*
X013491Y019526D01*
X013465Y019642D02*
X029992Y019642D01*
X029981Y019759D02*
X013405Y019759D01*
X013268Y019876D02*
X022245Y019876D01*
X022128Y019992D02*
X002625Y019992D01*
X002625Y019876D02*
X011464Y019876D01*
X011327Y019759D02*
X002625Y019759D01*
X002614Y019642D02*
X011267Y019642D01*
X011241Y019526D02*
X002565Y019526D01*
X002517Y019409D02*
X011241Y019409D01*
X011287Y019292D02*
X002439Y019292D01*
X002323Y019176D02*
X011376Y019176D01*
X011978Y019176D02*
X012754Y019176D01*
X012665Y019292D02*
X012066Y019292D01*
X012113Y019409D02*
X012619Y019409D01*
X012619Y019526D02*
X012113Y019526D01*
X012087Y019642D02*
X012645Y019642D01*
X012705Y019759D02*
X012027Y019759D01*
X011890Y019876D02*
X012842Y019876D01*
X013356Y019176D02*
X017404Y019176D01*
X017208Y018476D02*
X000420Y018476D01*
X000420Y018359D02*
X017251Y018359D01*
X017325Y018243D02*
X000420Y018243D01*
X000420Y018126D02*
X015758Y018126D01*
X015719Y018110D02*
X015640Y018064D01*
X015567Y018009D01*
X015503Y017944D01*
X015447Y017872D01*
X015402Y017793D01*
X015367Y017708D01*
X015343Y017620D01*
X015333Y017543D01*
X015354Y017659D02*
X000420Y017659D01*
X000420Y017543D02*
X015968Y017543D01*
X015968Y018178D01*
X015891Y018168D01*
X015803Y018145D01*
X015719Y018110D01*
X015568Y018009D02*
X000420Y018009D01*
X000420Y017893D02*
X015463Y017893D01*
X015395Y017776D02*
X000420Y017776D01*
X000420Y017426D02*
X015968Y017426D01*
X015968Y017309D02*
X016086Y017309D01*
X016086Y017193D02*
X015968Y017193D01*
X015968Y017076D02*
X016086Y017076D01*
X016086Y016959D02*
X015968Y016959D01*
X015968Y016843D02*
X016086Y016843D01*
X016298Y016843D02*
X017435Y016843D01*
X017647Y016959D02*
X016487Y016959D01*
X016592Y017076D02*
X022321Y017076D01*
X022266Y017099D02*
X022484Y017009D01*
X022720Y017009D01*
X022939Y017099D01*
X023105Y017266D01*
X023196Y017484D01*
X023196Y017720D01*
X023105Y017939D01*
X022939Y018105D01*
X022720Y018196D01*
X022484Y018196D01*
X022266Y018105D01*
X022099Y017939D01*
X022009Y017720D01*
X022009Y017484D01*
X022099Y017266D01*
X022266Y017099D01*
X022172Y017193D02*
X016660Y017193D01*
X016701Y017309D02*
X022081Y017309D01*
X022033Y017426D02*
X016087Y017426D01*
X016087Y017543D02*
X022009Y017543D01*
X022009Y017659D02*
X016701Y017659D01*
X016660Y017776D02*
X022032Y017776D01*
X022080Y017893D02*
X016591Y017893D01*
X016487Y018009D02*
X016415Y018064D01*
X016336Y018110D01*
X016252Y018145D01*
X016164Y018168D01*
X016086Y018178D01*
X016086Y017543D01*
X015968Y017543D01*
X015968Y017659D02*
X016086Y017659D01*
X016086Y017776D02*
X015968Y017776D01*
X015968Y017893D02*
X016086Y017893D01*
X016086Y018009D02*
X015968Y018009D01*
X015968Y018126D02*
X016086Y018126D01*
X016297Y018126D02*
X017437Y018126D01*
X018113Y018009D02*
X022170Y018009D01*
X022315Y018126D02*
X018319Y018126D01*
X018555Y018826D02*
X032186Y018826D01*
X032186Y018942D02*
X018516Y018942D01*
X018453Y019059D02*
X030447Y019059D01*
X030283Y019176D02*
X018352Y019176D01*
X018183Y019292D02*
X030167Y019292D01*
X031293Y019059D02*
X032186Y019059D01*
X032186Y019176D02*
X031457Y019176D01*
X031573Y019292D02*
X032186Y019292D01*
X032186Y019409D02*
X031651Y019409D01*
X031699Y019526D02*
X032186Y019526D01*
X032186Y019642D02*
X031748Y019642D01*
X031759Y019759D02*
X032186Y019759D01*
X032186Y019876D02*
X031759Y019876D01*
X031759Y019992D02*
X032186Y019992D01*
X032186Y020109D02*
X031723Y020109D01*
X031675Y020226D02*
X032186Y020226D01*
X032186Y020342D02*
X031627Y020342D01*
X031514Y020459D02*
X032186Y020459D01*
X032186Y020576D02*
X031398Y020576D01*
X031150Y020692D02*
X032186Y020692D01*
X027040Y018126D02*
X022889Y018126D01*
X023035Y018009D02*
X026894Y018009D01*
X026804Y017893D02*
X023124Y017893D01*
X023173Y017776D02*
X026756Y017776D01*
X026733Y017659D02*
X023196Y017659D01*
X023196Y017543D02*
X026733Y017543D01*
X026757Y017426D02*
X023172Y017426D01*
X023123Y017309D02*
X026805Y017309D01*
X026896Y017193D02*
X023032Y017193D01*
X022883Y017076D02*
X027045Y017076D01*
X023240Y015560D02*
X022650Y015560D01*
X022718Y015531D02*
X022541Y015605D01*
X022349Y015605D01*
X022171Y015531D01*
X022035Y015395D01*
X021962Y015218D01*
X021962Y015026D01*
X022035Y014848D01*
X022171Y014713D01*
X022349Y014639D01*
X022541Y014639D01*
X022718Y014713D01*
X022854Y014848D01*
X022927Y015026D01*
X022927Y015218D01*
X022854Y015395D01*
X022718Y015531D01*
X022806Y015443D02*
X023083Y015443D01*
X023007Y015326D02*
X022883Y015326D01*
X022927Y015210D02*
X022962Y015210D01*
X022962Y015093D02*
X022927Y015093D01*
X022907Y014976D02*
X022982Y014976D01*
X023031Y014860D02*
X022859Y014860D01*
X022749Y014743D02*
X023141Y014743D01*
X022141Y014743D02*
X021749Y014743D01*
X021718Y014713D02*
X021854Y014848D01*
X021927Y015026D01*
X021927Y015218D01*
X021854Y015395D01*
X021718Y015531D01*
X021541Y015605D01*
X021349Y015605D01*
X021171Y015531D01*
X021035Y015395D01*
X020962Y015218D01*
X020962Y015026D01*
X021035Y014848D01*
X021171Y014713D01*
X021349Y014639D01*
X021541Y014639D01*
X021718Y014713D01*
X021859Y014860D02*
X022031Y014860D01*
X021982Y014976D02*
X021907Y014976D01*
X021927Y015093D02*
X021962Y015093D01*
X021962Y015210D02*
X021927Y015210D01*
X021883Y015326D02*
X022007Y015326D01*
X022083Y015443D02*
X021806Y015443D01*
X021650Y015560D02*
X022240Y015560D01*
X021240Y015560D02*
X013583Y015560D01*
X013529Y015582D02*
X013408Y015582D01*
X013297Y015536D01*
X013212Y015451D01*
X013166Y015340D01*
X013166Y015219D01*
X013212Y015108D01*
X013297Y015023D01*
X013408Y014977D01*
X013529Y014977D01*
X013640Y015023D01*
X013725Y015108D01*
X013771Y015219D01*
X013771Y015340D01*
X013725Y015451D01*
X013640Y015536D01*
X013529Y015582D01*
X013354Y015560D02*
X011851Y015560D01*
X011796Y015582D02*
X011676Y015582D01*
X011565Y015536D01*
X011479Y015451D01*
X011433Y015340D01*
X011433Y015219D01*
X011479Y015108D01*
X011565Y015023D01*
X011676Y014977D01*
X011796Y014977D01*
X011908Y015023D01*
X011993Y015108D01*
X012039Y015219D01*
X012039Y015340D01*
X011993Y015451D01*
X011908Y015536D01*
X011796Y015582D01*
X011621Y015560D02*
X010639Y015560D01*
X010524Y015443D02*
X011476Y015443D01*
X011433Y015326D02*
X008514Y015326D01*
X008433Y015210D02*
X009932Y015210D01*
X010548Y015210D02*
X011437Y015210D01*
X011494Y015093D02*
X010656Y015093D01*
X010704Y014976D02*
X020982Y014976D01*
X020962Y015093D02*
X013710Y015093D01*
X013767Y015210D02*
X020962Y015210D01*
X021007Y015326D02*
X013771Y015326D01*
X013728Y015443D02*
X021083Y015443D01*
X021031Y014860D02*
X010723Y014860D01*
X010723Y014743D02*
X021141Y014743D01*
X021699Y014043D02*
X022190Y014043D01*
X022063Y013926D02*
X021827Y013926D01*
X021891Y013810D02*
X021998Y013810D01*
X021962Y013693D02*
X021927Y013693D01*
X021927Y013576D02*
X021962Y013576D01*
X021991Y013460D02*
X021898Y013460D01*
X021845Y013343D02*
X022045Y013343D01*
X022161Y013226D02*
X021728Y013226D01*
X019945Y011593D02*
X019860Y011678D01*
X019749Y011724D01*
X019629Y011724D01*
X019517Y011678D01*
X019432Y011593D01*
X019386Y011481D01*
X019386Y011361D01*
X019432Y011250D01*
X019517Y011164D01*
X019629Y011118D01*
X019749Y011118D01*
X019860Y011164D01*
X019945Y011250D01*
X019992Y011361D01*
X019992Y011481D01*
X019945Y011593D01*
X032186Y011593D01*
X032186Y011477D02*
X025602Y011477D01*
X025576Y011488D02*
X025455Y011488D01*
X025344Y011442D01*
X025259Y011356D01*
X025213Y011245D01*
X025213Y011125D01*
X025259Y011013D01*
X025344Y010928D01*
X025455Y010882D01*
X025576Y010882D01*
X025687Y010928D01*
X025772Y011013D01*
X025818Y011125D01*
X025818Y011245D01*
X025772Y011356D01*
X025687Y011442D01*
X025576Y011488D01*
X025429Y011477D02*
X019992Y011477D01*
X019991Y011360D02*
X025263Y011360D01*
X025213Y011243D02*
X019939Y011243D01*
X019769Y011127D02*
X025213Y011127D01*
X025262Y011010D02*
X006005Y011010D01*
X006008Y011013D02*
X006055Y011125D01*
X006055Y011245D01*
X006008Y011356D01*
X005923Y011442D01*
X005812Y011488D01*
X005692Y011488D01*
X005580Y011442D01*
X005495Y011356D01*
X005449Y011245D01*
X005449Y011125D01*
X005495Y011013D01*
X005580Y010928D01*
X005692Y010882D01*
X005812Y010882D01*
X005923Y010928D01*
X006008Y011013D01*
X006055Y011127D02*
X019608Y011127D01*
X019629Y010936D02*
X019517Y010890D01*
X019492Y010865D01*
X019467Y010890D01*
X019355Y010936D01*
X019235Y010936D01*
X019124Y010890D01*
X019038Y010805D01*
X018992Y010694D01*
X018992Y010573D01*
X019038Y010462D01*
X019103Y010397D01*
X019038Y010333D01*
X018992Y010221D01*
X018992Y010101D01*
X019038Y009992D01*
X018999Y009992D01*
X018887Y009945D01*
X018823Y009881D01*
X018758Y009945D01*
X018647Y009992D01*
X018526Y009992D01*
X018415Y009945D01*
X018350Y009881D01*
X018286Y009945D01*
X018174Y009992D01*
X018054Y009992D01*
X017942Y009945D01*
X017878Y009881D01*
X017813Y009945D01*
X017702Y009992D01*
X017581Y009992D01*
X017470Y009945D01*
X017385Y009860D01*
X017339Y009749D01*
X017339Y009629D01*
X017385Y009517D01*
X017470Y009432D01*
X017581Y009386D01*
X017702Y009386D01*
X017813Y009432D01*
X017878Y009497D01*
X017942Y009432D01*
X018054Y009386D01*
X018174Y009386D01*
X018286Y009432D01*
X018350Y009497D01*
X018415Y009432D01*
X018526Y009386D01*
X018647Y009386D01*
X018758Y009432D01*
X018823Y009497D01*
X018887Y009432D01*
X018999Y009386D01*
X019119Y009386D01*
X019230Y009432D01*
X019316Y009517D01*
X019362Y009629D01*
X019362Y009749D01*
X019316Y009858D01*
X019355Y009858D01*
X019467Y009905D01*
X019552Y009990D01*
X019598Y010101D01*
X019598Y010221D01*
X019552Y010333D01*
X019487Y010397D01*
X019492Y010402D01*
X019517Y010377D01*
X019629Y010331D01*
X019749Y010331D01*
X019860Y010377D01*
X019945Y010462D01*
X019992Y010573D01*
X019992Y010694D01*
X019945Y010805D01*
X019860Y010890D01*
X019749Y010936D01*
X019629Y010936D01*
X019525Y010893D02*
X019459Y010893D01*
X019131Y010893D02*
X005839Y010893D01*
X005664Y010893D02*
X000420Y010893D01*
X000420Y010777D02*
X005056Y010777D01*
X005062Y010779D02*
X004950Y010733D01*
X004865Y010648D01*
X004819Y010536D01*
X004819Y010416D01*
X004865Y010305D01*
X004950Y010220D01*
X005062Y010173D01*
X005182Y010173D01*
X005293Y010220D01*
X005379Y010305D01*
X005425Y010416D01*
X005425Y010536D01*
X005379Y010648D01*
X005293Y010733D01*
X005182Y010779D01*
X005062Y010779D01*
X005188Y010777D02*
X010017Y010777D01*
X010022Y010779D02*
X009911Y010733D01*
X009826Y010648D01*
X009780Y010536D01*
X009780Y010416D01*
X009826Y010305D01*
X009911Y010220D01*
X010022Y010173D01*
X010143Y010173D01*
X010254Y010220D01*
X010339Y010305D01*
X010385Y010416D01*
X010385Y010536D01*
X010339Y010648D01*
X010254Y010733D01*
X010143Y010779D01*
X010022Y010779D01*
X010148Y010777D02*
X019027Y010777D01*
X018992Y010660D02*
X010327Y010660D01*
X010382Y010543D02*
X019005Y010543D01*
X019074Y010427D02*
X010385Y010427D01*
X010341Y010310D02*
X019029Y010310D01*
X018992Y010193D02*
X010191Y010193D01*
X009974Y010193D02*
X009140Y010193D01*
X009158Y010175D02*
X009073Y010260D01*
X008962Y010307D01*
X008841Y010307D01*
X008810Y010294D01*
X008810Y010300D01*
X008764Y010411D01*
X008679Y010497D01*
X008568Y010543D01*
X008447Y010543D01*
X008336Y010497D01*
X008271Y010432D01*
X008207Y010497D01*
X008096Y010543D01*
X007975Y010543D01*
X007864Y010497D01*
X007779Y010411D01*
X007732Y010300D01*
X007732Y010180D01*
X007779Y010068D01*
X007864Y009983D01*
X007975Y009937D01*
X008096Y009937D01*
X008207Y009983D01*
X008271Y010048D01*
X008336Y009983D01*
X008447Y009937D01*
X008568Y009937D01*
X008599Y009950D01*
X008599Y009944D01*
X008645Y009832D01*
X008709Y009768D01*
X008645Y009703D01*
X008599Y009592D01*
X008599Y009471D01*
X008645Y009360D01*
X008730Y009275D01*
X008841Y009229D01*
X008926Y009229D01*
X008914Y009198D01*
X008914Y009077D01*
X008960Y008966D01*
X009045Y008881D01*
X009156Y008835D01*
X009277Y008835D01*
X009388Y008881D01*
X009473Y008966D01*
X009519Y009077D01*
X009519Y009198D01*
X009473Y009309D01*
X009388Y009394D01*
X009277Y009440D01*
X009191Y009440D01*
X009204Y009471D01*
X009204Y009592D01*
X009158Y009703D01*
X009093Y009768D01*
X009158Y009832D01*
X009204Y009944D01*
X009204Y010064D01*
X009158Y010175D01*
X009199Y010077D02*
X019002Y010077D01*
X018923Y009960D02*
X018723Y009960D01*
X018450Y009960D02*
X018250Y009960D01*
X017978Y009960D02*
X017778Y009960D01*
X017506Y009960D02*
X016282Y009960D01*
X016317Y009945D02*
X016206Y009992D01*
X016085Y009992D01*
X015974Y009945D01*
X015909Y009881D01*
X015845Y009945D01*
X015733Y009992D01*
X015613Y009992D01*
X015502Y009945D01*
X015437Y009881D01*
X015372Y009945D01*
X015261Y009992D01*
X015140Y009992D01*
X015029Y009945D01*
X014944Y009860D01*
X014898Y009749D01*
X014898Y009629D01*
X014944Y009517D01*
X015029Y009432D01*
X015140Y009386D01*
X015261Y009386D01*
X015372Y009432D01*
X015437Y009497D01*
X015502Y009432D01*
X015613Y009386D01*
X015733Y009386D01*
X015845Y009432D01*
X015909Y009497D01*
X015974Y009432D01*
X016085Y009386D01*
X016206Y009386D01*
X016317Y009432D01*
X016402Y009517D01*
X016448Y009629D01*
X016448Y009749D01*
X016402Y009860D01*
X016317Y009945D01*
X016409Y009844D02*
X017378Y009844D01*
X017339Y009727D02*
X016448Y009727D01*
X016441Y009610D02*
X017346Y009610D01*
X017409Y009494D02*
X016378Y009494D01*
X016009Y009960D02*
X015809Y009960D01*
X015537Y009960D02*
X015337Y009960D01*
X015065Y009960D02*
X009204Y009960D01*
X009163Y009844D02*
X014937Y009844D01*
X014898Y009727D02*
X009134Y009727D01*
X009196Y009610D02*
X014905Y009610D01*
X014968Y009494D02*
X009204Y009494D01*
X009405Y009377D02*
X032186Y009377D01*
X032186Y009494D02*
X028007Y009494D01*
X028049Y009511D02*
X027938Y009465D01*
X027818Y009465D01*
X027706Y009511D01*
X027621Y009596D01*
X027575Y009707D01*
X027575Y009714D01*
X027544Y009701D01*
X027424Y009701D01*
X027393Y009714D01*
X027393Y009707D01*
X027347Y009596D01*
X027262Y009511D01*
X027151Y009465D01*
X027030Y009465D01*
X026919Y009511D01*
X026834Y009596D01*
X026788Y009707D01*
X026788Y009828D01*
X026834Y009939D01*
X026919Y010024D01*
X027030Y010070D01*
X027151Y010070D01*
X027181Y010058D01*
X027181Y010064D01*
X027227Y010175D01*
X027313Y010260D01*
X027424Y010307D01*
X027544Y010307D01*
X027656Y010260D01*
X027741Y010175D01*
X027787Y010064D01*
X027787Y010058D01*
X027818Y010070D01*
X027938Y010070D01*
X028049Y010024D01*
X028134Y009939D01*
X028181Y009828D01*
X028181Y009707D01*
X028134Y009596D01*
X028049Y009511D01*
X028140Y009610D02*
X032186Y009610D01*
X032186Y009727D02*
X028181Y009727D01*
X028174Y009844D02*
X032186Y009844D01*
X032186Y009960D02*
X028113Y009960D01*
X027782Y010077D02*
X032186Y010077D01*
X032186Y010193D02*
X027723Y010193D01*
X027246Y010193D02*
X019598Y010193D01*
X019588Y010077D02*
X027187Y010077D01*
X026855Y009960D02*
X019522Y009960D01*
X019323Y009844D02*
X026794Y009844D01*
X026788Y009727D02*
X019362Y009727D01*
X019354Y009610D02*
X026828Y009610D01*
X026961Y009494D02*
X019292Y009494D01*
X018826Y009494D02*
X018819Y009494D01*
X018354Y009494D02*
X018347Y009494D01*
X017881Y009494D02*
X017874Y009494D01*
X019561Y010310D02*
X032186Y010310D01*
X032186Y010427D02*
X019910Y010427D01*
X019979Y010543D02*
X032186Y010543D01*
X032186Y010660D02*
X019992Y010660D01*
X019957Y010777D02*
X032186Y010777D01*
X032186Y010893D02*
X025603Y010893D01*
X025428Y010893D02*
X019853Y010893D01*
X019438Y011243D02*
X006055Y011243D01*
X006005Y011360D02*
X007983Y011360D01*
X008021Y011322D02*
X008132Y011276D01*
X008253Y011276D01*
X008364Y011322D01*
X008429Y011387D01*
X008494Y011322D01*
X008605Y011276D01*
X008725Y011276D01*
X008837Y011322D01*
X008922Y011407D01*
X008968Y011518D01*
X008968Y011639D01*
X008922Y011750D01*
X008837Y011835D01*
X008725Y011881D01*
X008605Y011881D01*
X008494Y011835D01*
X008429Y011771D01*
X008364Y011835D01*
X008253Y011881D01*
X008132Y011881D01*
X008021Y011835D01*
X007936Y011750D01*
X007890Y011639D01*
X007890Y011518D01*
X007936Y011407D01*
X008021Y011322D01*
X007907Y011477D02*
X005839Y011477D01*
X005665Y011477D02*
X000420Y011477D01*
X000420Y011593D02*
X007890Y011593D01*
X007919Y011710D02*
X000420Y011710D01*
X000420Y011827D02*
X008013Y011827D01*
X008373Y011827D02*
X008485Y011827D01*
X008845Y011827D02*
X032186Y011827D01*
X032186Y011943D02*
X000420Y011943D01*
X000420Y011360D02*
X005499Y011360D01*
X005449Y011243D02*
X000420Y011243D01*
X000420Y011127D02*
X005449Y011127D01*
X005498Y011010D02*
X000420Y011010D01*
X000420Y010660D02*
X004878Y010660D01*
X004822Y010543D02*
X000420Y010543D01*
X000420Y010427D02*
X004819Y010427D01*
X004863Y010310D02*
X000420Y010310D01*
X000420Y010193D02*
X005013Y010193D01*
X005230Y010193D02*
X007732Y010193D01*
X007737Y010310D02*
X005381Y010310D01*
X005425Y010427D02*
X007794Y010427D01*
X007775Y010077D02*
X000420Y010077D01*
X000420Y009960D02*
X007920Y009960D01*
X008151Y009960D02*
X008392Y009960D01*
X008640Y009844D02*
X000420Y009844D01*
X000420Y009727D02*
X008669Y009727D01*
X008606Y009610D02*
X000420Y009610D01*
X000420Y009494D02*
X008599Y009494D01*
X008638Y009377D02*
X006098Y009377D01*
X006081Y009394D02*
X005970Y009440D01*
X005849Y009440D01*
X005738Y009394D01*
X005653Y009309D01*
X005606Y009198D01*
X005606Y009077D01*
X005653Y008966D01*
X005738Y008881D01*
X005849Y008835D01*
X005970Y008835D01*
X006081Y008881D01*
X006166Y008966D01*
X006212Y009077D01*
X006212Y009198D01*
X006166Y009309D01*
X006081Y009394D01*
X006186Y009260D02*
X008765Y009260D01*
X008914Y009144D02*
X006212Y009144D01*
X006191Y009027D02*
X008934Y009027D01*
X009016Y008910D02*
X006110Y008910D01*
X005708Y008910D02*
X000420Y008910D01*
X000420Y008794D02*
X007383Y008794D01*
X007424Y008810D02*
X007313Y008764D01*
X007227Y008679D01*
X007207Y008630D01*
X007151Y008653D01*
X007030Y008653D01*
X006919Y008607D01*
X006834Y008522D01*
X006813Y008472D01*
X006757Y008496D01*
X006636Y008496D01*
X006525Y008449D01*
X006440Y008364D01*
X006419Y008315D01*
X006363Y008338D01*
X006243Y008338D01*
X006131Y008292D01*
X006046Y008207D01*
X006000Y008096D01*
X006000Y007975D01*
X006046Y007864D01*
X006131Y007779D01*
X006243Y007732D01*
X006363Y007732D01*
X006474Y007779D01*
X006560Y007864D01*
X006580Y007913D01*
X006636Y007890D01*
X006757Y007890D01*
X006868Y007936D01*
X006953Y008021D01*
X006974Y008071D01*
X007030Y008047D01*
X007151Y008047D01*
X007262Y008094D01*
X007902Y008094D01*
X007922Y008114D02*
X007857Y008049D01*
X007811Y007938D01*
X007811Y007818D01*
X007857Y007706D01*
X007942Y007621D01*
X008054Y007575D01*
X008174Y007575D01*
X008286Y007621D01*
X008371Y007706D01*
X008417Y007818D01*
X008417Y007938D01*
X008371Y008049D01*
X008306Y008114D01*
X008371Y008179D01*
X008417Y008290D01*
X008417Y008410D01*
X008371Y008522D01*
X008286Y008607D01*
X008174Y008653D01*
X008054Y008653D01*
X007942Y008607D01*
X007857Y008522D01*
X007811Y008410D01*
X007811Y008290D01*
X007857Y008179D01*
X007922Y008114D01*
X007844Y008210D02*
X007557Y008210D01*
X007544Y008205D02*
X007656Y008251D01*
X007741Y008336D01*
X007787Y008447D01*
X007787Y008568D01*
X007741Y008679D01*
X007656Y008764D01*
X007544Y008810D01*
X007424Y008810D01*
X007585Y008794D02*
X010176Y008794D01*
X010141Y008758D02*
X010095Y008647D01*
X010095Y008526D01*
X010141Y008415D01*
X010226Y008330D01*
X010337Y008284D01*
X010458Y008284D01*
X010569Y008330D01*
X010654Y008415D01*
X010700Y008526D01*
X010700Y008647D01*
X010654Y008758D01*
X010569Y008843D01*
X010458Y008889D01*
X010337Y008889D01*
X010226Y008843D01*
X010141Y008758D01*
X010107Y008677D02*
X007742Y008677D01*
X007787Y008560D02*
X007896Y008560D01*
X007825Y008444D02*
X007785Y008444D01*
X007811Y008327D02*
X007732Y008327D01*
X007544Y008205D02*
X007424Y008205D01*
X007368Y008228D01*
X007347Y008179D01*
X007262Y008094D01*
X007360Y008210D02*
X007411Y008210D01*
X007827Y007977D02*
X006909Y007977D01*
X006556Y007860D02*
X007811Y007860D01*
X007842Y007744D02*
X006390Y007744D01*
X006216Y007744D02*
X003684Y007744D01*
X003725Y007785D02*
X003771Y007896D01*
X003771Y008017D01*
X003725Y008128D01*
X003640Y008213D01*
X003529Y008259D01*
X003408Y008259D01*
X003297Y008213D01*
X003212Y008128D01*
X003166Y008017D01*
X003166Y007896D01*
X003212Y007785D01*
X003297Y007700D01*
X003408Y007654D01*
X003529Y007654D01*
X003640Y007700D01*
X003725Y007785D01*
X003756Y007860D02*
X006050Y007860D01*
X006000Y007977D02*
X003771Y007977D01*
X003739Y008094D02*
X006000Y008094D01*
X006050Y008210D02*
X003643Y008210D01*
X003294Y008210D02*
X000420Y008210D01*
X000420Y008094D02*
X003197Y008094D01*
X003166Y007977D02*
X000420Y007977D01*
X000420Y007860D02*
X003180Y007860D01*
X003253Y007744D02*
X000420Y007744D01*
X000420Y007627D02*
X007936Y007627D01*
X008291Y007627D02*
X008679Y007627D01*
X008677Y007623D02*
X008677Y007503D01*
X008723Y007391D01*
X008809Y007306D01*
X008920Y007260D01*
X009040Y007260D01*
X009152Y007306D01*
X009237Y007391D01*
X009283Y007503D01*
X009283Y007623D01*
X009237Y007734D01*
X009152Y007819D01*
X009040Y007866D01*
X008920Y007866D01*
X008809Y007819D01*
X008723Y007734D01*
X008677Y007623D01*
X008677Y007510D02*
X000420Y007510D01*
X000420Y007394D02*
X008722Y007394D01*
X008879Y007277D02*
X007201Y007277D01*
X007223Y007268D02*
X007111Y007314D01*
X006991Y007314D01*
X006879Y007268D01*
X006794Y007183D01*
X006748Y007072D01*
X006748Y006951D01*
X006794Y006840D01*
X006879Y006755D01*
X006991Y006709D01*
X007111Y006709D01*
X007223Y006755D01*
X007308Y006840D01*
X007354Y006951D01*
X007354Y007072D01*
X007308Y007183D01*
X007223Y007268D01*
X007317Y007160D02*
X010276Y007160D01*
X010305Y007190D02*
X010220Y007104D01*
X010173Y006993D01*
X010173Y006873D01*
X010220Y006761D01*
X010305Y006676D01*
X010416Y006630D01*
X010536Y006630D01*
X010648Y006676D01*
X010733Y006761D01*
X010779Y006873D01*
X010779Y006945D01*
X010851Y006945D01*
X010963Y006991D01*
X011048Y007076D01*
X011094Y007188D01*
X011094Y007308D01*
X011048Y007419D01*
X010963Y007505D01*
X010851Y007551D01*
X010731Y007551D01*
X010620Y007505D01*
X010534Y007419D01*
X010488Y007308D01*
X010488Y007236D01*
X010416Y007236D01*
X010305Y007190D01*
X010194Y007044D02*
X007354Y007044D01*
X007344Y006927D02*
X010173Y006927D01*
X010199Y006811D02*
X007278Y006811D01*
X006901Y007277D02*
X000420Y007277D01*
X000420Y007160D02*
X006785Y007160D01*
X006748Y007044D02*
X000420Y007044D01*
X000420Y006927D02*
X006758Y006927D01*
X006824Y006811D02*
X000420Y006811D01*
X000420Y006694D02*
X010287Y006694D01*
X010665Y006694D02*
X011204Y006694D01*
X011197Y006678D02*
X011197Y006558D01*
X011243Y006446D01*
X011328Y006361D01*
X011440Y006315D01*
X011560Y006315D01*
X011671Y006361D01*
X011756Y006446D01*
X011803Y006558D01*
X011803Y006678D01*
X011756Y006789D01*
X011671Y006875D01*
X011560Y006921D01*
X011440Y006921D01*
X011328Y006875D01*
X011243Y006789D01*
X011197Y006678D01*
X011197Y006577D02*
X000420Y006577D01*
X000420Y006461D02*
X001128Y006461D01*
X001144Y006476D02*
X001008Y006340D01*
X000934Y006163D01*
X000934Y005971D01*
X001008Y005793D01*
X001144Y005657D01*
X001321Y005584D01*
X001513Y005584D01*
X001691Y005657D01*
X001826Y005793D01*
X001900Y005971D01*
X001900Y006163D01*
X001826Y006340D01*
X001691Y006476D01*
X001513Y006550D01*
X001321Y006550D01*
X001144Y006476D01*
X001012Y006344D02*
X000420Y006344D01*
X000420Y006227D02*
X000961Y006227D01*
X000934Y006111D02*
X000420Y006111D01*
X000420Y005994D02*
X000934Y005994D01*
X000973Y005877D02*
X000420Y005877D01*
X000420Y005761D02*
X001041Y005761D01*
X001176Y005644D02*
X000420Y005644D01*
X000420Y005527D02*
X026788Y005527D01*
X026788Y005576D02*
X026788Y005455D01*
X026834Y005344D01*
X026867Y005311D01*
X026840Y005300D01*
X026755Y005215D01*
X026709Y005103D01*
X026709Y004983D01*
X026755Y004872D01*
X026840Y004786D01*
X026951Y004740D01*
X027072Y004740D01*
X027183Y004786D01*
X027268Y004872D01*
X027302Y004954D01*
X027313Y004944D01*
X027424Y004898D01*
X027544Y004898D01*
X027656Y004944D01*
X032186Y004944D01*
X032186Y004827D02*
X027224Y004827D01*
X027298Y004944D02*
X027312Y004944D01*
X027656Y004944D02*
X027741Y005029D01*
X027787Y005140D01*
X027787Y005226D01*
X027818Y005213D01*
X027938Y005213D01*
X028049Y005259D01*
X028134Y005344D01*
X028181Y005455D01*
X028181Y005576D01*
X028134Y005687D01*
X028049Y005772D01*
X027938Y005818D01*
X027818Y005818D01*
X027706Y005772D01*
X027621Y005687D01*
X027575Y005576D01*
X027575Y005491D01*
X027544Y005503D01*
X027424Y005503D01*
X027393Y005491D01*
X027393Y005576D01*
X027347Y005687D01*
X027262Y005772D01*
X027151Y005818D01*
X027030Y005818D01*
X026919Y005772D01*
X026834Y005687D01*
X026788Y005576D01*
X026816Y005644D02*
X004654Y005644D01*
X004671Y005653D02*
X004732Y005698D01*
X004786Y005751D01*
X004831Y005813D01*
X004866Y005881D01*
X004889Y005953D01*
X004898Y006011D01*
X004473Y006011D01*
X004473Y006123D01*
X004361Y006123D01*
X004361Y006548D01*
X004304Y006539D01*
X004231Y006515D01*
X004163Y006481D01*
X004102Y006436D01*
X004048Y006382D01*
X004003Y006320D01*
X003969Y006253D01*
X003945Y006180D01*
X003936Y006123D01*
X004361Y006123D01*
X004361Y006011D01*
X003936Y006011D01*
X003945Y005953D01*
X003969Y005881D01*
X004003Y005813D01*
X004048Y005751D01*
X004102Y005698D01*
X004163Y005653D01*
X004231Y005618D01*
X004304Y005595D01*
X004361Y005586D01*
X004361Y006011D01*
X004473Y006011D01*
X004473Y005586D01*
X004531Y005595D01*
X004603Y005618D01*
X004671Y005653D01*
X004793Y005761D02*
X026907Y005761D01*
X027274Y005761D02*
X027695Y005761D01*
X027603Y005644D02*
X027365Y005644D01*
X027393Y005527D02*
X027575Y005527D01*
X027787Y005177D02*
X032186Y005177D01*
X032186Y005061D02*
X027754Y005061D01*
X028084Y005294D02*
X032186Y005294D01*
X032186Y005411D02*
X028162Y005411D01*
X028181Y005527D02*
X032186Y005527D01*
X032186Y005644D02*
X028152Y005644D01*
X028061Y005761D02*
X032186Y005761D01*
X032186Y005877D02*
X009517Y005877D01*
X009545Y005889D02*
X009631Y005974D01*
X009677Y006085D01*
X009677Y006206D01*
X009631Y006317D01*
X009545Y006402D01*
X009434Y006448D01*
X009314Y006448D01*
X009202Y006402D01*
X009117Y006317D01*
X009071Y006206D01*
X009071Y006085D01*
X009117Y005974D01*
X009202Y005889D01*
X009314Y005843D01*
X009434Y005843D01*
X009545Y005889D01*
X009639Y005994D02*
X032186Y005994D01*
X032186Y006111D02*
X013074Y006111D01*
X013095Y006131D02*
X013141Y006243D01*
X013141Y006363D01*
X013095Y006474D01*
X013010Y006560D01*
X012899Y006606D01*
X012778Y006606D01*
X012667Y006560D01*
X012582Y006474D01*
X012536Y006363D01*
X012536Y006243D01*
X012582Y006131D01*
X012667Y006046D01*
X012778Y006000D01*
X012899Y006000D01*
X013010Y006046D01*
X013095Y006131D01*
X013135Y006227D02*
X032186Y006227D01*
X032186Y006344D02*
X013141Y006344D01*
X013101Y006461D02*
X032186Y006461D01*
X032186Y006577D02*
X012968Y006577D01*
X012709Y006577D02*
X012338Y006577D01*
X012380Y006560D02*
X012269Y006606D01*
X012148Y006606D01*
X012037Y006560D01*
X011952Y006474D01*
X011906Y006363D01*
X011906Y006243D01*
X011952Y006131D01*
X012037Y006046D01*
X012148Y006000D01*
X012269Y006000D01*
X012380Y006046D01*
X012465Y006131D01*
X012511Y006243D01*
X012511Y006363D01*
X012465Y006474D01*
X012380Y006560D01*
X012471Y006461D02*
X012576Y006461D01*
X012536Y006344D02*
X012511Y006344D01*
X012505Y006227D02*
X012542Y006227D01*
X012603Y006111D02*
X012444Y006111D01*
X011973Y006111D02*
X009677Y006111D01*
X009668Y006227D02*
X011912Y006227D01*
X011906Y006344D02*
X011629Y006344D01*
X011762Y006461D02*
X011946Y006461D01*
X012079Y006577D02*
X011803Y006577D01*
X011796Y006694D02*
X032186Y006694D01*
X032186Y006811D02*
X011735Y006811D01*
X011264Y006811D02*
X010753Y006811D01*
X010779Y006927D02*
X032186Y006927D01*
X032186Y007044D02*
X030858Y007044D01*
X030890Y007076D02*
X030936Y007188D01*
X030936Y007308D01*
X030890Y007419D01*
X030805Y007505D01*
X030694Y007551D01*
X030573Y007551D01*
X030462Y007505D01*
X030377Y007419D01*
X030331Y007308D01*
X030331Y007188D01*
X030377Y007076D01*
X030462Y006991D01*
X030573Y006945D01*
X030694Y006945D01*
X030805Y006991D01*
X030890Y007076D01*
X030925Y007160D02*
X032186Y007160D01*
X032186Y007277D02*
X030936Y007277D01*
X030901Y007394D02*
X032186Y007394D01*
X032186Y007510D02*
X030791Y007510D01*
X030476Y007510D02*
X010948Y007510D01*
X011058Y007394D02*
X030366Y007394D01*
X030331Y007277D02*
X011094Y007277D01*
X011083Y007160D02*
X030342Y007160D01*
X030410Y007044D02*
X011015Y007044D01*
X010488Y007277D02*
X009082Y007277D01*
X009238Y007394D02*
X010524Y007394D01*
X010634Y007510D02*
X009283Y007510D01*
X009281Y007627D02*
X012661Y007627D01*
X012667Y007621D02*
X012778Y007575D01*
X012899Y007575D01*
X013010Y007621D01*
X013095Y007706D01*
X013141Y007818D01*
X013141Y007938D01*
X013095Y008049D01*
X013010Y008134D01*
X012899Y008181D01*
X012778Y008181D01*
X012667Y008134D01*
X012582Y008049D01*
X012536Y007938D01*
X012536Y007818D01*
X012582Y007706D01*
X012667Y007621D01*
X012566Y007744D02*
X009227Y007744D01*
X009053Y007860D02*
X012536Y007860D01*
X012552Y007977D02*
X012421Y007977D01*
X012380Y007936D02*
X012465Y008021D01*
X012511Y008132D01*
X012511Y008253D01*
X012465Y008364D01*
X012380Y008449D01*
X012269Y008496D01*
X012148Y008496D01*
X012037Y008449D01*
X011952Y008364D01*
X011906Y008253D01*
X011906Y008132D01*
X011952Y008021D01*
X012037Y007936D01*
X012148Y007890D01*
X012269Y007890D01*
X012380Y007936D01*
X012495Y008094D02*
X012626Y008094D01*
X012511Y008210D02*
X032186Y008210D01*
X032186Y008094D02*
X013051Y008094D01*
X013125Y007977D02*
X032186Y007977D01*
X032186Y007860D02*
X013141Y007860D01*
X013111Y007744D02*
X032186Y007744D01*
X032186Y007627D02*
X013016Y007627D01*
X012481Y008327D02*
X032186Y008327D01*
X032186Y008444D02*
X012386Y008444D01*
X012031Y008444D02*
X011488Y008444D01*
X011488Y008489D02*
X011442Y008600D01*
X011356Y008686D01*
X011245Y008732D01*
X011125Y008732D01*
X011013Y008686D01*
X010928Y008600D01*
X010882Y008489D01*
X010882Y008369D01*
X010928Y008257D01*
X011013Y008172D01*
X011125Y008126D01*
X011245Y008126D01*
X011356Y008172D01*
X011442Y008257D01*
X011488Y008369D01*
X011488Y008489D01*
X011458Y008560D02*
X032186Y008560D01*
X032186Y008677D02*
X011365Y008677D01*
X011005Y008677D02*
X010688Y008677D01*
X010700Y008560D02*
X010912Y008560D01*
X010882Y008444D02*
X010666Y008444D01*
X010562Y008327D02*
X010899Y008327D01*
X010975Y008210D02*
X008384Y008210D01*
X008417Y008327D02*
X010233Y008327D01*
X010129Y008444D02*
X008403Y008444D01*
X008332Y008560D02*
X010095Y008560D01*
X010618Y008794D02*
X032186Y008794D01*
X032186Y008910D02*
X009417Y008910D01*
X009498Y009027D02*
X032186Y009027D01*
X032186Y009144D02*
X009519Y009144D01*
X009493Y009260D02*
X032186Y009260D01*
X032186Y011010D02*
X025769Y011010D01*
X025818Y011127D02*
X032186Y011127D01*
X032186Y011243D02*
X025818Y011243D01*
X025769Y011360D02*
X032186Y011360D01*
X032186Y011710D02*
X019783Y011710D01*
X019595Y011710D02*
X008939Y011710D01*
X008968Y011593D02*
X019433Y011593D01*
X019386Y011477D02*
X008951Y011477D01*
X008875Y011360D02*
X019386Y011360D01*
X015913Y009494D02*
X015906Y009494D01*
X015440Y009494D02*
X015434Y009494D01*
X011936Y008327D02*
X011470Y008327D01*
X011394Y008210D02*
X011906Y008210D01*
X011922Y008094D02*
X008326Y008094D01*
X008401Y007977D02*
X011996Y007977D01*
X011237Y006461D02*
X004699Y006461D01*
X004671Y006481D02*
X004603Y006515D01*
X004531Y006539D01*
X004473Y006548D01*
X004473Y006123D01*
X004898Y006123D01*
X004889Y006180D01*
X004866Y006253D01*
X004831Y006320D01*
X004786Y006382D01*
X004732Y006436D01*
X004671Y006481D01*
X004814Y006344D02*
X009144Y006344D01*
X009080Y006227D02*
X004874Y006227D01*
X004896Y005994D02*
X009109Y005994D01*
X009071Y006111D02*
X004473Y006111D01*
X004361Y006111D02*
X003900Y006111D01*
X003900Y006163D02*
X003826Y006340D01*
X003691Y006476D01*
X003513Y006550D01*
X003321Y006550D01*
X003144Y006476D01*
X003008Y006340D01*
X002934Y006163D01*
X002934Y005971D01*
X003008Y005793D01*
X003144Y005657D01*
X003321Y005584D01*
X003513Y005584D01*
X003691Y005657D01*
X003826Y005793D01*
X003900Y005971D01*
X003900Y006163D01*
X003873Y006227D02*
X003960Y006227D01*
X004020Y006344D02*
X003823Y006344D01*
X003706Y006461D02*
X004136Y006461D01*
X004361Y006461D02*
X004473Y006461D01*
X004473Y006344D02*
X004361Y006344D01*
X004361Y006227D02*
X004473Y006227D01*
X004473Y005994D02*
X004361Y005994D01*
X004361Y005877D02*
X004473Y005877D01*
X004473Y005761D02*
X004361Y005761D01*
X004361Y005644D02*
X004473Y005644D01*
X004181Y005644D02*
X003658Y005644D01*
X003794Y005761D02*
X004041Y005761D01*
X003970Y005877D02*
X003861Y005877D01*
X003900Y005994D02*
X003939Y005994D01*
X004864Y005877D02*
X009230Y005877D01*
X009604Y006344D02*
X011370Y006344D01*
X013448Y005215D02*
X013402Y005103D01*
X013402Y004983D01*
X013448Y004872D01*
X013533Y004786D01*
X013644Y004740D01*
X013765Y004740D01*
X013876Y004786D01*
X013961Y004872D01*
X014007Y004983D01*
X014007Y005103D01*
X013961Y005215D01*
X013876Y005300D01*
X013765Y005346D01*
X013644Y005346D01*
X013533Y005300D01*
X013448Y005215D01*
X013432Y005177D02*
X006763Y005177D01*
X006763Y005140D02*
X006763Y005261D01*
X006717Y005372D01*
X006632Y005457D01*
X006521Y005503D01*
X006400Y005503D01*
X006289Y005457D01*
X006204Y005372D01*
X006158Y005261D01*
X006158Y005140D01*
X006204Y005029D01*
X006289Y004944D01*
X006316Y004933D01*
X006283Y004900D01*
X006236Y004788D01*
X006236Y004668D01*
X006283Y004557D01*
X006368Y004471D01*
X006479Y004425D01*
X006599Y004425D01*
X006711Y004471D01*
X006796Y004557D01*
X006842Y004668D01*
X006842Y004788D01*
X006796Y004900D01*
X006711Y004985D01*
X006684Y004996D01*
X006717Y005029D01*
X006763Y005140D01*
X006730Y005061D02*
X013402Y005061D01*
X013418Y004944D02*
X006751Y004944D01*
X006826Y004827D02*
X013492Y004827D01*
X013917Y004827D02*
X026799Y004827D01*
X026725Y004944D02*
X013991Y004944D01*
X014007Y005061D02*
X026709Y005061D01*
X026740Y005177D02*
X013977Y005177D01*
X013882Y005294D02*
X026834Y005294D01*
X026806Y005411D02*
X006679Y005411D01*
X006750Y005294D02*
X013527Y005294D01*
X013217Y003142D02*
X013217Y002717D01*
X013105Y002717D01*
X013105Y002605D01*
X012680Y002605D01*
X012689Y002548D01*
X012713Y002475D01*
X012747Y002408D01*
X012792Y002346D01*
X012846Y002292D01*
X012908Y002247D01*
X012975Y002213D01*
X013048Y002189D01*
X013105Y002180D01*
X013105Y002605D01*
X013217Y002605D01*
X013217Y002180D01*
X013275Y002189D01*
X013347Y002213D01*
X013415Y002247D01*
X013477Y002292D01*
X013530Y002346D01*
X013575Y002408D01*
X013610Y002475D01*
X013633Y002548D01*
X013642Y002605D01*
X013217Y002605D01*
X013217Y002717D01*
X013642Y002717D01*
X013633Y002775D01*
X013610Y002847D01*
X013575Y002915D01*
X013530Y002977D01*
X013477Y003030D01*
X013415Y003075D01*
X013347Y003110D01*
X013275Y003133D01*
X013217Y003142D01*
X013217Y003078D02*
X013105Y003078D01*
X013105Y003142D02*
X013048Y003133D01*
X012975Y003110D01*
X012908Y003075D01*
X012846Y003030D01*
X012792Y002977D01*
X012747Y002915D01*
X012713Y002847D01*
X012689Y002775D01*
X012680Y002717D01*
X013105Y002717D01*
X013105Y003142D01*
X013105Y002961D02*
X013217Y002961D01*
X013217Y002844D02*
X013105Y002844D01*
X013105Y002728D02*
X013217Y002728D01*
X013217Y002611D02*
X030659Y002611D01*
X030693Y002625D02*
X030366Y002490D01*
X030116Y002240D01*
X029981Y001913D01*
X029981Y001559D01*
X030116Y001232D01*
X030366Y000982D01*
X030693Y000847D01*
X031047Y000847D01*
X031373Y000982D01*
X031624Y001232D01*
X031759Y001559D01*
X031759Y001913D01*
X031624Y002240D01*
X031373Y002490D01*
X031047Y002625D01*
X030693Y002625D01*
X030378Y002494D02*
X013616Y002494D01*
X013554Y002378D02*
X030254Y002378D01*
X030138Y002261D02*
X013434Y002261D01*
X013217Y002261D02*
X013105Y002261D01*
X013105Y002378D02*
X013217Y002378D01*
X013217Y002494D02*
X013105Y002494D01*
X013105Y002611D02*
X012644Y002611D01*
X012644Y002565D02*
X012571Y002388D01*
X012435Y002252D01*
X012257Y002178D01*
X012065Y002178D01*
X011888Y002252D01*
X011752Y002388D01*
X011678Y002565D01*
X011678Y002757D01*
X011752Y002935D01*
X011888Y003071D01*
X012065Y003144D01*
X012257Y003144D01*
X012435Y003071D01*
X012571Y002935D01*
X012644Y002757D01*
X012644Y002565D01*
X012615Y002494D02*
X012707Y002494D01*
X012769Y002378D02*
X012560Y002378D01*
X012444Y002261D02*
X012889Y002261D01*
X012682Y002728D02*
X012644Y002728D01*
X012608Y002844D02*
X012712Y002844D01*
X012781Y002961D02*
X012544Y002961D01*
X012418Y003078D02*
X012912Y003078D01*
X013410Y003078D02*
X032186Y003078D01*
X032186Y003194D02*
X000420Y003194D01*
X000420Y003078D02*
X003905Y003078D01*
X003888Y003071D02*
X003752Y002935D01*
X003678Y002757D01*
X003678Y002565D01*
X003752Y002388D01*
X003888Y002252D01*
X004065Y002178D01*
X004257Y002178D01*
X004435Y002252D01*
X004571Y002388D01*
X004644Y002565D01*
X004644Y002757D01*
X004571Y002935D01*
X004435Y003071D01*
X004257Y003144D01*
X004065Y003144D01*
X003888Y003071D01*
X003778Y002961D02*
X000420Y002961D01*
X000420Y002844D02*
X003715Y002844D01*
X003678Y002728D02*
X000420Y002728D01*
X000420Y002611D02*
X001525Y002611D01*
X001559Y002625D02*
X001232Y002490D01*
X000982Y002240D01*
X000847Y001913D01*
X000847Y001559D01*
X000982Y001232D01*
X001232Y000982D01*
X001559Y000847D01*
X001913Y000847D01*
X002240Y000982D01*
X002490Y001232D01*
X002625Y001559D01*
X002625Y001913D01*
X002490Y002240D01*
X002240Y002490D01*
X001913Y002625D01*
X001559Y002625D01*
X001244Y002494D02*
X000420Y002494D01*
X000420Y002378D02*
X001120Y002378D01*
X001004Y002261D02*
X000420Y002261D01*
X000420Y002144D02*
X000943Y002144D01*
X000895Y002028D02*
X000420Y002028D01*
X000420Y001911D02*
X000847Y001911D01*
X000847Y001794D02*
X000420Y001794D01*
X000420Y001678D02*
X000847Y001678D01*
X000847Y001561D02*
X000420Y001561D01*
X000420Y001444D02*
X000895Y001444D01*
X000943Y001328D02*
X000420Y001328D01*
X000420Y001211D02*
X001004Y001211D01*
X001120Y001094D02*
X000420Y001094D01*
X000420Y000978D02*
X001244Y000978D01*
X001525Y000861D02*
X000420Y000861D01*
X000420Y000745D02*
X003906Y000745D01*
X003888Y000752D02*
X004065Y000678D01*
X004257Y000678D01*
X004435Y000752D01*
X004571Y000888D01*
X004644Y001065D01*
X004644Y001257D01*
X004571Y001435D01*
X004435Y001571D01*
X004257Y001644D01*
X004065Y001644D01*
X003888Y001571D01*
X003752Y001435D01*
X003678Y001257D01*
X003678Y001065D01*
X003752Y000888D01*
X003888Y000752D01*
X003779Y000861D02*
X001947Y000861D01*
X002229Y000978D02*
X003715Y000978D01*
X003678Y001094D02*
X002352Y001094D01*
X002468Y001211D02*
X003678Y001211D01*
X003708Y001328D02*
X002529Y001328D01*
X002577Y001444D02*
X003762Y001444D01*
X003878Y001561D02*
X002625Y001561D01*
X002625Y001678D02*
X029981Y001678D01*
X029981Y001794D02*
X002625Y001794D01*
X002625Y001911D02*
X029981Y001911D01*
X030029Y002028D02*
X002577Y002028D01*
X002529Y002144D02*
X030077Y002144D01*
X029981Y001561D02*
X013434Y001561D01*
X013415Y001575D02*
X013347Y001610D01*
X013275Y001633D01*
X013217Y001642D01*
X013217Y001217D01*
X013105Y001217D01*
X013105Y001105D01*
X012680Y001105D01*
X012689Y001048D01*
X012713Y000975D01*
X012747Y000908D01*
X012792Y000846D01*
X012846Y000792D01*
X012908Y000747D01*
X012975Y000713D01*
X013048Y000689D01*
X013105Y000680D01*
X013105Y001105D01*
X013217Y001105D01*
X013217Y000680D01*
X013275Y000689D01*
X013347Y000713D01*
X013415Y000747D01*
X013477Y000792D01*
X013530Y000846D01*
X013575Y000908D01*
X013610Y000975D01*
X013633Y001048D01*
X013642Y001105D01*
X013217Y001105D01*
X013217Y001217D01*
X013642Y001217D01*
X013633Y001275D01*
X013610Y001347D01*
X013575Y001415D01*
X013530Y001477D01*
X013477Y001530D01*
X013415Y001575D01*
X013554Y001444D02*
X030028Y001444D01*
X030077Y001328D02*
X013616Y001328D01*
X013641Y001094D02*
X030254Y001094D01*
X030138Y001211D02*
X013217Y001211D01*
X013105Y001217D02*
X013105Y001642D01*
X013048Y001633D01*
X012975Y001610D01*
X012908Y001575D01*
X012846Y001530D01*
X012792Y001477D01*
X012747Y001415D01*
X012713Y001347D01*
X012689Y001275D01*
X012680Y001217D01*
X013105Y001217D01*
X013105Y001211D02*
X012644Y001211D01*
X012644Y001257D02*
X012571Y001435D01*
X012435Y001571D01*
X012257Y001644D01*
X012065Y001644D01*
X011888Y001571D01*
X011752Y001435D01*
X011678Y001257D01*
X011678Y001065D01*
X011752Y000888D01*
X011888Y000752D01*
X012065Y000678D01*
X012257Y000678D01*
X012435Y000752D01*
X012571Y000888D01*
X012644Y001065D01*
X012644Y001257D01*
X012615Y001328D02*
X012706Y001328D01*
X012769Y001444D02*
X012561Y001444D01*
X012444Y001561D02*
X012888Y001561D01*
X013105Y001561D02*
X013217Y001561D01*
X013217Y001444D02*
X013105Y001444D01*
X013105Y001328D02*
X013217Y001328D01*
X013217Y001094D02*
X013105Y001094D01*
X013105Y000978D02*
X013217Y000978D01*
X013217Y000861D02*
X013105Y000861D01*
X013105Y000745D02*
X013217Y000745D01*
X013410Y000745D02*
X032186Y000745D01*
X032186Y000861D02*
X031081Y000861D01*
X031362Y000978D02*
X032186Y000978D01*
X032186Y001094D02*
X031486Y001094D01*
X031602Y001211D02*
X032186Y001211D01*
X032186Y001328D02*
X031663Y001328D01*
X031711Y001444D02*
X032186Y001444D01*
X032186Y001561D02*
X031759Y001561D01*
X031759Y001678D02*
X032186Y001678D01*
X032186Y001794D02*
X031759Y001794D01*
X031759Y001911D02*
X032186Y001911D01*
X032186Y002028D02*
X031711Y002028D01*
X031663Y002144D02*
X032186Y002144D01*
X032186Y002261D02*
X031602Y002261D01*
X031485Y002378D02*
X032186Y002378D01*
X032186Y002494D02*
X031362Y002494D01*
X031081Y002611D02*
X032186Y002611D01*
X032186Y002728D02*
X013641Y002728D01*
X013611Y002844D02*
X032186Y002844D01*
X032186Y002961D02*
X013542Y002961D01*
X011905Y003078D02*
X011418Y003078D01*
X011435Y003071D02*
X011257Y003144D01*
X011065Y003144D01*
X010888Y003071D01*
X010752Y002935D01*
X010678Y002757D01*
X010678Y002565D01*
X010752Y002388D01*
X010888Y002252D01*
X011065Y002178D01*
X011257Y002178D01*
X011435Y002252D01*
X011571Y002388D01*
X011644Y002565D01*
X011644Y002757D01*
X011571Y002935D01*
X011435Y003071D01*
X011544Y002961D02*
X011778Y002961D01*
X011715Y002844D02*
X011608Y002844D01*
X011644Y002728D02*
X011678Y002728D01*
X011678Y002611D02*
X011644Y002611D01*
X011615Y002494D02*
X011708Y002494D01*
X011762Y002378D02*
X011560Y002378D01*
X011444Y002261D02*
X011879Y002261D01*
X011435Y001571D02*
X011257Y001644D01*
X011065Y001644D01*
X010888Y001571D01*
X010752Y001435D01*
X010678Y001257D01*
X010678Y001065D01*
X010752Y000888D01*
X010888Y000752D01*
X011065Y000678D01*
X011257Y000678D01*
X011435Y000752D01*
X011571Y000888D01*
X011644Y001065D01*
X011644Y001257D01*
X011571Y001435D01*
X011435Y001571D01*
X011444Y001561D02*
X011878Y001561D01*
X011762Y001444D02*
X011561Y001444D01*
X011615Y001328D02*
X011708Y001328D01*
X011678Y001211D02*
X011644Y001211D01*
X011644Y001094D02*
X011678Y001094D01*
X011715Y000978D02*
X011608Y000978D01*
X011544Y000861D02*
X011779Y000861D01*
X011906Y000745D02*
X011417Y000745D01*
X010906Y000745D02*
X010417Y000745D01*
X010435Y000752D02*
X010257Y000678D01*
X010065Y000678D01*
X009888Y000752D01*
X009752Y000888D01*
X009678Y001065D01*
X009678Y001257D01*
X009752Y001435D01*
X009888Y001571D01*
X010065Y001644D01*
X010257Y001644D01*
X010435Y001571D01*
X010571Y001435D01*
X010644Y001257D01*
X010644Y001065D01*
X010571Y000888D01*
X010435Y000752D01*
X010544Y000861D02*
X010779Y000861D01*
X010715Y000978D02*
X010608Y000978D01*
X010644Y001094D02*
X010678Y001094D01*
X010678Y001211D02*
X010644Y001211D01*
X010615Y001328D02*
X010708Y001328D01*
X010762Y001444D02*
X010561Y001444D01*
X010444Y001561D02*
X010878Y001561D01*
X010879Y002261D02*
X010444Y002261D01*
X010435Y002252D02*
X010571Y002388D01*
X010644Y002565D01*
X010644Y002757D01*
X010571Y002935D01*
X010435Y003071D01*
X010257Y003144D01*
X010065Y003144D01*
X009888Y003071D01*
X009752Y002935D01*
X009678Y002757D01*
X009678Y002565D01*
X009752Y002388D01*
X009888Y002252D01*
X010065Y002178D01*
X010257Y002178D01*
X010435Y002252D01*
X010560Y002378D02*
X010762Y002378D01*
X010708Y002494D02*
X010615Y002494D01*
X010644Y002611D02*
X010678Y002611D01*
X010678Y002728D02*
X010644Y002728D01*
X010608Y002844D02*
X010715Y002844D01*
X010778Y002961D02*
X010544Y002961D01*
X010418Y003078D02*
X010905Y003078D01*
X009905Y003078D02*
X009418Y003078D01*
X009435Y003071D02*
X009257Y003144D01*
X009065Y003144D01*
X008888Y003071D01*
X008752Y002935D01*
X008678Y002757D01*
X008678Y002565D01*
X008752Y002388D01*
X008888Y002252D01*
X009065Y002178D01*
X009257Y002178D01*
X009435Y002252D01*
X009571Y002388D01*
X009644Y002565D01*
X009644Y002757D01*
X009571Y002935D01*
X009435Y003071D01*
X009544Y002961D02*
X009778Y002961D01*
X009715Y002844D02*
X009608Y002844D01*
X009644Y002728D02*
X009678Y002728D01*
X009678Y002611D02*
X009644Y002611D01*
X009615Y002494D02*
X009708Y002494D01*
X009762Y002378D02*
X009560Y002378D01*
X009444Y002261D02*
X009879Y002261D01*
X009435Y001571D02*
X009257Y001644D01*
X009065Y001644D01*
X008888Y001571D01*
X008752Y001435D01*
X008678Y001257D01*
X008678Y001065D01*
X008752Y000888D01*
X008888Y000752D01*
X009065Y000678D01*
X009257Y000678D01*
X009435Y000752D01*
X009571Y000888D01*
X009644Y001065D01*
X009644Y001257D01*
X009571Y001435D01*
X009435Y001571D01*
X009444Y001561D02*
X009878Y001561D01*
X009762Y001444D02*
X009561Y001444D01*
X009615Y001328D02*
X009708Y001328D01*
X009678Y001211D02*
X009644Y001211D01*
X009644Y001094D02*
X009678Y001094D01*
X009715Y000978D02*
X009608Y000978D01*
X009544Y000861D02*
X009779Y000861D01*
X009906Y000745D02*
X009417Y000745D01*
X008906Y000745D02*
X008417Y000745D01*
X008435Y000752D02*
X008571Y000888D01*
X008644Y001065D01*
X008644Y001257D01*
X008571Y001435D01*
X008435Y001571D01*
X008257Y001644D01*
X008065Y001644D01*
X007888Y001571D01*
X007752Y001435D01*
X007678Y001257D01*
X007678Y001065D01*
X007752Y000888D01*
X007888Y000752D01*
X008065Y000678D01*
X008257Y000678D01*
X008435Y000752D01*
X008544Y000861D02*
X008779Y000861D01*
X008715Y000978D02*
X008608Y000978D01*
X008644Y001094D02*
X008678Y001094D01*
X008678Y001211D02*
X008644Y001211D01*
X008615Y001328D02*
X008708Y001328D01*
X008762Y001444D02*
X008561Y001444D01*
X008444Y001561D02*
X008878Y001561D01*
X008879Y002261D02*
X008444Y002261D01*
X008435Y002252D02*
X008571Y002388D01*
X008644Y002565D01*
X008644Y002757D01*
X008571Y002935D01*
X008435Y003071D01*
X008257Y003144D01*
X008065Y003144D01*
X007888Y003071D01*
X007752Y002935D01*
X007678Y002757D01*
X007678Y002565D01*
X007752Y002388D01*
X007888Y002252D01*
X008065Y002178D01*
X008257Y002178D01*
X008435Y002252D01*
X008560Y002378D02*
X008762Y002378D01*
X008708Y002494D02*
X008615Y002494D01*
X008644Y002611D02*
X008678Y002611D01*
X008678Y002728D02*
X008644Y002728D01*
X008608Y002844D02*
X008715Y002844D01*
X008778Y002961D02*
X008544Y002961D01*
X008418Y003078D02*
X008905Y003078D01*
X007905Y003078D02*
X007418Y003078D01*
X007435Y003071D02*
X007257Y003144D01*
X007065Y003144D01*
X006888Y003071D01*
X006752Y002935D01*
X006678Y002757D01*
X006678Y002565D01*
X006752Y002388D01*
X006888Y002252D01*
X007065Y002178D01*
X007257Y002178D01*
X007435Y002252D01*
X007571Y002388D01*
X007644Y002565D01*
X007644Y002757D01*
X007571Y002935D01*
X007435Y003071D01*
X007544Y002961D02*
X007778Y002961D01*
X007715Y002844D02*
X007608Y002844D01*
X007644Y002728D02*
X007678Y002728D01*
X007678Y002611D02*
X007644Y002611D01*
X007615Y002494D02*
X007708Y002494D01*
X007762Y002378D02*
X007560Y002378D01*
X007444Y002261D02*
X007879Y002261D01*
X007435Y001571D02*
X007257Y001644D01*
X007065Y001644D01*
X006888Y001571D01*
X006752Y001435D01*
X006678Y001257D01*
X006678Y001065D01*
X006752Y000888D01*
X006888Y000752D01*
X007065Y000678D01*
X007257Y000678D01*
X007435Y000752D01*
X007571Y000888D01*
X007644Y001065D01*
X007644Y001257D01*
X007571Y001435D01*
X007435Y001571D01*
X007444Y001561D02*
X007878Y001561D01*
X007762Y001444D02*
X007561Y001444D01*
X007615Y001328D02*
X007708Y001328D01*
X007678Y001211D02*
X007644Y001211D01*
X007644Y001094D02*
X007678Y001094D01*
X007715Y000978D02*
X007608Y000978D01*
X007544Y000861D02*
X007779Y000861D01*
X007906Y000745D02*
X007417Y000745D01*
X006906Y000745D02*
X006417Y000745D01*
X006435Y000752D02*
X006571Y000888D01*
X006644Y001065D01*
X006644Y001257D01*
X006571Y001435D01*
X006435Y001571D01*
X006257Y001644D01*
X006065Y001644D01*
X005888Y001571D01*
X005752Y001435D01*
X005678Y001257D01*
X005678Y001065D01*
X005752Y000888D01*
X005888Y000752D01*
X006065Y000678D01*
X006257Y000678D01*
X006435Y000752D01*
X006544Y000861D02*
X006779Y000861D01*
X006715Y000978D02*
X006608Y000978D01*
X006644Y001094D02*
X006678Y001094D01*
X006678Y001211D02*
X006644Y001211D01*
X006615Y001328D02*
X006708Y001328D01*
X006762Y001444D02*
X006561Y001444D01*
X006444Y001561D02*
X006878Y001561D01*
X006879Y002261D02*
X006444Y002261D01*
X006435Y002252D02*
X006571Y002388D01*
X006644Y002565D01*
X006644Y002757D01*
X006571Y002935D01*
X006435Y003071D01*
X006257Y003144D01*
X006065Y003144D01*
X005888Y003071D01*
X005752Y002935D01*
X005678Y002757D01*
X005678Y002565D01*
X005752Y002388D01*
X005888Y002252D01*
X006065Y002178D01*
X006257Y002178D01*
X006435Y002252D01*
X006560Y002378D02*
X006762Y002378D01*
X006708Y002494D02*
X006615Y002494D01*
X006644Y002611D02*
X006678Y002611D01*
X006678Y002728D02*
X006644Y002728D01*
X006608Y002844D02*
X006715Y002844D01*
X006778Y002961D02*
X006544Y002961D01*
X006418Y003078D02*
X006905Y003078D01*
X005905Y003078D02*
X005418Y003078D01*
X005435Y003071D02*
X005257Y003144D01*
X005065Y003144D01*
X004888Y003071D01*
X004752Y002935D01*
X004678Y002757D01*
X004678Y002565D01*
X004752Y002388D01*
X004888Y002252D01*
X005065Y002178D01*
X005257Y002178D01*
X005435Y002252D01*
X005571Y002388D01*
X005644Y002565D01*
X005644Y002757D01*
X005571Y002935D01*
X005435Y003071D01*
X005544Y002961D02*
X005778Y002961D01*
X005715Y002844D02*
X005608Y002844D01*
X005644Y002728D02*
X005678Y002728D01*
X005678Y002611D02*
X005644Y002611D01*
X005615Y002494D02*
X005708Y002494D01*
X005762Y002378D02*
X005560Y002378D01*
X005444Y002261D02*
X005879Y002261D01*
X005435Y001571D02*
X005257Y001644D01*
X005065Y001644D01*
X004888Y001571D01*
X004752Y001435D01*
X004678Y001257D01*
X004678Y001065D01*
X004752Y000888D01*
X004888Y000752D01*
X005065Y000678D01*
X005257Y000678D01*
X005435Y000752D01*
X005571Y000888D01*
X005644Y001065D01*
X005644Y001257D01*
X005571Y001435D01*
X005435Y001571D01*
X005444Y001561D02*
X005878Y001561D01*
X005762Y001444D02*
X005561Y001444D01*
X005615Y001328D02*
X005708Y001328D01*
X005678Y001211D02*
X005644Y001211D01*
X005644Y001094D02*
X005678Y001094D01*
X005715Y000978D02*
X005608Y000978D01*
X005544Y000861D02*
X005779Y000861D01*
X005906Y000745D02*
X005417Y000745D01*
X004906Y000745D02*
X004417Y000745D01*
X004544Y000861D02*
X004779Y000861D01*
X004715Y000978D02*
X004608Y000978D01*
X004644Y001094D02*
X004678Y001094D01*
X004678Y001211D02*
X004644Y001211D01*
X004615Y001328D02*
X004708Y001328D01*
X004762Y001444D02*
X004561Y001444D01*
X004444Y001561D02*
X004878Y001561D01*
X004879Y002261D02*
X004444Y002261D01*
X004560Y002378D02*
X004762Y002378D01*
X004708Y002494D02*
X004615Y002494D01*
X004644Y002611D02*
X004678Y002611D01*
X004678Y002728D02*
X004644Y002728D01*
X004608Y002844D02*
X004715Y002844D01*
X004778Y002961D02*
X004544Y002961D01*
X004418Y003078D02*
X004905Y003078D01*
X004603Y004043D02*
X004531Y004020D01*
X004473Y004011D01*
X004361Y004011D01*
X004361Y004436D01*
X003936Y004436D01*
X003945Y004379D01*
X003969Y004306D01*
X004003Y004238D01*
X004048Y004177D01*
X004102Y004123D01*
X004163Y004078D01*
X004231Y004043D01*
X004304Y004020D01*
X004361Y004011D01*
X004360Y004011D02*
X003517Y004011D01*
X003513Y004009D02*
X003691Y004083D01*
X003826Y004218D01*
X003900Y004396D01*
X003900Y004588D01*
X003826Y004765D01*
X003691Y004901D01*
X003513Y004975D01*
X003321Y004975D01*
X003144Y004901D01*
X003008Y004765D01*
X002934Y004588D01*
X002934Y004396D01*
X003008Y004218D01*
X003144Y004083D01*
X003321Y004009D01*
X003513Y004009D01*
X003317Y004011D02*
X002517Y004011D01*
X002513Y004009D02*
X002691Y004083D01*
X002826Y004218D01*
X002900Y004396D01*
X002900Y004588D01*
X002826Y004765D01*
X002691Y004901D01*
X002513Y004975D01*
X002321Y004975D01*
X002144Y004901D01*
X002008Y004765D01*
X001934Y004588D01*
X001934Y004396D01*
X002008Y004218D01*
X002144Y004083D01*
X002321Y004009D01*
X002513Y004009D01*
X002317Y004011D02*
X001517Y004011D01*
X001513Y004009D02*
X001691Y004083D01*
X001826Y004218D01*
X001900Y004396D01*
X001900Y004588D01*
X001826Y004765D01*
X001691Y004901D01*
X001513Y004975D01*
X001321Y004975D01*
X001144Y004901D01*
X001008Y004765D01*
X000934Y004588D01*
X000934Y004396D01*
X001008Y004218D01*
X001144Y004083D01*
X001321Y004009D01*
X001513Y004009D01*
X001317Y004011D02*
X000420Y004011D01*
X000420Y004127D02*
X001099Y004127D01*
X000997Y004244D02*
X000420Y004244D01*
X000420Y004361D02*
X000949Y004361D01*
X000934Y004477D02*
X000420Y004477D01*
X000420Y004594D02*
X000937Y004594D01*
X000985Y004711D02*
X000420Y004711D01*
X000420Y004827D02*
X001070Y004827D01*
X001247Y004944D02*
X000420Y004944D01*
X000420Y005061D02*
X006191Y005061D01*
X006158Y005177D02*
X000420Y005177D01*
X000420Y005294D02*
X006171Y005294D01*
X006242Y005411D02*
X000420Y005411D01*
X001587Y004944D02*
X002247Y004944D01*
X002070Y004827D02*
X001764Y004827D01*
X001849Y004711D02*
X001985Y004711D01*
X001937Y004594D02*
X001897Y004594D01*
X001900Y004477D02*
X001934Y004477D01*
X001949Y004361D02*
X001885Y004361D01*
X001837Y004244D02*
X001997Y004244D01*
X002099Y004127D02*
X001735Y004127D01*
X002735Y004127D02*
X003099Y004127D01*
X002997Y004244D02*
X002837Y004244D01*
X002885Y004361D02*
X002949Y004361D01*
X002934Y004477D02*
X002900Y004477D01*
X002897Y004594D02*
X002937Y004594D01*
X002985Y004711D02*
X002849Y004711D01*
X002764Y004827D02*
X003070Y004827D01*
X003247Y004944D02*
X002587Y004944D01*
X002513Y005584D02*
X002691Y005657D01*
X002826Y005793D01*
X002900Y005971D01*
X002900Y006163D01*
X002826Y006340D01*
X002691Y006476D01*
X002513Y006550D01*
X002321Y006550D01*
X002144Y006476D01*
X002008Y006340D01*
X001934Y006163D01*
X001934Y005971D01*
X002008Y005793D01*
X002144Y005657D01*
X002321Y005584D01*
X002513Y005584D01*
X002658Y005644D02*
X003176Y005644D01*
X003041Y005761D02*
X002794Y005761D01*
X002861Y005877D02*
X002973Y005877D01*
X002934Y005994D02*
X002900Y005994D01*
X002900Y006111D02*
X002934Y006111D01*
X002961Y006227D02*
X002873Y006227D01*
X002823Y006344D02*
X003012Y006344D01*
X003128Y006461D02*
X002706Y006461D01*
X002128Y006461D02*
X001706Y006461D01*
X001823Y006344D02*
X002012Y006344D01*
X001961Y006227D02*
X001873Y006227D01*
X001900Y006111D02*
X001934Y006111D01*
X001934Y005994D02*
X001900Y005994D01*
X001861Y005877D02*
X001973Y005877D01*
X002041Y005761D02*
X001794Y005761D01*
X001658Y005644D02*
X002176Y005644D01*
X003587Y004944D02*
X004242Y004944D01*
X004231Y004941D02*
X004304Y004964D01*
X004361Y004973D01*
X004361Y004548D01*
X004361Y004436D01*
X004473Y004436D01*
X004473Y004011D01*
X004474Y004011D02*
X025551Y004011D01*
X025580Y004040D02*
X025495Y003955D01*
X025449Y003844D01*
X025449Y003723D01*
X025495Y003612D01*
X025580Y003527D01*
X025692Y003481D01*
X025812Y003481D01*
X025923Y003527D01*
X026008Y003612D01*
X026055Y003723D01*
X026055Y003844D01*
X026008Y003955D01*
X025923Y004040D01*
X025812Y004086D01*
X025692Y004086D01*
X025580Y004040D01*
X025470Y003894D02*
X000420Y003894D01*
X000420Y003778D02*
X025449Y003778D01*
X025475Y003661D02*
X000420Y003661D01*
X000420Y003544D02*
X025563Y003544D01*
X025941Y003544D02*
X032186Y003544D01*
X032186Y003428D02*
X000420Y003428D01*
X000420Y003311D02*
X032186Y003311D01*
X032186Y003661D02*
X029568Y003661D01*
X029513Y003638D02*
X029624Y003684D01*
X029709Y003769D01*
X029755Y003881D01*
X029755Y004001D01*
X029709Y004112D01*
X029624Y004197D01*
X029513Y004244D01*
X029392Y004244D01*
X029281Y004197D01*
X029196Y004112D01*
X029150Y004001D01*
X029150Y003881D01*
X029196Y003769D01*
X029281Y003684D01*
X029392Y003638D01*
X029513Y003638D01*
X029337Y003661D02*
X026029Y003661D01*
X026055Y003778D02*
X029192Y003778D01*
X029150Y003894D02*
X026034Y003894D01*
X025952Y004011D02*
X029154Y004011D01*
X029211Y004127D02*
X004737Y004127D01*
X004732Y004123D02*
X004786Y004177D01*
X004831Y004238D01*
X004866Y004306D01*
X004889Y004379D01*
X004898Y004436D01*
X004473Y004436D01*
X004473Y004548D01*
X004361Y004548D01*
X003936Y004548D01*
X003945Y004605D01*
X003969Y004678D01*
X004003Y004746D01*
X004048Y004807D01*
X004102Y004861D01*
X004163Y004906D01*
X004231Y004941D01*
X004361Y004944D02*
X004473Y004944D01*
X004473Y004973D02*
X004473Y004548D01*
X004898Y004548D01*
X004889Y004605D01*
X004866Y004678D01*
X004831Y004746D01*
X004786Y004807D01*
X004732Y004861D01*
X004671Y004906D01*
X004603Y004941D01*
X004531Y004964D01*
X004473Y004973D01*
X004592Y004944D02*
X006289Y004944D01*
X006253Y004827D02*
X004766Y004827D01*
X004849Y004711D02*
X006236Y004711D01*
X006267Y004594D02*
X004891Y004594D01*
X004883Y004361D02*
X032186Y004361D01*
X032186Y004477D02*
X006717Y004477D01*
X006811Y004594D02*
X032186Y004594D01*
X032186Y004711D02*
X006842Y004711D01*
X006362Y004477D02*
X004473Y004477D01*
X004361Y004477D02*
X003900Y004477D01*
X003897Y004594D02*
X003943Y004594D01*
X003985Y004711D02*
X003849Y004711D01*
X003764Y004827D02*
X004068Y004827D01*
X004361Y004827D02*
X004473Y004827D01*
X004473Y004711D02*
X004361Y004711D01*
X004361Y004594D02*
X004473Y004594D01*
X004473Y004361D02*
X004361Y004361D01*
X004361Y004244D02*
X004473Y004244D01*
X004473Y004127D02*
X004361Y004127D01*
X004603Y004043D02*
X004671Y004078D01*
X004732Y004123D01*
X004834Y004244D02*
X032186Y004244D01*
X032186Y004127D02*
X029694Y004127D01*
X029751Y004011D02*
X032186Y004011D01*
X032186Y003894D02*
X029755Y003894D01*
X029713Y003778D02*
X032186Y003778D01*
X030659Y000861D02*
X013541Y000861D01*
X013611Y000978D02*
X030377Y000978D01*
X032186Y000628D02*
X000420Y000628D01*
X000420Y000511D02*
X032186Y000511D01*
X027748Y009494D02*
X027220Y009494D01*
X027353Y009610D02*
X027615Y009610D01*
X031085Y012060D02*
X032186Y012060D01*
X032186Y012177D02*
X031201Y012177D01*
X031249Y012293D02*
X032186Y012293D01*
X032186Y012410D02*
X031274Y012410D01*
X031274Y012527D02*
X032186Y012527D01*
X032186Y012643D02*
X031233Y012643D01*
X031163Y012760D02*
X032186Y012760D01*
X032186Y012876D02*
X031020Y012876D01*
X030956Y012993D02*
X032186Y012993D01*
X032186Y013110D02*
X031137Y013110D01*
X031221Y013226D02*
X032186Y013226D01*
X032186Y013343D02*
X031264Y013343D01*
X022063Y020109D02*
X002589Y020109D01*
X002541Y020226D02*
X022014Y020226D01*
X022009Y020342D02*
X002493Y020342D01*
X002381Y020459D02*
X022009Y020459D01*
X022050Y020576D02*
X002264Y020576D01*
X002017Y020692D02*
X022098Y020692D01*
X013208Y015443D02*
X011996Y015443D01*
X012039Y015326D02*
X013166Y015326D01*
X013169Y015210D02*
X012035Y015210D01*
X011978Y015093D02*
X013227Y015093D01*
X009051Y014626D02*
X000420Y014626D01*
X000420Y014743D02*
X008948Y014743D01*
X008914Y014860D02*
X000420Y014860D01*
X000420Y014976D02*
X008926Y014976D01*
X008031Y015210D02*
X008000Y015210D01*
X005866Y015210D02*
X005835Y015210D01*
X005433Y015210D02*
X005401Y015210D01*
X008402Y011360D02*
X008456Y011360D01*
X008749Y010427D02*
X009780Y010427D01*
X009783Y010543D02*
X005422Y010543D01*
X005366Y010660D02*
X009838Y010660D01*
X009824Y010310D02*
X008806Y010310D01*
X007226Y008677D02*
X000420Y008677D01*
X000420Y008560D02*
X006872Y008560D01*
X006519Y008444D02*
X000420Y008444D01*
X000420Y008327D02*
X006216Y008327D01*
X006390Y008327D02*
X006425Y008327D01*
X005627Y009027D02*
X000420Y009027D01*
X000420Y009144D02*
X005606Y009144D01*
X005632Y009260D02*
X000420Y009260D01*
X000420Y009377D02*
X005720Y009377D01*
X008417Y007860D02*
X008907Y007860D01*
X008733Y007744D02*
X008386Y007744D01*
X003951Y004361D02*
X003885Y004361D01*
X003837Y004244D02*
X004000Y004244D01*
X004097Y004127D02*
X003735Y004127D01*
X003678Y002611D02*
X001947Y002611D01*
X002228Y002494D02*
X003708Y002494D01*
X003762Y002378D02*
X002352Y002378D01*
X002468Y002261D02*
X003879Y002261D01*
X012417Y000745D02*
X012913Y000745D01*
X012781Y000861D02*
X012544Y000861D01*
X012608Y000978D02*
X012712Y000978D01*
X012682Y001094D02*
X012644Y001094D01*
D13*
X014098Y000712D03*
X014886Y000712D03*
X015673Y000712D03*
X016460Y000712D03*
X017327Y000712D03*
X018114Y000712D03*
X018901Y000712D03*
X019689Y000712D03*
X020476Y000712D03*
X021264Y000712D03*
X022051Y000712D03*
X022838Y000712D03*
X023626Y000712D03*
X024413Y000712D03*
X025201Y000712D03*
X025988Y000712D03*
X026775Y000712D03*
X027563Y000712D03*
X028350Y000712D03*
X029138Y000712D03*
X029216Y001500D03*
X029374Y002287D03*
X029846Y002917D03*
X030476Y003311D03*
X029925Y003547D03*
X029453Y003941D03*
X029925Y004413D03*
X029453Y004728D03*
X029453Y005358D03*
X028980Y005673D03*
X027878Y005516D03*
X027484Y005201D03*
X027090Y005516D03*
X027012Y005043D03*
X027012Y004177D03*
X026460Y003626D03*
X025752Y003783D03*
X025201Y004098D03*
X025043Y003153D03*
X024256Y003153D03*
X023468Y003153D03*
X022681Y003153D03*
X021894Y003153D03*
X021106Y003153D03*
X020319Y003153D03*
X020240Y003941D03*
X019689Y004492D03*
X019689Y005358D03*
X019689Y006224D03*
X018901Y006224D03*
X018114Y006224D03*
X017327Y006224D03*
X017327Y005437D03*
X017327Y004649D03*
X017327Y003862D03*
X017327Y003075D03*
X017327Y002287D03*
X017327Y001500D03*
X016460Y002287D03*
X016460Y003075D03*
X016460Y003862D03*
X015437Y004964D03*
X015673Y006224D03*
X016460Y006224D03*
X014886Y006224D03*
X014098Y006224D03*
X013311Y006224D03*
X012838Y006303D03*
X012523Y005909D03*
X012209Y006303D03*
X011500Y006618D03*
X010791Y006539D03*
X010476Y006933D03*
X010791Y007248D03*
X009846Y006146D03*
X009374Y006146D03*
X010319Y005673D03*
X010791Y005752D03*
X010397Y004964D03*
X009846Y004413D03*
X010791Y004177D03*
X010791Y003390D03*
X012051Y003862D03*
X012602Y003390D03*
X013390Y003390D03*
X012051Y004649D03*
X012051Y005437D03*
X013705Y005043D03*
X012838Y007878D03*
X012209Y008193D03*
X012602Y008901D03*
X013311Y008901D03*
X014098Y008901D03*
X014886Y008901D03*
X015673Y008901D03*
X016460Y008901D03*
X016146Y009689D03*
X015673Y009689D03*
X015201Y009689D03*
X014020Y010319D03*
X013390Y009689D03*
X012996Y010791D03*
X012996Y011579D03*
X012996Y012366D03*
X012996Y013153D03*
X012996Y013941D03*
X012996Y014728D03*
X013468Y015279D03*
X012051Y014728D03*
X011736Y015279D03*
X010949Y014728D03*
X010949Y013941D03*
X012051Y013941D03*
X012051Y013153D03*
X012051Y012366D03*
X012051Y011579D03*
X011264Y011500D03*
X010634Y011421D03*
X010870Y012445D03*
X012051Y010791D03*
X010083Y010476D03*
X008901Y010004D03*
X008508Y010240D03*
X008035Y010240D03*
X008901Y009531D03*
X009216Y009138D03*
X010397Y008586D03*
X011185Y008429D03*
X008980Y007563D03*
X008586Y007012D03*
X008114Y007878D03*
X008114Y008350D03*
X007484Y008508D03*
X007090Y008350D03*
X006697Y008193D03*
X006303Y008035D03*
X005870Y007858D03*
X006303Y007012D03*
X007051Y007012D03*
X005752Y006146D03*
X005752Y005201D03*
X006460Y005201D03*
X006539Y004728D03*
X005516Y004256D03*
X004649Y003705D03*
X003862Y003705D03*
X003075Y003705D03*
X003311Y003075D03*
X003311Y002287D03*
X003311Y001500D03*
X003311Y000712D03*
X002287Y003705D03*
X001500Y003705D03*
X000712Y003705D03*
X000712Y004492D03*
X000712Y005279D03*
X000712Y006067D03*
X000712Y006854D03*
X000712Y007642D03*
X000712Y008429D03*
X000712Y009216D03*
X000712Y010004D03*
X001579Y010319D03*
X000712Y010791D03*
X000712Y011579D03*
X000712Y012366D03*
X000712Y013153D03*
X000712Y013941D03*
X000712Y014728D03*
X000712Y015516D03*
X001421Y015752D03*
X001421Y016382D03*
X000712Y016303D03*
X000712Y017090D03*
X000712Y017878D03*
X000712Y018665D03*
X001421Y018271D03*
X003075Y018271D03*
X003075Y017327D03*
X003075Y016460D03*
X003311Y015594D03*
X003311Y014728D03*
X004098Y014886D03*
X004571Y015437D03*
X005201Y015437D03*
X005634Y015437D03*
X006067Y015437D03*
X006933Y015437D03*
X007366Y015437D03*
X007799Y015437D03*
X008232Y015437D03*
X009216Y014886D03*
X009610Y015201D03*
X009925Y016697D03*
X010555Y016697D03*
X011500Y016933D03*
X011027Y017563D03*
X011264Y017957D03*
X011736Y017957D03*
X009846Y018350D03*
X009846Y019059D03*
X010240Y019768D03*
X009689Y020870D03*
X008980Y019689D03*
X008114Y020870D03*
X007327Y020870D03*
X006539Y020870D03*
X005752Y020870D03*
X003665Y020161D03*
X002996Y020870D03*
X008508Y016539D03*
X009453Y017169D03*
X007169Y013626D03*
X006539Y013626D03*
X004964Y012996D03*
X005279Y012209D03*
X004807Y011657D03*
X005752Y011185D03*
X006460Y011500D03*
X007327Y012130D03*
X008193Y011579D03*
X008665Y011579D03*
X006382Y010004D03*
X005909Y009138D03*
X007248Y009138D03*
X005122Y010476D03*
X003547Y011657D03*
X003075Y011185D03*
X002523Y010319D03*
X003075Y009295D03*
X003468Y008586D03*
X003468Y007957D03*
X004413Y007405D03*
X002051Y007012D03*
X002838Y012996D03*
X004177Y012760D03*
X004098Y014020D03*
X014492Y019768D03*
X014886Y019059D03*
X014886Y018350D03*
X014807Y017642D03*
X016460Y018350D03*
X016460Y019138D03*
X016460Y019925D03*
X016460Y020712D03*
X015673Y020949D03*
X014886Y020949D03*
X017327Y020712D03*
X018035Y020949D03*
X018823Y020949D03*
X019610Y020949D03*
X020319Y020791D03*
X021106Y020083D03*
X020240Y019925D03*
X020240Y019138D03*
X020240Y018350D03*
X020240Y017563D03*
X020240Y016775D03*
X020240Y015988D03*
X021027Y015594D03*
X020004Y015279D03*
X019846Y014571D03*
X019768Y013783D03*
X019768Y012996D03*
X019768Y012209D03*
X019689Y011421D03*
X019689Y010634D03*
X019295Y010634D03*
X019295Y010161D03*
X019059Y009689D03*
X018586Y009689D03*
X018114Y009689D03*
X017642Y009689D03*
X017327Y010476D03*
X017327Y011264D03*
X017327Y012051D03*
X017327Y012838D03*
X018035Y012760D03*
X018035Y013311D03*
X018350Y013862D03*
X017327Y013626D03*
X017327Y014334D03*
X016460Y014334D03*
X016460Y013626D03*
X016460Y012838D03*
X016460Y012051D03*
X016460Y011264D03*
X016460Y010476D03*
X017327Y008901D03*
X018114Y008901D03*
X018901Y008901D03*
X019689Y008901D03*
X019689Y009689D03*
X025043Y013075D03*
X025516Y013547D03*
X025516Y014177D03*
X025043Y015909D03*
X024413Y015909D03*
X024964Y016775D03*
X024964Y017563D03*
X024964Y018350D03*
X024964Y019138D03*
X024964Y019925D03*
X025043Y020791D03*
X024413Y020949D03*
X023626Y020949D03*
X021972Y020791D03*
X025831Y020083D03*
X026697Y020791D03*
X027957Y020870D03*
X028744Y020870D03*
X029531Y020870D03*
X029374Y019216D03*
X029846Y018665D03*
X030476Y018271D03*
X031264Y018271D03*
X031894Y017878D03*
X031894Y018665D03*
X031894Y017090D03*
X031894Y016303D03*
X031894Y015516D03*
X031894Y014728D03*
X031894Y013941D03*
X031894Y013153D03*
X031894Y012366D03*
X031894Y011579D03*
X031894Y010791D03*
X031894Y010004D03*
X031894Y009216D03*
X031894Y008429D03*
X031894Y007642D03*
X031894Y006854D03*
X031894Y006067D03*
X031894Y005279D03*
X031894Y004492D03*
X031894Y003705D03*
X031264Y003311D03*
X030634Y004256D03*
X029059Y003311D03*
X028271Y003311D03*
X027720Y003862D03*
X025752Y005988D03*
X025988Y006460D03*
X025988Y007012D03*
X026539Y007012D03*
X027090Y007012D03*
X025279Y005516D03*
X029059Y008429D03*
X029531Y007957D03*
X030004Y008429D03*
X030161Y009059D03*
X030319Y009453D03*
X030791Y009925D03*
X030949Y010634D03*
X030397Y011185D03*
X028114Y010161D03*
X027878Y009768D03*
X027484Y010004D03*
X027090Y009768D03*
X025988Y009453D03*
X025516Y009925D03*
X025516Y011185D03*
X026146Y011736D03*
X027248Y011264D03*
X027642Y014334D03*
X027642Y015909D03*
X027012Y015909D03*
X021027Y014098D03*
X017327Y017563D03*
X016460Y015988D03*
X017327Y019925D03*
X029925Y007405D03*
X030634Y007248D03*
X030161Y006697D03*
X030161Y005988D03*
X015437Y001500D03*
M02*
