G75*
G70*
%OFA0B0*%
%FSLAX24Y24*%
%IPPOS*%
%LPD*%
%AMOC8*
5,1,8,0,0,1.08239X$1,22.5*
%
%ADD10C,0.0000*%
D10*
X004918Y000161D02*
X004918Y037563D01*
X030509Y037563D01*
X030509Y000161D01*
X004918Y000161D01*
X026040Y017878D02*
X026042Y017914D01*
X026048Y017950D01*
X026058Y017985D01*
X026071Y018019D01*
X026088Y018051D01*
X026108Y018081D01*
X026132Y018108D01*
X026158Y018133D01*
X026187Y018155D01*
X026218Y018174D01*
X026251Y018189D01*
X026285Y018201D01*
X026321Y018209D01*
X026357Y018213D01*
X026393Y018213D01*
X026429Y018209D01*
X026465Y018201D01*
X026499Y018189D01*
X026532Y018174D01*
X026563Y018155D01*
X026592Y018133D01*
X026618Y018108D01*
X026642Y018081D01*
X026662Y018051D01*
X026679Y018019D01*
X026692Y017985D01*
X026702Y017950D01*
X026708Y017914D01*
X026710Y017878D01*
X026708Y017842D01*
X026702Y017806D01*
X026692Y017771D01*
X026679Y017737D01*
X026662Y017705D01*
X026642Y017675D01*
X026618Y017648D01*
X026592Y017623D01*
X026563Y017601D01*
X026532Y017582D01*
X026499Y017567D01*
X026465Y017555D01*
X026429Y017547D01*
X026393Y017543D01*
X026357Y017543D01*
X026321Y017547D01*
X026285Y017555D01*
X026251Y017567D01*
X026218Y017582D01*
X026187Y017601D01*
X026158Y017623D01*
X026132Y017648D01*
X026108Y017675D01*
X026088Y017705D01*
X026071Y017737D01*
X026058Y017771D01*
X026048Y017806D01*
X026042Y017842D01*
X026040Y017878D01*
X028796Y017878D02*
X028798Y017914D01*
X028804Y017950D01*
X028814Y017985D01*
X028827Y018019D01*
X028844Y018051D01*
X028864Y018081D01*
X028888Y018108D01*
X028914Y018133D01*
X028943Y018155D01*
X028974Y018174D01*
X029007Y018189D01*
X029041Y018201D01*
X029077Y018209D01*
X029113Y018213D01*
X029149Y018213D01*
X029185Y018209D01*
X029221Y018201D01*
X029255Y018189D01*
X029288Y018174D01*
X029319Y018155D01*
X029348Y018133D01*
X029374Y018108D01*
X029398Y018081D01*
X029418Y018051D01*
X029435Y018019D01*
X029448Y017985D01*
X029458Y017950D01*
X029464Y017914D01*
X029466Y017878D01*
X029464Y017842D01*
X029458Y017806D01*
X029448Y017771D01*
X029435Y017737D01*
X029418Y017705D01*
X029398Y017675D01*
X029374Y017648D01*
X029348Y017623D01*
X029319Y017601D01*
X029288Y017582D01*
X029255Y017567D01*
X029221Y017555D01*
X029185Y017547D01*
X029149Y017543D01*
X029113Y017543D01*
X029077Y017547D01*
X029041Y017555D01*
X029007Y017567D01*
X028974Y017582D01*
X028943Y017601D01*
X028914Y017623D01*
X028888Y017648D01*
X028864Y017675D01*
X028844Y017705D01*
X028827Y017737D01*
X028814Y017771D01*
X028804Y017806D01*
X028798Y017842D01*
X028796Y017878D01*
X028796Y025752D02*
X028798Y025788D01*
X028804Y025824D01*
X028814Y025859D01*
X028827Y025893D01*
X028844Y025925D01*
X028864Y025955D01*
X028888Y025982D01*
X028914Y026007D01*
X028943Y026029D01*
X028974Y026048D01*
X029007Y026063D01*
X029041Y026075D01*
X029077Y026083D01*
X029113Y026087D01*
X029149Y026087D01*
X029185Y026083D01*
X029221Y026075D01*
X029255Y026063D01*
X029288Y026048D01*
X029319Y026029D01*
X029348Y026007D01*
X029374Y025982D01*
X029398Y025955D01*
X029418Y025925D01*
X029435Y025893D01*
X029448Y025859D01*
X029458Y025824D01*
X029464Y025788D01*
X029466Y025752D01*
X029464Y025716D01*
X029458Y025680D01*
X029448Y025645D01*
X029435Y025611D01*
X029418Y025579D01*
X029398Y025549D01*
X029374Y025522D01*
X029348Y025497D01*
X029319Y025475D01*
X029288Y025456D01*
X029255Y025441D01*
X029221Y025429D01*
X029185Y025421D01*
X029149Y025417D01*
X029113Y025417D01*
X029077Y025421D01*
X029041Y025429D01*
X029007Y025441D01*
X028974Y025456D01*
X028943Y025475D01*
X028914Y025497D01*
X028888Y025522D01*
X028864Y025549D01*
X028844Y025579D01*
X028827Y025611D01*
X028814Y025645D01*
X028804Y025680D01*
X028798Y025716D01*
X028796Y025752D01*
X026040Y025752D02*
X026042Y025788D01*
X026048Y025824D01*
X026058Y025859D01*
X026071Y025893D01*
X026088Y025925D01*
X026108Y025955D01*
X026132Y025982D01*
X026158Y026007D01*
X026187Y026029D01*
X026218Y026048D01*
X026251Y026063D01*
X026285Y026075D01*
X026321Y026083D01*
X026357Y026087D01*
X026393Y026087D01*
X026429Y026083D01*
X026465Y026075D01*
X026499Y026063D01*
X026532Y026048D01*
X026563Y026029D01*
X026592Y026007D01*
X026618Y025982D01*
X026642Y025955D01*
X026662Y025925D01*
X026679Y025893D01*
X026692Y025859D01*
X026702Y025824D01*
X026708Y025788D01*
X026710Y025752D01*
X026708Y025716D01*
X026702Y025680D01*
X026692Y025645D01*
X026679Y025611D01*
X026662Y025579D01*
X026642Y025549D01*
X026618Y025522D01*
X026592Y025497D01*
X026563Y025475D01*
X026532Y025456D01*
X026499Y025441D01*
X026465Y025429D01*
X026429Y025421D01*
X026393Y025417D01*
X026357Y025417D01*
X026321Y025421D01*
X026285Y025429D01*
X026251Y025441D01*
X026218Y025456D01*
X026187Y025475D01*
X026158Y025497D01*
X026132Y025522D01*
X026108Y025549D01*
X026088Y025579D01*
X026071Y025611D01*
X026058Y025645D01*
X026048Y025680D01*
X026042Y025716D01*
X026040Y025752D01*
X026040Y033626D02*
X026042Y033662D01*
X026048Y033698D01*
X026058Y033733D01*
X026071Y033767D01*
X026088Y033799D01*
X026108Y033829D01*
X026132Y033856D01*
X026158Y033881D01*
X026187Y033903D01*
X026218Y033922D01*
X026251Y033937D01*
X026285Y033949D01*
X026321Y033957D01*
X026357Y033961D01*
X026393Y033961D01*
X026429Y033957D01*
X026465Y033949D01*
X026499Y033937D01*
X026532Y033922D01*
X026563Y033903D01*
X026592Y033881D01*
X026618Y033856D01*
X026642Y033829D01*
X026662Y033799D01*
X026679Y033767D01*
X026692Y033733D01*
X026702Y033698D01*
X026708Y033662D01*
X026710Y033626D01*
X026708Y033590D01*
X026702Y033554D01*
X026692Y033519D01*
X026679Y033485D01*
X026662Y033453D01*
X026642Y033423D01*
X026618Y033396D01*
X026592Y033371D01*
X026563Y033349D01*
X026532Y033330D01*
X026499Y033315D01*
X026465Y033303D01*
X026429Y033295D01*
X026393Y033291D01*
X026357Y033291D01*
X026321Y033295D01*
X026285Y033303D01*
X026251Y033315D01*
X026218Y033330D01*
X026187Y033349D01*
X026158Y033371D01*
X026132Y033396D01*
X026108Y033423D01*
X026088Y033453D01*
X026071Y033485D01*
X026058Y033519D01*
X026048Y033554D01*
X026042Y033590D01*
X026040Y033626D01*
X028796Y033626D02*
X028798Y033662D01*
X028804Y033698D01*
X028814Y033733D01*
X028827Y033767D01*
X028844Y033799D01*
X028864Y033829D01*
X028888Y033856D01*
X028914Y033881D01*
X028943Y033903D01*
X028974Y033922D01*
X029007Y033937D01*
X029041Y033949D01*
X029077Y033957D01*
X029113Y033961D01*
X029149Y033961D01*
X029185Y033957D01*
X029221Y033949D01*
X029255Y033937D01*
X029288Y033922D01*
X029319Y033903D01*
X029348Y033881D01*
X029374Y033856D01*
X029398Y033829D01*
X029418Y033799D01*
X029435Y033767D01*
X029448Y033733D01*
X029458Y033698D01*
X029464Y033662D01*
X029466Y033626D01*
X029464Y033590D01*
X029458Y033554D01*
X029448Y033519D01*
X029435Y033485D01*
X029418Y033453D01*
X029398Y033423D01*
X029374Y033396D01*
X029348Y033371D01*
X029319Y033349D01*
X029288Y033330D01*
X029255Y033315D01*
X029221Y033303D01*
X029185Y033295D01*
X029149Y033291D01*
X029113Y033291D01*
X029077Y033295D01*
X029041Y033303D01*
X029007Y033315D01*
X028974Y033330D01*
X028943Y033349D01*
X028914Y033371D01*
X028888Y033396D01*
X028864Y033423D01*
X028844Y033453D01*
X028827Y033485D01*
X028814Y033519D01*
X028804Y033554D01*
X028798Y033590D01*
X028796Y033626D01*
X028403Y004787D02*
X028405Y004813D01*
X028411Y004839D01*
X028421Y004864D01*
X028434Y004887D01*
X028450Y004907D01*
X028470Y004925D01*
X028492Y004940D01*
X028515Y004952D01*
X028541Y004960D01*
X028567Y004964D01*
X028593Y004964D01*
X028619Y004960D01*
X028645Y004952D01*
X028669Y004940D01*
X028690Y004925D01*
X028710Y004907D01*
X028726Y004887D01*
X028739Y004864D01*
X028749Y004839D01*
X028755Y004813D01*
X028757Y004787D01*
X028755Y004761D01*
X028749Y004735D01*
X028739Y004710D01*
X028726Y004687D01*
X028710Y004667D01*
X028690Y004649D01*
X028668Y004634D01*
X028645Y004622D01*
X028619Y004614D01*
X028593Y004610D01*
X028567Y004610D01*
X028541Y004614D01*
X028515Y004622D01*
X028491Y004634D01*
X028470Y004649D01*
X028450Y004667D01*
X028434Y004687D01*
X028421Y004710D01*
X028411Y004735D01*
X028405Y004761D01*
X028403Y004787D01*
X028403Y003409D02*
X028405Y003435D01*
X028411Y003461D01*
X028421Y003486D01*
X028434Y003509D01*
X028450Y003529D01*
X028470Y003547D01*
X028492Y003562D01*
X028515Y003574D01*
X028541Y003582D01*
X028567Y003586D01*
X028593Y003586D01*
X028619Y003582D01*
X028645Y003574D01*
X028669Y003562D01*
X028690Y003547D01*
X028710Y003529D01*
X028726Y003509D01*
X028739Y003486D01*
X028749Y003461D01*
X028755Y003435D01*
X028757Y003409D01*
X028755Y003383D01*
X028749Y003357D01*
X028739Y003332D01*
X028726Y003309D01*
X028710Y003289D01*
X028690Y003271D01*
X028668Y003256D01*
X028645Y003244D01*
X028619Y003236D01*
X028593Y003232D01*
X028567Y003232D01*
X028541Y003236D01*
X028515Y003244D01*
X028491Y003256D01*
X028470Y003271D01*
X028450Y003289D01*
X028434Y003309D01*
X028421Y003332D01*
X028411Y003357D01*
X028405Y003383D01*
X028403Y003409D01*
M02*
