G75*
G70*
%OFA0B0*%
%FSLAX24Y24*%
%IPPOS*%
%LPD*%
%AMOC8*
5,1,8,0,0,1.08239X$1,22.5*
%
%ADD10C,0.1320*%
%ADD11R,0.0257X0.0847*%
%ADD12R,0.1044X0.0926*%
%ADD13C,0.0414*%
%ADD14R,0.0887X0.2442*%
%ADD15R,0.0454X0.0434*%
%ADD16R,0.0572X0.1005*%
%ADD17R,0.0651X0.0178*%
%ADD18R,0.0178X0.0651*%
%ADD19R,0.0473X0.0611*%
%ADD20R,0.0434X0.0454*%
%ADD21R,0.0611X0.0473*%
%ADD22R,0.0454X0.0414*%
%ADD23R,0.0414X0.0454*%
%ADD24R,0.0926X0.0670*%
%ADD25R,0.0454X0.0532*%
%ADD26R,0.0336X0.0532*%
%ADD27R,0.0454X0.0375*%
%ADD28R,0.0454X0.1162*%
%ADD29R,0.0572X0.0808*%
%ADD30C,0.1174*%
%ADD31R,0.1694X0.0690*%
%ADD32R,0.0690X0.1241*%
%ADD33R,0.0690X0.1064*%
%ADD34R,0.1162X0.0926*%
%ADD35R,0.1162X0.1162*%
%ADD36C,0.0729*%
%ADD37R,0.0237X0.0788*%
%ADD38C,0.0750*%
%ADD39R,0.0434X0.0414*%
%ADD40R,0.0513X0.0296*%
%ADD41R,0.0296X0.0493*%
D10*
X001736Y001736D03*
X001736Y019846D03*
X030870Y019846D03*
X030870Y001736D03*
D11*
X012996Y018606D03*
X012681Y018606D03*
X012366Y018606D03*
X012051Y018606D03*
X011736Y018606D03*
D12*
X010712Y018705D03*
X010712Y020791D03*
X014020Y020791D03*
X014020Y018705D03*
D13*
X013055Y019492D03*
X011677Y019492D03*
D14*
X002051Y012100D03*
X002051Y008537D03*
D15*
X003547Y009295D03*
X003547Y009925D03*
X003547Y010555D03*
X003547Y011185D03*
X003941Y008586D03*
X003941Y007957D03*
X004571Y007957D03*
X004571Y008586D03*
X010555Y010319D03*
X010555Y010949D03*
X017878Y011657D03*
X017878Y012287D03*
X009925Y017169D03*
X009925Y017799D03*
X025752Y004886D03*
X025752Y004256D03*
X028980Y004571D03*
X028980Y003941D03*
X029925Y004886D03*
X029925Y005516D03*
X030634Y006146D03*
X030634Y006775D03*
X025988Y010555D03*
X025988Y011185D03*
D16*
X015968Y004964D03*
X014275Y004964D03*
X014275Y001500D03*
X015968Y001500D03*
D17*
X009807Y007189D03*
X009807Y007386D03*
X009807Y007583D03*
X009807Y007779D03*
X009807Y007976D03*
X009807Y008173D03*
X009807Y008370D03*
X009807Y008567D03*
X009807Y008764D03*
X009807Y008960D03*
X009807Y009157D03*
X009807Y009354D03*
X009807Y009551D03*
X009807Y009748D03*
X009807Y009945D03*
X009807Y010142D03*
X005319Y010142D03*
X005319Y009945D03*
X005319Y009748D03*
X005319Y009551D03*
X005319Y009354D03*
X005319Y009157D03*
X005319Y008960D03*
X005319Y008764D03*
X005319Y008567D03*
X005319Y008370D03*
X005319Y008173D03*
X005319Y007976D03*
X005319Y007779D03*
X005319Y007583D03*
X005319Y007386D03*
X005319Y007189D03*
D18*
X006086Y006421D03*
X006283Y006421D03*
X006480Y006421D03*
X006677Y006421D03*
X006874Y006421D03*
X007071Y006421D03*
X007268Y006421D03*
X007464Y006421D03*
X007661Y006421D03*
X007858Y006421D03*
X008055Y006421D03*
X008252Y006421D03*
X008449Y006421D03*
X008646Y006421D03*
X008842Y006421D03*
X009039Y006421D03*
X009039Y010909D03*
X008842Y010909D03*
X008646Y010909D03*
X008449Y010909D03*
X008252Y010909D03*
X008055Y010909D03*
X007858Y010909D03*
X007661Y010909D03*
X007464Y010909D03*
X007268Y010909D03*
X007071Y010909D03*
X006874Y010909D03*
X006677Y010909D03*
X006480Y010909D03*
X006283Y010909D03*
X006086Y010909D03*
D19*
X009177Y004964D03*
X009886Y004964D03*
X013980Y009689D03*
X014689Y009689D03*
X017838Y010634D03*
X018547Y010634D03*
X018547Y013311D03*
X019256Y013311D03*
X029728Y010634D03*
X030437Y010634D03*
D20*
X030319Y009925D03*
X029689Y009925D03*
X026618Y009925D03*
X025988Y009925D03*
X025752Y005516D03*
X026382Y005516D03*
X028350Y005201D03*
X028980Y005201D03*
X028271Y014807D03*
X027642Y014807D03*
X027012Y014807D03*
X026382Y014807D03*
X017209Y009689D03*
X016579Y009689D03*
X010870Y011972D03*
X010240Y011972D03*
X007169Y014098D03*
X006539Y014098D03*
X005909Y011657D03*
X005279Y011657D03*
X005831Y005673D03*
X006460Y005673D03*
X009216Y005673D03*
X009846Y005673D03*
X013705Y017012D03*
X014334Y017012D03*
X014334Y017642D03*
X013705Y017642D03*
D21*
X011264Y010988D03*
X011264Y010279D03*
X026697Y010594D03*
X026697Y011303D03*
X030634Y005476D03*
X030634Y004768D03*
X028271Y004531D03*
X028271Y003823D03*
X026460Y004138D03*
X026460Y004846D03*
D22*
X020555Y013311D03*
X020555Y013941D03*
X020555Y014807D03*
X020555Y015437D03*
X024413Y015437D03*
X025043Y015437D03*
X025752Y015437D03*
X025752Y014807D03*
X025043Y014807D03*
X024413Y014807D03*
X024413Y014177D03*
X024413Y013547D03*
X025043Y013547D03*
X025043Y014177D03*
X028901Y014807D03*
X028901Y015437D03*
X012838Y015279D03*
X012209Y015279D03*
X012209Y015909D03*
X012838Y015909D03*
X011185Y015909D03*
X011185Y015279D03*
X010555Y017169D03*
X010555Y017799D03*
X008429Y014098D03*
X007799Y014098D03*
X007799Y013468D03*
X008429Y013468D03*
X005909Y013468D03*
X005279Y013468D03*
X004649Y013468D03*
X004649Y014098D03*
X005279Y014098D03*
X005909Y014098D03*
X002523Y013862D03*
X001894Y013862D03*
X001894Y014492D03*
X002523Y014492D03*
X002523Y016382D03*
X001894Y016382D03*
X001894Y017012D03*
X002523Y017012D03*
X004177Y009925D03*
X004177Y009295D03*
X012209Y007405D03*
X012838Y007405D03*
X012838Y006775D03*
X012209Y006775D03*
D23*
X007563Y011657D03*
X006933Y011657D03*
X006067Y004728D03*
X005437Y004728D03*
X026382Y015437D03*
X027012Y015437D03*
X027642Y015437D03*
X028271Y015437D03*
D24*
X019157Y014964D03*
X017543Y014964D03*
X016244Y014964D03*
X014630Y014964D03*
D25*
X008980Y016579D03*
X004590Y014886D03*
D26*
X005201Y014886D03*
X005634Y014886D03*
X006067Y014886D03*
X006500Y014886D03*
X006933Y014886D03*
X007366Y014886D03*
X007799Y014886D03*
X008232Y014886D03*
X008606Y014886D03*
D27*
X008980Y019020D03*
D28*
X008980Y020653D03*
D29*
X003665Y020831D03*
D30*
X016027Y017484D03*
X017878Y016303D03*
X017878Y018665D03*
D31*
X021441Y007642D03*
X023921Y007642D03*
X023921Y003862D03*
X021441Y003862D03*
D32*
X021736Y010378D03*
X021736Y012149D03*
X024334Y012149D03*
X024334Y010378D03*
D33*
X026775Y012386D03*
X026775Y013764D03*
X028980Y013764D03*
X028980Y012386D03*
D34*
X028783Y020004D03*
X025870Y020791D03*
X024059Y020004D03*
X021146Y020791D03*
D35*
X021146Y017090D03*
X025870Y017090D03*
D36*
X027327Y017602D03*
X027327Y020358D03*
X022602Y020358D03*
X022602Y017602D03*
D37*
X026451Y009098D03*
X026707Y009098D03*
X026962Y009098D03*
X027218Y009098D03*
X027474Y009098D03*
X027730Y009098D03*
X027986Y009098D03*
X028242Y009098D03*
X028498Y009098D03*
X028754Y009098D03*
X029010Y009098D03*
X029266Y009098D03*
X029521Y009098D03*
X029777Y009098D03*
X029777Y006342D03*
X029521Y006342D03*
X029266Y006342D03*
X029010Y006342D03*
X028754Y006342D03*
X028498Y006342D03*
X028242Y006342D03*
X027986Y006342D03*
X027730Y006342D03*
X027474Y006342D03*
X027218Y006342D03*
X026962Y006342D03*
X026707Y006342D03*
X026451Y006342D03*
D38*
X030791Y012449D03*
X030791Y013449D03*
X030791Y014449D03*
X023445Y015122D03*
X022445Y015122D03*
X021445Y015122D03*
X021445Y013626D03*
X022445Y013626D03*
X023445Y013626D03*
X010240Y013834D03*
X010240Y014834D03*
X010240Y015834D03*
X010240Y012834D03*
X006882Y012602D03*
X005882Y012602D03*
X004417Y006067D03*
X003417Y006067D03*
X002417Y006067D03*
X001417Y006067D03*
X001417Y004492D03*
X002417Y004492D03*
X003417Y004492D03*
X004417Y004492D03*
X004161Y002661D03*
X005161Y002661D03*
X006161Y002661D03*
X007161Y002661D03*
X008161Y002661D03*
X009161Y002661D03*
X010161Y002661D03*
X011161Y002661D03*
X012161Y002661D03*
X013161Y002661D03*
X013161Y001161D03*
X012161Y001161D03*
X011161Y001161D03*
X010161Y001161D03*
X009161Y001161D03*
X008161Y001161D03*
X007161Y001161D03*
X006161Y001161D03*
X005161Y001161D03*
X004161Y001161D03*
D39*
X002523Y015122D03*
X001894Y015122D03*
X001894Y015752D03*
X002523Y015752D03*
X002523Y017642D03*
X001894Y017642D03*
X001894Y018271D03*
X002523Y018271D03*
D40*
X012012Y017307D03*
X012012Y016933D03*
X012012Y016559D03*
X013035Y016559D03*
X013035Y016933D03*
X013035Y017307D03*
D41*
X018527Y012504D03*
X018901Y012504D03*
X019275Y012504D03*
X019275Y011441D03*
X018527Y011441D03*
M02*
