G75*
G70*
%OFA0B0*%
%FSLAX24Y24*%
%IPPOS*%
%LPD*%
%AMOC8*
5,1,8,0,0,1.08239X$1,22.5*
%
%ADD10C,0.0520*%
%ADD11C,0.0690*%
%ADD12C,0.0330*%
%ADD13OC8,0.0560*%
%ADD14C,0.0197*%
%ADD15C,0.0098*%
D10*
X015363Y015358D03*
X016363Y015358D03*
D11*
X019273Y011579D03*
X020273Y011579D03*
X021273Y011579D03*
X007281Y011004D03*
X007281Y010004D03*
X007281Y009004D03*
D12*
X009013Y007484D03*
X009485Y007012D03*
X009249Y006460D03*
X008462Y005831D03*
X008855Y005122D03*
X008462Y004728D03*
X008383Y004098D03*
X007989Y004098D03*
X010037Y004492D03*
X011848Y004492D03*
X012241Y004098D03*
X011848Y003705D03*
X011690Y006618D03*
X010666Y007090D03*
X010194Y006933D03*
X012084Y008035D03*
X012556Y008035D03*
X012714Y008665D03*
X013265Y008350D03*
X013501Y007957D03*
X013029Y006618D03*
X015391Y007405D03*
X015863Y006618D03*
X015785Y005909D03*
X015312Y005437D03*
X015312Y004649D03*
X016572Y006775D03*
X016966Y007405D03*
X017517Y006775D03*
X017832Y005516D03*
X016414Y009059D03*
X016572Y009689D03*
X016178Y010397D03*
X016808Y010949D03*
X016572Y011815D03*
X016414Y012681D03*
X016257Y013390D03*
X015863Y013783D03*
X017123Y013941D03*
X017753Y013941D03*
X017438Y015988D03*
X014289Y015988D03*
X014367Y016697D03*
X013974Y017484D03*
X014367Y019059D03*
X012163Y019059D03*
X011769Y018193D03*
X012005Y021421D03*
X012477Y022366D03*
X012556Y023153D03*
X012635Y024098D03*
X011454Y024728D03*
X011611Y027563D03*
X010981Y027563D03*
X009879Y027957D03*
X009879Y029846D03*
X010981Y030240D03*
X011611Y030240D03*
X010824Y031264D03*
X010824Y031894D03*
X009407Y032130D03*
X012556Y032130D03*
X013344Y030240D03*
X013029Y029846D03*
X013474Y029401D03*
X013974Y029401D03*
X013974Y028901D03*
X013974Y028401D03*
X013474Y028401D03*
X013474Y028901D03*
X014474Y028901D03*
X014474Y028401D03*
X015470Y028350D03*
X015785Y028665D03*
X016336Y027799D03*
X016966Y027799D03*
X018068Y028193D03*
X019879Y028114D03*
X019879Y024964D03*
X018147Y021421D03*
X014682Y021421D03*
X014918Y025201D03*
X015312Y026303D03*
X015312Y026933D03*
X014474Y029401D03*
X016336Y030476D03*
X016572Y030870D03*
X016966Y030476D03*
X016572Y031500D03*
X024131Y026146D03*
X024525Y026539D03*
X024131Y025358D03*
X024525Y024964D03*
X029013Y027248D03*
X029564Y027878D03*
X029564Y026539D03*
X024525Y032523D03*
X024525Y033232D03*
X024525Y034020D03*
X024525Y034728D03*
X029013Y035122D03*
X029564Y035752D03*
X029564Y034413D03*
X029564Y020004D03*
X029013Y019374D03*
X029564Y018665D03*
X029643Y013941D03*
X029328Y013311D03*
X024761Y011972D03*
X024525Y011579D03*
X024761Y011106D03*
X024525Y010712D03*
X024761Y010240D03*
X024367Y009768D03*
X024761Y009374D03*
X024525Y008980D03*
X023580Y009846D03*
X021454Y008350D03*
X022241Y007012D03*
X022241Y006539D03*
X022635Y005279D03*
X024446Y002366D03*
X024918Y002366D03*
X027044Y004964D03*
X027044Y005516D03*
X026572Y005358D03*
X025627Y007799D03*
X028068Y007799D03*
X029328Y007799D03*
X029879Y007799D03*
X024446Y012523D03*
X023974Y012996D03*
X023816Y017012D03*
X024210Y017405D03*
X024603Y017012D03*
X024210Y018350D03*
X023816Y018744D03*
X024603Y018744D03*
X018619Y010319D03*
X017832Y010004D03*
X018383Y009374D03*
X014840Y009138D03*
X014603Y009610D03*
X014840Y010791D03*
X013580Y011185D03*
X012635Y011264D03*
X011533Y010949D03*
X011533Y010319D03*
X010194Y011894D03*
X009800Y011500D03*
X012714Y012760D03*
X013186Y014413D03*
X012792Y014807D03*
X011769Y015043D03*
X014603Y012445D03*
X007832Y023232D03*
X007832Y024413D03*
X006651Y024413D03*
X006651Y023232D03*
D13*
X006887Y005567D03*
X006887Y006567D03*
D14*
X015391Y007405D02*
X016966Y007405D01*
D15*
X016572Y006775D02*
X017517Y006775D01*
X015312Y004649D02*
X013501Y006460D01*
X013501Y007957D01*
X013265Y008350D02*
X020903Y008350D01*
X021533Y008980D01*
X024525Y008980D01*
X024761Y009374D02*
X021375Y009374D01*
X020666Y008665D01*
X012714Y008665D01*
X012556Y008350D02*
X012556Y008035D01*
X012556Y008350D02*
X012320Y008586D01*
X012320Y014649D01*
X012477Y014807D01*
X012477Y022366D01*
X012556Y023153D02*
X011139Y021736D01*
X011139Y010712D01*
X011533Y010319D01*
X010666Y009453D01*
X010666Y007090D01*
X011690Y006618D02*
X011690Y009925D01*
X011848Y010083D01*
X011848Y011185D01*
X011375Y011657D01*
X011375Y020791D01*
X012005Y021421D01*
X013029Y023153D02*
X011454Y024728D01*
X012635Y024098D02*
X013265Y023468D01*
X013265Y015122D01*
X013737Y014649D01*
X013737Y014177D01*
X013265Y013705D01*
X013265Y010555D01*
X014210Y009610D01*
X014603Y009610D01*
X014367Y009138D02*
X013029Y010476D01*
X013029Y013783D01*
X013501Y014256D01*
X013501Y014571D01*
X013029Y015043D01*
X013029Y023153D01*
X013501Y023705D02*
X013501Y019138D01*
X017123Y015516D01*
X017123Y013941D01*
X017123Y011264D01*
X016808Y010949D01*
X016729Y010397D02*
X016178Y010397D01*
X016729Y010397D02*
X017753Y011421D01*
X017753Y013941D01*
X017753Y015201D01*
X013737Y019216D01*
X013737Y023783D01*
X013029Y024492D01*
X013029Y029846D01*
X012714Y030004D02*
X012950Y030240D01*
X013344Y030240D01*
X012714Y030004D02*
X012714Y024492D01*
X013501Y023705D01*
X014367Y019059D02*
X015155Y019059D01*
X018304Y015909D01*
X018304Y010634D01*
X018619Y010319D01*
X021060Y010319D01*
X022714Y011972D01*
X024761Y011972D01*
X024525Y011579D02*
X022635Y011579D01*
X021060Y010004D01*
X017832Y010004D01*
X018383Y009374D02*
X015391Y009374D01*
X013580Y011185D01*
X013580Y013547D01*
X013974Y013941D01*
X013974Y017484D01*
X014367Y016697D02*
X014761Y016303D01*
X014761Y015909D01*
X014603Y015752D01*
X014603Y012445D01*
X016572Y009689D02*
X021060Y009689D01*
X022477Y011106D01*
X024761Y011106D01*
X024761Y010240D02*
X021926Y010240D01*
X020745Y009059D01*
X016414Y009059D01*
X014840Y009138D02*
X014367Y009138D01*
X012084Y008035D02*
X012084Y014728D01*
X012163Y014807D01*
X012163Y019059D01*
X019879Y024964D02*
X019879Y027327D01*
X018540Y028665D01*
X015785Y028665D01*
X015470Y028901D02*
X015627Y029059D01*
X018934Y029059D01*
X019879Y028114D01*
X015470Y028350D02*
X015470Y028901D01*
X010824Y031264D02*
X009879Y031264D01*
X008698Y030083D01*
X008698Y007012D01*
X009249Y006460D01*
X008462Y005831D02*
X008462Y030161D01*
X010194Y031894D01*
X010824Y031894D01*
X013029Y006618D02*
X013029Y006224D01*
X015155Y004098D01*
X021454Y004098D01*
X022635Y005279D01*
M02*
