%
M48
M72
T01C0.0130
T02C0.0320
T03C0.0354
T04C0.0360
T05C0.0460
T06C0.0669
%
T01
X7989Y4098
X8383Y4098
X8462Y4728
X8855Y5122
X8462Y5831
X9249Y6460
X9485Y7012
X9013Y7484
X10194Y6933
X10666Y7090
X11690Y6618
X13029Y6618
X13501Y7957
X13265Y8350
X12714Y8665
X12556Y8035
X12084Y8035
X11533Y10319
X11533Y10949
X12635Y11264
X13580Y11185
X14603Y12445
X14840Y10791
X14603Y9610
X14840Y9138
X16178Y10397
X16572Y9689
X16414Y9059
X17832Y10004
X18383Y9374
X18619Y10319
X16808Y10949
X16572Y11815
X16414Y12681
X16257Y13390
X15863Y13783
X17123Y13941
X17753Y13941
X17438Y15988
X14289Y15988
X14367Y16697
X13974Y17484
X14367Y19059
X12163Y19059
X11769Y18193
X12005Y21421
X12477Y22366
X12556Y23153
X12635Y24098
X11454Y24728
X11611Y27563
X10981Y27563
X9879Y27957
X9879Y29846
X10981Y30240
X11611Y30240
X10824Y31264
X10824Y31894
X9407Y32130
X12556Y32130
X13344Y30240
X13029Y29846
X13474Y29401
X13974Y29401
X13974Y28901
X13974Y28401
X13474Y28401
X13474Y28901
X14474Y28901
X14474Y28401
X15470Y28350
X15785Y28665
X16336Y27799
X16966Y27799
X18068Y28193
X19879Y28114
X19879Y24964
X18147Y21421
X14682Y21421
X14918Y25201
X15312Y26303
X15312Y26933
X14474Y29401
X16336Y30476
X16572Y30870
X16966Y30476
X16572Y31500
X24131Y26146
X24525Y26539
X24131Y25358
X24525Y24964
X29013Y27248
X29564Y27878
X29564Y26539
X24525Y32523
X24525Y33232
X24525Y34020
X24525Y34728
X29013Y35122
X29564Y35752
X29564Y34413
X29564Y20004
X29013Y19374
X29564Y18665
X29643Y13941
X29328Y13311
X24761Y11972
X24525Y11579
X24761Y11106
X24525Y10712
X24761Y10240
X24367Y9768
X24761Y9374
X24525Y8980
X23580Y9846
X21454Y8350
X22241Y7012
X22241Y6539
X22635Y5279
X24446Y2366
X24918Y2366
X27044Y4964
X27044Y5516
X26572Y5358
X25627Y7799
X28068Y7799
X29328Y7799
X29879Y7799
X24446Y12523
X23974Y12996
X23816Y17012
X24210Y17405
X24603Y17012
X24210Y18350
X23816Y18744
X24603Y18744
X16966Y7405
X16572Y6775
X15863Y6618
X15785Y5909
X15312Y5437
X15312Y4649
X17517Y6775
X17832Y5516
X15391Y7405
X12241Y4098
X11848Y3705
X11848Y4492
X10037Y4492
X9800Y11500
X10194Y11894
X12714Y12760
X13186Y14413
X12792Y14807
X11769Y15043
X7832Y23232
X7832Y24413
X6651Y24413
X6651Y23232
T02
X15363Y15358
X16363Y15358
T03
X28580Y4787
X28580Y3409
T04
X6887Y5567
X6887Y6567
T05
X7281Y9004
X7281Y10004
X7281Y11004
X19273Y11579
X20273Y11579
X21273Y11579
T06
X26375Y17878
X29131Y17878
X29131Y25752
X26375Y25752
X26375Y33626
X29131Y33626
M30
