%
M48
M72
T01C0.0130
T02C0.0354
T03C0.0460
T04C0.0669
T05C0.0743
T06C0.1260
%
T01
X3311Y712
X3311Y1500
X3311Y2287
X3311Y3075
X3075Y3705
X3862Y3705
X4649Y3705
X5516Y4256
X5752Y5201
X6460Y5201
X6539Y4728
X5752Y6146
X6303Y7012
X7051Y7012
X6303Y8035
X6697Y8193
X7090Y8350
X7484Y8508
X8114Y8350
X8114Y7878
X8980Y7563
X8586Y7012
X9374Y6146
X9846Y6146
X10319Y5673
X10791Y5752
X10791Y6539
X10476Y6933
X10791Y7248
X11500Y6618
X12209Y6303
X12523Y5909
X12838Y6303
X13311Y6224
X14098Y6224
X14886Y6224
X15673Y6224
X16460Y6224
X17327Y6224
X18114Y6224
X18901Y6224
X19689Y6224
X19689Y5358
X19689Y4492
X20240Y3941
X20319Y3153
X21106Y3153
X21894Y3153
X22681Y3153
X23468Y3153
X24256Y3153
X25043Y3153
X25752Y3783
X25201Y4098
X26460Y3626
X27012Y4177
X27720Y3862
X28271Y3311
X29059Y3311
X29453Y3941
X29925Y3547
X30476Y3311
X29846Y2917
X29374Y2287
X29216Y1500
X29138Y712
X28350Y712
X27563Y712
X26775Y712
X25988Y712
X25201Y712
X24413Y712
X23626Y712
X22838Y712
X22051Y712
X21264Y712
X20476Y712
X19689Y712
X18901Y712
X18114Y712
X17327Y712
X17327Y1500
X17327Y2287
X17327Y3075
X17327Y3862
X17327Y4649
X17327Y5437
X16460Y3862
X16460Y3075
X16460Y2287
X15437Y1500
X15673Y712
X16460Y712
X14886Y712
X14098Y712
X13390Y3390
X12602Y3390
X12051Y3862
X12051Y4649
X12051Y5437
X10397Y4964
X9846Y4413
X10791Y4177
X10791Y3390
X13705Y5043
X15437Y4964
X12838Y7878
X12209Y8193
X12602Y8901
X13311Y8901
X14098Y8901
X14886Y8901
X15673Y8901
X16460Y8901
X16146Y9689
X15673Y9689
X15201Y9689
X14020Y10319
X13390Y9689
X12996Y10791
X12996Y11579
X12996Y12366
X12996Y13153
X12996Y13941
X12996Y14728
X13468Y15279
X12051Y14728
X11736Y15279
X10949Y14728
X10949Y13941
X12051Y13941
X12051Y13153
X12051Y12366
X12051Y11579
X11264Y11500
X10634Y11421
X10870Y12445
X12051Y10791
X10083Y10476
X8901Y10004
X8508Y10240
X8035Y10240
X8901Y9531
X9216Y9138
X10397Y8586
X11185Y8429
X8665Y11579
X8193Y11579
X7327Y12130
X6460Y11500
X5752Y11185
X5122Y10476
X6382Y10004
X5909Y9138
X5870Y7858
X7248Y9138
X4413Y7405
X3468Y7957
X3468Y8586
X3075Y9295
X2523Y10319
X1579Y10319
X712Y10004
X712Y9216
X712Y8429
X712Y7642
X712Y6854
X712Y6067
X712Y5279
X712Y4492
X712Y3705
X1500Y3705
X2287Y3705
X2051Y7012
X712Y10791
X712Y11579
X712Y12366
X712Y13153
X712Y13941
X712Y14728
X712Y15516
X1421Y15752
X1421Y16382
X712Y16303
X712Y17090
X712Y17878
X712Y18665
X1421Y18271
X3075Y18271
X3075Y17327
X3075Y16460
X3311Y15594
X3311Y14728
X4098Y14886
X4571Y15437
X5201Y15437
X5634Y15437
X6067Y15437
X6933Y15437
X7366Y15437
X7799Y15437
X8232Y15437
X9216Y14886
X9610Y15201
X9925Y16697
X10555Y16697
X11500Y16933
X11027Y17563
X11264Y17957
X11736Y17957
X9846Y18350
X9846Y19059
X10240Y19768
X9689Y20870
X8980Y19689
X8114Y20870
X7327Y20870
X6539Y20870
X5752Y20870
X3665Y20161
X2996Y20870
X8508Y16539
X9453Y17169
X7169Y13626
X6539Y13626
X4964Y12996
X5279Y12209
X4807Y11657
X3547Y11657
X3075Y11185
X2838Y12996
X4177Y12760
X4098Y14020
X14492Y19768
X14886Y19059
X14886Y18350
X14807Y17642
X16460Y18350
X16460Y19138
X16460Y19925
X16460Y20712
X15673Y20949
X14886Y20949
X17327Y20712
X18035Y20949
X18823Y20949
X19610Y20949
X20319Y20791
X21106Y20083
X20240Y19925
X20240Y19138
X20240Y18350
X20240Y17563
X20240Y16775
X20240Y15988
X21027Y15594
X20004Y15279
X19846Y14571
X19768Y13783
X19768Y12996
X19768Y12209
X19689Y11421
X19689Y10634
X19295Y10634
X19295Y10161
X19059Y9689
X18586Y9689
X18114Y9689
X17642Y9689
X17327Y10476
X17327Y11264
X17327Y12051
X17327Y12838
X18035Y12760
X18035Y13311
X18350Y13862
X17327Y13626
X17327Y14334
X16460Y14334
X16460Y13626
X16460Y12838
X16460Y12051
X16460Y11264
X16460Y10476
X17327Y8901
X18114Y8901
X18901Y8901
X19689Y8901
X19689Y9689
X25043Y13075
X25516Y13547
X25516Y14177
X25043Y15909
X24413Y15909
X24964Y16775
X24964Y17563
X24964Y18350
X24964Y19138
X24964Y19925
X25043Y20791
X24413Y20949
X23626Y20949
X21972Y20791
X25831Y20083
X26697Y20791
X27957Y20870
X28744Y20870
X29531Y20870
X29374Y19216
X29846Y18665
X30476Y18271
X31264Y18271
X31894Y17878
X31894Y18665
X31894Y17090
X31894Y16303
X31894Y15516
X31894Y14728
X31894Y13941
X31894Y13153
X31894Y12366
X31894Y11579
X31894Y10791
X31894Y10004
X31894Y9216
X31894Y8429
X31894Y7642
X31894Y6854
X31894Y6067
X31894Y5279
X31894Y4492
X31894Y3705
X31264Y3311
X30634Y4256
X29925Y4413
X29453Y4728
X29453Y5358
X28980Y5673
X27878Y5516
X27484Y5201
X27090Y5516
X27012Y5043
X25752Y5988
X25988Y6460
X25988Y7012
X26539Y7012
X27090Y7012
X25279Y5516
X29059Y8429
X29531Y7957
X30004Y8429
X30161Y9059
X30319Y9453
X30791Y9925
X30949Y10634
X30397Y11185
X28114Y10161
X27878Y9768
X27484Y10004
X27090Y9768
X25988Y9453
X25516Y9925
X25516Y11185
X26146Y11736
X27248Y11264
X27642Y14334
X27642Y15909
X27012Y15909
X21027Y14098
X17327Y17563
X16460Y15988
X17327Y19925
X29925Y7405
X30634Y7248
X30161Y6697
X30161Y5988
T02
X13055Y19492
X11677Y19492
T03
X10240Y15834
X10240Y14834
X10240Y13834
X10240Y12834
X6882Y12602
X5882Y12602
X4417Y6067
X3417Y6067
X2417Y6067
X1417Y6067
X1417Y4492
X2417Y4492
X3417Y4492
X4417Y4492
X4161Y2661
X5161Y2661
X6161Y2661
X7161Y2661
X8161Y2661
X9161Y2661
X10161Y2661
X11161Y2661
X12161Y2661
X13161Y2661
X13161Y1161
X12161Y1161
X11161Y1161
X10161Y1161
X9161Y1161
X8161Y1161
X7161Y1161
X6161Y1161
X5161Y1161
X4161Y1161
X21445Y13626
X22445Y13626
X23445Y13626
X23445Y15122
X22445Y15122
X21445Y15122
X30791Y14449
X30791Y13449
X30791Y12449
T04
X27327Y17602
X27327Y20358
X22602Y20358
X22602Y17602
T05
X17878Y18665
X16027Y17484
X17878Y16303
T06
X1736Y1736
X1736Y19846
X30870Y19846
X30870Y1736
M30
