G75*
G70*
%OFA0B0*%
%FSLAX24Y24*%
%IPPOS*%
%LPD*%
%AMOC8*
5,1,8,0,0,1.08239X$1,22.5*
%
%ADD10R,0.0847X0.0257*%
%ADD11R,0.0926X0.1044*%
%ADD12C,0.0414*%
%ADD13R,0.0414X0.0454*%
%ADD14R,0.0454X0.0434*%
%ADD15C,0.0580*%
%ADD16R,0.0454X0.0414*%
%ADD17R,0.0887X0.2442*%
%ADD18R,0.0434X0.0454*%
%ADD19R,0.1162X0.0351*%
%ADD20R,0.1005X0.0572*%
%ADD21R,0.0178X0.0651*%
%ADD22R,0.0651X0.0178*%
%ADD23R,0.0473X0.0611*%
%ADD24R,0.0611X0.0473*%
%ADD25R,0.1320X0.1320*%
%ADD26C,0.2288*%
%ADD27C,0.0750*%
%ADD28C,0.0162*%
%ADD29R,0.1260X0.1260*%
%ADD30C,0.0020*%
%ADD31R,0.1694X0.0690*%
%ADD32R,0.2442X0.0887*%
%ADD33R,0.1241X0.0690*%
%ADD34R,0.1064X0.0690*%
%ADD35R,0.0926X0.1162*%
%ADD36R,0.1162X0.1162*%
%ADD37C,0.0729*%
%ADD38R,0.0493X0.0296*%
%ADD39R,0.0926X0.0670*%
%ADD40R,0.0532X0.0454*%
%ADD41R,0.0532X0.0336*%
%ADD42R,0.0375X0.0454*%
%ADD43R,0.1162X0.0454*%
%ADD44R,0.0808X0.0572*%
%ADD45OC8,0.0620*%
D10*
X027694Y003468D03*
X027694Y003783D03*
X027694Y004098D03*
X027694Y004413D03*
X027694Y004728D03*
D11*
X027792Y005752D03*
X029879Y005752D03*
X029879Y002445D03*
X027792Y002445D03*
D12*
X028580Y003409D03*
X028580Y004787D03*
D13*
X026572Y004886D03*
X026572Y004256D03*
X025942Y004256D03*
X025942Y004886D03*
X025942Y003626D03*
X026572Y003626D03*
X023186Y007957D03*
X023186Y008586D03*
X022556Y008586D03*
X022556Y007957D03*
X022556Y009216D03*
X023186Y009216D03*
X023186Y011106D03*
X022556Y011106D03*
X022556Y011736D03*
X022556Y012366D03*
X023186Y012366D03*
X023186Y011736D03*
X020273Y010712D03*
X019643Y010712D03*
X018855Y008665D03*
X018855Y008035D03*
X018226Y008035D03*
X018226Y008665D03*
X018226Y007405D03*
X018855Y007405D03*
X018855Y006775D03*
X018855Y006146D03*
X018226Y006146D03*
X018226Y006775D03*
X018226Y005516D03*
X018855Y005516D03*
X019485Y005279D03*
X020115Y005279D03*
X020745Y005279D03*
X021375Y005279D03*
X016493Y014649D03*
X015863Y014649D03*
X015233Y014649D03*
X014603Y014649D03*
X013422Y019059D03*
X012792Y019059D03*
X012556Y024728D03*
X011926Y024728D03*
X011926Y031264D03*
X011296Y031264D03*
X011296Y031894D03*
X011926Y031894D03*
X011296Y032523D03*
X010666Y032523D03*
X015548Y031500D03*
X016178Y031500D03*
X023501Y031657D03*
X024131Y031657D03*
X024131Y033232D03*
X023501Y033232D03*
X023501Y034020D03*
X024131Y034020D03*
X024131Y035594D03*
X023501Y035594D03*
X023501Y027327D03*
X024131Y027327D03*
X024131Y026539D03*
X023501Y026539D03*
X023501Y024964D03*
X024131Y024964D03*
X024131Y024177D03*
X023501Y024177D03*
X011296Y006618D03*
X010666Y006618D03*
D14*
X010194Y007327D03*
X010194Y007957D03*
X010194Y010870D03*
X010194Y011500D03*
X012163Y015043D03*
X012163Y015673D03*
X012163Y017563D03*
X012163Y018193D03*
X014682Y015988D03*
X014682Y015358D03*
X017044Y015358D03*
X017044Y015988D03*
X016178Y011815D03*
X016178Y011185D03*
X023186Y010476D03*
X023186Y009846D03*
X026336Y006618D03*
X026966Y006618D03*
X026966Y005988D03*
X026336Y005988D03*
X008855Y004728D03*
X008855Y004098D03*
X010351Y027957D03*
X010351Y028586D03*
X010351Y029216D03*
X010351Y029846D03*
X010981Y029846D03*
X010981Y029216D03*
X010981Y028586D03*
X010981Y027957D03*
X011611Y027957D03*
X011611Y028586D03*
X011611Y029216D03*
X011611Y029846D03*
X016336Y030083D03*
X016966Y030083D03*
X016966Y029453D03*
X016336Y029453D03*
X016336Y028823D03*
X016966Y028823D03*
X017596Y028823D03*
X017596Y028193D03*
X016966Y028193D03*
X016336Y028193D03*
D15*
X016363Y015358D03*
X015363Y015358D03*
D16*
X014603Y013547D03*
X014603Y012917D03*
X017123Y012838D03*
X017123Y013468D03*
X017753Y013468D03*
X017753Y012838D03*
X019485Y009374D03*
X019485Y008744D03*
X024210Y016382D03*
X024210Y017012D03*
X024210Y018744D03*
X024210Y019374D03*
X015548Y029610D03*
X015548Y030240D03*
X010777Y020685D03*
X010777Y020055D03*
X012163Y016933D03*
X012163Y016303D03*
X008147Y010004D03*
X008147Y009374D03*
D17*
X010588Y014836D03*
X010588Y018399D03*
D18*
X012163Y014413D03*
X012792Y014413D03*
X012792Y013783D03*
X012163Y013783D03*
X012163Y013153D03*
X012792Y013153D03*
X015233Y013390D03*
X015863Y013390D03*
X017517Y019295D03*
X018147Y019295D03*
X014918Y025673D03*
X014918Y026303D03*
X014289Y026303D03*
X014289Y025673D03*
X014289Y026933D03*
X014918Y026933D03*
X015548Y030870D03*
X016178Y030870D03*
X012556Y032523D03*
X011926Y032523D03*
X010037Y032523D03*
X009407Y032523D03*
X023501Y032445D03*
X024131Y032445D03*
X024131Y034807D03*
X023501Y034807D03*
X015470Y006618D03*
X014840Y006618D03*
X011848Y004098D03*
X011218Y004098D03*
X025312Y002366D03*
X025942Y002366D03*
X025942Y002996D03*
X026572Y002996D03*
D19*
X021466Y006012D03*
X021466Y006512D03*
X021466Y007012D03*
X021466Y007512D03*
X021466Y008012D03*
X019867Y008012D03*
X019867Y007512D03*
X019867Y007012D03*
X019867Y006512D03*
X019867Y006012D03*
D20*
X018147Y020181D03*
X018147Y021874D03*
X014682Y021874D03*
X014682Y020181D03*
D21*
X014663Y011854D03*
X014466Y011854D03*
X014269Y011854D03*
X014072Y011854D03*
X013875Y011854D03*
X013678Y011854D03*
X013481Y011854D03*
X013285Y011854D03*
X013088Y011854D03*
X012891Y011854D03*
X012694Y011854D03*
X012497Y011854D03*
X012300Y011854D03*
X012103Y011854D03*
X011907Y011854D03*
X011710Y011854D03*
X011710Y007366D03*
X011907Y007366D03*
X012103Y007366D03*
X012300Y007366D03*
X012497Y007366D03*
X012694Y007366D03*
X012891Y007366D03*
X013088Y007366D03*
X013285Y007366D03*
X013481Y007366D03*
X013678Y007366D03*
X013875Y007366D03*
X014072Y007366D03*
X014269Y007366D03*
X014466Y007366D03*
X014663Y007366D03*
D22*
X015430Y008134D03*
X015430Y008331D03*
X015430Y008527D03*
X015430Y008724D03*
X015430Y008921D03*
X015430Y009118D03*
X015430Y009315D03*
X015430Y009512D03*
X015430Y009709D03*
X015430Y009905D03*
X015430Y010102D03*
X015430Y010299D03*
X015430Y010496D03*
X015430Y010693D03*
X015430Y010890D03*
X015430Y011086D03*
X010942Y011086D03*
X010942Y010890D03*
X010942Y010693D03*
X010942Y010496D03*
X010942Y010299D03*
X010942Y010102D03*
X010942Y009905D03*
X010942Y009709D03*
X010942Y009512D03*
X010942Y009315D03*
X010942Y009118D03*
X010942Y008921D03*
X010942Y008724D03*
X010942Y008527D03*
X010942Y008331D03*
X010942Y008134D03*
D23*
X014643Y005909D03*
X015351Y005909D03*
X015273Y012681D03*
X015981Y012681D03*
D24*
X009485Y008153D03*
X009485Y007445D03*
X014840Y030358D03*
X014840Y031067D03*
D25*
X007202Y026943D03*
X007202Y020624D03*
D26*
X007202Y023783D03*
D27*
X007281Y011004D03*
X007281Y010004D03*
X007281Y009004D03*
X019273Y011579D03*
X020273Y011579D03*
X021273Y011579D03*
D28*
X014564Y027905D02*
X014564Y028075D01*
X014367Y028075D02*
X014367Y027905D01*
X014170Y027905D02*
X014170Y028075D01*
X013974Y028075D02*
X013974Y027905D01*
X013777Y027905D02*
X013777Y028075D01*
X013580Y028075D02*
X013580Y027905D01*
X013383Y027905D02*
X013383Y028075D01*
X013147Y028311D02*
X012977Y028311D01*
X012977Y028508D02*
X013147Y028508D01*
X013147Y028705D02*
X012977Y028705D01*
X012977Y028901D02*
X013147Y028901D01*
X013147Y029098D02*
X012977Y029098D01*
X012977Y029295D02*
X013147Y029295D01*
X013147Y029492D02*
X012977Y029492D01*
X013383Y029728D02*
X013383Y029898D01*
X013580Y029898D02*
X013580Y029728D01*
X013777Y029728D02*
X013777Y029898D01*
X013974Y029898D02*
X013974Y029728D01*
X014170Y029728D02*
X014170Y029898D01*
X014367Y029898D02*
X014367Y029728D01*
X014564Y029728D02*
X014564Y029898D01*
X014800Y029492D02*
X014970Y029492D01*
X014970Y029295D02*
X014800Y029295D01*
X014800Y029098D02*
X014970Y029098D01*
X014970Y028901D02*
X014800Y028901D01*
X014800Y028705D02*
X014970Y028705D01*
X014970Y028508D02*
X014800Y028508D01*
X014800Y028311D02*
X014970Y028311D01*
D29*
X013974Y028901D03*
D30*
X014092Y028862D02*
X014564Y028744D01*
X014564Y028488D01*
X014092Y028842D01*
X014092Y028862D01*
X014092Y028853D02*
X014129Y028853D01*
X014102Y028834D02*
X014202Y028834D01*
X014175Y028780D02*
X014421Y028780D01*
X014494Y028762D02*
X014199Y028762D01*
X014224Y028743D02*
X014564Y028743D01*
X014564Y028725D02*
X014248Y028725D01*
X014272Y028707D02*
X014564Y028707D01*
X014564Y028689D02*
X014297Y028689D01*
X014321Y028670D02*
X014564Y028670D01*
X014564Y028652D02*
X014345Y028652D01*
X014370Y028634D02*
X014564Y028634D01*
X014564Y028616D02*
X014394Y028616D01*
X014418Y028597D02*
X014564Y028597D01*
X014564Y028579D02*
X014442Y028579D01*
X014467Y028561D02*
X014564Y028561D01*
X014564Y028543D02*
X014491Y028543D01*
X014515Y028525D02*
X014564Y028525D01*
X014564Y028506D02*
X014540Y028506D01*
X014564Y028488D02*
X014564Y028488D01*
X014363Y028342D02*
X014123Y028342D01*
X014128Y028324D02*
X014377Y028324D01*
X014387Y028311D02*
X014131Y028311D01*
X014013Y028783D01*
X014033Y028783D01*
X014387Y028311D01*
X014350Y028361D02*
X014119Y028361D01*
X014114Y028379D02*
X014336Y028379D01*
X014322Y028397D02*
X014109Y028397D01*
X014105Y028415D02*
X014309Y028415D01*
X014295Y028433D02*
X014100Y028433D01*
X014096Y028452D02*
X014281Y028452D01*
X014268Y028470D02*
X014091Y028470D01*
X014087Y028488D02*
X014254Y028488D01*
X014240Y028506D02*
X014082Y028506D01*
X014078Y028525D02*
X014227Y028525D01*
X014213Y028543D02*
X014073Y028543D01*
X014068Y028561D02*
X014199Y028561D01*
X014186Y028579D02*
X014064Y028579D01*
X014059Y028597D02*
X014172Y028597D01*
X014158Y028616D02*
X014055Y028616D01*
X014050Y028634D02*
X014145Y028634D01*
X014131Y028652D02*
X014046Y028652D01*
X014041Y028670D02*
X014117Y028670D01*
X014104Y028689D02*
X014037Y028689D01*
X014032Y028707D02*
X014090Y028707D01*
X014076Y028725D02*
X014027Y028725D01*
X014023Y028743D02*
X014063Y028743D01*
X014049Y028762D02*
X014018Y028762D01*
X014014Y028780D02*
X014035Y028780D01*
X014127Y028816D02*
X014275Y028816D01*
X014348Y028798D02*
X014151Y028798D01*
X014104Y028944D02*
X014092Y028944D01*
X014092Y028941D02*
X014564Y029059D01*
X014564Y029315D01*
X014092Y028960D01*
X014092Y028941D01*
X014094Y028962D02*
X014177Y028962D01*
X014142Y028999D02*
X014323Y028999D01*
X014395Y029017D02*
X014167Y029017D01*
X014191Y029035D02*
X014468Y029035D01*
X014541Y029053D02*
X014215Y029053D01*
X014240Y029071D02*
X014564Y029071D01*
X014564Y029090D02*
X014264Y029090D01*
X014288Y029108D02*
X014564Y029108D01*
X014564Y029126D02*
X014313Y029126D01*
X014337Y029144D02*
X014564Y029144D01*
X014564Y029163D02*
X014361Y029163D01*
X014385Y029181D02*
X014564Y029181D01*
X014564Y029199D02*
X014410Y029199D01*
X014434Y029217D02*
X014564Y029217D01*
X014564Y029235D02*
X014458Y029235D01*
X014483Y029254D02*
X014564Y029254D01*
X014564Y029272D02*
X014507Y029272D01*
X014531Y029290D02*
X014564Y029290D01*
X014564Y029308D02*
X014556Y029308D01*
X014359Y029454D02*
X014122Y029454D01*
X014117Y029436D02*
X014345Y029436D01*
X014331Y029418D02*
X014112Y029418D01*
X014108Y029400D02*
X014318Y029400D01*
X014304Y029381D02*
X014103Y029381D01*
X014099Y029363D02*
X014290Y029363D01*
X014277Y029345D02*
X014094Y029345D01*
X014090Y029327D02*
X014263Y029327D01*
X014249Y029308D02*
X014085Y029308D01*
X014081Y029290D02*
X014236Y029290D01*
X014222Y029272D02*
X014076Y029272D01*
X014071Y029254D02*
X014208Y029254D01*
X014195Y029235D02*
X014067Y029235D01*
X014062Y029217D02*
X014181Y029217D01*
X014167Y029199D02*
X014058Y029199D01*
X014053Y029181D02*
X014154Y029181D01*
X014140Y029163D02*
X014049Y029163D01*
X014044Y029144D02*
X014126Y029144D01*
X014113Y029126D02*
X014040Y029126D01*
X014035Y029108D02*
X014099Y029108D01*
X014085Y029090D02*
X014030Y029090D01*
X014026Y029071D02*
X014072Y029071D01*
X014058Y029053D02*
X014021Y029053D01*
X014017Y029035D02*
X014044Y029035D01*
X014033Y029020D02*
X014013Y029020D01*
X014131Y029492D01*
X014387Y029492D01*
X014033Y029020D01*
X014118Y028980D02*
X014250Y028980D01*
X013934Y029020D02*
X013816Y029492D01*
X013560Y029492D01*
X013914Y029020D01*
X013934Y029020D01*
X013930Y029035D02*
X013903Y029035D01*
X013889Y029053D02*
X013926Y029053D01*
X013921Y029071D02*
X013876Y029071D01*
X013862Y029090D02*
X013917Y029090D01*
X013912Y029108D02*
X013848Y029108D01*
X013835Y029126D02*
X013908Y029126D01*
X013903Y029144D02*
X013821Y029144D01*
X013807Y029163D02*
X013898Y029163D01*
X013894Y029181D02*
X013794Y029181D01*
X013780Y029199D02*
X013889Y029199D01*
X013885Y029217D02*
X013766Y029217D01*
X013753Y029235D02*
X013880Y029235D01*
X013876Y029254D02*
X013739Y029254D01*
X013725Y029272D02*
X013871Y029272D01*
X013867Y029290D02*
X013711Y029290D01*
X013698Y029308D02*
X013862Y029308D01*
X013857Y029327D02*
X013684Y029327D01*
X013670Y029345D02*
X013853Y029345D01*
X013848Y029363D02*
X013657Y029363D01*
X013643Y029381D02*
X013844Y029381D01*
X013839Y029400D02*
X013629Y029400D01*
X013616Y029418D02*
X013835Y029418D01*
X013830Y029436D02*
X013602Y029436D01*
X013588Y029454D02*
X013826Y029454D01*
X013821Y029472D02*
X013575Y029472D01*
X013561Y029491D02*
X013816Y029491D01*
X014126Y029472D02*
X014372Y029472D01*
X014386Y029491D02*
X014131Y029491D01*
X013780Y029017D02*
X013552Y029017D01*
X013625Y028999D02*
X013805Y028999D01*
X013829Y028980D02*
X013697Y028980D01*
X013770Y028962D02*
X013853Y028962D01*
X013855Y028960D02*
X013855Y028941D01*
X013383Y029059D01*
X013383Y029315D01*
X013855Y028960D01*
X013855Y028944D02*
X013843Y028944D01*
X013855Y028862D02*
X013383Y028744D01*
X013383Y028488D01*
X013855Y028842D01*
X013855Y028862D01*
X013855Y028853D02*
X013818Y028853D01*
X013845Y028834D02*
X013745Y028834D01*
X013772Y028780D02*
X013526Y028780D01*
X013453Y028762D02*
X013748Y028762D01*
X013723Y028743D02*
X013383Y028743D01*
X013383Y028725D02*
X013699Y028725D01*
X013675Y028707D02*
X013383Y028707D01*
X013383Y028689D02*
X013650Y028689D01*
X013626Y028670D02*
X013383Y028670D01*
X013383Y028652D02*
X013602Y028652D01*
X013578Y028634D02*
X013383Y028634D01*
X013383Y028616D02*
X013553Y028616D01*
X013529Y028597D02*
X013383Y028597D01*
X013383Y028579D02*
X013505Y028579D01*
X013480Y028561D02*
X013383Y028561D01*
X013383Y028543D02*
X013456Y028543D01*
X013432Y028525D02*
X013383Y028525D01*
X013383Y028506D02*
X013407Y028506D01*
X013383Y028488D02*
X013383Y028488D01*
X013584Y028342D02*
X013824Y028342D01*
X013819Y028324D02*
X013570Y028324D01*
X013560Y028311D02*
X013816Y028311D01*
X013934Y028783D01*
X013914Y028783D01*
X013560Y028311D01*
X013597Y028361D02*
X013829Y028361D01*
X013833Y028379D02*
X013611Y028379D01*
X013625Y028397D02*
X013838Y028397D01*
X013842Y028415D02*
X013638Y028415D01*
X013652Y028433D02*
X013847Y028433D01*
X013851Y028452D02*
X013666Y028452D01*
X013679Y028470D02*
X013856Y028470D01*
X013860Y028488D02*
X013693Y028488D01*
X013707Y028506D02*
X013865Y028506D01*
X013869Y028525D02*
X013720Y028525D01*
X013734Y028543D02*
X013874Y028543D01*
X013879Y028561D02*
X013748Y028561D01*
X013761Y028579D02*
X013883Y028579D01*
X013888Y028597D02*
X013775Y028597D01*
X013789Y028616D02*
X013892Y028616D01*
X013897Y028634D02*
X013802Y028634D01*
X013816Y028652D02*
X013901Y028652D01*
X013906Y028670D02*
X013830Y028670D01*
X013843Y028689D02*
X013911Y028689D01*
X013915Y028707D02*
X013857Y028707D01*
X013871Y028725D02*
X013920Y028725D01*
X013924Y028743D02*
X013884Y028743D01*
X013898Y028762D02*
X013929Y028762D01*
X013933Y028780D02*
X013912Y028780D01*
X013821Y028816D02*
X013672Y028816D01*
X013599Y028798D02*
X013796Y028798D01*
X013756Y029035D02*
X013479Y029035D01*
X013406Y029053D02*
X013732Y029053D01*
X013707Y029071D02*
X013383Y029071D01*
X013383Y029090D02*
X013683Y029090D01*
X013659Y029108D02*
X013383Y029108D01*
X013383Y029126D02*
X013635Y029126D01*
X013610Y029144D02*
X013383Y029144D01*
X013383Y029163D02*
X013586Y029163D01*
X013562Y029181D02*
X013383Y029181D01*
X013383Y029199D02*
X013537Y029199D01*
X013513Y029217D02*
X013383Y029217D01*
X013383Y029235D02*
X013489Y029235D01*
X013464Y029254D02*
X013383Y029254D01*
X013383Y029272D02*
X013440Y029272D01*
X013416Y029290D02*
X013383Y029290D01*
X013383Y029308D02*
X013392Y029308D01*
D31*
X020214Y019846D03*
X022694Y019846D03*
X022694Y015909D03*
X020214Y015909D03*
D32*
X012763Y034098D03*
X009200Y034098D03*
D33*
X020174Y027327D03*
X021946Y027327D03*
X021946Y024177D03*
X020174Y024177D03*
D34*
X020765Y032445D03*
X022143Y032445D03*
X022143Y034807D03*
X020765Y034807D03*
D35*
X028777Y032169D03*
X029564Y035083D03*
X029564Y027209D03*
X028777Y024295D03*
X029564Y019334D03*
X028777Y016421D03*
D36*
X025863Y019334D03*
X025863Y027209D03*
X025863Y035083D03*
D37*
X026375Y033626D03*
X029131Y033626D03*
X029131Y025752D03*
X026375Y025752D03*
X026375Y017878D03*
X029131Y017878D03*
D38*
X010568Y004866D03*
X010568Y004492D03*
X010568Y004118D03*
X009505Y004118D03*
X009505Y004866D03*
D39*
X009269Y002917D03*
X010411Y002917D03*
X012025Y002917D03*
X007655Y002917D03*
D40*
X023974Y012583D03*
X025666Y008193D03*
D41*
X023974Y008567D03*
X023974Y008941D03*
X023974Y009374D03*
X023974Y009807D03*
X023974Y010240D03*
X023974Y010673D03*
X023974Y011106D03*
X023974Y011539D03*
X023974Y011972D03*
D42*
X028107Y008193D03*
D43*
X029741Y008193D03*
D44*
X029918Y013508D03*
D45*
X006887Y005567D03*
X006887Y006567D03*
M02*
