G75*
G70*
%OFA0B0*%
%FSLAX24Y24*%
%IPPOS*%
%LPD*%
%AMOC8*
5,1,8,0,0,1.08239X$1,22.5*
%
%ADD10C,0.0000*%
%ADD11C,0.0080*%
%ADD12C,0.0050*%
%ADD13C,0.0060*%
%ADD14R,0.0160X0.0230*%
%ADD15C,0.0160*%
%ADD16C,0.0001*%
%ADD17C,0.0118*%
%ADD18C,0.0079*%
%ADD19C,0.0157*%
%ADD20C,0.0160*%
D10*
X004918Y000161D02*
X004918Y037563D01*
X030509Y037563D01*
X030509Y000161D01*
X004918Y000161D01*
X010520Y003783D02*
X010532Y003767D01*
X010548Y003754D01*
X010567Y003747D01*
X010588Y003744D01*
X010608Y003747D01*
X010627Y003754D01*
X010643Y003767D01*
X010656Y003783D01*
X010664Y003802D01*
X010666Y003823D01*
X010664Y003843D01*
X010656Y003862D01*
X010643Y003878D01*
X010627Y003891D01*
X010608Y003899D01*
X010588Y003901D01*
X010567Y003899D01*
X010548Y003891D01*
X010532Y003878D01*
X010520Y003862D01*
X010512Y003843D01*
X010509Y003823D01*
X010512Y003802D01*
X010520Y003783D01*
X021477Y005628D02*
X021474Y005653D01*
X021477Y005679D01*
X021487Y005703D01*
X021502Y005723D01*
X021523Y005739D01*
X021546Y005748D01*
X021572Y005752D01*
X021597Y005748D01*
X021621Y005739D01*
X021642Y005723D01*
X021657Y005703D01*
X021667Y005679D01*
X021670Y005653D01*
X021667Y005628D01*
X021657Y005604D01*
X021642Y005584D01*
X021621Y005568D01*
X021597Y005558D01*
X021572Y005555D01*
X021546Y005558D01*
X021523Y005568D01*
X021502Y005584D01*
X021487Y005604D01*
X021477Y005628D01*
X028403Y004787D02*
X028405Y004813D01*
X028411Y004839D01*
X028421Y004864D01*
X028434Y004887D01*
X028450Y004907D01*
X028470Y004925D01*
X028492Y004940D01*
X028515Y004952D01*
X028541Y004960D01*
X028567Y004964D01*
X028593Y004964D01*
X028619Y004960D01*
X028645Y004952D01*
X028669Y004940D01*
X028690Y004925D01*
X028710Y004907D01*
X028726Y004887D01*
X028739Y004864D01*
X028749Y004839D01*
X028755Y004813D01*
X028757Y004787D01*
X028755Y004761D01*
X028749Y004735D01*
X028739Y004710D01*
X028726Y004687D01*
X028710Y004667D01*
X028690Y004649D01*
X028668Y004634D01*
X028645Y004622D01*
X028619Y004614D01*
X028593Y004610D01*
X028567Y004610D01*
X028541Y004614D01*
X028515Y004622D01*
X028491Y004634D01*
X028470Y004649D01*
X028450Y004667D01*
X028434Y004687D01*
X028421Y004710D01*
X028411Y004735D01*
X028405Y004761D01*
X028403Y004787D01*
X028403Y003409D02*
X028405Y003435D01*
X028411Y003461D01*
X028421Y003486D01*
X028434Y003509D01*
X028450Y003529D01*
X028470Y003547D01*
X028492Y003562D01*
X028515Y003574D01*
X028541Y003582D01*
X028567Y003586D01*
X028593Y003586D01*
X028619Y003582D01*
X028645Y003574D01*
X028669Y003562D01*
X028690Y003547D01*
X028710Y003529D01*
X028726Y003509D01*
X028739Y003486D01*
X028749Y003461D01*
X028755Y003435D01*
X028757Y003409D01*
X028755Y003383D01*
X028749Y003357D01*
X028739Y003332D01*
X028726Y003309D01*
X028710Y003289D01*
X028690Y003271D01*
X028668Y003256D01*
X028645Y003244D01*
X028619Y003236D01*
X028593Y003232D01*
X028567Y003232D01*
X028541Y003236D01*
X028515Y003244D01*
X028491Y003256D01*
X028470Y003271D01*
X028450Y003289D01*
X028434Y003309D01*
X028421Y003332D01*
X028411Y003357D01*
X028405Y003383D01*
X028403Y003409D01*
X028796Y017878D02*
X028798Y017914D01*
X028804Y017950D01*
X028814Y017985D01*
X028827Y018019D01*
X028844Y018051D01*
X028864Y018081D01*
X028888Y018108D01*
X028914Y018133D01*
X028943Y018155D01*
X028974Y018174D01*
X029007Y018189D01*
X029041Y018201D01*
X029077Y018209D01*
X029113Y018213D01*
X029149Y018213D01*
X029185Y018209D01*
X029221Y018201D01*
X029255Y018189D01*
X029288Y018174D01*
X029319Y018155D01*
X029348Y018133D01*
X029374Y018108D01*
X029398Y018081D01*
X029418Y018051D01*
X029435Y018019D01*
X029448Y017985D01*
X029458Y017950D01*
X029464Y017914D01*
X029466Y017878D01*
X029464Y017842D01*
X029458Y017806D01*
X029448Y017771D01*
X029435Y017737D01*
X029418Y017705D01*
X029398Y017675D01*
X029374Y017648D01*
X029348Y017623D01*
X029319Y017601D01*
X029288Y017582D01*
X029255Y017567D01*
X029221Y017555D01*
X029185Y017547D01*
X029149Y017543D01*
X029113Y017543D01*
X029077Y017547D01*
X029041Y017555D01*
X029007Y017567D01*
X028974Y017582D01*
X028943Y017601D01*
X028914Y017623D01*
X028888Y017648D01*
X028864Y017675D01*
X028844Y017705D01*
X028827Y017737D01*
X028814Y017771D01*
X028804Y017806D01*
X028798Y017842D01*
X028796Y017878D01*
X026040Y017878D02*
X026042Y017914D01*
X026048Y017950D01*
X026058Y017985D01*
X026071Y018019D01*
X026088Y018051D01*
X026108Y018081D01*
X026132Y018108D01*
X026158Y018133D01*
X026187Y018155D01*
X026218Y018174D01*
X026251Y018189D01*
X026285Y018201D01*
X026321Y018209D01*
X026357Y018213D01*
X026393Y018213D01*
X026429Y018209D01*
X026465Y018201D01*
X026499Y018189D01*
X026532Y018174D01*
X026563Y018155D01*
X026592Y018133D01*
X026618Y018108D01*
X026642Y018081D01*
X026662Y018051D01*
X026679Y018019D01*
X026692Y017985D01*
X026702Y017950D01*
X026708Y017914D01*
X026710Y017878D01*
X026708Y017842D01*
X026702Y017806D01*
X026692Y017771D01*
X026679Y017737D01*
X026662Y017705D01*
X026642Y017675D01*
X026618Y017648D01*
X026592Y017623D01*
X026563Y017601D01*
X026532Y017582D01*
X026499Y017567D01*
X026465Y017555D01*
X026429Y017547D01*
X026393Y017543D01*
X026357Y017543D01*
X026321Y017547D01*
X026285Y017555D01*
X026251Y017567D01*
X026218Y017582D01*
X026187Y017601D01*
X026158Y017623D01*
X026132Y017648D01*
X026108Y017675D01*
X026088Y017705D01*
X026071Y017737D01*
X026058Y017771D01*
X026048Y017806D01*
X026042Y017842D01*
X026040Y017878D01*
X026040Y025752D02*
X026042Y025788D01*
X026048Y025824D01*
X026058Y025859D01*
X026071Y025893D01*
X026088Y025925D01*
X026108Y025955D01*
X026132Y025982D01*
X026158Y026007D01*
X026187Y026029D01*
X026218Y026048D01*
X026251Y026063D01*
X026285Y026075D01*
X026321Y026083D01*
X026357Y026087D01*
X026393Y026087D01*
X026429Y026083D01*
X026465Y026075D01*
X026499Y026063D01*
X026532Y026048D01*
X026563Y026029D01*
X026592Y026007D01*
X026618Y025982D01*
X026642Y025955D01*
X026662Y025925D01*
X026679Y025893D01*
X026692Y025859D01*
X026702Y025824D01*
X026708Y025788D01*
X026710Y025752D01*
X026708Y025716D01*
X026702Y025680D01*
X026692Y025645D01*
X026679Y025611D01*
X026662Y025579D01*
X026642Y025549D01*
X026618Y025522D01*
X026592Y025497D01*
X026563Y025475D01*
X026532Y025456D01*
X026499Y025441D01*
X026465Y025429D01*
X026429Y025421D01*
X026393Y025417D01*
X026357Y025417D01*
X026321Y025421D01*
X026285Y025429D01*
X026251Y025441D01*
X026218Y025456D01*
X026187Y025475D01*
X026158Y025497D01*
X026132Y025522D01*
X026108Y025549D01*
X026088Y025579D01*
X026071Y025611D01*
X026058Y025645D01*
X026048Y025680D01*
X026042Y025716D01*
X026040Y025752D01*
X028796Y025752D02*
X028798Y025788D01*
X028804Y025824D01*
X028814Y025859D01*
X028827Y025893D01*
X028844Y025925D01*
X028864Y025955D01*
X028888Y025982D01*
X028914Y026007D01*
X028943Y026029D01*
X028974Y026048D01*
X029007Y026063D01*
X029041Y026075D01*
X029077Y026083D01*
X029113Y026087D01*
X029149Y026087D01*
X029185Y026083D01*
X029221Y026075D01*
X029255Y026063D01*
X029288Y026048D01*
X029319Y026029D01*
X029348Y026007D01*
X029374Y025982D01*
X029398Y025955D01*
X029418Y025925D01*
X029435Y025893D01*
X029448Y025859D01*
X029458Y025824D01*
X029464Y025788D01*
X029466Y025752D01*
X029464Y025716D01*
X029458Y025680D01*
X029448Y025645D01*
X029435Y025611D01*
X029418Y025579D01*
X029398Y025549D01*
X029374Y025522D01*
X029348Y025497D01*
X029319Y025475D01*
X029288Y025456D01*
X029255Y025441D01*
X029221Y025429D01*
X029185Y025421D01*
X029149Y025417D01*
X029113Y025417D01*
X029077Y025421D01*
X029041Y025429D01*
X029007Y025441D01*
X028974Y025456D01*
X028943Y025475D01*
X028914Y025497D01*
X028888Y025522D01*
X028864Y025549D01*
X028844Y025579D01*
X028827Y025611D01*
X028814Y025645D01*
X028804Y025680D01*
X028798Y025716D01*
X028796Y025752D01*
X028796Y033626D02*
X028798Y033662D01*
X028804Y033698D01*
X028814Y033733D01*
X028827Y033767D01*
X028844Y033799D01*
X028864Y033829D01*
X028888Y033856D01*
X028914Y033881D01*
X028943Y033903D01*
X028974Y033922D01*
X029007Y033937D01*
X029041Y033949D01*
X029077Y033957D01*
X029113Y033961D01*
X029149Y033961D01*
X029185Y033957D01*
X029221Y033949D01*
X029255Y033937D01*
X029288Y033922D01*
X029319Y033903D01*
X029348Y033881D01*
X029374Y033856D01*
X029398Y033829D01*
X029418Y033799D01*
X029435Y033767D01*
X029448Y033733D01*
X029458Y033698D01*
X029464Y033662D01*
X029466Y033626D01*
X029464Y033590D01*
X029458Y033554D01*
X029448Y033519D01*
X029435Y033485D01*
X029418Y033453D01*
X029398Y033423D01*
X029374Y033396D01*
X029348Y033371D01*
X029319Y033349D01*
X029288Y033330D01*
X029255Y033315D01*
X029221Y033303D01*
X029185Y033295D01*
X029149Y033291D01*
X029113Y033291D01*
X029077Y033295D01*
X029041Y033303D01*
X029007Y033315D01*
X028974Y033330D01*
X028943Y033349D01*
X028914Y033371D01*
X028888Y033396D01*
X028864Y033423D01*
X028844Y033453D01*
X028827Y033485D01*
X028814Y033519D01*
X028804Y033554D01*
X028798Y033590D01*
X028796Y033626D01*
X026040Y033626D02*
X026042Y033662D01*
X026048Y033698D01*
X026058Y033733D01*
X026071Y033767D01*
X026088Y033799D01*
X026108Y033829D01*
X026132Y033856D01*
X026158Y033881D01*
X026187Y033903D01*
X026218Y033922D01*
X026251Y033937D01*
X026285Y033949D01*
X026321Y033957D01*
X026357Y033961D01*
X026393Y033961D01*
X026429Y033957D01*
X026465Y033949D01*
X026499Y033937D01*
X026532Y033922D01*
X026563Y033903D01*
X026592Y033881D01*
X026618Y033856D01*
X026642Y033829D01*
X026662Y033799D01*
X026679Y033767D01*
X026692Y033733D01*
X026702Y033698D01*
X026708Y033662D01*
X026710Y033626D01*
X026708Y033590D01*
X026702Y033554D01*
X026692Y033519D01*
X026679Y033485D01*
X026662Y033453D01*
X026642Y033423D01*
X026618Y033396D01*
X026592Y033371D01*
X026563Y033349D01*
X026532Y033330D01*
X026499Y033315D01*
X026465Y033303D01*
X026429Y033295D01*
X026393Y033291D01*
X026357Y033291D01*
X026321Y033295D01*
X026285Y033303D01*
X026251Y033315D01*
X026218Y033330D01*
X026187Y033349D01*
X026158Y033371D01*
X026132Y033396D01*
X026108Y033423D01*
X026088Y033453D01*
X026071Y033485D01*
X026058Y033519D01*
X026048Y033554D01*
X026042Y033590D01*
X026040Y033626D01*
D11*
X024800Y032445D02*
X024800Y034807D01*
X030509Y034807D01*
X030509Y034610D01*
X031493Y034610D01*
X031493Y032642D01*
X030509Y032642D01*
X030509Y032445D01*
X024800Y032445D01*
X022300Y031598D02*
X022300Y033291D01*
X021060Y033291D01*
X020607Y032838D01*
X020607Y032051D01*
X021060Y031598D01*
X022300Y031598D01*
X022300Y033960D02*
X021060Y033960D01*
X020607Y034413D01*
X020607Y035201D01*
X021060Y035653D01*
X022300Y035653D01*
X022300Y033960D01*
X022103Y028370D02*
X020568Y028370D01*
X020017Y027819D01*
X020017Y026834D01*
X020568Y026283D01*
X022103Y026283D01*
X022103Y028370D01*
X024800Y026933D02*
X030509Y026933D01*
X030509Y026736D01*
X031493Y026736D01*
X031493Y024768D01*
X030509Y024768D01*
X030509Y024571D01*
X024800Y024571D01*
X024800Y026933D01*
X022103Y025220D02*
X022103Y023134D01*
X020568Y023134D01*
X020017Y023685D01*
X020017Y024669D01*
X020568Y025220D01*
X022103Y025220D01*
X023107Y021500D02*
X020666Y021500D01*
X019800Y020634D01*
X019800Y019059D01*
X020666Y018193D01*
X023107Y018193D01*
X023107Y021500D01*
X024800Y019059D02*
X030509Y019059D01*
X030509Y018862D01*
X031493Y018862D01*
X031493Y016894D01*
X030509Y016894D01*
X030509Y016697D01*
X024800Y016697D01*
X024800Y019059D01*
X023107Y017563D02*
X023107Y014256D01*
X020666Y014256D01*
X019800Y015122D01*
X019800Y016697D01*
X020666Y017563D01*
X023107Y017563D01*
X023875Y013606D02*
X030155Y013606D01*
X030155Y008153D01*
X023875Y008153D01*
X023875Y013606D01*
X024879Y012878D02*
X030785Y012878D01*
X030785Y008547D01*
X024879Y008547D01*
X024879Y012878D01*
X027399Y010712D02*
X027792Y011106D01*
X027399Y010712D02*
X027792Y010319D01*
X027399Y010712D02*
X028974Y010712D01*
X027556Y005614D02*
X027556Y002583D01*
X031100Y002583D01*
X031100Y005614D01*
X027556Y005614D01*
X021342Y005762D02*
X021342Y008262D01*
X019991Y008262D01*
X019991Y005762D01*
X021342Y005762D01*
X012202Y003449D02*
X012202Y002386D01*
X010411Y002386D01*
X010411Y003449D01*
X012202Y003449D01*
X010411Y003449D02*
X010233Y003449D01*
X010233Y002386D01*
X010411Y002386D01*
X009446Y002386D02*
X009446Y003449D01*
X009269Y003449D01*
X009269Y002386D01*
X007477Y002386D01*
X007477Y003449D01*
X009269Y003449D01*
X009850Y003921D02*
X009850Y005063D01*
X010224Y005063D01*
X010224Y003921D01*
X009850Y003921D01*
X009446Y002386D02*
X009269Y002386D01*
X007387Y005067D02*
X006387Y005067D01*
X006387Y006067D01*
X007387Y006067D01*
X007387Y005067D01*
X007387Y007067D01*
X006387Y007067D01*
X006387Y005067D01*
X006387Y005109D02*
X007387Y005109D01*
X007387Y005188D02*
X006387Y005188D01*
X006387Y005267D02*
X007387Y005267D01*
X007387Y005345D02*
X006387Y005345D01*
X006387Y005424D02*
X007387Y005424D01*
X007387Y005502D02*
X006387Y005502D01*
X006387Y005581D02*
X007387Y005581D01*
X007387Y005659D02*
X006387Y005659D01*
X006387Y005738D02*
X007387Y005738D01*
X007387Y005816D02*
X006387Y005816D01*
X006387Y005895D02*
X007387Y005895D01*
X007387Y005973D02*
X006387Y005973D01*
X006387Y006052D02*
X007387Y006052D01*
X009637Y014374D02*
X009637Y018862D01*
X011539Y018862D01*
X011539Y014374D01*
X009637Y014374D01*
X009840Y021185D02*
X005076Y021185D01*
X005076Y026382D01*
X009840Y026382D01*
X009840Y021185D01*
X012989Y027917D02*
X012989Y028114D01*
X012989Y027917D02*
X013186Y027917D01*
X014761Y027917D02*
X014958Y027917D01*
X014958Y028114D01*
X014958Y029689D02*
X014958Y029886D01*
X014761Y029886D01*
X013186Y029886D02*
X012989Y029886D01*
X012989Y029689D01*
X013226Y033147D02*
X013226Y035049D01*
X008737Y035049D01*
X008737Y033147D01*
X013226Y033147D01*
X030509Y032642D02*
X030509Y034610D01*
X030509Y026736D02*
X030509Y024768D01*
X030509Y018862D02*
X030509Y016894D01*
D12*
X024407Y016736D02*
X024407Y016657D01*
X024013Y016657D01*
X024013Y016736D01*
X024407Y016736D01*
X024407Y019020D02*
X024013Y019020D01*
X024013Y019098D01*
X024407Y019098D01*
X024407Y019020D01*
X023855Y023980D02*
X023777Y023980D01*
X023777Y024374D01*
X023855Y024374D01*
X023855Y023980D01*
X023855Y024768D02*
X023777Y024768D01*
X023777Y025161D01*
X023855Y025161D01*
X023855Y024768D01*
X023855Y026342D02*
X023777Y026342D01*
X023777Y026736D01*
X023855Y026736D01*
X023855Y026342D01*
X023855Y027130D02*
X023777Y027130D01*
X023777Y027523D01*
X023855Y027523D01*
X023855Y027130D01*
X023855Y031460D02*
X023777Y031460D01*
X023777Y031854D01*
X023855Y031854D01*
X023855Y031460D01*
X023855Y033035D02*
X023777Y033035D01*
X023777Y033429D01*
X023855Y033429D01*
X023855Y033035D01*
X023855Y033823D02*
X023777Y033823D01*
X023777Y034216D01*
X023855Y034216D01*
X023855Y033823D01*
X023855Y035397D02*
X023777Y035397D01*
X023777Y035791D01*
X023855Y035791D01*
X023855Y035397D01*
X015903Y031697D02*
X015903Y031303D01*
X015824Y031303D01*
X015824Y031697D01*
X015903Y031697D01*
X015745Y029964D02*
X015351Y029964D01*
X015351Y029886D01*
X015745Y029886D01*
X015745Y029964D01*
X011651Y031067D02*
X011572Y031067D01*
X011572Y031460D01*
X011651Y031460D01*
X011651Y031067D01*
X011651Y031697D02*
X011572Y031697D01*
X011572Y032090D01*
X011651Y032090D01*
X011651Y031697D01*
X011021Y032327D02*
X011021Y032720D01*
X010942Y032720D01*
X010942Y032327D01*
X011021Y032327D01*
X012202Y024925D02*
X012281Y024925D01*
X012281Y024531D01*
X012202Y024531D01*
X012202Y024925D01*
X010974Y020409D02*
X010580Y020409D01*
X010580Y020331D01*
X010974Y020331D01*
X010974Y020409D01*
X013068Y019256D02*
X013068Y018862D01*
X013147Y018862D01*
X013147Y019256D01*
X013068Y019256D01*
X012359Y016657D02*
X011966Y016657D01*
X011966Y016579D01*
X012359Y016579D01*
X012359Y016657D01*
X014879Y014846D02*
X014879Y014453D01*
X014958Y014453D01*
X014958Y014846D01*
X014879Y014846D01*
X016139Y014846D02*
X016139Y014453D01*
X016218Y014453D01*
X016218Y014846D01*
X016139Y014846D01*
X014800Y013271D02*
X014800Y013193D01*
X014407Y013193D01*
X014407Y013271D01*
X014800Y013271D01*
X016926Y013193D02*
X016926Y013114D01*
X017320Y013114D01*
X017320Y013193D01*
X016926Y013193D01*
X017556Y013193D02*
X017556Y013114D01*
X017950Y013114D01*
X017950Y013193D01*
X017556Y013193D01*
X019918Y010909D02*
X019918Y010516D01*
X019997Y010516D01*
X019997Y010909D01*
X019918Y010909D01*
X021273Y012079D02*
X021273Y012129D01*
X021523Y012129D01*
X021823Y011829D01*
X021823Y011879D01*
X021573Y012129D01*
X021623Y012129D01*
X021823Y011929D01*
X021823Y011979D01*
X021673Y012129D01*
X021723Y012129D01*
X021823Y012029D01*
X021823Y012079D01*
X021773Y012129D01*
X021823Y012129D01*
X021823Y012079D01*
X021823Y012029D02*
X021823Y011979D01*
X021823Y011929D02*
X021823Y011879D01*
X021823Y011829D02*
X021823Y011579D01*
X021773Y011579D01*
X021773Y012129D02*
X021723Y012129D01*
X021673Y012129D02*
X021623Y012129D01*
X021573Y012129D02*
X021523Y012129D01*
X022832Y012169D02*
X022832Y012563D01*
X022911Y012563D01*
X022911Y012169D01*
X022832Y012169D01*
X022832Y011933D02*
X022911Y011933D01*
X022911Y011539D01*
X022832Y011539D01*
X022832Y011933D01*
X022832Y011303D02*
X022911Y011303D01*
X022911Y010909D01*
X022832Y010909D01*
X022832Y011303D01*
X022832Y009413D02*
X022911Y009413D01*
X022911Y009020D01*
X022832Y009020D01*
X022832Y009413D01*
X022832Y008783D02*
X022911Y008783D01*
X022911Y008390D01*
X022832Y008390D01*
X022832Y008783D01*
X022832Y008153D02*
X022911Y008153D01*
X022911Y007760D01*
X022832Y007760D01*
X022832Y008153D01*
X021100Y005476D02*
X021100Y005083D01*
X021021Y005083D01*
X021021Y005476D01*
X021100Y005476D01*
X019840Y005476D02*
X019840Y005083D01*
X019761Y005083D01*
X019761Y005476D01*
X019840Y005476D01*
X018580Y005319D02*
X018501Y005319D01*
X018501Y005712D01*
X018580Y005712D01*
X018580Y005319D01*
X018580Y005949D02*
X018501Y005949D01*
X018501Y006342D01*
X018580Y006342D01*
X018580Y005949D01*
X018580Y006579D02*
X018501Y006579D01*
X018501Y006972D01*
X018580Y006972D01*
X018580Y006579D01*
X018580Y007209D02*
X018501Y007209D01*
X018501Y007602D01*
X018580Y007602D01*
X018580Y007209D01*
X018580Y007838D02*
X018501Y007838D01*
X018501Y008232D01*
X018580Y008232D01*
X018580Y007838D01*
X018580Y008468D02*
X018501Y008468D01*
X018501Y008862D01*
X018580Y008862D01*
X018580Y008468D01*
X019289Y009020D02*
X019289Y009098D01*
X019682Y009098D01*
X019682Y009020D01*
X019289Y009020D01*
X026218Y005083D02*
X026218Y004689D01*
X026296Y004689D01*
X026296Y005083D01*
X026218Y005083D01*
X026218Y004453D02*
X026296Y004453D01*
X026296Y004059D01*
X026218Y004059D01*
X026218Y004453D01*
X026218Y003823D02*
X026296Y003823D01*
X026296Y003429D01*
X026218Y003429D01*
X026218Y003823D01*
X011021Y006421D02*
X010942Y006421D01*
X010942Y006815D01*
X011021Y006815D01*
X011021Y006421D01*
X008344Y009649D02*
X007950Y009649D01*
X007950Y009728D01*
X008344Y009728D01*
X008344Y009649D01*
X006781Y011004D02*
X006731Y011004D01*
X006731Y011254D01*
X007031Y011554D01*
X006981Y011554D01*
X006731Y011304D01*
X006731Y011354D01*
X006931Y011554D01*
X006881Y011554D01*
X006731Y011404D01*
X006731Y011454D01*
X006831Y011554D01*
X006781Y011554D01*
X006731Y011504D01*
X006731Y011554D01*
X006781Y011554D01*
X006831Y011554D02*
X006881Y011554D01*
X006931Y011554D02*
X006981Y011554D01*
X007031Y011554D02*
X007281Y011554D01*
X007281Y011504D01*
X006731Y011504D02*
X006731Y011454D01*
X006731Y011404D02*
X006731Y011354D01*
X006731Y011304D02*
X006731Y011254D01*
D13*
X006781Y011254D02*
X007031Y011504D01*
X007281Y011504D01*
X007531Y011504D01*
X007781Y011254D01*
X007781Y008754D01*
X007531Y008504D01*
X007031Y008504D01*
X006781Y008754D01*
X006781Y011004D01*
X006781Y011254D01*
X006387Y005067D02*
X007387Y005067D01*
X015313Y016008D02*
X015313Y016158D01*
X016413Y016158D01*
X016463Y016158D01*
X016463Y019158D01*
X016461Y019175D01*
X016457Y019192D01*
X016450Y019208D01*
X016440Y019222D01*
X016427Y019235D01*
X016413Y019245D01*
X016397Y019252D01*
X016380Y019256D01*
X016363Y019258D01*
X015363Y019258D01*
X015346Y019256D01*
X015329Y019252D01*
X015313Y019245D01*
X015299Y019235D01*
X015286Y019222D01*
X015276Y019208D01*
X015269Y019192D01*
X015265Y019175D01*
X015263Y019158D01*
X015263Y016158D01*
X015313Y016158D01*
X015313Y016008D02*
X016413Y016008D01*
X016413Y016158D01*
X019023Y012079D02*
X018773Y011829D01*
X018773Y011329D01*
X019023Y011079D01*
X021523Y011079D01*
X021773Y011329D01*
X021773Y011579D01*
X021773Y011829D01*
X021523Y012079D01*
X021273Y012079D01*
X019023Y012079D01*
D14*
X016063Y015873D03*
X015663Y015873D03*
D15*
X015663Y015758D02*
X015663Y015658D01*
X015643Y015638D01*
X016063Y015658D02*
X016063Y015808D01*
X016063Y015658D02*
X016083Y015638D01*
D16*
X021523Y005739D02*
X021621Y005739D01*
X021622Y005738D02*
X021522Y005738D01*
X021521Y005737D02*
X021623Y005737D01*
X021624Y005736D02*
X021519Y005736D01*
X021518Y005735D02*
X021626Y005735D01*
X021627Y005734D02*
X021517Y005734D01*
X021516Y005733D02*
X021628Y005733D01*
X021629Y005732D02*
X021514Y005732D01*
X021513Y005731D02*
X021631Y005731D01*
X021632Y005730D02*
X021512Y005730D01*
X021511Y005729D02*
X021633Y005729D01*
X021634Y005729D02*
X021510Y005729D01*
X021508Y005728D02*
X021636Y005728D01*
X021637Y005727D02*
X021507Y005727D01*
X021506Y005726D02*
X021638Y005726D01*
X021639Y005725D02*
X021505Y005725D01*
X021503Y005724D02*
X021641Y005724D01*
X021642Y005723D02*
X021502Y005723D01*
X021501Y005722D02*
X021642Y005722D01*
X021643Y005721D02*
X021501Y005721D01*
X021500Y005720D02*
X021644Y005720D01*
X021645Y005719D02*
X021499Y005719D01*
X021499Y005718D02*
X021645Y005718D01*
X021646Y005717D02*
X021498Y005717D01*
X021497Y005716D02*
X021647Y005716D01*
X021647Y005715D02*
X021496Y005715D01*
X021496Y005714D02*
X021648Y005714D01*
X021649Y005713D02*
X021495Y005713D01*
X021494Y005712D02*
X021650Y005712D01*
X021650Y005711D02*
X021494Y005711D01*
X021493Y005711D02*
X021651Y005711D01*
X021652Y005710D02*
X021492Y005710D01*
X021491Y005709D02*
X021653Y005709D01*
X021653Y005708D02*
X021491Y005708D01*
X021490Y005707D02*
X021654Y005707D01*
X021655Y005706D02*
X021489Y005706D01*
X021488Y005705D02*
X021655Y005705D01*
X021656Y005704D02*
X021488Y005704D01*
X021487Y005703D02*
X021657Y005703D01*
X021657Y005702D02*
X021486Y005702D01*
X021486Y005701D02*
X021658Y005701D01*
X021658Y005700D02*
X021486Y005700D01*
X021485Y005699D02*
X021659Y005699D01*
X021659Y005698D02*
X021485Y005698D01*
X021485Y005697D02*
X021659Y005697D01*
X021660Y005696D02*
X021484Y005696D01*
X021484Y005695D02*
X021660Y005695D01*
X021661Y005694D02*
X021483Y005694D01*
X021661Y005694D01*
X021661Y005693D02*
X021483Y005693D01*
X021482Y005692D02*
X021662Y005692D01*
X021662Y005691D02*
X021482Y005691D01*
X021481Y005690D02*
X021663Y005690D01*
X021663Y005689D02*
X021481Y005689D01*
X021481Y005688D02*
X021663Y005688D01*
X021664Y005687D02*
X021480Y005687D01*
X021480Y005686D02*
X021664Y005686D01*
X021664Y005685D02*
X021479Y005685D01*
X021479Y005684D02*
X021665Y005684D01*
X021665Y005683D02*
X021479Y005683D01*
X021478Y005682D02*
X021666Y005682D01*
X021666Y005681D02*
X021478Y005681D01*
X021477Y005680D02*
X021666Y005680D01*
X021667Y005679D02*
X021477Y005679D01*
X021477Y005678D02*
X021667Y005678D01*
X021667Y005677D02*
X021477Y005677D01*
X021667Y005677D01*
X021667Y005676D02*
X021476Y005676D01*
X021476Y005675D02*
X021668Y005675D01*
X021668Y005674D02*
X021476Y005674D01*
X021476Y005673D02*
X021668Y005673D01*
X021668Y005672D02*
X021476Y005672D01*
X021476Y005671D02*
X021668Y005671D01*
X021668Y005670D02*
X021476Y005670D01*
X021476Y005669D02*
X021668Y005669D01*
X021668Y005668D02*
X021475Y005668D01*
X021475Y005667D02*
X021669Y005667D01*
X021669Y005666D02*
X021475Y005666D01*
X021475Y005665D02*
X021669Y005665D01*
X021669Y005664D02*
X021475Y005664D01*
X021475Y005663D02*
X021669Y005663D01*
X021669Y005662D02*
X021475Y005662D01*
X021475Y005661D02*
X021669Y005661D01*
X021669Y005660D02*
X021474Y005660D01*
X021670Y005660D01*
X021670Y005659D02*
X021474Y005659D01*
X021474Y005658D02*
X021670Y005658D01*
X021670Y005657D02*
X021474Y005657D01*
X021474Y005656D02*
X021670Y005656D01*
X021670Y005655D02*
X021474Y005655D01*
X021474Y005654D02*
X021670Y005654D01*
X021670Y005653D02*
X021474Y005653D01*
X021474Y005652D02*
X021670Y005652D01*
X021670Y005651D02*
X021474Y005651D01*
X021474Y005650D02*
X021670Y005650D01*
X021670Y005649D02*
X021474Y005649D01*
X021474Y005648D02*
X021670Y005648D01*
X021670Y005647D02*
X021474Y005647D01*
X021474Y005646D02*
X021669Y005646D01*
X021669Y005645D02*
X021475Y005645D01*
X021475Y005644D02*
X021669Y005644D01*
X021669Y005643D02*
X021475Y005643D01*
X021669Y005643D01*
X021669Y005642D02*
X021475Y005642D01*
X021475Y005641D02*
X021669Y005641D01*
X021669Y005640D02*
X021475Y005640D01*
X021475Y005639D02*
X021669Y005639D01*
X021668Y005638D02*
X021476Y005638D01*
X021476Y005637D02*
X021668Y005637D01*
X021668Y005636D02*
X021476Y005636D01*
X021476Y005635D02*
X021668Y005635D01*
X021668Y005634D02*
X021476Y005634D01*
X021476Y005633D02*
X021668Y005633D01*
X021668Y005632D02*
X021476Y005632D01*
X021476Y005631D02*
X021667Y005631D01*
X021667Y005630D02*
X021477Y005630D01*
X021477Y005629D02*
X021667Y005629D01*
X021667Y005628D02*
X021477Y005628D01*
X021477Y005627D02*
X021667Y005627D01*
X021666Y005626D02*
X021478Y005626D01*
X021666Y005626D01*
X021666Y005625D02*
X021478Y005625D01*
X021479Y005624D02*
X021665Y005624D01*
X021665Y005623D02*
X021479Y005623D01*
X021479Y005622D02*
X021664Y005622D01*
X021664Y005621D02*
X021480Y005621D01*
X021480Y005620D02*
X021664Y005620D01*
X021663Y005619D02*
X021481Y005619D01*
X021481Y005618D02*
X021663Y005618D01*
X021663Y005617D02*
X021481Y005617D01*
X021482Y005616D02*
X021662Y005616D01*
X021662Y005615D02*
X021482Y005615D01*
X021483Y005614D02*
X021661Y005614D01*
X021661Y005613D02*
X021483Y005613D01*
X021483Y005612D02*
X021661Y005612D01*
X021660Y005611D02*
X021484Y005611D01*
X021484Y005610D02*
X021660Y005610D01*
X021659Y005609D02*
X021485Y005609D01*
X021659Y005609D01*
X021659Y005608D02*
X021485Y005608D01*
X021486Y005607D02*
X021658Y005607D01*
X021658Y005606D02*
X021486Y005606D01*
X021487Y005605D02*
X021657Y005605D01*
X021657Y005604D02*
X021487Y005604D01*
X021488Y005603D02*
X021656Y005603D01*
X021655Y005602D02*
X021489Y005602D01*
X021489Y005601D02*
X021655Y005601D01*
X021654Y005600D02*
X021490Y005600D01*
X021491Y005599D02*
X021653Y005599D01*
X021653Y005598D02*
X021491Y005598D01*
X021492Y005597D02*
X021652Y005597D01*
X021651Y005596D02*
X021493Y005596D01*
X021494Y005595D02*
X021650Y005595D01*
X021650Y005594D02*
X021494Y005594D01*
X021495Y005593D02*
X021649Y005593D01*
X021648Y005592D02*
X021496Y005592D01*
X021496Y005591D02*
X021648Y005591D01*
X021647Y005591D02*
X021497Y005591D01*
X021498Y005590D02*
X021646Y005590D01*
X021645Y005589D02*
X021499Y005589D01*
X021499Y005588D02*
X021645Y005588D01*
X021644Y005587D02*
X021500Y005587D01*
X021501Y005586D02*
X021643Y005586D01*
X021642Y005585D02*
X021502Y005585D01*
X021502Y005584D02*
X021642Y005584D01*
X021641Y005583D02*
X021503Y005583D01*
X021505Y005582D02*
X021639Y005582D01*
X021638Y005581D02*
X021506Y005581D01*
X021507Y005580D02*
X021637Y005580D01*
X021636Y005579D02*
X021508Y005579D01*
X021510Y005578D02*
X021634Y005578D01*
X021633Y005577D02*
X021511Y005577D01*
X021512Y005576D02*
X021632Y005576D01*
X021631Y005575D02*
X021513Y005575D01*
X021514Y005574D02*
X021629Y005574D01*
X021628Y005574D02*
X021516Y005574D01*
X021517Y005573D02*
X021627Y005573D01*
X021626Y005572D02*
X021518Y005572D01*
X021519Y005571D02*
X021625Y005571D01*
X021623Y005570D02*
X021521Y005570D01*
X021522Y005569D02*
X021622Y005569D01*
X021621Y005568D02*
X021523Y005568D01*
X021526Y005567D02*
X021618Y005567D01*
X021616Y005566D02*
X021528Y005566D01*
X021530Y005565D02*
X021614Y005565D01*
X021611Y005564D02*
X021533Y005564D01*
X021535Y005563D02*
X021609Y005563D01*
X021607Y005562D02*
X021537Y005562D01*
X021539Y005561D02*
X021605Y005561D01*
X021602Y005560D02*
X021542Y005560D01*
X021544Y005559D02*
X021600Y005559D01*
X021598Y005558D02*
X021546Y005558D01*
X021553Y005557D02*
X021591Y005557D01*
X021584Y005557D02*
X021560Y005557D01*
X021567Y005556D02*
X021577Y005556D01*
X021618Y005740D02*
X021526Y005740D01*
X021528Y005741D02*
X021616Y005741D01*
X021614Y005742D02*
X021530Y005742D01*
X021533Y005743D02*
X021611Y005743D01*
X021609Y005744D02*
X021535Y005744D01*
X021537Y005745D02*
X021607Y005745D01*
X021605Y005746D02*
X021539Y005746D01*
X021542Y005746D02*
X021602Y005746D01*
X021600Y005747D02*
X021544Y005747D01*
X021546Y005748D02*
X021598Y005748D01*
X021591Y005749D02*
X021553Y005749D01*
X021560Y005750D02*
X021584Y005750D01*
X021577Y005751D02*
X021567Y005751D01*
X010664Y003843D02*
X010512Y003843D01*
X010664Y003843D01*
X010664Y003842D02*
X010511Y003842D01*
X010511Y003841D02*
X010664Y003841D01*
X010664Y003840D02*
X010511Y003840D01*
X010511Y003839D02*
X010664Y003839D01*
X010664Y003838D02*
X010511Y003838D01*
X010511Y003837D02*
X010665Y003837D01*
X010665Y003836D02*
X010511Y003836D01*
X010511Y003835D02*
X010665Y003835D01*
X010665Y003834D02*
X010510Y003834D01*
X010510Y003833D02*
X010665Y003833D01*
X010665Y003832D02*
X010510Y003832D01*
X010510Y003831D02*
X010665Y003831D01*
X010665Y003830D02*
X010510Y003830D01*
X010510Y003829D02*
X010666Y003829D01*
X010666Y003828D02*
X010510Y003828D01*
X010510Y003827D02*
X010666Y003827D01*
X010666Y003826D02*
X010509Y003826D01*
X010666Y003826D01*
X010666Y003825D02*
X010509Y003825D01*
X010509Y003824D02*
X010666Y003824D01*
X010666Y003823D02*
X010509Y003823D01*
X010509Y003822D02*
X010666Y003822D01*
X010666Y003821D02*
X010509Y003821D01*
X010509Y003820D02*
X010666Y003820D01*
X010666Y003819D02*
X010509Y003819D01*
X010510Y003818D02*
X010666Y003818D01*
X010666Y003817D02*
X010510Y003817D01*
X010510Y003816D02*
X010666Y003816D01*
X010665Y003815D02*
X010510Y003815D01*
X010510Y003814D02*
X010665Y003814D01*
X010665Y003813D02*
X010510Y003813D01*
X010510Y003812D02*
X010665Y003812D01*
X010665Y003811D02*
X010510Y003811D01*
X010511Y003810D02*
X010665Y003810D01*
X010665Y003809D02*
X010511Y003809D01*
X010665Y003809D01*
X010664Y003808D02*
X010511Y003808D01*
X010511Y003807D02*
X010664Y003807D01*
X010664Y003806D02*
X010511Y003806D01*
X010511Y003805D02*
X010664Y003805D01*
X010664Y003804D02*
X010511Y003804D01*
X010512Y003803D02*
X010664Y003803D01*
X010664Y003802D02*
X010512Y003802D01*
X010512Y003801D02*
X010663Y003801D01*
X010663Y003800D02*
X010513Y003800D01*
X010513Y003799D02*
X010662Y003799D01*
X010662Y003798D02*
X010513Y003798D01*
X010514Y003797D02*
X010662Y003797D01*
X010661Y003796D02*
X010514Y003796D01*
X010515Y003795D02*
X010661Y003795D01*
X010661Y003794D02*
X010515Y003794D01*
X010515Y003793D02*
X010660Y003793D01*
X010660Y003792D02*
X010516Y003792D01*
X010516Y003791D02*
X010659Y003791D01*
X010517Y003791D01*
X010517Y003790D02*
X010659Y003790D01*
X010658Y003789D02*
X010517Y003789D01*
X010518Y003788D02*
X010658Y003788D01*
X010657Y003787D02*
X010518Y003787D01*
X010519Y003786D02*
X010657Y003786D01*
X010657Y003785D02*
X010519Y003785D01*
X010519Y003784D02*
X010656Y003784D01*
X010656Y003783D02*
X010520Y003783D01*
X010521Y003782D02*
X010655Y003782D01*
X010654Y003781D02*
X010521Y003781D01*
X010522Y003780D02*
X010654Y003780D01*
X010653Y003779D02*
X010523Y003779D01*
X010523Y003778D02*
X010652Y003778D01*
X010651Y003777D02*
X010524Y003777D01*
X010525Y003776D02*
X010651Y003776D01*
X010650Y003775D02*
X010526Y003775D01*
X010526Y003774D02*
X010649Y003774D01*
X010648Y003774D02*
X010527Y003774D01*
X010528Y003773D02*
X010648Y003773D01*
X010647Y003772D02*
X010529Y003772D01*
X010529Y003771D02*
X010646Y003771D01*
X010646Y003770D02*
X010530Y003770D01*
X010531Y003769D02*
X010645Y003769D01*
X010644Y003768D02*
X010531Y003768D01*
X010532Y003767D02*
X010643Y003767D01*
X010642Y003766D02*
X010533Y003766D01*
X010535Y003765D02*
X010641Y003765D01*
X010640Y003764D02*
X010536Y003764D01*
X010537Y003763D02*
X010638Y003763D01*
X010637Y003762D02*
X010538Y003762D01*
X010540Y003761D02*
X010636Y003761D01*
X010635Y003760D02*
X010541Y003760D01*
X010542Y003759D02*
X010633Y003759D01*
X010632Y003758D02*
X010543Y003758D01*
X010544Y003757D02*
X010631Y003757D01*
X010630Y003757D02*
X010546Y003757D01*
X010547Y003756D02*
X010629Y003756D01*
X010627Y003755D02*
X010548Y003755D01*
X010550Y003754D02*
X010625Y003754D01*
X010623Y003753D02*
X010553Y003753D01*
X010555Y003752D02*
X010621Y003752D01*
X010618Y003751D02*
X010557Y003751D01*
X010559Y003750D02*
X010616Y003750D01*
X010614Y003749D02*
X010562Y003749D01*
X010564Y003748D02*
X010612Y003748D01*
X010609Y003747D02*
X010566Y003747D01*
X010571Y003746D02*
X010605Y003746D01*
X010597Y003745D02*
X010578Y003745D01*
X010585Y003744D02*
X010590Y003744D01*
X010663Y003844D02*
X010512Y003844D01*
X010513Y003845D02*
X010663Y003845D01*
X010662Y003846D02*
X010513Y003846D01*
X010513Y003847D02*
X010662Y003847D01*
X010662Y003848D02*
X010514Y003848D01*
X010514Y003849D02*
X010661Y003849D01*
X010661Y003850D02*
X010515Y003850D01*
X010515Y003851D02*
X010660Y003851D01*
X010660Y003852D02*
X010515Y003852D01*
X010516Y003853D02*
X010660Y003853D01*
X010659Y003854D02*
X010516Y003854D01*
X010516Y003855D02*
X010659Y003855D01*
X010659Y003856D02*
X010517Y003856D01*
X010517Y003857D02*
X010658Y003857D01*
X010658Y003858D02*
X010518Y003858D01*
X010518Y003859D02*
X010657Y003859D01*
X010657Y003860D02*
X010518Y003860D01*
X010519Y003860D02*
X010657Y003860D01*
X010656Y003861D02*
X010519Y003861D01*
X010520Y003862D02*
X010656Y003862D01*
X010655Y003863D02*
X010520Y003863D01*
X010521Y003864D02*
X010654Y003864D01*
X010653Y003865D02*
X010522Y003865D01*
X010523Y003866D02*
X010653Y003866D01*
X010652Y003867D02*
X010523Y003867D01*
X010524Y003868D02*
X010651Y003868D01*
X010651Y003869D02*
X010525Y003869D01*
X010526Y003870D02*
X010650Y003870D01*
X010649Y003871D02*
X010526Y003871D01*
X010527Y003872D02*
X010648Y003872D01*
X010648Y003873D02*
X010528Y003873D01*
X010528Y003874D02*
X010647Y003874D01*
X010646Y003875D02*
X010529Y003875D01*
X010530Y003876D02*
X010645Y003876D01*
X010645Y003877D02*
X010531Y003877D01*
X010644Y003877D01*
X010643Y003878D02*
X010532Y003878D01*
X010533Y003879D02*
X010642Y003879D01*
X010641Y003880D02*
X010535Y003880D01*
X010536Y003881D02*
X010640Y003881D01*
X010638Y003882D02*
X010537Y003882D01*
X010538Y003883D02*
X010637Y003883D01*
X010636Y003884D02*
X010540Y003884D01*
X010541Y003885D02*
X010635Y003885D01*
X010633Y003886D02*
X010542Y003886D01*
X010543Y003887D02*
X010632Y003887D01*
X010631Y003888D02*
X010544Y003888D01*
X010546Y003889D02*
X010630Y003889D01*
X010629Y003890D02*
X010547Y003890D01*
X010548Y003891D02*
X010627Y003891D01*
X010625Y003892D02*
X010550Y003892D01*
X010553Y003893D02*
X010623Y003893D01*
X010621Y003894D02*
X010555Y003894D01*
X010557Y003894D02*
X010618Y003894D01*
X010616Y003895D02*
X010559Y003895D01*
X010562Y003896D02*
X010614Y003896D01*
X010611Y003897D02*
X010564Y003897D01*
X010566Y003898D02*
X010609Y003898D01*
X010604Y003899D02*
X010571Y003899D01*
X010578Y003900D02*
X010597Y003900D01*
X010590Y003901D02*
X010585Y003901D01*
D17*
X015233Y019846D02*
X017596Y019846D01*
X017596Y022209D01*
X015233Y022209D01*
X015233Y019846D01*
D18*
X014997Y011421D02*
X011375Y011421D01*
X011375Y007799D01*
X014997Y007799D01*
X014997Y011421D01*
D19*
X014918Y011638D03*
D20*
X012792Y029492D03*
M02*
