G75*
G70*
%OFA0B0*%
%FSLAX24Y24*%
%IPPOS*%
%LPD*%
%AMOC8*
5,1,8,0,0,1.08239X$1,22.5*
%
%ADD10C,0.0520*%
%ADD11C,0.0690*%
%ADD12C,0.0330*%
%ADD13C,0.0560*%
%ADD14C,0.0098*%
D10*
X015363Y015358D03*
X016363Y015358D03*
D11*
X019273Y011579D03*
X020273Y011579D03*
X021273Y011579D03*
X007281Y011004D03*
X007281Y010004D03*
X007281Y009004D03*
D12*
X009013Y007484D03*
X009485Y007012D03*
X009249Y006460D03*
X008462Y005831D03*
X008855Y005122D03*
X008462Y004728D03*
X008383Y004098D03*
X007989Y004098D03*
X010037Y004492D03*
X011848Y004492D03*
X012241Y004098D03*
X011848Y003705D03*
X011690Y006618D03*
X010666Y007090D03*
X010194Y006933D03*
X012084Y008035D03*
X012556Y008035D03*
X012714Y008665D03*
X013265Y008350D03*
X013501Y007957D03*
X013029Y006618D03*
X015391Y007405D03*
X015863Y006618D03*
X015785Y005909D03*
X015312Y005437D03*
X015312Y004649D03*
X016572Y006775D03*
X016966Y007405D03*
X017517Y006775D03*
X017832Y005516D03*
X016414Y009059D03*
X016572Y009689D03*
X016178Y010397D03*
X016808Y010949D03*
X016572Y011815D03*
X016414Y012681D03*
X016257Y013390D03*
X015863Y013783D03*
X017123Y013941D03*
X017753Y013941D03*
X017438Y015988D03*
X014289Y015988D03*
X014367Y016697D03*
X013974Y017484D03*
X014367Y019059D03*
X012163Y019059D03*
X011769Y018193D03*
X012005Y021421D03*
X012477Y022366D03*
X012556Y023153D03*
X012635Y024098D03*
X011454Y024728D03*
X011611Y027563D03*
X010981Y027563D03*
X009879Y027957D03*
X009879Y029846D03*
X010981Y030240D03*
X011611Y030240D03*
X010824Y031264D03*
X010824Y031894D03*
X009407Y032130D03*
X012556Y032130D03*
X013344Y030240D03*
X013029Y029846D03*
X013474Y029401D03*
X013974Y029401D03*
X013974Y028901D03*
X013974Y028401D03*
X013474Y028401D03*
X013474Y028901D03*
X014474Y028901D03*
X014474Y028401D03*
X015470Y028350D03*
X015785Y028665D03*
X016336Y027799D03*
X016966Y027799D03*
X018068Y028193D03*
X019879Y028114D03*
X019879Y024964D03*
X018147Y021421D03*
X014682Y021421D03*
X014918Y025201D03*
X015312Y026303D03*
X015312Y026933D03*
X014474Y029401D03*
X016336Y030476D03*
X016572Y030870D03*
X016966Y030476D03*
X016572Y031500D03*
X024131Y026146D03*
X024525Y026539D03*
X024131Y025358D03*
X024525Y024964D03*
X029013Y027248D03*
X029564Y027878D03*
X029564Y026539D03*
X024525Y032523D03*
X024525Y033232D03*
X024525Y034020D03*
X024525Y034728D03*
X029013Y035122D03*
X029564Y035752D03*
X029564Y034413D03*
X029564Y020004D03*
X029013Y019374D03*
X029564Y018665D03*
X029643Y013941D03*
X029328Y013311D03*
X024761Y011972D03*
X024525Y011579D03*
X024761Y011106D03*
X024525Y010712D03*
X024761Y010240D03*
X024367Y009768D03*
X024761Y009374D03*
X024525Y008980D03*
X023580Y009846D03*
X021454Y008350D03*
X022241Y007012D03*
X022241Y006539D03*
X022635Y005279D03*
X024446Y002366D03*
X024918Y002366D03*
X027044Y004964D03*
X027044Y005516D03*
X026572Y005358D03*
X025627Y007799D03*
X028068Y007799D03*
X029328Y007799D03*
X029879Y007799D03*
X024446Y012523D03*
X023974Y012996D03*
X023816Y017012D03*
X024210Y017405D03*
X024603Y017012D03*
X024210Y018350D03*
X023816Y018744D03*
X024603Y018744D03*
X018619Y010319D03*
X017832Y010004D03*
X018383Y009374D03*
X014840Y009138D03*
X014603Y009610D03*
X014840Y010791D03*
X013580Y011185D03*
X012635Y011264D03*
X011533Y010949D03*
X011533Y010319D03*
X010194Y011894D03*
X009800Y011500D03*
X012714Y012760D03*
X013186Y014413D03*
X012792Y014807D03*
X011769Y015043D03*
X014603Y012445D03*
X007832Y023232D03*
X007832Y024413D03*
X006651Y024413D03*
X006651Y023232D03*
D13*
X006887Y006567D03*
X006887Y005567D03*
D14*
X005168Y000410D02*
X005168Y037314D01*
X030260Y037314D01*
X030260Y000410D01*
X005168Y000410D01*
X005168Y000452D02*
X030260Y000452D01*
X030260Y000549D02*
X005168Y000549D01*
X005168Y000646D02*
X030260Y000646D01*
X030260Y000743D02*
X005168Y000743D01*
X005168Y000840D02*
X030260Y000840D01*
X030260Y000937D02*
X005168Y000937D01*
X005168Y001034D02*
X030260Y001034D01*
X030260Y001131D02*
X005168Y001131D01*
X005168Y001228D02*
X030260Y001228D01*
X030260Y001325D02*
X005168Y001325D01*
X005168Y001422D02*
X030260Y001422D01*
X030260Y001519D02*
X005168Y001519D01*
X005168Y001616D02*
X030260Y001616D01*
X030260Y001713D02*
X005168Y001713D01*
X005168Y001810D02*
X030260Y001810D01*
X030260Y001907D02*
X005168Y001907D01*
X005168Y002004D02*
X030260Y002004D01*
X030260Y002101D02*
X025043Y002101D01*
X025084Y002118D02*
X025167Y002200D01*
X025211Y002308D01*
X025211Y002424D01*
X025167Y002532D01*
X025084Y002614D01*
X024977Y002659D01*
X024860Y002659D01*
X024752Y002614D01*
X024682Y002544D01*
X024612Y002614D01*
X024504Y002659D01*
X024388Y002659D01*
X024280Y002614D01*
X024198Y002532D01*
X024153Y002424D01*
X024153Y002308D01*
X024198Y002200D01*
X024280Y002118D01*
X024388Y002073D01*
X024504Y002073D01*
X024612Y002118D01*
X024682Y002188D01*
X024752Y002118D01*
X024860Y002073D01*
X024977Y002073D01*
X025084Y002118D01*
X025164Y002198D02*
X030260Y002198D01*
X030260Y002295D02*
X025206Y002295D01*
X025211Y002392D02*
X030260Y002392D01*
X030260Y002489D02*
X025185Y002489D01*
X025113Y002585D02*
X030260Y002585D01*
X030260Y002682D02*
X005168Y002682D01*
X005168Y002585D02*
X024251Y002585D01*
X024180Y002489D02*
X005168Y002489D01*
X005168Y002392D02*
X024153Y002392D01*
X024158Y002295D02*
X005168Y002295D01*
X005168Y002198D02*
X024200Y002198D01*
X024321Y002101D02*
X005168Y002101D01*
X005168Y002779D02*
X030260Y002779D01*
X030260Y002876D02*
X005168Y002876D01*
X005168Y002973D02*
X030260Y002973D01*
X030260Y003070D02*
X028844Y003070D01*
X028821Y003048D02*
X028941Y003168D01*
X029006Y003324D01*
X029006Y003494D01*
X028941Y003651D01*
X028821Y003771D01*
X028665Y003836D01*
X028495Y003836D01*
X028338Y003771D01*
X028218Y003651D01*
X028153Y003494D01*
X028153Y003324D01*
X028218Y003168D01*
X028338Y003048D01*
X028495Y002983D01*
X028665Y002983D01*
X028821Y003048D01*
X028941Y003167D02*
X030260Y003167D01*
X030260Y003264D02*
X028981Y003264D01*
X029006Y003361D02*
X030260Y003361D01*
X030260Y003458D02*
X029006Y003458D01*
X028981Y003555D02*
X030260Y003555D01*
X030260Y003652D02*
X028940Y003652D01*
X028843Y003749D02*
X030260Y003749D01*
X030260Y003846D02*
X012398Y003846D01*
X012407Y003850D02*
X012490Y003932D01*
X012534Y004040D01*
X030260Y004040D01*
X030260Y004137D02*
X012534Y004137D01*
X012534Y004157D02*
X012534Y004040D01*
X012494Y003943D02*
X030260Y003943D01*
X030260Y004234D02*
X012502Y004234D01*
X012490Y004264D02*
X012407Y004347D01*
X012300Y004391D01*
X012183Y004391D01*
X012110Y004361D01*
X012140Y004434D01*
X012140Y004550D01*
X012096Y004658D01*
X012013Y004740D01*
X011906Y004785D01*
X011789Y004785D01*
X011682Y004740D01*
X011599Y004658D01*
X011555Y004550D01*
X011555Y004434D01*
X011599Y004326D01*
X011682Y004244D01*
X011789Y004199D01*
X011906Y004199D01*
X011978Y004229D01*
X011948Y004157D01*
X011948Y004040D01*
X005168Y004040D01*
X005168Y004137D02*
X011948Y004137D01*
X011948Y004040D02*
X011978Y003967D01*
X011906Y003997D01*
X011789Y003997D01*
X011682Y003953D01*
X011599Y003870D01*
X011555Y003763D01*
X011555Y003646D01*
X011599Y003539D01*
X011682Y003456D01*
X011789Y003412D01*
X011906Y003412D01*
X012013Y003456D01*
X012096Y003539D01*
X012140Y003646D01*
X012140Y003763D01*
X012110Y003835D01*
X012183Y003805D01*
X012300Y003805D01*
X012407Y003850D01*
X012140Y003749D02*
X028317Y003749D01*
X028220Y003652D02*
X012140Y003652D01*
X012103Y003555D02*
X028179Y003555D01*
X028153Y003458D02*
X012015Y003458D01*
X011680Y003458D02*
X005168Y003458D01*
X005168Y003361D02*
X028153Y003361D01*
X028178Y003264D02*
X005168Y003264D01*
X005168Y003167D02*
X028219Y003167D01*
X028316Y003070D02*
X005168Y003070D01*
X005168Y003555D02*
X011592Y003555D01*
X011555Y003652D02*
X005168Y003652D01*
X005168Y003749D02*
X011555Y003749D01*
X011589Y003846D02*
X005168Y003846D01*
X005168Y003943D02*
X011672Y003943D01*
X011705Y004234D02*
X010179Y004234D01*
X010202Y004244D02*
X010285Y004326D01*
X010329Y004434D01*
X010329Y004550D01*
X010285Y004658D01*
X010202Y004740D01*
X010095Y004785D01*
X009978Y004785D01*
X009871Y004740D01*
X009788Y004658D01*
X009744Y004550D01*
X009744Y004434D01*
X009788Y004326D01*
X009871Y004244D01*
X009978Y004199D01*
X010095Y004199D01*
X010202Y004244D01*
X010287Y004331D02*
X011597Y004331D01*
X011557Y004428D02*
X010327Y004428D01*
X010329Y004525D02*
X011555Y004525D01*
X011584Y004622D02*
X010300Y004622D01*
X010224Y004719D02*
X011660Y004719D01*
X012035Y004719D02*
X015024Y004719D01*
X015019Y004708D02*
X015019Y004591D01*
X015064Y004484D01*
X015146Y004401D01*
X015254Y004356D01*
X015370Y004356D01*
X015478Y004401D01*
X015560Y004484D01*
X015605Y004591D01*
X015605Y004708D01*
X015560Y004815D01*
X015478Y004898D01*
X015370Y004942D01*
X015254Y004942D01*
X015146Y004898D01*
X015064Y004815D01*
X015019Y004708D01*
X015019Y004622D02*
X012111Y004622D01*
X012140Y004525D02*
X015047Y004525D01*
X015119Y004428D02*
X012138Y004428D01*
X012423Y004331D02*
X030260Y004331D01*
X030260Y004428D02*
X028823Y004428D01*
X028821Y004426D02*
X028941Y004546D01*
X029006Y004702D01*
X029006Y004872D01*
X028941Y005029D01*
X028821Y005149D01*
X028665Y005214D01*
X028495Y005214D01*
X028338Y005149D01*
X028218Y005029D01*
X028153Y004872D01*
X028153Y004702D01*
X028218Y004546D01*
X028338Y004426D01*
X028495Y004361D01*
X028665Y004361D01*
X028821Y004426D01*
X028920Y004525D02*
X030260Y004525D01*
X030260Y004622D02*
X028973Y004622D01*
X029006Y004719D02*
X030260Y004719D01*
X030260Y004816D02*
X029006Y004816D01*
X028989Y004913D02*
X030260Y004913D01*
X030260Y005010D02*
X028949Y005010D01*
X028863Y005107D02*
X030260Y005107D01*
X030260Y005204D02*
X028689Y005204D01*
X028471Y005204D02*
X027219Y005204D01*
X027210Y005213D02*
X027144Y005240D01*
X027210Y005267D01*
X027293Y005350D01*
X027337Y005457D01*
X027337Y005574D01*
X027293Y005681D01*
X027210Y005764D01*
X027103Y005809D01*
X026986Y005809D01*
X026878Y005764D01*
X026796Y005681D01*
X026757Y005587D01*
X026738Y005606D01*
X026630Y005651D01*
X026514Y005651D01*
X026406Y005606D01*
X026324Y005524D01*
X026279Y005416D01*
X026279Y005300D01*
X026324Y005192D01*
X026406Y005110D01*
X026514Y005065D01*
X026630Y005065D01*
X026738Y005110D01*
X026820Y005192D01*
X026859Y005286D01*
X026878Y005267D01*
X026944Y005240D01*
X026878Y005213D01*
X026796Y005130D01*
X026751Y005023D01*
X026751Y004906D01*
X026796Y004798D01*
X026878Y004716D01*
X026986Y004671D01*
X027103Y004671D01*
X027210Y004716D01*
X027293Y004798D01*
X027337Y004906D01*
X027337Y005023D01*
X027293Y005130D01*
X027210Y005213D01*
X027244Y005301D02*
X030260Y005301D01*
X030260Y005398D02*
X027313Y005398D01*
X027337Y005495D02*
X030260Y005495D01*
X030260Y005591D02*
X027330Y005591D01*
X027286Y005688D02*
X030260Y005688D01*
X030260Y005785D02*
X027158Y005785D01*
X026930Y005785D02*
X017946Y005785D01*
X017998Y005764D02*
X017890Y005809D01*
X017774Y005809D01*
X017666Y005764D01*
X017583Y005681D01*
X017539Y005574D01*
X017539Y005457D01*
X017583Y005350D01*
X017666Y005267D01*
X017774Y005223D01*
X017890Y005223D01*
X017998Y005267D01*
X018080Y005350D01*
X018125Y005457D01*
X018125Y005574D01*
X018080Y005681D01*
X017998Y005764D01*
X018073Y005688D02*
X026803Y005688D01*
X026759Y005591D02*
X026753Y005591D01*
X026391Y005591D02*
X018117Y005591D01*
X018125Y005495D02*
X022436Y005495D01*
X022469Y005528D02*
X022387Y005445D01*
X022342Y005338D01*
X022342Y005221D01*
X022387Y005113D01*
X022469Y005031D01*
X022577Y004986D01*
X022693Y004986D01*
X022801Y005031D01*
X022883Y005113D01*
X022928Y005221D01*
X022928Y005338D01*
X022883Y005445D01*
X022801Y005528D01*
X022693Y005572D01*
X022577Y005572D01*
X022469Y005528D01*
X022367Y005398D02*
X018100Y005398D01*
X018031Y005301D02*
X022342Y005301D01*
X022349Y005204D02*
X015493Y005204D01*
X015478Y005189D02*
X015560Y005271D01*
X015605Y005379D01*
X015605Y005495D01*
X015560Y005603D01*
X015478Y005685D01*
X015370Y005730D01*
X015254Y005730D01*
X015146Y005685D01*
X015064Y005603D01*
X015019Y005495D01*
X015019Y005379D01*
X015064Y005271D01*
X015146Y005189D01*
X015254Y005144D01*
X015370Y005144D01*
X015478Y005189D01*
X015573Y005301D02*
X017633Y005301D01*
X017564Y005398D02*
X015605Y005398D01*
X015605Y005495D02*
X017539Y005495D01*
X017546Y005591D02*
X015565Y005591D01*
X015619Y005661D02*
X015726Y005616D01*
X015843Y005616D01*
X015950Y005661D01*
X016033Y005743D01*
X016077Y005851D01*
X016077Y005968D01*
X016033Y006075D01*
X015950Y006158D01*
X015843Y006202D01*
X015726Y006202D01*
X015619Y006158D01*
X015536Y006075D01*
X015492Y005968D01*
X015492Y005851D01*
X015536Y005743D01*
X015619Y005661D01*
X015591Y005688D02*
X015470Y005688D01*
X015519Y005785D02*
X008755Y005785D01*
X008755Y005772D02*
X008710Y005665D01*
X008628Y005582D01*
X008520Y005538D01*
X008403Y005538D01*
X008296Y005582D01*
X008213Y005665D01*
X008169Y005772D01*
X008169Y005889D01*
X008213Y005996D01*
X008296Y006079D01*
X008403Y006123D01*
X008520Y006123D01*
X008628Y006079D01*
X008710Y005996D01*
X008755Y005889D01*
X008755Y005772D01*
X008720Y005688D02*
X015154Y005688D01*
X015059Y005591D02*
X008637Y005591D01*
X008756Y005398D02*
X007258Y005398D01*
X007233Y005336D02*
X007295Y005486D01*
X007295Y005648D01*
X007233Y005798D01*
X007118Y005913D01*
X006968Y005975D01*
X006806Y005975D01*
X006656Y005913D01*
X006541Y005798D01*
X006479Y005648D01*
X006479Y005486D01*
X006541Y005336D01*
X006656Y005221D01*
X006806Y005159D01*
X006968Y005159D01*
X007118Y005221D01*
X007233Y005336D01*
X007198Y005301D02*
X008620Y005301D01*
X008607Y005288D02*
X008562Y005180D01*
X008562Y005064D01*
X008593Y004991D01*
X008520Y005021D01*
X008403Y005021D01*
X008296Y004976D01*
X008213Y004894D01*
X008169Y004786D01*
X008169Y004670D01*
X008213Y004562D01*
X008296Y004480D01*
X008403Y004435D01*
X008520Y004435D01*
X008628Y004480D01*
X008710Y004562D01*
X008755Y004670D01*
X008755Y004786D01*
X008725Y004859D01*
X008797Y004829D01*
X008914Y004829D01*
X009021Y004874D01*
X009104Y004956D01*
X009148Y005064D01*
X009148Y005180D01*
X009104Y005288D01*
X009021Y005370D01*
X008914Y005415D01*
X008797Y005415D01*
X008689Y005370D01*
X008607Y005288D01*
X008572Y005204D02*
X007076Y005204D01*
X007295Y005495D02*
X015019Y005495D01*
X015019Y005398D02*
X008955Y005398D01*
X009091Y005301D02*
X015051Y005301D01*
X015131Y005204D02*
X009139Y005204D01*
X009148Y005107D02*
X022393Y005107D01*
X022520Y005010D02*
X009126Y005010D01*
X009061Y004913D02*
X015182Y004913D01*
X015064Y004816D02*
X008743Y004816D01*
X008755Y004719D02*
X009849Y004719D01*
X009773Y004622D02*
X008735Y004622D01*
X008673Y004525D02*
X009744Y004525D01*
X009746Y004428D02*
X005168Y004428D01*
X005168Y004525D02*
X008251Y004525D01*
X008189Y004622D02*
X005168Y004622D01*
X005168Y004719D02*
X008169Y004719D01*
X008181Y004816D02*
X005168Y004816D01*
X005168Y004913D02*
X008232Y004913D01*
X008376Y005010D02*
X005168Y005010D01*
X005168Y005107D02*
X008562Y005107D01*
X008548Y005010D02*
X008585Y005010D01*
X008286Y005591D02*
X007295Y005591D01*
X007278Y005688D02*
X008203Y005688D01*
X008169Y005785D02*
X007238Y005785D01*
X007148Y005882D02*
X008169Y005882D01*
X008206Y005979D02*
X005168Y005979D01*
X005168Y005882D02*
X006626Y005882D01*
X006536Y005785D02*
X005168Y005785D01*
X005168Y005688D02*
X006496Y005688D01*
X006479Y005591D02*
X005168Y005591D01*
X005168Y005495D02*
X006479Y005495D01*
X006515Y005398D02*
X005168Y005398D01*
X005168Y005301D02*
X006576Y005301D01*
X006698Y005204D02*
X005168Y005204D01*
X005168Y004331D02*
X009786Y004331D01*
X009894Y004234D02*
X005168Y004234D01*
X005168Y006076D02*
X008293Y006076D01*
X008630Y006076D02*
X015537Y006076D01*
X015497Y005979D02*
X008717Y005979D01*
X008755Y005882D02*
X015492Y005882D01*
X015657Y006173D02*
X009321Y006173D01*
X009307Y006168D02*
X009415Y006212D01*
X009497Y006295D01*
X009542Y006402D01*
X009542Y006519D01*
X009497Y006626D01*
X009415Y006709D01*
X009307Y006753D01*
X009191Y006753D01*
X009083Y006709D01*
X009001Y006626D01*
X008956Y006519D01*
X008956Y006402D01*
X009001Y006295D01*
X009083Y006212D01*
X009191Y006168D01*
X009307Y006168D01*
X009177Y006173D02*
X007003Y006173D01*
X006968Y006159D02*
X007118Y006221D01*
X007233Y006336D01*
X007295Y006486D01*
X007295Y006648D01*
X007233Y006798D01*
X007118Y006913D01*
X006968Y006975D01*
X006806Y006975D01*
X006656Y006913D01*
X006541Y006798D01*
X006479Y006648D01*
X006479Y006486D01*
X006541Y006336D01*
X006656Y006221D01*
X006806Y006159D01*
X006968Y006159D01*
X006771Y006173D02*
X005168Y006173D01*
X005168Y006270D02*
X006606Y006270D01*
X006528Y006367D02*
X005168Y006367D01*
X005168Y006464D02*
X006488Y006464D01*
X006479Y006561D02*
X005168Y006561D01*
X005168Y006658D02*
X006483Y006658D01*
X006523Y006755D02*
X005168Y006755D01*
X005168Y006852D02*
X006595Y006852D01*
X006744Y006949D02*
X005168Y006949D01*
X005168Y007046D02*
X009192Y007046D01*
X009192Y007070D02*
X009192Y006953D01*
X009237Y006846D01*
X009319Y006763D01*
X009427Y006719D01*
X009544Y006719D01*
X009651Y006763D01*
X009734Y006846D01*
X009778Y006953D01*
X009778Y007070D01*
X009734Y007178D01*
X009651Y007260D01*
X009544Y007305D01*
X009427Y007305D01*
X009319Y007260D01*
X009237Y007178D01*
X009192Y007070D01*
X009223Y007143D02*
X005168Y007143D01*
X005168Y007240D02*
X008843Y007240D01*
X008847Y007236D02*
X008955Y007191D01*
X009071Y007191D01*
X009179Y007236D01*
X009261Y007318D01*
X009306Y007426D01*
X009306Y007542D01*
X009261Y007650D01*
X009179Y007732D01*
X009071Y007777D01*
X008955Y007777D01*
X008847Y007732D01*
X008765Y007650D01*
X008720Y007542D01*
X008720Y007426D01*
X008765Y007318D01*
X008847Y007236D01*
X008757Y007337D02*
X005168Y007337D01*
X005168Y007434D02*
X008720Y007434D01*
X008720Y007531D02*
X005168Y007531D01*
X005168Y007628D02*
X008755Y007628D01*
X008839Y007725D02*
X005168Y007725D01*
X005168Y007822D02*
X011883Y007822D01*
X011918Y007787D02*
X012025Y007742D01*
X012142Y007742D01*
X012250Y007787D01*
X012320Y007857D01*
X012390Y007787D01*
X012498Y007742D01*
X012614Y007742D01*
X012722Y007787D01*
X012805Y007869D01*
X012849Y007977D01*
X012849Y008094D01*
X012805Y008201D01*
X012722Y008284D01*
X012614Y008328D01*
X012498Y008328D01*
X012390Y008284D01*
X012320Y008213D01*
X012250Y008284D01*
X012142Y008328D01*
X012025Y008328D01*
X011918Y008284D01*
X011835Y008201D01*
X011791Y008094D01*
X011791Y007977D01*
X011835Y007869D01*
X011918Y007787D01*
X011815Y007919D02*
X005168Y007919D01*
X005168Y008016D02*
X011791Y008016D01*
X011799Y008113D02*
X005168Y008113D01*
X005168Y008210D02*
X011844Y008210D01*
X011973Y008307D02*
X005168Y008307D01*
X005168Y008404D02*
X012580Y008404D01*
X012548Y008417D02*
X012655Y008372D01*
X012772Y008372D01*
X012880Y008417D01*
X012962Y008499D01*
X013007Y008607D01*
X013007Y008723D01*
X012962Y008831D01*
X012880Y008914D01*
X012772Y008958D01*
X012655Y008958D01*
X012548Y008914D01*
X012465Y008831D01*
X012421Y008723D01*
X012421Y008607D01*
X012465Y008499D01*
X012548Y008417D01*
X012465Y008501D02*
X005168Y008501D01*
X005168Y008598D02*
X007026Y008598D01*
X007013Y008603D02*
X007187Y008531D01*
X007375Y008531D01*
X007549Y008603D01*
X007682Y008736D01*
X007754Y008910D01*
X007754Y009098D01*
X007682Y009272D01*
X007549Y009405D01*
X007375Y009477D01*
X007187Y009477D01*
X007013Y009405D01*
X006880Y009272D01*
X006808Y009098D01*
X006808Y008910D01*
X006880Y008736D01*
X007013Y008603D01*
X006921Y008694D02*
X005168Y008694D01*
X005168Y008791D02*
X006857Y008791D01*
X006816Y008888D02*
X005168Y008888D01*
X005168Y008985D02*
X006808Y008985D01*
X006808Y009082D02*
X005168Y009082D01*
X005168Y009179D02*
X006841Y009179D01*
X006884Y009276D02*
X005168Y009276D01*
X005168Y009373D02*
X006981Y009373D01*
X007171Y009470D02*
X005168Y009470D01*
X005168Y009567D02*
X007099Y009567D01*
X007013Y009603D02*
X007187Y009531D01*
X007375Y009531D01*
X007549Y009603D01*
X007682Y009736D01*
X007754Y009910D01*
X007754Y010098D01*
X007682Y010272D01*
X007549Y010405D01*
X007375Y010477D01*
X007187Y010477D01*
X007013Y010405D01*
X006880Y010272D01*
X006808Y010098D01*
X006808Y009910D01*
X006880Y009736D01*
X007013Y009603D01*
X006951Y009664D02*
X005168Y009664D01*
X005168Y009761D02*
X006869Y009761D01*
X006829Y009858D02*
X005168Y009858D01*
X005168Y009955D02*
X006808Y009955D01*
X006808Y010052D02*
X005168Y010052D01*
X005168Y010149D02*
X006829Y010149D01*
X006869Y010246D02*
X005168Y010246D01*
X005168Y010343D02*
X006951Y010343D01*
X007098Y010440D02*
X005168Y010440D01*
X005168Y010537D02*
X007172Y010537D01*
X007187Y010531D02*
X007375Y010531D01*
X007549Y010603D01*
X007682Y010736D01*
X007754Y010910D01*
X007754Y011098D01*
X007682Y011272D01*
X007549Y011405D01*
X007375Y011477D01*
X007187Y011477D01*
X007013Y011405D01*
X006880Y011272D01*
X006808Y011098D01*
X006808Y010910D01*
X006880Y010736D01*
X007013Y010603D01*
X007187Y010531D01*
X007389Y010537D02*
X011336Y010537D01*
X011367Y010567D02*
X011284Y010485D01*
X011240Y010377D01*
X011240Y010260D01*
X011284Y010153D01*
X011367Y010070D01*
X011474Y010026D01*
X011591Y010026D01*
X011699Y010070D01*
X011781Y010153D01*
X011826Y010260D01*
X011826Y010377D01*
X011781Y010485D01*
X011699Y010567D01*
X011591Y010612D01*
X011474Y010612D01*
X011367Y010567D01*
X011367Y010700D02*
X011474Y010656D01*
X011591Y010656D01*
X011699Y010700D01*
X011781Y010783D01*
X011826Y010890D01*
X011826Y011007D01*
X011781Y011115D01*
X011699Y011197D01*
X011591Y011242D01*
X011474Y011242D01*
X011367Y011197D01*
X011284Y011115D01*
X011240Y011007D01*
X011240Y010890D01*
X011284Y010783D01*
X011367Y010700D01*
X011336Y010731D02*
X007676Y010731D01*
X007720Y010828D02*
X011266Y010828D01*
X011240Y010925D02*
X007754Y010925D01*
X007754Y011022D02*
X011246Y011022D01*
X011288Y011119D02*
X007745Y011119D01*
X007705Y011216D02*
X009721Y011216D01*
X009742Y011207D02*
X009859Y011207D01*
X009966Y011251D01*
X010049Y011334D01*
X010093Y011442D01*
X010093Y011558D01*
X010063Y011631D01*
X010136Y011601D01*
X010252Y011601D01*
X010360Y011645D01*
X010442Y011728D01*
X010487Y011835D01*
X010487Y011952D01*
X010442Y012059D01*
X010360Y012142D01*
X010252Y012186D01*
X010136Y012186D01*
X010028Y012142D01*
X009946Y012059D01*
X009901Y011952D01*
X009901Y011835D01*
X009931Y011763D01*
X009859Y011793D01*
X009742Y011793D01*
X009634Y011748D01*
X009552Y011666D01*
X009507Y011558D01*
X009507Y011442D01*
X009552Y011334D01*
X009634Y011251D01*
X009742Y011207D01*
X009880Y011216D02*
X011412Y011216D01*
X011653Y011216D02*
X012342Y011216D01*
X012342Y011205D02*
X012387Y011098D01*
X012469Y011015D01*
X012577Y010971D01*
X012693Y010971D01*
X012801Y011015D01*
X012883Y011098D01*
X012928Y011205D01*
X012928Y011322D01*
X012883Y011430D01*
X012801Y011512D01*
X012693Y011557D01*
X012577Y011557D01*
X012469Y011512D01*
X012387Y011430D01*
X012342Y011322D01*
X012342Y011205D01*
X012378Y011119D02*
X011777Y011119D01*
X011819Y011022D02*
X012463Y011022D01*
X012342Y011313D02*
X010027Y011313D01*
X010080Y011410D02*
X012378Y011410D01*
X012464Y011507D02*
X010093Y011507D01*
X010074Y011604D02*
X010129Y011604D01*
X010259Y011604D02*
X016369Y011604D01*
X016406Y011566D02*
X016514Y011522D01*
X016630Y011522D01*
X016738Y011566D01*
X016820Y011649D01*
X016865Y011756D01*
X016865Y011873D01*
X016820Y011981D01*
X016738Y012063D01*
X016630Y012108D01*
X016514Y012108D01*
X016406Y012063D01*
X016324Y011981D01*
X016279Y011873D01*
X016279Y011756D01*
X016324Y011649D01*
X016406Y011566D01*
X016302Y011701D02*
X010415Y011701D01*
X010471Y011797D02*
X016279Y011797D01*
X016288Y011894D02*
X010487Y011894D01*
X010471Y011991D02*
X016334Y011991D01*
X016467Y012088D02*
X010413Y012088D01*
X010255Y012185D02*
X014464Y012185D01*
X014438Y012196D02*
X014545Y012152D01*
X014662Y012152D01*
X014769Y012196D01*
X014852Y012279D01*
X014896Y012386D01*
X014896Y012503D01*
X014852Y012611D01*
X014769Y012693D01*
X014662Y012738D01*
X014545Y012738D01*
X014438Y012693D01*
X014355Y012611D01*
X014311Y012503D01*
X014311Y012386D01*
X014355Y012279D01*
X014438Y012196D01*
X014354Y012282D02*
X005168Y012282D01*
X005168Y012185D02*
X010133Y012185D01*
X009975Y012088D02*
X005168Y012088D01*
X005168Y011991D02*
X009917Y011991D01*
X009901Y011894D02*
X005168Y011894D01*
X005168Y011797D02*
X009917Y011797D01*
X009587Y011701D02*
X005168Y011701D01*
X005168Y011604D02*
X009526Y011604D01*
X009507Y011507D02*
X005168Y011507D01*
X005168Y011410D02*
X007025Y011410D01*
X006921Y011313D02*
X005168Y011313D01*
X005168Y011216D02*
X006856Y011216D01*
X006816Y011119D02*
X005168Y011119D01*
X005168Y011022D02*
X006808Y011022D01*
X006808Y010925D02*
X005168Y010925D01*
X005168Y010828D02*
X006842Y010828D01*
X006885Y010731D02*
X005168Y010731D01*
X005168Y010634D02*
X006982Y010634D01*
X007463Y010440D02*
X011266Y010440D01*
X011240Y010343D02*
X007610Y010343D01*
X007692Y010246D02*
X011246Y010246D01*
X011288Y010149D02*
X007732Y010149D01*
X007754Y010052D02*
X011411Y010052D01*
X011654Y010052D02*
X017539Y010052D01*
X017539Y010062D02*
X017539Y009945D01*
X017583Y009838D01*
X017666Y009755D01*
X017774Y009711D01*
X017890Y009711D01*
X017998Y009755D01*
X018080Y009838D01*
X018125Y009945D01*
X018125Y010062D01*
X018080Y010170D01*
X017998Y010252D01*
X017890Y010297D01*
X017774Y010297D01*
X017666Y010252D01*
X017583Y010170D01*
X017539Y010062D01*
X017575Y010149D02*
X016344Y010149D01*
X016427Y010232D01*
X016471Y010339D01*
X016471Y010456D01*
X016427Y010563D01*
X016344Y010646D01*
X016237Y010690D01*
X016120Y010690D01*
X016012Y010646D01*
X015930Y010563D01*
X015885Y010456D01*
X015885Y010339D01*
X015930Y010232D01*
X016012Y010149D01*
X016120Y010105D01*
X016237Y010105D01*
X016344Y010149D01*
X016433Y010246D02*
X017660Y010246D01*
X017539Y009955D02*
X016695Y009955D01*
X016738Y009937D02*
X016630Y009982D01*
X016514Y009982D01*
X016406Y009937D01*
X016324Y009855D01*
X016279Y009747D01*
X016279Y009631D01*
X016324Y009523D01*
X016406Y009440D01*
X016514Y009396D01*
X016630Y009396D01*
X016738Y009440D01*
X016820Y009523D01*
X016865Y009631D01*
X016865Y009747D01*
X016820Y009855D01*
X016738Y009937D01*
X016817Y009858D02*
X017575Y009858D01*
X017660Y009761D02*
X016859Y009761D01*
X016865Y009664D02*
X018318Y009664D01*
X018325Y009667D02*
X018217Y009622D01*
X018135Y009540D01*
X018090Y009432D01*
X018090Y009316D01*
X018135Y009208D01*
X018217Y009126D01*
X018325Y009081D01*
X018441Y009081D01*
X018549Y009126D01*
X018631Y009208D01*
X018676Y009316D01*
X018676Y009432D01*
X018631Y009540D01*
X018549Y009622D01*
X018441Y009667D01*
X018325Y009667D01*
X018448Y009664D02*
X023348Y009664D01*
X023331Y009680D02*
X023414Y009598D01*
X023522Y009553D01*
X023638Y009553D01*
X023746Y009598D01*
X023828Y009680D01*
X023873Y009788D01*
X023873Y009905D01*
X023828Y010012D01*
X023746Y010095D01*
X023638Y010139D01*
X023522Y010139D01*
X023414Y010095D01*
X023331Y010012D01*
X023287Y009905D01*
X023287Y009788D01*
X023331Y009680D01*
X023298Y009761D02*
X018003Y009761D01*
X018089Y009858D02*
X023287Y009858D01*
X023308Y009955D02*
X018125Y009955D01*
X018125Y010052D02*
X018498Y010052D01*
X018453Y010070D02*
X018561Y010026D01*
X018677Y010026D01*
X018785Y010070D01*
X018868Y010153D01*
X018912Y010260D01*
X018912Y010377D01*
X018868Y010485D01*
X018785Y010567D01*
X018677Y010612D01*
X018561Y010612D01*
X018453Y010567D01*
X018371Y010485D01*
X018326Y010377D01*
X018326Y010260D01*
X018371Y010153D01*
X018453Y010070D01*
X018375Y010149D02*
X018089Y010149D01*
X018004Y010246D02*
X018332Y010246D01*
X018326Y010343D02*
X016471Y010343D01*
X016471Y010440D02*
X018352Y010440D01*
X018423Y010537D02*
X016438Y010537D01*
X016356Y010634D02*
X024240Y010634D01*
X024232Y010654D02*
X024276Y010546D01*
X024359Y010464D01*
X024466Y010419D01*
X024526Y010419D01*
X024513Y010406D01*
X024468Y010298D01*
X024468Y010182D01*
X024513Y010074D01*
X024595Y009992D01*
X024703Y009947D01*
X024819Y009947D01*
X024927Y009992D01*
X025009Y010074D01*
X025054Y010182D01*
X025054Y010298D01*
X025009Y010406D01*
X024927Y010488D01*
X024819Y010533D01*
X024759Y010533D01*
X024773Y010546D01*
X024818Y010654D01*
X024818Y010771D01*
X024800Y010813D01*
X024819Y010813D01*
X024927Y010858D01*
X025009Y010940D01*
X025054Y011048D01*
X025054Y011164D01*
X025009Y011272D01*
X024927Y011354D01*
X024819Y011399D01*
X024759Y011399D01*
X024773Y011413D01*
X024818Y011520D01*
X024818Y011637D01*
X024800Y011679D01*
X024819Y011679D01*
X024927Y011724D01*
X025009Y011806D01*
X025054Y011914D01*
X025054Y012031D01*
X025009Y012138D01*
X024927Y012221D01*
X024819Y012265D01*
X024703Y012265D01*
X024595Y012221D01*
X024513Y012138D01*
X024468Y012031D01*
X024468Y011914D01*
X024486Y011871D01*
X024466Y011871D01*
X024359Y011827D01*
X024276Y011744D01*
X024232Y011637D01*
X024232Y011520D01*
X024276Y011413D01*
X024359Y011330D01*
X024466Y011286D01*
X024526Y011286D01*
X024513Y011272D01*
X024468Y011164D01*
X024468Y011048D01*
X024486Y011005D01*
X024466Y011005D01*
X024359Y010961D01*
X024276Y010878D01*
X024232Y010771D01*
X024232Y010654D01*
X024232Y010731D02*
X017005Y010731D01*
X016974Y010700D02*
X017056Y010783D01*
X017101Y010890D01*
X017101Y011007D01*
X017056Y011115D01*
X016974Y011197D01*
X016866Y011242D01*
X016750Y011242D01*
X016642Y011197D01*
X016560Y011115D01*
X016515Y011007D01*
X016515Y010890D01*
X016560Y010783D01*
X016642Y010700D01*
X016750Y010656D01*
X016866Y010656D01*
X016974Y010700D01*
X017075Y010828D02*
X024255Y010828D01*
X024323Y010925D02*
X017101Y010925D01*
X017095Y011022D02*
X024479Y011022D01*
X024468Y011119D02*
X021398Y011119D01*
X021367Y011106D02*
X021541Y011178D01*
X021674Y011311D01*
X021746Y011484D01*
X021746Y011673D01*
X021674Y011846D01*
X021541Y011979D01*
X021367Y012051D01*
X021179Y012051D01*
X021005Y011979D01*
X020872Y011846D01*
X020800Y011673D01*
X020800Y011484D01*
X020872Y011311D01*
X021005Y011178D01*
X021179Y011106D01*
X021367Y011106D01*
X021147Y011119D02*
X020398Y011119D01*
X020367Y011106D02*
X020541Y011178D01*
X020674Y011311D01*
X020746Y011484D01*
X020746Y011673D01*
X020674Y011846D01*
X020541Y011979D01*
X020367Y012051D01*
X020179Y012051D01*
X020005Y011979D01*
X019872Y011846D01*
X019800Y011673D01*
X019800Y011484D01*
X019872Y011311D01*
X020005Y011178D01*
X020179Y011106D01*
X020367Y011106D01*
X020147Y011119D02*
X019398Y011119D01*
X019367Y011106D02*
X019541Y011178D01*
X019674Y011311D01*
X019746Y011484D01*
X019746Y011673D01*
X019674Y011846D01*
X019541Y011979D01*
X019367Y012051D01*
X019179Y012051D01*
X019005Y011979D01*
X018872Y011846D01*
X018800Y011673D01*
X018800Y011484D01*
X018872Y011311D01*
X019005Y011178D01*
X019179Y011106D01*
X019367Y011106D01*
X019147Y011119D02*
X017052Y011119D01*
X016929Y011216D02*
X018967Y011216D01*
X018871Y011313D02*
X013844Y011313D01*
X013828Y011351D02*
X013873Y011243D01*
X013873Y011127D01*
X013828Y011019D01*
X013746Y010937D01*
X013638Y010892D01*
X013522Y010892D01*
X013414Y010937D01*
X013331Y011019D01*
X013287Y011127D01*
X013287Y011243D01*
X013331Y011351D01*
X013414Y011433D01*
X013522Y011478D01*
X013638Y011478D01*
X013746Y011433D01*
X013828Y011351D01*
X013769Y011410D02*
X018831Y011410D01*
X018800Y011507D02*
X012806Y011507D01*
X012892Y011410D02*
X013390Y011410D01*
X013316Y011313D02*
X012928Y011313D01*
X012928Y011216D02*
X013287Y011216D01*
X013290Y011119D02*
X012892Y011119D01*
X012807Y011022D02*
X013330Y011022D01*
X013442Y010925D02*
X011826Y010925D01*
X011800Y010828D02*
X014547Y010828D01*
X014547Y010849D02*
X014547Y010733D01*
X014591Y010625D01*
X014674Y010543D01*
X014781Y010498D01*
X014898Y010498D01*
X015006Y010543D01*
X015088Y010625D01*
X015133Y010733D01*
X015133Y010849D01*
X015088Y010957D01*
X015006Y011039D01*
X014898Y011084D01*
X014781Y011084D01*
X014674Y011039D01*
X014591Y010957D01*
X014547Y010849D01*
X014578Y010925D02*
X013717Y010925D01*
X013829Y011022D02*
X014656Y011022D01*
X014548Y010731D02*
X011729Y010731D01*
X011729Y010537D02*
X014688Y010537D01*
X014588Y010634D02*
X007580Y010634D01*
X007641Y011313D02*
X009573Y011313D01*
X009521Y011410D02*
X007537Y011410D01*
X007754Y009955D02*
X016449Y009955D01*
X016327Y009858D02*
X014770Y009858D01*
X014769Y009858D02*
X014662Y009903D01*
X014545Y009903D01*
X014438Y009858D01*
X014355Y009776D01*
X014311Y009668D01*
X014311Y009552D01*
X014355Y009444D01*
X014438Y009362D01*
X014545Y009317D01*
X014605Y009317D01*
X014591Y009304D01*
X014547Y009196D01*
X014547Y009079D01*
X014591Y008972D01*
X014674Y008889D01*
X014781Y008845D01*
X014898Y008845D01*
X015006Y008889D01*
X015088Y008972D01*
X015133Y009079D01*
X015133Y009196D01*
X015088Y009304D01*
X015006Y009386D01*
X014898Y009431D01*
X014838Y009431D01*
X014852Y009444D01*
X014896Y009552D01*
X014896Y009668D01*
X014852Y009776D01*
X014769Y009858D01*
X014858Y009761D02*
X016285Y009761D01*
X016279Y009664D02*
X014896Y009664D01*
X014896Y009567D02*
X016305Y009567D01*
X016376Y009470D02*
X014863Y009470D01*
X015018Y009373D02*
X018090Y009373D01*
X018106Y009276D02*
X016611Y009276D01*
X016580Y009307D02*
X016473Y009352D01*
X016356Y009352D01*
X016249Y009307D01*
X016166Y009225D01*
X016122Y009117D01*
X016122Y009001D01*
X016166Y008893D01*
X016249Y008811D01*
X016356Y008766D01*
X016473Y008766D01*
X016580Y008811D01*
X016663Y008893D01*
X016707Y009001D01*
X016707Y009117D01*
X016663Y009225D01*
X016580Y009307D01*
X016682Y009179D02*
X018163Y009179D01*
X018321Y009082D02*
X016707Y009082D01*
X016701Y008985D02*
X024232Y008985D01*
X024232Y009038D02*
X024232Y008922D01*
X024276Y008814D01*
X024359Y008732D01*
X024466Y008687D01*
X024583Y008687D01*
X024691Y008732D01*
X024773Y008814D01*
X024818Y008922D01*
X024818Y009038D01*
X024800Y009081D01*
X024819Y009081D01*
X024927Y009126D01*
X025009Y009208D01*
X025054Y009316D01*
X025054Y009432D01*
X025009Y009540D01*
X024927Y009622D01*
X024819Y009667D01*
X024703Y009667D01*
X024630Y009637D01*
X024660Y009709D01*
X024660Y009826D01*
X024616Y009933D01*
X024533Y010016D01*
X024426Y010060D01*
X024309Y010060D01*
X024201Y010016D01*
X024119Y009933D01*
X024074Y009826D01*
X024074Y009709D01*
X024119Y009602D01*
X024201Y009519D01*
X024309Y009475D01*
X024426Y009475D01*
X024498Y009505D01*
X024468Y009432D01*
X024468Y009316D01*
X024486Y009273D01*
X024466Y009273D01*
X024359Y009228D01*
X024276Y009146D01*
X024232Y009038D01*
X024250Y009082D02*
X018445Y009082D01*
X018603Y009179D02*
X024310Y009179D01*
X024484Y009276D02*
X018660Y009276D01*
X018676Y009373D02*
X024468Y009373D01*
X024484Y009470D02*
X018660Y009470D01*
X018604Y009567D02*
X023488Y009567D01*
X023672Y009567D02*
X024153Y009567D01*
X024093Y009664D02*
X023812Y009664D01*
X023862Y009761D02*
X024074Y009761D01*
X024088Y009858D02*
X023873Y009858D01*
X023852Y009955D02*
X024141Y009955D01*
X024289Y010052D02*
X023788Y010052D01*
X023371Y010052D02*
X018741Y010052D01*
X018864Y010149D02*
X024481Y010149D01*
X024468Y010246D02*
X018906Y010246D01*
X018912Y010343D02*
X024487Y010343D01*
X024417Y010440D02*
X018886Y010440D01*
X018815Y010537D02*
X024286Y010537D01*
X024763Y010537D02*
X030260Y010537D01*
X030260Y010634D02*
X024809Y010634D01*
X024818Y010731D02*
X030260Y010731D01*
X030260Y010828D02*
X024854Y010828D01*
X024994Y010925D02*
X030260Y010925D01*
X030260Y011022D02*
X025043Y011022D01*
X025054Y011119D02*
X030260Y011119D01*
X030260Y011216D02*
X025033Y011216D01*
X024969Y011313D02*
X030260Y011313D01*
X030260Y011410D02*
X024770Y011410D01*
X024812Y011507D02*
X030260Y011507D01*
X030260Y011604D02*
X024818Y011604D01*
X024870Y011701D02*
X030260Y011701D01*
X030260Y011797D02*
X025000Y011797D01*
X025046Y011894D02*
X030260Y011894D01*
X030260Y011991D02*
X025054Y011991D01*
X025030Y012088D02*
X030260Y012088D01*
X030260Y012185D02*
X024962Y012185D01*
X024694Y012358D02*
X024739Y012465D01*
X024739Y012582D01*
X024694Y012689D01*
X024612Y012772D01*
X024504Y012816D01*
X024388Y012816D01*
X024280Y012772D01*
X024198Y012689D01*
X024153Y012582D01*
X024153Y012465D01*
X024198Y012358D01*
X024280Y012275D01*
X024388Y012231D01*
X024504Y012231D01*
X024612Y012275D01*
X024694Y012358D01*
X024703Y012379D02*
X030260Y012379D01*
X030260Y012282D02*
X024619Y012282D01*
X024560Y012185D02*
X014743Y012185D01*
X014853Y012282D02*
X024273Y012282D01*
X024189Y012379D02*
X014893Y012379D01*
X014896Y012476D02*
X016205Y012476D01*
X016166Y012515D02*
X016249Y012433D01*
X016356Y012388D01*
X016473Y012388D01*
X016580Y012433D01*
X016663Y012515D01*
X016707Y012623D01*
X016707Y012739D01*
X016663Y012847D01*
X016580Y012929D01*
X016473Y012974D01*
X016356Y012974D01*
X016249Y012929D01*
X016166Y012847D01*
X016122Y012739D01*
X016122Y012623D01*
X016166Y012515D01*
X016142Y012573D02*
X014867Y012573D01*
X014792Y012670D02*
X016122Y012670D01*
X016133Y012767D02*
X013007Y012767D01*
X013007Y012818D02*
X012962Y012926D01*
X012880Y013008D01*
X012772Y013053D01*
X012655Y013053D01*
X012548Y013008D01*
X012465Y012926D01*
X012421Y012818D01*
X012421Y012701D01*
X012465Y012594D01*
X012548Y012511D01*
X012655Y012467D01*
X012772Y012467D01*
X012880Y012511D01*
X012962Y012594D01*
X013007Y012701D01*
X013007Y012818D01*
X012987Y012864D02*
X016183Y012864D01*
X016325Y012961D02*
X012926Y012961D01*
X012994Y012670D02*
X014415Y012670D01*
X014340Y012573D02*
X012941Y012573D01*
X012795Y012476D02*
X014311Y012476D01*
X014313Y012379D02*
X005168Y012379D01*
X005168Y012476D02*
X012632Y012476D01*
X012486Y012573D02*
X005168Y012573D01*
X005168Y012670D02*
X012434Y012670D01*
X012421Y012767D02*
X005168Y012767D01*
X005168Y012864D02*
X012440Y012864D01*
X012501Y012961D02*
X005168Y012961D01*
X005168Y013058D02*
X023682Y013058D01*
X023681Y013054D02*
X023681Y012938D01*
X023725Y012830D01*
X023808Y012748D01*
X023915Y012703D01*
X024032Y012703D01*
X024139Y012748D01*
X024222Y012830D01*
X024266Y012938D01*
X024266Y013054D01*
X024222Y013162D01*
X024139Y013244D01*
X024032Y013289D01*
X023915Y013289D01*
X023808Y013244D01*
X023725Y013162D01*
X023681Y013054D01*
X023681Y012961D02*
X016504Y012961D01*
X016646Y012864D02*
X023711Y012864D01*
X023788Y012767D02*
X016696Y012767D01*
X016707Y012670D02*
X024190Y012670D01*
X024159Y012767D02*
X024275Y012767D01*
X024236Y012864D02*
X030260Y012864D01*
X030260Y012767D02*
X024616Y012767D01*
X024702Y012670D02*
X030260Y012670D01*
X030260Y012573D02*
X024739Y012573D01*
X024739Y012476D02*
X030260Y012476D01*
X030260Y012961D02*
X024266Y012961D01*
X024265Y013058D02*
X029173Y013058D01*
X029162Y013063D02*
X029270Y013018D01*
X029386Y013018D01*
X029494Y013063D01*
X029576Y013145D01*
X029621Y013253D01*
X029621Y013369D01*
X029576Y013477D01*
X029494Y013559D01*
X029386Y013604D01*
X029270Y013604D01*
X029162Y013559D01*
X029080Y013477D01*
X029035Y013369D01*
X029035Y013253D01*
X029080Y013145D01*
X029162Y013063D01*
X029075Y013155D02*
X024225Y013155D01*
X024121Y013252D02*
X029035Y013252D01*
X029035Y013349D02*
X005168Y013349D01*
X005168Y013446D02*
X029067Y013446D01*
X029146Y013543D02*
X005168Y013543D01*
X005168Y013640D02*
X030260Y013640D01*
X030260Y013737D02*
X029853Y013737D01*
X029891Y013775D02*
X029936Y013882D01*
X029936Y013999D01*
X029891Y014107D01*
X029809Y014189D01*
X029701Y014234D01*
X029585Y014234D01*
X029477Y014189D01*
X029394Y014107D01*
X029350Y013999D01*
X029350Y013882D01*
X029394Y013775D01*
X029477Y013692D01*
X029585Y013648D01*
X029701Y013648D01*
X029809Y013692D01*
X029891Y013775D01*
X029916Y013834D02*
X030260Y013834D01*
X030260Y013931D02*
X029936Y013931D01*
X029924Y014028D02*
X030260Y014028D01*
X030260Y014125D02*
X029873Y014125D01*
X029730Y014222D02*
X030260Y014222D01*
X030260Y014319D02*
X005168Y014319D01*
X005168Y014416D02*
X030260Y014416D01*
X030260Y014513D02*
X005168Y014513D01*
X005168Y014610D02*
X030260Y014610D01*
X030260Y014707D02*
X005168Y014707D01*
X005168Y014804D02*
X011594Y014804D01*
X011603Y014795D02*
X011711Y014750D01*
X011827Y014750D01*
X011935Y014795D01*
X012017Y014877D01*
X012062Y014985D01*
X012062Y015101D01*
X012017Y015209D01*
X011935Y015291D01*
X011827Y015336D01*
X011711Y015336D01*
X011603Y015291D01*
X011520Y015209D01*
X011476Y015101D01*
X011476Y014985D01*
X011520Y014877D01*
X011603Y014795D01*
X011511Y014900D02*
X005168Y014900D01*
X005168Y014997D02*
X011476Y014997D01*
X011476Y015094D02*
X005168Y015094D01*
X005168Y015191D02*
X011513Y015191D01*
X011600Y015288D02*
X005168Y015288D01*
X005168Y015385D02*
X014975Y015385D01*
X014975Y015435D02*
X014975Y015281D01*
X015034Y015138D01*
X015144Y015029D01*
X015286Y014970D01*
X015440Y014970D01*
X015583Y015029D01*
X015692Y015138D01*
X015751Y015281D01*
X015751Y015435D01*
X015692Y015578D01*
X015583Y015687D01*
X015440Y015746D01*
X015286Y015746D01*
X015144Y015687D01*
X015034Y015578D01*
X014975Y015435D01*
X014995Y015482D02*
X005168Y015482D01*
X005168Y015579D02*
X015036Y015579D01*
X015133Y015676D02*
X005168Y015676D01*
X005168Y015773D02*
X014089Y015773D01*
X014123Y015740D02*
X014040Y015822D01*
X013996Y015930D01*
X013996Y016046D01*
X014040Y016154D01*
X014123Y016236D01*
X014230Y016281D01*
X014347Y016281D01*
X014454Y016236D01*
X014537Y016154D01*
X014581Y016046D01*
X014581Y015930D01*
X014537Y015822D01*
X014454Y015740D01*
X014347Y015695D01*
X014230Y015695D01*
X014123Y015740D01*
X014020Y015870D02*
X005168Y015870D01*
X005168Y015967D02*
X013996Y015967D01*
X014003Y016064D02*
X005168Y016064D01*
X005168Y016161D02*
X014047Y016161D01*
X014175Y016258D02*
X005168Y016258D01*
X005168Y016355D02*
X030260Y016355D01*
X030260Y016452D02*
X014537Y016452D01*
X014533Y016448D02*
X014616Y016531D01*
X014660Y016638D01*
X014660Y016755D01*
X014616Y016863D01*
X014533Y016945D01*
X014426Y016990D01*
X014309Y016990D01*
X014201Y016945D01*
X014119Y016863D01*
X014074Y016755D01*
X014074Y016638D01*
X014119Y016531D01*
X014201Y016448D01*
X014309Y016404D01*
X014426Y016404D01*
X014533Y016448D01*
X014623Y016549D02*
X030260Y016549D01*
X030260Y016646D02*
X014660Y016646D01*
X014660Y016743D02*
X023699Y016743D01*
X023650Y016763D02*
X023758Y016719D01*
X023874Y016719D01*
X023982Y016763D01*
X024064Y016846D01*
X024109Y016953D01*
X024109Y017070D01*
X024079Y017142D01*
X024151Y017112D01*
X024268Y017112D01*
X024341Y017142D01*
X024311Y017070D01*
X024311Y016953D01*
X024355Y016846D01*
X024438Y016763D01*
X024545Y016719D01*
X024662Y016719D01*
X024769Y016763D01*
X024852Y016846D01*
X024896Y016953D01*
X024896Y017070D01*
X024852Y017178D01*
X024769Y017260D01*
X024662Y017305D01*
X024545Y017305D01*
X024473Y017274D01*
X024503Y017347D01*
X024503Y017464D01*
X024458Y017571D01*
X024376Y017654D01*
X024268Y017698D01*
X024151Y017698D01*
X024044Y017654D01*
X023961Y017571D01*
X023917Y017464D01*
X023917Y017347D01*
X023947Y017274D01*
X023874Y017305D01*
X023758Y017305D01*
X023650Y017260D01*
X023568Y017178D01*
X023523Y017070D01*
X023523Y016953D01*
X023568Y016846D01*
X023650Y016763D01*
X023574Y016840D02*
X014625Y016840D01*
X014541Y016937D02*
X023530Y016937D01*
X023523Y017034D02*
X005168Y017034D01*
X005168Y017131D02*
X023548Y017131D01*
X023618Y017228D02*
X014120Y017228D01*
X014139Y017236D02*
X014222Y017318D01*
X014266Y017426D01*
X014266Y017542D01*
X014222Y017650D01*
X014139Y017732D01*
X014032Y017777D01*
X013915Y017777D01*
X013808Y017732D01*
X013725Y017650D01*
X013681Y017542D01*
X013681Y017426D01*
X013725Y017318D01*
X013808Y017236D01*
X013915Y017191D01*
X014032Y017191D01*
X014139Y017236D01*
X014225Y017325D02*
X023926Y017325D01*
X023917Y017422D02*
X014265Y017422D01*
X014266Y017519D02*
X023940Y017519D01*
X024006Y017616D02*
X014236Y017616D01*
X014159Y017713D02*
X025812Y017713D01*
X025791Y017762D02*
X025880Y017547D01*
X026044Y017383D01*
X026259Y017294D01*
X026491Y017294D01*
X026706Y017383D01*
X026870Y017547D01*
X026959Y017762D01*
X026959Y017994D01*
X026870Y018209D01*
X026706Y018373D01*
X026491Y018462D01*
X026259Y018462D01*
X026044Y018373D01*
X025880Y018209D01*
X025791Y017994D01*
X025791Y017762D01*
X025791Y017810D02*
X005168Y017810D01*
X005168Y017906D02*
X011694Y017906D01*
X011711Y017900D02*
X011827Y017900D01*
X011935Y017944D01*
X012017Y018027D01*
X012062Y018134D01*
X012062Y018251D01*
X012017Y018359D01*
X011935Y018441D01*
X011827Y018486D01*
X011711Y018486D01*
X011603Y018441D01*
X011520Y018359D01*
X011476Y018251D01*
X011476Y018134D01*
X011520Y018027D01*
X011603Y017944D01*
X011711Y017900D01*
X011843Y017906D02*
X025791Y017906D01*
X025795Y018003D02*
X011994Y018003D01*
X012048Y018100D02*
X024047Y018100D01*
X024044Y018102D02*
X024151Y018057D01*
X024268Y018057D01*
X024376Y018102D01*
X024458Y018184D01*
X024503Y018292D01*
X024503Y018409D01*
X024473Y018481D01*
X024545Y018451D01*
X024662Y018451D01*
X024769Y018496D01*
X024852Y018578D01*
X024896Y018686D01*
X024896Y018802D01*
X024852Y018910D01*
X024769Y018992D01*
X024662Y019037D01*
X024545Y019037D01*
X024438Y018992D01*
X024355Y018910D01*
X024311Y018802D01*
X024311Y018686D01*
X024341Y018613D01*
X024268Y018643D01*
X024151Y018643D01*
X024079Y018613D01*
X024109Y018686D01*
X024109Y018802D01*
X024064Y018910D01*
X023982Y018992D01*
X023874Y019037D01*
X023758Y019037D01*
X023650Y018992D01*
X023568Y018910D01*
X023523Y018802D01*
X023523Y018686D01*
X023568Y018578D01*
X023650Y018496D01*
X023758Y018451D01*
X023874Y018451D01*
X023947Y018481D01*
X023917Y018409D01*
X023917Y018292D01*
X023961Y018184D01*
X024044Y018102D01*
X023956Y018197D02*
X012062Y018197D01*
X012044Y018294D02*
X023917Y018294D01*
X023917Y018391D02*
X011984Y018391D01*
X012104Y018766D02*
X012221Y018766D01*
X012328Y018811D01*
X012411Y018893D01*
X012455Y019001D01*
X012455Y019117D01*
X012411Y019225D01*
X012328Y019307D01*
X012221Y019352D01*
X012104Y019352D01*
X011997Y019307D01*
X011914Y019225D01*
X011870Y019117D01*
X011870Y019001D01*
X011914Y018893D01*
X011997Y018811D01*
X012104Y018766D01*
X012072Y018779D02*
X005168Y018779D01*
X005168Y018682D02*
X023524Y018682D01*
X023523Y018779D02*
X014458Y018779D01*
X014426Y018766D02*
X014533Y018811D01*
X014616Y018893D01*
X014660Y019001D01*
X014660Y019117D01*
X014616Y019225D01*
X014533Y019307D01*
X014426Y019352D01*
X014309Y019352D01*
X014201Y019307D01*
X014119Y019225D01*
X014074Y019117D01*
X014074Y019001D01*
X014119Y018893D01*
X014201Y018811D01*
X014309Y018766D01*
X014426Y018766D01*
X014277Y018779D02*
X012253Y018779D01*
X012394Y018876D02*
X014136Y018876D01*
X014086Y018973D02*
X012444Y018973D01*
X012455Y019070D02*
X014074Y019070D01*
X014095Y019167D02*
X012435Y019167D01*
X012372Y019264D02*
X014158Y019264D01*
X014576Y019264D02*
X028741Y019264D01*
X028720Y019316D02*
X028765Y019208D01*
X028847Y019126D01*
X028955Y019081D01*
X029071Y019081D01*
X029179Y019126D01*
X029261Y019208D01*
X029306Y019316D01*
X029306Y019432D01*
X029261Y019540D01*
X029179Y019622D01*
X029071Y019667D01*
X028955Y019667D01*
X028847Y019622D01*
X028765Y019540D01*
X028720Y019432D01*
X028720Y019316D01*
X028720Y019361D02*
X005168Y019361D01*
X005168Y019264D02*
X011953Y019264D01*
X011890Y019167D02*
X005168Y019167D01*
X005168Y019070D02*
X011870Y019070D01*
X011881Y018973D02*
X005168Y018973D01*
X005168Y018876D02*
X011931Y018876D01*
X011553Y018391D02*
X005168Y018391D01*
X005168Y018294D02*
X011494Y018294D01*
X011476Y018197D02*
X005168Y018197D01*
X005168Y018100D02*
X011490Y018100D01*
X011544Y018003D02*
X005168Y018003D01*
X005168Y017713D02*
X013788Y017713D01*
X013711Y017616D02*
X005168Y017616D01*
X005168Y017519D02*
X013681Y017519D01*
X013682Y017422D02*
X005168Y017422D01*
X005168Y017325D02*
X013722Y017325D01*
X013827Y017228D02*
X005168Y017228D01*
X005168Y016937D02*
X014193Y016937D01*
X014109Y016840D02*
X005168Y016840D01*
X005168Y016743D02*
X014074Y016743D01*
X014074Y016646D02*
X005168Y016646D01*
X005168Y016549D02*
X014111Y016549D01*
X014198Y016452D02*
X005168Y016452D01*
X005168Y018488D02*
X023668Y018488D01*
X023565Y018585D02*
X005168Y018585D01*
X005168Y019458D02*
X028731Y019458D01*
X028780Y019555D02*
X005168Y019555D01*
X005168Y019652D02*
X028919Y019652D01*
X029107Y019652D02*
X030260Y019652D01*
X030260Y019749D02*
X029714Y019749D01*
X029730Y019755D02*
X029812Y019838D01*
X029857Y019945D01*
X029857Y020062D01*
X029812Y020170D01*
X029730Y020252D01*
X029622Y020297D01*
X029506Y020297D01*
X029398Y020252D01*
X029316Y020170D01*
X029271Y020062D01*
X029271Y019945D01*
X029316Y019838D01*
X029398Y019755D01*
X029506Y019711D01*
X029622Y019711D01*
X029730Y019755D01*
X029816Y019846D02*
X030260Y019846D01*
X030260Y019943D02*
X029856Y019943D01*
X029857Y020040D02*
X030260Y020040D01*
X030260Y020137D02*
X029826Y020137D01*
X029748Y020234D02*
X030260Y020234D01*
X030260Y020331D02*
X005168Y020331D01*
X005168Y020428D02*
X030260Y020428D01*
X030260Y020525D02*
X005168Y020525D01*
X005168Y020622D02*
X030260Y020622D01*
X030260Y020719D02*
X005168Y020719D01*
X005168Y020816D02*
X030260Y020816D01*
X030260Y020913D02*
X005168Y020913D01*
X005168Y021009D02*
X030260Y021009D01*
X030260Y021106D02*
X005168Y021106D01*
X005168Y021203D02*
X011808Y021203D01*
X011839Y021173D02*
X011947Y021128D01*
X012063Y021128D01*
X012171Y021173D01*
X012253Y021255D01*
X012298Y021363D01*
X012298Y021479D01*
X012253Y021587D01*
X012171Y021669D01*
X012063Y021714D01*
X011947Y021714D01*
X011839Y021669D01*
X011757Y021587D01*
X011712Y021479D01*
X011712Y021363D01*
X011757Y021255D01*
X011839Y021173D01*
X011738Y021300D02*
X005168Y021300D01*
X005168Y021397D02*
X011712Y021397D01*
X011718Y021494D02*
X005168Y021494D01*
X005168Y021591D02*
X011761Y021591D01*
X011885Y021688D02*
X005168Y021688D01*
X005168Y021785D02*
X030260Y021785D01*
X030260Y021688D02*
X018267Y021688D01*
X018313Y021669D02*
X018205Y021714D01*
X018088Y021714D01*
X017981Y021669D01*
X017898Y021587D01*
X017854Y021479D01*
X017854Y021363D01*
X017898Y021255D01*
X017981Y021173D01*
X018088Y021128D01*
X018205Y021128D01*
X018313Y021173D01*
X018395Y021255D01*
X018440Y021363D01*
X018440Y021479D01*
X018395Y021587D01*
X018313Y021669D01*
X018391Y021591D02*
X030260Y021591D01*
X030260Y021494D02*
X018434Y021494D01*
X018440Y021397D02*
X030260Y021397D01*
X030260Y021300D02*
X018414Y021300D01*
X018343Y021203D02*
X030260Y021203D01*
X030260Y021882D02*
X005168Y021882D01*
X005168Y021979D02*
X030260Y021979D01*
X030260Y022076D02*
X012543Y022076D01*
X012536Y022073D02*
X012643Y022118D01*
X012726Y022200D01*
X012770Y022308D01*
X012770Y022424D01*
X012726Y022532D01*
X012643Y022614D01*
X012536Y022659D01*
X012419Y022659D01*
X012312Y022614D01*
X012229Y022532D01*
X012185Y022424D01*
X012185Y022308D01*
X012229Y022200D01*
X012312Y022118D01*
X012419Y022073D01*
X012536Y022073D01*
X012412Y022076D02*
X005168Y022076D01*
X005168Y022173D02*
X012256Y022173D01*
X012200Y022270D02*
X005168Y022270D01*
X005168Y022367D02*
X012185Y022367D01*
X012201Y022464D02*
X005168Y022464D01*
X005168Y022561D02*
X012258Y022561D01*
X012417Y022658D02*
X005168Y022658D01*
X005168Y022755D02*
X030260Y022755D01*
X030260Y022852D02*
X005168Y022852D01*
X005168Y022949D02*
X006569Y022949D01*
X006592Y022939D02*
X006709Y022939D01*
X006817Y022984D01*
X006899Y023066D01*
X006944Y023174D01*
X006944Y023290D01*
X006899Y023398D01*
X006817Y023480D01*
X006709Y023525D01*
X006592Y023525D01*
X006485Y023480D01*
X006402Y023398D01*
X006358Y023290D01*
X006358Y023174D01*
X006402Y023066D01*
X006485Y022984D01*
X006592Y022939D01*
X006732Y022949D02*
X007750Y022949D01*
X007774Y022939D02*
X007890Y022939D01*
X007998Y022984D01*
X008080Y023066D01*
X008125Y023174D01*
X008125Y023290D01*
X008080Y023398D01*
X007998Y023480D01*
X007890Y023525D01*
X007774Y023525D01*
X007666Y023480D01*
X007583Y023398D01*
X007539Y023290D01*
X007539Y023174D01*
X007583Y023066D01*
X007666Y022984D01*
X007774Y022939D01*
X007913Y022949D02*
X012346Y022949D01*
X012308Y022987D02*
X012390Y022905D01*
X012498Y022860D01*
X012614Y022860D01*
X012722Y022905D01*
X012805Y022987D01*
X012849Y023095D01*
X012849Y023212D01*
X012805Y023319D01*
X012722Y023402D01*
X012614Y023446D01*
X012498Y023446D01*
X012390Y023402D01*
X012308Y023319D01*
X012263Y023212D01*
X012263Y023095D01*
X012308Y022987D01*
X012284Y023046D02*
X008060Y023046D01*
X008112Y023143D02*
X012263Y023143D01*
X012275Y023240D02*
X008125Y023240D01*
X008106Y023337D02*
X012325Y023337D01*
X012468Y023434D02*
X008044Y023434D01*
X007619Y023434D02*
X006863Y023434D01*
X006924Y023337D02*
X007558Y023337D01*
X007539Y023240D02*
X006944Y023240D01*
X006931Y023143D02*
X007552Y023143D01*
X007604Y023046D02*
X006879Y023046D01*
X006423Y023046D02*
X005168Y023046D01*
X005168Y023143D02*
X006371Y023143D01*
X006358Y023240D02*
X005168Y023240D01*
X005168Y023337D02*
X006377Y023337D01*
X006438Y023434D02*
X005168Y023434D01*
X005168Y023531D02*
X030260Y023531D01*
X030260Y023628D02*
X005168Y023628D01*
X005168Y023725D02*
X030260Y023725D01*
X030260Y023822D02*
X012732Y023822D01*
X012693Y023805D02*
X012801Y023850D01*
X012883Y023932D01*
X012928Y024040D01*
X012928Y024157D01*
X012883Y024264D01*
X012801Y024347D01*
X012693Y024391D01*
X012577Y024391D01*
X012469Y024347D01*
X012387Y024264D01*
X012342Y024157D01*
X012342Y024040D01*
X012387Y023932D01*
X012469Y023850D01*
X012577Y023805D01*
X012693Y023805D01*
X012537Y023822D02*
X005168Y023822D01*
X005168Y023919D02*
X012400Y023919D01*
X012352Y024016D02*
X005168Y024016D01*
X005168Y024112D02*
X012342Y024112D01*
X012364Y024209D02*
X008042Y024209D01*
X008080Y024247D02*
X008125Y024355D01*
X008125Y024471D01*
X008080Y024579D01*
X007998Y024662D01*
X007890Y024706D01*
X007774Y024706D01*
X007666Y024662D01*
X007583Y024579D01*
X007539Y024471D01*
X007539Y024355D01*
X007583Y024247D01*
X007666Y024165D01*
X007774Y024120D01*
X007890Y024120D01*
X007998Y024165D01*
X008080Y024247D01*
X008105Y024306D02*
X012429Y024306D01*
X012841Y024306D02*
X030260Y024306D01*
X030260Y024209D02*
X012906Y024209D01*
X012928Y024112D02*
X030260Y024112D01*
X030260Y024016D02*
X012918Y024016D01*
X012869Y023919D02*
X030260Y023919D01*
X030260Y024403D02*
X008125Y024403D01*
X008113Y024500D02*
X011267Y024500D01*
X011288Y024480D02*
X011396Y024435D01*
X011512Y024435D01*
X011620Y024480D01*
X011702Y024562D01*
X011747Y024670D01*
X011747Y024786D01*
X011702Y024894D01*
X011620Y024976D01*
X011512Y025021D01*
X011396Y025021D01*
X011288Y024976D01*
X011206Y024894D01*
X011161Y024786D01*
X011161Y024670D01*
X011206Y024562D01*
X011288Y024480D01*
X011191Y024597D02*
X008062Y024597D01*
X007919Y024694D02*
X011161Y024694D01*
X011163Y024791D02*
X005168Y024791D01*
X005168Y024694D02*
X006564Y024694D01*
X006592Y024706D02*
X006485Y024662D01*
X006402Y024579D01*
X006358Y024471D01*
X006358Y024355D01*
X006402Y024247D01*
X006485Y024165D01*
X006592Y024120D01*
X006709Y024120D01*
X006817Y024165D01*
X006899Y024247D01*
X006944Y024355D01*
X006944Y024471D01*
X006899Y024579D01*
X006817Y024662D01*
X006709Y024706D01*
X006592Y024706D01*
X006738Y024694D02*
X007745Y024694D01*
X007602Y024597D02*
X006881Y024597D01*
X006932Y024500D02*
X007551Y024500D01*
X007539Y024403D02*
X006944Y024403D01*
X006924Y024306D02*
X007559Y024306D01*
X007621Y024209D02*
X006861Y024209D01*
X006440Y024209D02*
X005168Y024209D01*
X005168Y024306D02*
X006378Y024306D01*
X006358Y024403D02*
X005168Y024403D01*
X005168Y024500D02*
X006370Y024500D01*
X006421Y024597D02*
X005168Y024597D01*
X005168Y024888D02*
X011203Y024888D01*
X011309Y024985D02*
X005168Y024985D01*
X005168Y025082D02*
X019611Y025082D01*
X019631Y025130D02*
X019586Y025023D01*
X019586Y024906D01*
X019631Y024798D01*
X019713Y024716D01*
X019821Y024671D01*
X019937Y024671D01*
X020045Y024716D01*
X020127Y024798D01*
X020172Y024906D01*
X020172Y025023D01*
X020127Y025130D01*
X020045Y025213D01*
X019937Y025257D01*
X019821Y025257D01*
X019713Y025213D01*
X019631Y025130D01*
X019680Y025179D02*
X005168Y025179D01*
X005168Y025276D02*
X023848Y025276D01*
X023838Y025300D02*
X023883Y025192D01*
X023965Y025110D01*
X024073Y025065D01*
X024189Y025065D01*
X024262Y025095D01*
X024232Y025023D01*
X024232Y024906D01*
X024276Y024798D01*
X024359Y024716D01*
X024466Y024671D01*
X024583Y024671D01*
X024691Y024716D01*
X024773Y024798D01*
X024818Y024906D01*
X024818Y025023D01*
X024773Y025130D01*
X024691Y025213D01*
X024583Y025257D01*
X024466Y025257D01*
X024394Y025227D01*
X024424Y025300D01*
X024424Y025416D01*
X024379Y025524D01*
X024297Y025606D01*
X024189Y025651D01*
X024073Y025651D01*
X023965Y025606D01*
X023883Y025524D01*
X023838Y025416D01*
X023838Y025300D01*
X023838Y025373D02*
X005168Y025373D01*
X005168Y025470D02*
X023860Y025470D01*
X023926Y025567D02*
X005168Y025567D01*
X005168Y025664D02*
X025791Y025664D01*
X025791Y025636D02*
X025791Y025868D01*
X025880Y026083D01*
X026044Y026247D01*
X026259Y026336D01*
X026491Y026336D01*
X026706Y026247D01*
X026870Y026083D01*
X026959Y025868D01*
X026959Y025636D01*
X026870Y025421D01*
X026706Y025257D01*
X026491Y025168D01*
X026259Y025168D01*
X026044Y025257D01*
X025880Y025421D01*
X025791Y025636D01*
X025820Y025567D02*
X024336Y025567D01*
X024402Y025470D02*
X025860Y025470D01*
X025928Y025373D02*
X024424Y025373D01*
X024414Y025276D02*
X026025Y025276D01*
X026232Y025179D02*
X024724Y025179D01*
X024793Y025082D02*
X030260Y025082D01*
X030260Y024985D02*
X024818Y024985D01*
X024810Y024888D02*
X030260Y024888D01*
X030260Y024791D02*
X024766Y024791D01*
X024638Y024694D02*
X030260Y024694D01*
X030260Y024597D02*
X011717Y024597D01*
X011747Y024694D02*
X019766Y024694D01*
X019638Y024791D02*
X011745Y024791D01*
X011705Y024888D02*
X019594Y024888D01*
X019586Y024985D02*
X011599Y024985D01*
X011640Y024500D02*
X030260Y024500D01*
X030260Y025179D02*
X029274Y025179D01*
X029247Y025168D02*
X029462Y025257D01*
X029626Y025421D01*
X029715Y025636D01*
X029715Y025868D01*
X029626Y026083D01*
X029462Y026247D01*
X029247Y026336D01*
X029015Y026336D01*
X028800Y026247D01*
X028636Y026083D01*
X028547Y025868D01*
X028547Y025636D01*
X028636Y025421D01*
X028800Y025257D01*
X029015Y025168D01*
X029247Y025168D01*
X029481Y025276D02*
X030260Y025276D01*
X030260Y025373D02*
X029578Y025373D01*
X029646Y025470D02*
X030260Y025470D01*
X030260Y025567D02*
X029686Y025567D01*
X029715Y025664D02*
X030260Y025664D01*
X030260Y025761D02*
X029715Y025761D01*
X029715Y025858D02*
X030260Y025858D01*
X030260Y025955D02*
X029679Y025955D01*
X029639Y026052D02*
X030260Y026052D01*
X030260Y026149D02*
X029560Y026149D01*
X029506Y026246D02*
X029622Y026246D01*
X029730Y026291D01*
X029812Y026373D01*
X029857Y026481D01*
X029857Y026597D01*
X029812Y026705D01*
X029730Y026788D01*
X029622Y026832D01*
X029506Y026832D01*
X029398Y026788D01*
X029316Y026705D01*
X029271Y026597D01*
X029271Y026481D01*
X029316Y026373D01*
X029398Y026291D01*
X029506Y026246D01*
X029463Y026246D02*
X030260Y026246D01*
X030260Y026343D02*
X029782Y026343D01*
X029840Y026440D02*
X030260Y026440D01*
X030260Y026537D02*
X029857Y026537D01*
X029842Y026634D02*
X030260Y026634D01*
X030260Y026731D02*
X029787Y026731D01*
X029633Y026828D02*
X030260Y026828D01*
X030260Y026925D02*
X015605Y026925D01*
X015605Y026875D02*
X015560Y026767D01*
X015478Y026685D01*
X015370Y026640D01*
X015254Y026640D01*
X015146Y026685D01*
X015064Y026767D01*
X015019Y026875D01*
X015019Y026991D01*
X015064Y027099D01*
X015146Y027181D01*
X015254Y027226D01*
X015370Y027226D01*
X015478Y027181D01*
X015560Y027099D01*
X015605Y026991D01*
X015605Y026875D01*
X015586Y026828D02*
X024456Y026828D01*
X024466Y026832D02*
X024359Y026788D01*
X024276Y026705D01*
X024232Y026597D01*
X024232Y026481D01*
X024262Y026408D01*
X024189Y026438D01*
X024073Y026438D01*
X023965Y026394D01*
X023883Y026311D01*
X023838Y026204D01*
X023838Y026087D01*
X023883Y025980D01*
X023965Y025897D01*
X024073Y025853D01*
X024189Y025853D01*
X024297Y025897D01*
X024379Y025980D01*
X024424Y026087D01*
X024424Y026204D01*
X024394Y026276D01*
X024466Y026246D01*
X024583Y026246D01*
X024691Y026291D01*
X024773Y026373D01*
X024818Y026481D01*
X024818Y026597D01*
X024773Y026705D01*
X024691Y026788D01*
X024583Y026832D01*
X024466Y026832D01*
X024594Y026828D02*
X029495Y026828D01*
X029341Y026731D02*
X024748Y026731D01*
X024803Y026634D02*
X029286Y026634D01*
X029271Y026537D02*
X024818Y026537D01*
X024801Y026440D02*
X029288Y026440D01*
X029346Y026343D02*
X024743Y026343D01*
X024407Y026246D02*
X026043Y026246D01*
X025946Y026149D02*
X024424Y026149D01*
X024409Y026052D02*
X025867Y026052D01*
X025827Y025955D02*
X024355Y025955D01*
X024202Y025858D02*
X025791Y025858D01*
X025791Y025761D02*
X005168Y025761D01*
X005168Y025858D02*
X024060Y025858D01*
X023907Y025955D02*
X005168Y025955D01*
X005168Y026052D02*
X015153Y026052D01*
X015146Y026055D02*
X015254Y026010D01*
X015370Y026010D01*
X015478Y026055D01*
X015560Y026137D01*
X015605Y026245D01*
X015605Y026361D01*
X015560Y026469D01*
X015478Y026551D01*
X015370Y026596D01*
X015254Y026596D01*
X015146Y026551D01*
X015064Y026469D01*
X015019Y026361D01*
X015019Y026245D01*
X015064Y026137D01*
X015146Y026055D01*
X015059Y026149D02*
X005168Y026149D01*
X005168Y026246D02*
X015019Y026246D01*
X015019Y026343D02*
X005168Y026343D01*
X005168Y026440D02*
X015052Y026440D01*
X015132Y026537D02*
X005168Y026537D01*
X005168Y026634D02*
X024247Y026634D01*
X024232Y026537D02*
X015493Y026537D01*
X015573Y026440D02*
X024249Y026440D01*
X024302Y026731D02*
X015524Y026731D01*
X015592Y027022D02*
X028825Y027022D01*
X028847Y027000D02*
X028955Y026955D01*
X029071Y026955D01*
X029179Y027000D01*
X029261Y027082D01*
X029306Y027190D01*
X029306Y027306D01*
X029261Y027414D01*
X029179Y027496D01*
X029071Y027541D01*
X028955Y027541D01*
X028847Y027496D01*
X028765Y027414D01*
X028720Y027306D01*
X028720Y027190D01*
X028765Y027082D01*
X028847Y027000D01*
X028749Y027119D02*
X015541Y027119D01*
X015395Y027215D02*
X028720Y027215D01*
X028723Y027312D02*
X011772Y027312D01*
X011777Y027314D02*
X011860Y027397D01*
X011904Y027505D01*
X011904Y027621D01*
X011860Y027729D01*
X011777Y027811D01*
X011670Y027856D01*
X011553Y027856D01*
X011445Y027811D01*
X011363Y027729D01*
X011318Y027621D01*
X011318Y027505D01*
X011363Y027397D01*
X011445Y027314D01*
X011553Y027270D01*
X011670Y027270D01*
X011777Y027314D01*
X011865Y027409D02*
X028763Y027409D01*
X028872Y027506D02*
X017025Y027506D01*
X017024Y027506D02*
X017132Y027551D01*
X017214Y027633D01*
X017259Y027741D01*
X017259Y027857D01*
X017214Y027965D01*
X017132Y028047D01*
X017024Y028092D01*
X016907Y028092D01*
X016800Y028047D01*
X016717Y027965D01*
X016673Y027857D01*
X016673Y027741D01*
X016717Y027633D01*
X016800Y027551D01*
X016907Y027506D01*
X017024Y027506D01*
X016907Y027506D02*
X016395Y027506D01*
X016394Y027506D02*
X016502Y027551D01*
X016584Y027633D01*
X016629Y027741D01*
X016629Y027857D01*
X016584Y027965D01*
X016502Y028047D01*
X016394Y028092D01*
X016277Y028092D01*
X016170Y028047D01*
X016087Y027965D01*
X016043Y027857D01*
X016043Y027741D01*
X016087Y027633D01*
X016170Y027551D01*
X016277Y027506D01*
X011904Y027506D01*
X011904Y027603D02*
X016117Y027603D01*
X016060Y027700D02*
X011871Y027700D01*
X011791Y027797D02*
X016043Y027797D01*
X016058Y027894D02*
X005168Y027894D01*
X005168Y027797D02*
X010802Y027797D01*
X010815Y027811D02*
X010733Y027729D01*
X010688Y027621D01*
X010688Y027505D01*
X010733Y027397D01*
X010815Y027314D01*
X010923Y027270D01*
X011040Y027270D01*
X011147Y027314D01*
X011230Y027397D01*
X011274Y027505D01*
X011274Y027621D01*
X011230Y027729D01*
X011147Y027811D01*
X011040Y027856D01*
X010923Y027856D01*
X010815Y027811D01*
X010721Y027700D02*
X005168Y027700D01*
X005168Y027603D02*
X010688Y027603D01*
X010688Y027506D02*
X005168Y027506D01*
X005168Y027409D02*
X010728Y027409D01*
X010820Y027312D02*
X005168Y027312D01*
X005168Y027215D02*
X015229Y027215D01*
X015083Y027119D02*
X005168Y027119D01*
X005168Y027022D02*
X015032Y027022D01*
X015019Y026925D02*
X005168Y026925D01*
X005168Y026828D02*
X015039Y026828D01*
X015100Y026731D02*
X005168Y026731D01*
X005168Y027991D02*
X016114Y027991D01*
X016268Y028088D02*
X015602Y028088D01*
X015636Y028102D02*
X015718Y028184D01*
X015763Y028292D01*
X015763Y028372D01*
X015843Y028372D01*
X015950Y028417D01*
X016033Y028499D01*
X016077Y028607D01*
X016077Y028723D01*
X016033Y028831D01*
X015950Y028914D01*
X015843Y028958D01*
X015726Y028958D01*
X015619Y028914D01*
X015536Y028831D01*
X015492Y028723D01*
X015492Y028643D01*
X015411Y028643D01*
X015304Y028599D01*
X015221Y028516D01*
X015177Y028409D01*
X015177Y028292D01*
X015221Y028184D01*
X015304Y028102D01*
X015411Y028057D01*
X015528Y028057D01*
X015636Y028102D01*
X015718Y028185D02*
X019591Y028185D01*
X019586Y028172D02*
X019586Y028056D01*
X019631Y027948D01*
X019713Y027866D01*
X019821Y027821D01*
X019937Y027821D01*
X020045Y027866D01*
X020127Y027948D01*
X020172Y028056D01*
X020172Y028172D01*
X020127Y028280D01*
X020045Y028362D01*
X019937Y028407D01*
X019821Y028407D01*
X019713Y028362D01*
X019631Y028280D01*
X019586Y028172D01*
X019586Y028088D02*
X017033Y028088D01*
X016898Y028088D02*
X016403Y028088D01*
X016558Y027991D02*
X016744Y027991D01*
X016688Y027894D02*
X016613Y027894D01*
X016629Y027797D02*
X016673Y027797D01*
X016689Y027700D02*
X016612Y027700D01*
X016554Y027603D02*
X016747Y027603D01*
X016394Y027506D02*
X016277Y027506D01*
X017184Y027603D02*
X029461Y027603D01*
X029506Y027585D02*
X029622Y027585D01*
X029730Y027629D01*
X029812Y027712D01*
X029857Y027819D01*
X029857Y027936D01*
X029812Y028044D01*
X029730Y028126D01*
X029622Y028171D01*
X029506Y028171D01*
X029398Y028126D01*
X029316Y028044D01*
X029271Y027936D01*
X029271Y027819D01*
X029316Y027712D01*
X029398Y027629D01*
X029506Y027585D01*
X029667Y027603D02*
X030260Y027603D01*
X030260Y027506D02*
X029154Y027506D01*
X029263Y027409D02*
X030260Y027409D01*
X030260Y027312D02*
X029303Y027312D01*
X029306Y027215D02*
X030260Y027215D01*
X030260Y027119D02*
X029276Y027119D01*
X029201Y027022D02*
X030260Y027022D01*
X030260Y027700D02*
X029801Y027700D01*
X029848Y027797D02*
X030260Y027797D01*
X030260Y027894D02*
X029857Y027894D01*
X029834Y027991D02*
X030260Y027991D01*
X030260Y028088D02*
X029768Y028088D01*
X029360Y028088D02*
X020172Y028088D01*
X020167Y028185D02*
X030260Y028185D01*
X030260Y028282D02*
X020125Y028282D01*
X020005Y028379D02*
X030260Y028379D01*
X030260Y028476D02*
X016010Y028476D01*
X016063Y028573D02*
X030260Y028573D01*
X030260Y028670D02*
X016077Y028670D01*
X016059Y028767D02*
X030260Y028767D01*
X030260Y028864D02*
X016000Y028864D01*
X015569Y028864D02*
X014766Y028864D01*
X014766Y028843D02*
X014766Y028960D01*
X014722Y029067D01*
X014639Y029150D01*
X014635Y029151D01*
X014639Y029153D01*
X014722Y029235D01*
X014766Y029343D01*
X014766Y029460D01*
X014722Y029567D01*
X014639Y029650D01*
X014532Y029694D01*
X014415Y029694D01*
X014308Y029650D01*
X014225Y029567D01*
X014224Y029563D01*
X014222Y029567D01*
X014139Y029650D01*
X014032Y029694D01*
X013915Y029694D01*
X013808Y029650D01*
X013725Y029567D01*
X013724Y029563D01*
X013722Y029567D01*
X013639Y029650D01*
X013532Y029694D01*
X013415Y029694D01*
X013308Y029650D01*
X013225Y029567D01*
X013181Y029460D01*
X013181Y029343D01*
X013225Y029235D01*
X013308Y029153D01*
X013312Y029151D01*
X013308Y029150D01*
X013225Y029067D01*
X013181Y028960D01*
X013181Y028843D01*
X013225Y028735D01*
X013308Y028653D01*
X013312Y028651D01*
X013308Y028650D01*
X013225Y028567D01*
X013181Y028460D01*
X013181Y028343D01*
X013225Y028235D01*
X013308Y028153D01*
X013415Y028108D01*
X013532Y028108D01*
X013639Y028153D01*
X013722Y028235D01*
X013724Y028240D01*
X013725Y028235D01*
X013808Y028153D01*
X013915Y028108D01*
X014032Y028108D01*
X014139Y028153D01*
X014222Y028235D01*
X014224Y028240D01*
X014225Y028235D01*
X014308Y028153D01*
X014415Y028108D01*
X014532Y028108D01*
X014639Y028153D01*
X014722Y028235D01*
X014766Y028343D01*
X014766Y028460D01*
X014722Y028567D01*
X014639Y028650D01*
X014635Y028651D01*
X014639Y028653D01*
X014722Y028735D01*
X014766Y028843D01*
X014735Y028767D02*
X015510Y028767D01*
X015492Y028670D02*
X014656Y028670D01*
X014716Y028573D02*
X015278Y028573D01*
X015205Y028476D02*
X014760Y028476D01*
X014766Y028379D02*
X015177Y028379D01*
X015181Y028282D02*
X014741Y028282D01*
X014672Y028185D02*
X015221Y028185D01*
X015337Y028088D02*
X005168Y028088D01*
X005168Y028185D02*
X013276Y028185D01*
X013206Y028282D02*
X005168Y028282D01*
X005168Y028379D02*
X013181Y028379D01*
X013187Y028476D02*
X005168Y028476D01*
X005168Y028573D02*
X013231Y028573D01*
X013291Y028670D02*
X005168Y028670D01*
X005168Y028767D02*
X013212Y028767D01*
X013181Y028864D02*
X005168Y028864D01*
X005168Y028961D02*
X013181Y028961D01*
X013221Y029058D02*
X005168Y029058D01*
X005168Y029155D02*
X013306Y029155D01*
X013218Y029252D02*
X005168Y029252D01*
X005168Y029349D02*
X013181Y029349D01*
X013181Y029446D02*
X005168Y029446D01*
X005168Y029543D02*
X013215Y029543D01*
X013195Y029598D02*
X013277Y029680D01*
X013322Y029788D01*
X013322Y029905D01*
X013304Y029947D01*
X013402Y029947D01*
X013510Y029992D01*
X013592Y030074D01*
X013637Y030182D01*
X013637Y030298D01*
X013592Y030406D01*
X013510Y030488D01*
X013402Y030533D01*
X013285Y030533D01*
X013178Y030488D01*
X013095Y030406D01*
X013051Y030298D01*
X013051Y030182D01*
X013068Y030139D01*
X012970Y030139D01*
X012863Y030095D01*
X012780Y030012D01*
X012736Y029905D01*
X012736Y029788D01*
X012780Y029680D01*
X012863Y029598D01*
X012970Y029553D01*
X013087Y029553D01*
X013195Y029598D01*
X013236Y029640D02*
X013298Y029640D01*
X013300Y029737D02*
X030260Y029737D01*
X030260Y029834D02*
X013322Y029834D01*
X013311Y029931D02*
X030260Y029931D01*
X030260Y030028D02*
X013545Y030028D01*
X013613Y030125D02*
X030260Y030125D01*
X030260Y030221D02*
X017116Y030221D01*
X017132Y030228D02*
X017214Y030310D01*
X017259Y030418D01*
X017259Y030534D01*
X017214Y030642D01*
X017132Y030725D01*
X017024Y030769D01*
X016907Y030769D01*
X016835Y030739D01*
X016865Y030812D01*
X016865Y030928D01*
X016820Y031036D01*
X016738Y031118D01*
X016630Y031163D01*
X016514Y031163D01*
X016406Y031118D01*
X016324Y031036D01*
X016279Y030928D01*
X016279Y030812D01*
X016297Y030769D01*
X016277Y030769D01*
X016170Y030725D01*
X016087Y030642D01*
X016043Y030534D01*
X016043Y030418D01*
X016087Y030310D01*
X016170Y030228D01*
X016277Y030183D01*
X016394Y030183D01*
X016502Y030228D01*
X016584Y030310D01*
X016629Y030418D01*
X016629Y030534D01*
X016611Y030577D01*
X016630Y030577D01*
X016703Y030607D01*
X016673Y030534D01*
X016673Y030418D01*
X016717Y030310D01*
X016800Y030228D01*
X016907Y030183D01*
X017024Y030183D01*
X017132Y030228D01*
X017217Y030318D02*
X030260Y030318D01*
X030260Y030415D02*
X017258Y030415D01*
X017259Y030512D02*
X030260Y030512D01*
X030260Y030609D02*
X017228Y030609D01*
X017150Y030706D02*
X030260Y030706D01*
X030260Y030803D02*
X016861Y030803D01*
X016865Y030900D02*
X030260Y030900D01*
X030260Y030997D02*
X016836Y030997D01*
X016762Y031094D02*
X030260Y031094D01*
X030260Y031191D02*
X011111Y031191D01*
X011117Y031205D02*
X011072Y031098D01*
X010990Y031015D01*
X010882Y030971D01*
X010766Y030971D01*
X010658Y031015D01*
X010576Y031098D01*
X010531Y031205D01*
X010531Y031322D01*
X010576Y031430D01*
X010658Y031512D01*
X010766Y031557D01*
X010882Y031557D01*
X010990Y031512D01*
X011072Y031430D01*
X011117Y031322D01*
X011117Y031205D01*
X011117Y031288D02*
X016369Y031288D01*
X016406Y031251D02*
X016514Y031207D01*
X016630Y031207D01*
X016738Y031251D01*
X016820Y031334D01*
X016865Y031442D01*
X016865Y031558D01*
X016820Y031666D01*
X016738Y031748D01*
X016630Y031793D01*
X016514Y031793D01*
X016406Y031748D01*
X016324Y031666D01*
X016279Y031558D01*
X016279Y031442D01*
X016324Y031334D01*
X016406Y031251D01*
X016382Y031094D02*
X011069Y031094D01*
X010946Y030997D02*
X016308Y030997D01*
X016279Y030900D02*
X005168Y030900D01*
X005168Y030803D02*
X016282Y030803D01*
X016152Y030706D02*
X005168Y030706D01*
X005168Y030609D02*
X016074Y030609D01*
X016043Y030512D02*
X013451Y030512D01*
X013582Y030415D02*
X016044Y030415D01*
X016084Y030318D02*
X013628Y030318D01*
X013637Y030221D02*
X016185Y030221D01*
X016486Y030221D02*
X016815Y030221D01*
X016714Y030318D02*
X016587Y030318D01*
X016628Y030415D02*
X016674Y030415D01*
X016673Y030512D02*
X016629Y030512D01*
X016775Y031288D02*
X030260Y031288D01*
X030260Y031385D02*
X016841Y031385D01*
X016865Y031482D02*
X030260Y031482D01*
X030260Y031579D02*
X016856Y031579D01*
X016810Y031676D02*
X030260Y031676D01*
X030260Y031773D02*
X016678Y031773D01*
X016466Y031773D02*
X011091Y031773D01*
X011072Y031728D02*
X011117Y031835D01*
X011117Y031952D01*
X011072Y032059D01*
X010990Y032142D01*
X010882Y032186D01*
X010766Y032186D01*
X010658Y032142D01*
X010576Y032059D01*
X010531Y031952D01*
X010531Y031835D01*
X010576Y031728D01*
X010658Y031645D01*
X010766Y031601D01*
X010882Y031601D01*
X010990Y031645D01*
X011072Y031728D01*
X011021Y031676D02*
X016334Y031676D01*
X016288Y031579D02*
X005168Y031579D01*
X005168Y031482D02*
X010628Y031482D01*
X010557Y031385D02*
X005168Y031385D01*
X005168Y031288D02*
X010531Y031288D01*
X010537Y031191D02*
X005168Y031191D01*
X005168Y031094D02*
X010579Y031094D01*
X010701Y030997D02*
X005168Y030997D01*
X005168Y031676D02*
X010627Y031676D01*
X010557Y031773D02*
X005168Y031773D01*
X005168Y031870D02*
X009268Y031870D01*
X009241Y031881D02*
X009348Y031837D01*
X009465Y031837D01*
X009573Y031881D01*
X009655Y031964D01*
X009700Y032071D01*
X009700Y032188D01*
X009655Y032296D01*
X009573Y032378D01*
X009465Y032423D01*
X009348Y032423D01*
X009241Y032378D01*
X009158Y032296D01*
X009114Y032188D01*
X009114Y032071D01*
X009158Y031964D01*
X009241Y031881D01*
X009157Y031967D02*
X005168Y031967D01*
X005168Y032064D02*
X009117Y032064D01*
X009114Y032161D02*
X005168Y032161D01*
X005168Y032258D02*
X009143Y032258D01*
X009217Y032355D02*
X005168Y032355D01*
X005168Y032452D02*
X024237Y032452D01*
X024232Y032465D02*
X024276Y032358D01*
X024359Y032275D01*
X024466Y032231D01*
X024583Y032231D01*
X024691Y032275D01*
X024773Y032358D01*
X024818Y032465D01*
X024818Y032582D01*
X024773Y032689D01*
X024691Y032772D01*
X024583Y032816D01*
X024466Y032816D01*
X024359Y032772D01*
X024276Y032689D01*
X024232Y032582D01*
X024232Y032465D01*
X024232Y032549D02*
X005168Y032549D01*
X005168Y032646D02*
X024258Y032646D01*
X024330Y032743D02*
X005168Y032743D01*
X005168Y032840D02*
X030260Y032840D01*
X030260Y032937D02*
X005168Y032937D01*
X005168Y033034D02*
X024309Y033034D01*
X024276Y033066D02*
X024359Y032984D01*
X024466Y032939D01*
X024583Y032939D01*
X024691Y032984D01*
X024773Y033066D01*
X024818Y033174D01*
X024818Y033290D01*
X024773Y033398D01*
X024691Y033480D01*
X024583Y033525D01*
X024466Y033525D01*
X024359Y033480D01*
X024276Y033398D01*
X024232Y033290D01*
X024232Y033174D01*
X024276Y033066D01*
X024250Y033131D02*
X005168Y033131D01*
X005168Y033228D02*
X024232Y033228D01*
X024246Y033324D02*
X005168Y033324D01*
X005168Y033421D02*
X024300Y033421D01*
X024450Y033518D02*
X005168Y033518D01*
X005168Y033615D02*
X025791Y033615D01*
X025791Y033518D02*
X024599Y033518D01*
X024750Y033421D02*
X025828Y033421D01*
X025791Y033510D02*
X025880Y033295D01*
X026044Y033131D01*
X026259Y033042D01*
X026491Y033042D01*
X026706Y033131D01*
X026870Y033295D01*
X026959Y033510D01*
X026959Y033742D01*
X026870Y033957D01*
X026706Y034121D01*
X026491Y034210D01*
X026259Y034210D01*
X026044Y034121D01*
X025880Y033957D01*
X025791Y033742D01*
X025791Y033510D01*
X025868Y033324D02*
X024804Y033324D01*
X024818Y033228D02*
X025948Y033228D01*
X026045Y033131D02*
X024800Y033131D01*
X024740Y033034D02*
X030260Y033034D01*
X030260Y033131D02*
X029461Y033131D01*
X029462Y033131D02*
X029626Y033295D01*
X029715Y033510D01*
X029715Y033742D01*
X029626Y033957D01*
X029462Y034121D01*
X029247Y034210D01*
X029015Y034210D01*
X028800Y034121D01*
X028636Y033957D01*
X028547Y033742D01*
X028547Y033510D01*
X028636Y033295D01*
X028800Y033131D01*
X029015Y033042D01*
X029247Y033042D01*
X029462Y033131D01*
X029558Y033228D02*
X030260Y033228D01*
X030260Y033324D02*
X029638Y033324D01*
X029678Y033421D02*
X030260Y033421D01*
X030260Y033518D02*
X029715Y033518D01*
X029715Y033615D02*
X030260Y033615D01*
X030260Y033712D02*
X029715Y033712D01*
X029687Y033809D02*
X030260Y033809D01*
X030260Y033906D02*
X029647Y033906D01*
X029579Y034003D02*
X030260Y034003D01*
X030260Y034100D02*
X029482Y034100D01*
X029506Y034120D02*
X029622Y034120D01*
X029730Y034165D01*
X029812Y034247D01*
X029857Y034355D01*
X029857Y034471D01*
X029812Y034579D01*
X029730Y034662D01*
X029622Y034706D01*
X029506Y034706D01*
X029398Y034662D01*
X029316Y034579D01*
X029271Y034471D01*
X029271Y034355D01*
X029316Y034247D01*
X029398Y034165D01*
X029506Y034120D01*
X029366Y034197D02*
X029277Y034197D01*
X029296Y034294D02*
X024627Y034294D01*
X024583Y034312D02*
X024691Y034268D01*
X024773Y034185D01*
X024818Y034078D01*
X024818Y033961D01*
X024773Y033854D01*
X024691Y033771D01*
X024583Y033727D01*
X024466Y033727D01*
X024359Y033771D01*
X024276Y033854D01*
X024232Y033961D01*
X024232Y034078D01*
X024276Y034185D01*
X024359Y034268D01*
X024466Y034312D01*
X024583Y034312D01*
X024583Y034435D02*
X024691Y034480D01*
X024773Y034562D01*
X024818Y034670D01*
X024818Y034786D01*
X024773Y034894D01*
X024691Y034976D01*
X024583Y035021D01*
X024466Y035021D01*
X024359Y034976D01*
X024276Y034894D01*
X024232Y034786D01*
X024232Y034670D01*
X024276Y034562D01*
X024359Y034480D01*
X024466Y034435D01*
X024583Y034435D01*
X024699Y034488D02*
X029278Y034488D01*
X029271Y034391D02*
X005168Y034391D01*
X005168Y034294D02*
X024422Y034294D01*
X024288Y034197D02*
X005168Y034197D01*
X005168Y034100D02*
X024241Y034100D01*
X024232Y034003D02*
X005168Y034003D01*
X005168Y033906D02*
X024255Y033906D01*
X024321Y033809D02*
X005168Y033809D01*
X005168Y033712D02*
X025791Y033712D01*
X025819Y033809D02*
X024729Y033809D01*
X024795Y033906D02*
X025859Y033906D01*
X025927Y034003D02*
X024818Y034003D01*
X024808Y034100D02*
X026024Y034100D01*
X026229Y034197D02*
X024761Y034197D01*
X024782Y034585D02*
X029322Y034585D01*
X029448Y034682D02*
X024818Y034682D01*
X024818Y034779D02*
X030260Y034779D01*
X030260Y034876D02*
X029181Y034876D01*
X029179Y034874D02*
X029261Y034956D01*
X029306Y035064D01*
X029306Y035180D01*
X029261Y035288D01*
X029179Y035370D01*
X029071Y035415D01*
X028955Y035415D01*
X028847Y035370D01*
X028765Y035288D01*
X028720Y035180D01*
X028720Y035064D01*
X028765Y034956D01*
X028847Y034874D01*
X028955Y034829D01*
X029071Y034829D01*
X029179Y034874D01*
X029268Y034973D02*
X030260Y034973D01*
X030260Y035070D02*
X029306Y035070D01*
X029306Y035167D02*
X030260Y035167D01*
X030260Y035264D02*
X029271Y035264D01*
X029188Y035361D02*
X030260Y035361D01*
X030260Y035458D02*
X005168Y035458D01*
X005168Y035555D02*
X029347Y035555D01*
X029316Y035586D02*
X029398Y035503D01*
X029506Y035459D01*
X029622Y035459D01*
X029730Y035503D01*
X029812Y035586D01*
X029857Y035694D01*
X029857Y035810D01*
X029812Y035918D01*
X029730Y036000D01*
X029622Y036045D01*
X029506Y036045D01*
X029398Y036000D01*
X029316Y035918D01*
X029271Y035810D01*
X029271Y035694D01*
X029316Y035586D01*
X029288Y035652D02*
X005168Y035652D01*
X005168Y035749D02*
X029271Y035749D01*
X029286Y035846D02*
X005168Y035846D01*
X005168Y035943D02*
X029341Y035943D01*
X029493Y036040D02*
X005168Y036040D01*
X005168Y036137D02*
X030260Y036137D01*
X030260Y036234D02*
X005168Y036234D01*
X005168Y036331D02*
X030260Y036331D01*
X030260Y036427D02*
X005168Y036427D01*
X005168Y036524D02*
X030260Y036524D01*
X030260Y036621D02*
X005168Y036621D01*
X005168Y036718D02*
X030260Y036718D01*
X030260Y036815D02*
X005168Y036815D01*
X005168Y036912D02*
X030260Y036912D01*
X030260Y037009D02*
X005168Y037009D01*
X005168Y037106D02*
X030260Y037106D01*
X030260Y037203D02*
X005168Y037203D01*
X005168Y037300D02*
X030260Y037300D01*
X030260Y036040D02*
X029635Y036040D01*
X029787Y035943D02*
X030260Y035943D01*
X030260Y035846D02*
X029842Y035846D01*
X029857Y035749D02*
X030260Y035749D01*
X030260Y035652D02*
X029840Y035652D01*
X029781Y035555D02*
X030260Y035555D01*
X030260Y034682D02*
X029681Y034682D01*
X029806Y034585D02*
X030260Y034585D01*
X030260Y034488D02*
X029850Y034488D01*
X029857Y034391D02*
X030260Y034391D01*
X030260Y034294D02*
X029832Y034294D01*
X029762Y034197D02*
X030260Y034197D01*
X028985Y034197D02*
X026521Y034197D01*
X026726Y034100D02*
X028780Y034100D01*
X028683Y034003D02*
X026823Y034003D01*
X026891Y033906D02*
X028615Y033906D01*
X028575Y033809D02*
X026931Y033809D01*
X026959Y033712D02*
X028547Y033712D01*
X028547Y033615D02*
X026959Y033615D01*
X026959Y033518D02*
X028547Y033518D01*
X028584Y033421D02*
X026922Y033421D01*
X026882Y033324D02*
X028624Y033324D01*
X028704Y033228D02*
X026802Y033228D01*
X026705Y033131D02*
X028801Y033131D01*
X030260Y032743D02*
X024720Y032743D01*
X024791Y032646D02*
X030260Y032646D01*
X030260Y032549D02*
X024818Y032549D01*
X024812Y032452D02*
X030260Y032452D01*
X030260Y032355D02*
X024770Y032355D01*
X024649Y032258D02*
X030260Y032258D01*
X030260Y032161D02*
X012849Y032161D01*
X012849Y032188D02*
X012805Y032296D01*
X012722Y032378D01*
X012614Y032423D01*
X012498Y032423D01*
X012390Y032378D01*
X012308Y032296D01*
X012263Y032188D01*
X012263Y032071D01*
X012308Y031964D01*
X012390Y031881D01*
X012498Y031837D01*
X012614Y031837D01*
X012722Y031881D01*
X012805Y031964D01*
X012849Y032071D01*
X012849Y032188D01*
X012820Y032258D02*
X024400Y032258D01*
X024279Y032355D02*
X012745Y032355D01*
X012846Y032064D02*
X030260Y032064D01*
X030260Y031967D02*
X012806Y031967D01*
X012694Y031870D02*
X030260Y031870D01*
X030260Y029640D02*
X014649Y029640D01*
X014732Y029543D02*
X030260Y029543D01*
X030260Y029446D02*
X014766Y029446D01*
X014766Y029349D02*
X030260Y029349D01*
X030260Y029252D02*
X014729Y029252D01*
X014641Y029155D02*
X030260Y029155D01*
X030260Y029058D02*
X014726Y029058D01*
X014766Y028961D02*
X030260Y028961D01*
X029294Y027991D02*
X020145Y027991D01*
X020074Y027894D02*
X029271Y027894D01*
X029280Y027797D02*
X017259Y027797D01*
X017242Y027700D02*
X029327Y027700D01*
X028799Y026246D02*
X026707Y026246D01*
X026804Y026149D02*
X028702Y026149D01*
X028623Y026052D02*
X026883Y026052D01*
X026923Y025955D02*
X028583Y025955D01*
X028547Y025858D02*
X026959Y025858D01*
X026959Y025761D02*
X028547Y025761D01*
X028547Y025664D02*
X026959Y025664D01*
X026930Y025567D02*
X028576Y025567D01*
X028616Y025470D02*
X026890Y025470D01*
X026822Y025373D02*
X028684Y025373D01*
X028781Y025276D02*
X026725Y025276D01*
X026518Y025179D02*
X028988Y025179D01*
X030260Y023434D02*
X012645Y023434D01*
X012787Y023337D02*
X030260Y023337D01*
X030260Y023240D02*
X012838Y023240D01*
X012849Y023143D02*
X030260Y023143D01*
X030260Y023046D02*
X012829Y023046D01*
X012766Y022949D02*
X030260Y022949D01*
X030260Y022658D02*
X012538Y022658D01*
X012697Y022561D02*
X030260Y022561D01*
X030260Y022464D02*
X012754Y022464D01*
X012770Y022367D02*
X030260Y022367D01*
X030260Y022270D02*
X012755Y022270D01*
X012699Y022173D02*
X030260Y022173D01*
X029380Y020234D02*
X005168Y020234D01*
X005168Y020137D02*
X029302Y020137D01*
X029271Y020040D02*
X005168Y020040D01*
X005168Y019943D02*
X029272Y019943D01*
X029312Y019846D02*
X005168Y019846D01*
X005168Y019749D02*
X029414Y019749D01*
X029246Y019555D02*
X030260Y019555D01*
X030260Y019458D02*
X029295Y019458D01*
X029306Y019361D02*
X030260Y019361D01*
X030260Y019264D02*
X029284Y019264D01*
X029220Y019167D02*
X030260Y019167D01*
X030260Y019070D02*
X014660Y019070D01*
X014649Y018973D02*
X023631Y018973D01*
X023554Y018876D02*
X014599Y018876D01*
X014639Y019167D02*
X028805Y019167D01*
X029316Y018831D02*
X029271Y018723D01*
X029271Y018607D01*
X029316Y018499D01*
X029398Y018417D01*
X029506Y018372D01*
X029622Y018372D01*
X029730Y018417D01*
X029812Y018499D01*
X029857Y018607D01*
X029857Y018723D01*
X029812Y018831D01*
X029730Y018914D01*
X029622Y018958D01*
X029506Y018958D01*
X029398Y018914D01*
X029316Y018831D01*
X029294Y018779D02*
X024896Y018779D01*
X024895Y018682D02*
X029271Y018682D01*
X029280Y018585D02*
X024855Y018585D01*
X024752Y018488D02*
X029327Y018488D01*
X029247Y018462D02*
X029015Y018462D01*
X028800Y018373D01*
X028636Y018209D01*
X028547Y017994D01*
X028547Y017762D01*
X028636Y017547D01*
X028800Y017383D01*
X029015Y017294D01*
X029247Y017294D01*
X029462Y017383D01*
X029626Y017547D01*
X029715Y017762D01*
X029715Y017994D01*
X029626Y018209D01*
X029462Y018373D01*
X029247Y018462D01*
X029417Y018391D02*
X029460Y018391D01*
X029540Y018294D02*
X030260Y018294D01*
X030260Y018197D02*
X029631Y018197D01*
X029671Y018100D02*
X030260Y018100D01*
X030260Y018003D02*
X029711Y018003D01*
X029715Y017906D02*
X030260Y017906D01*
X030260Y017810D02*
X029715Y017810D01*
X029694Y017713D02*
X030260Y017713D01*
X030260Y017616D02*
X029654Y017616D01*
X029598Y017519D02*
X030260Y017519D01*
X030260Y017422D02*
X029501Y017422D01*
X029321Y017325D02*
X030260Y017325D01*
X030260Y017228D02*
X024802Y017228D01*
X024871Y017131D02*
X030260Y017131D01*
X030260Y017034D02*
X024896Y017034D01*
X024889Y016937D02*
X030260Y016937D01*
X030260Y016840D02*
X024846Y016840D01*
X024720Y016743D02*
X030260Y016743D01*
X030260Y016258D02*
X017552Y016258D01*
X017604Y016236D02*
X017496Y016281D01*
X017380Y016281D01*
X017272Y016236D01*
X017190Y016154D01*
X017145Y016046D01*
X017145Y015930D01*
X017190Y015822D01*
X017272Y015740D01*
X017380Y015695D01*
X017496Y015695D01*
X017604Y015740D01*
X017686Y015822D01*
X017731Y015930D01*
X017731Y016046D01*
X017686Y016154D01*
X017604Y016236D01*
X017679Y016161D02*
X030260Y016161D01*
X030260Y016064D02*
X017724Y016064D01*
X017731Y015967D02*
X030260Y015967D01*
X030260Y015870D02*
X017706Y015870D01*
X017638Y015773D02*
X030260Y015773D01*
X030260Y015676D02*
X016594Y015676D01*
X016583Y015687D02*
X016440Y015746D01*
X016286Y015746D01*
X016144Y015687D01*
X016034Y015578D01*
X015975Y015435D01*
X015975Y015281D01*
X016034Y015138D01*
X016144Y015029D01*
X016286Y014970D01*
X016440Y014970D01*
X016583Y015029D01*
X016692Y015138D01*
X016751Y015281D01*
X016751Y015435D01*
X016692Y015578D01*
X016583Y015687D01*
X016691Y015579D02*
X030260Y015579D01*
X030260Y015482D02*
X016732Y015482D01*
X016751Y015385D02*
X030260Y015385D01*
X030260Y015288D02*
X016751Y015288D01*
X016714Y015191D02*
X030260Y015191D01*
X030260Y015094D02*
X016648Y015094D01*
X016506Y014997D02*
X030260Y014997D01*
X030260Y014900D02*
X012027Y014900D01*
X012062Y014997D02*
X015220Y014997D01*
X015078Y015094D02*
X012062Y015094D01*
X012024Y015191D02*
X015012Y015191D01*
X014975Y015288D02*
X011938Y015288D01*
X011943Y014804D02*
X030260Y014804D01*
X029556Y014222D02*
X017840Y014222D01*
X017811Y014234D02*
X017695Y014234D01*
X017587Y014189D01*
X017505Y014107D01*
X017460Y013999D01*
X017460Y013882D01*
X017505Y013775D01*
X017587Y013692D01*
X017695Y013648D01*
X017811Y013648D01*
X017919Y013692D01*
X018001Y013775D01*
X018046Y013882D01*
X018046Y013999D01*
X018001Y014107D01*
X017919Y014189D01*
X017811Y014234D01*
X017666Y014222D02*
X017210Y014222D01*
X017181Y014234D02*
X017065Y014234D01*
X016957Y014189D01*
X016875Y014107D01*
X016830Y013999D01*
X016830Y013882D01*
X016875Y013775D01*
X016957Y013692D01*
X017065Y013648D01*
X017181Y013648D01*
X017289Y013692D01*
X017371Y013775D01*
X017416Y013882D01*
X017416Y013999D01*
X017371Y014107D01*
X017289Y014189D01*
X017181Y014234D01*
X017036Y014222D02*
X005168Y014222D01*
X005168Y014125D02*
X016893Y014125D01*
X016842Y014028D02*
X005168Y014028D01*
X005168Y013931D02*
X016830Y013931D01*
X016850Y013834D02*
X005168Y013834D01*
X005168Y013737D02*
X016913Y013737D01*
X017333Y013737D02*
X017543Y013737D01*
X017480Y013834D02*
X017396Y013834D01*
X017416Y013931D02*
X017460Y013931D01*
X017472Y014028D02*
X017404Y014028D01*
X017353Y014125D02*
X017523Y014125D01*
X017983Y014125D02*
X029413Y014125D01*
X029362Y014028D02*
X018034Y014028D01*
X018046Y013931D02*
X029350Y013931D01*
X029370Y013834D02*
X018026Y013834D01*
X017963Y013737D02*
X029432Y013737D01*
X029510Y013543D02*
X030260Y013543D01*
X030260Y013446D02*
X029589Y013446D01*
X029621Y013349D02*
X030260Y013349D01*
X030260Y013252D02*
X029621Y013252D01*
X029580Y013155D02*
X030260Y013155D01*
X030260Y013058D02*
X029483Y013058D01*
X030260Y010440D02*
X024975Y010440D01*
X025035Y010343D02*
X030260Y010343D01*
X030260Y010246D02*
X025054Y010246D01*
X025040Y010149D02*
X030260Y010149D01*
X030260Y010052D02*
X024987Y010052D01*
X024839Y009955D02*
X030260Y009955D01*
X030260Y009858D02*
X024647Y009858D01*
X024660Y009761D02*
X030260Y009761D01*
X030260Y009664D02*
X024826Y009664D01*
X024696Y009664D02*
X024641Y009664D01*
X024594Y009955D02*
X024683Y009955D01*
X024535Y010052D02*
X024446Y010052D01*
X024982Y009567D02*
X030260Y009567D01*
X030260Y009470D02*
X025038Y009470D01*
X025054Y009373D02*
X030260Y009373D01*
X030260Y009276D02*
X025038Y009276D01*
X024981Y009179D02*
X030260Y009179D01*
X030260Y009082D02*
X024823Y009082D01*
X024818Y008985D02*
X030260Y008985D01*
X030260Y008888D02*
X024804Y008888D01*
X024750Y008791D02*
X030260Y008791D01*
X030260Y008694D02*
X024601Y008694D01*
X024449Y008694D02*
X013007Y008694D01*
X013003Y008598D02*
X013098Y008598D01*
X013099Y008599D02*
X013017Y008516D01*
X012972Y008409D01*
X012972Y008292D01*
X013017Y008184D01*
X013099Y008102D01*
X013207Y008057D01*
X013226Y008057D01*
X013208Y008015D01*
X013208Y007898D01*
X013253Y007791D01*
X013335Y007708D01*
X013443Y007664D01*
X013559Y007664D01*
X013667Y007708D01*
X013749Y007791D01*
X013794Y007898D01*
X013794Y008015D01*
X013749Y008122D01*
X013667Y008205D01*
X013559Y008249D01*
X013540Y008249D01*
X013558Y008292D01*
X013558Y008409D01*
X013513Y008516D01*
X013431Y008599D01*
X013323Y008643D01*
X013207Y008643D01*
X013099Y008599D01*
X013010Y008501D02*
X012963Y008501D01*
X012972Y008404D02*
X012848Y008404D01*
X012972Y008307D02*
X012667Y008307D01*
X012796Y008210D02*
X013006Y008210D01*
X013088Y008113D02*
X012841Y008113D01*
X012849Y008016D02*
X013209Y008016D01*
X013208Y007919D02*
X012825Y007919D01*
X012757Y007822D02*
X013240Y007822D01*
X013319Y007725D02*
X009186Y007725D01*
X009270Y007628D02*
X015199Y007628D01*
X015225Y007654D02*
X015143Y007571D01*
X015098Y007464D01*
X015098Y007347D01*
X015143Y007239D01*
X015225Y007157D01*
X015333Y007112D01*
X015449Y007112D01*
X015557Y007157D01*
X015639Y007239D01*
X015684Y007347D01*
X015684Y007464D01*
X015639Y007571D01*
X015557Y007654D01*
X015449Y007698D01*
X015333Y007698D01*
X015225Y007654D01*
X015126Y007531D02*
X009306Y007531D01*
X009306Y007434D02*
X015098Y007434D01*
X015102Y007337D02*
X010834Y007337D01*
X010832Y007339D02*
X010725Y007383D01*
X010608Y007383D01*
X010501Y007339D01*
X010418Y007256D01*
X010379Y007162D01*
X010360Y007181D01*
X010252Y007226D01*
X010136Y007226D01*
X010028Y007181D01*
X009946Y007099D01*
X009901Y006991D01*
X009901Y006875D01*
X009946Y006767D01*
X010028Y006685D01*
X010136Y006640D01*
X010252Y006640D01*
X010360Y006685D01*
X010442Y006767D01*
X010481Y006861D01*
X010501Y006842D01*
X010608Y006797D01*
X010725Y006797D01*
X010832Y006842D01*
X010915Y006924D01*
X010959Y007032D01*
X010959Y007149D01*
X010915Y007256D01*
X010832Y007339D01*
X010922Y007240D02*
X015142Y007240D01*
X015259Y007143D02*
X010959Y007143D01*
X010959Y007046D02*
X016460Y007046D01*
X016514Y007068D02*
X016406Y007024D01*
X016324Y006941D01*
X016279Y006834D01*
X016279Y006717D01*
X016324Y006609D01*
X016406Y006527D01*
X016514Y006482D01*
X016630Y006482D01*
X016738Y006527D01*
X016820Y006609D01*
X016865Y006717D01*
X016865Y006834D01*
X016820Y006941D01*
X016738Y007024D01*
X016630Y007068D01*
X016514Y007068D01*
X016684Y007046D02*
X017405Y007046D01*
X017459Y007068D02*
X017351Y007024D01*
X017269Y006941D01*
X017224Y006834D01*
X017224Y006717D01*
X017269Y006609D01*
X017351Y006527D01*
X017459Y006482D01*
X017575Y006482D01*
X017683Y006527D01*
X017765Y006609D01*
X017810Y006717D01*
X017810Y006834D01*
X017765Y006941D01*
X017683Y007024D01*
X017575Y007068D01*
X017459Y007068D01*
X017629Y007046D02*
X021948Y007046D01*
X021948Y007070D02*
X021948Y006953D01*
X021993Y006846D01*
X022063Y006775D01*
X021993Y006705D01*
X021948Y006597D01*
X021948Y006481D01*
X021993Y006373D01*
X022075Y006291D01*
X022183Y006246D01*
X022300Y006246D01*
X022407Y006291D01*
X022490Y006373D01*
X022534Y006481D01*
X022534Y006597D01*
X022490Y006705D01*
X022419Y006775D01*
X022490Y006846D01*
X022534Y006953D01*
X022534Y007070D01*
X022490Y007178D01*
X022407Y007260D01*
X022300Y007305D01*
X022183Y007305D01*
X022075Y007260D01*
X021993Y007178D01*
X021948Y007070D01*
X021979Y007143D02*
X017098Y007143D01*
X017132Y007157D02*
X017214Y007239D01*
X017259Y007347D01*
X017259Y007464D01*
X017214Y007571D01*
X017132Y007654D01*
X017024Y007698D01*
X016907Y007698D01*
X016800Y007654D01*
X016717Y007571D01*
X016673Y007464D01*
X016673Y007347D01*
X016717Y007239D01*
X016800Y007157D01*
X016907Y007112D01*
X017024Y007112D01*
X017132Y007157D01*
X017214Y007240D02*
X022055Y007240D01*
X021950Y006949D02*
X017757Y006949D01*
X017802Y006852D02*
X021990Y006852D01*
X022043Y006755D02*
X017810Y006755D01*
X017785Y006658D02*
X021973Y006658D01*
X021948Y006561D02*
X017717Y006561D01*
X017317Y006561D02*
X016772Y006561D01*
X016840Y006658D02*
X017248Y006658D01*
X017224Y006755D02*
X016865Y006755D01*
X016857Y006852D02*
X017232Y006852D01*
X017276Y006949D02*
X016813Y006949D01*
X016834Y007143D02*
X015523Y007143D01*
X015639Y007240D02*
X016717Y007240D01*
X016677Y007337D02*
X015680Y007337D01*
X015684Y007434D02*
X016673Y007434D01*
X016701Y007531D02*
X015656Y007531D01*
X015583Y007628D02*
X016774Y007628D01*
X017157Y007628D02*
X025384Y007628D01*
X025379Y007633D02*
X025461Y007551D01*
X025569Y007506D01*
X025685Y007506D01*
X025793Y007551D01*
X025875Y007633D01*
X025920Y007741D01*
X025920Y007857D01*
X025875Y007965D01*
X025793Y008047D01*
X025685Y008092D01*
X025569Y008092D01*
X025461Y008047D01*
X025379Y007965D01*
X025334Y007857D01*
X025334Y007741D01*
X025379Y007633D01*
X025341Y007725D02*
X013684Y007725D01*
X013762Y007822D02*
X025334Y007822D01*
X025360Y007919D02*
X013794Y007919D01*
X013794Y008016D02*
X025429Y008016D01*
X025825Y008016D02*
X027870Y008016D01*
X027902Y008047D02*
X027820Y007965D01*
X027775Y007857D01*
X027775Y007741D01*
X027820Y007633D01*
X027902Y007551D01*
X028010Y007506D01*
X028126Y007506D01*
X028234Y007551D01*
X028316Y007633D01*
X028361Y007741D01*
X028361Y007857D01*
X028316Y007965D01*
X028234Y008047D01*
X028126Y008092D01*
X028010Y008092D01*
X027902Y008047D01*
X027801Y007919D02*
X025895Y007919D01*
X025920Y007822D02*
X027775Y007822D01*
X027782Y007725D02*
X025913Y007725D01*
X025870Y007628D02*
X027825Y007628D01*
X027950Y007531D02*
X025745Y007531D01*
X025509Y007531D02*
X017231Y007531D01*
X017259Y007434D02*
X030260Y007434D01*
X030260Y007531D02*
X029997Y007531D01*
X030045Y007551D02*
X029937Y007506D01*
X029821Y007506D01*
X029713Y007551D01*
X029631Y007633D01*
X029603Y007699D01*
X029576Y007633D01*
X029494Y007551D01*
X029386Y007506D01*
X029270Y007506D01*
X029162Y007551D01*
X029080Y007633D01*
X029035Y007741D01*
X029035Y007857D01*
X029080Y007965D01*
X029162Y008047D01*
X029270Y008092D01*
X029386Y008092D01*
X029494Y008047D01*
X029576Y007965D01*
X029603Y007899D01*
X029631Y007965D01*
X029713Y008047D01*
X029821Y008092D01*
X029937Y008092D01*
X030045Y008047D01*
X030127Y007965D01*
X030172Y007857D01*
X030172Y007741D01*
X030127Y007633D01*
X030045Y007551D01*
X030122Y007628D02*
X030260Y007628D01*
X030260Y007725D02*
X030165Y007725D01*
X030172Y007822D02*
X030260Y007822D01*
X030260Y007919D02*
X030147Y007919D01*
X030077Y008016D02*
X030260Y008016D01*
X030260Y008113D02*
X021631Y008113D01*
X021620Y008102D02*
X021702Y008184D01*
X021747Y008292D01*
X021747Y008409D01*
X021702Y008516D01*
X021620Y008599D01*
X021512Y008643D01*
X021396Y008643D01*
X021288Y008599D01*
X021206Y008516D01*
X021161Y008409D01*
X021161Y008292D01*
X021206Y008184D01*
X021288Y008102D01*
X021396Y008057D01*
X021512Y008057D01*
X021620Y008102D01*
X021713Y008210D02*
X030260Y008210D01*
X030260Y008307D02*
X021747Y008307D01*
X021747Y008404D02*
X030260Y008404D01*
X030260Y008501D02*
X021709Y008501D01*
X021621Y008598D02*
X030260Y008598D01*
X029681Y008016D02*
X029525Y008016D01*
X029595Y007919D02*
X029612Y007919D01*
X029636Y007628D02*
X029571Y007628D01*
X029446Y007531D02*
X029761Y007531D01*
X030260Y007337D02*
X017254Y007337D01*
X016331Y006949D02*
X010925Y006949D01*
X010842Y006852D02*
X011510Y006852D01*
X011524Y006866D02*
X011442Y006784D01*
X011397Y006676D01*
X011397Y006560D01*
X011442Y006452D01*
X011524Y006370D01*
X011632Y006325D01*
X011748Y006325D01*
X011856Y006370D01*
X011938Y006452D01*
X011983Y006560D01*
X011983Y006676D01*
X011938Y006784D01*
X011856Y006866D01*
X011748Y006911D01*
X011632Y006911D01*
X011524Y006866D01*
X011430Y006755D02*
X010430Y006755D01*
X010478Y006852D02*
X010490Y006852D01*
X010296Y006658D02*
X011397Y006658D01*
X011397Y006561D02*
X009524Y006561D01*
X009542Y006464D02*
X011437Y006464D01*
X011530Y006367D02*
X009528Y006367D01*
X009473Y006270D02*
X022125Y006270D01*
X021999Y006367D02*
X016024Y006367D01*
X016029Y006370D02*
X016112Y006452D01*
X016156Y006560D01*
X016156Y006676D01*
X016112Y006784D01*
X016029Y006866D01*
X015922Y006911D01*
X015805Y006911D01*
X015697Y006866D01*
X015615Y006784D01*
X015570Y006676D01*
X015570Y006560D01*
X015615Y006452D01*
X015697Y006370D01*
X015805Y006325D01*
X015922Y006325D01*
X016029Y006370D01*
X016117Y006464D02*
X021955Y006464D01*
X022357Y006270D02*
X030260Y006270D01*
X030260Y006173D02*
X015913Y006173D01*
X016032Y006076D02*
X030260Y006076D01*
X030260Y005979D02*
X016073Y005979D01*
X016077Y005882D02*
X030260Y005882D01*
X030260Y006367D02*
X022484Y006367D01*
X022527Y006464D02*
X030260Y006464D01*
X030260Y006561D02*
X022534Y006561D01*
X022509Y006658D02*
X030260Y006658D01*
X030260Y006755D02*
X022440Y006755D01*
X022492Y006852D02*
X030260Y006852D01*
X030260Y006949D02*
X022532Y006949D01*
X022534Y007046D02*
X030260Y007046D01*
X030260Y007143D02*
X022504Y007143D01*
X022427Y007240D02*
X030260Y007240D01*
X029210Y007531D02*
X028186Y007531D01*
X028311Y007628D02*
X029085Y007628D01*
X029041Y007725D02*
X028354Y007725D01*
X028361Y007822D02*
X029035Y007822D01*
X029060Y007919D02*
X028336Y007919D01*
X028266Y008016D02*
X029130Y008016D01*
X028296Y005107D02*
X027303Y005107D01*
X027337Y005010D02*
X028211Y005010D01*
X028170Y004913D02*
X027337Y004913D01*
X027300Y004816D02*
X028153Y004816D01*
X028153Y004719D02*
X027213Y004719D01*
X026876Y004719D02*
X015600Y004719D01*
X015605Y004622D02*
X028187Y004622D01*
X028239Y004525D02*
X015578Y004525D01*
X015505Y004428D02*
X028336Y004428D01*
X026789Y004816D02*
X015560Y004816D01*
X015442Y004913D02*
X026751Y004913D01*
X026751Y005010D02*
X022749Y005010D01*
X022876Y005107D02*
X026414Y005107D01*
X026319Y005204D02*
X022921Y005204D01*
X022928Y005301D02*
X026279Y005301D01*
X026279Y005398D02*
X022903Y005398D01*
X022834Y005495D02*
X026311Y005495D01*
X026730Y005107D02*
X026786Y005107D01*
X026825Y005204D02*
X026869Y005204D01*
X024724Y002585D02*
X024641Y002585D01*
X024571Y002101D02*
X024794Y002101D01*
X021277Y008113D02*
X013753Y008113D01*
X013655Y008210D02*
X021195Y008210D01*
X021161Y008307D02*
X013558Y008307D01*
X013558Y008404D02*
X021161Y008404D01*
X021199Y008501D02*
X013520Y008501D01*
X013432Y008598D02*
X021287Y008598D01*
X021579Y011216D02*
X024489Y011216D01*
X024401Y011313D02*
X021674Y011313D01*
X021715Y011410D02*
X024279Y011410D01*
X024237Y011507D02*
X021746Y011507D01*
X021746Y011604D02*
X024232Y011604D01*
X024258Y011701D02*
X021734Y011701D01*
X021694Y011797D02*
X024329Y011797D01*
X024476Y011894D02*
X021626Y011894D01*
X021512Y011991D02*
X024468Y011991D01*
X024492Y012088D02*
X016677Y012088D01*
X016810Y011991D02*
X019034Y011991D01*
X018920Y011894D02*
X016856Y011894D01*
X016865Y011797D02*
X018852Y011797D01*
X018811Y011701D02*
X016842Y011701D01*
X016775Y011604D02*
X018800Y011604D01*
X019512Y011991D02*
X020034Y011991D01*
X019920Y011894D02*
X019626Y011894D01*
X019694Y011797D02*
X019852Y011797D01*
X019811Y011701D02*
X019734Y011701D01*
X019746Y011604D02*
X019800Y011604D01*
X019800Y011507D02*
X019746Y011507D01*
X019715Y011410D02*
X019831Y011410D01*
X019871Y011313D02*
X019674Y011313D01*
X019579Y011216D02*
X019967Y011216D01*
X020579Y011216D02*
X020967Y011216D01*
X020871Y011313D02*
X020674Y011313D01*
X020715Y011410D02*
X020831Y011410D01*
X020800Y011507D02*
X020746Y011507D01*
X020746Y011604D02*
X020800Y011604D01*
X020811Y011701D02*
X020734Y011701D01*
X020694Y011797D02*
X020852Y011797D01*
X020920Y011894D02*
X020626Y011894D01*
X020512Y011991D02*
X021034Y011991D01*
X023722Y013155D02*
X005168Y013155D01*
X005168Y013252D02*
X023826Y013252D01*
X024153Y012573D02*
X016687Y012573D01*
X016624Y012476D02*
X024153Y012476D01*
X024246Y008888D02*
X016658Y008888D01*
X016534Y008791D02*
X024299Y008791D01*
X018162Y009567D02*
X016839Y009567D01*
X016768Y009470D02*
X018106Y009470D01*
X016687Y011216D02*
X013873Y011216D01*
X013869Y011119D02*
X016564Y011119D01*
X016521Y011022D02*
X015023Y011022D01*
X015101Y010925D02*
X016515Y010925D01*
X016541Y010828D02*
X015133Y010828D01*
X015132Y010731D02*
X016612Y010731D01*
X016000Y010634D02*
X015092Y010634D01*
X014991Y010537D02*
X015919Y010537D01*
X015885Y010440D02*
X011799Y010440D01*
X011826Y010343D02*
X015885Y010343D01*
X015924Y010246D02*
X011819Y010246D01*
X011777Y010149D02*
X016013Y010149D01*
X016218Y009276D02*
X015099Y009276D01*
X015133Y009179D02*
X016147Y009179D01*
X016122Y009082D02*
X015133Y009082D01*
X015094Y008985D02*
X016128Y008985D01*
X016171Y008888D02*
X015003Y008888D01*
X014676Y008888D02*
X012905Y008888D01*
X012978Y008791D02*
X016295Y008791D01*
X014586Y008985D02*
X007754Y008985D01*
X007745Y008888D02*
X012523Y008888D01*
X012449Y008791D02*
X007705Y008791D01*
X007640Y008694D02*
X012421Y008694D01*
X012425Y008598D02*
X007536Y008598D01*
X007754Y009082D02*
X014547Y009082D01*
X014547Y009179D02*
X007720Y009179D01*
X007677Y009276D02*
X014580Y009276D01*
X014426Y009373D02*
X007580Y009373D01*
X007390Y009470D02*
X014344Y009470D01*
X014311Y009567D02*
X007462Y009567D01*
X007610Y009664D02*
X014311Y009664D01*
X014349Y009761D02*
X007692Y009761D01*
X007732Y009858D02*
X014437Y009858D01*
X012446Y008307D02*
X012194Y008307D01*
X012284Y007822D02*
X012355Y007822D01*
X012863Y006866D02*
X012780Y006784D01*
X012736Y006676D01*
X012736Y006560D01*
X012780Y006452D01*
X012863Y006370D01*
X012970Y006325D01*
X013087Y006325D01*
X013195Y006370D01*
X013277Y006452D01*
X013322Y006560D01*
X013322Y006676D01*
X013277Y006784D01*
X013195Y006866D01*
X013087Y006911D01*
X012970Y006911D01*
X012863Y006866D01*
X012849Y006852D02*
X011870Y006852D01*
X011950Y006755D02*
X012768Y006755D01*
X012736Y006658D02*
X011983Y006658D01*
X011983Y006561D02*
X012736Y006561D01*
X012775Y006464D02*
X011943Y006464D01*
X011850Y006367D02*
X012868Y006367D01*
X013189Y006367D02*
X015703Y006367D01*
X015610Y006464D02*
X013282Y006464D01*
X013322Y006561D02*
X015570Y006561D01*
X015570Y006658D02*
X013322Y006658D01*
X013289Y006755D02*
X015603Y006755D01*
X015683Y006852D02*
X013209Y006852D01*
X012490Y004264D02*
X012534Y004157D01*
X010092Y006658D02*
X009466Y006658D01*
X009339Y006755D02*
X007250Y006755D01*
X007291Y006658D02*
X009033Y006658D01*
X008974Y006561D02*
X007295Y006561D01*
X007286Y006464D02*
X008956Y006464D01*
X008971Y006367D02*
X007246Y006367D01*
X007167Y006270D02*
X009025Y006270D01*
X009234Y006852D02*
X007179Y006852D01*
X007030Y006949D02*
X009194Y006949D01*
X009183Y007240D02*
X009299Y007240D01*
X009269Y007337D02*
X010499Y007337D01*
X010411Y007240D02*
X009671Y007240D01*
X009748Y007143D02*
X009990Y007143D01*
X009924Y007046D02*
X009778Y007046D01*
X009776Y006949D02*
X009901Y006949D01*
X009910Y006852D02*
X009736Y006852D01*
X009631Y006755D02*
X009958Y006755D01*
X016043Y006852D02*
X016287Y006852D01*
X016279Y006755D02*
X016124Y006755D01*
X016156Y006658D02*
X016303Y006658D01*
X016372Y006561D02*
X016156Y006561D01*
X016050Y005785D02*
X017718Y005785D01*
X017590Y005688D02*
X015978Y005688D01*
X016220Y014997D02*
X015506Y014997D01*
X015648Y015094D02*
X016078Y015094D01*
X016012Y015191D02*
X015714Y015191D01*
X015751Y015288D02*
X015975Y015288D01*
X015975Y015385D02*
X015751Y015385D01*
X015732Y015482D02*
X015995Y015482D01*
X016036Y015579D02*
X015691Y015579D01*
X015594Y015676D02*
X016133Y015676D01*
X017145Y015967D02*
X014581Y015967D01*
X014574Y016064D02*
X017153Y016064D01*
X017197Y016161D02*
X014530Y016161D01*
X014402Y016258D02*
X017325Y016258D01*
X017170Y015870D02*
X014557Y015870D01*
X014488Y015773D02*
X017239Y015773D01*
X017950Y021203D02*
X014879Y021203D01*
X014848Y021173D02*
X014931Y021255D01*
X014975Y021363D01*
X014975Y021479D01*
X014931Y021587D01*
X014848Y021669D01*
X014740Y021714D01*
X014624Y021714D01*
X014516Y021669D01*
X014434Y021587D01*
X014389Y021479D01*
X014389Y021363D01*
X014434Y021255D01*
X014516Y021173D01*
X014624Y021128D01*
X014740Y021128D01*
X014848Y021173D01*
X014949Y021300D02*
X017880Y021300D01*
X017854Y021397D02*
X014975Y021397D01*
X014969Y021494D02*
X017860Y021494D01*
X017903Y021591D02*
X014926Y021591D01*
X014803Y021688D02*
X018026Y021688D01*
X019992Y024694D02*
X024411Y024694D01*
X024284Y024791D02*
X020120Y024791D01*
X020165Y024888D02*
X024239Y024888D01*
X024232Y024985D02*
X020172Y024985D01*
X020147Y025082D02*
X024032Y025082D01*
X023896Y025179D02*
X020079Y025179D01*
X019685Y027894D02*
X017243Y027894D01*
X017188Y027991D02*
X019613Y027991D01*
X019633Y028282D02*
X015758Y028282D01*
X015859Y028379D02*
X019754Y028379D01*
X016302Y031385D02*
X011091Y031385D01*
X011020Y031482D02*
X016279Y031482D01*
X014298Y029640D02*
X014149Y029640D01*
X013798Y029640D02*
X013649Y029640D01*
X012821Y029640D02*
X005168Y029640D01*
X005168Y029737D02*
X012757Y029737D01*
X012736Y029834D02*
X005168Y029834D01*
X005168Y029931D02*
X012746Y029931D01*
X012796Y030028D02*
X011813Y030028D01*
X011777Y029992D02*
X011860Y030074D01*
X011904Y030182D01*
X011904Y030298D01*
X011860Y030406D01*
X011777Y030488D01*
X011670Y030533D01*
X011553Y030533D01*
X011445Y030488D01*
X011363Y030406D01*
X011318Y030298D01*
X011318Y030182D01*
X011363Y030074D01*
X011445Y029992D01*
X011553Y029947D01*
X011670Y029947D01*
X011777Y029992D01*
X011881Y030125D02*
X012935Y030125D01*
X013051Y030221D02*
X011904Y030221D01*
X011896Y030318D02*
X013059Y030318D01*
X013105Y030415D02*
X011850Y030415D01*
X011719Y030512D02*
X013236Y030512D01*
X012418Y031870D02*
X011117Y031870D01*
X011111Y031967D02*
X012307Y031967D01*
X012266Y032064D02*
X011068Y032064D01*
X010944Y032161D02*
X012263Y032161D01*
X012292Y032258D02*
X009671Y032258D01*
X009700Y032161D02*
X010704Y032161D01*
X010580Y032064D02*
X009696Y032064D01*
X009656Y031967D02*
X010537Y031967D01*
X010531Y031870D02*
X009545Y031870D01*
X009596Y032355D02*
X012367Y032355D01*
X011504Y030512D02*
X011089Y030512D01*
X011040Y030533D02*
X010923Y030533D01*
X010815Y030488D01*
X010733Y030406D01*
X010688Y030298D01*
X010688Y030182D01*
X010733Y030074D01*
X010815Y029992D01*
X010923Y029947D01*
X011040Y029947D01*
X011147Y029992D01*
X011230Y030074D01*
X011274Y030182D01*
X011274Y030298D01*
X011230Y030406D01*
X011147Y030488D01*
X011040Y030533D01*
X010874Y030512D02*
X005168Y030512D01*
X005168Y030415D02*
X010743Y030415D01*
X010697Y030318D02*
X005168Y030318D01*
X005168Y030221D02*
X010688Y030221D01*
X010712Y030125D02*
X005168Y030125D01*
X005168Y030028D02*
X010780Y030028D01*
X011183Y030028D02*
X011409Y030028D01*
X011342Y030125D02*
X011251Y030125D01*
X011274Y030221D02*
X011318Y030221D01*
X011327Y030318D02*
X011266Y030318D01*
X011220Y030415D02*
X011373Y030415D01*
X013672Y028185D02*
X013776Y028185D01*
X014172Y028185D02*
X014276Y028185D01*
X015605Y026343D02*
X023914Y026343D01*
X023856Y026246D02*
X015605Y026246D01*
X015565Y026149D02*
X023838Y026149D01*
X023853Y026052D02*
X015471Y026052D01*
X011450Y027312D02*
X011142Y027312D01*
X011235Y027409D02*
X011358Y027409D01*
X011318Y027506D02*
X011274Y027506D01*
X011274Y027603D02*
X011318Y027603D01*
X011351Y027700D02*
X011242Y027700D01*
X011161Y027797D02*
X011432Y027797D01*
X012125Y021688D02*
X014562Y021688D01*
X014438Y021591D02*
X012249Y021591D01*
X012292Y021494D02*
X014395Y021494D01*
X014389Y021397D02*
X012298Y021397D01*
X012272Y021300D02*
X014415Y021300D01*
X014486Y021203D02*
X012202Y021203D01*
X024001Y018973D02*
X024418Y018973D01*
X024341Y018876D02*
X024078Y018876D01*
X024109Y018779D02*
X024311Y018779D01*
X024312Y018682D02*
X024108Y018682D01*
X024503Y018391D02*
X026089Y018391D01*
X025966Y018294D02*
X024503Y018294D01*
X024463Y018197D02*
X025876Y018197D01*
X025835Y018100D02*
X024372Y018100D01*
X024414Y017616D02*
X025852Y017616D01*
X025909Y017519D02*
X024480Y017519D01*
X024503Y017422D02*
X026006Y017422D01*
X026185Y017325D02*
X024493Y017325D01*
X024336Y017131D02*
X024312Y017131D01*
X024311Y017034D02*
X024109Y017034D01*
X024107Y017131D02*
X024084Y017131D01*
X024102Y016937D02*
X024317Y016937D01*
X024361Y016840D02*
X024059Y016840D01*
X023933Y016743D02*
X024487Y016743D01*
X026565Y017325D02*
X028941Y017325D01*
X028761Y017422D02*
X026745Y017422D01*
X026842Y017519D02*
X028664Y017519D01*
X028608Y017616D02*
X026898Y017616D01*
X026939Y017713D02*
X028567Y017713D01*
X028547Y017810D02*
X026959Y017810D01*
X026959Y017906D02*
X028547Y017906D01*
X028551Y018003D02*
X026955Y018003D01*
X026915Y018100D02*
X028591Y018100D01*
X028631Y018197D02*
X026875Y018197D01*
X026784Y018294D02*
X028722Y018294D01*
X028845Y018391D02*
X026661Y018391D01*
X024866Y018876D02*
X029361Y018876D01*
X029767Y018876D02*
X030260Y018876D01*
X030260Y018779D02*
X029834Y018779D01*
X029857Y018682D02*
X030260Y018682D01*
X030260Y018585D02*
X029848Y018585D01*
X029801Y018488D02*
X030260Y018488D01*
X030260Y018391D02*
X029668Y018391D01*
X030260Y018973D02*
X024788Y018973D01*
X024256Y025082D02*
X024230Y025082D01*
X024351Y034488D02*
X005168Y034488D01*
X005168Y034585D02*
X024267Y034585D01*
X024232Y034682D02*
X005168Y034682D01*
X005168Y034779D02*
X024232Y034779D01*
X024269Y034876D02*
X005168Y034876D01*
X005168Y034973D02*
X024355Y034973D01*
X024694Y034973D02*
X028757Y034973D01*
X028720Y035070D02*
X005168Y035070D01*
X005168Y035167D02*
X028720Y035167D01*
X028755Y035264D02*
X005168Y035264D01*
X005168Y035361D02*
X028838Y035361D01*
X028845Y034876D02*
X024781Y034876D01*
M02*
